G04 #@! TF.GenerationSoftware,KiCad,Pcbnew,(5.1.4)-1*
G04 #@! TF.CreationDate,2020-07-23T16:09:46+01:00*
G04 #@! TF.ProjectId,F7_100pin,46375f31-3030-4706-996e-2e6b69636164,rev?*
G04 #@! TF.SameCoordinates,Original*
G04 #@! TF.FileFunction,Legend,Bot*
G04 #@! TF.FilePolarity,Positive*
%FSLAX46Y46*%
G04 Gerber Fmt 4.6, Leading zero omitted, Abs format (unit mm)*
G04 Created by KiCad (PCBNEW (5.1.4)-1) date 2020-07-23 16:09:46*
%MOMM*%
%LPD*%
G04 APERTURE LIST*
%ADD10C,0.075000*%
%ADD11C,0.150000*%
G04 APERTURE END LIST*
D10*
X128180952Y-53650000D02*
X128228571Y-53626190D01*
X128300000Y-53626190D01*
X128371428Y-53650000D01*
X128419047Y-53697619D01*
X128442857Y-53745238D01*
X128466666Y-53840476D01*
X128466666Y-53911904D01*
X128442857Y-54007142D01*
X128419047Y-54054761D01*
X128371428Y-54102380D01*
X128300000Y-54126190D01*
X128252380Y-54126190D01*
X128180952Y-54102380D01*
X128157142Y-54078571D01*
X128157142Y-53911904D01*
X128252380Y-53911904D01*
X127942857Y-54126190D02*
X127942857Y-53626190D01*
X127657142Y-54126190D01*
X127657142Y-53626190D01*
X127419047Y-54126190D02*
X127419047Y-53626190D01*
X127300000Y-53626190D01*
X127228571Y-53650000D01*
X127180952Y-53697619D01*
X127157142Y-53745238D01*
X127133333Y-53840476D01*
X127133333Y-53911904D01*
X127157142Y-54007142D01*
X127180952Y-54054761D01*
X127228571Y-54102380D01*
X127300000Y-54126190D01*
X127419047Y-54126190D01*
X128319047Y-50926190D02*
X128009523Y-50926190D01*
X128176190Y-51116666D01*
X128104761Y-51116666D01*
X128057142Y-51140476D01*
X128033333Y-51164285D01*
X128009523Y-51211904D01*
X128009523Y-51330952D01*
X128033333Y-51378571D01*
X128057142Y-51402380D01*
X128104761Y-51426190D01*
X128247619Y-51426190D01*
X128295238Y-51402380D01*
X128319047Y-51378571D01*
X127866666Y-50926190D02*
X127700000Y-51426190D01*
X127533333Y-50926190D01*
X127414285Y-50926190D02*
X127104761Y-50926190D01*
X127271428Y-51116666D01*
X127200000Y-51116666D01*
X127152380Y-51140476D01*
X127128571Y-51164285D01*
X127104761Y-51211904D01*
X127104761Y-51330952D01*
X127128571Y-51378571D01*
X127152380Y-51402380D01*
X127200000Y-51426190D01*
X127342857Y-51426190D01*
X127390476Y-51402380D01*
X127414285Y-51378571D01*
X128380952Y-48026190D02*
X128095238Y-48026190D01*
X128238095Y-48526190D02*
X128238095Y-48026190D01*
X127976190Y-48026190D02*
X127642857Y-48526190D01*
X127642857Y-48026190D02*
X127976190Y-48526190D01*
X127983333Y-45226190D02*
X128150000Y-44988095D01*
X128269047Y-45226190D02*
X128269047Y-44726190D01*
X128078571Y-44726190D01*
X128030952Y-44750000D01*
X128007142Y-44773809D01*
X127983333Y-44821428D01*
X127983333Y-44892857D01*
X128007142Y-44940476D01*
X128030952Y-44964285D01*
X128078571Y-44988095D01*
X128269047Y-44988095D01*
X127816666Y-44726190D02*
X127483333Y-45226190D01*
X127483333Y-44726190D02*
X127816666Y-45226190D01*
X63150000Y-32619047D02*
X63126190Y-32571428D01*
X63126190Y-32500000D01*
X63150000Y-32428571D01*
X63197619Y-32380952D01*
X63245238Y-32357142D01*
X63340476Y-32333333D01*
X63411904Y-32333333D01*
X63507142Y-32357142D01*
X63554761Y-32380952D01*
X63602380Y-32428571D01*
X63626190Y-32500000D01*
X63626190Y-32547619D01*
X63602380Y-32619047D01*
X63578571Y-32642857D01*
X63411904Y-32642857D01*
X63411904Y-32547619D01*
X63626190Y-32857142D02*
X63126190Y-32857142D01*
X63626190Y-33142857D01*
X63126190Y-33142857D01*
X63626190Y-33380952D02*
X63126190Y-33380952D01*
X63126190Y-33500000D01*
X63150000Y-33571428D01*
X63197619Y-33619047D01*
X63245238Y-33642857D01*
X63340476Y-33666666D01*
X63411904Y-33666666D01*
X63507142Y-33642857D01*
X63554761Y-33619047D01*
X63602380Y-33571428D01*
X63626190Y-33500000D01*
X63626190Y-33380952D01*
X63126190Y-29233333D02*
X63626190Y-29400000D01*
X63126190Y-29566666D01*
X63578571Y-30019047D02*
X63602380Y-29995238D01*
X63626190Y-29923809D01*
X63626190Y-29876190D01*
X63602380Y-29804761D01*
X63554761Y-29757142D01*
X63507142Y-29733333D01*
X63411904Y-29709523D01*
X63340476Y-29709523D01*
X63245238Y-29733333D01*
X63197619Y-29757142D01*
X63150000Y-29804761D01*
X63126190Y-29876190D01*
X63126190Y-29923809D01*
X63150000Y-29995238D01*
X63173809Y-30019047D01*
X63578571Y-30519047D02*
X63602380Y-30495238D01*
X63626190Y-30423809D01*
X63626190Y-30376190D01*
X63602380Y-30304761D01*
X63554761Y-30257142D01*
X63507142Y-30233333D01*
X63411904Y-30209523D01*
X63340476Y-30209523D01*
X63245238Y-30233333D01*
X63197619Y-30257142D01*
X63150000Y-30304761D01*
X63126190Y-30376190D01*
X63126190Y-30423809D01*
X63150000Y-30495238D01*
X63173809Y-30519047D01*
X104651785Y-21988095D02*
X104675595Y-22059523D01*
X104699404Y-22083333D01*
X104747023Y-22107142D01*
X104818452Y-22107142D01*
X104866071Y-22083333D01*
X104889880Y-22059523D01*
X104913690Y-22011904D01*
X104913690Y-21821428D01*
X104413690Y-21821428D01*
X104413690Y-21988095D01*
X104437500Y-22035714D01*
X104461309Y-22059523D01*
X104508928Y-22083333D01*
X104556547Y-22083333D01*
X104604166Y-22059523D01*
X104627976Y-22035714D01*
X104651785Y-21988095D01*
X104651785Y-21821428D01*
X104913690Y-22321428D02*
X104413690Y-22321428D01*
X104770833Y-22535714D02*
X104770833Y-22773809D01*
X104913690Y-22488095D02*
X104413690Y-22654761D01*
X104913690Y-22821428D01*
X104889880Y-22964285D02*
X104913690Y-23035714D01*
X104913690Y-23154761D01*
X104889880Y-23202380D01*
X104866071Y-23226190D01*
X104818452Y-23250000D01*
X104770833Y-23250000D01*
X104723214Y-23226190D01*
X104699404Y-23202380D01*
X104675595Y-23154761D01*
X104651785Y-23059523D01*
X104627976Y-23011904D01*
X104604166Y-22988095D01*
X104556547Y-22964285D01*
X104508928Y-22964285D01*
X104461309Y-22988095D01*
X104437500Y-23011904D01*
X104413690Y-23059523D01*
X104413690Y-23178571D01*
X104437500Y-23250000D01*
X104651785Y-23464285D02*
X104651785Y-23630952D01*
X104913690Y-23702380D02*
X104913690Y-23464285D01*
X104413690Y-23464285D01*
X104413690Y-23702380D01*
X104913690Y-23916666D02*
X104413690Y-23916666D01*
X104413690Y-24035714D01*
X104437500Y-24107142D01*
X104485119Y-24154761D01*
X104532738Y-24178571D01*
X104627976Y-24202380D01*
X104699404Y-24202380D01*
X104794642Y-24178571D01*
X104842261Y-24154761D01*
X104889880Y-24107142D01*
X104913690Y-24035714D01*
X104913690Y-23916666D01*
X105238690Y-21797619D02*
X105238690Y-21892857D01*
X105262500Y-21940476D01*
X105310119Y-21988095D01*
X105405357Y-22011904D01*
X105572023Y-22011904D01*
X105667261Y-21988095D01*
X105714880Y-21940476D01*
X105738690Y-21892857D01*
X105738690Y-21797619D01*
X105714880Y-21750000D01*
X105667261Y-21702380D01*
X105572023Y-21678571D01*
X105405357Y-21678571D01*
X105310119Y-21702380D01*
X105262500Y-21750000D01*
X105238690Y-21797619D01*
X105238690Y-22226190D02*
X105643452Y-22226190D01*
X105691071Y-22250000D01*
X105714880Y-22273809D01*
X105738690Y-22321428D01*
X105738690Y-22416666D01*
X105714880Y-22464285D01*
X105691071Y-22488095D01*
X105643452Y-22511904D01*
X105238690Y-22511904D01*
X105238690Y-22678571D02*
X105238690Y-22964285D01*
X105738690Y-22821428D02*
X105238690Y-22821428D01*
X105738690Y-23130952D02*
X105238690Y-23130952D01*
X105238690Y-23321428D01*
X105262500Y-23369047D01*
X105286309Y-23392857D01*
X105333928Y-23416666D01*
X105405357Y-23416666D01*
X105452976Y-23392857D01*
X105476785Y-23369047D01*
X105500595Y-23321428D01*
X105500595Y-23130952D01*
X105238690Y-23630952D02*
X105643452Y-23630952D01*
X105691071Y-23654761D01*
X105714880Y-23678571D01*
X105738690Y-23726190D01*
X105738690Y-23821428D01*
X105714880Y-23869047D01*
X105691071Y-23892857D01*
X105643452Y-23916666D01*
X105238690Y-23916666D01*
X105238690Y-24083333D02*
X105238690Y-24369047D01*
X105738690Y-24226190D02*
X105238690Y-24226190D01*
X98850000Y-22219047D02*
X98826190Y-22171428D01*
X98826190Y-22100000D01*
X98850000Y-22028571D01*
X98897619Y-21980952D01*
X98945238Y-21957142D01*
X99040476Y-21933333D01*
X99111904Y-21933333D01*
X99207142Y-21957142D01*
X99254761Y-21980952D01*
X99302380Y-22028571D01*
X99326190Y-22100000D01*
X99326190Y-22147619D01*
X99302380Y-22219047D01*
X99278571Y-22242857D01*
X99111904Y-22242857D01*
X99111904Y-22147619D01*
X99326190Y-22457142D02*
X98826190Y-22457142D01*
X99326190Y-22742857D01*
X98826190Y-22742857D01*
X99326190Y-22980952D02*
X98826190Y-22980952D01*
X98826190Y-23100000D01*
X98850000Y-23171428D01*
X98897619Y-23219047D01*
X98945238Y-23242857D01*
X99040476Y-23266666D01*
X99111904Y-23266666D01*
X99207142Y-23242857D01*
X99254761Y-23219047D01*
X99302380Y-23171428D01*
X99326190Y-23100000D01*
X99326190Y-22980952D01*
X98050000Y-22780952D02*
X98073809Y-22828571D01*
X98073809Y-22900000D01*
X98050000Y-22971428D01*
X98002380Y-23019047D01*
X97954761Y-23042857D01*
X97859523Y-23066666D01*
X97788095Y-23066666D01*
X97692857Y-23042857D01*
X97645238Y-23019047D01*
X97597619Y-22971428D01*
X97573809Y-22900000D01*
X97573809Y-22852380D01*
X97597619Y-22780952D01*
X97621428Y-22757142D01*
X97788095Y-22757142D01*
X97788095Y-22852380D01*
X97573809Y-22542857D02*
X98073809Y-22542857D01*
X97573809Y-22257142D01*
X98073809Y-22257142D01*
X97573809Y-22019047D02*
X98073809Y-22019047D01*
X98073809Y-21900000D01*
X98050000Y-21828571D01*
X98002380Y-21780952D01*
X97954761Y-21757142D01*
X97859523Y-21733333D01*
X97788095Y-21733333D01*
X97692857Y-21757142D01*
X97645238Y-21780952D01*
X97597619Y-21828571D01*
X97573809Y-21900000D01*
X97573809Y-22019047D01*
X91173809Y-24657142D02*
X91673809Y-24657142D01*
X91673809Y-24466666D01*
X91650000Y-24419047D01*
X91626190Y-24395238D01*
X91578571Y-24371428D01*
X91507142Y-24371428D01*
X91459523Y-24395238D01*
X91435714Y-24419047D01*
X91411904Y-24466666D01*
X91411904Y-24657142D01*
X91173809Y-23871428D02*
X91411904Y-24038095D01*
X91173809Y-24157142D02*
X91673809Y-24157142D01*
X91673809Y-23966666D01*
X91650000Y-23919047D01*
X91626190Y-23895238D01*
X91578571Y-23871428D01*
X91507142Y-23871428D01*
X91459523Y-23895238D01*
X91435714Y-23919047D01*
X91411904Y-23966666D01*
X91411904Y-24157142D01*
X91435714Y-23657142D02*
X91435714Y-23490476D01*
X91173809Y-23419047D02*
X91173809Y-23657142D01*
X91673809Y-23657142D01*
X91673809Y-23419047D01*
X91316666Y-23228571D02*
X91316666Y-22990476D01*
X91173809Y-23276190D02*
X91673809Y-23109523D01*
X91173809Y-22942857D01*
X91173809Y-22776190D02*
X91673809Y-22776190D01*
X91316666Y-22609523D01*
X91673809Y-22442857D01*
X91173809Y-22442857D01*
X91173809Y-22204761D02*
X91673809Y-22204761D01*
X91673809Y-22014285D01*
X91650000Y-21966666D01*
X91626190Y-21942857D01*
X91578571Y-21919047D01*
X91507142Y-21919047D01*
X91459523Y-21942857D01*
X91435714Y-21966666D01*
X91411904Y-22014285D01*
X91411904Y-22204761D01*
D11*
X76300000Y-22438095D02*
X76252380Y-22342857D01*
X76252380Y-22200000D01*
X76300000Y-22057142D01*
X76395238Y-21961904D01*
X76490476Y-21914285D01*
X76680952Y-21866666D01*
X76823809Y-21866666D01*
X77014285Y-21914285D01*
X77109523Y-21961904D01*
X77204761Y-22057142D01*
X77252380Y-22200000D01*
X77252380Y-22295238D01*
X77204761Y-22438095D01*
X77157142Y-22485714D01*
X76823809Y-22485714D01*
X76823809Y-22295238D01*
X77252380Y-22914285D02*
X76252380Y-22914285D01*
X77252380Y-23485714D01*
X76252380Y-23485714D01*
X77252380Y-23961904D02*
X76252380Y-23961904D01*
X76252380Y-24200000D01*
X76300000Y-24342857D01*
X76395238Y-24438095D01*
X76490476Y-24485714D01*
X76680952Y-24533333D01*
X76823809Y-24533333D01*
X77014285Y-24485714D01*
X77109523Y-24438095D01*
X77204761Y-24342857D01*
X77252380Y-24200000D01*
X77252380Y-23961904D01*
X70052380Y-22061904D02*
X70052380Y-22680952D01*
X70433333Y-22347619D01*
X70433333Y-22490476D01*
X70480952Y-22585714D01*
X70528571Y-22633333D01*
X70623809Y-22680952D01*
X70861904Y-22680952D01*
X70957142Y-22633333D01*
X71004761Y-22585714D01*
X71052380Y-22490476D01*
X71052380Y-22204761D01*
X71004761Y-22109523D01*
X70957142Y-22061904D01*
X70052380Y-22966666D02*
X71052380Y-23300000D01*
X70052380Y-23633333D01*
X70052380Y-23871428D02*
X70052380Y-24490476D01*
X70433333Y-24157142D01*
X70433333Y-24300000D01*
X70480952Y-24395238D01*
X70528571Y-24442857D01*
X70623809Y-24490476D01*
X70861904Y-24490476D01*
X70957142Y-24442857D01*
X71004761Y-24395238D01*
X71052380Y-24300000D01*
X71052380Y-24014285D01*
X71004761Y-23919047D01*
X70957142Y-23871428D01*
M02*
