G04 #@! TF.GenerationSoftware,KiCad,Pcbnew,(5.1.4)-1*
G04 #@! TF.CreationDate,2020-07-14T01:04:40+01:00*
G04 #@! TF.ProjectId,F7_100pin,46375f31-3030-4706-996e-2e6b69636164,rev?*
G04 #@! TF.SameCoordinates,Original*
G04 #@! TF.FileFunction,Copper,L2,Inr*
G04 #@! TF.FilePolarity,Positive*
%FSLAX46Y46*%
G04 Gerber Fmt 4.6, Leading zero omitted, Abs format (unit mm)*
G04 Created by KiCad (PCBNEW (5.1.4)-1) date 2020-07-14 01:04:40*
%MOMM*%
%LPD*%
G04 APERTURE LIST*
%ADD10C,6.400000*%
%ADD11C,0.800000*%
%ADD12R,1.700000X1.700000*%
%ADD13O,1.700000X1.700000*%
%ADD14R,1.000000X1.000000*%
%ADD15O,1.000000X1.000000*%
%ADD16C,1.500000*%
%ADD17C,1.200000*%
%ADD18C,0.500000*%
%ADD19C,0.300000*%
%ADD20C,0.200000*%
G04 APERTURE END LIST*
D10*
X66040000Y-24130000D03*
D11*
X68440000Y-24130000D03*
X67737056Y-25827056D03*
X66040000Y-26530000D03*
X64342944Y-25827056D03*
X63640000Y-24130000D03*
X64342944Y-22432944D03*
X66040000Y-21730000D03*
X67737056Y-22432944D03*
X67737056Y-60532944D03*
X66040000Y-59830000D03*
X64342944Y-60532944D03*
X63640000Y-62230000D03*
X64342944Y-63927056D03*
X66040000Y-64630000D03*
X67737056Y-63927056D03*
X68440000Y-62230000D03*
D10*
X66040000Y-62230000D03*
X128270000Y-24130000D03*
D11*
X130670000Y-24130000D03*
X129967056Y-25827056D03*
X128270000Y-26530000D03*
X126572944Y-25827056D03*
X125870000Y-24130000D03*
X126572944Y-22432944D03*
X128270000Y-21730000D03*
X129967056Y-22432944D03*
X129967056Y-60532944D03*
X128270000Y-59830000D03*
X126572944Y-60532944D03*
X125870000Y-62230000D03*
X126572944Y-63927056D03*
X128270000Y-64630000D03*
X129967056Y-63927056D03*
X130670000Y-62230000D03*
D10*
X128270000Y-62230000D03*
D12*
X93900000Y-23114000D03*
D13*
X96440000Y-23114000D03*
D12*
X129500000Y-45400000D03*
D13*
X129500000Y-47940000D03*
X129500000Y-50480000D03*
X129500000Y-53020000D03*
X65024000Y-33020000D03*
D12*
X65024000Y-30480000D03*
X103000000Y-23114000D03*
D13*
X100460000Y-23114000D03*
X75184000Y-23368000D03*
D12*
X72644000Y-23368000D03*
D14*
X114500000Y-22500000D03*
D15*
X114500000Y-23770000D03*
X113230000Y-22500000D03*
X113230000Y-23770000D03*
X111960000Y-22500000D03*
X111960000Y-23770000D03*
X110690000Y-22500000D03*
X110690000Y-23770000D03*
X109420000Y-22500000D03*
X109420000Y-23770000D03*
D16*
X115250000Y-63250000D03*
X121750000Y-63250000D03*
X121750000Y-58750000D03*
X115250000Y-58750000D03*
D11*
X85250000Y-34250000D03*
X90000000Y-36000000D03*
X94750000Y-26750000D03*
X89250000Y-26750000D03*
D17*
X97500000Y-34250000D03*
X95000000Y-60500000D03*
X77500000Y-27750000D03*
X69500000Y-28000000D03*
X98000000Y-56750000D03*
X99250000Y-51250000D03*
X109000000Y-58250000D03*
D11*
X90000000Y-33250000D03*
X98250000Y-29000000D03*
D17*
X72750000Y-26000000D03*
X73250000Y-36750000D03*
X111000000Y-32750000D03*
X111000000Y-34750000D03*
X117250000Y-36000000D03*
X126500000Y-50750000D03*
D11*
X111000000Y-43750000D03*
D17*
X116750000Y-22500000D03*
X106750000Y-48000000D03*
X69500000Y-37000000D03*
X76000000Y-39250000D03*
X68500000Y-39250000D03*
X97000000Y-41250000D03*
X97000000Y-39750000D03*
X92000000Y-46000000D03*
X100000000Y-65000000D03*
X111000000Y-62000000D03*
X114750000Y-44500000D03*
X89000000Y-62500000D03*
X87250000Y-62250000D03*
X118750000Y-36000000D03*
X65000000Y-54250000D03*
X66250000Y-55750000D03*
X64000000Y-56500000D03*
X63250000Y-41000000D03*
X65500000Y-43000000D03*
X72500000Y-44000000D03*
X75000000Y-48750000D03*
X74000000Y-53500000D03*
X98250000Y-53000000D03*
X101250000Y-38500000D03*
D11*
X113500000Y-55000000D03*
X88250000Y-39250000D03*
X81500000Y-40250000D03*
D17*
X96000000Y-25800000D03*
X92750000Y-34500000D03*
D11*
X112250000Y-30250000D03*
X113500000Y-48500000D03*
X110500000Y-30500000D03*
X109250000Y-41750000D03*
X112250000Y-45000000D03*
X113250000Y-50750000D03*
D17*
X109250000Y-31750000D03*
D11*
X109000000Y-39500000D03*
D17*
X108750000Y-33750000D03*
D11*
X108000000Y-39500000D03*
X110750000Y-36000000D03*
X105750000Y-46750000D03*
X111000000Y-45250000D03*
X108250000Y-51250000D03*
X88900000Y-48600000D03*
X88900000Y-53400000D03*
D17*
X82750000Y-28750000D03*
X76250000Y-41750000D03*
X89250000Y-32250000D03*
X74500000Y-26250000D03*
X126500000Y-53250000D03*
D11*
X107000000Y-21500000D03*
X107500000Y-22500000D03*
D17*
X63500000Y-50000000D03*
X63250000Y-51750000D03*
X63500000Y-53500000D03*
X79250000Y-51000000D03*
X79250000Y-53000000D03*
X78750000Y-54750000D03*
X70250000Y-53250000D03*
X72250000Y-53750000D03*
X69750000Y-55250000D03*
X84750000Y-44750000D03*
X84750000Y-46750000D03*
X84500000Y-49000000D03*
X77000000Y-44000000D03*
X70000000Y-45250000D03*
X69750000Y-43500000D03*
X122250000Y-23000000D03*
X127250000Y-57250000D03*
X69750000Y-21250000D03*
X71000000Y-63500000D03*
X88500000Y-60250000D03*
X101000000Y-63000000D03*
X93000000Y-64000000D03*
X99250000Y-40250000D03*
X99250000Y-38750000D03*
X90750000Y-46750000D03*
X111250000Y-64000000D03*
X119000000Y-45250000D03*
D11*
X92500000Y-59250000D03*
D17*
X75750000Y-32750000D03*
X77500000Y-32750000D03*
X117250000Y-38250000D03*
X117000000Y-41000000D03*
X118500000Y-40750000D03*
X118750000Y-38000000D03*
X78000000Y-25250000D03*
X86750000Y-22750000D03*
X86750000Y-21250000D03*
X78000000Y-22000000D03*
X124000000Y-26000000D03*
X121750000Y-26000000D03*
X119250000Y-26000000D03*
X110500000Y-26250000D03*
X107000000Y-26250000D03*
X104250000Y-26500000D03*
X104000000Y-29000000D03*
X93250000Y-37250000D03*
X96250000Y-37250000D03*
X83250000Y-60000000D03*
X80500000Y-60250000D03*
X77250000Y-60250000D03*
X73500000Y-60250000D03*
X73500000Y-62500000D03*
X77250000Y-63000000D03*
X80750000Y-62750000D03*
X83750000Y-62500000D03*
X85000000Y-60000000D03*
X82500000Y-64750000D03*
X80000000Y-65000000D03*
X85000000Y-57500000D03*
X82500000Y-57500000D03*
X117500000Y-55000000D03*
X122000000Y-55000000D03*
X124750000Y-54750000D03*
X122500000Y-47500000D03*
X122500000Y-45000000D03*
X125250000Y-44750000D03*
X120000000Y-49750000D03*
D11*
X82500000Y-33000000D03*
X80250000Y-36750000D03*
D17*
X67750000Y-53500000D03*
X80750000Y-39000000D03*
D11*
X86250000Y-33750000D03*
X86750000Y-36060200D03*
D17*
X82000000Y-55750000D03*
X82750000Y-41500000D03*
D18*
X88900000Y-53400000D02*
X88900000Y-54800000D01*
D19*
X91250000Y-63000000D02*
X88500000Y-60250000D01*
X101000000Y-63000000D02*
X91250000Y-63000000D01*
D20*
G36*
X126147294Y-20946346D02*
G01*
X125782967Y-21425178D01*
X128270000Y-23912211D01*
X128284142Y-23898069D01*
X128501931Y-24115858D01*
X128487789Y-24130000D01*
X130974822Y-26617033D01*
X131453654Y-26252706D01*
X131526290Y-26116491D01*
X131548701Y-60285115D01*
X131453654Y-60107294D01*
X130974822Y-59742967D01*
X128487789Y-62230000D01*
X128501931Y-62244142D01*
X128284142Y-62461931D01*
X128270000Y-62447789D01*
X125782967Y-64934822D01*
X126147294Y-65413654D01*
X126354999Y-65524411D01*
X100976766Y-65516317D01*
X101057727Y-65320858D01*
X101100000Y-65108341D01*
X101100000Y-64891659D01*
X101057727Y-64679142D01*
X100974807Y-64478955D01*
X100854425Y-64298791D01*
X100701209Y-64145575D01*
X100521045Y-64025193D01*
X100320858Y-63942273D01*
X100108341Y-63900000D01*
X99891659Y-63900000D01*
X99679142Y-63942273D01*
X99478955Y-64025193D01*
X99298791Y-64145575D01*
X99145575Y-64298791D01*
X99025193Y-64478955D01*
X98942273Y-64679142D01*
X98900000Y-64891659D01*
X98900000Y-65108341D01*
X98942273Y-65320858D01*
X99022976Y-65515694D01*
X67990321Y-65505796D01*
X68162706Y-65413654D01*
X68527033Y-64934822D01*
X66040000Y-62447789D01*
X66025858Y-62461931D01*
X65808069Y-62244142D01*
X65822211Y-62230000D01*
X66257789Y-62230000D01*
X68744822Y-64717033D01*
X69223654Y-64352706D01*
X69576601Y-63690818D01*
X69793637Y-62972792D01*
X69866423Y-62226221D01*
X69858011Y-62141659D01*
X86150000Y-62141659D01*
X86150000Y-62358341D01*
X86192273Y-62570858D01*
X86275193Y-62771045D01*
X86395575Y-62951209D01*
X86548791Y-63104425D01*
X86728955Y-63224807D01*
X86929142Y-63307727D01*
X87141659Y-63350000D01*
X87358341Y-63350000D01*
X87570858Y-63307727D01*
X87771045Y-63224807D01*
X87951209Y-63104425D01*
X88028957Y-63026677D01*
X88145575Y-63201209D01*
X88298791Y-63354425D01*
X88478955Y-63474807D01*
X88679142Y-63557727D01*
X88891659Y-63600000D01*
X89108341Y-63600000D01*
X89320858Y-63557727D01*
X89521045Y-63474807D01*
X89701209Y-63354425D01*
X89854425Y-63201209D01*
X89904086Y-63126886D01*
X114000000Y-63126886D01*
X114000000Y-63373114D01*
X114048037Y-63614611D01*
X114142265Y-63842097D01*
X114279062Y-64046828D01*
X114453172Y-64220938D01*
X114657903Y-64357735D01*
X114885389Y-64451963D01*
X115126886Y-64500000D01*
X115373114Y-64500000D01*
X115614611Y-64451963D01*
X115842097Y-64357735D01*
X116046828Y-64220938D01*
X116058397Y-64209369D01*
X121008420Y-64209369D01*
X121077638Y-64437427D01*
X121322213Y-64545782D01*
X121583227Y-64604341D01*
X121850650Y-64610853D01*
X122114205Y-64565069D01*
X122363764Y-64468747D01*
X122422362Y-64437427D01*
X122491580Y-64209369D01*
X121750000Y-63467789D01*
X121008420Y-64209369D01*
X116058397Y-64209369D01*
X116220938Y-64046828D01*
X116357735Y-63842097D01*
X116451963Y-63614611D01*
X116500000Y-63373114D01*
X116500000Y-63350650D01*
X120389147Y-63350650D01*
X120434931Y-63614205D01*
X120531253Y-63863764D01*
X120562573Y-63922362D01*
X120790631Y-63991580D01*
X121532211Y-63250000D01*
X121967789Y-63250000D01*
X122709369Y-63991580D01*
X122937427Y-63922362D01*
X123045782Y-63677787D01*
X123104341Y-63416773D01*
X123110853Y-63149350D01*
X123065069Y-62885795D01*
X122968747Y-62636236D01*
X122937427Y-62577638D01*
X122709369Y-62508420D01*
X121967789Y-63250000D01*
X121532211Y-63250000D01*
X120790631Y-62508420D01*
X120562573Y-62577638D01*
X120454218Y-62822213D01*
X120395659Y-63083227D01*
X120389147Y-63350650D01*
X116500000Y-63350650D01*
X116500000Y-63126886D01*
X116451963Y-62885389D01*
X116357735Y-62657903D01*
X116220938Y-62453172D01*
X116058397Y-62290631D01*
X121008420Y-62290631D01*
X121750000Y-63032211D01*
X122491580Y-62290631D01*
X122474325Y-62233779D01*
X124443577Y-62233779D01*
X124517838Y-62980204D01*
X124736292Y-63697800D01*
X125086346Y-64352706D01*
X125565178Y-64717033D01*
X128052211Y-62230000D01*
X125565178Y-59742967D01*
X125086346Y-60107294D01*
X124733399Y-60769182D01*
X124516363Y-61487208D01*
X124443577Y-62233779D01*
X122474325Y-62233779D01*
X122422362Y-62062573D01*
X122177787Y-61954218D01*
X121916773Y-61895659D01*
X121649350Y-61889147D01*
X121385795Y-61934931D01*
X121136236Y-62031253D01*
X121077638Y-62062573D01*
X121008420Y-62290631D01*
X116058397Y-62290631D01*
X116046828Y-62279062D01*
X115842097Y-62142265D01*
X115614611Y-62048037D01*
X115373114Y-62000000D01*
X115126886Y-62000000D01*
X114885389Y-62048037D01*
X114657903Y-62142265D01*
X114453172Y-62279062D01*
X114279062Y-62453172D01*
X114142265Y-62657903D01*
X114048037Y-62885389D01*
X114000000Y-63126886D01*
X89904086Y-63126886D01*
X89974807Y-63021045D01*
X90057727Y-62820858D01*
X90100000Y-62608341D01*
X90100000Y-62391659D01*
X90057727Y-62179142D01*
X89974807Y-61978955D01*
X89916478Y-61891659D01*
X109900000Y-61891659D01*
X109900000Y-62108341D01*
X109942273Y-62320858D01*
X110025193Y-62521045D01*
X110145575Y-62701209D01*
X110298791Y-62854425D01*
X110478955Y-62974807D01*
X110679142Y-63057727D01*
X110891659Y-63100000D01*
X111108341Y-63100000D01*
X111320858Y-63057727D01*
X111521045Y-62974807D01*
X111701209Y-62854425D01*
X111854425Y-62701209D01*
X111974807Y-62521045D01*
X112057727Y-62320858D01*
X112100000Y-62108341D01*
X112100000Y-61891659D01*
X112057727Y-61679142D01*
X111974807Y-61478955D01*
X111854425Y-61298791D01*
X111701209Y-61145575D01*
X111521045Y-61025193D01*
X111320858Y-60942273D01*
X111108341Y-60900000D01*
X110891659Y-60900000D01*
X110679142Y-60942273D01*
X110478955Y-61025193D01*
X110298791Y-61145575D01*
X110145575Y-61298791D01*
X110025193Y-61478955D01*
X109942273Y-61679142D01*
X109900000Y-61891659D01*
X89916478Y-61891659D01*
X89854425Y-61798791D01*
X89701209Y-61645575D01*
X89521045Y-61525193D01*
X89320858Y-61442273D01*
X89108341Y-61400000D01*
X88891659Y-61400000D01*
X88679142Y-61442273D01*
X88478955Y-61525193D01*
X88298791Y-61645575D01*
X88221043Y-61723323D01*
X88104425Y-61548791D01*
X87951209Y-61395575D01*
X87771045Y-61275193D01*
X87570858Y-61192273D01*
X87358341Y-61150000D01*
X87141659Y-61150000D01*
X86929142Y-61192273D01*
X86728955Y-61275193D01*
X86548791Y-61395575D01*
X86395575Y-61548791D01*
X86275193Y-61728955D01*
X86192273Y-61929142D01*
X86150000Y-62141659D01*
X69858011Y-62141659D01*
X69792162Y-61479796D01*
X69573708Y-60762200D01*
X69375651Y-60391659D01*
X93900000Y-60391659D01*
X93900000Y-60608341D01*
X93942273Y-60820858D01*
X94025193Y-61021045D01*
X94145575Y-61201209D01*
X94298791Y-61354425D01*
X94478955Y-61474807D01*
X94679142Y-61557727D01*
X94891659Y-61600000D01*
X95108341Y-61600000D01*
X95320858Y-61557727D01*
X95521045Y-61474807D01*
X95701209Y-61354425D01*
X95854425Y-61201209D01*
X95974807Y-61021045D01*
X96057727Y-60820858D01*
X96100000Y-60608341D01*
X96100000Y-60391659D01*
X96057727Y-60179142D01*
X95974807Y-59978955D01*
X95854425Y-59798791D01*
X95701209Y-59645575D01*
X95521045Y-59525193D01*
X95320858Y-59442273D01*
X95108341Y-59400000D01*
X94891659Y-59400000D01*
X94679142Y-59442273D01*
X94478955Y-59525193D01*
X94298791Y-59645575D01*
X94145575Y-59798791D01*
X94025193Y-59978955D01*
X93942273Y-60179142D01*
X93900000Y-60391659D01*
X69375651Y-60391659D01*
X69223654Y-60107294D01*
X68744822Y-59742967D01*
X66257789Y-62230000D01*
X65822211Y-62230000D01*
X63335178Y-59742967D01*
X62856346Y-60107294D01*
X62773831Y-60262036D01*
X62773428Y-59525178D01*
X63552967Y-59525178D01*
X66040000Y-62012211D01*
X68527033Y-59525178D01*
X68162706Y-59046346D01*
X67500818Y-58693399D01*
X66782792Y-58476363D01*
X66036221Y-58403577D01*
X65289796Y-58477838D01*
X64572200Y-58696292D01*
X63917294Y-59046346D01*
X63552967Y-59525178D01*
X62773428Y-59525178D01*
X62772671Y-58141659D01*
X107900000Y-58141659D01*
X107900000Y-58358341D01*
X107942273Y-58570858D01*
X108025193Y-58771045D01*
X108145575Y-58951209D01*
X108298791Y-59104425D01*
X108478955Y-59224807D01*
X108679142Y-59307727D01*
X108891659Y-59350000D01*
X109108341Y-59350000D01*
X109320858Y-59307727D01*
X109521045Y-59224807D01*
X109701209Y-59104425D01*
X109854425Y-58951209D01*
X109974807Y-58771045D01*
X110034519Y-58626886D01*
X114000000Y-58626886D01*
X114000000Y-58873114D01*
X114048037Y-59114611D01*
X114142265Y-59342097D01*
X114279062Y-59546828D01*
X114453172Y-59720938D01*
X114657903Y-59857735D01*
X114885389Y-59951963D01*
X115126886Y-60000000D01*
X115373114Y-60000000D01*
X115614611Y-59951963D01*
X115842097Y-59857735D01*
X116046828Y-59720938D01*
X116058397Y-59709369D01*
X121008420Y-59709369D01*
X121077638Y-59937427D01*
X121322213Y-60045782D01*
X121583227Y-60104341D01*
X121850650Y-60110853D01*
X122114205Y-60065069D01*
X122363764Y-59968747D01*
X122422362Y-59937427D01*
X122491580Y-59709369D01*
X122307389Y-59525178D01*
X125782967Y-59525178D01*
X128270000Y-62012211D01*
X130757033Y-59525178D01*
X130392706Y-59046346D01*
X129730818Y-58693399D01*
X129012792Y-58476363D01*
X128266221Y-58403577D01*
X127519796Y-58477838D01*
X126802200Y-58696292D01*
X126147294Y-59046346D01*
X125782967Y-59525178D01*
X122307389Y-59525178D01*
X121750000Y-58967789D01*
X121008420Y-59709369D01*
X116058397Y-59709369D01*
X116220938Y-59546828D01*
X116357735Y-59342097D01*
X116451963Y-59114611D01*
X116500000Y-58873114D01*
X116500000Y-58850650D01*
X120389147Y-58850650D01*
X120434931Y-59114205D01*
X120531253Y-59363764D01*
X120562573Y-59422362D01*
X120790631Y-59491580D01*
X121532211Y-58750000D01*
X121967789Y-58750000D01*
X122709369Y-59491580D01*
X122937427Y-59422362D01*
X123045782Y-59177787D01*
X123104341Y-58916773D01*
X123110853Y-58649350D01*
X123065069Y-58385795D01*
X122968747Y-58136236D01*
X122937427Y-58077638D01*
X122709369Y-58008420D01*
X121967789Y-58750000D01*
X121532211Y-58750000D01*
X120790631Y-58008420D01*
X120562573Y-58077638D01*
X120454218Y-58322213D01*
X120395659Y-58583227D01*
X120389147Y-58850650D01*
X116500000Y-58850650D01*
X116500000Y-58626886D01*
X116451963Y-58385389D01*
X116357735Y-58157903D01*
X116220938Y-57953172D01*
X116058397Y-57790631D01*
X121008420Y-57790631D01*
X121750000Y-58532211D01*
X122491580Y-57790631D01*
X122422362Y-57562573D01*
X122177787Y-57454218D01*
X121916773Y-57395659D01*
X121649350Y-57389147D01*
X121385795Y-57434931D01*
X121136236Y-57531253D01*
X121077638Y-57562573D01*
X121008420Y-57790631D01*
X116058397Y-57790631D01*
X116046828Y-57779062D01*
X115842097Y-57642265D01*
X115614611Y-57548037D01*
X115373114Y-57500000D01*
X115126886Y-57500000D01*
X114885389Y-57548037D01*
X114657903Y-57642265D01*
X114453172Y-57779062D01*
X114279062Y-57953172D01*
X114142265Y-58157903D01*
X114048037Y-58385389D01*
X114000000Y-58626886D01*
X110034519Y-58626886D01*
X110057727Y-58570858D01*
X110100000Y-58358341D01*
X110100000Y-58141659D01*
X110057727Y-57929142D01*
X109974807Y-57728955D01*
X109854425Y-57548791D01*
X109701209Y-57395575D01*
X109521045Y-57275193D01*
X109320858Y-57192273D01*
X109108341Y-57150000D01*
X108891659Y-57150000D01*
X108679142Y-57192273D01*
X108478955Y-57275193D01*
X108298791Y-57395575D01*
X108145575Y-57548791D01*
X108025193Y-57728955D01*
X107942273Y-57929142D01*
X107900000Y-58141659D01*
X62772671Y-58141659D01*
X62771303Y-55641659D01*
X80900000Y-55641659D01*
X80900000Y-55858341D01*
X80942273Y-56070858D01*
X81025193Y-56271045D01*
X81145575Y-56451209D01*
X81298791Y-56604425D01*
X81478955Y-56724807D01*
X81679142Y-56807727D01*
X81891659Y-56850000D01*
X82108341Y-56850000D01*
X82320858Y-56807727D01*
X82521045Y-56724807D01*
X82645484Y-56641659D01*
X96900000Y-56641659D01*
X96900000Y-56858341D01*
X96942273Y-57070858D01*
X97025193Y-57271045D01*
X97145575Y-57451209D01*
X97298791Y-57604425D01*
X97478955Y-57724807D01*
X97679142Y-57807727D01*
X97891659Y-57850000D01*
X98108341Y-57850000D01*
X98320858Y-57807727D01*
X98521045Y-57724807D01*
X98701209Y-57604425D01*
X98854425Y-57451209D01*
X98974807Y-57271045D01*
X99057727Y-57070858D01*
X99100000Y-56858341D01*
X99100000Y-56641659D01*
X99057727Y-56429142D01*
X98974807Y-56228955D01*
X98854425Y-56048791D01*
X98701209Y-55895575D01*
X98521045Y-55775193D01*
X98320858Y-55692273D01*
X98108341Y-55650000D01*
X97891659Y-55650000D01*
X97679142Y-55692273D01*
X97478955Y-55775193D01*
X97298791Y-55895575D01*
X97145575Y-56048791D01*
X97025193Y-56228955D01*
X96942273Y-56429142D01*
X96900000Y-56641659D01*
X82645484Y-56641659D01*
X82701209Y-56604425D01*
X82854425Y-56451209D01*
X82974807Y-56271045D01*
X83057727Y-56070858D01*
X83100000Y-55858341D01*
X83100000Y-55641659D01*
X83057727Y-55429142D01*
X82974807Y-55228955D01*
X82854425Y-55048791D01*
X82716992Y-54911358D01*
X112600000Y-54911358D01*
X112600000Y-55088642D01*
X112634586Y-55262520D01*
X112702430Y-55426310D01*
X112800924Y-55573717D01*
X112926283Y-55699076D01*
X113073690Y-55797570D01*
X113237480Y-55865414D01*
X113411358Y-55900000D01*
X113588642Y-55900000D01*
X113762520Y-55865414D01*
X113926310Y-55797570D01*
X114073717Y-55699076D01*
X114199076Y-55573717D01*
X114297570Y-55426310D01*
X114365414Y-55262520D01*
X114400000Y-55088642D01*
X114400000Y-54911358D01*
X114365414Y-54737480D01*
X114297570Y-54573690D01*
X114199076Y-54426283D01*
X114073717Y-54300924D01*
X113926310Y-54202430D01*
X113762520Y-54134586D01*
X113588642Y-54100000D01*
X113411358Y-54100000D01*
X113237480Y-54134586D01*
X113073690Y-54202430D01*
X112926283Y-54300924D01*
X112800924Y-54426283D01*
X112702430Y-54573690D01*
X112634586Y-54737480D01*
X112600000Y-54911358D01*
X82716992Y-54911358D01*
X82701209Y-54895575D01*
X82521045Y-54775193D01*
X82320858Y-54692273D01*
X82108341Y-54650000D01*
X81891659Y-54650000D01*
X81679142Y-54692273D01*
X81478955Y-54775193D01*
X81298791Y-54895575D01*
X81145575Y-55048791D01*
X81025193Y-55228955D01*
X80942273Y-55429142D01*
X80900000Y-55641659D01*
X62771303Y-55641659D01*
X62770071Y-53391659D01*
X66650000Y-53391659D01*
X66650000Y-53608341D01*
X66692273Y-53820858D01*
X66775193Y-54021045D01*
X66895575Y-54201209D01*
X67048791Y-54354425D01*
X67228955Y-54474807D01*
X67429142Y-54557727D01*
X67641659Y-54600000D01*
X67858341Y-54600000D01*
X68070858Y-54557727D01*
X68271045Y-54474807D01*
X68451209Y-54354425D01*
X68604425Y-54201209D01*
X68724807Y-54021045D01*
X68807727Y-53820858D01*
X68850000Y-53608341D01*
X68850000Y-53391659D01*
X72900000Y-53391659D01*
X72900000Y-53608341D01*
X72942273Y-53820858D01*
X73025193Y-54021045D01*
X73145575Y-54201209D01*
X73298791Y-54354425D01*
X73478955Y-54474807D01*
X73679142Y-54557727D01*
X73891659Y-54600000D01*
X74108341Y-54600000D01*
X74320858Y-54557727D01*
X74521045Y-54474807D01*
X74701209Y-54354425D01*
X74854425Y-54201209D01*
X74974807Y-54021045D01*
X75057727Y-53820858D01*
X75100000Y-53608341D01*
X75100000Y-53391659D01*
X75057727Y-53179142D01*
X74974807Y-52978955D01*
X74854425Y-52798791D01*
X74701209Y-52645575D01*
X74521045Y-52525193D01*
X74320858Y-52442273D01*
X74108341Y-52400000D01*
X73891659Y-52400000D01*
X73679142Y-52442273D01*
X73478955Y-52525193D01*
X73298791Y-52645575D01*
X73145575Y-52798791D01*
X73025193Y-52978955D01*
X72942273Y-53179142D01*
X72900000Y-53391659D01*
X68850000Y-53391659D01*
X68807727Y-53179142D01*
X68724807Y-52978955D01*
X68604425Y-52798791D01*
X68451209Y-52645575D01*
X68271045Y-52525193D01*
X68070858Y-52442273D01*
X67858341Y-52400000D01*
X67641659Y-52400000D01*
X67429142Y-52442273D01*
X67228955Y-52525193D01*
X67048791Y-52645575D01*
X66895575Y-52798791D01*
X66775193Y-52978955D01*
X66692273Y-53179142D01*
X66650000Y-53391659D01*
X62770071Y-53391659D01*
X62767471Y-48641659D01*
X73900000Y-48641659D01*
X73900000Y-48858341D01*
X73942273Y-49070858D01*
X74025193Y-49271045D01*
X74145575Y-49451209D01*
X74298791Y-49604425D01*
X74478955Y-49724807D01*
X74679142Y-49807727D01*
X74891659Y-49850000D01*
X75108341Y-49850000D01*
X75320858Y-49807727D01*
X75521045Y-49724807D01*
X75701209Y-49604425D01*
X75854425Y-49451209D01*
X75974807Y-49271045D01*
X76057727Y-49070858D01*
X76100000Y-48858341D01*
X76100000Y-48641659D01*
X76057727Y-48429142D01*
X75974807Y-48228955D01*
X75854425Y-48048791D01*
X75805634Y-48000000D01*
X88150000Y-48000000D01*
X88150000Y-54000000D01*
X88151921Y-54019509D01*
X88157612Y-54038268D01*
X88166853Y-54055557D01*
X88179289Y-54070711D01*
X88194443Y-54083147D01*
X88211732Y-54092388D01*
X88230491Y-54098079D01*
X88250000Y-54100000D01*
X94250000Y-54100000D01*
X94269509Y-54098079D01*
X94288268Y-54092388D01*
X94305557Y-54083147D01*
X94320711Y-54070711D01*
X94333147Y-54055557D01*
X94342388Y-54038268D01*
X94348079Y-54019509D01*
X94349997Y-53999286D01*
X94342086Y-52891659D01*
X97150000Y-52891659D01*
X97150000Y-53108341D01*
X97192273Y-53320858D01*
X97275193Y-53521045D01*
X97395575Y-53701209D01*
X97548791Y-53854425D01*
X97728955Y-53974807D01*
X97929142Y-54057727D01*
X98141659Y-54100000D01*
X98358341Y-54100000D01*
X98570858Y-54057727D01*
X98771045Y-53974807D01*
X98951209Y-53854425D01*
X99104425Y-53701209D01*
X99224807Y-53521045D01*
X99275396Y-53398910D01*
X128092097Y-53398910D01*
X128118854Y-53487139D01*
X128236527Y-53747611D01*
X128402754Y-53980122D01*
X128611148Y-54175736D01*
X128853700Y-54326935D01*
X129121089Y-54427909D01*
X129346000Y-54317850D01*
X129346000Y-53174000D01*
X129654000Y-53174000D01*
X129654000Y-54317850D01*
X129878911Y-54427909D01*
X130146300Y-54326935D01*
X130388852Y-54175736D01*
X130597246Y-53980122D01*
X130763473Y-53747611D01*
X130881146Y-53487139D01*
X130907903Y-53398910D01*
X130796889Y-53174000D01*
X129654000Y-53174000D01*
X129346000Y-53174000D01*
X128203111Y-53174000D01*
X128092097Y-53398910D01*
X99275396Y-53398910D01*
X99307727Y-53320858D01*
X99350000Y-53108341D01*
X99350000Y-52891659D01*
X99307727Y-52679142D01*
X99291966Y-52641090D01*
X128092097Y-52641090D01*
X128203111Y-52866000D01*
X129346000Y-52866000D01*
X129346000Y-52846000D01*
X129654000Y-52846000D01*
X129654000Y-52866000D01*
X130796889Y-52866000D01*
X130907903Y-52641090D01*
X130881146Y-52552861D01*
X130763473Y-52292389D01*
X130597246Y-52059878D01*
X130388852Y-51864264D01*
X130146300Y-51713065D01*
X130093928Y-51693288D01*
X130253649Y-51607915D01*
X130459213Y-51439213D01*
X130627915Y-51233649D01*
X130753272Y-50999122D01*
X130830467Y-50744646D01*
X130856532Y-50480000D01*
X130830467Y-50215354D01*
X130753272Y-49960878D01*
X130627915Y-49726351D01*
X130459213Y-49520787D01*
X130253649Y-49352085D01*
X130019122Y-49226728D01*
X129963978Y-49210000D01*
X130019122Y-49193272D01*
X130253649Y-49067915D01*
X130459213Y-48899213D01*
X130627915Y-48693649D01*
X130753272Y-48459122D01*
X130830467Y-48204646D01*
X130856532Y-47940000D01*
X130830467Y-47675354D01*
X130753272Y-47420878D01*
X130627915Y-47186351D01*
X130459213Y-46980787D01*
X130253649Y-46812085D01*
X130142022Y-46752419D01*
X130350000Y-46752419D01*
X130448017Y-46742765D01*
X130542267Y-46714175D01*
X130629129Y-46667746D01*
X130705264Y-46605264D01*
X130767746Y-46529129D01*
X130814175Y-46442267D01*
X130842765Y-46348017D01*
X130852419Y-46250000D01*
X130852419Y-44550000D01*
X130842765Y-44451983D01*
X130814175Y-44357733D01*
X130767746Y-44270871D01*
X130705264Y-44194736D01*
X130629129Y-44132254D01*
X130542267Y-44085825D01*
X130448017Y-44057235D01*
X130350000Y-44047581D01*
X128650000Y-44047581D01*
X128551983Y-44057235D01*
X128457733Y-44085825D01*
X128370871Y-44132254D01*
X128294736Y-44194736D01*
X128232254Y-44270871D01*
X128185825Y-44357733D01*
X128157235Y-44451983D01*
X128147581Y-44550000D01*
X128147581Y-46250000D01*
X128157235Y-46348017D01*
X128185825Y-46442267D01*
X128232254Y-46529129D01*
X128294736Y-46605264D01*
X128370871Y-46667746D01*
X128457733Y-46714175D01*
X128551983Y-46742765D01*
X128650000Y-46752419D01*
X128857978Y-46752419D01*
X128746351Y-46812085D01*
X128540787Y-46980787D01*
X128372085Y-47186351D01*
X128246728Y-47420878D01*
X128169533Y-47675354D01*
X128143468Y-47940000D01*
X128169533Y-48204646D01*
X128246728Y-48459122D01*
X128372085Y-48693649D01*
X128540787Y-48899213D01*
X128746351Y-49067915D01*
X128980878Y-49193272D01*
X129036022Y-49210000D01*
X128980878Y-49226728D01*
X128746351Y-49352085D01*
X128540787Y-49520787D01*
X128372085Y-49726351D01*
X128246728Y-49960878D01*
X128169533Y-50215354D01*
X128143468Y-50480000D01*
X128169533Y-50744646D01*
X128246728Y-50999122D01*
X128372085Y-51233649D01*
X128540787Y-51439213D01*
X128746351Y-51607915D01*
X128906072Y-51693288D01*
X128853700Y-51713065D01*
X128611148Y-51864264D01*
X128402754Y-52059878D01*
X128236527Y-52292389D01*
X128118854Y-52552861D01*
X128092097Y-52641090D01*
X99291966Y-52641090D01*
X99224807Y-52478955D01*
X99138179Y-52349308D01*
X99141659Y-52350000D01*
X99358341Y-52350000D01*
X99570858Y-52307727D01*
X99771045Y-52224807D01*
X99951209Y-52104425D01*
X100104425Y-51951209D01*
X100224807Y-51771045D01*
X100307727Y-51570858D01*
X100350000Y-51358341D01*
X100350000Y-51161358D01*
X107350000Y-51161358D01*
X107350000Y-51338642D01*
X107384586Y-51512520D01*
X107452430Y-51676310D01*
X107550924Y-51823717D01*
X107676283Y-51949076D01*
X107823690Y-52047570D01*
X107987480Y-52115414D01*
X108161358Y-52150000D01*
X108338642Y-52150000D01*
X108512520Y-52115414D01*
X108676310Y-52047570D01*
X108823717Y-51949076D01*
X108949076Y-51823717D01*
X109047570Y-51676310D01*
X109115414Y-51512520D01*
X109150000Y-51338642D01*
X109150000Y-51161358D01*
X109115414Y-50987480D01*
X109047570Y-50823690D01*
X108949076Y-50676283D01*
X108934151Y-50661358D01*
X112350000Y-50661358D01*
X112350000Y-50838642D01*
X112384586Y-51012520D01*
X112452430Y-51176310D01*
X112550924Y-51323717D01*
X112676283Y-51449076D01*
X112823690Y-51547570D01*
X112987480Y-51615414D01*
X113161358Y-51650000D01*
X113338642Y-51650000D01*
X113512520Y-51615414D01*
X113676310Y-51547570D01*
X113823717Y-51449076D01*
X113949076Y-51323717D01*
X114047570Y-51176310D01*
X114115414Y-51012520D01*
X114150000Y-50838642D01*
X114150000Y-50661358D01*
X114146082Y-50641659D01*
X125400000Y-50641659D01*
X125400000Y-50858341D01*
X125442273Y-51070858D01*
X125525193Y-51271045D01*
X125645575Y-51451209D01*
X125798791Y-51604425D01*
X125978955Y-51724807D01*
X126179142Y-51807727D01*
X126391659Y-51850000D01*
X126608341Y-51850000D01*
X126820858Y-51807727D01*
X127021045Y-51724807D01*
X127201209Y-51604425D01*
X127354425Y-51451209D01*
X127474807Y-51271045D01*
X127557727Y-51070858D01*
X127600000Y-50858341D01*
X127600000Y-50641659D01*
X127557727Y-50429142D01*
X127474807Y-50228955D01*
X127354425Y-50048791D01*
X127201209Y-49895575D01*
X127021045Y-49775193D01*
X126820858Y-49692273D01*
X126608341Y-49650000D01*
X126391659Y-49650000D01*
X126179142Y-49692273D01*
X125978955Y-49775193D01*
X125798791Y-49895575D01*
X125645575Y-50048791D01*
X125525193Y-50228955D01*
X125442273Y-50429142D01*
X125400000Y-50641659D01*
X114146082Y-50641659D01*
X114115414Y-50487480D01*
X114047570Y-50323690D01*
X113949076Y-50176283D01*
X113823717Y-50050924D01*
X113676310Y-49952430D01*
X113512520Y-49884586D01*
X113338642Y-49850000D01*
X113161358Y-49850000D01*
X112987480Y-49884586D01*
X112823690Y-49952430D01*
X112676283Y-50050924D01*
X112550924Y-50176283D01*
X112452430Y-50323690D01*
X112384586Y-50487480D01*
X112350000Y-50661358D01*
X108934151Y-50661358D01*
X108823717Y-50550924D01*
X108676310Y-50452430D01*
X108512520Y-50384586D01*
X108338642Y-50350000D01*
X108161358Y-50350000D01*
X107987480Y-50384586D01*
X107823690Y-50452430D01*
X107676283Y-50550924D01*
X107550924Y-50676283D01*
X107452430Y-50823690D01*
X107384586Y-50987480D01*
X107350000Y-51161358D01*
X100350000Y-51161358D01*
X100350000Y-51141659D01*
X100307727Y-50929142D01*
X100224807Y-50728955D01*
X100104425Y-50548791D01*
X99951209Y-50395575D01*
X99771045Y-50275193D01*
X99570858Y-50192273D01*
X99358341Y-50150000D01*
X99141659Y-50150000D01*
X98929142Y-50192273D01*
X98728955Y-50275193D01*
X98548791Y-50395575D01*
X98395575Y-50548791D01*
X98275193Y-50728955D01*
X98192273Y-50929142D01*
X98150000Y-51141659D01*
X98150000Y-51358341D01*
X98192273Y-51570858D01*
X98275193Y-51771045D01*
X98361821Y-51900692D01*
X98358341Y-51900000D01*
X98141659Y-51900000D01*
X97929142Y-51942273D01*
X97728955Y-52025193D01*
X97548791Y-52145575D01*
X97395575Y-52298791D01*
X97275193Y-52478955D01*
X97192273Y-52679142D01*
X97150000Y-52891659D01*
X94342086Y-52891659D01*
X94340716Y-52700000D01*
X96750000Y-52700000D01*
X96769509Y-52698079D01*
X96788268Y-52692388D01*
X96805557Y-52683147D01*
X96820711Y-52670711D01*
X96833147Y-52655557D01*
X96842388Y-52638268D01*
X96848079Y-52619509D01*
X96849996Y-52599091D01*
X96839996Y-51499091D01*
X96837897Y-51479600D01*
X96832036Y-51460893D01*
X96822638Y-51443689D01*
X96810065Y-51428649D01*
X96794799Y-51416351D01*
X96777427Y-51407268D01*
X96758617Y-51401748D01*
X96740000Y-51400000D01*
X94359715Y-51400000D01*
X94350000Y-47999714D01*
X94348022Y-47980211D01*
X94342278Y-47961468D01*
X94332988Y-47944206D01*
X94320508Y-47929088D01*
X94305319Y-47916695D01*
X94288004Y-47907503D01*
X94269229Y-47901866D01*
X94250000Y-47900000D01*
X88250000Y-47900000D01*
X88230491Y-47901921D01*
X88211732Y-47907612D01*
X88194443Y-47916853D01*
X88179289Y-47929289D01*
X88166853Y-47944443D01*
X88157612Y-47961732D01*
X88151921Y-47980491D01*
X88150000Y-48000000D01*
X75805634Y-48000000D01*
X75701209Y-47895575D01*
X75521045Y-47775193D01*
X75320858Y-47692273D01*
X75108341Y-47650000D01*
X74891659Y-47650000D01*
X74679142Y-47692273D01*
X74478955Y-47775193D01*
X74298791Y-47895575D01*
X74145575Y-48048791D01*
X74025193Y-48228955D01*
X73942273Y-48429142D01*
X73900000Y-48641659D01*
X62767471Y-48641659D01*
X62765966Y-45891659D01*
X90900000Y-45891659D01*
X90900000Y-46108341D01*
X90942273Y-46320858D01*
X91025193Y-46521045D01*
X91145575Y-46701209D01*
X91298791Y-46854425D01*
X91478955Y-46974807D01*
X91679142Y-47057727D01*
X91891659Y-47100000D01*
X92108341Y-47100000D01*
X92320858Y-47057727D01*
X92521045Y-46974807D01*
X92701209Y-46854425D01*
X92854425Y-46701209D01*
X92881052Y-46661358D01*
X104850000Y-46661358D01*
X104850000Y-46838642D01*
X104884586Y-47012520D01*
X104952430Y-47176310D01*
X105050924Y-47323717D01*
X105176283Y-47449076D01*
X105323690Y-47547570D01*
X105487480Y-47615414D01*
X105661358Y-47650000D01*
X105704344Y-47650000D01*
X105692273Y-47679142D01*
X105650000Y-47891659D01*
X105650000Y-48108341D01*
X105692273Y-48320858D01*
X105775193Y-48521045D01*
X105895575Y-48701209D01*
X106048791Y-48854425D01*
X106228955Y-48974807D01*
X106429142Y-49057727D01*
X106641659Y-49100000D01*
X106858341Y-49100000D01*
X107070858Y-49057727D01*
X107271045Y-48974807D01*
X107451209Y-48854425D01*
X107604425Y-48701209D01*
X107724807Y-48521045D01*
X107770240Y-48411358D01*
X112600000Y-48411358D01*
X112600000Y-48588642D01*
X112634586Y-48762520D01*
X112702430Y-48926310D01*
X112800924Y-49073717D01*
X112926283Y-49199076D01*
X113073690Y-49297570D01*
X113237480Y-49365414D01*
X113411358Y-49400000D01*
X113588642Y-49400000D01*
X113762520Y-49365414D01*
X113926310Y-49297570D01*
X114073717Y-49199076D01*
X114199076Y-49073717D01*
X114297570Y-48926310D01*
X114365414Y-48762520D01*
X114400000Y-48588642D01*
X114400000Y-48411358D01*
X114365414Y-48237480D01*
X114297570Y-48073690D01*
X114199076Y-47926283D01*
X114073717Y-47800924D01*
X113926310Y-47702430D01*
X113762520Y-47634586D01*
X113588642Y-47600000D01*
X113411358Y-47600000D01*
X113237480Y-47634586D01*
X113073690Y-47702430D01*
X112926283Y-47800924D01*
X112800924Y-47926283D01*
X112702430Y-48073690D01*
X112634586Y-48237480D01*
X112600000Y-48411358D01*
X107770240Y-48411358D01*
X107807727Y-48320858D01*
X107850000Y-48108341D01*
X107850000Y-47891659D01*
X107807727Y-47679142D01*
X107724807Y-47478955D01*
X107604425Y-47298791D01*
X107451209Y-47145575D01*
X107271045Y-47025193D01*
X107070858Y-46942273D01*
X106858341Y-46900000D01*
X106641659Y-46900000D01*
X106637636Y-46900800D01*
X106650000Y-46838642D01*
X106650000Y-46661358D01*
X106615414Y-46487480D01*
X106547570Y-46323690D01*
X106449076Y-46176283D01*
X106323717Y-46050924D01*
X106176310Y-45952430D01*
X106012520Y-45884586D01*
X105838642Y-45850000D01*
X105661358Y-45850000D01*
X105487480Y-45884586D01*
X105323690Y-45952430D01*
X105176283Y-46050924D01*
X105050924Y-46176283D01*
X104952430Y-46323690D01*
X104884586Y-46487480D01*
X104850000Y-46661358D01*
X92881052Y-46661358D01*
X92974807Y-46521045D01*
X93057727Y-46320858D01*
X93100000Y-46108341D01*
X93100000Y-45891659D01*
X93057727Y-45679142D01*
X92974807Y-45478955D01*
X92854425Y-45298791D01*
X92701209Y-45145575D01*
X92521045Y-45025193D01*
X92320858Y-44942273D01*
X92108341Y-44900000D01*
X91891659Y-44900000D01*
X91679142Y-44942273D01*
X91478955Y-45025193D01*
X91298791Y-45145575D01*
X91145575Y-45298791D01*
X91025193Y-45478955D01*
X90942273Y-45679142D01*
X90900000Y-45891659D01*
X62765966Y-45891659D01*
X62764323Y-42891659D01*
X64400000Y-42891659D01*
X64400000Y-43108341D01*
X64442273Y-43320858D01*
X64525193Y-43521045D01*
X64645575Y-43701209D01*
X64798791Y-43854425D01*
X64978955Y-43974807D01*
X65179142Y-44057727D01*
X65391659Y-44100000D01*
X65608341Y-44100000D01*
X65820858Y-44057727D01*
X66021045Y-43974807D01*
X66145484Y-43891659D01*
X71400000Y-43891659D01*
X71400000Y-44108341D01*
X71442273Y-44320858D01*
X71525193Y-44521045D01*
X71645575Y-44701209D01*
X71798791Y-44854425D01*
X71978955Y-44974807D01*
X72179142Y-45057727D01*
X72391659Y-45100000D01*
X72608341Y-45100000D01*
X72820858Y-45057727D01*
X73021045Y-44974807D01*
X73201209Y-44854425D01*
X73354425Y-44701209D01*
X73474807Y-44521045D01*
X73557727Y-44320858D01*
X73600000Y-44108341D01*
X73600000Y-43891659D01*
X73557727Y-43679142D01*
X73550361Y-43661358D01*
X110100000Y-43661358D01*
X110100000Y-43838642D01*
X110134586Y-44012520D01*
X110202430Y-44176310D01*
X110300924Y-44323717D01*
X110426283Y-44449076D01*
X110502496Y-44500000D01*
X110426283Y-44550924D01*
X110300924Y-44676283D01*
X110202430Y-44823690D01*
X110134586Y-44987480D01*
X110100000Y-45161358D01*
X110100000Y-45338642D01*
X110134586Y-45512520D01*
X110202430Y-45676310D01*
X110300924Y-45823717D01*
X110426283Y-45949076D01*
X110573690Y-46047570D01*
X110737480Y-46115414D01*
X110911358Y-46150000D01*
X111088642Y-46150000D01*
X111262520Y-46115414D01*
X111426310Y-46047570D01*
X111573717Y-45949076D01*
X111699076Y-45823717D01*
X111749617Y-45748076D01*
X111823690Y-45797570D01*
X111987480Y-45865414D01*
X112161358Y-45900000D01*
X112338642Y-45900000D01*
X112512520Y-45865414D01*
X112676310Y-45797570D01*
X112823717Y-45699076D01*
X112949076Y-45573717D01*
X113047570Y-45426310D01*
X113115414Y-45262520D01*
X113150000Y-45088642D01*
X113150000Y-44911358D01*
X113115414Y-44737480D01*
X113047570Y-44573690D01*
X112949076Y-44426283D01*
X112914452Y-44391659D01*
X113650000Y-44391659D01*
X113650000Y-44608341D01*
X113692273Y-44820858D01*
X113775193Y-45021045D01*
X113895575Y-45201209D01*
X114048791Y-45354425D01*
X114228955Y-45474807D01*
X114429142Y-45557727D01*
X114641659Y-45600000D01*
X114858341Y-45600000D01*
X115070858Y-45557727D01*
X115271045Y-45474807D01*
X115451209Y-45354425D01*
X115604425Y-45201209D01*
X115724807Y-45021045D01*
X115807727Y-44820858D01*
X115850000Y-44608341D01*
X115850000Y-44391659D01*
X115807727Y-44179142D01*
X115724807Y-43978955D01*
X115604425Y-43798791D01*
X115451209Y-43645575D01*
X115271045Y-43525193D01*
X115070858Y-43442273D01*
X114858341Y-43400000D01*
X114641659Y-43400000D01*
X114429142Y-43442273D01*
X114228955Y-43525193D01*
X114048791Y-43645575D01*
X113895575Y-43798791D01*
X113775193Y-43978955D01*
X113692273Y-44179142D01*
X113650000Y-44391659D01*
X112914452Y-44391659D01*
X112823717Y-44300924D01*
X112676310Y-44202430D01*
X112512520Y-44134586D01*
X112338642Y-44100000D01*
X112161358Y-44100000D01*
X111987480Y-44134586D01*
X111823690Y-44202430D01*
X111744973Y-44255027D01*
X111797570Y-44176310D01*
X111865414Y-44012520D01*
X111900000Y-43838642D01*
X111900000Y-43661358D01*
X111865414Y-43487480D01*
X111797570Y-43323690D01*
X111699076Y-43176283D01*
X111573717Y-43050924D01*
X111426310Y-42952430D01*
X111262520Y-42884586D01*
X111088642Y-42850000D01*
X110911358Y-42850000D01*
X110737480Y-42884586D01*
X110573690Y-42952430D01*
X110426283Y-43050924D01*
X110300924Y-43176283D01*
X110202430Y-43323690D01*
X110134586Y-43487480D01*
X110100000Y-43661358D01*
X73550361Y-43661358D01*
X73474807Y-43478955D01*
X73354425Y-43298791D01*
X73201209Y-43145575D01*
X73021045Y-43025193D01*
X72820858Y-42942273D01*
X72608341Y-42900000D01*
X72391659Y-42900000D01*
X72179142Y-42942273D01*
X71978955Y-43025193D01*
X71798791Y-43145575D01*
X71645575Y-43298791D01*
X71525193Y-43478955D01*
X71442273Y-43679142D01*
X71400000Y-43891659D01*
X66145484Y-43891659D01*
X66201209Y-43854425D01*
X66354425Y-43701209D01*
X66474807Y-43521045D01*
X66557727Y-43320858D01*
X66600000Y-43108341D01*
X66600000Y-42891659D01*
X66557727Y-42679142D01*
X66474807Y-42478955D01*
X66354425Y-42298791D01*
X66201209Y-42145575D01*
X66021045Y-42025193D01*
X65820858Y-41942273D01*
X65608341Y-41900000D01*
X65391659Y-41900000D01*
X65179142Y-41942273D01*
X64978955Y-42025193D01*
X64798791Y-42145575D01*
X64645575Y-42298791D01*
X64525193Y-42478955D01*
X64442273Y-42679142D01*
X64400000Y-42891659D01*
X62764323Y-42891659D01*
X62763829Y-41989252D01*
X62929142Y-42057727D01*
X63141659Y-42100000D01*
X63358341Y-42100000D01*
X63570858Y-42057727D01*
X63771045Y-41974807D01*
X63951209Y-41854425D01*
X64104425Y-41701209D01*
X64224807Y-41521045D01*
X64307727Y-41320858D01*
X64350000Y-41108341D01*
X64350000Y-40891659D01*
X64307727Y-40679142D01*
X64224807Y-40478955D01*
X64104425Y-40298791D01*
X63951209Y-40145575D01*
X63771045Y-40025193D01*
X63570858Y-39942273D01*
X63358341Y-39900000D01*
X63141659Y-39900000D01*
X62929142Y-39942273D01*
X62762746Y-40011196D01*
X62762271Y-39141659D01*
X67400000Y-39141659D01*
X67400000Y-39358341D01*
X67442273Y-39570858D01*
X67525193Y-39771045D01*
X67645575Y-39951209D01*
X67798791Y-40104425D01*
X67978955Y-40224807D01*
X68179142Y-40307727D01*
X68391659Y-40350000D01*
X68608341Y-40350000D01*
X68820858Y-40307727D01*
X69021045Y-40224807D01*
X69201209Y-40104425D01*
X69354425Y-39951209D01*
X69474807Y-39771045D01*
X69557727Y-39570858D01*
X69600000Y-39358341D01*
X69600000Y-39141659D01*
X74900000Y-39141659D01*
X74900000Y-39358341D01*
X74942273Y-39570858D01*
X75025193Y-39771045D01*
X75145575Y-39951209D01*
X75298791Y-40104425D01*
X75478955Y-40224807D01*
X75679142Y-40307727D01*
X75891659Y-40350000D01*
X76108341Y-40350000D01*
X76320858Y-40307727D01*
X76521045Y-40224807D01*
X76701209Y-40104425D01*
X76854425Y-39951209D01*
X76974807Y-39771045D01*
X77057727Y-39570858D01*
X77100000Y-39358341D01*
X77100000Y-39141659D01*
X77057727Y-38929142D01*
X77042202Y-38891659D01*
X79650000Y-38891659D01*
X79650000Y-39108341D01*
X79692273Y-39320858D01*
X79775193Y-39521045D01*
X79895575Y-39701209D01*
X80048791Y-39854425D01*
X80228955Y-39974807D01*
X80429142Y-40057727D01*
X80613326Y-40094364D01*
X80600000Y-40161358D01*
X80600000Y-40338642D01*
X80634586Y-40512520D01*
X80702430Y-40676310D01*
X80800924Y-40823717D01*
X80926283Y-40949076D01*
X81073690Y-41047570D01*
X81237480Y-41115414D01*
X81411358Y-41150000D01*
X81588642Y-41150000D01*
X81714733Y-41124919D01*
X81692273Y-41179142D01*
X81650000Y-41391659D01*
X81650000Y-41608341D01*
X81692273Y-41820858D01*
X81775193Y-42021045D01*
X81895575Y-42201209D01*
X82048791Y-42354425D01*
X82228955Y-42474807D01*
X82429142Y-42557727D01*
X82641659Y-42600000D01*
X82858341Y-42600000D01*
X83070858Y-42557727D01*
X83271045Y-42474807D01*
X83451209Y-42354425D01*
X83604425Y-42201209D01*
X83724807Y-42021045D01*
X83807727Y-41820858D01*
X83850000Y-41608341D01*
X83850000Y-41391659D01*
X83807727Y-41179142D01*
X83724807Y-40978955D01*
X83604425Y-40798791D01*
X83451209Y-40645575D01*
X83271045Y-40525193D01*
X83070858Y-40442273D01*
X82858341Y-40400000D01*
X82641659Y-40400000D01*
X82429142Y-40442273D01*
X82374919Y-40464733D01*
X82400000Y-40338642D01*
X82400000Y-40161358D01*
X82365414Y-39987480D01*
X82297570Y-39823690D01*
X82199076Y-39676283D01*
X82073717Y-39550924D01*
X81926310Y-39452430D01*
X81778575Y-39391236D01*
X81807727Y-39320858D01*
X81839454Y-39161358D01*
X87350000Y-39161358D01*
X87350000Y-39338642D01*
X87384586Y-39512520D01*
X87452430Y-39676310D01*
X87550924Y-39823717D01*
X87676283Y-39949076D01*
X87823690Y-40047570D01*
X87987480Y-40115414D01*
X88161358Y-40150000D01*
X88338642Y-40150000D01*
X88512520Y-40115414D01*
X88676310Y-40047570D01*
X88823717Y-39949076D01*
X88949076Y-39823717D01*
X89047570Y-39676310D01*
X89061922Y-39641659D01*
X95900000Y-39641659D01*
X95900000Y-39858341D01*
X95942273Y-40070858D01*
X96025193Y-40271045D01*
X96145575Y-40451209D01*
X96194366Y-40500000D01*
X96145575Y-40548791D01*
X96025193Y-40728955D01*
X95942273Y-40929142D01*
X95900000Y-41141659D01*
X95900000Y-41358341D01*
X95942273Y-41570858D01*
X96025193Y-41771045D01*
X96145575Y-41951209D01*
X96298791Y-42104425D01*
X96478955Y-42224807D01*
X96679142Y-42307727D01*
X96891659Y-42350000D01*
X97108341Y-42350000D01*
X97320858Y-42307727D01*
X97521045Y-42224807D01*
X97701209Y-42104425D01*
X97854425Y-41951209D01*
X97974807Y-41771045D01*
X98020240Y-41661358D01*
X108350000Y-41661358D01*
X108350000Y-41838642D01*
X108384586Y-42012520D01*
X108452430Y-42176310D01*
X108550924Y-42323717D01*
X108676283Y-42449076D01*
X108823690Y-42547570D01*
X108987480Y-42615414D01*
X109161358Y-42650000D01*
X109338642Y-42650000D01*
X109512520Y-42615414D01*
X109676310Y-42547570D01*
X109823717Y-42449076D01*
X109949076Y-42323717D01*
X110047570Y-42176310D01*
X110115414Y-42012520D01*
X110150000Y-41838642D01*
X110150000Y-41661358D01*
X110115414Y-41487480D01*
X110047570Y-41323690D01*
X109949076Y-41176283D01*
X109823717Y-41050924D01*
X109676310Y-40952430D01*
X109512520Y-40884586D01*
X109338642Y-40850000D01*
X109161358Y-40850000D01*
X108987480Y-40884586D01*
X108823690Y-40952430D01*
X108676283Y-41050924D01*
X108550924Y-41176283D01*
X108452430Y-41323690D01*
X108384586Y-41487480D01*
X108350000Y-41661358D01*
X98020240Y-41661358D01*
X98057727Y-41570858D01*
X98100000Y-41358341D01*
X98100000Y-41141659D01*
X98057727Y-40929142D01*
X97974807Y-40728955D01*
X97854425Y-40548791D01*
X97805634Y-40500000D01*
X97854425Y-40451209D01*
X97974807Y-40271045D01*
X98057727Y-40070858D01*
X98100000Y-39858341D01*
X98100000Y-39641659D01*
X98057727Y-39429142D01*
X97974807Y-39228955D01*
X97854425Y-39048791D01*
X97701209Y-38895575D01*
X97521045Y-38775193D01*
X97320858Y-38692273D01*
X97108341Y-38650000D01*
X96891659Y-38650000D01*
X96679142Y-38692273D01*
X96478955Y-38775193D01*
X96298791Y-38895575D01*
X96145575Y-39048791D01*
X96025193Y-39228955D01*
X95942273Y-39429142D01*
X95900000Y-39641659D01*
X89061922Y-39641659D01*
X89115414Y-39512520D01*
X89150000Y-39338642D01*
X89150000Y-39161358D01*
X89115414Y-38987480D01*
X89047570Y-38823690D01*
X88949076Y-38676283D01*
X88823717Y-38550924D01*
X88676310Y-38452430D01*
X88529596Y-38391659D01*
X100150000Y-38391659D01*
X100150000Y-38608341D01*
X100192273Y-38820858D01*
X100275193Y-39021045D01*
X100395575Y-39201209D01*
X100548791Y-39354425D01*
X100728955Y-39474807D01*
X100929142Y-39557727D01*
X101141659Y-39600000D01*
X101358341Y-39600000D01*
X101570858Y-39557727D01*
X101771045Y-39474807D01*
X101866002Y-39411358D01*
X107100000Y-39411358D01*
X107100000Y-39588642D01*
X107134586Y-39762520D01*
X107202430Y-39926310D01*
X107300924Y-40073717D01*
X107426283Y-40199076D01*
X107573690Y-40297570D01*
X107737480Y-40365414D01*
X107911358Y-40400000D01*
X108088642Y-40400000D01*
X108262520Y-40365414D01*
X108426310Y-40297570D01*
X108500000Y-40248332D01*
X108573690Y-40297570D01*
X108737480Y-40365414D01*
X108911358Y-40400000D01*
X109088642Y-40400000D01*
X109262520Y-40365414D01*
X109426310Y-40297570D01*
X109573717Y-40199076D01*
X109699076Y-40073717D01*
X109797570Y-39926310D01*
X109865414Y-39762520D01*
X109900000Y-39588642D01*
X109900000Y-39411358D01*
X109865414Y-39237480D01*
X109797570Y-39073690D01*
X109699076Y-38926283D01*
X109573717Y-38800924D01*
X109426310Y-38702430D01*
X109262520Y-38634586D01*
X109088642Y-38600000D01*
X108911358Y-38600000D01*
X108737480Y-38634586D01*
X108573690Y-38702430D01*
X108500000Y-38751668D01*
X108426310Y-38702430D01*
X108262520Y-38634586D01*
X108088642Y-38600000D01*
X107911358Y-38600000D01*
X107737480Y-38634586D01*
X107573690Y-38702430D01*
X107426283Y-38800924D01*
X107300924Y-38926283D01*
X107202430Y-39073690D01*
X107134586Y-39237480D01*
X107100000Y-39411358D01*
X101866002Y-39411358D01*
X101951209Y-39354425D01*
X102104425Y-39201209D01*
X102224807Y-39021045D01*
X102307727Y-38820858D01*
X102350000Y-38608341D01*
X102350000Y-38391659D01*
X102307727Y-38179142D01*
X102224807Y-37978955D01*
X102104425Y-37798791D01*
X101951209Y-37645575D01*
X101771045Y-37525193D01*
X101570858Y-37442273D01*
X101358341Y-37400000D01*
X101141659Y-37400000D01*
X100929142Y-37442273D01*
X100728955Y-37525193D01*
X100548791Y-37645575D01*
X100395575Y-37798791D01*
X100275193Y-37978955D01*
X100192273Y-38179142D01*
X100150000Y-38391659D01*
X88529596Y-38391659D01*
X88512520Y-38384586D01*
X88338642Y-38350000D01*
X88161358Y-38350000D01*
X87987480Y-38384586D01*
X87823690Y-38452430D01*
X87676283Y-38550924D01*
X87550924Y-38676283D01*
X87452430Y-38823690D01*
X87384586Y-38987480D01*
X87350000Y-39161358D01*
X81839454Y-39161358D01*
X81850000Y-39108341D01*
X81850000Y-38891659D01*
X81807727Y-38679142D01*
X81724807Y-38478955D01*
X81604425Y-38298791D01*
X81451209Y-38145575D01*
X81271045Y-38025193D01*
X81070858Y-37942273D01*
X80858341Y-37900000D01*
X80641659Y-37900000D01*
X80429142Y-37942273D01*
X80228955Y-38025193D01*
X80048791Y-38145575D01*
X79895575Y-38298791D01*
X79775193Y-38478955D01*
X79692273Y-38679142D01*
X79650000Y-38891659D01*
X77042202Y-38891659D01*
X76974807Y-38728955D01*
X76854425Y-38548791D01*
X76701209Y-38395575D01*
X76521045Y-38275193D01*
X76320858Y-38192273D01*
X76108341Y-38150000D01*
X75891659Y-38150000D01*
X75679142Y-38192273D01*
X75478955Y-38275193D01*
X75298791Y-38395575D01*
X75145575Y-38548791D01*
X75025193Y-38728955D01*
X74942273Y-38929142D01*
X74900000Y-39141659D01*
X69600000Y-39141659D01*
X69557727Y-38929142D01*
X69474807Y-38728955D01*
X69354425Y-38548791D01*
X69201209Y-38395575D01*
X69021045Y-38275193D01*
X68820858Y-38192273D01*
X68608341Y-38150000D01*
X68391659Y-38150000D01*
X68179142Y-38192273D01*
X67978955Y-38275193D01*
X67798791Y-38395575D01*
X67645575Y-38548791D01*
X67525193Y-38728955D01*
X67442273Y-38929142D01*
X67400000Y-39141659D01*
X62762271Y-39141659D01*
X62761040Y-36891659D01*
X68400000Y-36891659D01*
X68400000Y-37108341D01*
X68442273Y-37320858D01*
X68525193Y-37521045D01*
X68645575Y-37701209D01*
X68798791Y-37854425D01*
X68978955Y-37974807D01*
X69179142Y-38057727D01*
X69391659Y-38100000D01*
X69608341Y-38100000D01*
X69820858Y-38057727D01*
X70021045Y-37974807D01*
X70201209Y-37854425D01*
X70354425Y-37701209D01*
X70474807Y-37521045D01*
X70557727Y-37320858D01*
X70600000Y-37108341D01*
X70600000Y-36891659D01*
X70557727Y-36679142D01*
X70542202Y-36641659D01*
X72150000Y-36641659D01*
X72150000Y-36858341D01*
X72192273Y-37070858D01*
X72275193Y-37271045D01*
X72395575Y-37451209D01*
X72548791Y-37604425D01*
X72728955Y-37724807D01*
X72929142Y-37807727D01*
X73141659Y-37850000D01*
X73358341Y-37850000D01*
X73570858Y-37807727D01*
X73771045Y-37724807D01*
X73951209Y-37604425D01*
X74104425Y-37451209D01*
X74224807Y-37271045D01*
X74307727Y-37070858D01*
X74350000Y-36858341D01*
X74350000Y-36661358D01*
X79350000Y-36661358D01*
X79350000Y-36838642D01*
X79384586Y-37012520D01*
X79452430Y-37176310D01*
X79550924Y-37323717D01*
X79676283Y-37449076D01*
X79823690Y-37547570D01*
X79987480Y-37615414D01*
X80161358Y-37650000D01*
X80338642Y-37650000D01*
X80512520Y-37615414D01*
X80676310Y-37547570D01*
X80823717Y-37449076D01*
X80949076Y-37323717D01*
X81047570Y-37176310D01*
X81115414Y-37012520D01*
X81150000Y-36838642D01*
X81150000Y-36661358D01*
X81115414Y-36487480D01*
X81047570Y-36323690D01*
X80949076Y-36176283D01*
X80823717Y-36050924D01*
X80704938Y-35971558D01*
X85850000Y-35971558D01*
X85850000Y-36148842D01*
X85884586Y-36322720D01*
X85952430Y-36486510D01*
X86050924Y-36633917D01*
X86176283Y-36759276D01*
X86323690Y-36857770D01*
X86487480Y-36925614D01*
X86661358Y-36960200D01*
X86838642Y-36960200D01*
X87012520Y-36925614D01*
X87176310Y-36857770D01*
X87323717Y-36759276D01*
X87449076Y-36633917D01*
X87547570Y-36486510D01*
X87615414Y-36322720D01*
X87650000Y-36148842D01*
X87650000Y-35971558D01*
X87638026Y-35911358D01*
X89100000Y-35911358D01*
X89100000Y-36088642D01*
X89134586Y-36262520D01*
X89202430Y-36426310D01*
X89300924Y-36573717D01*
X89426283Y-36699076D01*
X89573690Y-36797570D01*
X89737480Y-36865414D01*
X89911358Y-36900000D01*
X90088642Y-36900000D01*
X90262520Y-36865414D01*
X90426310Y-36797570D01*
X90573717Y-36699076D01*
X90699076Y-36573717D01*
X90797570Y-36426310D01*
X90865414Y-36262520D01*
X90900000Y-36088642D01*
X90900000Y-35911358D01*
X90865414Y-35737480D01*
X90797570Y-35573690D01*
X90699076Y-35426283D01*
X90573717Y-35300924D01*
X90426310Y-35202430D01*
X90262520Y-35134586D01*
X90088642Y-35100000D01*
X89911358Y-35100000D01*
X89737480Y-35134586D01*
X89573690Y-35202430D01*
X89426283Y-35300924D01*
X89300924Y-35426283D01*
X89202430Y-35573690D01*
X89134586Y-35737480D01*
X89100000Y-35911358D01*
X87638026Y-35911358D01*
X87615414Y-35797680D01*
X87547570Y-35633890D01*
X87449076Y-35486483D01*
X87323717Y-35361124D01*
X87176310Y-35262630D01*
X87012520Y-35194786D01*
X86838642Y-35160200D01*
X86661358Y-35160200D01*
X86487480Y-35194786D01*
X86323690Y-35262630D01*
X86176283Y-35361124D01*
X86050924Y-35486483D01*
X85952430Y-35633890D01*
X85884586Y-35797680D01*
X85850000Y-35971558D01*
X80704938Y-35971558D01*
X80676310Y-35952430D01*
X80512520Y-35884586D01*
X80338642Y-35850000D01*
X80161358Y-35850000D01*
X79987480Y-35884586D01*
X79823690Y-35952430D01*
X79676283Y-36050924D01*
X79550924Y-36176283D01*
X79452430Y-36323690D01*
X79384586Y-36487480D01*
X79350000Y-36661358D01*
X74350000Y-36661358D01*
X74350000Y-36641659D01*
X74307727Y-36429142D01*
X74224807Y-36228955D01*
X74104425Y-36048791D01*
X73951209Y-35895575D01*
X73771045Y-35775193D01*
X73570858Y-35692273D01*
X73358341Y-35650000D01*
X73141659Y-35650000D01*
X72929142Y-35692273D01*
X72728955Y-35775193D01*
X72548791Y-35895575D01*
X72395575Y-36048791D01*
X72275193Y-36228955D01*
X72192273Y-36429142D01*
X72150000Y-36641659D01*
X70542202Y-36641659D01*
X70474807Y-36478955D01*
X70354425Y-36298791D01*
X70201209Y-36145575D01*
X70021045Y-36025193D01*
X69820858Y-35942273D01*
X69608341Y-35900000D01*
X69391659Y-35900000D01*
X69179142Y-35942273D01*
X68978955Y-36025193D01*
X68798791Y-36145575D01*
X68645575Y-36298791D01*
X68525193Y-36478955D01*
X68442273Y-36679142D01*
X68400000Y-36891659D01*
X62761040Y-36891659D01*
X62759128Y-33398910D01*
X63616097Y-33398910D01*
X63642854Y-33487139D01*
X63760527Y-33747611D01*
X63926754Y-33980122D01*
X64135148Y-34175736D01*
X64377700Y-34326935D01*
X64645089Y-34427909D01*
X64870000Y-34317850D01*
X64870000Y-33174000D01*
X65178000Y-33174000D01*
X65178000Y-34317850D01*
X65402911Y-34427909D01*
X65670300Y-34326935D01*
X65912852Y-34175736D01*
X65928169Y-34161358D01*
X84350000Y-34161358D01*
X84350000Y-34338642D01*
X84384586Y-34512520D01*
X84452430Y-34676310D01*
X84550924Y-34823717D01*
X84676283Y-34949076D01*
X84823690Y-35047570D01*
X84987480Y-35115414D01*
X85161358Y-35150000D01*
X85338642Y-35150000D01*
X85512520Y-35115414D01*
X85676310Y-35047570D01*
X85823717Y-34949076D01*
X85949076Y-34823717D01*
X86047570Y-34676310D01*
X86066300Y-34631092D01*
X86161358Y-34650000D01*
X86338642Y-34650000D01*
X86512520Y-34615414D01*
X86676310Y-34547570D01*
X86823717Y-34449076D01*
X86881134Y-34391659D01*
X91650000Y-34391659D01*
X91650000Y-34608341D01*
X91692273Y-34820858D01*
X91775193Y-35021045D01*
X91895575Y-35201209D01*
X92048791Y-35354425D01*
X92228955Y-35474807D01*
X92429142Y-35557727D01*
X92641659Y-35600000D01*
X92858341Y-35600000D01*
X93070858Y-35557727D01*
X93271045Y-35474807D01*
X93451209Y-35354425D01*
X93604425Y-35201209D01*
X93724807Y-35021045D01*
X93807727Y-34820858D01*
X93850000Y-34608341D01*
X93850000Y-34391659D01*
X93807727Y-34179142D01*
X93792202Y-34141659D01*
X96400000Y-34141659D01*
X96400000Y-34358341D01*
X96442273Y-34570858D01*
X96525193Y-34771045D01*
X96645575Y-34951209D01*
X96798791Y-35104425D01*
X96978955Y-35224807D01*
X97179142Y-35307727D01*
X97391659Y-35350000D01*
X97608341Y-35350000D01*
X97820858Y-35307727D01*
X98021045Y-35224807D01*
X98201209Y-35104425D01*
X98354425Y-34951209D01*
X98474807Y-34771045D01*
X98557727Y-34570858D01*
X98600000Y-34358341D01*
X98600000Y-34141659D01*
X98557727Y-33929142D01*
X98474807Y-33728955D01*
X98416478Y-33641659D01*
X107650000Y-33641659D01*
X107650000Y-33858341D01*
X107692273Y-34070858D01*
X107775193Y-34271045D01*
X107895575Y-34451209D01*
X108048791Y-34604425D01*
X108228955Y-34724807D01*
X108429142Y-34807727D01*
X108641659Y-34850000D01*
X108858341Y-34850000D01*
X109070858Y-34807727D01*
X109271045Y-34724807D01*
X109451209Y-34604425D01*
X109604425Y-34451209D01*
X109724807Y-34271045D01*
X109807727Y-34070858D01*
X109850000Y-33858341D01*
X109850000Y-33641659D01*
X109807727Y-33429142D01*
X109724807Y-33228955D01*
X109604425Y-33048791D01*
X109451209Y-32895575D01*
X109377344Y-32846220D01*
X109570858Y-32807727D01*
X109771045Y-32724807D01*
X109900692Y-32638179D01*
X109900000Y-32641659D01*
X109900000Y-32858341D01*
X109942273Y-33070858D01*
X110025193Y-33271045D01*
X110145575Y-33451209D01*
X110298791Y-33604425D01*
X110478955Y-33724807D01*
X110539776Y-33750000D01*
X110478955Y-33775193D01*
X110298791Y-33895575D01*
X110145575Y-34048791D01*
X110025193Y-34228955D01*
X109942273Y-34429142D01*
X109900000Y-34641659D01*
X109900000Y-34858341D01*
X109942273Y-35070858D01*
X110025193Y-35271045D01*
X110097679Y-35379528D01*
X110050924Y-35426283D01*
X109952430Y-35573690D01*
X109884586Y-35737480D01*
X109850000Y-35911358D01*
X109850000Y-36088642D01*
X109884586Y-36262520D01*
X109952430Y-36426310D01*
X110050924Y-36573717D01*
X110176283Y-36699076D01*
X110323690Y-36797570D01*
X110487480Y-36865414D01*
X110661358Y-36900000D01*
X110838642Y-36900000D01*
X111012520Y-36865414D01*
X111176310Y-36797570D01*
X111323717Y-36699076D01*
X111449076Y-36573717D01*
X111547570Y-36426310D01*
X111615414Y-36262520D01*
X111650000Y-36088642D01*
X111650000Y-35911358D01*
X111646082Y-35891659D01*
X116150000Y-35891659D01*
X116150000Y-36108341D01*
X116192273Y-36320858D01*
X116275193Y-36521045D01*
X116395575Y-36701209D01*
X116548791Y-36854425D01*
X116728955Y-36974807D01*
X116929142Y-37057727D01*
X117141659Y-37100000D01*
X117358341Y-37100000D01*
X117570858Y-37057727D01*
X117771045Y-36974807D01*
X117951209Y-36854425D01*
X118000000Y-36805634D01*
X118048791Y-36854425D01*
X118228955Y-36974807D01*
X118429142Y-37057727D01*
X118641659Y-37100000D01*
X118858341Y-37100000D01*
X119070858Y-37057727D01*
X119271045Y-36974807D01*
X119451209Y-36854425D01*
X119604425Y-36701209D01*
X119724807Y-36521045D01*
X119807727Y-36320858D01*
X119850000Y-36108341D01*
X119850000Y-35891659D01*
X119807727Y-35679142D01*
X119724807Y-35478955D01*
X119604425Y-35298791D01*
X119451209Y-35145575D01*
X119271045Y-35025193D01*
X119070858Y-34942273D01*
X118858341Y-34900000D01*
X118641659Y-34900000D01*
X118429142Y-34942273D01*
X118228955Y-35025193D01*
X118048791Y-35145575D01*
X118000000Y-35194366D01*
X117951209Y-35145575D01*
X117771045Y-35025193D01*
X117570858Y-34942273D01*
X117358341Y-34900000D01*
X117141659Y-34900000D01*
X116929142Y-34942273D01*
X116728955Y-35025193D01*
X116548791Y-35145575D01*
X116395575Y-35298791D01*
X116275193Y-35478955D01*
X116192273Y-35679142D01*
X116150000Y-35891659D01*
X111646082Y-35891659D01*
X111615414Y-35737480D01*
X111590846Y-35678167D01*
X111701209Y-35604425D01*
X111854425Y-35451209D01*
X111974807Y-35271045D01*
X112057727Y-35070858D01*
X112100000Y-34858341D01*
X112100000Y-34641659D01*
X112057727Y-34429142D01*
X111974807Y-34228955D01*
X111854425Y-34048791D01*
X111701209Y-33895575D01*
X111521045Y-33775193D01*
X111460224Y-33750000D01*
X111521045Y-33724807D01*
X111701209Y-33604425D01*
X111854425Y-33451209D01*
X111974807Y-33271045D01*
X112057727Y-33070858D01*
X112100000Y-32858341D01*
X112100000Y-32641659D01*
X112057727Y-32429142D01*
X111974807Y-32228955D01*
X111854425Y-32048791D01*
X111701209Y-31895575D01*
X111521045Y-31775193D01*
X111320858Y-31692273D01*
X111108341Y-31650000D01*
X110891659Y-31650000D01*
X110679142Y-31692273D01*
X110478955Y-31775193D01*
X110349308Y-31861821D01*
X110350000Y-31858341D01*
X110350000Y-31641659D01*
X110307727Y-31429142D01*
X110285267Y-31374919D01*
X110411358Y-31400000D01*
X110588642Y-31400000D01*
X110762520Y-31365414D01*
X110926310Y-31297570D01*
X111073717Y-31199076D01*
X111199076Y-31073717D01*
X111297570Y-30926310D01*
X111365414Y-30762520D01*
X111400000Y-30588642D01*
X111400000Y-30549733D01*
X111452430Y-30676310D01*
X111550924Y-30823717D01*
X111676283Y-30949076D01*
X111823690Y-31047570D01*
X111987480Y-31115414D01*
X112161358Y-31150000D01*
X112338642Y-31150000D01*
X112512520Y-31115414D01*
X112676310Y-31047570D01*
X112823717Y-30949076D01*
X112949076Y-30823717D01*
X113047570Y-30676310D01*
X113115414Y-30512520D01*
X113150000Y-30338642D01*
X113150000Y-30161358D01*
X113115414Y-29987480D01*
X113047570Y-29823690D01*
X112949076Y-29676283D01*
X112823717Y-29550924D01*
X112676310Y-29452430D01*
X112512520Y-29384586D01*
X112338642Y-29350000D01*
X112161358Y-29350000D01*
X111987480Y-29384586D01*
X111823690Y-29452430D01*
X111676283Y-29550924D01*
X111550924Y-29676283D01*
X111452430Y-29823690D01*
X111384586Y-29987480D01*
X111350000Y-30161358D01*
X111350000Y-30200267D01*
X111297570Y-30073690D01*
X111199076Y-29926283D01*
X111073717Y-29800924D01*
X110926310Y-29702430D01*
X110762520Y-29634586D01*
X110588642Y-29600000D01*
X110411358Y-29600000D01*
X110237480Y-29634586D01*
X110073690Y-29702430D01*
X109926283Y-29800924D01*
X109800924Y-29926283D01*
X109702430Y-30073690D01*
X109634586Y-30237480D01*
X109600000Y-30411358D01*
X109600000Y-30588642D01*
X109625081Y-30714733D01*
X109570858Y-30692273D01*
X109358341Y-30650000D01*
X109141659Y-30650000D01*
X108929142Y-30692273D01*
X108728955Y-30775193D01*
X108548791Y-30895575D01*
X108395575Y-31048791D01*
X108275193Y-31228955D01*
X108192273Y-31429142D01*
X108150000Y-31641659D01*
X108150000Y-31858341D01*
X108192273Y-32070858D01*
X108275193Y-32271045D01*
X108395575Y-32451209D01*
X108548791Y-32604425D01*
X108622656Y-32653780D01*
X108429142Y-32692273D01*
X108228955Y-32775193D01*
X108048791Y-32895575D01*
X107895575Y-33048791D01*
X107775193Y-33228955D01*
X107692273Y-33429142D01*
X107650000Y-33641659D01*
X98416478Y-33641659D01*
X98354425Y-33548791D01*
X98201209Y-33395575D01*
X98021045Y-33275193D01*
X97820858Y-33192273D01*
X97608341Y-33150000D01*
X97391659Y-33150000D01*
X97179142Y-33192273D01*
X96978955Y-33275193D01*
X96798791Y-33395575D01*
X96645575Y-33548791D01*
X96525193Y-33728955D01*
X96442273Y-33929142D01*
X96400000Y-34141659D01*
X93792202Y-34141659D01*
X93724807Y-33978955D01*
X93604425Y-33798791D01*
X93451209Y-33645575D01*
X93271045Y-33525193D01*
X93070858Y-33442273D01*
X92858341Y-33400000D01*
X92641659Y-33400000D01*
X92429142Y-33442273D01*
X92228955Y-33525193D01*
X92048791Y-33645575D01*
X91895575Y-33798791D01*
X91775193Y-33978955D01*
X91692273Y-34179142D01*
X91650000Y-34391659D01*
X86881134Y-34391659D01*
X86949076Y-34323717D01*
X87047570Y-34176310D01*
X87115414Y-34012520D01*
X87150000Y-33838642D01*
X87150000Y-33661358D01*
X87115414Y-33487480D01*
X87047570Y-33323690D01*
X86949076Y-33176283D01*
X86934151Y-33161358D01*
X89100000Y-33161358D01*
X89100000Y-33338642D01*
X89134586Y-33512520D01*
X89202430Y-33676310D01*
X89300924Y-33823717D01*
X89426283Y-33949076D01*
X89573690Y-34047570D01*
X89737480Y-34115414D01*
X89911358Y-34150000D01*
X90088642Y-34150000D01*
X90262520Y-34115414D01*
X90426310Y-34047570D01*
X90573717Y-33949076D01*
X90699076Y-33823717D01*
X90797570Y-33676310D01*
X90865414Y-33512520D01*
X90900000Y-33338642D01*
X90900000Y-33161358D01*
X90865414Y-32987480D01*
X90797570Y-32823690D01*
X90699076Y-32676283D01*
X90573717Y-32550924D01*
X90426310Y-32452430D01*
X90262520Y-32384586D01*
X90088642Y-32350000D01*
X89911358Y-32350000D01*
X89737480Y-32384586D01*
X89573690Y-32452430D01*
X89426283Y-32550924D01*
X89300924Y-32676283D01*
X89202430Y-32823690D01*
X89134586Y-32987480D01*
X89100000Y-33161358D01*
X86934151Y-33161358D01*
X86823717Y-33050924D01*
X86676310Y-32952430D01*
X86512520Y-32884586D01*
X86338642Y-32850000D01*
X86161358Y-32850000D01*
X85987480Y-32884586D01*
X85823690Y-32952430D01*
X85676283Y-33050924D01*
X85550924Y-33176283D01*
X85452430Y-33323690D01*
X85433700Y-33368908D01*
X85338642Y-33350000D01*
X85161358Y-33350000D01*
X84987480Y-33384586D01*
X84823690Y-33452430D01*
X84676283Y-33550924D01*
X84550924Y-33676283D01*
X84452430Y-33823690D01*
X84384586Y-33987480D01*
X84350000Y-34161358D01*
X65928169Y-34161358D01*
X66121246Y-33980122D01*
X66287473Y-33747611D01*
X66405146Y-33487139D01*
X66431903Y-33398910D01*
X66320889Y-33174000D01*
X65178000Y-33174000D01*
X64870000Y-33174000D01*
X63727111Y-33174000D01*
X63616097Y-33398910D01*
X62759128Y-33398910D01*
X62758862Y-32911358D01*
X81600000Y-32911358D01*
X81600000Y-33088642D01*
X81634586Y-33262520D01*
X81702430Y-33426310D01*
X81800924Y-33573717D01*
X81926283Y-33699076D01*
X82073690Y-33797570D01*
X82237480Y-33865414D01*
X82411358Y-33900000D01*
X82588642Y-33900000D01*
X82762520Y-33865414D01*
X82926310Y-33797570D01*
X83073717Y-33699076D01*
X83199076Y-33573717D01*
X83297570Y-33426310D01*
X83365414Y-33262520D01*
X83400000Y-33088642D01*
X83400000Y-32911358D01*
X83365414Y-32737480D01*
X83297570Y-32573690D01*
X83199076Y-32426283D01*
X83073717Y-32300924D01*
X82926310Y-32202430D01*
X82762520Y-32134586D01*
X82588642Y-32100000D01*
X82411358Y-32100000D01*
X82237480Y-32134586D01*
X82073690Y-32202430D01*
X81926283Y-32300924D01*
X81800924Y-32426283D01*
X81702430Y-32573690D01*
X81634586Y-32737480D01*
X81600000Y-32911358D01*
X62758862Y-32911358D01*
X62758714Y-32641090D01*
X63616097Y-32641090D01*
X63727111Y-32866000D01*
X64870000Y-32866000D01*
X64870000Y-32846000D01*
X65178000Y-32846000D01*
X65178000Y-32866000D01*
X66320889Y-32866000D01*
X66431903Y-32641090D01*
X66405146Y-32552861D01*
X66287473Y-32292389D01*
X66121246Y-32059878D01*
X65912852Y-31864264D01*
X65861767Y-31832419D01*
X65874000Y-31832419D01*
X65972017Y-31822765D01*
X66066267Y-31794175D01*
X66153129Y-31747746D01*
X66229264Y-31685264D01*
X66291746Y-31609129D01*
X66338175Y-31522267D01*
X66366765Y-31428017D01*
X66376419Y-31330000D01*
X66376419Y-29630000D01*
X66366765Y-29531983D01*
X66338175Y-29437733D01*
X66291746Y-29350871D01*
X66229264Y-29274736D01*
X66153129Y-29212254D01*
X66066267Y-29165825D01*
X65972017Y-29137235D01*
X65874000Y-29127581D01*
X64174000Y-29127581D01*
X64075983Y-29137235D01*
X63981733Y-29165825D01*
X63894871Y-29212254D01*
X63818736Y-29274736D01*
X63756254Y-29350871D01*
X63709825Y-29437733D01*
X63681235Y-29531983D01*
X63671581Y-29630000D01*
X63671581Y-31330000D01*
X63681235Y-31428017D01*
X63709825Y-31522267D01*
X63756254Y-31609129D01*
X63818736Y-31685264D01*
X63894871Y-31747746D01*
X63981733Y-31794175D01*
X64075983Y-31822765D01*
X64174000Y-31832419D01*
X64186233Y-31832419D01*
X64135148Y-31864264D01*
X63926754Y-32059878D01*
X63760527Y-32292389D01*
X63642854Y-32552861D01*
X63616097Y-32641090D01*
X62758714Y-32641090D01*
X62755535Y-26834822D01*
X63552967Y-26834822D01*
X63917294Y-27313654D01*
X64579182Y-27666601D01*
X65297208Y-27883637D01*
X66043779Y-27956423D01*
X66694746Y-27891659D01*
X68400000Y-27891659D01*
X68400000Y-28108341D01*
X68442273Y-28320858D01*
X68525193Y-28521045D01*
X68645575Y-28701209D01*
X68798791Y-28854425D01*
X68978955Y-28974807D01*
X69179142Y-29057727D01*
X69391659Y-29100000D01*
X69608341Y-29100000D01*
X69820858Y-29057727D01*
X70021045Y-28974807D01*
X70116002Y-28911358D01*
X97350000Y-28911358D01*
X97350000Y-29088642D01*
X97384586Y-29262520D01*
X97452430Y-29426310D01*
X97550924Y-29573717D01*
X97676283Y-29699076D01*
X97823690Y-29797570D01*
X97987480Y-29865414D01*
X98161358Y-29900000D01*
X98338642Y-29900000D01*
X98512520Y-29865414D01*
X98676310Y-29797570D01*
X98823717Y-29699076D01*
X98949076Y-29573717D01*
X99047570Y-29426310D01*
X99115414Y-29262520D01*
X99150000Y-29088642D01*
X99150000Y-28911358D01*
X99115414Y-28737480D01*
X99047570Y-28573690D01*
X98949076Y-28426283D01*
X98823717Y-28300924D01*
X98676310Y-28202430D01*
X98512520Y-28134586D01*
X98338642Y-28100000D01*
X98161358Y-28100000D01*
X97987480Y-28134586D01*
X97823690Y-28202430D01*
X97676283Y-28300924D01*
X97550924Y-28426283D01*
X97452430Y-28573690D01*
X97384586Y-28737480D01*
X97350000Y-28911358D01*
X70116002Y-28911358D01*
X70201209Y-28854425D01*
X70354425Y-28701209D01*
X70474807Y-28521045D01*
X70557727Y-28320858D01*
X70600000Y-28108341D01*
X70600000Y-27891659D01*
X70557727Y-27679142D01*
X70542202Y-27641659D01*
X76400000Y-27641659D01*
X76400000Y-27858341D01*
X76442273Y-28070858D01*
X76525193Y-28271045D01*
X76645575Y-28451209D01*
X76798791Y-28604425D01*
X76978955Y-28724807D01*
X77179142Y-28807727D01*
X77391659Y-28850000D01*
X77608341Y-28850000D01*
X77820858Y-28807727D01*
X78021045Y-28724807D01*
X78201209Y-28604425D01*
X78354425Y-28451209D01*
X78474807Y-28271045D01*
X78557727Y-28070858D01*
X78600000Y-27858341D01*
X78600000Y-27641659D01*
X78557727Y-27429142D01*
X78474807Y-27228955D01*
X78354425Y-27048791D01*
X78201209Y-26895575D01*
X78021045Y-26775193D01*
X77820858Y-26692273D01*
X77665441Y-26661358D01*
X88350000Y-26661358D01*
X88350000Y-26838642D01*
X88384586Y-27012520D01*
X88452430Y-27176310D01*
X88550924Y-27323717D01*
X88676283Y-27449076D01*
X88823690Y-27547570D01*
X88987480Y-27615414D01*
X89161358Y-27650000D01*
X89338642Y-27650000D01*
X89512520Y-27615414D01*
X89676310Y-27547570D01*
X89823717Y-27449076D01*
X89949076Y-27323717D01*
X90047570Y-27176310D01*
X90115414Y-27012520D01*
X90150000Y-26838642D01*
X90150000Y-26661358D01*
X93850000Y-26661358D01*
X93850000Y-26838642D01*
X93884586Y-27012520D01*
X93952430Y-27176310D01*
X94050924Y-27323717D01*
X94176283Y-27449076D01*
X94323690Y-27547570D01*
X94487480Y-27615414D01*
X94661358Y-27650000D01*
X94838642Y-27650000D01*
X95012520Y-27615414D01*
X95176310Y-27547570D01*
X95323717Y-27449076D01*
X95449076Y-27323717D01*
X95547570Y-27176310D01*
X95615414Y-27012520D01*
X95648711Y-26845122D01*
X95679142Y-26857727D01*
X95891659Y-26900000D01*
X96108341Y-26900000D01*
X96320858Y-26857727D01*
X96376155Y-26834822D01*
X125782967Y-26834822D01*
X126147294Y-27313654D01*
X126809182Y-27666601D01*
X127527208Y-27883637D01*
X128273779Y-27956423D01*
X129020204Y-27882162D01*
X129737800Y-27663708D01*
X130392706Y-27313654D01*
X130757033Y-26834822D01*
X128270000Y-24347789D01*
X125782967Y-26834822D01*
X96376155Y-26834822D01*
X96521045Y-26774807D01*
X96701209Y-26654425D01*
X96854425Y-26501209D01*
X96974807Y-26321045D01*
X97057727Y-26120858D01*
X97100000Y-25908341D01*
X97100000Y-25691659D01*
X97057727Y-25479142D01*
X96974807Y-25278955D01*
X96854425Y-25098791D01*
X96701209Y-24945575D01*
X96521045Y-24825193D01*
X96320858Y-24742273D01*
X96108341Y-24700000D01*
X95891659Y-24700000D01*
X95679142Y-24742273D01*
X95478955Y-24825193D01*
X95298791Y-24945575D01*
X95145575Y-25098791D01*
X95025193Y-25278955D01*
X94942273Y-25479142D01*
X94900000Y-25691659D01*
X94900000Y-25862205D01*
X94838642Y-25850000D01*
X94661358Y-25850000D01*
X94487480Y-25884586D01*
X94323690Y-25952430D01*
X94176283Y-26050924D01*
X94050924Y-26176283D01*
X93952430Y-26323690D01*
X93884586Y-26487480D01*
X93850000Y-26661358D01*
X90150000Y-26661358D01*
X90115414Y-26487480D01*
X90047570Y-26323690D01*
X89949076Y-26176283D01*
X89823717Y-26050924D01*
X89676310Y-25952430D01*
X89512520Y-25884586D01*
X89338642Y-25850000D01*
X89161358Y-25850000D01*
X88987480Y-25884586D01*
X88823690Y-25952430D01*
X88676283Y-26050924D01*
X88550924Y-26176283D01*
X88452430Y-26323690D01*
X88384586Y-26487480D01*
X88350000Y-26661358D01*
X77665441Y-26661358D01*
X77608341Y-26650000D01*
X77391659Y-26650000D01*
X77179142Y-26692273D01*
X76978955Y-26775193D01*
X76798791Y-26895575D01*
X76645575Y-27048791D01*
X76525193Y-27228955D01*
X76442273Y-27429142D01*
X76400000Y-27641659D01*
X70542202Y-27641659D01*
X70474807Y-27478955D01*
X70354425Y-27298791D01*
X70201209Y-27145575D01*
X70021045Y-27025193D01*
X69820858Y-26942273D01*
X69608341Y-26900000D01*
X69391659Y-26900000D01*
X69179142Y-26942273D01*
X68978955Y-27025193D01*
X68798791Y-27145575D01*
X68645575Y-27298791D01*
X68525193Y-27478955D01*
X68442273Y-27679142D01*
X68400000Y-27891659D01*
X66694746Y-27891659D01*
X66790204Y-27882162D01*
X67507800Y-27663708D01*
X68162706Y-27313654D01*
X68527033Y-26834822D01*
X66040000Y-24347789D01*
X63552967Y-26834822D01*
X62755535Y-26834822D01*
X62755112Y-26063310D01*
X62856346Y-26252706D01*
X63335178Y-26617033D01*
X65822211Y-24130000D01*
X66257789Y-24130000D01*
X68744822Y-26617033D01*
X69223654Y-26252706D01*
X69416179Y-25891659D01*
X71650000Y-25891659D01*
X71650000Y-26108341D01*
X71692273Y-26320858D01*
X71775193Y-26521045D01*
X71895575Y-26701209D01*
X72048791Y-26854425D01*
X72228955Y-26974807D01*
X72429142Y-27057727D01*
X72641659Y-27100000D01*
X72858341Y-27100000D01*
X73070858Y-27057727D01*
X73271045Y-26974807D01*
X73451209Y-26854425D01*
X73604425Y-26701209D01*
X73724807Y-26521045D01*
X73807727Y-26320858D01*
X73850000Y-26108341D01*
X73850000Y-25891659D01*
X73807727Y-25679142D01*
X73724807Y-25478955D01*
X73604425Y-25298791D01*
X73451209Y-25145575D01*
X73271045Y-25025193D01*
X73070858Y-24942273D01*
X72858341Y-24900000D01*
X72641659Y-24900000D01*
X72429142Y-24942273D01*
X72228955Y-25025193D01*
X72048791Y-25145575D01*
X71895575Y-25298791D01*
X71775193Y-25478955D01*
X71692273Y-25679142D01*
X71650000Y-25891659D01*
X69416179Y-25891659D01*
X69576601Y-25590818D01*
X69793637Y-24872792D01*
X69866423Y-24126221D01*
X69792162Y-23379796D01*
X69573708Y-22662200D01*
X69496632Y-22518000D01*
X71291581Y-22518000D01*
X71291581Y-24218000D01*
X71301235Y-24316017D01*
X71329825Y-24410267D01*
X71376254Y-24497129D01*
X71438736Y-24573264D01*
X71514871Y-24635746D01*
X71601733Y-24682175D01*
X71695983Y-24710765D01*
X71794000Y-24720419D01*
X73494000Y-24720419D01*
X73592017Y-24710765D01*
X73686267Y-24682175D01*
X73773129Y-24635746D01*
X73849264Y-24573264D01*
X73911746Y-24497129D01*
X73958175Y-24410267D01*
X73986765Y-24316017D01*
X73996419Y-24218000D01*
X73996419Y-24205767D01*
X74028264Y-24256852D01*
X74223878Y-24465246D01*
X74456389Y-24631473D01*
X74716861Y-24749146D01*
X74805090Y-24775903D01*
X75030000Y-24664889D01*
X75030000Y-23522000D01*
X75338000Y-23522000D01*
X75338000Y-24664889D01*
X75562910Y-24775903D01*
X75651139Y-24749146D01*
X75911611Y-24631473D01*
X76144122Y-24465246D01*
X76339736Y-24256852D01*
X76490935Y-24014300D01*
X76591909Y-23746911D01*
X76481850Y-23522000D01*
X75338000Y-23522000D01*
X75030000Y-23522000D01*
X75010000Y-23522000D01*
X75010000Y-23214000D01*
X75030000Y-23214000D01*
X75030000Y-22071111D01*
X75338000Y-22071111D01*
X75338000Y-23214000D01*
X76481850Y-23214000D01*
X76591909Y-22989089D01*
X76490935Y-22721700D01*
X76339736Y-22479148D01*
X76144122Y-22270754D01*
X76134675Y-22264000D01*
X92547581Y-22264000D01*
X92547581Y-23964000D01*
X92557235Y-24062017D01*
X92585825Y-24156267D01*
X92632254Y-24243129D01*
X92694736Y-24319264D01*
X92770871Y-24381746D01*
X92857733Y-24428175D01*
X92951983Y-24456765D01*
X93050000Y-24466419D01*
X94750000Y-24466419D01*
X94848017Y-24456765D01*
X94942267Y-24428175D01*
X95029129Y-24381746D01*
X95105264Y-24319264D01*
X95167746Y-24243129D01*
X95214175Y-24156267D01*
X95242765Y-24062017D01*
X95252419Y-23964000D01*
X95252419Y-23951767D01*
X95284264Y-24002852D01*
X95479878Y-24211246D01*
X95712389Y-24377473D01*
X95972861Y-24495146D01*
X96061090Y-24521903D01*
X96286000Y-24410889D01*
X96286000Y-23268000D01*
X96594000Y-23268000D01*
X96594000Y-24410889D01*
X96818910Y-24521903D01*
X96907139Y-24495146D01*
X97167611Y-24377473D01*
X97400122Y-24211246D01*
X97595736Y-24002852D01*
X97746935Y-23760300D01*
X97847909Y-23492911D01*
X99052091Y-23492911D01*
X99153065Y-23760300D01*
X99304264Y-24002852D01*
X99499878Y-24211246D01*
X99732389Y-24377473D01*
X99992861Y-24495146D01*
X100081090Y-24521903D01*
X100306000Y-24410889D01*
X100306000Y-23268000D01*
X99162150Y-23268000D01*
X99052091Y-23492911D01*
X97847909Y-23492911D01*
X97737850Y-23268000D01*
X96594000Y-23268000D01*
X96286000Y-23268000D01*
X96266000Y-23268000D01*
X96266000Y-22960000D01*
X96286000Y-22960000D01*
X96286000Y-21817111D01*
X96594000Y-21817111D01*
X96594000Y-22960000D01*
X97737850Y-22960000D01*
X97847909Y-22735089D01*
X99052091Y-22735089D01*
X99162150Y-22960000D01*
X100306000Y-22960000D01*
X100306000Y-21817111D01*
X100614000Y-21817111D01*
X100614000Y-22960000D01*
X100634000Y-22960000D01*
X100634000Y-23268000D01*
X100614000Y-23268000D01*
X100614000Y-24410889D01*
X100838910Y-24521903D01*
X100927139Y-24495146D01*
X101187611Y-24377473D01*
X101420122Y-24211246D01*
X101615736Y-24002852D01*
X101647581Y-23951767D01*
X101647581Y-23964000D01*
X101657235Y-24062017D01*
X101685825Y-24156267D01*
X101732254Y-24243129D01*
X101794736Y-24319264D01*
X101870871Y-24381746D01*
X101957733Y-24428175D01*
X102051983Y-24456765D01*
X102150000Y-24466419D01*
X103850000Y-24466419D01*
X103948017Y-24456765D01*
X104042267Y-24428175D01*
X104129129Y-24381746D01*
X104205264Y-24319264D01*
X104267746Y-24243129D01*
X104314175Y-24156267D01*
X104342765Y-24062017D01*
X104352419Y-23964000D01*
X104352419Y-22823752D01*
X108360346Y-22823752D01*
X108443868Y-23024259D01*
X108564902Y-23204619D01*
X108580181Y-23219837D01*
X108491651Y-23385465D01*
X108434470Y-23573966D01*
X108415162Y-23770000D01*
X108434470Y-23966034D01*
X108491651Y-24154535D01*
X108584508Y-24328258D01*
X108709472Y-24480528D01*
X108861742Y-24605492D01*
X109035465Y-24698349D01*
X109223966Y-24755530D01*
X109370880Y-24770000D01*
X109469120Y-24770000D01*
X109616034Y-24755530D01*
X109804535Y-24698349D01*
X109978258Y-24605492D01*
X110055000Y-24542512D01*
X110131742Y-24605492D01*
X110305465Y-24698349D01*
X110493966Y-24755530D01*
X110640880Y-24770000D01*
X110739120Y-24770000D01*
X110886034Y-24755530D01*
X111074535Y-24698349D01*
X111248258Y-24605492D01*
X111325000Y-24542512D01*
X111401742Y-24605492D01*
X111575465Y-24698349D01*
X111763966Y-24755530D01*
X111910880Y-24770000D01*
X112009120Y-24770000D01*
X112156034Y-24755530D01*
X112344535Y-24698349D01*
X112518258Y-24605492D01*
X112595000Y-24542512D01*
X112671742Y-24605492D01*
X112845465Y-24698349D01*
X113033966Y-24755530D01*
X113180880Y-24770000D01*
X113279120Y-24770000D01*
X113426034Y-24755530D01*
X113614535Y-24698349D01*
X113788258Y-24605492D01*
X113865000Y-24542512D01*
X113941742Y-24605492D01*
X114115465Y-24698349D01*
X114303966Y-24755530D01*
X114450880Y-24770000D01*
X114549120Y-24770000D01*
X114696034Y-24755530D01*
X114884535Y-24698349D01*
X115058258Y-24605492D01*
X115210528Y-24480528D01*
X115335492Y-24328258D01*
X115428349Y-24154535D01*
X115434645Y-24133779D01*
X124443577Y-24133779D01*
X124517838Y-24880204D01*
X124736292Y-25597800D01*
X125086346Y-26252706D01*
X125565178Y-26617033D01*
X128052211Y-24130000D01*
X125565178Y-21642967D01*
X125086346Y-22007294D01*
X124733399Y-22669182D01*
X124516363Y-23387208D01*
X124443577Y-24133779D01*
X115434645Y-24133779D01*
X115485530Y-23966034D01*
X115504838Y-23770000D01*
X115485530Y-23573966D01*
X115428349Y-23385465D01*
X115389747Y-23313246D01*
X115417746Y-23279129D01*
X115464175Y-23192267D01*
X115492765Y-23098017D01*
X115502419Y-23000000D01*
X115502419Y-22391659D01*
X115650000Y-22391659D01*
X115650000Y-22608341D01*
X115692273Y-22820858D01*
X115775193Y-23021045D01*
X115895575Y-23201209D01*
X116048791Y-23354425D01*
X116228955Y-23474807D01*
X116429142Y-23557727D01*
X116641659Y-23600000D01*
X116858341Y-23600000D01*
X117070858Y-23557727D01*
X117271045Y-23474807D01*
X117451209Y-23354425D01*
X117604425Y-23201209D01*
X117724807Y-23021045D01*
X117807727Y-22820858D01*
X117850000Y-22608341D01*
X117850000Y-22391659D01*
X117807727Y-22179142D01*
X117724807Y-21978955D01*
X117604425Y-21798791D01*
X117451209Y-21645575D01*
X117271045Y-21525193D01*
X117070858Y-21442273D01*
X116858341Y-21400000D01*
X116641659Y-21400000D01*
X116429142Y-21442273D01*
X116228955Y-21525193D01*
X116048791Y-21645575D01*
X115895575Y-21798791D01*
X115775193Y-21978955D01*
X115692273Y-22179142D01*
X115650000Y-22391659D01*
X115502419Y-22391659D01*
X115502419Y-22000000D01*
X115492765Y-21901983D01*
X115464175Y-21807733D01*
X115417746Y-21720871D01*
X115355264Y-21644736D01*
X115279129Y-21582254D01*
X115192267Y-21535825D01*
X115098017Y-21507235D01*
X115000000Y-21497581D01*
X114000000Y-21497581D01*
X113901983Y-21507235D01*
X113807733Y-21535825D01*
X113787622Y-21546575D01*
X113750361Y-21521785D01*
X113553751Y-21440354D01*
X113384000Y-21556485D01*
X113384000Y-22346000D01*
X113404000Y-22346000D01*
X113404000Y-22654000D01*
X113384000Y-22654000D01*
X113384000Y-22674000D01*
X113076000Y-22674000D01*
X113076000Y-22654000D01*
X112114000Y-22654000D01*
X112114000Y-22674000D01*
X111806000Y-22674000D01*
X111806000Y-22654000D01*
X111786000Y-22654000D01*
X111786000Y-22346000D01*
X111806000Y-22346000D01*
X111806000Y-21556485D01*
X112114000Y-21556485D01*
X112114000Y-22346000D01*
X113076000Y-22346000D01*
X113076000Y-21556485D01*
X112906249Y-21440354D01*
X112709639Y-21521785D01*
X112595000Y-21598054D01*
X112480361Y-21521785D01*
X112283751Y-21440354D01*
X112114000Y-21556485D01*
X111806000Y-21556485D01*
X111636249Y-21440354D01*
X111439639Y-21521785D01*
X111258797Y-21642099D01*
X111240475Y-21660348D01*
X111074535Y-21571651D01*
X110886034Y-21514470D01*
X110739120Y-21500000D01*
X110640880Y-21500000D01*
X110493966Y-21514470D01*
X110305465Y-21571651D01*
X110139525Y-21660348D01*
X110121203Y-21642099D01*
X109940361Y-21521785D01*
X109743751Y-21440354D01*
X109574000Y-21556485D01*
X109574000Y-22346000D01*
X109594000Y-22346000D01*
X109594000Y-22654000D01*
X109574000Y-22654000D01*
X109574000Y-22674000D01*
X109266000Y-22674000D01*
X109266000Y-22654000D01*
X108474746Y-22654000D01*
X108360346Y-22823752D01*
X104352419Y-22823752D01*
X104352419Y-22264000D01*
X104343777Y-22176248D01*
X108360346Y-22176248D01*
X108474746Y-22346000D01*
X109266000Y-22346000D01*
X109266000Y-21556485D01*
X109096249Y-21440354D01*
X108899639Y-21521785D01*
X108718797Y-21642099D01*
X108564902Y-21795381D01*
X108443868Y-21975741D01*
X108360346Y-22176248D01*
X104343777Y-22176248D01*
X104342765Y-22165983D01*
X104314175Y-22071733D01*
X104267746Y-21984871D01*
X104205264Y-21908736D01*
X104129129Y-21846254D01*
X104042267Y-21799825D01*
X103948017Y-21771235D01*
X103850000Y-21761581D01*
X102150000Y-21761581D01*
X102051983Y-21771235D01*
X101957733Y-21799825D01*
X101870871Y-21846254D01*
X101794736Y-21908736D01*
X101732254Y-21984871D01*
X101685825Y-22071733D01*
X101657235Y-22165983D01*
X101647581Y-22264000D01*
X101647581Y-22276233D01*
X101615736Y-22225148D01*
X101420122Y-22016754D01*
X101187611Y-21850527D01*
X100927139Y-21732854D01*
X100838910Y-21706097D01*
X100614000Y-21817111D01*
X100306000Y-21817111D01*
X100081090Y-21706097D01*
X99992861Y-21732854D01*
X99732389Y-21850527D01*
X99499878Y-22016754D01*
X99304264Y-22225148D01*
X99153065Y-22467700D01*
X99052091Y-22735089D01*
X97847909Y-22735089D01*
X97746935Y-22467700D01*
X97595736Y-22225148D01*
X97400122Y-22016754D01*
X97167611Y-21850527D01*
X96907139Y-21732854D01*
X96818910Y-21706097D01*
X96594000Y-21817111D01*
X96286000Y-21817111D01*
X96061090Y-21706097D01*
X95972861Y-21732854D01*
X95712389Y-21850527D01*
X95479878Y-22016754D01*
X95284264Y-22225148D01*
X95252419Y-22276233D01*
X95252419Y-22264000D01*
X95242765Y-22165983D01*
X95214175Y-22071733D01*
X95167746Y-21984871D01*
X95105264Y-21908736D01*
X95029129Y-21846254D01*
X94942267Y-21799825D01*
X94848017Y-21771235D01*
X94750000Y-21761581D01*
X93050000Y-21761581D01*
X92951983Y-21771235D01*
X92857733Y-21799825D01*
X92770871Y-21846254D01*
X92694736Y-21908736D01*
X92632254Y-21984871D01*
X92585825Y-22071733D01*
X92557235Y-22165983D01*
X92547581Y-22264000D01*
X76134675Y-22264000D01*
X75911611Y-22104527D01*
X75651139Y-21986854D01*
X75562910Y-21960097D01*
X75338000Y-22071111D01*
X75030000Y-22071111D01*
X74805090Y-21960097D01*
X74716861Y-21986854D01*
X74456389Y-22104527D01*
X74223878Y-22270754D01*
X74028264Y-22479148D01*
X73996419Y-22530233D01*
X73996419Y-22518000D01*
X73986765Y-22419983D01*
X73958175Y-22325733D01*
X73911746Y-22238871D01*
X73849264Y-22162736D01*
X73773129Y-22100254D01*
X73686267Y-22053825D01*
X73592017Y-22025235D01*
X73494000Y-22015581D01*
X71794000Y-22015581D01*
X71695983Y-22025235D01*
X71601733Y-22053825D01*
X71514871Y-22100254D01*
X71438736Y-22162736D01*
X71376254Y-22238871D01*
X71329825Y-22325733D01*
X71301235Y-22419983D01*
X71291581Y-22518000D01*
X69496632Y-22518000D01*
X69223654Y-22007294D01*
X68744822Y-21642967D01*
X66257789Y-24130000D01*
X65822211Y-24130000D01*
X65808069Y-24115858D01*
X66025858Y-23898069D01*
X66040000Y-23912211D01*
X68527033Y-21425178D01*
X68162706Y-20946346D01*
X68027403Y-20874196D01*
X126326632Y-20850488D01*
X126147294Y-20946346D01*
X126147294Y-20946346D01*
G37*
X126147294Y-20946346D02*
X125782967Y-21425178D01*
X128270000Y-23912211D01*
X128284142Y-23898069D01*
X128501931Y-24115858D01*
X128487789Y-24130000D01*
X130974822Y-26617033D01*
X131453654Y-26252706D01*
X131526290Y-26116491D01*
X131548701Y-60285115D01*
X131453654Y-60107294D01*
X130974822Y-59742967D01*
X128487789Y-62230000D01*
X128501931Y-62244142D01*
X128284142Y-62461931D01*
X128270000Y-62447789D01*
X125782967Y-64934822D01*
X126147294Y-65413654D01*
X126354999Y-65524411D01*
X100976766Y-65516317D01*
X101057727Y-65320858D01*
X101100000Y-65108341D01*
X101100000Y-64891659D01*
X101057727Y-64679142D01*
X100974807Y-64478955D01*
X100854425Y-64298791D01*
X100701209Y-64145575D01*
X100521045Y-64025193D01*
X100320858Y-63942273D01*
X100108341Y-63900000D01*
X99891659Y-63900000D01*
X99679142Y-63942273D01*
X99478955Y-64025193D01*
X99298791Y-64145575D01*
X99145575Y-64298791D01*
X99025193Y-64478955D01*
X98942273Y-64679142D01*
X98900000Y-64891659D01*
X98900000Y-65108341D01*
X98942273Y-65320858D01*
X99022976Y-65515694D01*
X67990321Y-65505796D01*
X68162706Y-65413654D01*
X68527033Y-64934822D01*
X66040000Y-62447789D01*
X66025858Y-62461931D01*
X65808069Y-62244142D01*
X65822211Y-62230000D01*
X66257789Y-62230000D01*
X68744822Y-64717033D01*
X69223654Y-64352706D01*
X69576601Y-63690818D01*
X69793637Y-62972792D01*
X69866423Y-62226221D01*
X69858011Y-62141659D01*
X86150000Y-62141659D01*
X86150000Y-62358341D01*
X86192273Y-62570858D01*
X86275193Y-62771045D01*
X86395575Y-62951209D01*
X86548791Y-63104425D01*
X86728955Y-63224807D01*
X86929142Y-63307727D01*
X87141659Y-63350000D01*
X87358341Y-63350000D01*
X87570858Y-63307727D01*
X87771045Y-63224807D01*
X87951209Y-63104425D01*
X88028957Y-63026677D01*
X88145575Y-63201209D01*
X88298791Y-63354425D01*
X88478955Y-63474807D01*
X88679142Y-63557727D01*
X88891659Y-63600000D01*
X89108341Y-63600000D01*
X89320858Y-63557727D01*
X89521045Y-63474807D01*
X89701209Y-63354425D01*
X89854425Y-63201209D01*
X89904086Y-63126886D01*
X114000000Y-63126886D01*
X114000000Y-63373114D01*
X114048037Y-63614611D01*
X114142265Y-63842097D01*
X114279062Y-64046828D01*
X114453172Y-64220938D01*
X114657903Y-64357735D01*
X114885389Y-64451963D01*
X115126886Y-64500000D01*
X115373114Y-64500000D01*
X115614611Y-64451963D01*
X115842097Y-64357735D01*
X116046828Y-64220938D01*
X116058397Y-64209369D01*
X121008420Y-64209369D01*
X121077638Y-64437427D01*
X121322213Y-64545782D01*
X121583227Y-64604341D01*
X121850650Y-64610853D01*
X122114205Y-64565069D01*
X122363764Y-64468747D01*
X122422362Y-64437427D01*
X122491580Y-64209369D01*
X121750000Y-63467789D01*
X121008420Y-64209369D01*
X116058397Y-64209369D01*
X116220938Y-64046828D01*
X116357735Y-63842097D01*
X116451963Y-63614611D01*
X116500000Y-63373114D01*
X116500000Y-63350650D01*
X120389147Y-63350650D01*
X120434931Y-63614205D01*
X120531253Y-63863764D01*
X120562573Y-63922362D01*
X120790631Y-63991580D01*
X121532211Y-63250000D01*
X121967789Y-63250000D01*
X122709369Y-63991580D01*
X122937427Y-63922362D01*
X123045782Y-63677787D01*
X123104341Y-63416773D01*
X123110853Y-63149350D01*
X123065069Y-62885795D01*
X122968747Y-62636236D01*
X122937427Y-62577638D01*
X122709369Y-62508420D01*
X121967789Y-63250000D01*
X121532211Y-63250000D01*
X120790631Y-62508420D01*
X120562573Y-62577638D01*
X120454218Y-62822213D01*
X120395659Y-63083227D01*
X120389147Y-63350650D01*
X116500000Y-63350650D01*
X116500000Y-63126886D01*
X116451963Y-62885389D01*
X116357735Y-62657903D01*
X116220938Y-62453172D01*
X116058397Y-62290631D01*
X121008420Y-62290631D01*
X121750000Y-63032211D01*
X122491580Y-62290631D01*
X122474325Y-62233779D01*
X124443577Y-62233779D01*
X124517838Y-62980204D01*
X124736292Y-63697800D01*
X125086346Y-64352706D01*
X125565178Y-64717033D01*
X128052211Y-62230000D01*
X125565178Y-59742967D01*
X125086346Y-60107294D01*
X124733399Y-60769182D01*
X124516363Y-61487208D01*
X124443577Y-62233779D01*
X122474325Y-62233779D01*
X122422362Y-62062573D01*
X122177787Y-61954218D01*
X121916773Y-61895659D01*
X121649350Y-61889147D01*
X121385795Y-61934931D01*
X121136236Y-62031253D01*
X121077638Y-62062573D01*
X121008420Y-62290631D01*
X116058397Y-62290631D01*
X116046828Y-62279062D01*
X115842097Y-62142265D01*
X115614611Y-62048037D01*
X115373114Y-62000000D01*
X115126886Y-62000000D01*
X114885389Y-62048037D01*
X114657903Y-62142265D01*
X114453172Y-62279062D01*
X114279062Y-62453172D01*
X114142265Y-62657903D01*
X114048037Y-62885389D01*
X114000000Y-63126886D01*
X89904086Y-63126886D01*
X89974807Y-63021045D01*
X90057727Y-62820858D01*
X90100000Y-62608341D01*
X90100000Y-62391659D01*
X90057727Y-62179142D01*
X89974807Y-61978955D01*
X89916478Y-61891659D01*
X109900000Y-61891659D01*
X109900000Y-62108341D01*
X109942273Y-62320858D01*
X110025193Y-62521045D01*
X110145575Y-62701209D01*
X110298791Y-62854425D01*
X110478955Y-62974807D01*
X110679142Y-63057727D01*
X110891659Y-63100000D01*
X111108341Y-63100000D01*
X111320858Y-63057727D01*
X111521045Y-62974807D01*
X111701209Y-62854425D01*
X111854425Y-62701209D01*
X111974807Y-62521045D01*
X112057727Y-62320858D01*
X112100000Y-62108341D01*
X112100000Y-61891659D01*
X112057727Y-61679142D01*
X111974807Y-61478955D01*
X111854425Y-61298791D01*
X111701209Y-61145575D01*
X111521045Y-61025193D01*
X111320858Y-60942273D01*
X111108341Y-60900000D01*
X110891659Y-60900000D01*
X110679142Y-60942273D01*
X110478955Y-61025193D01*
X110298791Y-61145575D01*
X110145575Y-61298791D01*
X110025193Y-61478955D01*
X109942273Y-61679142D01*
X109900000Y-61891659D01*
X89916478Y-61891659D01*
X89854425Y-61798791D01*
X89701209Y-61645575D01*
X89521045Y-61525193D01*
X89320858Y-61442273D01*
X89108341Y-61400000D01*
X88891659Y-61400000D01*
X88679142Y-61442273D01*
X88478955Y-61525193D01*
X88298791Y-61645575D01*
X88221043Y-61723323D01*
X88104425Y-61548791D01*
X87951209Y-61395575D01*
X87771045Y-61275193D01*
X87570858Y-61192273D01*
X87358341Y-61150000D01*
X87141659Y-61150000D01*
X86929142Y-61192273D01*
X86728955Y-61275193D01*
X86548791Y-61395575D01*
X86395575Y-61548791D01*
X86275193Y-61728955D01*
X86192273Y-61929142D01*
X86150000Y-62141659D01*
X69858011Y-62141659D01*
X69792162Y-61479796D01*
X69573708Y-60762200D01*
X69375651Y-60391659D01*
X93900000Y-60391659D01*
X93900000Y-60608341D01*
X93942273Y-60820858D01*
X94025193Y-61021045D01*
X94145575Y-61201209D01*
X94298791Y-61354425D01*
X94478955Y-61474807D01*
X94679142Y-61557727D01*
X94891659Y-61600000D01*
X95108341Y-61600000D01*
X95320858Y-61557727D01*
X95521045Y-61474807D01*
X95701209Y-61354425D01*
X95854425Y-61201209D01*
X95974807Y-61021045D01*
X96057727Y-60820858D01*
X96100000Y-60608341D01*
X96100000Y-60391659D01*
X96057727Y-60179142D01*
X95974807Y-59978955D01*
X95854425Y-59798791D01*
X95701209Y-59645575D01*
X95521045Y-59525193D01*
X95320858Y-59442273D01*
X95108341Y-59400000D01*
X94891659Y-59400000D01*
X94679142Y-59442273D01*
X94478955Y-59525193D01*
X94298791Y-59645575D01*
X94145575Y-59798791D01*
X94025193Y-59978955D01*
X93942273Y-60179142D01*
X93900000Y-60391659D01*
X69375651Y-60391659D01*
X69223654Y-60107294D01*
X68744822Y-59742967D01*
X66257789Y-62230000D01*
X65822211Y-62230000D01*
X63335178Y-59742967D01*
X62856346Y-60107294D01*
X62773831Y-60262036D01*
X62773428Y-59525178D01*
X63552967Y-59525178D01*
X66040000Y-62012211D01*
X68527033Y-59525178D01*
X68162706Y-59046346D01*
X67500818Y-58693399D01*
X66782792Y-58476363D01*
X66036221Y-58403577D01*
X65289796Y-58477838D01*
X64572200Y-58696292D01*
X63917294Y-59046346D01*
X63552967Y-59525178D01*
X62773428Y-59525178D01*
X62772671Y-58141659D01*
X107900000Y-58141659D01*
X107900000Y-58358341D01*
X107942273Y-58570858D01*
X108025193Y-58771045D01*
X108145575Y-58951209D01*
X108298791Y-59104425D01*
X108478955Y-59224807D01*
X108679142Y-59307727D01*
X108891659Y-59350000D01*
X109108341Y-59350000D01*
X109320858Y-59307727D01*
X109521045Y-59224807D01*
X109701209Y-59104425D01*
X109854425Y-58951209D01*
X109974807Y-58771045D01*
X110034519Y-58626886D01*
X114000000Y-58626886D01*
X114000000Y-58873114D01*
X114048037Y-59114611D01*
X114142265Y-59342097D01*
X114279062Y-59546828D01*
X114453172Y-59720938D01*
X114657903Y-59857735D01*
X114885389Y-59951963D01*
X115126886Y-60000000D01*
X115373114Y-60000000D01*
X115614611Y-59951963D01*
X115842097Y-59857735D01*
X116046828Y-59720938D01*
X116058397Y-59709369D01*
X121008420Y-59709369D01*
X121077638Y-59937427D01*
X121322213Y-60045782D01*
X121583227Y-60104341D01*
X121850650Y-60110853D01*
X122114205Y-60065069D01*
X122363764Y-59968747D01*
X122422362Y-59937427D01*
X122491580Y-59709369D01*
X122307389Y-59525178D01*
X125782967Y-59525178D01*
X128270000Y-62012211D01*
X130757033Y-59525178D01*
X130392706Y-59046346D01*
X129730818Y-58693399D01*
X129012792Y-58476363D01*
X128266221Y-58403577D01*
X127519796Y-58477838D01*
X126802200Y-58696292D01*
X126147294Y-59046346D01*
X125782967Y-59525178D01*
X122307389Y-59525178D01*
X121750000Y-58967789D01*
X121008420Y-59709369D01*
X116058397Y-59709369D01*
X116220938Y-59546828D01*
X116357735Y-59342097D01*
X116451963Y-59114611D01*
X116500000Y-58873114D01*
X116500000Y-58850650D01*
X120389147Y-58850650D01*
X120434931Y-59114205D01*
X120531253Y-59363764D01*
X120562573Y-59422362D01*
X120790631Y-59491580D01*
X121532211Y-58750000D01*
X121967789Y-58750000D01*
X122709369Y-59491580D01*
X122937427Y-59422362D01*
X123045782Y-59177787D01*
X123104341Y-58916773D01*
X123110853Y-58649350D01*
X123065069Y-58385795D01*
X122968747Y-58136236D01*
X122937427Y-58077638D01*
X122709369Y-58008420D01*
X121967789Y-58750000D01*
X121532211Y-58750000D01*
X120790631Y-58008420D01*
X120562573Y-58077638D01*
X120454218Y-58322213D01*
X120395659Y-58583227D01*
X120389147Y-58850650D01*
X116500000Y-58850650D01*
X116500000Y-58626886D01*
X116451963Y-58385389D01*
X116357735Y-58157903D01*
X116220938Y-57953172D01*
X116058397Y-57790631D01*
X121008420Y-57790631D01*
X121750000Y-58532211D01*
X122491580Y-57790631D01*
X122422362Y-57562573D01*
X122177787Y-57454218D01*
X121916773Y-57395659D01*
X121649350Y-57389147D01*
X121385795Y-57434931D01*
X121136236Y-57531253D01*
X121077638Y-57562573D01*
X121008420Y-57790631D01*
X116058397Y-57790631D01*
X116046828Y-57779062D01*
X115842097Y-57642265D01*
X115614611Y-57548037D01*
X115373114Y-57500000D01*
X115126886Y-57500000D01*
X114885389Y-57548037D01*
X114657903Y-57642265D01*
X114453172Y-57779062D01*
X114279062Y-57953172D01*
X114142265Y-58157903D01*
X114048037Y-58385389D01*
X114000000Y-58626886D01*
X110034519Y-58626886D01*
X110057727Y-58570858D01*
X110100000Y-58358341D01*
X110100000Y-58141659D01*
X110057727Y-57929142D01*
X109974807Y-57728955D01*
X109854425Y-57548791D01*
X109701209Y-57395575D01*
X109521045Y-57275193D01*
X109320858Y-57192273D01*
X109108341Y-57150000D01*
X108891659Y-57150000D01*
X108679142Y-57192273D01*
X108478955Y-57275193D01*
X108298791Y-57395575D01*
X108145575Y-57548791D01*
X108025193Y-57728955D01*
X107942273Y-57929142D01*
X107900000Y-58141659D01*
X62772671Y-58141659D01*
X62771303Y-55641659D01*
X80900000Y-55641659D01*
X80900000Y-55858341D01*
X80942273Y-56070858D01*
X81025193Y-56271045D01*
X81145575Y-56451209D01*
X81298791Y-56604425D01*
X81478955Y-56724807D01*
X81679142Y-56807727D01*
X81891659Y-56850000D01*
X82108341Y-56850000D01*
X82320858Y-56807727D01*
X82521045Y-56724807D01*
X82645484Y-56641659D01*
X96900000Y-56641659D01*
X96900000Y-56858341D01*
X96942273Y-57070858D01*
X97025193Y-57271045D01*
X97145575Y-57451209D01*
X97298791Y-57604425D01*
X97478955Y-57724807D01*
X97679142Y-57807727D01*
X97891659Y-57850000D01*
X98108341Y-57850000D01*
X98320858Y-57807727D01*
X98521045Y-57724807D01*
X98701209Y-57604425D01*
X98854425Y-57451209D01*
X98974807Y-57271045D01*
X99057727Y-57070858D01*
X99100000Y-56858341D01*
X99100000Y-56641659D01*
X99057727Y-56429142D01*
X98974807Y-56228955D01*
X98854425Y-56048791D01*
X98701209Y-55895575D01*
X98521045Y-55775193D01*
X98320858Y-55692273D01*
X98108341Y-55650000D01*
X97891659Y-55650000D01*
X97679142Y-55692273D01*
X97478955Y-55775193D01*
X97298791Y-55895575D01*
X97145575Y-56048791D01*
X97025193Y-56228955D01*
X96942273Y-56429142D01*
X96900000Y-56641659D01*
X82645484Y-56641659D01*
X82701209Y-56604425D01*
X82854425Y-56451209D01*
X82974807Y-56271045D01*
X83057727Y-56070858D01*
X83100000Y-55858341D01*
X83100000Y-55641659D01*
X83057727Y-55429142D01*
X82974807Y-55228955D01*
X82854425Y-55048791D01*
X82716992Y-54911358D01*
X112600000Y-54911358D01*
X112600000Y-55088642D01*
X112634586Y-55262520D01*
X112702430Y-55426310D01*
X112800924Y-55573717D01*
X112926283Y-55699076D01*
X113073690Y-55797570D01*
X113237480Y-55865414D01*
X113411358Y-55900000D01*
X113588642Y-55900000D01*
X113762520Y-55865414D01*
X113926310Y-55797570D01*
X114073717Y-55699076D01*
X114199076Y-55573717D01*
X114297570Y-55426310D01*
X114365414Y-55262520D01*
X114400000Y-55088642D01*
X114400000Y-54911358D01*
X114365414Y-54737480D01*
X114297570Y-54573690D01*
X114199076Y-54426283D01*
X114073717Y-54300924D01*
X113926310Y-54202430D01*
X113762520Y-54134586D01*
X113588642Y-54100000D01*
X113411358Y-54100000D01*
X113237480Y-54134586D01*
X113073690Y-54202430D01*
X112926283Y-54300924D01*
X112800924Y-54426283D01*
X112702430Y-54573690D01*
X112634586Y-54737480D01*
X112600000Y-54911358D01*
X82716992Y-54911358D01*
X82701209Y-54895575D01*
X82521045Y-54775193D01*
X82320858Y-54692273D01*
X82108341Y-54650000D01*
X81891659Y-54650000D01*
X81679142Y-54692273D01*
X81478955Y-54775193D01*
X81298791Y-54895575D01*
X81145575Y-55048791D01*
X81025193Y-55228955D01*
X80942273Y-55429142D01*
X80900000Y-55641659D01*
X62771303Y-55641659D01*
X62770071Y-53391659D01*
X66650000Y-53391659D01*
X66650000Y-53608341D01*
X66692273Y-53820858D01*
X66775193Y-54021045D01*
X66895575Y-54201209D01*
X67048791Y-54354425D01*
X67228955Y-54474807D01*
X67429142Y-54557727D01*
X67641659Y-54600000D01*
X67858341Y-54600000D01*
X68070858Y-54557727D01*
X68271045Y-54474807D01*
X68451209Y-54354425D01*
X68604425Y-54201209D01*
X68724807Y-54021045D01*
X68807727Y-53820858D01*
X68850000Y-53608341D01*
X68850000Y-53391659D01*
X72900000Y-53391659D01*
X72900000Y-53608341D01*
X72942273Y-53820858D01*
X73025193Y-54021045D01*
X73145575Y-54201209D01*
X73298791Y-54354425D01*
X73478955Y-54474807D01*
X73679142Y-54557727D01*
X73891659Y-54600000D01*
X74108341Y-54600000D01*
X74320858Y-54557727D01*
X74521045Y-54474807D01*
X74701209Y-54354425D01*
X74854425Y-54201209D01*
X74974807Y-54021045D01*
X75057727Y-53820858D01*
X75100000Y-53608341D01*
X75100000Y-53391659D01*
X75057727Y-53179142D01*
X74974807Y-52978955D01*
X74854425Y-52798791D01*
X74701209Y-52645575D01*
X74521045Y-52525193D01*
X74320858Y-52442273D01*
X74108341Y-52400000D01*
X73891659Y-52400000D01*
X73679142Y-52442273D01*
X73478955Y-52525193D01*
X73298791Y-52645575D01*
X73145575Y-52798791D01*
X73025193Y-52978955D01*
X72942273Y-53179142D01*
X72900000Y-53391659D01*
X68850000Y-53391659D01*
X68807727Y-53179142D01*
X68724807Y-52978955D01*
X68604425Y-52798791D01*
X68451209Y-52645575D01*
X68271045Y-52525193D01*
X68070858Y-52442273D01*
X67858341Y-52400000D01*
X67641659Y-52400000D01*
X67429142Y-52442273D01*
X67228955Y-52525193D01*
X67048791Y-52645575D01*
X66895575Y-52798791D01*
X66775193Y-52978955D01*
X66692273Y-53179142D01*
X66650000Y-53391659D01*
X62770071Y-53391659D01*
X62767471Y-48641659D01*
X73900000Y-48641659D01*
X73900000Y-48858341D01*
X73942273Y-49070858D01*
X74025193Y-49271045D01*
X74145575Y-49451209D01*
X74298791Y-49604425D01*
X74478955Y-49724807D01*
X74679142Y-49807727D01*
X74891659Y-49850000D01*
X75108341Y-49850000D01*
X75320858Y-49807727D01*
X75521045Y-49724807D01*
X75701209Y-49604425D01*
X75854425Y-49451209D01*
X75974807Y-49271045D01*
X76057727Y-49070858D01*
X76100000Y-48858341D01*
X76100000Y-48641659D01*
X76057727Y-48429142D01*
X75974807Y-48228955D01*
X75854425Y-48048791D01*
X75805634Y-48000000D01*
X88150000Y-48000000D01*
X88150000Y-54000000D01*
X88151921Y-54019509D01*
X88157612Y-54038268D01*
X88166853Y-54055557D01*
X88179289Y-54070711D01*
X88194443Y-54083147D01*
X88211732Y-54092388D01*
X88230491Y-54098079D01*
X88250000Y-54100000D01*
X94250000Y-54100000D01*
X94269509Y-54098079D01*
X94288268Y-54092388D01*
X94305557Y-54083147D01*
X94320711Y-54070711D01*
X94333147Y-54055557D01*
X94342388Y-54038268D01*
X94348079Y-54019509D01*
X94349997Y-53999286D01*
X94342086Y-52891659D01*
X97150000Y-52891659D01*
X97150000Y-53108341D01*
X97192273Y-53320858D01*
X97275193Y-53521045D01*
X97395575Y-53701209D01*
X97548791Y-53854425D01*
X97728955Y-53974807D01*
X97929142Y-54057727D01*
X98141659Y-54100000D01*
X98358341Y-54100000D01*
X98570858Y-54057727D01*
X98771045Y-53974807D01*
X98951209Y-53854425D01*
X99104425Y-53701209D01*
X99224807Y-53521045D01*
X99275396Y-53398910D01*
X128092097Y-53398910D01*
X128118854Y-53487139D01*
X128236527Y-53747611D01*
X128402754Y-53980122D01*
X128611148Y-54175736D01*
X128853700Y-54326935D01*
X129121089Y-54427909D01*
X129346000Y-54317850D01*
X129346000Y-53174000D01*
X129654000Y-53174000D01*
X129654000Y-54317850D01*
X129878911Y-54427909D01*
X130146300Y-54326935D01*
X130388852Y-54175736D01*
X130597246Y-53980122D01*
X130763473Y-53747611D01*
X130881146Y-53487139D01*
X130907903Y-53398910D01*
X130796889Y-53174000D01*
X129654000Y-53174000D01*
X129346000Y-53174000D01*
X128203111Y-53174000D01*
X128092097Y-53398910D01*
X99275396Y-53398910D01*
X99307727Y-53320858D01*
X99350000Y-53108341D01*
X99350000Y-52891659D01*
X99307727Y-52679142D01*
X99291966Y-52641090D01*
X128092097Y-52641090D01*
X128203111Y-52866000D01*
X129346000Y-52866000D01*
X129346000Y-52846000D01*
X129654000Y-52846000D01*
X129654000Y-52866000D01*
X130796889Y-52866000D01*
X130907903Y-52641090D01*
X130881146Y-52552861D01*
X130763473Y-52292389D01*
X130597246Y-52059878D01*
X130388852Y-51864264D01*
X130146300Y-51713065D01*
X130093928Y-51693288D01*
X130253649Y-51607915D01*
X130459213Y-51439213D01*
X130627915Y-51233649D01*
X130753272Y-50999122D01*
X130830467Y-50744646D01*
X130856532Y-50480000D01*
X130830467Y-50215354D01*
X130753272Y-49960878D01*
X130627915Y-49726351D01*
X130459213Y-49520787D01*
X130253649Y-49352085D01*
X130019122Y-49226728D01*
X129963978Y-49210000D01*
X130019122Y-49193272D01*
X130253649Y-49067915D01*
X130459213Y-48899213D01*
X130627915Y-48693649D01*
X130753272Y-48459122D01*
X130830467Y-48204646D01*
X130856532Y-47940000D01*
X130830467Y-47675354D01*
X130753272Y-47420878D01*
X130627915Y-47186351D01*
X130459213Y-46980787D01*
X130253649Y-46812085D01*
X130142022Y-46752419D01*
X130350000Y-46752419D01*
X130448017Y-46742765D01*
X130542267Y-46714175D01*
X130629129Y-46667746D01*
X130705264Y-46605264D01*
X130767746Y-46529129D01*
X130814175Y-46442267D01*
X130842765Y-46348017D01*
X130852419Y-46250000D01*
X130852419Y-44550000D01*
X130842765Y-44451983D01*
X130814175Y-44357733D01*
X130767746Y-44270871D01*
X130705264Y-44194736D01*
X130629129Y-44132254D01*
X130542267Y-44085825D01*
X130448017Y-44057235D01*
X130350000Y-44047581D01*
X128650000Y-44047581D01*
X128551983Y-44057235D01*
X128457733Y-44085825D01*
X128370871Y-44132254D01*
X128294736Y-44194736D01*
X128232254Y-44270871D01*
X128185825Y-44357733D01*
X128157235Y-44451983D01*
X128147581Y-44550000D01*
X128147581Y-46250000D01*
X128157235Y-46348017D01*
X128185825Y-46442267D01*
X128232254Y-46529129D01*
X128294736Y-46605264D01*
X128370871Y-46667746D01*
X128457733Y-46714175D01*
X128551983Y-46742765D01*
X128650000Y-46752419D01*
X128857978Y-46752419D01*
X128746351Y-46812085D01*
X128540787Y-46980787D01*
X128372085Y-47186351D01*
X128246728Y-47420878D01*
X128169533Y-47675354D01*
X128143468Y-47940000D01*
X128169533Y-48204646D01*
X128246728Y-48459122D01*
X128372085Y-48693649D01*
X128540787Y-48899213D01*
X128746351Y-49067915D01*
X128980878Y-49193272D01*
X129036022Y-49210000D01*
X128980878Y-49226728D01*
X128746351Y-49352085D01*
X128540787Y-49520787D01*
X128372085Y-49726351D01*
X128246728Y-49960878D01*
X128169533Y-50215354D01*
X128143468Y-50480000D01*
X128169533Y-50744646D01*
X128246728Y-50999122D01*
X128372085Y-51233649D01*
X128540787Y-51439213D01*
X128746351Y-51607915D01*
X128906072Y-51693288D01*
X128853700Y-51713065D01*
X128611148Y-51864264D01*
X128402754Y-52059878D01*
X128236527Y-52292389D01*
X128118854Y-52552861D01*
X128092097Y-52641090D01*
X99291966Y-52641090D01*
X99224807Y-52478955D01*
X99138179Y-52349308D01*
X99141659Y-52350000D01*
X99358341Y-52350000D01*
X99570858Y-52307727D01*
X99771045Y-52224807D01*
X99951209Y-52104425D01*
X100104425Y-51951209D01*
X100224807Y-51771045D01*
X100307727Y-51570858D01*
X100350000Y-51358341D01*
X100350000Y-51161358D01*
X107350000Y-51161358D01*
X107350000Y-51338642D01*
X107384586Y-51512520D01*
X107452430Y-51676310D01*
X107550924Y-51823717D01*
X107676283Y-51949076D01*
X107823690Y-52047570D01*
X107987480Y-52115414D01*
X108161358Y-52150000D01*
X108338642Y-52150000D01*
X108512520Y-52115414D01*
X108676310Y-52047570D01*
X108823717Y-51949076D01*
X108949076Y-51823717D01*
X109047570Y-51676310D01*
X109115414Y-51512520D01*
X109150000Y-51338642D01*
X109150000Y-51161358D01*
X109115414Y-50987480D01*
X109047570Y-50823690D01*
X108949076Y-50676283D01*
X108934151Y-50661358D01*
X112350000Y-50661358D01*
X112350000Y-50838642D01*
X112384586Y-51012520D01*
X112452430Y-51176310D01*
X112550924Y-51323717D01*
X112676283Y-51449076D01*
X112823690Y-51547570D01*
X112987480Y-51615414D01*
X113161358Y-51650000D01*
X113338642Y-51650000D01*
X113512520Y-51615414D01*
X113676310Y-51547570D01*
X113823717Y-51449076D01*
X113949076Y-51323717D01*
X114047570Y-51176310D01*
X114115414Y-51012520D01*
X114150000Y-50838642D01*
X114150000Y-50661358D01*
X114146082Y-50641659D01*
X125400000Y-50641659D01*
X125400000Y-50858341D01*
X125442273Y-51070858D01*
X125525193Y-51271045D01*
X125645575Y-51451209D01*
X125798791Y-51604425D01*
X125978955Y-51724807D01*
X126179142Y-51807727D01*
X126391659Y-51850000D01*
X126608341Y-51850000D01*
X126820858Y-51807727D01*
X127021045Y-51724807D01*
X127201209Y-51604425D01*
X127354425Y-51451209D01*
X127474807Y-51271045D01*
X127557727Y-51070858D01*
X127600000Y-50858341D01*
X127600000Y-50641659D01*
X127557727Y-50429142D01*
X127474807Y-50228955D01*
X127354425Y-50048791D01*
X127201209Y-49895575D01*
X127021045Y-49775193D01*
X126820858Y-49692273D01*
X126608341Y-49650000D01*
X126391659Y-49650000D01*
X126179142Y-49692273D01*
X125978955Y-49775193D01*
X125798791Y-49895575D01*
X125645575Y-50048791D01*
X125525193Y-50228955D01*
X125442273Y-50429142D01*
X125400000Y-50641659D01*
X114146082Y-50641659D01*
X114115414Y-50487480D01*
X114047570Y-50323690D01*
X113949076Y-50176283D01*
X113823717Y-50050924D01*
X113676310Y-49952430D01*
X113512520Y-49884586D01*
X113338642Y-49850000D01*
X113161358Y-49850000D01*
X112987480Y-49884586D01*
X112823690Y-49952430D01*
X112676283Y-50050924D01*
X112550924Y-50176283D01*
X112452430Y-50323690D01*
X112384586Y-50487480D01*
X112350000Y-50661358D01*
X108934151Y-50661358D01*
X108823717Y-50550924D01*
X108676310Y-50452430D01*
X108512520Y-50384586D01*
X108338642Y-50350000D01*
X108161358Y-50350000D01*
X107987480Y-50384586D01*
X107823690Y-50452430D01*
X107676283Y-50550924D01*
X107550924Y-50676283D01*
X107452430Y-50823690D01*
X107384586Y-50987480D01*
X107350000Y-51161358D01*
X100350000Y-51161358D01*
X100350000Y-51141659D01*
X100307727Y-50929142D01*
X100224807Y-50728955D01*
X100104425Y-50548791D01*
X99951209Y-50395575D01*
X99771045Y-50275193D01*
X99570858Y-50192273D01*
X99358341Y-50150000D01*
X99141659Y-50150000D01*
X98929142Y-50192273D01*
X98728955Y-50275193D01*
X98548791Y-50395575D01*
X98395575Y-50548791D01*
X98275193Y-50728955D01*
X98192273Y-50929142D01*
X98150000Y-51141659D01*
X98150000Y-51358341D01*
X98192273Y-51570858D01*
X98275193Y-51771045D01*
X98361821Y-51900692D01*
X98358341Y-51900000D01*
X98141659Y-51900000D01*
X97929142Y-51942273D01*
X97728955Y-52025193D01*
X97548791Y-52145575D01*
X97395575Y-52298791D01*
X97275193Y-52478955D01*
X97192273Y-52679142D01*
X97150000Y-52891659D01*
X94342086Y-52891659D01*
X94340716Y-52700000D01*
X96750000Y-52700000D01*
X96769509Y-52698079D01*
X96788268Y-52692388D01*
X96805557Y-52683147D01*
X96820711Y-52670711D01*
X96833147Y-52655557D01*
X96842388Y-52638268D01*
X96848079Y-52619509D01*
X96849996Y-52599091D01*
X96839996Y-51499091D01*
X96837897Y-51479600D01*
X96832036Y-51460893D01*
X96822638Y-51443689D01*
X96810065Y-51428649D01*
X96794799Y-51416351D01*
X96777427Y-51407268D01*
X96758617Y-51401748D01*
X96740000Y-51400000D01*
X94359715Y-51400000D01*
X94350000Y-47999714D01*
X94348022Y-47980211D01*
X94342278Y-47961468D01*
X94332988Y-47944206D01*
X94320508Y-47929088D01*
X94305319Y-47916695D01*
X94288004Y-47907503D01*
X94269229Y-47901866D01*
X94250000Y-47900000D01*
X88250000Y-47900000D01*
X88230491Y-47901921D01*
X88211732Y-47907612D01*
X88194443Y-47916853D01*
X88179289Y-47929289D01*
X88166853Y-47944443D01*
X88157612Y-47961732D01*
X88151921Y-47980491D01*
X88150000Y-48000000D01*
X75805634Y-48000000D01*
X75701209Y-47895575D01*
X75521045Y-47775193D01*
X75320858Y-47692273D01*
X75108341Y-47650000D01*
X74891659Y-47650000D01*
X74679142Y-47692273D01*
X74478955Y-47775193D01*
X74298791Y-47895575D01*
X74145575Y-48048791D01*
X74025193Y-48228955D01*
X73942273Y-48429142D01*
X73900000Y-48641659D01*
X62767471Y-48641659D01*
X62765966Y-45891659D01*
X90900000Y-45891659D01*
X90900000Y-46108341D01*
X90942273Y-46320858D01*
X91025193Y-46521045D01*
X91145575Y-46701209D01*
X91298791Y-46854425D01*
X91478955Y-46974807D01*
X91679142Y-47057727D01*
X91891659Y-47100000D01*
X92108341Y-47100000D01*
X92320858Y-47057727D01*
X92521045Y-46974807D01*
X92701209Y-46854425D01*
X92854425Y-46701209D01*
X92881052Y-46661358D01*
X104850000Y-46661358D01*
X104850000Y-46838642D01*
X104884586Y-47012520D01*
X104952430Y-47176310D01*
X105050924Y-47323717D01*
X105176283Y-47449076D01*
X105323690Y-47547570D01*
X105487480Y-47615414D01*
X105661358Y-47650000D01*
X105704344Y-47650000D01*
X105692273Y-47679142D01*
X105650000Y-47891659D01*
X105650000Y-48108341D01*
X105692273Y-48320858D01*
X105775193Y-48521045D01*
X105895575Y-48701209D01*
X106048791Y-48854425D01*
X106228955Y-48974807D01*
X106429142Y-49057727D01*
X106641659Y-49100000D01*
X106858341Y-49100000D01*
X107070858Y-49057727D01*
X107271045Y-48974807D01*
X107451209Y-48854425D01*
X107604425Y-48701209D01*
X107724807Y-48521045D01*
X107770240Y-48411358D01*
X112600000Y-48411358D01*
X112600000Y-48588642D01*
X112634586Y-48762520D01*
X112702430Y-48926310D01*
X112800924Y-49073717D01*
X112926283Y-49199076D01*
X113073690Y-49297570D01*
X113237480Y-49365414D01*
X113411358Y-49400000D01*
X113588642Y-49400000D01*
X113762520Y-49365414D01*
X113926310Y-49297570D01*
X114073717Y-49199076D01*
X114199076Y-49073717D01*
X114297570Y-48926310D01*
X114365414Y-48762520D01*
X114400000Y-48588642D01*
X114400000Y-48411358D01*
X114365414Y-48237480D01*
X114297570Y-48073690D01*
X114199076Y-47926283D01*
X114073717Y-47800924D01*
X113926310Y-47702430D01*
X113762520Y-47634586D01*
X113588642Y-47600000D01*
X113411358Y-47600000D01*
X113237480Y-47634586D01*
X113073690Y-47702430D01*
X112926283Y-47800924D01*
X112800924Y-47926283D01*
X112702430Y-48073690D01*
X112634586Y-48237480D01*
X112600000Y-48411358D01*
X107770240Y-48411358D01*
X107807727Y-48320858D01*
X107850000Y-48108341D01*
X107850000Y-47891659D01*
X107807727Y-47679142D01*
X107724807Y-47478955D01*
X107604425Y-47298791D01*
X107451209Y-47145575D01*
X107271045Y-47025193D01*
X107070858Y-46942273D01*
X106858341Y-46900000D01*
X106641659Y-46900000D01*
X106637636Y-46900800D01*
X106650000Y-46838642D01*
X106650000Y-46661358D01*
X106615414Y-46487480D01*
X106547570Y-46323690D01*
X106449076Y-46176283D01*
X106323717Y-46050924D01*
X106176310Y-45952430D01*
X106012520Y-45884586D01*
X105838642Y-45850000D01*
X105661358Y-45850000D01*
X105487480Y-45884586D01*
X105323690Y-45952430D01*
X105176283Y-46050924D01*
X105050924Y-46176283D01*
X104952430Y-46323690D01*
X104884586Y-46487480D01*
X104850000Y-46661358D01*
X92881052Y-46661358D01*
X92974807Y-46521045D01*
X93057727Y-46320858D01*
X93100000Y-46108341D01*
X93100000Y-45891659D01*
X93057727Y-45679142D01*
X92974807Y-45478955D01*
X92854425Y-45298791D01*
X92701209Y-45145575D01*
X92521045Y-45025193D01*
X92320858Y-44942273D01*
X92108341Y-44900000D01*
X91891659Y-44900000D01*
X91679142Y-44942273D01*
X91478955Y-45025193D01*
X91298791Y-45145575D01*
X91145575Y-45298791D01*
X91025193Y-45478955D01*
X90942273Y-45679142D01*
X90900000Y-45891659D01*
X62765966Y-45891659D01*
X62764323Y-42891659D01*
X64400000Y-42891659D01*
X64400000Y-43108341D01*
X64442273Y-43320858D01*
X64525193Y-43521045D01*
X64645575Y-43701209D01*
X64798791Y-43854425D01*
X64978955Y-43974807D01*
X65179142Y-44057727D01*
X65391659Y-44100000D01*
X65608341Y-44100000D01*
X65820858Y-44057727D01*
X66021045Y-43974807D01*
X66145484Y-43891659D01*
X71400000Y-43891659D01*
X71400000Y-44108341D01*
X71442273Y-44320858D01*
X71525193Y-44521045D01*
X71645575Y-44701209D01*
X71798791Y-44854425D01*
X71978955Y-44974807D01*
X72179142Y-45057727D01*
X72391659Y-45100000D01*
X72608341Y-45100000D01*
X72820858Y-45057727D01*
X73021045Y-44974807D01*
X73201209Y-44854425D01*
X73354425Y-44701209D01*
X73474807Y-44521045D01*
X73557727Y-44320858D01*
X73600000Y-44108341D01*
X73600000Y-43891659D01*
X73557727Y-43679142D01*
X73550361Y-43661358D01*
X110100000Y-43661358D01*
X110100000Y-43838642D01*
X110134586Y-44012520D01*
X110202430Y-44176310D01*
X110300924Y-44323717D01*
X110426283Y-44449076D01*
X110502496Y-44500000D01*
X110426283Y-44550924D01*
X110300924Y-44676283D01*
X110202430Y-44823690D01*
X110134586Y-44987480D01*
X110100000Y-45161358D01*
X110100000Y-45338642D01*
X110134586Y-45512520D01*
X110202430Y-45676310D01*
X110300924Y-45823717D01*
X110426283Y-45949076D01*
X110573690Y-46047570D01*
X110737480Y-46115414D01*
X110911358Y-46150000D01*
X111088642Y-46150000D01*
X111262520Y-46115414D01*
X111426310Y-46047570D01*
X111573717Y-45949076D01*
X111699076Y-45823717D01*
X111749617Y-45748076D01*
X111823690Y-45797570D01*
X111987480Y-45865414D01*
X112161358Y-45900000D01*
X112338642Y-45900000D01*
X112512520Y-45865414D01*
X112676310Y-45797570D01*
X112823717Y-45699076D01*
X112949076Y-45573717D01*
X113047570Y-45426310D01*
X113115414Y-45262520D01*
X113150000Y-45088642D01*
X113150000Y-44911358D01*
X113115414Y-44737480D01*
X113047570Y-44573690D01*
X112949076Y-44426283D01*
X112914452Y-44391659D01*
X113650000Y-44391659D01*
X113650000Y-44608341D01*
X113692273Y-44820858D01*
X113775193Y-45021045D01*
X113895575Y-45201209D01*
X114048791Y-45354425D01*
X114228955Y-45474807D01*
X114429142Y-45557727D01*
X114641659Y-45600000D01*
X114858341Y-45600000D01*
X115070858Y-45557727D01*
X115271045Y-45474807D01*
X115451209Y-45354425D01*
X115604425Y-45201209D01*
X115724807Y-45021045D01*
X115807727Y-44820858D01*
X115850000Y-44608341D01*
X115850000Y-44391659D01*
X115807727Y-44179142D01*
X115724807Y-43978955D01*
X115604425Y-43798791D01*
X115451209Y-43645575D01*
X115271045Y-43525193D01*
X115070858Y-43442273D01*
X114858341Y-43400000D01*
X114641659Y-43400000D01*
X114429142Y-43442273D01*
X114228955Y-43525193D01*
X114048791Y-43645575D01*
X113895575Y-43798791D01*
X113775193Y-43978955D01*
X113692273Y-44179142D01*
X113650000Y-44391659D01*
X112914452Y-44391659D01*
X112823717Y-44300924D01*
X112676310Y-44202430D01*
X112512520Y-44134586D01*
X112338642Y-44100000D01*
X112161358Y-44100000D01*
X111987480Y-44134586D01*
X111823690Y-44202430D01*
X111744973Y-44255027D01*
X111797570Y-44176310D01*
X111865414Y-44012520D01*
X111900000Y-43838642D01*
X111900000Y-43661358D01*
X111865414Y-43487480D01*
X111797570Y-43323690D01*
X111699076Y-43176283D01*
X111573717Y-43050924D01*
X111426310Y-42952430D01*
X111262520Y-42884586D01*
X111088642Y-42850000D01*
X110911358Y-42850000D01*
X110737480Y-42884586D01*
X110573690Y-42952430D01*
X110426283Y-43050924D01*
X110300924Y-43176283D01*
X110202430Y-43323690D01*
X110134586Y-43487480D01*
X110100000Y-43661358D01*
X73550361Y-43661358D01*
X73474807Y-43478955D01*
X73354425Y-43298791D01*
X73201209Y-43145575D01*
X73021045Y-43025193D01*
X72820858Y-42942273D01*
X72608341Y-42900000D01*
X72391659Y-42900000D01*
X72179142Y-42942273D01*
X71978955Y-43025193D01*
X71798791Y-43145575D01*
X71645575Y-43298791D01*
X71525193Y-43478955D01*
X71442273Y-43679142D01*
X71400000Y-43891659D01*
X66145484Y-43891659D01*
X66201209Y-43854425D01*
X66354425Y-43701209D01*
X66474807Y-43521045D01*
X66557727Y-43320858D01*
X66600000Y-43108341D01*
X66600000Y-42891659D01*
X66557727Y-42679142D01*
X66474807Y-42478955D01*
X66354425Y-42298791D01*
X66201209Y-42145575D01*
X66021045Y-42025193D01*
X65820858Y-41942273D01*
X65608341Y-41900000D01*
X65391659Y-41900000D01*
X65179142Y-41942273D01*
X64978955Y-42025193D01*
X64798791Y-42145575D01*
X64645575Y-42298791D01*
X64525193Y-42478955D01*
X64442273Y-42679142D01*
X64400000Y-42891659D01*
X62764323Y-42891659D01*
X62763829Y-41989252D01*
X62929142Y-42057727D01*
X63141659Y-42100000D01*
X63358341Y-42100000D01*
X63570858Y-42057727D01*
X63771045Y-41974807D01*
X63951209Y-41854425D01*
X64104425Y-41701209D01*
X64224807Y-41521045D01*
X64307727Y-41320858D01*
X64350000Y-41108341D01*
X64350000Y-40891659D01*
X64307727Y-40679142D01*
X64224807Y-40478955D01*
X64104425Y-40298791D01*
X63951209Y-40145575D01*
X63771045Y-40025193D01*
X63570858Y-39942273D01*
X63358341Y-39900000D01*
X63141659Y-39900000D01*
X62929142Y-39942273D01*
X62762746Y-40011196D01*
X62762271Y-39141659D01*
X67400000Y-39141659D01*
X67400000Y-39358341D01*
X67442273Y-39570858D01*
X67525193Y-39771045D01*
X67645575Y-39951209D01*
X67798791Y-40104425D01*
X67978955Y-40224807D01*
X68179142Y-40307727D01*
X68391659Y-40350000D01*
X68608341Y-40350000D01*
X68820858Y-40307727D01*
X69021045Y-40224807D01*
X69201209Y-40104425D01*
X69354425Y-39951209D01*
X69474807Y-39771045D01*
X69557727Y-39570858D01*
X69600000Y-39358341D01*
X69600000Y-39141659D01*
X74900000Y-39141659D01*
X74900000Y-39358341D01*
X74942273Y-39570858D01*
X75025193Y-39771045D01*
X75145575Y-39951209D01*
X75298791Y-40104425D01*
X75478955Y-40224807D01*
X75679142Y-40307727D01*
X75891659Y-40350000D01*
X76108341Y-40350000D01*
X76320858Y-40307727D01*
X76521045Y-40224807D01*
X76701209Y-40104425D01*
X76854425Y-39951209D01*
X76974807Y-39771045D01*
X77057727Y-39570858D01*
X77100000Y-39358341D01*
X77100000Y-39141659D01*
X77057727Y-38929142D01*
X77042202Y-38891659D01*
X79650000Y-38891659D01*
X79650000Y-39108341D01*
X79692273Y-39320858D01*
X79775193Y-39521045D01*
X79895575Y-39701209D01*
X80048791Y-39854425D01*
X80228955Y-39974807D01*
X80429142Y-40057727D01*
X80613326Y-40094364D01*
X80600000Y-40161358D01*
X80600000Y-40338642D01*
X80634586Y-40512520D01*
X80702430Y-40676310D01*
X80800924Y-40823717D01*
X80926283Y-40949076D01*
X81073690Y-41047570D01*
X81237480Y-41115414D01*
X81411358Y-41150000D01*
X81588642Y-41150000D01*
X81714733Y-41124919D01*
X81692273Y-41179142D01*
X81650000Y-41391659D01*
X81650000Y-41608341D01*
X81692273Y-41820858D01*
X81775193Y-42021045D01*
X81895575Y-42201209D01*
X82048791Y-42354425D01*
X82228955Y-42474807D01*
X82429142Y-42557727D01*
X82641659Y-42600000D01*
X82858341Y-42600000D01*
X83070858Y-42557727D01*
X83271045Y-42474807D01*
X83451209Y-42354425D01*
X83604425Y-42201209D01*
X83724807Y-42021045D01*
X83807727Y-41820858D01*
X83850000Y-41608341D01*
X83850000Y-41391659D01*
X83807727Y-41179142D01*
X83724807Y-40978955D01*
X83604425Y-40798791D01*
X83451209Y-40645575D01*
X83271045Y-40525193D01*
X83070858Y-40442273D01*
X82858341Y-40400000D01*
X82641659Y-40400000D01*
X82429142Y-40442273D01*
X82374919Y-40464733D01*
X82400000Y-40338642D01*
X82400000Y-40161358D01*
X82365414Y-39987480D01*
X82297570Y-39823690D01*
X82199076Y-39676283D01*
X82073717Y-39550924D01*
X81926310Y-39452430D01*
X81778575Y-39391236D01*
X81807727Y-39320858D01*
X81839454Y-39161358D01*
X87350000Y-39161358D01*
X87350000Y-39338642D01*
X87384586Y-39512520D01*
X87452430Y-39676310D01*
X87550924Y-39823717D01*
X87676283Y-39949076D01*
X87823690Y-40047570D01*
X87987480Y-40115414D01*
X88161358Y-40150000D01*
X88338642Y-40150000D01*
X88512520Y-40115414D01*
X88676310Y-40047570D01*
X88823717Y-39949076D01*
X88949076Y-39823717D01*
X89047570Y-39676310D01*
X89061922Y-39641659D01*
X95900000Y-39641659D01*
X95900000Y-39858341D01*
X95942273Y-40070858D01*
X96025193Y-40271045D01*
X96145575Y-40451209D01*
X96194366Y-40500000D01*
X96145575Y-40548791D01*
X96025193Y-40728955D01*
X95942273Y-40929142D01*
X95900000Y-41141659D01*
X95900000Y-41358341D01*
X95942273Y-41570858D01*
X96025193Y-41771045D01*
X96145575Y-41951209D01*
X96298791Y-42104425D01*
X96478955Y-42224807D01*
X96679142Y-42307727D01*
X96891659Y-42350000D01*
X97108341Y-42350000D01*
X97320858Y-42307727D01*
X97521045Y-42224807D01*
X97701209Y-42104425D01*
X97854425Y-41951209D01*
X97974807Y-41771045D01*
X98020240Y-41661358D01*
X108350000Y-41661358D01*
X108350000Y-41838642D01*
X108384586Y-42012520D01*
X108452430Y-42176310D01*
X108550924Y-42323717D01*
X108676283Y-42449076D01*
X108823690Y-42547570D01*
X108987480Y-42615414D01*
X109161358Y-42650000D01*
X109338642Y-42650000D01*
X109512520Y-42615414D01*
X109676310Y-42547570D01*
X109823717Y-42449076D01*
X109949076Y-42323717D01*
X110047570Y-42176310D01*
X110115414Y-42012520D01*
X110150000Y-41838642D01*
X110150000Y-41661358D01*
X110115414Y-41487480D01*
X110047570Y-41323690D01*
X109949076Y-41176283D01*
X109823717Y-41050924D01*
X109676310Y-40952430D01*
X109512520Y-40884586D01*
X109338642Y-40850000D01*
X109161358Y-40850000D01*
X108987480Y-40884586D01*
X108823690Y-40952430D01*
X108676283Y-41050924D01*
X108550924Y-41176283D01*
X108452430Y-41323690D01*
X108384586Y-41487480D01*
X108350000Y-41661358D01*
X98020240Y-41661358D01*
X98057727Y-41570858D01*
X98100000Y-41358341D01*
X98100000Y-41141659D01*
X98057727Y-40929142D01*
X97974807Y-40728955D01*
X97854425Y-40548791D01*
X97805634Y-40500000D01*
X97854425Y-40451209D01*
X97974807Y-40271045D01*
X98057727Y-40070858D01*
X98100000Y-39858341D01*
X98100000Y-39641659D01*
X98057727Y-39429142D01*
X97974807Y-39228955D01*
X97854425Y-39048791D01*
X97701209Y-38895575D01*
X97521045Y-38775193D01*
X97320858Y-38692273D01*
X97108341Y-38650000D01*
X96891659Y-38650000D01*
X96679142Y-38692273D01*
X96478955Y-38775193D01*
X96298791Y-38895575D01*
X96145575Y-39048791D01*
X96025193Y-39228955D01*
X95942273Y-39429142D01*
X95900000Y-39641659D01*
X89061922Y-39641659D01*
X89115414Y-39512520D01*
X89150000Y-39338642D01*
X89150000Y-39161358D01*
X89115414Y-38987480D01*
X89047570Y-38823690D01*
X88949076Y-38676283D01*
X88823717Y-38550924D01*
X88676310Y-38452430D01*
X88529596Y-38391659D01*
X100150000Y-38391659D01*
X100150000Y-38608341D01*
X100192273Y-38820858D01*
X100275193Y-39021045D01*
X100395575Y-39201209D01*
X100548791Y-39354425D01*
X100728955Y-39474807D01*
X100929142Y-39557727D01*
X101141659Y-39600000D01*
X101358341Y-39600000D01*
X101570858Y-39557727D01*
X101771045Y-39474807D01*
X101866002Y-39411358D01*
X107100000Y-39411358D01*
X107100000Y-39588642D01*
X107134586Y-39762520D01*
X107202430Y-39926310D01*
X107300924Y-40073717D01*
X107426283Y-40199076D01*
X107573690Y-40297570D01*
X107737480Y-40365414D01*
X107911358Y-40400000D01*
X108088642Y-40400000D01*
X108262520Y-40365414D01*
X108426310Y-40297570D01*
X108500000Y-40248332D01*
X108573690Y-40297570D01*
X108737480Y-40365414D01*
X108911358Y-40400000D01*
X109088642Y-40400000D01*
X109262520Y-40365414D01*
X109426310Y-40297570D01*
X109573717Y-40199076D01*
X109699076Y-40073717D01*
X109797570Y-39926310D01*
X109865414Y-39762520D01*
X109900000Y-39588642D01*
X109900000Y-39411358D01*
X109865414Y-39237480D01*
X109797570Y-39073690D01*
X109699076Y-38926283D01*
X109573717Y-38800924D01*
X109426310Y-38702430D01*
X109262520Y-38634586D01*
X109088642Y-38600000D01*
X108911358Y-38600000D01*
X108737480Y-38634586D01*
X108573690Y-38702430D01*
X108500000Y-38751668D01*
X108426310Y-38702430D01*
X108262520Y-38634586D01*
X108088642Y-38600000D01*
X107911358Y-38600000D01*
X107737480Y-38634586D01*
X107573690Y-38702430D01*
X107426283Y-38800924D01*
X107300924Y-38926283D01*
X107202430Y-39073690D01*
X107134586Y-39237480D01*
X107100000Y-39411358D01*
X101866002Y-39411358D01*
X101951209Y-39354425D01*
X102104425Y-39201209D01*
X102224807Y-39021045D01*
X102307727Y-38820858D01*
X102350000Y-38608341D01*
X102350000Y-38391659D01*
X102307727Y-38179142D01*
X102224807Y-37978955D01*
X102104425Y-37798791D01*
X101951209Y-37645575D01*
X101771045Y-37525193D01*
X101570858Y-37442273D01*
X101358341Y-37400000D01*
X101141659Y-37400000D01*
X100929142Y-37442273D01*
X100728955Y-37525193D01*
X100548791Y-37645575D01*
X100395575Y-37798791D01*
X100275193Y-37978955D01*
X100192273Y-38179142D01*
X100150000Y-38391659D01*
X88529596Y-38391659D01*
X88512520Y-38384586D01*
X88338642Y-38350000D01*
X88161358Y-38350000D01*
X87987480Y-38384586D01*
X87823690Y-38452430D01*
X87676283Y-38550924D01*
X87550924Y-38676283D01*
X87452430Y-38823690D01*
X87384586Y-38987480D01*
X87350000Y-39161358D01*
X81839454Y-39161358D01*
X81850000Y-39108341D01*
X81850000Y-38891659D01*
X81807727Y-38679142D01*
X81724807Y-38478955D01*
X81604425Y-38298791D01*
X81451209Y-38145575D01*
X81271045Y-38025193D01*
X81070858Y-37942273D01*
X80858341Y-37900000D01*
X80641659Y-37900000D01*
X80429142Y-37942273D01*
X80228955Y-38025193D01*
X80048791Y-38145575D01*
X79895575Y-38298791D01*
X79775193Y-38478955D01*
X79692273Y-38679142D01*
X79650000Y-38891659D01*
X77042202Y-38891659D01*
X76974807Y-38728955D01*
X76854425Y-38548791D01*
X76701209Y-38395575D01*
X76521045Y-38275193D01*
X76320858Y-38192273D01*
X76108341Y-38150000D01*
X75891659Y-38150000D01*
X75679142Y-38192273D01*
X75478955Y-38275193D01*
X75298791Y-38395575D01*
X75145575Y-38548791D01*
X75025193Y-38728955D01*
X74942273Y-38929142D01*
X74900000Y-39141659D01*
X69600000Y-39141659D01*
X69557727Y-38929142D01*
X69474807Y-38728955D01*
X69354425Y-38548791D01*
X69201209Y-38395575D01*
X69021045Y-38275193D01*
X68820858Y-38192273D01*
X68608341Y-38150000D01*
X68391659Y-38150000D01*
X68179142Y-38192273D01*
X67978955Y-38275193D01*
X67798791Y-38395575D01*
X67645575Y-38548791D01*
X67525193Y-38728955D01*
X67442273Y-38929142D01*
X67400000Y-39141659D01*
X62762271Y-39141659D01*
X62761040Y-36891659D01*
X68400000Y-36891659D01*
X68400000Y-37108341D01*
X68442273Y-37320858D01*
X68525193Y-37521045D01*
X68645575Y-37701209D01*
X68798791Y-37854425D01*
X68978955Y-37974807D01*
X69179142Y-38057727D01*
X69391659Y-38100000D01*
X69608341Y-38100000D01*
X69820858Y-38057727D01*
X70021045Y-37974807D01*
X70201209Y-37854425D01*
X70354425Y-37701209D01*
X70474807Y-37521045D01*
X70557727Y-37320858D01*
X70600000Y-37108341D01*
X70600000Y-36891659D01*
X70557727Y-36679142D01*
X70542202Y-36641659D01*
X72150000Y-36641659D01*
X72150000Y-36858341D01*
X72192273Y-37070858D01*
X72275193Y-37271045D01*
X72395575Y-37451209D01*
X72548791Y-37604425D01*
X72728955Y-37724807D01*
X72929142Y-37807727D01*
X73141659Y-37850000D01*
X73358341Y-37850000D01*
X73570858Y-37807727D01*
X73771045Y-37724807D01*
X73951209Y-37604425D01*
X74104425Y-37451209D01*
X74224807Y-37271045D01*
X74307727Y-37070858D01*
X74350000Y-36858341D01*
X74350000Y-36661358D01*
X79350000Y-36661358D01*
X79350000Y-36838642D01*
X79384586Y-37012520D01*
X79452430Y-37176310D01*
X79550924Y-37323717D01*
X79676283Y-37449076D01*
X79823690Y-37547570D01*
X79987480Y-37615414D01*
X80161358Y-37650000D01*
X80338642Y-37650000D01*
X80512520Y-37615414D01*
X80676310Y-37547570D01*
X80823717Y-37449076D01*
X80949076Y-37323717D01*
X81047570Y-37176310D01*
X81115414Y-37012520D01*
X81150000Y-36838642D01*
X81150000Y-36661358D01*
X81115414Y-36487480D01*
X81047570Y-36323690D01*
X80949076Y-36176283D01*
X80823717Y-36050924D01*
X80704938Y-35971558D01*
X85850000Y-35971558D01*
X85850000Y-36148842D01*
X85884586Y-36322720D01*
X85952430Y-36486510D01*
X86050924Y-36633917D01*
X86176283Y-36759276D01*
X86323690Y-36857770D01*
X86487480Y-36925614D01*
X86661358Y-36960200D01*
X86838642Y-36960200D01*
X87012520Y-36925614D01*
X87176310Y-36857770D01*
X87323717Y-36759276D01*
X87449076Y-36633917D01*
X87547570Y-36486510D01*
X87615414Y-36322720D01*
X87650000Y-36148842D01*
X87650000Y-35971558D01*
X87638026Y-35911358D01*
X89100000Y-35911358D01*
X89100000Y-36088642D01*
X89134586Y-36262520D01*
X89202430Y-36426310D01*
X89300924Y-36573717D01*
X89426283Y-36699076D01*
X89573690Y-36797570D01*
X89737480Y-36865414D01*
X89911358Y-36900000D01*
X90088642Y-36900000D01*
X90262520Y-36865414D01*
X90426310Y-36797570D01*
X90573717Y-36699076D01*
X90699076Y-36573717D01*
X90797570Y-36426310D01*
X90865414Y-36262520D01*
X90900000Y-36088642D01*
X90900000Y-35911358D01*
X90865414Y-35737480D01*
X90797570Y-35573690D01*
X90699076Y-35426283D01*
X90573717Y-35300924D01*
X90426310Y-35202430D01*
X90262520Y-35134586D01*
X90088642Y-35100000D01*
X89911358Y-35100000D01*
X89737480Y-35134586D01*
X89573690Y-35202430D01*
X89426283Y-35300924D01*
X89300924Y-35426283D01*
X89202430Y-35573690D01*
X89134586Y-35737480D01*
X89100000Y-35911358D01*
X87638026Y-35911358D01*
X87615414Y-35797680D01*
X87547570Y-35633890D01*
X87449076Y-35486483D01*
X87323717Y-35361124D01*
X87176310Y-35262630D01*
X87012520Y-35194786D01*
X86838642Y-35160200D01*
X86661358Y-35160200D01*
X86487480Y-35194786D01*
X86323690Y-35262630D01*
X86176283Y-35361124D01*
X86050924Y-35486483D01*
X85952430Y-35633890D01*
X85884586Y-35797680D01*
X85850000Y-35971558D01*
X80704938Y-35971558D01*
X80676310Y-35952430D01*
X80512520Y-35884586D01*
X80338642Y-35850000D01*
X80161358Y-35850000D01*
X79987480Y-35884586D01*
X79823690Y-35952430D01*
X79676283Y-36050924D01*
X79550924Y-36176283D01*
X79452430Y-36323690D01*
X79384586Y-36487480D01*
X79350000Y-36661358D01*
X74350000Y-36661358D01*
X74350000Y-36641659D01*
X74307727Y-36429142D01*
X74224807Y-36228955D01*
X74104425Y-36048791D01*
X73951209Y-35895575D01*
X73771045Y-35775193D01*
X73570858Y-35692273D01*
X73358341Y-35650000D01*
X73141659Y-35650000D01*
X72929142Y-35692273D01*
X72728955Y-35775193D01*
X72548791Y-35895575D01*
X72395575Y-36048791D01*
X72275193Y-36228955D01*
X72192273Y-36429142D01*
X72150000Y-36641659D01*
X70542202Y-36641659D01*
X70474807Y-36478955D01*
X70354425Y-36298791D01*
X70201209Y-36145575D01*
X70021045Y-36025193D01*
X69820858Y-35942273D01*
X69608341Y-35900000D01*
X69391659Y-35900000D01*
X69179142Y-35942273D01*
X68978955Y-36025193D01*
X68798791Y-36145575D01*
X68645575Y-36298791D01*
X68525193Y-36478955D01*
X68442273Y-36679142D01*
X68400000Y-36891659D01*
X62761040Y-36891659D01*
X62759128Y-33398910D01*
X63616097Y-33398910D01*
X63642854Y-33487139D01*
X63760527Y-33747611D01*
X63926754Y-33980122D01*
X64135148Y-34175736D01*
X64377700Y-34326935D01*
X64645089Y-34427909D01*
X64870000Y-34317850D01*
X64870000Y-33174000D01*
X65178000Y-33174000D01*
X65178000Y-34317850D01*
X65402911Y-34427909D01*
X65670300Y-34326935D01*
X65912852Y-34175736D01*
X65928169Y-34161358D01*
X84350000Y-34161358D01*
X84350000Y-34338642D01*
X84384586Y-34512520D01*
X84452430Y-34676310D01*
X84550924Y-34823717D01*
X84676283Y-34949076D01*
X84823690Y-35047570D01*
X84987480Y-35115414D01*
X85161358Y-35150000D01*
X85338642Y-35150000D01*
X85512520Y-35115414D01*
X85676310Y-35047570D01*
X85823717Y-34949076D01*
X85949076Y-34823717D01*
X86047570Y-34676310D01*
X86066300Y-34631092D01*
X86161358Y-34650000D01*
X86338642Y-34650000D01*
X86512520Y-34615414D01*
X86676310Y-34547570D01*
X86823717Y-34449076D01*
X86881134Y-34391659D01*
X91650000Y-34391659D01*
X91650000Y-34608341D01*
X91692273Y-34820858D01*
X91775193Y-35021045D01*
X91895575Y-35201209D01*
X92048791Y-35354425D01*
X92228955Y-35474807D01*
X92429142Y-35557727D01*
X92641659Y-35600000D01*
X92858341Y-35600000D01*
X93070858Y-35557727D01*
X93271045Y-35474807D01*
X93451209Y-35354425D01*
X93604425Y-35201209D01*
X93724807Y-35021045D01*
X93807727Y-34820858D01*
X93850000Y-34608341D01*
X93850000Y-34391659D01*
X93807727Y-34179142D01*
X93792202Y-34141659D01*
X96400000Y-34141659D01*
X96400000Y-34358341D01*
X96442273Y-34570858D01*
X96525193Y-34771045D01*
X96645575Y-34951209D01*
X96798791Y-35104425D01*
X96978955Y-35224807D01*
X97179142Y-35307727D01*
X97391659Y-35350000D01*
X97608341Y-35350000D01*
X97820858Y-35307727D01*
X98021045Y-35224807D01*
X98201209Y-35104425D01*
X98354425Y-34951209D01*
X98474807Y-34771045D01*
X98557727Y-34570858D01*
X98600000Y-34358341D01*
X98600000Y-34141659D01*
X98557727Y-33929142D01*
X98474807Y-33728955D01*
X98416478Y-33641659D01*
X107650000Y-33641659D01*
X107650000Y-33858341D01*
X107692273Y-34070858D01*
X107775193Y-34271045D01*
X107895575Y-34451209D01*
X108048791Y-34604425D01*
X108228955Y-34724807D01*
X108429142Y-34807727D01*
X108641659Y-34850000D01*
X108858341Y-34850000D01*
X109070858Y-34807727D01*
X109271045Y-34724807D01*
X109451209Y-34604425D01*
X109604425Y-34451209D01*
X109724807Y-34271045D01*
X109807727Y-34070858D01*
X109850000Y-33858341D01*
X109850000Y-33641659D01*
X109807727Y-33429142D01*
X109724807Y-33228955D01*
X109604425Y-33048791D01*
X109451209Y-32895575D01*
X109377344Y-32846220D01*
X109570858Y-32807727D01*
X109771045Y-32724807D01*
X109900692Y-32638179D01*
X109900000Y-32641659D01*
X109900000Y-32858341D01*
X109942273Y-33070858D01*
X110025193Y-33271045D01*
X110145575Y-33451209D01*
X110298791Y-33604425D01*
X110478955Y-33724807D01*
X110539776Y-33750000D01*
X110478955Y-33775193D01*
X110298791Y-33895575D01*
X110145575Y-34048791D01*
X110025193Y-34228955D01*
X109942273Y-34429142D01*
X109900000Y-34641659D01*
X109900000Y-34858341D01*
X109942273Y-35070858D01*
X110025193Y-35271045D01*
X110097679Y-35379528D01*
X110050924Y-35426283D01*
X109952430Y-35573690D01*
X109884586Y-35737480D01*
X109850000Y-35911358D01*
X109850000Y-36088642D01*
X109884586Y-36262520D01*
X109952430Y-36426310D01*
X110050924Y-36573717D01*
X110176283Y-36699076D01*
X110323690Y-36797570D01*
X110487480Y-36865414D01*
X110661358Y-36900000D01*
X110838642Y-36900000D01*
X111012520Y-36865414D01*
X111176310Y-36797570D01*
X111323717Y-36699076D01*
X111449076Y-36573717D01*
X111547570Y-36426310D01*
X111615414Y-36262520D01*
X111650000Y-36088642D01*
X111650000Y-35911358D01*
X111646082Y-35891659D01*
X116150000Y-35891659D01*
X116150000Y-36108341D01*
X116192273Y-36320858D01*
X116275193Y-36521045D01*
X116395575Y-36701209D01*
X116548791Y-36854425D01*
X116728955Y-36974807D01*
X116929142Y-37057727D01*
X117141659Y-37100000D01*
X117358341Y-37100000D01*
X117570858Y-37057727D01*
X117771045Y-36974807D01*
X117951209Y-36854425D01*
X118000000Y-36805634D01*
X118048791Y-36854425D01*
X118228955Y-36974807D01*
X118429142Y-37057727D01*
X118641659Y-37100000D01*
X118858341Y-37100000D01*
X119070858Y-37057727D01*
X119271045Y-36974807D01*
X119451209Y-36854425D01*
X119604425Y-36701209D01*
X119724807Y-36521045D01*
X119807727Y-36320858D01*
X119850000Y-36108341D01*
X119850000Y-35891659D01*
X119807727Y-35679142D01*
X119724807Y-35478955D01*
X119604425Y-35298791D01*
X119451209Y-35145575D01*
X119271045Y-35025193D01*
X119070858Y-34942273D01*
X118858341Y-34900000D01*
X118641659Y-34900000D01*
X118429142Y-34942273D01*
X118228955Y-35025193D01*
X118048791Y-35145575D01*
X118000000Y-35194366D01*
X117951209Y-35145575D01*
X117771045Y-35025193D01*
X117570858Y-34942273D01*
X117358341Y-34900000D01*
X117141659Y-34900000D01*
X116929142Y-34942273D01*
X116728955Y-35025193D01*
X116548791Y-35145575D01*
X116395575Y-35298791D01*
X116275193Y-35478955D01*
X116192273Y-35679142D01*
X116150000Y-35891659D01*
X111646082Y-35891659D01*
X111615414Y-35737480D01*
X111590846Y-35678167D01*
X111701209Y-35604425D01*
X111854425Y-35451209D01*
X111974807Y-35271045D01*
X112057727Y-35070858D01*
X112100000Y-34858341D01*
X112100000Y-34641659D01*
X112057727Y-34429142D01*
X111974807Y-34228955D01*
X111854425Y-34048791D01*
X111701209Y-33895575D01*
X111521045Y-33775193D01*
X111460224Y-33750000D01*
X111521045Y-33724807D01*
X111701209Y-33604425D01*
X111854425Y-33451209D01*
X111974807Y-33271045D01*
X112057727Y-33070858D01*
X112100000Y-32858341D01*
X112100000Y-32641659D01*
X112057727Y-32429142D01*
X111974807Y-32228955D01*
X111854425Y-32048791D01*
X111701209Y-31895575D01*
X111521045Y-31775193D01*
X111320858Y-31692273D01*
X111108341Y-31650000D01*
X110891659Y-31650000D01*
X110679142Y-31692273D01*
X110478955Y-31775193D01*
X110349308Y-31861821D01*
X110350000Y-31858341D01*
X110350000Y-31641659D01*
X110307727Y-31429142D01*
X110285267Y-31374919D01*
X110411358Y-31400000D01*
X110588642Y-31400000D01*
X110762520Y-31365414D01*
X110926310Y-31297570D01*
X111073717Y-31199076D01*
X111199076Y-31073717D01*
X111297570Y-30926310D01*
X111365414Y-30762520D01*
X111400000Y-30588642D01*
X111400000Y-30549733D01*
X111452430Y-30676310D01*
X111550924Y-30823717D01*
X111676283Y-30949076D01*
X111823690Y-31047570D01*
X111987480Y-31115414D01*
X112161358Y-31150000D01*
X112338642Y-31150000D01*
X112512520Y-31115414D01*
X112676310Y-31047570D01*
X112823717Y-30949076D01*
X112949076Y-30823717D01*
X113047570Y-30676310D01*
X113115414Y-30512520D01*
X113150000Y-30338642D01*
X113150000Y-30161358D01*
X113115414Y-29987480D01*
X113047570Y-29823690D01*
X112949076Y-29676283D01*
X112823717Y-29550924D01*
X112676310Y-29452430D01*
X112512520Y-29384586D01*
X112338642Y-29350000D01*
X112161358Y-29350000D01*
X111987480Y-29384586D01*
X111823690Y-29452430D01*
X111676283Y-29550924D01*
X111550924Y-29676283D01*
X111452430Y-29823690D01*
X111384586Y-29987480D01*
X111350000Y-30161358D01*
X111350000Y-30200267D01*
X111297570Y-30073690D01*
X111199076Y-29926283D01*
X111073717Y-29800924D01*
X110926310Y-29702430D01*
X110762520Y-29634586D01*
X110588642Y-29600000D01*
X110411358Y-29600000D01*
X110237480Y-29634586D01*
X110073690Y-29702430D01*
X109926283Y-29800924D01*
X109800924Y-29926283D01*
X109702430Y-30073690D01*
X109634586Y-30237480D01*
X109600000Y-30411358D01*
X109600000Y-30588642D01*
X109625081Y-30714733D01*
X109570858Y-30692273D01*
X109358341Y-30650000D01*
X109141659Y-30650000D01*
X108929142Y-30692273D01*
X108728955Y-30775193D01*
X108548791Y-30895575D01*
X108395575Y-31048791D01*
X108275193Y-31228955D01*
X108192273Y-31429142D01*
X108150000Y-31641659D01*
X108150000Y-31858341D01*
X108192273Y-32070858D01*
X108275193Y-32271045D01*
X108395575Y-32451209D01*
X108548791Y-32604425D01*
X108622656Y-32653780D01*
X108429142Y-32692273D01*
X108228955Y-32775193D01*
X108048791Y-32895575D01*
X107895575Y-33048791D01*
X107775193Y-33228955D01*
X107692273Y-33429142D01*
X107650000Y-33641659D01*
X98416478Y-33641659D01*
X98354425Y-33548791D01*
X98201209Y-33395575D01*
X98021045Y-33275193D01*
X97820858Y-33192273D01*
X97608341Y-33150000D01*
X97391659Y-33150000D01*
X97179142Y-33192273D01*
X96978955Y-33275193D01*
X96798791Y-33395575D01*
X96645575Y-33548791D01*
X96525193Y-33728955D01*
X96442273Y-33929142D01*
X96400000Y-34141659D01*
X93792202Y-34141659D01*
X93724807Y-33978955D01*
X93604425Y-33798791D01*
X93451209Y-33645575D01*
X93271045Y-33525193D01*
X93070858Y-33442273D01*
X92858341Y-33400000D01*
X92641659Y-33400000D01*
X92429142Y-33442273D01*
X92228955Y-33525193D01*
X92048791Y-33645575D01*
X91895575Y-33798791D01*
X91775193Y-33978955D01*
X91692273Y-34179142D01*
X91650000Y-34391659D01*
X86881134Y-34391659D01*
X86949076Y-34323717D01*
X87047570Y-34176310D01*
X87115414Y-34012520D01*
X87150000Y-33838642D01*
X87150000Y-33661358D01*
X87115414Y-33487480D01*
X87047570Y-33323690D01*
X86949076Y-33176283D01*
X86934151Y-33161358D01*
X89100000Y-33161358D01*
X89100000Y-33338642D01*
X89134586Y-33512520D01*
X89202430Y-33676310D01*
X89300924Y-33823717D01*
X89426283Y-33949076D01*
X89573690Y-34047570D01*
X89737480Y-34115414D01*
X89911358Y-34150000D01*
X90088642Y-34150000D01*
X90262520Y-34115414D01*
X90426310Y-34047570D01*
X90573717Y-33949076D01*
X90699076Y-33823717D01*
X90797570Y-33676310D01*
X90865414Y-33512520D01*
X90900000Y-33338642D01*
X90900000Y-33161358D01*
X90865414Y-32987480D01*
X90797570Y-32823690D01*
X90699076Y-32676283D01*
X90573717Y-32550924D01*
X90426310Y-32452430D01*
X90262520Y-32384586D01*
X90088642Y-32350000D01*
X89911358Y-32350000D01*
X89737480Y-32384586D01*
X89573690Y-32452430D01*
X89426283Y-32550924D01*
X89300924Y-32676283D01*
X89202430Y-32823690D01*
X89134586Y-32987480D01*
X89100000Y-33161358D01*
X86934151Y-33161358D01*
X86823717Y-33050924D01*
X86676310Y-32952430D01*
X86512520Y-32884586D01*
X86338642Y-32850000D01*
X86161358Y-32850000D01*
X85987480Y-32884586D01*
X85823690Y-32952430D01*
X85676283Y-33050924D01*
X85550924Y-33176283D01*
X85452430Y-33323690D01*
X85433700Y-33368908D01*
X85338642Y-33350000D01*
X85161358Y-33350000D01*
X84987480Y-33384586D01*
X84823690Y-33452430D01*
X84676283Y-33550924D01*
X84550924Y-33676283D01*
X84452430Y-33823690D01*
X84384586Y-33987480D01*
X84350000Y-34161358D01*
X65928169Y-34161358D01*
X66121246Y-33980122D01*
X66287473Y-33747611D01*
X66405146Y-33487139D01*
X66431903Y-33398910D01*
X66320889Y-33174000D01*
X65178000Y-33174000D01*
X64870000Y-33174000D01*
X63727111Y-33174000D01*
X63616097Y-33398910D01*
X62759128Y-33398910D01*
X62758862Y-32911358D01*
X81600000Y-32911358D01*
X81600000Y-33088642D01*
X81634586Y-33262520D01*
X81702430Y-33426310D01*
X81800924Y-33573717D01*
X81926283Y-33699076D01*
X82073690Y-33797570D01*
X82237480Y-33865414D01*
X82411358Y-33900000D01*
X82588642Y-33900000D01*
X82762520Y-33865414D01*
X82926310Y-33797570D01*
X83073717Y-33699076D01*
X83199076Y-33573717D01*
X83297570Y-33426310D01*
X83365414Y-33262520D01*
X83400000Y-33088642D01*
X83400000Y-32911358D01*
X83365414Y-32737480D01*
X83297570Y-32573690D01*
X83199076Y-32426283D01*
X83073717Y-32300924D01*
X82926310Y-32202430D01*
X82762520Y-32134586D01*
X82588642Y-32100000D01*
X82411358Y-32100000D01*
X82237480Y-32134586D01*
X82073690Y-32202430D01*
X81926283Y-32300924D01*
X81800924Y-32426283D01*
X81702430Y-32573690D01*
X81634586Y-32737480D01*
X81600000Y-32911358D01*
X62758862Y-32911358D01*
X62758714Y-32641090D01*
X63616097Y-32641090D01*
X63727111Y-32866000D01*
X64870000Y-32866000D01*
X64870000Y-32846000D01*
X65178000Y-32846000D01*
X65178000Y-32866000D01*
X66320889Y-32866000D01*
X66431903Y-32641090D01*
X66405146Y-32552861D01*
X66287473Y-32292389D01*
X66121246Y-32059878D01*
X65912852Y-31864264D01*
X65861767Y-31832419D01*
X65874000Y-31832419D01*
X65972017Y-31822765D01*
X66066267Y-31794175D01*
X66153129Y-31747746D01*
X66229264Y-31685264D01*
X66291746Y-31609129D01*
X66338175Y-31522267D01*
X66366765Y-31428017D01*
X66376419Y-31330000D01*
X66376419Y-29630000D01*
X66366765Y-29531983D01*
X66338175Y-29437733D01*
X66291746Y-29350871D01*
X66229264Y-29274736D01*
X66153129Y-29212254D01*
X66066267Y-29165825D01*
X65972017Y-29137235D01*
X65874000Y-29127581D01*
X64174000Y-29127581D01*
X64075983Y-29137235D01*
X63981733Y-29165825D01*
X63894871Y-29212254D01*
X63818736Y-29274736D01*
X63756254Y-29350871D01*
X63709825Y-29437733D01*
X63681235Y-29531983D01*
X63671581Y-29630000D01*
X63671581Y-31330000D01*
X63681235Y-31428017D01*
X63709825Y-31522267D01*
X63756254Y-31609129D01*
X63818736Y-31685264D01*
X63894871Y-31747746D01*
X63981733Y-31794175D01*
X64075983Y-31822765D01*
X64174000Y-31832419D01*
X64186233Y-31832419D01*
X64135148Y-31864264D01*
X63926754Y-32059878D01*
X63760527Y-32292389D01*
X63642854Y-32552861D01*
X63616097Y-32641090D01*
X62758714Y-32641090D01*
X62755535Y-26834822D01*
X63552967Y-26834822D01*
X63917294Y-27313654D01*
X64579182Y-27666601D01*
X65297208Y-27883637D01*
X66043779Y-27956423D01*
X66694746Y-27891659D01*
X68400000Y-27891659D01*
X68400000Y-28108341D01*
X68442273Y-28320858D01*
X68525193Y-28521045D01*
X68645575Y-28701209D01*
X68798791Y-28854425D01*
X68978955Y-28974807D01*
X69179142Y-29057727D01*
X69391659Y-29100000D01*
X69608341Y-29100000D01*
X69820858Y-29057727D01*
X70021045Y-28974807D01*
X70116002Y-28911358D01*
X97350000Y-28911358D01*
X97350000Y-29088642D01*
X97384586Y-29262520D01*
X97452430Y-29426310D01*
X97550924Y-29573717D01*
X97676283Y-29699076D01*
X97823690Y-29797570D01*
X97987480Y-29865414D01*
X98161358Y-29900000D01*
X98338642Y-29900000D01*
X98512520Y-29865414D01*
X98676310Y-29797570D01*
X98823717Y-29699076D01*
X98949076Y-29573717D01*
X99047570Y-29426310D01*
X99115414Y-29262520D01*
X99150000Y-29088642D01*
X99150000Y-28911358D01*
X99115414Y-28737480D01*
X99047570Y-28573690D01*
X98949076Y-28426283D01*
X98823717Y-28300924D01*
X98676310Y-28202430D01*
X98512520Y-28134586D01*
X98338642Y-28100000D01*
X98161358Y-28100000D01*
X97987480Y-28134586D01*
X97823690Y-28202430D01*
X97676283Y-28300924D01*
X97550924Y-28426283D01*
X97452430Y-28573690D01*
X97384586Y-28737480D01*
X97350000Y-28911358D01*
X70116002Y-28911358D01*
X70201209Y-28854425D01*
X70354425Y-28701209D01*
X70474807Y-28521045D01*
X70557727Y-28320858D01*
X70600000Y-28108341D01*
X70600000Y-27891659D01*
X70557727Y-27679142D01*
X70542202Y-27641659D01*
X76400000Y-27641659D01*
X76400000Y-27858341D01*
X76442273Y-28070858D01*
X76525193Y-28271045D01*
X76645575Y-28451209D01*
X76798791Y-28604425D01*
X76978955Y-28724807D01*
X77179142Y-28807727D01*
X77391659Y-28850000D01*
X77608341Y-28850000D01*
X77820858Y-28807727D01*
X78021045Y-28724807D01*
X78201209Y-28604425D01*
X78354425Y-28451209D01*
X78474807Y-28271045D01*
X78557727Y-28070858D01*
X78600000Y-27858341D01*
X78600000Y-27641659D01*
X78557727Y-27429142D01*
X78474807Y-27228955D01*
X78354425Y-27048791D01*
X78201209Y-26895575D01*
X78021045Y-26775193D01*
X77820858Y-26692273D01*
X77665441Y-26661358D01*
X88350000Y-26661358D01*
X88350000Y-26838642D01*
X88384586Y-27012520D01*
X88452430Y-27176310D01*
X88550924Y-27323717D01*
X88676283Y-27449076D01*
X88823690Y-27547570D01*
X88987480Y-27615414D01*
X89161358Y-27650000D01*
X89338642Y-27650000D01*
X89512520Y-27615414D01*
X89676310Y-27547570D01*
X89823717Y-27449076D01*
X89949076Y-27323717D01*
X90047570Y-27176310D01*
X90115414Y-27012520D01*
X90150000Y-26838642D01*
X90150000Y-26661358D01*
X93850000Y-26661358D01*
X93850000Y-26838642D01*
X93884586Y-27012520D01*
X93952430Y-27176310D01*
X94050924Y-27323717D01*
X94176283Y-27449076D01*
X94323690Y-27547570D01*
X94487480Y-27615414D01*
X94661358Y-27650000D01*
X94838642Y-27650000D01*
X95012520Y-27615414D01*
X95176310Y-27547570D01*
X95323717Y-27449076D01*
X95449076Y-27323717D01*
X95547570Y-27176310D01*
X95615414Y-27012520D01*
X95648711Y-26845122D01*
X95679142Y-26857727D01*
X95891659Y-26900000D01*
X96108341Y-26900000D01*
X96320858Y-26857727D01*
X96376155Y-26834822D01*
X125782967Y-26834822D01*
X126147294Y-27313654D01*
X126809182Y-27666601D01*
X127527208Y-27883637D01*
X128273779Y-27956423D01*
X129020204Y-27882162D01*
X129737800Y-27663708D01*
X130392706Y-27313654D01*
X130757033Y-26834822D01*
X128270000Y-24347789D01*
X125782967Y-26834822D01*
X96376155Y-26834822D01*
X96521045Y-26774807D01*
X96701209Y-26654425D01*
X96854425Y-26501209D01*
X96974807Y-26321045D01*
X97057727Y-26120858D01*
X97100000Y-25908341D01*
X97100000Y-25691659D01*
X97057727Y-25479142D01*
X96974807Y-25278955D01*
X96854425Y-25098791D01*
X96701209Y-24945575D01*
X96521045Y-24825193D01*
X96320858Y-24742273D01*
X96108341Y-24700000D01*
X95891659Y-24700000D01*
X95679142Y-24742273D01*
X95478955Y-24825193D01*
X95298791Y-24945575D01*
X95145575Y-25098791D01*
X95025193Y-25278955D01*
X94942273Y-25479142D01*
X94900000Y-25691659D01*
X94900000Y-25862205D01*
X94838642Y-25850000D01*
X94661358Y-25850000D01*
X94487480Y-25884586D01*
X94323690Y-25952430D01*
X94176283Y-26050924D01*
X94050924Y-26176283D01*
X93952430Y-26323690D01*
X93884586Y-26487480D01*
X93850000Y-26661358D01*
X90150000Y-26661358D01*
X90115414Y-26487480D01*
X90047570Y-26323690D01*
X89949076Y-26176283D01*
X89823717Y-26050924D01*
X89676310Y-25952430D01*
X89512520Y-25884586D01*
X89338642Y-25850000D01*
X89161358Y-25850000D01*
X88987480Y-25884586D01*
X88823690Y-25952430D01*
X88676283Y-26050924D01*
X88550924Y-26176283D01*
X88452430Y-26323690D01*
X88384586Y-26487480D01*
X88350000Y-26661358D01*
X77665441Y-26661358D01*
X77608341Y-26650000D01*
X77391659Y-26650000D01*
X77179142Y-26692273D01*
X76978955Y-26775193D01*
X76798791Y-26895575D01*
X76645575Y-27048791D01*
X76525193Y-27228955D01*
X76442273Y-27429142D01*
X76400000Y-27641659D01*
X70542202Y-27641659D01*
X70474807Y-27478955D01*
X70354425Y-27298791D01*
X70201209Y-27145575D01*
X70021045Y-27025193D01*
X69820858Y-26942273D01*
X69608341Y-26900000D01*
X69391659Y-26900000D01*
X69179142Y-26942273D01*
X68978955Y-27025193D01*
X68798791Y-27145575D01*
X68645575Y-27298791D01*
X68525193Y-27478955D01*
X68442273Y-27679142D01*
X68400000Y-27891659D01*
X66694746Y-27891659D01*
X66790204Y-27882162D01*
X67507800Y-27663708D01*
X68162706Y-27313654D01*
X68527033Y-26834822D01*
X66040000Y-24347789D01*
X63552967Y-26834822D01*
X62755535Y-26834822D01*
X62755112Y-26063310D01*
X62856346Y-26252706D01*
X63335178Y-26617033D01*
X65822211Y-24130000D01*
X66257789Y-24130000D01*
X68744822Y-26617033D01*
X69223654Y-26252706D01*
X69416179Y-25891659D01*
X71650000Y-25891659D01*
X71650000Y-26108341D01*
X71692273Y-26320858D01*
X71775193Y-26521045D01*
X71895575Y-26701209D01*
X72048791Y-26854425D01*
X72228955Y-26974807D01*
X72429142Y-27057727D01*
X72641659Y-27100000D01*
X72858341Y-27100000D01*
X73070858Y-27057727D01*
X73271045Y-26974807D01*
X73451209Y-26854425D01*
X73604425Y-26701209D01*
X73724807Y-26521045D01*
X73807727Y-26320858D01*
X73850000Y-26108341D01*
X73850000Y-25891659D01*
X73807727Y-25679142D01*
X73724807Y-25478955D01*
X73604425Y-25298791D01*
X73451209Y-25145575D01*
X73271045Y-25025193D01*
X73070858Y-24942273D01*
X72858341Y-24900000D01*
X72641659Y-24900000D01*
X72429142Y-24942273D01*
X72228955Y-25025193D01*
X72048791Y-25145575D01*
X71895575Y-25298791D01*
X71775193Y-25478955D01*
X71692273Y-25679142D01*
X71650000Y-25891659D01*
X69416179Y-25891659D01*
X69576601Y-25590818D01*
X69793637Y-24872792D01*
X69866423Y-24126221D01*
X69792162Y-23379796D01*
X69573708Y-22662200D01*
X69496632Y-22518000D01*
X71291581Y-22518000D01*
X71291581Y-24218000D01*
X71301235Y-24316017D01*
X71329825Y-24410267D01*
X71376254Y-24497129D01*
X71438736Y-24573264D01*
X71514871Y-24635746D01*
X71601733Y-24682175D01*
X71695983Y-24710765D01*
X71794000Y-24720419D01*
X73494000Y-24720419D01*
X73592017Y-24710765D01*
X73686267Y-24682175D01*
X73773129Y-24635746D01*
X73849264Y-24573264D01*
X73911746Y-24497129D01*
X73958175Y-24410267D01*
X73986765Y-24316017D01*
X73996419Y-24218000D01*
X73996419Y-24205767D01*
X74028264Y-24256852D01*
X74223878Y-24465246D01*
X74456389Y-24631473D01*
X74716861Y-24749146D01*
X74805090Y-24775903D01*
X75030000Y-24664889D01*
X75030000Y-23522000D01*
X75338000Y-23522000D01*
X75338000Y-24664889D01*
X75562910Y-24775903D01*
X75651139Y-24749146D01*
X75911611Y-24631473D01*
X76144122Y-24465246D01*
X76339736Y-24256852D01*
X76490935Y-24014300D01*
X76591909Y-23746911D01*
X76481850Y-23522000D01*
X75338000Y-23522000D01*
X75030000Y-23522000D01*
X75010000Y-23522000D01*
X75010000Y-23214000D01*
X75030000Y-23214000D01*
X75030000Y-22071111D01*
X75338000Y-22071111D01*
X75338000Y-23214000D01*
X76481850Y-23214000D01*
X76591909Y-22989089D01*
X76490935Y-22721700D01*
X76339736Y-22479148D01*
X76144122Y-22270754D01*
X76134675Y-22264000D01*
X92547581Y-22264000D01*
X92547581Y-23964000D01*
X92557235Y-24062017D01*
X92585825Y-24156267D01*
X92632254Y-24243129D01*
X92694736Y-24319264D01*
X92770871Y-24381746D01*
X92857733Y-24428175D01*
X92951983Y-24456765D01*
X93050000Y-24466419D01*
X94750000Y-24466419D01*
X94848017Y-24456765D01*
X94942267Y-24428175D01*
X95029129Y-24381746D01*
X95105264Y-24319264D01*
X95167746Y-24243129D01*
X95214175Y-24156267D01*
X95242765Y-24062017D01*
X95252419Y-23964000D01*
X95252419Y-23951767D01*
X95284264Y-24002852D01*
X95479878Y-24211246D01*
X95712389Y-24377473D01*
X95972861Y-24495146D01*
X96061090Y-24521903D01*
X96286000Y-24410889D01*
X96286000Y-23268000D01*
X96594000Y-23268000D01*
X96594000Y-24410889D01*
X96818910Y-24521903D01*
X96907139Y-24495146D01*
X97167611Y-24377473D01*
X97400122Y-24211246D01*
X97595736Y-24002852D01*
X97746935Y-23760300D01*
X97847909Y-23492911D01*
X99052091Y-23492911D01*
X99153065Y-23760300D01*
X99304264Y-24002852D01*
X99499878Y-24211246D01*
X99732389Y-24377473D01*
X99992861Y-24495146D01*
X100081090Y-24521903D01*
X100306000Y-24410889D01*
X100306000Y-23268000D01*
X99162150Y-23268000D01*
X99052091Y-23492911D01*
X97847909Y-23492911D01*
X97737850Y-23268000D01*
X96594000Y-23268000D01*
X96286000Y-23268000D01*
X96266000Y-23268000D01*
X96266000Y-22960000D01*
X96286000Y-22960000D01*
X96286000Y-21817111D01*
X96594000Y-21817111D01*
X96594000Y-22960000D01*
X97737850Y-22960000D01*
X97847909Y-22735089D01*
X99052091Y-22735089D01*
X99162150Y-22960000D01*
X100306000Y-22960000D01*
X100306000Y-21817111D01*
X100614000Y-21817111D01*
X100614000Y-22960000D01*
X100634000Y-22960000D01*
X100634000Y-23268000D01*
X100614000Y-23268000D01*
X100614000Y-24410889D01*
X100838910Y-24521903D01*
X100927139Y-24495146D01*
X101187611Y-24377473D01*
X101420122Y-24211246D01*
X101615736Y-24002852D01*
X101647581Y-23951767D01*
X101647581Y-23964000D01*
X101657235Y-24062017D01*
X101685825Y-24156267D01*
X101732254Y-24243129D01*
X101794736Y-24319264D01*
X101870871Y-24381746D01*
X101957733Y-24428175D01*
X102051983Y-24456765D01*
X102150000Y-24466419D01*
X103850000Y-24466419D01*
X103948017Y-24456765D01*
X104042267Y-24428175D01*
X104129129Y-24381746D01*
X104205264Y-24319264D01*
X104267746Y-24243129D01*
X104314175Y-24156267D01*
X104342765Y-24062017D01*
X104352419Y-23964000D01*
X104352419Y-22823752D01*
X108360346Y-22823752D01*
X108443868Y-23024259D01*
X108564902Y-23204619D01*
X108580181Y-23219837D01*
X108491651Y-23385465D01*
X108434470Y-23573966D01*
X108415162Y-23770000D01*
X108434470Y-23966034D01*
X108491651Y-24154535D01*
X108584508Y-24328258D01*
X108709472Y-24480528D01*
X108861742Y-24605492D01*
X109035465Y-24698349D01*
X109223966Y-24755530D01*
X109370880Y-24770000D01*
X109469120Y-24770000D01*
X109616034Y-24755530D01*
X109804535Y-24698349D01*
X109978258Y-24605492D01*
X110055000Y-24542512D01*
X110131742Y-24605492D01*
X110305465Y-24698349D01*
X110493966Y-24755530D01*
X110640880Y-24770000D01*
X110739120Y-24770000D01*
X110886034Y-24755530D01*
X111074535Y-24698349D01*
X111248258Y-24605492D01*
X111325000Y-24542512D01*
X111401742Y-24605492D01*
X111575465Y-24698349D01*
X111763966Y-24755530D01*
X111910880Y-24770000D01*
X112009120Y-24770000D01*
X112156034Y-24755530D01*
X112344535Y-24698349D01*
X112518258Y-24605492D01*
X112595000Y-24542512D01*
X112671742Y-24605492D01*
X112845465Y-24698349D01*
X113033966Y-24755530D01*
X113180880Y-24770000D01*
X113279120Y-24770000D01*
X113426034Y-24755530D01*
X113614535Y-24698349D01*
X113788258Y-24605492D01*
X113865000Y-24542512D01*
X113941742Y-24605492D01*
X114115465Y-24698349D01*
X114303966Y-24755530D01*
X114450880Y-24770000D01*
X114549120Y-24770000D01*
X114696034Y-24755530D01*
X114884535Y-24698349D01*
X115058258Y-24605492D01*
X115210528Y-24480528D01*
X115335492Y-24328258D01*
X115428349Y-24154535D01*
X115434645Y-24133779D01*
X124443577Y-24133779D01*
X124517838Y-24880204D01*
X124736292Y-25597800D01*
X125086346Y-26252706D01*
X125565178Y-26617033D01*
X128052211Y-24130000D01*
X125565178Y-21642967D01*
X125086346Y-22007294D01*
X124733399Y-22669182D01*
X124516363Y-23387208D01*
X124443577Y-24133779D01*
X115434645Y-24133779D01*
X115485530Y-23966034D01*
X115504838Y-23770000D01*
X115485530Y-23573966D01*
X115428349Y-23385465D01*
X115389747Y-23313246D01*
X115417746Y-23279129D01*
X115464175Y-23192267D01*
X115492765Y-23098017D01*
X115502419Y-23000000D01*
X115502419Y-22391659D01*
X115650000Y-22391659D01*
X115650000Y-22608341D01*
X115692273Y-22820858D01*
X115775193Y-23021045D01*
X115895575Y-23201209D01*
X116048791Y-23354425D01*
X116228955Y-23474807D01*
X116429142Y-23557727D01*
X116641659Y-23600000D01*
X116858341Y-23600000D01*
X117070858Y-23557727D01*
X117271045Y-23474807D01*
X117451209Y-23354425D01*
X117604425Y-23201209D01*
X117724807Y-23021045D01*
X117807727Y-22820858D01*
X117850000Y-22608341D01*
X117850000Y-22391659D01*
X117807727Y-22179142D01*
X117724807Y-21978955D01*
X117604425Y-21798791D01*
X117451209Y-21645575D01*
X117271045Y-21525193D01*
X117070858Y-21442273D01*
X116858341Y-21400000D01*
X116641659Y-21400000D01*
X116429142Y-21442273D01*
X116228955Y-21525193D01*
X116048791Y-21645575D01*
X115895575Y-21798791D01*
X115775193Y-21978955D01*
X115692273Y-22179142D01*
X115650000Y-22391659D01*
X115502419Y-22391659D01*
X115502419Y-22000000D01*
X115492765Y-21901983D01*
X115464175Y-21807733D01*
X115417746Y-21720871D01*
X115355264Y-21644736D01*
X115279129Y-21582254D01*
X115192267Y-21535825D01*
X115098017Y-21507235D01*
X115000000Y-21497581D01*
X114000000Y-21497581D01*
X113901983Y-21507235D01*
X113807733Y-21535825D01*
X113787622Y-21546575D01*
X113750361Y-21521785D01*
X113553751Y-21440354D01*
X113384000Y-21556485D01*
X113384000Y-22346000D01*
X113404000Y-22346000D01*
X113404000Y-22654000D01*
X113384000Y-22654000D01*
X113384000Y-22674000D01*
X113076000Y-22674000D01*
X113076000Y-22654000D01*
X112114000Y-22654000D01*
X112114000Y-22674000D01*
X111806000Y-22674000D01*
X111806000Y-22654000D01*
X111786000Y-22654000D01*
X111786000Y-22346000D01*
X111806000Y-22346000D01*
X111806000Y-21556485D01*
X112114000Y-21556485D01*
X112114000Y-22346000D01*
X113076000Y-22346000D01*
X113076000Y-21556485D01*
X112906249Y-21440354D01*
X112709639Y-21521785D01*
X112595000Y-21598054D01*
X112480361Y-21521785D01*
X112283751Y-21440354D01*
X112114000Y-21556485D01*
X111806000Y-21556485D01*
X111636249Y-21440354D01*
X111439639Y-21521785D01*
X111258797Y-21642099D01*
X111240475Y-21660348D01*
X111074535Y-21571651D01*
X110886034Y-21514470D01*
X110739120Y-21500000D01*
X110640880Y-21500000D01*
X110493966Y-21514470D01*
X110305465Y-21571651D01*
X110139525Y-21660348D01*
X110121203Y-21642099D01*
X109940361Y-21521785D01*
X109743751Y-21440354D01*
X109574000Y-21556485D01*
X109574000Y-22346000D01*
X109594000Y-22346000D01*
X109594000Y-22654000D01*
X109574000Y-22654000D01*
X109574000Y-22674000D01*
X109266000Y-22674000D01*
X109266000Y-22654000D01*
X108474746Y-22654000D01*
X108360346Y-22823752D01*
X104352419Y-22823752D01*
X104352419Y-22264000D01*
X104343777Y-22176248D01*
X108360346Y-22176248D01*
X108474746Y-22346000D01*
X109266000Y-22346000D01*
X109266000Y-21556485D01*
X109096249Y-21440354D01*
X108899639Y-21521785D01*
X108718797Y-21642099D01*
X108564902Y-21795381D01*
X108443868Y-21975741D01*
X108360346Y-22176248D01*
X104343777Y-22176248D01*
X104342765Y-22165983D01*
X104314175Y-22071733D01*
X104267746Y-21984871D01*
X104205264Y-21908736D01*
X104129129Y-21846254D01*
X104042267Y-21799825D01*
X103948017Y-21771235D01*
X103850000Y-21761581D01*
X102150000Y-21761581D01*
X102051983Y-21771235D01*
X101957733Y-21799825D01*
X101870871Y-21846254D01*
X101794736Y-21908736D01*
X101732254Y-21984871D01*
X101685825Y-22071733D01*
X101657235Y-22165983D01*
X101647581Y-22264000D01*
X101647581Y-22276233D01*
X101615736Y-22225148D01*
X101420122Y-22016754D01*
X101187611Y-21850527D01*
X100927139Y-21732854D01*
X100838910Y-21706097D01*
X100614000Y-21817111D01*
X100306000Y-21817111D01*
X100081090Y-21706097D01*
X99992861Y-21732854D01*
X99732389Y-21850527D01*
X99499878Y-22016754D01*
X99304264Y-22225148D01*
X99153065Y-22467700D01*
X99052091Y-22735089D01*
X97847909Y-22735089D01*
X97746935Y-22467700D01*
X97595736Y-22225148D01*
X97400122Y-22016754D01*
X97167611Y-21850527D01*
X96907139Y-21732854D01*
X96818910Y-21706097D01*
X96594000Y-21817111D01*
X96286000Y-21817111D01*
X96061090Y-21706097D01*
X95972861Y-21732854D01*
X95712389Y-21850527D01*
X95479878Y-22016754D01*
X95284264Y-22225148D01*
X95252419Y-22276233D01*
X95252419Y-22264000D01*
X95242765Y-22165983D01*
X95214175Y-22071733D01*
X95167746Y-21984871D01*
X95105264Y-21908736D01*
X95029129Y-21846254D01*
X94942267Y-21799825D01*
X94848017Y-21771235D01*
X94750000Y-21761581D01*
X93050000Y-21761581D01*
X92951983Y-21771235D01*
X92857733Y-21799825D01*
X92770871Y-21846254D01*
X92694736Y-21908736D01*
X92632254Y-21984871D01*
X92585825Y-22071733D01*
X92557235Y-22165983D01*
X92547581Y-22264000D01*
X76134675Y-22264000D01*
X75911611Y-22104527D01*
X75651139Y-21986854D01*
X75562910Y-21960097D01*
X75338000Y-22071111D01*
X75030000Y-22071111D01*
X74805090Y-21960097D01*
X74716861Y-21986854D01*
X74456389Y-22104527D01*
X74223878Y-22270754D01*
X74028264Y-22479148D01*
X73996419Y-22530233D01*
X73996419Y-22518000D01*
X73986765Y-22419983D01*
X73958175Y-22325733D01*
X73911746Y-22238871D01*
X73849264Y-22162736D01*
X73773129Y-22100254D01*
X73686267Y-22053825D01*
X73592017Y-22025235D01*
X73494000Y-22015581D01*
X71794000Y-22015581D01*
X71695983Y-22025235D01*
X71601733Y-22053825D01*
X71514871Y-22100254D01*
X71438736Y-22162736D01*
X71376254Y-22238871D01*
X71329825Y-22325733D01*
X71301235Y-22419983D01*
X71291581Y-22518000D01*
X69496632Y-22518000D01*
X69223654Y-22007294D01*
X68744822Y-21642967D01*
X66257789Y-24130000D01*
X65822211Y-24130000D01*
X65808069Y-24115858D01*
X66025858Y-23898069D01*
X66040000Y-23912211D01*
X68527033Y-21425178D01*
X68162706Y-20946346D01*
X68027403Y-20874196D01*
X126326632Y-20850488D01*
X126147294Y-20946346D01*
G36*
X93500000Y-51600000D02*
G01*
X93501921Y-51619509D01*
X93507612Y-51638268D01*
X93516853Y-51655557D01*
X93529289Y-51670711D01*
X93544443Y-51683147D01*
X93561732Y-51692388D01*
X93580491Y-51698079D01*
X93600000Y-51700000D01*
X96300000Y-51700000D01*
X96300000Y-52400000D01*
X93600000Y-52400000D01*
X93580491Y-52401921D01*
X93561732Y-52407612D01*
X93544443Y-52416853D01*
X93529289Y-52429289D01*
X93516853Y-52444443D01*
X93507612Y-52461732D01*
X93501921Y-52480491D01*
X93500000Y-52500000D01*
X93500000Y-53600000D01*
X88700000Y-53600000D01*
X88700000Y-48300000D01*
X93500000Y-48300000D01*
X93500000Y-51600000D01*
X93500000Y-51600000D01*
G37*
X93500000Y-51600000D02*
X93501921Y-51619509D01*
X93507612Y-51638268D01*
X93516853Y-51655557D01*
X93529289Y-51670711D01*
X93544443Y-51683147D01*
X93561732Y-51692388D01*
X93580491Y-51698079D01*
X93600000Y-51700000D01*
X96300000Y-51700000D01*
X96300000Y-52400000D01*
X93600000Y-52400000D01*
X93580491Y-52401921D01*
X93561732Y-52407612D01*
X93544443Y-52416853D01*
X93529289Y-52429289D01*
X93516853Y-52444443D01*
X93507612Y-52461732D01*
X93501921Y-52480491D01*
X93500000Y-52500000D01*
X93500000Y-53600000D01*
X88700000Y-53600000D01*
X88700000Y-48300000D01*
X93500000Y-48300000D01*
X93500000Y-51600000D01*
M02*
