G04 #@! TF.GenerationSoftware,KiCad,Pcbnew,(5.1.4)-1*
G04 #@! TF.CreationDate,2020-07-14T01:04:40+01:00*
G04 #@! TF.ProjectId,F7_100pin,46375f31-3030-4706-996e-2e6b69636164,rev?*
G04 #@! TF.SameCoordinates,Original*
G04 #@! TF.FileFunction,Soldermask,Bot*
G04 #@! TF.FilePolarity,Negative*
%FSLAX46Y46*%
G04 Gerber Fmt 4.6, Leading zero omitted, Abs format (unit mm)*
G04 Created by KiCad (PCBNEW (5.1.4)-1) date 2020-07-14 01:04:40*
%MOMM*%
%LPD*%
G04 APERTURE LIST*
%ADD10C,0.100000*%
G04 APERTURE END LIST*
D10*
G36*
X128904239Y-59041467D02*
G01*
X129218282Y-59103934D01*
X129809926Y-59349001D01*
X130342392Y-59704784D01*
X130795216Y-60157608D01*
X131150999Y-60690074D01*
X131396066Y-61281718D01*
X131396066Y-61281719D01*
X131521000Y-61909803D01*
X131521000Y-62550197D01*
X131483367Y-62739392D01*
X131396066Y-63178282D01*
X131150999Y-63769926D01*
X130795216Y-64302392D01*
X130342392Y-64755216D01*
X129809926Y-65110999D01*
X129218282Y-65356066D01*
X128904239Y-65418533D01*
X128590197Y-65481000D01*
X127949803Y-65481000D01*
X127635761Y-65418533D01*
X127321718Y-65356066D01*
X126730074Y-65110999D01*
X126197608Y-64755216D01*
X125744784Y-64302392D01*
X125389001Y-63769926D01*
X125143934Y-63178282D01*
X125056633Y-62739392D01*
X125019000Y-62550197D01*
X125019000Y-61909803D01*
X125143934Y-61281719D01*
X125143934Y-61281718D01*
X125389001Y-60690074D01*
X125744784Y-60157608D01*
X126197608Y-59704784D01*
X126730074Y-59349001D01*
X127321718Y-59103934D01*
X127635761Y-59041467D01*
X127949803Y-58979000D01*
X128590197Y-58979000D01*
X128904239Y-59041467D01*
X128904239Y-59041467D01*
G37*
G36*
X66674239Y-59041467D02*
G01*
X66988282Y-59103934D01*
X67579926Y-59349001D01*
X68112392Y-59704784D01*
X68565216Y-60157608D01*
X68920999Y-60690074D01*
X69166066Y-61281718D01*
X69166066Y-61281719D01*
X69291000Y-61909803D01*
X69291000Y-62550197D01*
X69253367Y-62739392D01*
X69166066Y-63178282D01*
X68920999Y-63769926D01*
X68565216Y-64302392D01*
X68112392Y-64755216D01*
X67579926Y-65110999D01*
X66988282Y-65356066D01*
X66674239Y-65418533D01*
X66360197Y-65481000D01*
X65719803Y-65481000D01*
X65405761Y-65418533D01*
X65091718Y-65356066D01*
X64500074Y-65110999D01*
X63967608Y-64755216D01*
X63514784Y-64302392D01*
X63159001Y-63769926D01*
X62913934Y-63178282D01*
X62826633Y-62739392D01*
X62789000Y-62550197D01*
X62789000Y-61909803D01*
X62913934Y-61281719D01*
X62913934Y-61281718D01*
X63159001Y-60690074D01*
X63514784Y-60157608D01*
X63967608Y-59704784D01*
X64500074Y-59349001D01*
X65091718Y-59103934D01*
X65405761Y-59041467D01*
X65719803Y-58979000D01*
X66360197Y-58979000D01*
X66674239Y-59041467D01*
X66674239Y-59041467D01*
G37*
G36*
X121983642Y-62479781D02*
G01*
X122129414Y-62540162D01*
X122129416Y-62540163D01*
X122260608Y-62627822D01*
X122372178Y-62739392D01*
X122459837Y-62870584D01*
X122459838Y-62870586D01*
X122520219Y-63016358D01*
X122551000Y-63171107D01*
X122551000Y-63328893D01*
X122520219Y-63483642D01*
X122459838Y-63629414D01*
X122459837Y-63629416D01*
X122372178Y-63760608D01*
X122260608Y-63872178D01*
X122129416Y-63959837D01*
X122129415Y-63959838D01*
X122129414Y-63959838D01*
X121983642Y-64020219D01*
X121828893Y-64051000D01*
X121671107Y-64051000D01*
X121516358Y-64020219D01*
X121370586Y-63959838D01*
X121370585Y-63959838D01*
X121370584Y-63959837D01*
X121239392Y-63872178D01*
X121127822Y-63760608D01*
X121040163Y-63629416D01*
X121040162Y-63629414D01*
X120979781Y-63483642D01*
X120949000Y-63328893D01*
X120949000Y-63171107D01*
X120979781Y-63016358D01*
X121040162Y-62870586D01*
X121040163Y-62870584D01*
X121127822Y-62739392D01*
X121239392Y-62627822D01*
X121370584Y-62540163D01*
X121370586Y-62540162D01*
X121516358Y-62479781D01*
X121671107Y-62449000D01*
X121828893Y-62449000D01*
X121983642Y-62479781D01*
X121983642Y-62479781D01*
G37*
G36*
X115483642Y-62479781D02*
G01*
X115629414Y-62540162D01*
X115629416Y-62540163D01*
X115760608Y-62627822D01*
X115872178Y-62739392D01*
X115959837Y-62870584D01*
X115959838Y-62870586D01*
X116020219Y-63016358D01*
X116051000Y-63171107D01*
X116051000Y-63328893D01*
X116020219Y-63483642D01*
X115959838Y-63629414D01*
X115959837Y-63629416D01*
X115872178Y-63760608D01*
X115760608Y-63872178D01*
X115629416Y-63959837D01*
X115629415Y-63959838D01*
X115629414Y-63959838D01*
X115483642Y-64020219D01*
X115328893Y-64051000D01*
X115171107Y-64051000D01*
X115016358Y-64020219D01*
X114870586Y-63959838D01*
X114870585Y-63959838D01*
X114870584Y-63959837D01*
X114739392Y-63872178D01*
X114627822Y-63760608D01*
X114540163Y-63629416D01*
X114540162Y-63629414D01*
X114479781Y-63483642D01*
X114449000Y-63328893D01*
X114449000Y-63171107D01*
X114479781Y-63016358D01*
X114540162Y-62870586D01*
X114540163Y-62870584D01*
X114627822Y-62739392D01*
X114739392Y-62627822D01*
X114870584Y-62540163D01*
X114870586Y-62540162D01*
X115016358Y-62479781D01*
X115171107Y-62449000D01*
X115328893Y-62449000D01*
X115483642Y-62479781D01*
X115483642Y-62479781D01*
G37*
G36*
X115483642Y-57979781D02*
G01*
X115629414Y-58040162D01*
X115629416Y-58040163D01*
X115760608Y-58127822D01*
X115872178Y-58239392D01*
X115959837Y-58370584D01*
X115959838Y-58370586D01*
X116020219Y-58516358D01*
X116051000Y-58671107D01*
X116051000Y-58828893D01*
X116020219Y-58983642D01*
X115970392Y-59103934D01*
X115959837Y-59129416D01*
X115872178Y-59260608D01*
X115760608Y-59372178D01*
X115629416Y-59459837D01*
X115629415Y-59459838D01*
X115629414Y-59459838D01*
X115483642Y-59520219D01*
X115328893Y-59551000D01*
X115171107Y-59551000D01*
X115016358Y-59520219D01*
X114870586Y-59459838D01*
X114870585Y-59459838D01*
X114870584Y-59459837D01*
X114739392Y-59372178D01*
X114627822Y-59260608D01*
X114540163Y-59129416D01*
X114529608Y-59103934D01*
X114479781Y-58983642D01*
X114449000Y-58828893D01*
X114449000Y-58671107D01*
X114479781Y-58516358D01*
X114540162Y-58370586D01*
X114540163Y-58370584D01*
X114627822Y-58239392D01*
X114739392Y-58127822D01*
X114870584Y-58040163D01*
X114870586Y-58040162D01*
X115016358Y-57979781D01*
X115171107Y-57949000D01*
X115328893Y-57949000D01*
X115483642Y-57979781D01*
X115483642Y-57979781D01*
G37*
G36*
X121983642Y-57979781D02*
G01*
X122129414Y-58040162D01*
X122129416Y-58040163D01*
X122260608Y-58127822D01*
X122372178Y-58239392D01*
X122459837Y-58370584D01*
X122459838Y-58370586D01*
X122520219Y-58516358D01*
X122551000Y-58671107D01*
X122551000Y-58828893D01*
X122520219Y-58983642D01*
X122470392Y-59103934D01*
X122459837Y-59129416D01*
X122372178Y-59260608D01*
X122260608Y-59372178D01*
X122129416Y-59459837D01*
X122129415Y-59459838D01*
X122129414Y-59459838D01*
X121983642Y-59520219D01*
X121828893Y-59551000D01*
X121671107Y-59551000D01*
X121516358Y-59520219D01*
X121370586Y-59459838D01*
X121370585Y-59459838D01*
X121370584Y-59459837D01*
X121239392Y-59372178D01*
X121127822Y-59260608D01*
X121040163Y-59129416D01*
X121029608Y-59103934D01*
X120979781Y-58983642D01*
X120949000Y-58828893D01*
X120949000Y-58671107D01*
X120979781Y-58516358D01*
X121040162Y-58370586D01*
X121040163Y-58370584D01*
X121127822Y-58239392D01*
X121239392Y-58127822D01*
X121370584Y-58040163D01*
X121370586Y-58040162D01*
X121516358Y-57979781D01*
X121671107Y-57949000D01*
X121828893Y-57949000D01*
X121983642Y-57979781D01*
X121983642Y-57979781D01*
G37*
G36*
X129610442Y-52125518D02*
G01*
X129676627Y-52132037D01*
X129846466Y-52183557D01*
X130002991Y-52267222D01*
X130038729Y-52296552D01*
X130140186Y-52379814D01*
X130223448Y-52481271D01*
X130252778Y-52517009D01*
X130336443Y-52673534D01*
X130387963Y-52843373D01*
X130405359Y-53020000D01*
X130387963Y-53196627D01*
X130336443Y-53366466D01*
X130252778Y-53522991D01*
X130223448Y-53558729D01*
X130140186Y-53660186D01*
X130038729Y-53743448D01*
X130002991Y-53772778D01*
X129846466Y-53856443D01*
X129676627Y-53907963D01*
X129610443Y-53914481D01*
X129544260Y-53921000D01*
X129455740Y-53921000D01*
X129389557Y-53914481D01*
X129323373Y-53907963D01*
X129153534Y-53856443D01*
X128997009Y-53772778D01*
X128961271Y-53743448D01*
X128859814Y-53660186D01*
X128776552Y-53558729D01*
X128747222Y-53522991D01*
X128663557Y-53366466D01*
X128612037Y-53196627D01*
X128594641Y-53020000D01*
X128612037Y-52843373D01*
X128663557Y-52673534D01*
X128747222Y-52517009D01*
X128776552Y-52481271D01*
X128859814Y-52379814D01*
X128961271Y-52296552D01*
X128997009Y-52267222D01*
X129153534Y-52183557D01*
X129323373Y-52132037D01*
X129389558Y-52125518D01*
X129455740Y-52119000D01*
X129544260Y-52119000D01*
X129610442Y-52125518D01*
X129610442Y-52125518D01*
G37*
G36*
X129610443Y-49585519D02*
G01*
X129676627Y-49592037D01*
X129846466Y-49643557D01*
X130002991Y-49727222D01*
X130038729Y-49756552D01*
X130140186Y-49839814D01*
X130223448Y-49941271D01*
X130252778Y-49977009D01*
X130336443Y-50133534D01*
X130387963Y-50303373D01*
X130405359Y-50480000D01*
X130387963Y-50656627D01*
X130336443Y-50826466D01*
X130252778Y-50982991D01*
X130223448Y-51018729D01*
X130140186Y-51120186D01*
X130038729Y-51203448D01*
X130002991Y-51232778D01*
X129846466Y-51316443D01*
X129676627Y-51367963D01*
X129610443Y-51374481D01*
X129544260Y-51381000D01*
X129455740Y-51381000D01*
X129389558Y-51374482D01*
X129323373Y-51367963D01*
X129153534Y-51316443D01*
X128997009Y-51232778D01*
X128961271Y-51203448D01*
X128859814Y-51120186D01*
X128776552Y-51018729D01*
X128747222Y-50982991D01*
X128663557Y-50826466D01*
X128612037Y-50656627D01*
X128594641Y-50480000D01*
X128612037Y-50303373D01*
X128663557Y-50133534D01*
X128747222Y-49977009D01*
X128776552Y-49941271D01*
X128859814Y-49839814D01*
X128961271Y-49756552D01*
X128997009Y-49727222D01*
X129153534Y-49643557D01*
X129323373Y-49592037D01*
X129389557Y-49585519D01*
X129455740Y-49579000D01*
X129544260Y-49579000D01*
X129610443Y-49585519D01*
X129610443Y-49585519D01*
G37*
G36*
X129610442Y-47045518D02*
G01*
X129676627Y-47052037D01*
X129846466Y-47103557D01*
X130002991Y-47187222D01*
X130038729Y-47216552D01*
X130140186Y-47299814D01*
X130223448Y-47401271D01*
X130252778Y-47437009D01*
X130336443Y-47593534D01*
X130387963Y-47763373D01*
X130405359Y-47940000D01*
X130387963Y-48116627D01*
X130336443Y-48286466D01*
X130252778Y-48442991D01*
X130223448Y-48478729D01*
X130140186Y-48580186D01*
X130038729Y-48663448D01*
X130002991Y-48692778D01*
X129846466Y-48776443D01*
X129676627Y-48827963D01*
X129610443Y-48834481D01*
X129544260Y-48841000D01*
X129455740Y-48841000D01*
X129389557Y-48834481D01*
X129323373Y-48827963D01*
X129153534Y-48776443D01*
X128997009Y-48692778D01*
X128961271Y-48663448D01*
X128859814Y-48580186D01*
X128776552Y-48478729D01*
X128747222Y-48442991D01*
X128663557Y-48286466D01*
X128612037Y-48116627D01*
X128594641Y-47940000D01*
X128612037Y-47763373D01*
X128663557Y-47593534D01*
X128747222Y-47437009D01*
X128776552Y-47401271D01*
X128859814Y-47299814D01*
X128961271Y-47216552D01*
X128997009Y-47187222D01*
X129153534Y-47103557D01*
X129323373Y-47052037D01*
X129389558Y-47045518D01*
X129455740Y-47039000D01*
X129544260Y-47039000D01*
X129610442Y-47045518D01*
X129610442Y-47045518D01*
G37*
G36*
X130401000Y-46301000D02*
G01*
X128599000Y-46301000D01*
X128599000Y-44499000D01*
X130401000Y-44499000D01*
X130401000Y-46301000D01*
X130401000Y-46301000D01*
G37*
G36*
X65134443Y-32125519D02*
G01*
X65200627Y-32132037D01*
X65370466Y-32183557D01*
X65526991Y-32267222D01*
X65562729Y-32296552D01*
X65664186Y-32379814D01*
X65747448Y-32481271D01*
X65776778Y-32517009D01*
X65860443Y-32673534D01*
X65911963Y-32843373D01*
X65929359Y-33020000D01*
X65911963Y-33196627D01*
X65860443Y-33366466D01*
X65776778Y-33522991D01*
X65747448Y-33558729D01*
X65664186Y-33660186D01*
X65562729Y-33743448D01*
X65526991Y-33772778D01*
X65370466Y-33856443D01*
X65200627Y-33907963D01*
X65134443Y-33914481D01*
X65068260Y-33921000D01*
X64979740Y-33921000D01*
X64913557Y-33914481D01*
X64847373Y-33907963D01*
X64677534Y-33856443D01*
X64521009Y-33772778D01*
X64485271Y-33743448D01*
X64383814Y-33660186D01*
X64300552Y-33558729D01*
X64271222Y-33522991D01*
X64187557Y-33366466D01*
X64136037Y-33196627D01*
X64118641Y-33020000D01*
X64136037Y-32843373D01*
X64187557Y-32673534D01*
X64271222Y-32517009D01*
X64300552Y-32481271D01*
X64383814Y-32379814D01*
X64485271Y-32296552D01*
X64521009Y-32267222D01*
X64677534Y-32183557D01*
X64847373Y-32132037D01*
X64913557Y-32125519D01*
X64979740Y-32119000D01*
X65068260Y-32119000D01*
X65134443Y-32125519D01*
X65134443Y-32125519D01*
G37*
G36*
X65925000Y-31381000D02*
G01*
X64123000Y-31381000D01*
X64123000Y-29579000D01*
X65925000Y-29579000D01*
X65925000Y-31381000D01*
X65925000Y-31381000D01*
G37*
G36*
X66674239Y-20941467D02*
G01*
X66988282Y-21003934D01*
X67579926Y-21249001D01*
X67869523Y-21442504D01*
X68112391Y-21604783D01*
X68565217Y-22057609D01*
X68613367Y-22129671D01*
X68920999Y-22590074D01*
X69166066Y-23181718D01*
X69187729Y-23290625D01*
X69291000Y-23809803D01*
X69291000Y-24450197D01*
X69228533Y-24764239D01*
X69166066Y-25078282D01*
X68920999Y-25669926D01*
X68565216Y-26202392D01*
X68112392Y-26655216D01*
X67579926Y-27010999D01*
X66988282Y-27256066D01*
X66674239Y-27318533D01*
X66360197Y-27381000D01*
X65719803Y-27381000D01*
X65405761Y-27318533D01*
X65091718Y-27256066D01*
X64500074Y-27010999D01*
X63967608Y-26655216D01*
X63514784Y-26202392D01*
X63159001Y-25669926D01*
X62913934Y-25078282D01*
X62851467Y-24764239D01*
X62789000Y-24450197D01*
X62789000Y-23809803D01*
X62892271Y-23290625D01*
X62913934Y-23181718D01*
X63159001Y-22590074D01*
X63466633Y-22129671D01*
X63514783Y-22057609D01*
X63967609Y-21604783D01*
X64210477Y-21442504D01*
X64500074Y-21249001D01*
X65091718Y-21003934D01*
X65405761Y-20941467D01*
X65719803Y-20879000D01*
X66360197Y-20879000D01*
X66674239Y-20941467D01*
X66674239Y-20941467D01*
G37*
G36*
X128904239Y-20941467D02*
G01*
X129218282Y-21003934D01*
X129809926Y-21249001D01*
X130099523Y-21442504D01*
X130342391Y-21604783D01*
X130795217Y-22057609D01*
X130843367Y-22129671D01*
X131150999Y-22590074D01*
X131396066Y-23181718D01*
X131417729Y-23290625D01*
X131521000Y-23809803D01*
X131521000Y-24450197D01*
X131458533Y-24764239D01*
X131396066Y-25078282D01*
X131150999Y-25669926D01*
X130795216Y-26202392D01*
X130342392Y-26655216D01*
X129809926Y-27010999D01*
X129218282Y-27256066D01*
X128904239Y-27318533D01*
X128590197Y-27381000D01*
X127949803Y-27381000D01*
X127635761Y-27318533D01*
X127321718Y-27256066D01*
X126730074Y-27010999D01*
X126197608Y-26655216D01*
X125744784Y-26202392D01*
X125389001Y-25669926D01*
X125143934Y-25078282D01*
X125081467Y-24764239D01*
X125019000Y-24450197D01*
X125019000Y-23809803D01*
X125122271Y-23290625D01*
X125143934Y-23181718D01*
X125389001Y-22590074D01*
X125696633Y-22129671D01*
X125744783Y-22057609D01*
X126197609Y-21604783D01*
X126440477Y-21442504D01*
X126730074Y-21249001D01*
X127321718Y-21003934D01*
X127635761Y-20941467D01*
X127949803Y-20879000D01*
X128590197Y-20879000D01*
X128904239Y-20941467D01*
X128904239Y-20941467D01*
G37*
G36*
X109528015Y-21956973D02*
G01*
X109631879Y-21988479D01*
X109652078Y-21999276D01*
X109727600Y-22039643D01*
X109811501Y-22108499D01*
X109880357Y-22192400D01*
X109891662Y-22213551D01*
X109931521Y-22288121D01*
X109935388Y-22300869D01*
X109944760Y-22323496D01*
X109958374Y-22343870D01*
X109975701Y-22361197D01*
X109996075Y-22374811D01*
X110018714Y-22384188D01*
X110042747Y-22388969D01*
X110067251Y-22388969D01*
X110091285Y-22384189D01*
X110113924Y-22374812D01*
X110134298Y-22361198D01*
X110151625Y-22343871D01*
X110165239Y-22323497D01*
X110174612Y-22300869D01*
X110178479Y-22288121D01*
X110218338Y-22213551D01*
X110229643Y-22192400D01*
X110298499Y-22108499D01*
X110382400Y-22039643D01*
X110457922Y-21999276D01*
X110478121Y-21988479D01*
X110581985Y-21956973D01*
X110662933Y-21949000D01*
X110717067Y-21949000D01*
X110798015Y-21956973D01*
X110901879Y-21988479D01*
X110922078Y-21999276D01*
X110997600Y-22039643D01*
X111081501Y-22108499D01*
X111150357Y-22192400D01*
X111161662Y-22213551D01*
X111201521Y-22288121D01*
X111205388Y-22300869D01*
X111214760Y-22323496D01*
X111228374Y-22343870D01*
X111245701Y-22361197D01*
X111266075Y-22374811D01*
X111288714Y-22384188D01*
X111312747Y-22388969D01*
X111337251Y-22388969D01*
X111361285Y-22384189D01*
X111383924Y-22374812D01*
X111404298Y-22361198D01*
X111421625Y-22343871D01*
X111435239Y-22323497D01*
X111444612Y-22300869D01*
X111448479Y-22288121D01*
X111488338Y-22213551D01*
X111499643Y-22192400D01*
X111568499Y-22108499D01*
X111652400Y-22039643D01*
X111727922Y-21999276D01*
X111748121Y-21988479D01*
X111851985Y-21956973D01*
X111932933Y-21949000D01*
X111987067Y-21949000D01*
X112068015Y-21956973D01*
X112171879Y-21988479D01*
X112192078Y-21999276D01*
X112267600Y-22039643D01*
X112351501Y-22108499D01*
X112420357Y-22192400D01*
X112431662Y-22213551D01*
X112471521Y-22288121D01*
X112475388Y-22300869D01*
X112484760Y-22323496D01*
X112498374Y-22343870D01*
X112515701Y-22361197D01*
X112536075Y-22374811D01*
X112558714Y-22384188D01*
X112582747Y-22388969D01*
X112607251Y-22388969D01*
X112631285Y-22384189D01*
X112653924Y-22374812D01*
X112674298Y-22361198D01*
X112691625Y-22343871D01*
X112705239Y-22323497D01*
X112714612Y-22300869D01*
X112718479Y-22288121D01*
X112758338Y-22213551D01*
X112769643Y-22192400D01*
X112838499Y-22108499D01*
X112922400Y-22039643D01*
X112997922Y-21999276D01*
X113018121Y-21988479D01*
X113121985Y-21956973D01*
X113202933Y-21949000D01*
X113257067Y-21949000D01*
X113338015Y-21956973D01*
X113441879Y-21988479D01*
X113462078Y-21999276D01*
X113537600Y-22039643D01*
X113621501Y-22108499D01*
X113690356Y-22192400D01*
X113713764Y-22236193D01*
X113727375Y-22256563D01*
X113744702Y-22273890D01*
X113765076Y-22287504D01*
X113787715Y-22296881D01*
X113811748Y-22301662D01*
X113836252Y-22301662D01*
X113860286Y-22296882D01*
X113882924Y-22287505D01*
X113903299Y-22273891D01*
X113920626Y-22256564D01*
X113934240Y-22236190D01*
X113943617Y-22213551D01*
X113948398Y-22189518D01*
X113949000Y-22177265D01*
X113949000Y-21949000D01*
X115051000Y-21949000D01*
X115051000Y-23051000D01*
X114822735Y-23051000D01*
X114798349Y-23053402D01*
X114774900Y-23060515D01*
X114753289Y-23072066D01*
X114734347Y-23087611D01*
X114718802Y-23106553D01*
X114707251Y-23128164D01*
X114700138Y-23151613D01*
X114697736Y-23175999D01*
X114700138Y-23200385D01*
X114707251Y-23223834D01*
X114718802Y-23245445D01*
X114734347Y-23264387D01*
X114753289Y-23279932D01*
X114763802Y-23286233D01*
X114807600Y-23309644D01*
X114807602Y-23309645D01*
X114807601Y-23309645D01*
X114891501Y-23378499D01*
X114960357Y-23462400D01*
X114996995Y-23530945D01*
X115011521Y-23558121D01*
X115043027Y-23661985D01*
X115053666Y-23770000D01*
X115043027Y-23878015D01*
X115011521Y-23981879D01*
X115000786Y-24001963D01*
X114960357Y-24077600D01*
X114891501Y-24161501D01*
X114807600Y-24230357D01*
X114759694Y-24255963D01*
X114711879Y-24281521D01*
X114608015Y-24313027D01*
X114527067Y-24321000D01*
X114472933Y-24321000D01*
X114391985Y-24313027D01*
X114288121Y-24281521D01*
X114240306Y-24255963D01*
X114192400Y-24230357D01*
X114108499Y-24161501D01*
X114039643Y-24077600D01*
X113999214Y-24001963D01*
X113988479Y-23981879D01*
X113984612Y-23969131D01*
X113975240Y-23946504D01*
X113961626Y-23926130D01*
X113944299Y-23908803D01*
X113923925Y-23895189D01*
X113901286Y-23885812D01*
X113877253Y-23881031D01*
X113852749Y-23881031D01*
X113828715Y-23885811D01*
X113806076Y-23895188D01*
X113785702Y-23908802D01*
X113768375Y-23926129D01*
X113754761Y-23946503D01*
X113745388Y-23969131D01*
X113741521Y-23981879D01*
X113730786Y-24001963D01*
X113690357Y-24077600D01*
X113621501Y-24161501D01*
X113537600Y-24230357D01*
X113489694Y-24255963D01*
X113441879Y-24281521D01*
X113338015Y-24313027D01*
X113257067Y-24321000D01*
X113202933Y-24321000D01*
X113121985Y-24313027D01*
X113018121Y-24281521D01*
X112970306Y-24255963D01*
X112922400Y-24230357D01*
X112838499Y-24161501D01*
X112769643Y-24077600D01*
X112729214Y-24001963D01*
X112718479Y-23981879D01*
X112714612Y-23969131D01*
X112705240Y-23946504D01*
X112691626Y-23926130D01*
X112674299Y-23908803D01*
X112653925Y-23895189D01*
X112631286Y-23885812D01*
X112607253Y-23881031D01*
X112582749Y-23881031D01*
X112558715Y-23885811D01*
X112536076Y-23895188D01*
X112515702Y-23908802D01*
X112498375Y-23926129D01*
X112484761Y-23946503D01*
X112475388Y-23969131D01*
X112471521Y-23981879D01*
X112460786Y-24001963D01*
X112420357Y-24077600D01*
X112351501Y-24161501D01*
X112267600Y-24230357D01*
X112219694Y-24255963D01*
X112171879Y-24281521D01*
X112068015Y-24313027D01*
X111987067Y-24321000D01*
X111932933Y-24321000D01*
X111851985Y-24313027D01*
X111748121Y-24281521D01*
X111700306Y-24255963D01*
X111652400Y-24230357D01*
X111568499Y-24161501D01*
X111499643Y-24077600D01*
X111459214Y-24001963D01*
X111448479Y-23981879D01*
X111444612Y-23969131D01*
X111435240Y-23946504D01*
X111421626Y-23926130D01*
X111404299Y-23908803D01*
X111383925Y-23895189D01*
X111361286Y-23885812D01*
X111337253Y-23881031D01*
X111312749Y-23881031D01*
X111288715Y-23885811D01*
X111266076Y-23895188D01*
X111245702Y-23908802D01*
X111228375Y-23926129D01*
X111214761Y-23946503D01*
X111205388Y-23969131D01*
X111201521Y-23981879D01*
X111190786Y-24001963D01*
X111150357Y-24077600D01*
X111081501Y-24161501D01*
X110997600Y-24230357D01*
X110949694Y-24255963D01*
X110901879Y-24281521D01*
X110798015Y-24313027D01*
X110717067Y-24321000D01*
X110662933Y-24321000D01*
X110581985Y-24313027D01*
X110478121Y-24281521D01*
X110430306Y-24255963D01*
X110382400Y-24230357D01*
X110298499Y-24161501D01*
X110229643Y-24077600D01*
X110189214Y-24001963D01*
X110178479Y-23981879D01*
X110174612Y-23969131D01*
X110165240Y-23946504D01*
X110151626Y-23926130D01*
X110134299Y-23908803D01*
X110113925Y-23895189D01*
X110091286Y-23885812D01*
X110067253Y-23881031D01*
X110042749Y-23881031D01*
X110018715Y-23885811D01*
X109996076Y-23895188D01*
X109975702Y-23908802D01*
X109958375Y-23926129D01*
X109944761Y-23946503D01*
X109935388Y-23969131D01*
X109931521Y-23981879D01*
X109920786Y-24001963D01*
X109880357Y-24077600D01*
X109811501Y-24161501D01*
X109727600Y-24230357D01*
X109679694Y-24255963D01*
X109631879Y-24281521D01*
X109528015Y-24313027D01*
X109447067Y-24321000D01*
X109392933Y-24321000D01*
X109311985Y-24313027D01*
X109208121Y-24281521D01*
X109160306Y-24255963D01*
X109112400Y-24230357D01*
X109028499Y-24161501D01*
X108959643Y-24077600D01*
X108919214Y-24001963D01*
X108908479Y-23981879D01*
X108876973Y-23878015D01*
X108866334Y-23770000D01*
X108876973Y-23661985D01*
X108908479Y-23558121D01*
X108923005Y-23530945D01*
X108959643Y-23462400D01*
X109028499Y-23378499D01*
X109112400Y-23309643D01*
X109181656Y-23272625D01*
X109208121Y-23258479D01*
X109220869Y-23254612D01*
X109243496Y-23245240D01*
X109263870Y-23231626D01*
X109281197Y-23214299D01*
X109294811Y-23193925D01*
X109304188Y-23171286D01*
X109308969Y-23147253D01*
X109308969Y-23122749D01*
X109308969Y-23122747D01*
X109531031Y-23122747D01*
X109531031Y-23147251D01*
X109535811Y-23171285D01*
X109545188Y-23193924D01*
X109558802Y-23214298D01*
X109576129Y-23231625D01*
X109596503Y-23245239D01*
X109619131Y-23254612D01*
X109631879Y-23258479D01*
X109658344Y-23272625D01*
X109727600Y-23309643D01*
X109811501Y-23378499D01*
X109880357Y-23462400D01*
X109916995Y-23530945D01*
X109931521Y-23558121D01*
X109935388Y-23570869D01*
X109944760Y-23593496D01*
X109958374Y-23613870D01*
X109975701Y-23631197D01*
X109996075Y-23644811D01*
X110018714Y-23654188D01*
X110042747Y-23658969D01*
X110067251Y-23658969D01*
X110091285Y-23654189D01*
X110113924Y-23644812D01*
X110134298Y-23631198D01*
X110151625Y-23613871D01*
X110165239Y-23593497D01*
X110174612Y-23570869D01*
X110178479Y-23558121D01*
X110193005Y-23530945D01*
X110229643Y-23462400D01*
X110298499Y-23378499D01*
X110382400Y-23309643D01*
X110451656Y-23272625D01*
X110478121Y-23258479D01*
X110490869Y-23254612D01*
X110513496Y-23245240D01*
X110533870Y-23231626D01*
X110551197Y-23214299D01*
X110564811Y-23193925D01*
X110574188Y-23171286D01*
X110578969Y-23147253D01*
X110578969Y-23122749D01*
X110578969Y-23122747D01*
X110801031Y-23122747D01*
X110801031Y-23147251D01*
X110805811Y-23171285D01*
X110815188Y-23193924D01*
X110828802Y-23214298D01*
X110846129Y-23231625D01*
X110866503Y-23245239D01*
X110889131Y-23254612D01*
X110901879Y-23258479D01*
X110928344Y-23272625D01*
X110997600Y-23309643D01*
X111081501Y-23378499D01*
X111150357Y-23462400D01*
X111186995Y-23530945D01*
X111201521Y-23558121D01*
X111205388Y-23570869D01*
X111214760Y-23593496D01*
X111228374Y-23613870D01*
X111245701Y-23631197D01*
X111266075Y-23644811D01*
X111288714Y-23654188D01*
X111312747Y-23658969D01*
X111337251Y-23658969D01*
X111361285Y-23654189D01*
X111383924Y-23644812D01*
X111404298Y-23631198D01*
X111421625Y-23613871D01*
X111435239Y-23593497D01*
X111444612Y-23570869D01*
X111448479Y-23558121D01*
X111463005Y-23530945D01*
X111499643Y-23462400D01*
X111568499Y-23378499D01*
X111652400Y-23309643D01*
X111721656Y-23272625D01*
X111748121Y-23258479D01*
X111760869Y-23254612D01*
X111783496Y-23245240D01*
X111803870Y-23231626D01*
X111821197Y-23214299D01*
X111834811Y-23193925D01*
X111844188Y-23171286D01*
X111848969Y-23147253D01*
X111848969Y-23122749D01*
X111848969Y-23122747D01*
X112071031Y-23122747D01*
X112071031Y-23147251D01*
X112075811Y-23171285D01*
X112085188Y-23193924D01*
X112098802Y-23214298D01*
X112116129Y-23231625D01*
X112136503Y-23245239D01*
X112159131Y-23254612D01*
X112171879Y-23258479D01*
X112198344Y-23272625D01*
X112267600Y-23309643D01*
X112351501Y-23378499D01*
X112420357Y-23462400D01*
X112456995Y-23530945D01*
X112471521Y-23558121D01*
X112475388Y-23570869D01*
X112484760Y-23593496D01*
X112498374Y-23613870D01*
X112515701Y-23631197D01*
X112536075Y-23644811D01*
X112558714Y-23654188D01*
X112582747Y-23658969D01*
X112607251Y-23658969D01*
X112631285Y-23654189D01*
X112653924Y-23644812D01*
X112674298Y-23631198D01*
X112691625Y-23613871D01*
X112705239Y-23593497D01*
X112714612Y-23570869D01*
X112718479Y-23558121D01*
X112733005Y-23530945D01*
X112769643Y-23462400D01*
X112838499Y-23378499D01*
X112922400Y-23309643D01*
X112991656Y-23272625D01*
X113018121Y-23258479D01*
X113030869Y-23254612D01*
X113053496Y-23245240D01*
X113073870Y-23231626D01*
X113091197Y-23214299D01*
X113104811Y-23193925D01*
X113114188Y-23171286D01*
X113118969Y-23147253D01*
X113118969Y-23122749D01*
X113118969Y-23122747D01*
X113341031Y-23122747D01*
X113341031Y-23147251D01*
X113345811Y-23171285D01*
X113355188Y-23193924D01*
X113368802Y-23214298D01*
X113386129Y-23231625D01*
X113406503Y-23245239D01*
X113429131Y-23254612D01*
X113441879Y-23258479D01*
X113468344Y-23272625D01*
X113537600Y-23309643D01*
X113621501Y-23378499D01*
X113690357Y-23462400D01*
X113726995Y-23530945D01*
X113741521Y-23558121D01*
X113745388Y-23570869D01*
X113754760Y-23593496D01*
X113768374Y-23613870D01*
X113785701Y-23631197D01*
X113806075Y-23644811D01*
X113828714Y-23654188D01*
X113852747Y-23658969D01*
X113877251Y-23658969D01*
X113901285Y-23654189D01*
X113923924Y-23644812D01*
X113944298Y-23631198D01*
X113961625Y-23613871D01*
X113975239Y-23593497D01*
X113984612Y-23570869D01*
X113988479Y-23558121D01*
X114003005Y-23530945D01*
X114039643Y-23462400D01*
X114108499Y-23378499D01*
X114192399Y-23309645D01*
X114192398Y-23309645D01*
X114192400Y-23309644D01*
X114236193Y-23286236D01*
X114256563Y-23272625D01*
X114273890Y-23255298D01*
X114287504Y-23234924D01*
X114296881Y-23212285D01*
X114301662Y-23188252D01*
X114301662Y-23163748D01*
X114296882Y-23139714D01*
X114287505Y-23117076D01*
X114273891Y-23096701D01*
X114256564Y-23079374D01*
X114236190Y-23065760D01*
X114213551Y-23056383D01*
X114189518Y-23051602D01*
X114177265Y-23051000D01*
X113949000Y-23051000D01*
X113949000Y-22822735D01*
X113946598Y-22798349D01*
X113939485Y-22774900D01*
X113927934Y-22753289D01*
X113912389Y-22734347D01*
X113893447Y-22718802D01*
X113871836Y-22707251D01*
X113848387Y-22700138D01*
X113824001Y-22697736D01*
X113799615Y-22700138D01*
X113776166Y-22707251D01*
X113754555Y-22718802D01*
X113735613Y-22734347D01*
X113720068Y-22753289D01*
X113713767Y-22763802D01*
X113690356Y-22807600D01*
X113641927Y-22866612D01*
X113621501Y-22891501D01*
X113537600Y-22960357D01*
X113469055Y-22996995D01*
X113441879Y-23011521D01*
X113429131Y-23015388D01*
X113406504Y-23024760D01*
X113386130Y-23038374D01*
X113368803Y-23055701D01*
X113355189Y-23076075D01*
X113345812Y-23098714D01*
X113341031Y-23122747D01*
X113118969Y-23122747D01*
X113114189Y-23098715D01*
X113104812Y-23076076D01*
X113091198Y-23055702D01*
X113073871Y-23038375D01*
X113053497Y-23024761D01*
X113030869Y-23015388D01*
X113018121Y-23011521D01*
X112990945Y-22996995D01*
X112922400Y-22960357D01*
X112838499Y-22891501D01*
X112769643Y-22807600D01*
X112723055Y-22720440D01*
X112718479Y-22711879D01*
X112714612Y-22699131D01*
X112705240Y-22676504D01*
X112691626Y-22656130D01*
X112674299Y-22638803D01*
X112653925Y-22625189D01*
X112631286Y-22615812D01*
X112607253Y-22611031D01*
X112582749Y-22611031D01*
X112558715Y-22615811D01*
X112536076Y-22625188D01*
X112515702Y-22638802D01*
X112498375Y-22656129D01*
X112484761Y-22676503D01*
X112475388Y-22699131D01*
X112471521Y-22711879D01*
X112466945Y-22720440D01*
X112420357Y-22807600D01*
X112351501Y-22891501D01*
X112267600Y-22960357D01*
X112199055Y-22996995D01*
X112171879Y-23011521D01*
X112159131Y-23015388D01*
X112136504Y-23024760D01*
X112116130Y-23038374D01*
X112098803Y-23055701D01*
X112085189Y-23076075D01*
X112075812Y-23098714D01*
X112071031Y-23122747D01*
X111848969Y-23122747D01*
X111844189Y-23098715D01*
X111834812Y-23076076D01*
X111821198Y-23055702D01*
X111803871Y-23038375D01*
X111783497Y-23024761D01*
X111760869Y-23015388D01*
X111748121Y-23011521D01*
X111720945Y-22996995D01*
X111652400Y-22960357D01*
X111568499Y-22891501D01*
X111499643Y-22807600D01*
X111453055Y-22720440D01*
X111448479Y-22711879D01*
X111444612Y-22699131D01*
X111435240Y-22676504D01*
X111421626Y-22656130D01*
X111404299Y-22638803D01*
X111383925Y-22625189D01*
X111361286Y-22615812D01*
X111337253Y-22611031D01*
X111312749Y-22611031D01*
X111288715Y-22615811D01*
X111266076Y-22625188D01*
X111245702Y-22638802D01*
X111228375Y-22656129D01*
X111214761Y-22676503D01*
X111205388Y-22699131D01*
X111201521Y-22711879D01*
X111196945Y-22720440D01*
X111150357Y-22807600D01*
X111081501Y-22891501D01*
X110997600Y-22960357D01*
X110929055Y-22996995D01*
X110901879Y-23011521D01*
X110889131Y-23015388D01*
X110866504Y-23024760D01*
X110846130Y-23038374D01*
X110828803Y-23055701D01*
X110815189Y-23076075D01*
X110805812Y-23098714D01*
X110801031Y-23122747D01*
X110578969Y-23122747D01*
X110574189Y-23098715D01*
X110564812Y-23076076D01*
X110551198Y-23055702D01*
X110533871Y-23038375D01*
X110513497Y-23024761D01*
X110490869Y-23015388D01*
X110478121Y-23011521D01*
X110450945Y-22996995D01*
X110382400Y-22960357D01*
X110298499Y-22891501D01*
X110229643Y-22807600D01*
X110183055Y-22720440D01*
X110178479Y-22711879D01*
X110174612Y-22699131D01*
X110165240Y-22676504D01*
X110151626Y-22656130D01*
X110134299Y-22638803D01*
X110113925Y-22625189D01*
X110091286Y-22615812D01*
X110067253Y-22611031D01*
X110042749Y-22611031D01*
X110018715Y-22615811D01*
X109996076Y-22625188D01*
X109975702Y-22638802D01*
X109958375Y-22656129D01*
X109944761Y-22676503D01*
X109935388Y-22699131D01*
X109931521Y-22711879D01*
X109926945Y-22720440D01*
X109880357Y-22807600D01*
X109811501Y-22891501D01*
X109727600Y-22960357D01*
X109659055Y-22996995D01*
X109631879Y-23011521D01*
X109619131Y-23015388D01*
X109596504Y-23024760D01*
X109576130Y-23038374D01*
X109558803Y-23055701D01*
X109545189Y-23076075D01*
X109535812Y-23098714D01*
X109531031Y-23122747D01*
X109308969Y-23122747D01*
X109304189Y-23098715D01*
X109294812Y-23076076D01*
X109281198Y-23055702D01*
X109263871Y-23038375D01*
X109243497Y-23024761D01*
X109220869Y-23015388D01*
X109208121Y-23011521D01*
X109180945Y-22996995D01*
X109112400Y-22960357D01*
X109028499Y-22891501D01*
X108959643Y-22807600D01*
X108913055Y-22720440D01*
X108908479Y-22711879D01*
X108876973Y-22608015D01*
X108866334Y-22500000D01*
X108876973Y-22391985D01*
X108908479Y-22288121D01*
X108948338Y-22213551D01*
X108959643Y-22192400D01*
X109028499Y-22108499D01*
X109112400Y-22039643D01*
X109187922Y-21999276D01*
X109208121Y-21988479D01*
X109311985Y-21956973D01*
X109392933Y-21949000D01*
X109447067Y-21949000D01*
X109528015Y-21956973D01*
X109528015Y-21956973D01*
G37*
G36*
X73545000Y-24269000D02*
G01*
X71743000Y-24269000D01*
X71743000Y-22467000D01*
X73545000Y-22467000D01*
X73545000Y-24269000D01*
X73545000Y-24269000D01*
G37*
G36*
X75294443Y-22473519D02*
G01*
X75360627Y-22480037D01*
X75530466Y-22531557D01*
X75686991Y-22615222D01*
X75715723Y-22638802D01*
X75824186Y-22727814D01*
X75902084Y-22822735D01*
X75936778Y-22865009D01*
X76020443Y-23021534D01*
X76071963Y-23191373D01*
X76089359Y-23368000D01*
X76071963Y-23544627D01*
X76020443Y-23714466D01*
X75936778Y-23870991D01*
X75916920Y-23895188D01*
X75824186Y-24008186D01*
X75729880Y-24085580D01*
X75686991Y-24120778D01*
X75530466Y-24204443D01*
X75360627Y-24255963D01*
X75303880Y-24261552D01*
X75228260Y-24269000D01*
X75139740Y-24269000D01*
X75064120Y-24261552D01*
X75007373Y-24255963D01*
X74837534Y-24204443D01*
X74681009Y-24120778D01*
X74638120Y-24085580D01*
X74543814Y-24008186D01*
X74451080Y-23895188D01*
X74431222Y-23870991D01*
X74347557Y-23714466D01*
X74296037Y-23544627D01*
X74278641Y-23368000D01*
X74296037Y-23191373D01*
X74347557Y-23021534D01*
X74431222Y-22865009D01*
X74465916Y-22822735D01*
X74543814Y-22727814D01*
X74652277Y-22638802D01*
X74681009Y-22615222D01*
X74837534Y-22531557D01*
X75007373Y-22480037D01*
X75073558Y-22473518D01*
X75139740Y-22467000D01*
X75228260Y-22467000D01*
X75294443Y-22473519D01*
X75294443Y-22473519D01*
G37*
G36*
X103901000Y-24015000D02*
G01*
X102099000Y-24015000D01*
X102099000Y-22213000D01*
X103901000Y-22213000D01*
X103901000Y-24015000D01*
X103901000Y-24015000D01*
G37*
G36*
X100568376Y-22219315D02*
G01*
X100636627Y-22226037D01*
X100806466Y-22277557D01*
X100962991Y-22361222D01*
X100979549Y-22374811D01*
X101100186Y-22473814D01*
X101183448Y-22575271D01*
X101212778Y-22611009D01*
X101296443Y-22767534D01*
X101347963Y-22937373D01*
X101365359Y-23114000D01*
X101347963Y-23290627D01*
X101296443Y-23460466D01*
X101212778Y-23616991D01*
X101189946Y-23644812D01*
X101100186Y-23754186D01*
X101032415Y-23809803D01*
X100962991Y-23866778D01*
X100806466Y-23950443D01*
X100636627Y-24001963D01*
X100573453Y-24008185D01*
X100504260Y-24015000D01*
X100415740Y-24015000D01*
X100346547Y-24008185D01*
X100283373Y-24001963D01*
X100113534Y-23950443D01*
X99957009Y-23866778D01*
X99887585Y-23809803D01*
X99819814Y-23754186D01*
X99730054Y-23644812D01*
X99707222Y-23616991D01*
X99623557Y-23460466D01*
X99572037Y-23290627D01*
X99554641Y-23114000D01*
X99572037Y-22937373D01*
X99623557Y-22767534D01*
X99707222Y-22611009D01*
X99736552Y-22575271D01*
X99819814Y-22473814D01*
X99940451Y-22374811D01*
X99957009Y-22361222D01*
X100113534Y-22277557D01*
X100283373Y-22226037D01*
X100351624Y-22219315D01*
X100415740Y-22213000D01*
X100504260Y-22213000D01*
X100568376Y-22219315D01*
X100568376Y-22219315D01*
G37*
G36*
X96548376Y-22219315D02*
G01*
X96616627Y-22226037D01*
X96786466Y-22277557D01*
X96942991Y-22361222D01*
X96959549Y-22374811D01*
X97080186Y-22473814D01*
X97163448Y-22575271D01*
X97192778Y-22611009D01*
X97276443Y-22767534D01*
X97327963Y-22937373D01*
X97345359Y-23114000D01*
X97327963Y-23290627D01*
X97276443Y-23460466D01*
X97192778Y-23616991D01*
X97169946Y-23644812D01*
X97080186Y-23754186D01*
X97012415Y-23809803D01*
X96942991Y-23866778D01*
X96786466Y-23950443D01*
X96616627Y-24001963D01*
X96553453Y-24008185D01*
X96484260Y-24015000D01*
X96395740Y-24015000D01*
X96326547Y-24008185D01*
X96263373Y-24001963D01*
X96093534Y-23950443D01*
X95937009Y-23866778D01*
X95867585Y-23809803D01*
X95799814Y-23754186D01*
X95710054Y-23644812D01*
X95687222Y-23616991D01*
X95603557Y-23460466D01*
X95552037Y-23290627D01*
X95534641Y-23114000D01*
X95552037Y-22937373D01*
X95603557Y-22767534D01*
X95687222Y-22611009D01*
X95716552Y-22575271D01*
X95799814Y-22473814D01*
X95920451Y-22374811D01*
X95937009Y-22361222D01*
X96093534Y-22277557D01*
X96263373Y-22226037D01*
X96331624Y-22219315D01*
X96395740Y-22213000D01*
X96484260Y-22213000D01*
X96548376Y-22219315D01*
X96548376Y-22219315D01*
G37*
G36*
X94801000Y-24015000D02*
G01*
X92999000Y-24015000D01*
X92999000Y-22213000D01*
X94801000Y-22213000D01*
X94801000Y-24015000D01*
X94801000Y-24015000D01*
G37*
M02*
