M48
; DRILL file {KiCad (5.1.4)-1} date 14/09/2020 15:12:20
; FORMAT={-:-/ absolute / metric / decimal}
; #@! TF.CreationDate,2020-09-14T15:12:20+01:00
; #@! TF.GenerationSoftware,Kicad,Pcbnew,(5.1.4)-1
FMAT,2
METRIC
T1C0.400
T2C0.450
T3C0.500
T4C0.650
T5C0.800
T6C1.000
T7C3.200
%
G90
G05
T1
X69.0Y-32.0
X80.25Y-36.75
X81.5Y-40.25
X82.5Y-33.0
X85.25Y-34.25
X86.25Y-33.75
X86.75Y-36.06
X88.25Y-39.25
X88.9Y-48.6
X88.9Y-53.4
X89.25Y-26.75
X90.0Y-33.25
X90.0Y-36.0
X92.5Y-59.25
X94.75Y-26.75
X98.25Y-29.0
X105.75Y-46.75
X107.0Y-21.5
X107.5Y-22.5
X108.0Y-39.5
X108.25Y-51.25
X109.0Y-39.5
X109.25Y-41.75
X110.5Y-30.5
X110.75Y-36.0
X111.0Y-43.75
X111.0Y-45.25
X112.25Y-30.25
X112.25Y-45.0
X113.25Y-50.75
X113.5Y-48.5
X113.5Y-55.0
T3
X125.87Y-24.13
X126.573Y-22.433
X126.573Y-25.827
X128.27Y-21.73
X128.27Y-26.53
X129.967Y-22.433
X129.967Y-25.827
X130.67Y-24.13
X63.64Y-24.13
X64.343Y-22.433
X64.343Y-25.827
X66.04Y-21.73
X66.04Y-26.53
X67.737Y-22.433
X67.737Y-25.827
X68.44Y-24.13
X63.64Y-62.23
X64.343Y-60.533
X64.343Y-63.927
X66.04Y-59.83
X66.04Y-64.63
X67.737Y-60.533
X67.737Y-63.927
X68.44Y-62.23
X125.87Y-62.23
X126.573Y-60.533
X126.573Y-63.927
X128.27Y-59.83
X128.27Y-64.63
X129.967Y-60.533
X129.967Y-63.927
X130.67Y-62.23
T4
X109.42Y-22.5
X109.42Y-23.77
X110.69Y-22.5
X110.69Y-23.77
X111.96Y-22.5
X111.96Y-23.77
X113.23Y-22.5
X113.23Y-23.77
X114.5Y-22.5
X114.5Y-23.77
T5
X63.25Y-51.75
X63.5Y-50.0
X63.5Y-53.5
X64.0Y-56.5
X65.0Y-54.25
X65.5Y-38.75
X65.5Y-43.0
X66.25Y-55.75
X67.75Y-53.5
X69.75Y-21.25
X69.75Y-55.25
X70.25Y-53.25
X71.0Y-63.5
X71.25Y-39.25
X72.25Y-35.75
X72.25Y-53.75
X72.5Y-44.0
X72.75Y-26.0
X73.5Y-60.25
X73.5Y-62.5
X74.0Y-53.5
X74.5Y-26.25
X75.0Y-48.75
X76.0Y-35.25
X77.0Y-44.0
X77.25Y-60.25
X77.25Y-63.0
X78.0Y-22.0
X78.0Y-25.25
X78.75Y-54.75
X79.25Y-51.0
X79.25Y-53.0
X80.0Y-65.0
X80.5Y-60.25
X80.75Y-39.0
X80.75Y-62.75
X82.0Y-55.75
X82.5Y-57.5
X82.5Y-64.75
X82.75Y-28.75
X82.75Y-41.5
X83.25Y-60.0
X83.75Y-62.5
X84.5Y-49.0
X84.75Y-44.75
X84.75Y-46.75
X85.0Y-57.5
X85.0Y-60.0
X86.75Y-21.25
X86.75Y-22.75
X87.25Y-62.25
X88.5Y-60.25
X89.0Y-62.5
X89.25Y-32.25
X90.75Y-46.75
X92.0Y-46.0
X92.75Y-34.5
X93.0Y-64.0
X93.25Y-37.25
X95.0Y-60.5
X96.0Y-25.8
X96.25Y-37.25
X97.0Y-39.75
X97.0Y-41.25
X97.5Y-34.25
X98.0Y-56.75
X98.25Y-53.0
X99.25Y-38.75
X99.25Y-40.25
X99.25Y-51.25
X100.0Y-65.0
X101.0Y-63.0
X101.25Y-38.5
X104.0Y-29.0
X104.25Y-26.5
X106.75Y-48.0
X107.0Y-26.25
X108.75Y-33.75
X109.0Y-58.25
X109.25Y-31.75
X110.5Y-26.25
X111.0Y-32.75
X111.0Y-34.75
X111.0Y-62.0
X111.25Y-64.0
X114.25Y-59.5
X114.25Y-61.75
X114.75Y-44.5
X116.75Y-22.5
X117.0Y-41.0
X117.25Y-36.0
X117.25Y-38.25
X118.5Y-40.75
X118.75Y-36.0
X118.75Y-38.0
X119.0Y-45.25
X119.25Y-26.0
X119.5Y-60.0
X120.0Y-49.75
X121.75Y-26.0
X122.25Y-23.0
X122.5Y-45.0
X122.5Y-47.5
X124.0Y-26.0
X124.75Y-54.75
X125.25Y-44.75
X126.5Y-50.75
X126.5Y-53.25
X127.25Y-57.25
T6
X100.46Y-23.114
X103.0Y-23.114
X72.644Y-23.368
X75.184Y-23.368
X129.5Y-45.4
X129.5Y-47.94
X129.5Y-50.48
X129.5Y-53.02
X117.75Y-57.0
X117.75Y-63.5
X122.25Y-57.0
X122.25Y-63.5
X93.9Y-23.114
X96.44Y-23.114
T7
X128.27Y-24.13
X66.04Y-24.13
X66.04Y-62.23
X128.27Y-62.23
T2
G00X66.05Y-28.925
M15
G01X66.85Y-28.925
M16
G05
G00X66.85Y-36.075
M15
G01X66.05Y-36.075
M16
G05
T0
M30
