%TF.GenerationSoftware,KiCad,Pcbnew,(5.99.0-8018-g9a0f685a75)*%
%TF.CreationDate,2021-03-03T13:41:14+00:00*%
%TF.ProjectId,CM4,434d342e-6b69-4636-9164-5f7063625858,rev?*%
%TF.SameCoordinates,Original*%
%TF.FileFunction,Legend,Bot*%
%TF.FilePolarity,Positive*%
%FSLAX46Y46*%
G04 Gerber Fmt 4.6, Leading zero omitted, Abs format (unit mm)*
G04 Created by KiCad (PCBNEW (5.99.0-8018-g9a0f685a75)) date 2021-03-03 13:41:14*
%MOMM*%
%LPD*%
G01*
G04 APERTURE LIST*
%ADD10C,0.150000*%
G04 APERTURE END LIST*
D10*
X121838095Y-79700000D02*
X121742857Y-79747619D01*
X121600000Y-79747619D01*
X121457142Y-79700000D01*
X121361904Y-79604761D01*
X121314285Y-79509523D01*
X121266666Y-79319047D01*
X121266666Y-79176190D01*
X121314285Y-78985714D01*
X121361904Y-78890476D01*
X121457142Y-78795238D01*
X121600000Y-78747619D01*
X121695238Y-78747619D01*
X121838095Y-78795238D01*
X121885714Y-78842857D01*
X121885714Y-79176190D01*
X121695238Y-79176190D01*
X122314285Y-78747619D02*
X122314285Y-79747619D01*
X122885714Y-78747619D01*
X122885714Y-79747619D01*
X123361904Y-78747619D02*
X123361904Y-79747619D01*
X123600000Y-79747619D01*
X123742857Y-79700000D01*
X123838095Y-79604761D01*
X123885714Y-79509523D01*
X123933333Y-79319047D01*
X123933333Y-79176190D01*
X123885714Y-78985714D01*
X123838095Y-78890476D01*
X123742857Y-78795238D01*
X123600000Y-78747619D01*
X123361904Y-78747619D01*
X127733333Y-78647619D02*
X127400000Y-79123809D01*
X127161904Y-78647619D02*
X127161904Y-79647619D01*
X127542857Y-79647619D01*
X127638095Y-79600000D01*
X127685714Y-79552380D01*
X127733333Y-79457142D01*
X127733333Y-79314285D01*
X127685714Y-79219047D01*
X127638095Y-79171428D01*
X127542857Y-79123809D01*
X127161904Y-79123809D01*
X128066666Y-79647619D02*
X128733333Y-78647619D01*
X128733333Y-79647619D02*
X128066666Y-78647619D01*
X124538095Y-79647619D02*
X125109523Y-79647619D01*
X124823809Y-78647619D02*
X124823809Y-79647619D01*
X125347619Y-79647619D02*
X126014285Y-78647619D01*
X126014285Y-79647619D02*
X125347619Y-78647619D01*
M02*
