%TF.GenerationSoftware,KiCad,Pcbnew,(5.99.0-8018-g9a0f685a75)*%
%TF.CreationDate,2021-02-23T23:23:09+00:00*%
%TF.ProjectId,CM4,434d342e-6b69-4636-9164-5f7063625858,rev?*%
%TF.SameCoordinates,Original*%
%TF.FileFunction,Soldermask,Top*%
%TF.FilePolarity,Negative*%
%FSLAX46Y46*%
G04 Gerber Fmt 4.6, Leading zero omitted, Abs format (unit mm)*
G04 Created by KiCad (PCBNEW (5.99.0-8018-g9a0f685a75)) date 2021-02-23 23:23:09*
%MOMM*%
%LPD*%
G01*
G04 APERTURE LIST*
G04 Aperture macros list*
%AMRoundRect*
0 Rectangle with rounded corners*
0 $1 Rounding radius*
0 $2 $3 $4 $5 $6 $7 $8 $9 X,Y pos of 4 corners*
0 Add a 4 corners polygon primitive as box body*
4,1,4,$2,$3,$4,$5,$6,$7,$8,$9,$2,$3,0*
0 Add four circle primitives for the rounded corners*
1,1,$1+$1,$2,$3,0*
1,1,$1+$1,$4,$5,0*
1,1,$1+$1,$6,$7,0*
1,1,$1+$1,$8,$9,0*
0 Add four rect primitives between the rounded corners*
20,1,$1+$1,$2,$3,$4,$5,0*
20,1,$1+$1,$4,$5,$6,$7,0*
20,1,$1+$1,$6,$7,$8,$9,0*
20,1,$1+$1,$8,$9,$2,$3,0*%
G04 Aperture macros list end*
%ADD10RoundRect,0.225000X-0.250000X0.225000X-0.250000X-0.225000X0.250000X-0.225000X0.250000X0.225000X0*%
%ADD11RoundRect,0.135000X-0.135000X-0.185000X0.135000X-0.185000X0.135000X0.185000X-0.135000X0.185000X0*%
%ADD12R,1.000000X1.000000*%
%ADD13O,1.000000X1.000000*%
%ADD14RoundRect,0.140000X-0.170000X0.140000X-0.170000X-0.140000X0.170000X-0.140000X0.170000X0.140000X0*%
%ADD15RoundRect,0.250000X0.325000X0.650000X-0.325000X0.650000X-0.325000X-0.650000X0.325000X-0.650000X0*%
%ADD16RoundRect,0.200000X0.200000X0.275000X-0.200000X0.275000X-0.200000X-0.275000X0.200000X-0.275000X0*%
%ADD17RoundRect,0.250000X0.625000X-0.375000X0.625000X0.375000X-0.625000X0.375000X-0.625000X-0.375000X0*%
%ADD18RoundRect,0.250000X-0.425000X0.450000X-0.425000X-0.450000X0.425000X-0.450000X0.425000X0.450000X0*%
%ADD19RoundRect,0.250000X0.425000X-0.450000X0.425000X0.450000X-0.425000X0.450000X-0.425000X-0.450000X0*%
%ADD20RoundRect,0.140000X-0.140000X-0.170000X0.140000X-0.170000X0.140000X0.170000X-0.140000X0.170000X0*%
%ADD21RoundRect,0.218750X0.256250X-0.218750X0.256250X0.218750X-0.256250X0.218750X-0.256250X-0.218750X0*%
%ADD22RoundRect,0.140000X0.140000X0.170000X-0.140000X0.170000X-0.140000X-0.170000X0.140000X-0.170000X0*%
%ADD23C,2.050000*%
%ADD24C,2.250000*%
%ADD25RoundRect,0.200000X-0.275000X0.200000X-0.275000X-0.200000X0.275000X-0.200000X0.275000X0.200000X0*%
%ADD26C,0.670000*%
%ADD27R,1.450000X0.300000*%
%ADD28RoundRect,0.500000X0.300000X0.000000X0.300000X0.000000X-0.300000X0.000000X-0.300000X0.000000X0*%
%ADD29RoundRect,0.250000X-0.475000X0.250000X-0.475000X-0.250000X0.475000X-0.250000X0.475000X0.250000X0*%
%ADD30RoundRect,0.250000X0.650000X-0.325000X0.650000X0.325000X-0.650000X0.325000X-0.650000X-0.325000X0*%
%ADD31C,1.500000*%
%ADD32RoundRect,0.135000X0.135000X0.185000X-0.135000X0.185000X-0.135000X-0.185000X0.135000X-0.185000X0*%
%ADD33RoundRect,0.150000X0.150000X-0.512500X0.150000X0.512500X-0.150000X0.512500X-0.150000X-0.512500X0*%
%ADD34RoundRect,0.250000X0.475000X-0.250000X0.475000X0.250000X-0.475000X0.250000X-0.475000X-0.250000X0*%
%ADD35RoundRect,0.225000X-0.225000X-0.250000X0.225000X-0.250000X0.225000X0.250000X-0.225000X0.250000X0*%
%ADD36RoundRect,0.218750X-0.218750X-0.256250X0.218750X-0.256250X0.218750X0.256250X-0.218750X0.256250X0*%
%ADD37R,0.980000X3.400000*%
%ADD38R,1.200000X1.400000*%
%ADD39R,1.700000X1.700000*%
%ADD40O,1.700000X1.700000*%
%ADD41RoundRect,0.140000X0.170000X-0.140000X0.170000X0.140000X-0.170000X0.140000X-0.170000X-0.140000X0*%
%ADD42R,1.200000X0.600000*%
%ADD43RoundRect,0.250000X-0.625000X0.312500X-0.625000X-0.312500X0.625000X-0.312500X0.625000X0.312500X0*%
%ADD44R,1.200000X0.400000*%
%ADD45RoundRect,0.225000X0.250000X-0.225000X0.250000X0.225000X-0.250000X0.225000X-0.250000X-0.225000X0*%
%ADD46RoundRect,0.135000X0.185000X-0.135000X0.185000X0.135000X-0.185000X0.135000X-0.185000X-0.135000X0*%
%ADD47RoundRect,0.250000X0.450000X0.425000X-0.450000X0.425000X-0.450000X-0.425000X0.450000X-0.425000X0*%
%ADD48RoundRect,0.075000X-0.725000X-0.075000X0.725000X-0.075000X0.725000X0.075000X-0.725000X0.075000X0*%
%ADD49RoundRect,0.075000X-0.075000X-0.725000X0.075000X-0.725000X0.075000X0.725000X-0.075000X0.725000X0*%
%ADD50R,0.600000X1.200000*%
%ADD51R,1.200000X0.700000*%
%ADD52R,0.800000X1.000000*%
%ADD53R,2.800000X1.000000*%
%ADD54R,1.900000X1.300000*%
%ADD55R,1.200000X1.000000*%
%ADD56R,1.525000X0.650000*%
%ADD57R,2.290000X2.290000*%
%ADD58RoundRect,0.225000X0.225000X0.250000X-0.225000X0.250000X-0.225000X-0.250000X0.225000X-0.250000X0*%
%ADD59R,1.000001X0.599999*%
%ADD60RoundRect,0.200000X0.275000X-0.200000X0.275000X0.200000X-0.275000X0.200000X-0.275000X-0.200000X0*%
%ADD61RoundRect,0.218750X-0.218750X-0.381250X0.218750X-0.381250X0.218750X0.381250X-0.218750X0.381250X0*%
%ADD62RoundRect,0.135000X-0.185000X0.135000X-0.185000X-0.135000X0.185000X-0.135000X0.185000X0.135000X0*%
%ADD63R,0.850000X0.250000*%
%ADD64R,1.310000X2.120000*%
G04 APERTURE END LIST*
D10*
%TO.C,C3*%
X141000000Y-109725000D03*
X141000000Y-111275000D03*
%TD*%
D11*
%TO.C,R12*%
X97390000Y-92400000D03*
X98410000Y-92400000D03*
%TD*%
D12*
%TO.C,J3*%
X137900000Y-77100000D03*
D13*
X137900000Y-78370000D03*
X136630000Y-77100000D03*
X136630000Y-78370000D03*
X135360000Y-77100000D03*
X135360000Y-78370000D03*
X134090000Y-77100000D03*
X134090000Y-78370000D03*
X132820000Y-77100000D03*
X132820000Y-78370000D03*
%TD*%
D10*
%TO.C,C5*%
X141000000Y-113225000D03*
X141000000Y-114775000D03*
%TD*%
D14*
%TO.C,C12*%
X107900000Y-94220000D03*
X107900000Y-95180000D03*
%TD*%
D15*
%TO.C,C15*%
X134075000Y-103600000D03*
X131125000Y-103600000D03*
%TD*%
D16*
%TO.C,R15*%
X110575000Y-85500000D03*
X108925000Y-85500000D03*
%TD*%
D17*
%TO.C,F1*%
X145000000Y-114400000D03*
X145000000Y-111600000D03*
%TD*%
D18*
%TO.C,C25*%
X120142000Y-97964000D03*
X120142000Y-100664000D03*
%TD*%
D19*
%TO.C,C32*%
X112750000Y-85100000D03*
X112750000Y-82400000D03*
%TD*%
D14*
%TO.C,C18*%
X120100000Y-87020000D03*
X120100000Y-87980000D03*
%TD*%
D20*
%TO.C,C34*%
X143770000Y-76750000D03*
X144730000Y-76750000D03*
%TD*%
D21*
%TO.C,D2*%
X126900000Y-104187500D03*
X126900000Y-102612500D03*
%TD*%
D11*
%TO.C,R3*%
X105240000Y-99250000D03*
X106260000Y-99250000D03*
%TD*%
D14*
%TO.C,C17*%
X140300000Y-83820000D03*
X140300000Y-84780000D03*
%TD*%
D18*
%TO.C,C13*%
X140000000Y-99350000D03*
X140000000Y-102050000D03*
%TD*%
D22*
%TO.C,C16*%
X124780000Y-101000000D03*
X123820000Y-101000000D03*
%TD*%
D23*
%TO.C,J2*%
X101500000Y-80500000D03*
D24*
X104040000Y-77960000D03*
X98960000Y-83040000D03*
X98960000Y-77960000D03*
X104040000Y-83040000D03*
%TD*%
D25*
%TO.C,R14*%
X110000000Y-92925000D03*
X110000000Y-94575000D03*
%TD*%
D11*
%TO.C,R10*%
X97490000Y-98500000D03*
X98510000Y-98500000D03*
%TD*%
D26*
%TO.C,J1*%
X157350000Y-113600000D03*
X157350000Y-107800000D03*
D27*
X155900000Y-114100000D03*
X155900000Y-113300000D03*
X155900000Y-111950000D03*
X155900000Y-110950000D03*
X155900000Y-110450000D03*
X155900000Y-109450000D03*
X155900000Y-108100000D03*
X155900000Y-107300000D03*
X155900000Y-107600000D03*
X155900000Y-108400000D03*
X155900000Y-108950000D03*
X155900000Y-109950000D03*
X155900000Y-111450000D03*
X155900000Y-112450000D03*
X155900000Y-113000000D03*
X155900000Y-113800000D03*
D28*
X156820000Y-115020000D03*
X156820000Y-106380000D03*
X161000000Y-115020000D03*
X161000000Y-106380000D03*
%TD*%
D29*
%TO.C,C9*%
X109100000Y-112050000D03*
X109100000Y-113950000D03*
%TD*%
D30*
%TO.C,C19*%
X140800000Y-81075000D03*
X140800000Y-78125000D03*
%TD*%
D31*
%TO.C,S1*%
X161800000Y-100650000D03*
X161800000Y-94150000D03*
X157300000Y-94150000D03*
X157300000Y-100650000D03*
%TD*%
D32*
%TO.C,R20*%
X120710000Y-91300000D03*
X119690000Y-91300000D03*
%TD*%
D33*
%TO.C,U4*%
X150250000Y-105837500D03*
X151200000Y-105837500D03*
X152150000Y-105837500D03*
X152150000Y-103562500D03*
X151200000Y-103562500D03*
X150250000Y-103562500D03*
%TD*%
D34*
%TO.C,C8*%
X106200000Y-108850000D03*
X106200000Y-106950000D03*
%TD*%
D35*
%TO.C,C27*%
X121825000Y-112250000D03*
X123375000Y-112250000D03*
%TD*%
D31*
%TO.C,FID3*%
X148900000Y-93000000D03*
%TD*%
D34*
%TO.C,C6*%
X103800000Y-108850000D03*
X103800000Y-106950000D03*
%TD*%
D32*
%TO.C,R17*%
X144110000Y-80200000D03*
X143090000Y-80200000D03*
%TD*%
D36*
%TO.C,D3*%
X151500000Y-95100000D03*
X153075000Y-95100000D03*
%TD*%
D11*
%TO.C,R6*%
X100990000Y-85750000D03*
X102010000Y-85750000D03*
%TD*%
D32*
%TO.C,R19*%
X144110000Y-81600000D03*
X143090000Y-81600000D03*
%TD*%
D37*
%TO.C,L2*%
X108615000Y-108300000D03*
X110985000Y-108300000D03*
%TD*%
D22*
%TO.C,C30*%
X99980000Y-87000000D03*
X99020000Y-87000000D03*
%TD*%
D20*
%TO.C,C21*%
X122920000Y-81000000D03*
X123880000Y-81000000D03*
%TD*%
D38*
%TO.C,Y1*%
X116350000Y-88300000D03*
X116350000Y-90500000D03*
X118050000Y-90500000D03*
X118050000Y-88300000D03*
%TD*%
D32*
%TO.C,R23*%
X143510000Y-87300000D03*
X142490000Y-87300000D03*
%TD*%
D39*
%TO.C,J7*%
X127800000Y-77500000D03*
D40*
X125260000Y-77500000D03*
X122720000Y-77500000D03*
%TD*%
D22*
%TO.C,C31*%
X110180000Y-83700000D03*
X109220000Y-83700000D03*
%TD*%
D21*
%TO.C,FB2*%
X118110000Y-99466500D03*
X118110000Y-97891500D03*
%TD*%
D11*
%TO.C,R4*%
X105490000Y-92750000D03*
X106510000Y-92750000D03*
%TD*%
D41*
%TO.C,C20*%
X120300000Y-85080000D03*
X120300000Y-84120000D03*
%TD*%
D29*
%TO.C,C7*%
X99300000Y-112650000D03*
X99300000Y-114550000D03*
%TD*%
D42*
%TO.C,IC3*%
X103000000Y-92700000D03*
X103000000Y-91750000D03*
X103000000Y-90800000D03*
X100500000Y-90800000D03*
X100500000Y-92700000D03*
%TD*%
D43*
%TO.C,R1*%
X151000000Y-111537500D03*
X151000000Y-114462500D03*
%TD*%
D32*
%TO.C,R9*%
X98510000Y-96750000D03*
X97490000Y-96750000D03*
%TD*%
D44*
%TO.C,IC5*%
X108800000Y-88600000D03*
X108800000Y-89250000D03*
X108800000Y-89900000D03*
X110700000Y-89900000D03*
X110700000Y-88600000D03*
%TD*%
D45*
%TO.C,C22*%
X119253000Y-110122000D03*
X119253000Y-108572000D03*
%TD*%
D14*
%TO.C,C26*%
X115443000Y-97564000D03*
X115443000Y-98524000D03*
%TD*%
D46*
%TO.C,R27*%
X127100000Y-81010000D03*
X127100000Y-79990000D03*
%TD*%
D41*
%TO.C,C50*%
X154100000Y-99980000D03*
X154100000Y-99020000D03*
%TD*%
D43*
%TO.C,R2*%
X148000000Y-111537500D03*
X148000000Y-114462500D03*
%TD*%
D20*
%TO.C,C48*%
X116620000Y-92200000D03*
X117580000Y-92200000D03*
%TD*%
D47*
%TO.C,C23*%
X118190000Y-95758000D03*
X115490000Y-95758000D03*
%TD*%
D16*
%TO.C,R28*%
X153125000Y-97000000D03*
X151475000Y-97000000D03*
%TD*%
D48*
%TO.C,U2*%
X122525000Y-85100000D03*
X122525000Y-85600000D03*
X122525000Y-86100000D03*
X122525000Y-86600000D03*
X122525000Y-87100000D03*
X122525000Y-87600000D03*
X122525000Y-88100000D03*
X122525000Y-88600000D03*
X122525000Y-89100000D03*
X122525000Y-89600000D03*
X122525000Y-90100000D03*
X122525000Y-90600000D03*
X122525000Y-91100000D03*
X122525000Y-91600000D03*
X122525000Y-92100000D03*
X122525000Y-92600000D03*
X122525000Y-93100000D03*
X122525000Y-93600000D03*
X122525000Y-94100000D03*
X122525000Y-94600000D03*
X122525000Y-95100000D03*
X122525000Y-95600000D03*
X122525000Y-96100000D03*
X122525000Y-96600000D03*
X122525000Y-97100000D03*
D49*
X124200000Y-98775000D03*
X124700000Y-98775000D03*
X125200000Y-98775000D03*
X125700000Y-98775000D03*
X126200000Y-98775000D03*
X126700000Y-98775000D03*
X127200000Y-98775000D03*
X127700000Y-98775000D03*
X128200000Y-98775000D03*
X128700000Y-98775000D03*
X129200000Y-98775000D03*
X129700000Y-98775000D03*
X130200000Y-98775000D03*
X130700000Y-98775000D03*
X131200000Y-98775000D03*
X131700000Y-98775000D03*
X132200000Y-98775000D03*
X132700000Y-98775000D03*
X133200000Y-98775000D03*
X133700000Y-98775000D03*
X134200000Y-98775000D03*
X134700000Y-98775000D03*
X135200000Y-98775000D03*
X135700000Y-98775000D03*
X136200000Y-98775000D03*
D48*
X137875000Y-97100000D03*
X137875000Y-96600000D03*
X137875000Y-96100000D03*
X137875000Y-95600000D03*
X137875000Y-95100000D03*
X137875000Y-94600000D03*
X137875000Y-94100000D03*
X137875000Y-93600000D03*
X137875000Y-93100000D03*
X137875000Y-92600000D03*
X137875000Y-92100000D03*
X137875000Y-91600000D03*
X137875000Y-91100000D03*
X137875000Y-90600000D03*
X137875000Y-90100000D03*
X137875000Y-89600000D03*
X137875000Y-89100000D03*
X137875000Y-88600000D03*
X137875000Y-88100000D03*
X137875000Y-87600000D03*
X137875000Y-87100000D03*
X137875000Y-86600000D03*
X137875000Y-86100000D03*
X137875000Y-85600000D03*
X137875000Y-85100000D03*
D49*
X136200000Y-83425000D03*
X135700000Y-83425000D03*
X135200000Y-83425000D03*
X134700000Y-83425000D03*
X134200000Y-83425000D03*
X133700000Y-83425000D03*
X133200000Y-83425000D03*
X132700000Y-83425000D03*
X132200000Y-83425000D03*
X131700000Y-83425000D03*
X131200000Y-83425000D03*
X130700000Y-83425000D03*
X130200000Y-83425000D03*
X129700000Y-83425000D03*
X129200000Y-83425000D03*
X128700000Y-83425000D03*
X128200000Y-83425000D03*
X127700000Y-83425000D03*
X127200000Y-83425000D03*
X126700000Y-83425000D03*
X126200000Y-83425000D03*
X125700000Y-83425000D03*
X125200000Y-83425000D03*
X124700000Y-83425000D03*
X124200000Y-83425000D03*
%TD*%
D11*
%TO.C,R11*%
X97490000Y-89700000D03*
X98510000Y-89700000D03*
%TD*%
D37*
%TO.C,L1*%
X101185000Y-108000000D03*
X98815000Y-108000000D03*
%TD*%
D50*
%TO.C,Q1*%
X146450000Y-105750000D03*
X144550000Y-105750000D03*
X145500000Y-108250000D03*
%TD*%
D31*
%TO.C,FID2*%
X115000000Y-113750000D03*
%TD*%
D32*
%TO.C,R5*%
X106700000Y-97400000D03*
X105680000Y-97400000D03*
%TD*%
D35*
%TO.C,C28*%
X118224000Y-106426000D03*
X119774000Y-106426000D03*
%TD*%
D41*
%TO.C,C33*%
X112500000Y-89250000D03*
X112500000Y-88290000D03*
%TD*%
D32*
%TO.C,R7*%
X106510000Y-94250000D03*
X105490000Y-94250000D03*
%TD*%
D51*
%TO.C,J4*%
X146875000Y-80725000D03*
X146875000Y-81825000D03*
X146875000Y-82925000D03*
X146875000Y-84025000D03*
X146875000Y-85125000D03*
X146875000Y-86225000D03*
X146875000Y-87325000D03*
X146875000Y-88425000D03*
X146875000Y-89375000D03*
D52*
X157375000Y-90325000D03*
D53*
X161525000Y-90325000D03*
D54*
X161975000Y-76825000D03*
D55*
X146875000Y-79175000D03*
X151175000Y-90325000D03*
%TD*%
D20*
%TO.C,C10*%
X105620000Y-95900000D03*
X106580000Y-95900000D03*
%TD*%
%TO.C,C29*%
X119520000Y-93091000D03*
X120480000Y-93091000D03*
%TD*%
D56*
%TO.C,IC1*%
X133038000Y-109595000D03*
X133038000Y-110865000D03*
X133038000Y-112135000D03*
X133038000Y-113405000D03*
X138462000Y-113405000D03*
X138462000Y-112135000D03*
X138462000Y-110865000D03*
X138462000Y-109595000D03*
D57*
X135750000Y-111500000D03*
%TD*%
D31*
%TO.C,FID1*%
X109500000Y-77750000D03*
%TD*%
D20*
%TO.C,C49*%
X116620000Y-86600000D03*
X117580000Y-86600000D03*
%TD*%
D32*
%TO.C,R8*%
X106510000Y-90700000D03*
X105490000Y-90700000D03*
%TD*%
D58*
%TO.C,C1*%
X130525000Y-109750000D03*
X128975000Y-109750000D03*
%TD*%
D20*
%TO.C,C11*%
X102540000Y-89000000D03*
X103500000Y-89000000D03*
%TD*%
D42*
%TO.C,IC2*%
X103000000Y-98700000D03*
X103000000Y-97750000D03*
X103000000Y-96800000D03*
X100500000Y-96800000D03*
X100500000Y-98700000D03*
%TD*%
D22*
%TO.C,C14*%
X137280000Y-101000000D03*
X136320000Y-101000000D03*
%TD*%
D32*
%TO.C,R22*%
X144010000Y-83400000D03*
X142990000Y-83400000D03*
%TD*%
D59*
%TO.C,U3*%
X121624999Y-108049999D03*
X121624999Y-109000000D03*
X121624999Y-109949998D03*
X124374999Y-109949998D03*
X124374999Y-109000000D03*
X124374999Y-108049999D03*
%TD*%
D60*
%TO.C,R16*%
X106000000Y-88325000D03*
X106000000Y-86675000D03*
%TD*%
D32*
%TO.C,R24*%
X143510000Y-88600000D03*
X142490000Y-88600000D03*
%TD*%
D58*
%TO.C,C4*%
X130525000Y-112000000D03*
X128975000Y-112000000D03*
%TD*%
D61*
%TO.C,FB1*%
X144037500Y-103500000D03*
X146162500Y-103500000D03*
%TD*%
D14*
%TO.C,C24*%
X120200000Y-94220000D03*
X120200000Y-95180000D03*
%TD*%
D35*
%TO.C,C2*%
X140825000Y-107000000D03*
X142375000Y-107000000D03*
%TD*%
D62*
%TO.C,R18*%
X116586000Y-97534000D03*
X116586000Y-98554000D03*
%TD*%
D63*
%TO.C,IC4*%
X102750000Y-111575000D03*
X102750000Y-112025000D03*
X102750000Y-112475000D03*
X102750000Y-112925000D03*
X102750000Y-113375000D03*
X102750000Y-113825000D03*
X105650000Y-113825000D03*
X105650000Y-113375000D03*
X105650000Y-112925000D03*
X105650000Y-112475000D03*
X105650000Y-112025000D03*
X105650000Y-111575000D03*
D64*
X104200000Y-112700000D03*
%TD*%
D60*
%TO.C,R21*%
X124700000Y-104225000D03*
X124700000Y-102575000D03*
%TD*%
D25*
%TO.C,R13*%
X109500000Y-97175000D03*
X109500000Y-98825000D03*
%TD*%
M02*
