%TF.GenerationSoftware,KiCad,Pcbnew,(5.99.0-7611-gb7875e4d41)*%
%TF.CreationDate,2020-12-16T01:58:45+00:00*%
%TF.ProjectId,CM4,434d342e-6b69-4636-9164-5f7063625858,rev?*%
%TF.SameCoordinates,Original*%
%TF.FileFunction,Soldermask,Top*%
%TF.FilePolarity,Negative*%
%FSLAX46Y46*%
G04 Gerber Fmt 4.6, Leading zero omitted, Abs format (unit mm)*
G04 Created by KiCad (PCBNEW (5.99.0-7611-gb7875e4d41)) date 2020-12-16 01:58:45*
%MOMM*%
%LPD*%
G01*
G04 APERTURE LIST*
G04 Aperture macros list*
%AMRoundRect*
0 Rectangle with rounded corners*
0 $1 Rounding radius*
0 $2 $3 $4 $5 $6 $7 $8 $9 X,Y pos of 4 corners*
0 Add a 4 corners polygon primitive as box body*
4,1,4,$2,$3,$4,$5,$6,$7,$8,$9,$2,$3,0*
0 Add four circle primitives for the rounded corners*
1,1,$1+$1,$2,$3,0*
1,1,$1+$1,$4,$5,0*
1,1,$1+$1,$6,$7,0*
1,1,$1+$1,$8,$9,0*
0 Add four rect primitives between the rounded corners*
20,1,$1+$1,$2,$3,$4,$5,0*
20,1,$1+$1,$4,$5,$6,$7,0*
20,1,$1+$1,$6,$7,$8,$9,0*
20,1,$1+$1,$8,$9,$2,$3,0*%
G04 Aperture macros list end*
%ADD10R,1.200000X0.700000*%
%ADD11R,0.800000X1.000000*%
%ADD12R,1.900000X1.300000*%
%ADD13R,2.800000X1.000000*%
%ADD14R,1.200000X1.000000*%
%ADD15R,1.000000X1.000000*%
%ADD16O,1.000000X1.000000*%
%ADD17R,1.700000X1.700000*%
%ADD18O,1.700000X1.700000*%
%ADD19RoundRect,0.250000X0.325000X0.650000X-0.325000X0.650000X-0.325000X-0.650000X0.325000X-0.650000X0*%
%ADD20RoundRect,0.250000X0.475000X-0.250000X0.475000X0.250000X-0.475000X0.250000X-0.475000X-0.250000X0*%
%ADD21RoundRect,0.250000X0.625000X-0.375000X0.625000X0.375000X-0.625000X0.375000X-0.625000X-0.375000X0*%
%ADD22RoundRect,0.250000X-0.625000X0.312500X-0.625000X-0.312500X0.625000X-0.312500X0.625000X0.312500X0*%
%ADD23RoundRect,0.135000X-0.185000X0.135000X-0.185000X-0.135000X0.185000X-0.135000X0.185000X0.135000X0*%
%ADD24RoundRect,0.250000X-0.425000X0.450000X-0.425000X-0.450000X0.425000X-0.450000X0.425000X0.450000X0*%
%ADD25RoundRect,0.140000X-0.170000X0.140000X-0.170000X-0.140000X0.170000X-0.140000X0.170000X0.140000X0*%
%ADD26RoundRect,0.150000X0.512500X0.150000X-0.512500X0.150000X-0.512500X-0.150000X0.512500X-0.150000X0*%
%ADD27RoundRect,0.135000X0.135000X0.185000X-0.135000X0.185000X-0.135000X-0.185000X0.135000X-0.185000X0*%
%ADD28RoundRect,0.250000X-1.100000X0.325000X-1.100000X-0.325000X1.100000X-0.325000X1.100000X0.325000X0*%
%ADD29RoundRect,0.218750X0.256250X-0.218750X0.256250X0.218750X-0.256250X0.218750X-0.256250X-0.218750X0*%
%ADD30RoundRect,0.250000X-0.262500X-0.450000X0.262500X-0.450000X0.262500X0.450000X-0.262500X0.450000X0*%
%ADD31RoundRect,0.140000X-0.140000X-0.170000X0.140000X-0.170000X0.140000X0.170000X-0.140000X0.170000X0*%
%ADD32RoundRect,0.140000X0.140000X0.170000X-0.140000X0.170000X-0.140000X-0.170000X0.140000X-0.170000X0*%
%ADD33RoundRect,0.135000X-0.135000X-0.185000X0.135000X-0.185000X0.135000X0.185000X-0.135000X0.185000X0*%
%ADD34RoundRect,0.140000X0.170000X-0.140000X0.170000X0.140000X-0.170000X0.140000X-0.170000X-0.140000X0*%
%ADD35RoundRect,0.250000X-0.475000X0.250000X-0.475000X-0.250000X0.475000X-0.250000X0.475000X0.250000X0*%
%ADD36C,0.670000*%
%ADD37R,1.450000X0.300000*%
%ADD38RoundRect,0.500000X0.300000X0.000000X0.300000X0.000000X-0.300000X0.000000X-0.300000X0.000000X0*%
%ADD39RoundRect,0.250000X0.650000X-0.325000X0.650000X0.325000X-0.650000X0.325000X-0.650000X-0.325000X0*%
%ADD40C,1.500000*%
%ADD41RoundRect,0.250000X0.250000X0.475000X-0.250000X0.475000X-0.250000X-0.475000X0.250000X-0.475000X0*%
%ADD42RoundRect,0.225000X-0.225000X-0.250000X0.225000X-0.250000X0.225000X0.250000X-0.225000X0.250000X0*%
%ADD43R,0.800000X0.350000*%
%ADD44R,0.350000X0.800000*%
%ADD45R,2.800000X2.800000*%
%ADD46RoundRect,0.375000X0.375000X0.725000X-0.375000X0.725000X-0.375000X-0.725000X0.375000X-0.725000X0*%
%ADD47R,1.525000X0.650000*%
%ADD48RoundRect,0.250000X0.325000X1.100000X-0.325000X1.100000X-0.325000X-1.100000X0.325000X-1.100000X0*%
%ADD49RoundRect,0.218750X-0.218750X-0.256250X0.218750X-0.256250X0.218750X0.256250X-0.218750X0.256250X0*%
%ADD50R,0.980000X3.400000*%
%ADD51R,1.200000X1.400000*%
%ADD52R,1.000001X0.599999*%
%ADD53RoundRect,0.200000X0.200000X0.275000X-0.200000X0.275000X-0.200000X-0.275000X0.200000X-0.275000X0*%
%ADD54RoundRect,0.225000X0.250000X-0.225000X0.250000X0.225000X-0.250000X0.225000X-0.250000X-0.225000X0*%
%ADD55RoundRect,0.135000X0.185000X-0.135000X0.185000X0.135000X-0.185000X0.135000X-0.185000X-0.135000X0*%
%ADD56RoundRect,0.250000X0.450000X0.425000X-0.450000X0.425000X-0.450000X-0.425000X0.450000X-0.425000X0*%
%ADD57RoundRect,0.075000X-0.725000X-0.075000X0.725000X-0.075000X0.725000X0.075000X-0.725000X0.075000X0*%
%ADD58RoundRect,0.075000X-0.075000X-0.725000X0.075000X-0.725000X0.075000X0.725000X-0.075000X0.725000X0*%
%ADD59R,0.600000X1.200000*%
%ADD60R,1.200000X0.600000*%
%ADD61RoundRect,0.200000X0.275000X-0.200000X0.275000X0.200000X-0.275000X0.200000X-0.275000X-0.200000X0*%
%ADD62RoundRect,0.218750X-0.218750X-0.381250X0.218750X-0.381250X0.218750X0.381250X-0.218750X0.381250X0*%
%ADD63R,0.850000X0.250000*%
%ADD64R,1.310000X2.120000*%
%ADD65C,2.050000*%
%ADD66C,2.250000*%
G04 APERTURE END LIST*
D10*
%TO.C,J4*%
X147825000Y-80625000D03*
X147825000Y-81725000D03*
X147825000Y-82825000D03*
X147825000Y-83925000D03*
X147825000Y-85025000D03*
X147825000Y-86125000D03*
X147825000Y-87225000D03*
X147825000Y-88325000D03*
X147825000Y-89275000D03*
D11*
X158325000Y-90225000D03*
D12*
X162925000Y-76725000D03*
D13*
X162475000Y-90225000D03*
D14*
X152125000Y-90225000D03*
X147825000Y-79075000D03*
%TD*%
D15*
%TO.C,J3*%
X137900000Y-77100000D03*
D16*
X137900000Y-78370000D03*
X136630000Y-77100000D03*
X136630000Y-78370000D03*
X135360000Y-77100000D03*
X135360000Y-78370000D03*
X134090000Y-77100000D03*
X134090000Y-78370000D03*
X132820000Y-77100000D03*
X132820000Y-78370000D03*
%TD*%
D17*
%TO.C,J6*%
X109200000Y-80000000D03*
D18*
X111740000Y-80000000D03*
%TD*%
D19*
%TO.C,C15*%
X134475000Y-102600000D03*
X131525000Y-102600000D03*
%TD*%
D20*
%TO.C,C12*%
X130000000Y-112750000D03*
X130000000Y-110850000D03*
%TD*%
D21*
%TO.C,F1*%
X153900000Y-113800000D03*
X153900000Y-111000000D03*
%TD*%
D22*
%TO.C,R15*%
X147000000Y-110937500D03*
X147000000Y-113862500D03*
%TD*%
D23*
%TO.C,R3*%
X106900000Y-93690000D03*
X106900000Y-94710000D03*
%TD*%
D24*
%TO.C,C25*%
X120142000Y-97964000D03*
X120142000Y-100664000D03*
%TD*%
D25*
%TO.C,C18*%
X120300000Y-86420000D03*
X120300000Y-87380000D03*
%TD*%
D26*
%TO.C,U1*%
X154137500Y-108650000D03*
X154137500Y-107700000D03*
X154137500Y-106750000D03*
X151862500Y-106750000D03*
X151862500Y-107700000D03*
X151862500Y-108650000D03*
%TD*%
D27*
%TO.C,R24*%
X145510000Y-84200000D03*
X144490000Y-84200000D03*
%TD*%
D28*
%TO.C,C11*%
X140600000Y-110925000D03*
X140600000Y-113875000D03*
%TD*%
D29*
%TO.C,D2*%
X126900000Y-104187500D03*
X126900000Y-102612500D03*
%TD*%
D30*
%TO.C,R17*%
X136587500Y-106000000D03*
X138412500Y-106000000D03*
%TD*%
D31*
%TO.C,C17*%
X138220000Y-83600000D03*
X139180000Y-83600000D03*
%TD*%
D24*
%TO.C,C13*%
X140000000Y-99350000D03*
X140000000Y-102050000D03*
%TD*%
D32*
%TO.C,C16*%
X124980000Y-100700000D03*
X124020000Y-100700000D03*
%TD*%
D33*
%TO.C,R2*%
X97990000Y-87200000D03*
X99010000Y-87200000D03*
%TD*%
D34*
%TO.C,C1*%
X105000000Y-94680000D03*
X105000000Y-93720000D03*
%TD*%
D32*
%TO.C,C2*%
X103080000Y-85900000D03*
X102120000Y-85900000D03*
%TD*%
D27*
%TO.C,R8*%
X102410000Y-98700000D03*
X101390000Y-98700000D03*
%TD*%
D35*
%TO.C,C9*%
X109100000Y-111750000D03*
X109100000Y-113650000D03*
%TD*%
D36*
%TO.C,J2*%
X159050000Y-104800000D03*
X159050000Y-110600000D03*
D37*
X157600000Y-111100000D03*
X157600000Y-110300000D03*
X157600000Y-108950000D03*
X157600000Y-107950000D03*
X157600000Y-107450000D03*
X157600000Y-106450000D03*
X157600000Y-105100000D03*
X157600000Y-104300000D03*
X157600000Y-104600000D03*
X157600000Y-105400000D03*
X157600000Y-105950000D03*
X157600000Y-106950000D03*
X157600000Y-108450000D03*
X157600000Y-109450000D03*
X157600000Y-110000000D03*
X157600000Y-110800000D03*
D38*
X158520000Y-112020000D03*
X158520000Y-103380000D03*
X162700000Y-103380000D03*
X162700000Y-112020000D03*
%TD*%
D39*
%TO.C,C19*%
X141200000Y-83475000D03*
X141200000Y-80525000D03*
%TD*%
D40*
%TO.C,S1*%
X161800000Y-100650000D03*
X161800000Y-94150000D03*
X157300000Y-94150000D03*
X157300000Y-100650000D03*
%TD*%
D27*
%TO.C,R20*%
X120710000Y-91100000D03*
X119690000Y-91100000D03*
%TD*%
D41*
%TO.C,C8*%
X105850000Y-106850000D03*
X103950000Y-106850000D03*
%TD*%
D33*
%TO.C,R6*%
X102610000Y-87300000D03*
X103630000Y-87300000D03*
%TD*%
D42*
%TO.C,C27*%
X113779000Y-111760000D03*
X115329000Y-111760000D03*
%TD*%
D43*
%TO.C,IC5*%
X133400000Y-109625000D03*
X133400000Y-110275000D03*
X133400000Y-110925000D03*
X133400000Y-111575000D03*
D44*
X134425000Y-112600000D03*
X135075000Y-112600000D03*
X135725000Y-112600000D03*
X136375000Y-112600000D03*
D43*
X137400000Y-111575000D03*
X137400000Y-110925000D03*
X137400000Y-110275000D03*
X137400000Y-109625000D03*
D44*
X136375000Y-108600000D03*
X135725000Y-108600000D03*
X135075000Y-108600000D03*
X134425000Y-108600000D03*
D45*
X135400000Y-110600000D03*
%TD*%
D25*
%TO.C,C5*%
X112400000Y-103820000D03*
X112400000Y-104780000D03*
%TD*%
D27*
%TO.C,R26*%
X145310000Y-89500000D03*
X144290000Y-89500000D03*
%TD*%
D41*
%TO.C,C6*%
X105850000Y-109300000D03*
X103950000Y-109300000D03*
%TD*%
D25*
%TO.C,C4*%
X100300000Y-87020000D03*
X100300000Y-87980000D03*
%TD*%
D46*
%TO.C,L3*%
X127586000Y-111041000D03*
X121286000Y-111041000D03*
%TD*%
D27*
%TO.C,R23*%
X145610000Y-82200000D03*
X144590000Y-82200000D03*
%TD*%
D47*
%TO.C,IC3*%
X110112000Y-103505000D03*
X110112000Y-102235000D03*
X110112000Y-100965000D03*
X110112000Y-99695000D03*
X104688000Y-99695000D03*
X104688000Y-100965000D03*
X104688000Y-102235000D03*
X104688000Y-103505000D03*
%TD*%
D48*
%TO.C,C10*%
X114505000Y-114554000D03*
X111555000Y-114554000D03*
%TD*%
D22*
%TO.C,R16*%
X150200000Y-110937500D03*
X150200000Y-113862500D03*
%TD*%
D49*
%TO.C,D3*%
X150700000Y-95400000D03*
X152275000Y-95400000D03*
%TD*%
D27*
%TO.C,R25*%
X145210000Y-87600000D03*
X144190000Y-87600000D03*
%TD*%
D50*
%TO.C,L2*%
X108615000Y-108300000D03*
X110985000Y-108300000D03*
%TD*%
D31*
%TO.C,C21*%
X122920000Y-81000000D03*
X123880000Y-81000000D03*
%TD*%
D51*
%TO.C,Y1*%
X116350000Y-88300000D03*
X116350000Y-90500000D03*
X118050000Y-90500000D03*
X118050000Y-88300000D03*
%TD*%
D17*
%TO.C,J7*%
X127800000Y-77500000D03*
D18*
X125260000Y-77500000D03*
X122720000Y-77500000D03*
%TD*%
D33*
%TO.C,R1*%
X105090000Y-96900000D03*
X106110000Y-96900000D03*
%TD*%
D52*
%TO.C,U3*%
X114829999Y-108142999D03*
X114829999Y-109093000D03*
X114829999Y-110042998D03*
X117579999Y-110042998D03*
X117579999Y-109093000D03*
X117579999Y-108142999D03*
%TD*%
D29*
%TO.C,FB2*%
X118110000Y-99466500D03*
X118110000Y-97891500D03*
%TD*%
D34*
%TO.C,C20*%
X120300000Y-85080000D03*
X120300000Y-84120000D03*
%TD*%
D35*
%TO.C,C7*%
X99500000Y-111750000D03*
X99500000Y-113650000D03*
%TD*%
D53*
%TO.C,R13*%
X110725000Y-97000000D03*
X109075000Y-97000000D03*
%TD*%
D54*
%TO.C,C22*%
X119253000Y-110122000D03*
X119253000Y-108572000D03*
%TD*%
D25*
%TO.C,C26*%
X115443000Y-97564000D03*
X115443000Y-98524000D03*
%TD*%
D55*
%TO.C,R27*%
X127200000Y-81510000D03*
X127200000Y-80490000D03*
%TD*%
D23*
%TO.C,R9*%
X98000000Y-91390000D03*
X98000000Y-92410000D03*
%TD*%
D34*
%TO.C,C50*%
X154700000Y-99280000D03*
X154700000Y-98320000D03*
%TD*%
D31*
%TO.C,C48*%
X116620000Y-92200000D03*
X117580000Y-92200000D03*
%TD*%
D56*
%TO.C,C23*%
X118190000Y-95758000D03*
X115490000Y-95758000D03*
%TD*%
D53*
%TO.C,R28*%
X152212500Y-97100000D03*
X150562500Y-97100000D03*
%TD*%
%TO.C,R11*%
X114025000Y-102300000D03*
X112375000Y-102300000D03*
%TD*%
D23*
%TO.C,R10*%
X98000000Y-89090000D03*
X98000000Y-90110000D03*
%TD*%
D57*
%TO.C,U2*%
X122525000Y-85100000D03*
X122525000Y-85600000D03*
X122525000Y-86100000D03*
X122525000Y-86600000D03*
X122525000Y-87100000D03*
X122525000Y-87600000D03*
X122525000Y-88100000D03*
X122525000Y-88600000D03*
X122525000Y-89100000D03*
X122525000Y-89600000D03*
X122525000Y-90100000D03*
X122525000Y-90600000D03*
X122525000Y-91100000D03*
X122525000Y-91600000D03*
X122525000Y-92100000D03*
X122525000Y-92600000D03*
X122525000Y-93100000D03*
X122525000Y-93600000D03*
X122525000Y-94100000D03*
X122525000Y-94600000D03*
X122525000Y-95100000D03*
X122525000Y-95600000D03*
X122525000Y-96100000D03*
X122525000Y-96600000D03*
X122525000Y-97100000D03*
D58*
X124200000Y-98775000D03*
X124700000Y-98775000D03*
X125200000Y-98775000D03*
X125700000Y-98775000D03*
X126200000Y-98775000D03*
X126700000Y-98775000D03*
X127200000Y-98775000D03*
X127700000Y-98775000D03*
X128200000Y-98775000D03*
X128700000Y-98775000D03*
X129200000Y-98775000D03*
X129700000Y-98775000D03*
X130200000Y-98775000D03*
X130700000Y-98775000D03*
X131200000Y-98775000D03*
X131700000Y-98775000D03*
X132200000Y-98775000D03*
X132700000Y-98775000D03*
X133200000Y-98775000D03*
X133700000Y-98775000D03*
X134200000Y-98775000D03*
X134700000Y-98775000D03*
X135200000Y-98775000D03*
X135700000Y-98775000D03*
X136200000Y-98775000D03*
D57*
X137875000Y-97100000D03*
X137875000Y-96600000D03*
X137875000Y-96100000D03*
X137875000Y-95600000D03*
X137875000Y-95100000D03*
X137875000Y-94600000D03*
X137875000Y-94100000D03*
X137875000Y-93600000D03*
X137875000Y-93100000D03*
X137875000Y-92600000D03*
X137875000Y-92100000D03*
X137875000Y-91600000D03*
X137875000Y-91100000D03*
X137875000Y-90600000D03*
X137875000Y-90100000D03*
X137875000Y-89600000D03*
X137875000Y-89100000D03*
X137875000Y-88600000D03*
X137875000Y-88100000D03*
X137875000Y-87600000D03*
X137875000Y-87100000D03*
X137875000Y-86600000D03*
X137875000Y-86100000D03*
X137875000Y-85600000D03*
X137875000Y-85100000D03*
D58*
X136200000Y-83425000D03*
X135700000Y-83425000D03*
X135200000Y-83425000D03*
X134700000Y-83425000D03*
X134200000Y-83425000D03*
X133700000Y-83425000D03*
X133200000Y-83425000D03*
X132700000Y-83425000D03*
X132200000Y-83425000D03*
X131700000Y-83425000D03*
X131200000Y-83425000D03*
X130700000Y-83425000D03*
X130200000Y-83425000D03*
X129700000Y-83425000D03*
X129200000Y-83425000D03*
X128700000Y-83425000D03*
X128200000Y-83425000D03*
X127700000Y-83425000D03*
X127200000Y-83425000D03*
X126700000Y-83425000D03*
X126200000Y-83425000D03*
X125700000Y-83425000D03*
X125200000Y-83425000D03*
X124700000Y-83425000D03*
X124200000Y-83425000D03*
%TD*%
D53*
%TO.C,R14*%
X113925000Y-100300000D03*
X112275000Y-100300000D03*
%TD*%
D50*
%TO.C,L1*%
X101185000Y-108000000D03*
X98815000Y-108000000D03*
%TD*%
D59*
%TO.C,Q1*%
X146450000Y-105750000D03*
X144550000Y-105750000D03*
X145500000Y-108250000D03*
%TD*%
D34*
%TO.C,C3*%
X106300000Y-92280000D03*
X106300000Y-91320000D03*
%TD*%
D60*
%TO.C,IC1*%
X102850000Y-96650000D03*
X102850000Y-95700000D03*
X102850000Y-94750000D03*
X100350000Y-94750000D03*
X100350000Y-96650000D03*
%TD*%
%TO.C,IC2*%
X102950000Y-91350000D03*
X102950000Y-90400000D03*
X102950000Y-89450000D03*
X100450000Y-89450000D03*
X100450000Y-91350000D03*
%TD*%
D42*
%TO.C,C28*%
X118224000Y-106426000D03*
X119774000Y-106426000D03*
%TD*%
D31*
%TO.C,C29*%
X119662000Y-93091000D03*
X120622000Y-93091000D03*
%TD*%
%TO.C,C49*%
X116620000Y-86600000D03*
X117580000Y-86600000D03*
%TD*%
D33*
%TO.C,R4*%
X99690000Y-85800000D03*
X100710000Y-85800000D03*
%TD*%
D27*
%TO.C,R22*%
X145560000Y-79650000D03*
X144540000Y-79650000D03*
%TD*%
D17*
%TO.C,J5*%
X115600000Y-79900000D03*
D18*
X118140000Y-79900000D03*
%TD*%
D55*
%TO.C,R5*%
X105000000Y-92310000D03*
X105000000Y-91290000D03*
%TD*%
D32*
%TO.C,C14*%
X137480000Y-101000000D03*
X136520000Y-101000000D03*
%TD*%
D61*
%TO.C,R12*%
X114500000Y-105725000D03*
X114500000Y-104075000D03*
%TD*%
D27*
%TO.C,R7*%
X98610000Y-94500000D03*
X97590000Y-94500000D03*
%TD*%
D62*
%TO.C,FB1*%
X144037500Y-103500000D03*
X146162500Y-103500000D03*
%TD*%
D25*
%TO.C,C24*%
X120650000Y-94262000D03*
X120650000Y-95222000D03*
%TD*%
D23*
%TO.C,R18*%
X116586000Y-97534000D03*
X116586000Y-98554000D03*
%TD*%
D63*
%TO.C,IC4*%
X102750000Y-111575000D03*
X102750000Y-112025000D03*
X102750000Y-112475000D03*
X102750000Y-112925000D03*
X102750000Y-113375000D03*
X102750000Y-113825000D03*
X105650000Y-113825000D03*
X105650000Y-113375000D03*
X105650000Y-112925000D03*
X105650000Y-112475000D03*
X105650000Y-112025000D03*
X105650000Y-111575000D03*
D64*
X104200000Y-112700000D03*
%TD*%
D61*
%TO.C,R21*%
X124700000Y-104225000D03*
X124700000Y-102575000D03*
%TD*%
D65*
%TO.C,J1*%
X102200000Y-80800000D03*
D66*
X104740000Y-83340000D03*
X99660000Y-78260000D03*
X104740000Y-78260000D03*
X99660000Y-83340000D03*
%TD*%
M02*
