M48
; DRILL file {KiCad (5.99.0-7611-gb7875e4d41)} date 12/16/20 01:59:35
; FORMAT={-:-/ absolute / metric / decimal}
; #@! TF.CreationDate,2020-12-16T01:59:35+00:00
; #@! TF.GenerationSoftware,Kicad,Pcbnew,(5.99.0-7611-gb7875e4d41)
FMAT,2
METRIC
T1C0.400
T2C0.600
T3C0.650
T4C1.000
T5C1.500
T6C1.700
T7C0.650
%
G90
G05
T1
X96.9Y-107.6
X96.9Y-108.9
X96.9Y-110.2
X96.95Y-90.6
X97.0Y-93.6
X97.5Y-77.7
X97.5Y-78.9
X97.5Y-111.8
X97.5Y-114.4
X97.6Y-82.9
X97.6Y-84.2
X97.6Y-113.4
X97.8Y-81.8
X98.2Y-76.7
X98.8Y-92.9
X99.5Y-88.2
X99.5Y-98.8
X100.4Y-92.6
X101.6Y-87.9
X101.7Y-103.7
X101.8Y-102.7
X101.8Y-114.8
X102.6Y-103.4
X102.7Y-92.9
X102.7Y-114.8
X102.8Y-106.5
X102.8Y-107.4
X102.8Y-109.4
X103.8Y-110.9
X103.8Y-114.6
X104.7Y-110.9
X104.8Y-114.6
X105.0Y-76.4
X105.1Y-89.7
X105.3Y-95.8
X105.6Y-85.0
X105.9Y-76.4
X106.1Y-87.0
X106.3Y-77.2
X106.6Y-84.5
X106.7Y-83.4
X106.9Y-110.7
X107.0Y-114.5
X107.1Y-86.5
X107.1Y-90.2
X108.0Y-93.6
X108.077Y-115.062
X108.8Y-99.8
X109.093Y-115.062
X109.2Y-83.4
X110.109Y-115.062
X110.9Y-81.5
X110.9Y-111.6
X112.0Y-81.6
X112.3Y-88.8
X112.4Y-90.4
X112.6Y-86.0
X112.6Y-87.4
X112.8Y-107.0
X112.8Y-108.4
X112.9Y-109.6
X112.903Y-113.919
X112.903Y-114.935
X113.665Y-95.758
X113.665Y-97.155
X113.665Y-107.95
X113.665Y-108.966
X113.792Y-94.742
X114.046Y-107.061
X114.173Y-98.044
X114.3Y-90.0
X114.681Y-92.583
X114.7Y-91.3
X115.2Y-102.5
X115.3Y-101.6
X115.5Y-99.7
X115.8Y-100.5
X116.332Y-115.697
X116.4Y-105.5
X116.586Y-111.506
X116.586Y-112.522
X116.6Y-83.1
X117.4Y-82.6
X117.4Y-85.3
X117.475Y-93.345
X118.3Y-81.6
X118.6Y-85.2
X118.618Y-94.107
X118.8Y-84.1
X119.4Y-81.4
X119.5Y-88.5
X119.634Y-94.107
X119.761Y-102.489
X119.9Y-83.1
X120.015Y-105.029
X120.015Y-107.823
X120.904Y-102.616
X121.0Y-79.3
X121.0Y-83.1
X121.158Y-105.283
X121.285Y-106.426
X121.736Y-109.041
X121.793Y-99.695
X121.8Y-81.5
X122.1Y-79.5
X122.736Y-109.641
X122.936Y-110.841
X122.936Y-112.141
X123.1Y-100.7
X123.3Y-102.4
X124.0Y-79.9
X124.3Y-89.6
X124.5Y-87.6
X124.5Y-91.6
X124.536Y-108.041
X125.636Y-108.141
X126.0Y-100.7
X126.836Y-108.141
X127.0Y-90.6
X128.2Y-79.9
X129.3Y-109.4
X129.921Y-101.854
X129.921Y-102.87
X130.0Y-114.2
X130.048Y-103.886
X130.175Y-105.029
X130.3Y-109.4
X131.1Y-78.8
X131.2Y-104.4
X131.6Y-76.9
X132.0Y-108.9
X132.2Y-104.4
X132.7Y-85.7
X133.3Y-113.0
X134.2Y-85.5
X134.7Y-81.3
X134.8Y-113.9
X134.9Y-90.4
X135.2Y-76.0
X135.6Y-80.7
X135.8Y-89.6
X136.4Y-102.0
X136.5Y-75.9
X136.5Y-114.0
X137.5Y-102.0
X137.6Y-108.6
X138.049Y-103.632
X138.1Y-82.5
X138.2Y-114.0
X139.065Y-103.505
X139.1Y-82.5
X139.5Y-76.7
X139.573Y-79.629
X139.7Y-105.6
X139.7Y-106.7
X140.0Y-103.6
X140.2Y-78.9
X140.208Y-77.978
X141.0Y-103.5
X141.2Y-84.775
X141.3Y-78.6
X141.6Y-98.5
X141.6Y-99.5
X141.6Y-100.6
X142.0Y-76.3
X142.4Y-85.5
X142.5Y-78.6
X142.8Y-111.5
X142.9Y-110.3
X142.9Y-113.0
X143.2Y-87.8
X143.3Y-89.0
X143.5Y-81.6
X143.5Y-113.9
X143.6Y-84.3
X143.7Y-82.8
X143.9Y-76.3
X144.5Y-113.8
X144.6Y-80.6
X144.6Y-86.6
X144.7Y-110.0
X145.3Y-90.8
X145.6Y-78.6
X145.6Y-105.8
X145.7Y-76.2
X146.3Y-101.8
X148.5Y-109.7
X148.5Y-112.9
X148.6Y-113.8
X149.1Y-77.3
X149.5Y-79.0
X149.5Y-83.9
X149.5Y-86.1
X149.8Y-88.5
X150.2Y-77.4
X150.4Y-105.3
X150.8Y-86.1
X150.8Y-88.9
X151.4Y-77.4
X151.8Y-105.3
X151.9Y-111.3
X152.1Y-109.9
X152.1Y-113.1
X152.7Y-77.2
X152.7Y-99.3
X153.1Y-94.1
X153.5Y-96.9
X154.4Y-100.3
X155.7Y-103.2
X155.8Y-109.3
X155.9Y-101.0
X156.2Y-104.0
X156.3Y-101.8
X156.8Y-95.7
X156.9Y-103.2
X157.5Y-113.2
X158.6Y-94.6
X158.6Y-113.2
X158.7Y-93.3
X159.6Y-108.9
X159.8Y-110.3
X159.8Y-111.2
X160.1Y-104.0
X160.1Y-106.4
X160.8Y-109.625
X161.2Y-107.4
X162.2Y-104.6
X162.5Y-113.3
X163.2Y-104.6
X163.4Y-113.3
T3
X132.82Y-77.1
X132.82Y-78.37
X134.09Y-77.1
X134.09Y-78.37
X135.36Y-77.1
X135.36Y-78.37
X136.63Y-77.1
X136.63Y-78.37
X137.9Y-77.1
X137.9Y-78.37
T4
X109.2Y-80.0
X111.74Y-80.0
X115.6Y-79.9
X118.14Y-79.9
X122.72Y-77.5
X125.26Y-77.5
X127.8Y-77.5
X157.3Y-94.15
X157.3Y-100.65
X161.8Y-94.15
X161.8Y-100.65
T5
X102.2Y-80.8
T6
X99.66Y-78.26
X99.66Y-83.34
X104.74Y-78.26
X104.74Y-83.34
T7
X159.05Y-104.8
X159.05Y-110.6
T2
G00X158.22Y-103.38
M15
G01X158.82Y-103.38
M16
G05
G00X158.22Y-112.02
M15
G01X158.82Y-112.02
M16
G05
G00X162.4Y-103.38
M15
G01X163.0Y-103.38
M16
G05
G00X162.4Y-112.02
M15
G01X163.0Y-112.02
M16
G05
T0
M30
