M48
; DRILL file {KiCad (5.99.0-8018-g9a0f685a75)} date 03/05/21 19:33:36
; FORMAT={-:-/ absolute / metric / decimal}
; #@! TF.CreationDate,2021-03-05T19:33:36+00:00
; #@! TF.GenerationSoftware,Kicad,Pcbnew,(5.99.0-8018-g9a0f685a75)
FMAT,2
METRIC
T1C0.300
T2C0.400
T3C0.600
T4C0.650
T5C0.800
T6C1.000
T7C1.500
T8C1.700
T9C0.650
%
G90
G05
T1
X103.9Y-90.8
X103.9Y-92.7
X104.0Y-96.8
X104.3Y-89.4
X104.8Y-90.7
X104.9Y-92.7
X105.0Y-95.9
X105.1Y-97.4
X106.6Y-92.0
X107.0Y-99.2
X107.6Y-96.4
X109.5Y-99.7
X109.6Y-96.4
X110.0Y-95.3
X111.3Y-92.4
X112.6Y-90.4
X115.1Y-89.1
X118.2Y-92.2
X118.5Y-91.5
X119.0Y-90.4
X119.6Y-90.4
X120.7Y-92.5
X120.9Y-90.2
X122.5Y-81.7
X123.8Y-93.1
X124.0Y-82.1
X125.2Y-82.0
X125.2Y-91.2
X126.0Y-81.3
X130.0Y-81.6
X131.4Y-79.2
X133.1Y-81.2
X135.1Y-89.6
X135.4Y-80.4
X135.5Y-81.3
X135.8Y-85.2
X135.9Y-86.1
X136.3Y-81.9
X137.7Y-81.2
X138.8Y-82.5
X139.4Y-90.1
X140.4Y-85.9
X142.4Y-81.5
X143.7Y-84.2
X144.2Y-87.3
X144.2Y-88.6
X144.8Y-80.7
X144.9Y-81.9
X145.0Y-83.4
X145.4Y-85.1
X145.4Y-87.3
X145.7Y-80.7
X145.7Y-88.5
X145.9Y-83.0
X146.0Y-81.9
X154.1Y-111.6
X155.0Y-99.0
X157.7Y-112.1
X158.1Y-110.6
X158.8Y-111.8
X159.0Y-110.0
T2
X97.2Y-108.7
X97.7Y-90.5
X97.7Y-93.3
X97.8Y-99.6
X98.3Y-91.7
X98.9Y-94.625
X99.5Y-90.8
X99.8Y-99.6
X99.8Y-111.1
X100.25Y-85.5
X100.7Y-112.5
X100.75Y-87.0
X101.5Y-82.25
X101.6Y-111.4
X101.6Y-112.5
X101.8Y-91.8
X101.8Y-97.5
X101.9Y-89.0
X102.0Y-85.0
X102.0Y-92.9
X102.8Y-90.2
X103.5Y-88.25
X104.1Y-100.0
X106.4Y-89.4
X106.6Y-109.9
X106.8Y-111.2
X106.8Y-114.5
X107.3Y-87.5
X107.5Y-89.8
X107.5Y-113.4
X107.6Y-88.6
X108.0Y-112.2
X108.8Y-86.5
X109.1Y-94.2
X110.6Y-86.6
X111.3Y-111.8
X112.5Y-87.3
X114.4Y-85.1
X116.9Y-106.5
X118.0Y-100.7
X118.0Y-105.2
X119.2Y-111.3
X119.3Y-85.1
X120.1Y-86.2
X120.6Y-112.3
X121.4Y-111.1
X121.5Y-98.4
X122.7Y-110.2
X124.1Y-90.1
X125.7Y-108.1
X125.7Y-109.0
X125.7Y-110.2
X125.9Y-100.8
X126.1Y-95.1
X128.1Y-102.1
X130.5Y-108.4
X131.0Y-114.1
X133.6Y-100.7
X134.1Y-101.8
X135.0Y-115.3
X135.2Y-100.9
X138.0Y-101.0
X138.6Y-107.7
X140.3Y-97.7
X141.2Y-105.7
X141.4Y-88.2
X141.5Y-83.4
X142.1Y-79.95
X142.5Y-86.4
X144.7Y-108.9
X144.8Y-77.8
X145.0Y-110.5
X145.5Y-113.2
X146.8Y-113.2
X147.7Y-103.2
X148.5Y-84.0
X148.6Y-110.2
X151.0Y-102.0
X153.1Y-93.8
X153.1Y-111.6
X153.2Y-99.0
X153.4Y-104.6
X153.7Y-113.3
X153.7Y-114.0
X158.2Y-109.2
X158.9Y-108.1
X159.4Y-113.7
T4
X132.82Y-77.1
X132.82Y-78.37
X134.09Y-77.1
X134.09Y-78.37
X135.36Y-77.1
X135.36Y-78.37
X136.63Y-77.1
X136.63Y-78.37
X137.9Y-77.1
X137.9Y-78.37
T5
X98.2Y-102.8
X104.3Y-80.8
X104.8Y-102.7
X107.2Y-77.1
X108.0Y-102.8
X108.1Y-81.1
X111.3Y-98.9
X112.0Y-113.9
X112.7Y-95.0
X112.8Y-102.0
X112.9Y-79.8
X113.0Y-77.0
X113.7Y-90.3
X113.9Y-105.0
X114.8Y-82.4
X116.0Y-102.0
X116.8Y-77.0
X116.9Y-79.9
X117.0Y-83.1
X118.9Y-114.0
X121.0Y-103.9
X128.0Y-87.6
X128.1Y-106.8
X129.5Y-94.4
X131.8Y-87.6
X133.0Y-106.9
X133.7Y-94.5
X135.1Y-109.0
X135.3Y-107.1
X136.7Y-108.9
X137.1Y-105.0
X140.9Y-76.3
X140.9Y-96.0
X143.1Y-93.9
X144.0Y-100.9
X149.8Y-86.8
X149.9Y-82.0
X150.9Y-78.9
X156.0Y-79.0
X156.0Y-83.0
X157.4Y-104.0
X158.9Y-82.9
X159.0Y-85.4
X159.2Y-97.0
X161.3Y-104.1
T6
X122.72Y-77.5
X125.26Y-77.5
X127.8Y-77.5
X157.3Y-94.15
X157.3Y-100.65
X161.8Y-94.15
X161.8Y-100.65
T7
X101.5Y-80.5
T8
X98.96Y-77.96
X98.96Y-83.04
X104.04Y-77.96
X104.04Y-83.04
T9
X157.35Y-107.8
X157.35Y-113.6
T3
G00X156.52Y-106.38
M15
G01X157.12Y-106.38
M16
G05
G00X156.52Y-115.02
M15
G01X157.12Y-115.02
M16
G05
G00X160.7Y-106.38
M15
G01X161.3Y-106.38
M16
G05
G00X160.7Y-115.02
M15
G01X161.3Y-115.02
M16
G05
T0
M30
