%TF.GenerationSoftware,KiCad,Pcbnew,(5.99.0-3851-g809f4c2ffb)*%
%TF.CreationDate,2020-11-30T00:42:52+00:00*%
%TF.ProjectId,CM4,434d342e-6b69-4636-9164-5f7063625858,rev?*%
%TF.SameCoordinates,Original*%
%TF.FileFunction,Copper,L4,Bot*%
%TF.FilePolarity,Positive*%
%FSLAX46Y46*%
G04 Gerber Fmt 4.6, Leading zero omitted, Abs format (unit mm)*
G04 Created by KiCad (PCBNEW (5.99.0-3851-g809f4c2ffb)) date 2020-11-30 00:42:52*
%MOMM*%
%LPD*%
G01*
G04 APERTURE LIST*
G04 Aperture macros list*
%AMRoundRect*
0 Rectangle with rounded corners*
0 $1 Rounding radius*
0 $2 $3 $4 $5 $6 $7 $8 $9 X,Y pos of 4 corners*
0 Add a 4 corners polygon primitive as box body*
4,1,4,$2,$3,$4,$5,$6,$7,$8,$9,$2,$3,0*
0 Add four circle primitives for the rounded corners*
1,1,$1+$1,$2,$3,0*
1,1,$1+$1,$4,$5,0*
1,1,$1+$1,$6,$7,0*
1,1,$1+$1,$8,$9,0*
0 Add four rect primitives between the rounded corners*
20,1,$1+$1,$2,$3,$4,$5,0*
20,1,$1+$1,$4,$5,$6,$7,0*
20,1,$1+$1,$6,$7,$8,$9,0*
20,1,$1+$1,$8,$9,$2,$3,0*%
G04 Aperture macros list end*
%TA.AperFunction,ComponentPad*%
%ADD10R,1.000000X1.000000*%
%TD*%
%TA.AperFunction,ComponentPad*%
%ADD11O,1.000000X1.000000*%
%TD*%
%TA.AperFunction,ComponentPad*%
%ADD12C,5.500000*%
%TD*%
%TA.AperFunction,ComponentPad*%
%ADD13R,1.700000X1.700000*%
%TD*%
%TA.AperFunction,ComponentPad*%
%ADD14O,1.700000X1.700000*%
%TD*%
%TA.AperFunction,ComponentPad*%
%ADD15RoundRect,0.500000X0.000000X-0.300000X0.000000X-0.300000X0.000000X0.300000X0.000000X0.300000X0*%
%TD*%
%TA.AperFunction,ComponentPad*%
%ADD16C,1.500000*%
%TD*%
%TA.AperFunction,SMDPad,CuDef*%
%ADD17RoundRect,0.250000X0.625000X-0.312500X0.625000X0.312500X-0.625000X0.312500X-0.625000X-0.312500X0*%
%TD*%
%TA.AperFunction,SMDPad,CuDef*%
%ADD18RoundRect,0.135000X0.185000X-0.135000X0.185000X0.135000X-0.185000X0.135000X-0.185000X-0.135000X0*%
%TD*%
%TA.AperFunction,SMDPad,CuDef*%
%ADD19RoundRect,0.200000X-0.200000X-0.600000X0.200000X-0.600000X0.200000X0.600000X-0.200000X0.600000X0*%
%TD*%
%TA.AperFunction,SMDPad,CuDef*%
%ADD20RoundRect,0.250001X-0.799999X-1.249999X0.799999X-1.249999X0.799999X1.249999X-0.799999X1.249999X0*%
%TD*%
%TA.AperFunction,SMDPad,CuDef*%
%ADD21RoundRect,0.135000X-0.185000X0.135000X-0.185000X-0.135000X0.185000X-0.135000X0.185000X0.135000X0*%
%TD*%
%TA.AperFunction,SMDPad,CuDef*%
%ADD22RoundRect,0.140000X0.170000X-0.140000X0.170000X0.140000X-0.170000X0.140000X-0.170000X-0.140000X0*%
%TD*%
%TA.AperFunction,SMDPad,CuDef*%
%ADD23RoundRect,0.140000X-0.140000X-0.170000X0.140000X-0.170000X0.140000X0.170000X-0.140000X0.170000X0*%
%TD*%
%TA.AperFunction,SMDPad,CuDef*%
%ADD24RoundRect,0.135000X-0.135000X-0.185000X0.135000X-0.185000X0.135000X0.185000X-0.135000X0.185000X0*%
%TD*%
%TA.AperFunction,SMDPad,CuDef*%
%ADD25RoundRect,0.140000X0.140000X0.170000X-0.140000X0.170000X-0.140000X-0.170000X0.140000X-0.170000X0*%
%TD*%
%TA.AperFunction,SMDPad,CuDef*%
%ADD26R,1.525000X0.650000*%
%TD*%
%TA.AperFunction,SMDPad,CuDef*%
%ADD27RoundRect,0.135000X0.135000X0.185000X-0.135000X0.185000X-0.135000X-0.185000X0.135000X-0.185000X0*%
%TD*%
%TA.AperFunction,SMDPad,CuDef*%
%ADD28RoundRect,0.200000X-0.200000X-0.275000X0.200000X-0.275000X0.200000X0.275000X-0.200000X0.275000X0*%
%TD*%
%TA.AperFunction,SMDPad,CuDef*%
%ADD29RoundRect,0.200000X0.275000X-0.200000X0.275000X0.200000X-0.275000X0.200000X-0.275000X-0.200000X0*%
%TD*%
%TA.AperFunction,SMDPad,CuDef*%
%ADD30RoundRect,0.200000X-0.275000X0.200000X-0.275000X-0.200000X0.275000X-0.200000X0.275000X0.200000X0*%
%TD*%
%TA.AperFunction,SMDPad,CuDef*%
%ADD31RoundRect,0.140000X-0.170000X0.140000X-0.170000X-0.140000X0.170000X-0.140000X0.170000X0.140000X0*%
%TD*%
%TA.AperFunction,SMDPad,CuDef*%
%ADD32R,1.200000X0.600000*%
%TD*%
%TA.AperFunction,SMDPad,CuDef*%
%ADD33R,0.200000X0.700000*%
%TD*%
%TA.AperFunction,SMDPad,CuDef*%
%ADD34R,1.270000X3.600000*%
%TD*%
%TA.AperFunction,SMDPad,CuDef*%
%ADD35R,1.350000X4.200000*%
%TD*%
%TA.AperFunction,ViaPad*%
%ADD36C,0.800000*%
%TD*%
%TA.AperFunction,Conductor*%
%ADD37C,0.200000*%
%TD*%
%TA.AperFunction,Conductor*%
%ADD38C,0.250000*%
%TD*%
%TA.AperFunction,Conductor*%
%ADD39C,0.300000*%
%TD*%
%TA.AperFunction,Conductor*%
%ADD40C,1.000000*%
%TD*%
%TA.AperFunction,Conductor*%
%ADD41C,0.500000*%
%TD*%
%TA.AperFunction,Conductor*%
%ADD42C,0.150000*%
%TD*%
G04 APERTURE END LIST*
D10*
%TO.P,J3,1,Pin_1*%
%TO.N,/+3.3V*%
X127800000Y-83900000D03*
D11*
%TO.P,J3,2,Pin_2*%
%TO.N,/H7MCU/SWDIO*%
X127800000Y-85170000D03*
%TO.P,J3,3,Pin_3*%
%TO.N,GND*%
X126530000Y-83900000D03*
%TO.P,J3,4,Pin_4*%
%TO.N,/H7MCU/SWCLK*%
X126530000Y-85170000D03*
%TO.P,J3,5,Pin_5*%
%TO.N,GND*%
X125260000Y-83900000D03*
%TO.P,J3,6,Pin_6*%
%TO.N,/H7MCU/SWO*%
X125260000Y-85170000D03*
%TO.P,J3,7,Pin_7*%
%TO.N,Net-(J3-Pad7)*%
X123990000Y-83900000D03*
%TO.P,J3,8,Pin_8*%
%TO.N,Net-(J3-Pad8)*%
X123990000Y-85170000D03*
%TO.P,J3,9,Pin_9*%
%TO.N,GND*%
X122720000Y-83900000D03*
%TO.P,J3,10,Pin_10*%
%TO.N,/H7MCU/NRST*%
X122720000Y-85170000D03*
%TD*%
D12*
%TO.P,H3,1*%
%TO.N,N/C*%
X146000000Y-85600000D03*
%TD*%
D13*
%TO.P,J6,1,Pin_1*%
%TO.N,/v_DIV_OUT*%
X79300000Y-93100000D03*
D14*
%TO.P,J6,2,Pin_2*%
%TO.N,GND*%
X79300000Y-90560000D03*
%TD*%
D12*
%TO.P,H2,1*%
%TO.N,N/C*%
X78400000Y-85500000D03*
%TD*%
%TO.P,H4,1*%
%TO.N,N/C*%
X146750000Y-132250000D03*
%TD*%
D15*
%TO.P,J2,S1,SHIELD*%
%TO.N,GND*%
X131180000Y-130520000D03*
X139820000Y-130520000D03*
X139820000Y-134700000D03*
X131180000Y-134700000D03*
%TD*%
D16*
%TO.P,S1,1,1*%
%TO.N,/H7MCU/NRST*%
X148650000Y-122850000D03*
%TO.P,S1,2,2*%
X148650000Y-116350000D03*
%TO.P,S1,3,3*%
%TO.N,GND*%
X144150000Y-116350000D03*
%TO.P,S1,4,4*%
X144150000Y-122850000D03*
%TD*%
D12*
%TO.P,H1,1*%
%TO.N,N/C*%
X78600000Y-132000000D03*
%TD*%
D17*
%TO.P,R15,1*%
%TO.N,Net-(J2-PadA5)*%
X134200000Y-131837500D03*
%TO.P,R15,2*%
%TO.N,GND*%
X134200000Y-134762500D03*
%TD*%
D18*
%TO.P,R3,1*%
%TO.N,GND*%
X86200000Y-95180000D03*
%TO.P,R3,2*%
%TO.N,Net-(C1-Pad1)*%
X86200000Y-96200000D03*
%TD*%
D19*
%TO.P,J5,1,Pin_1*%
%TO.N,/CM4_GPIO/GPIO_15_RX*%
X114150000Y-86700000D03*
%TO.P,J5,2,Pin_2*%
%TO.N,/CM4_GPIO/GPIO_14_TX*%
X115400000Y-86700000D03*
%TO.P,J5,3,Pin_3*%
%TO.N,GND*%
X116650000Y-86700000D03*
D20*
%TO.P,J5,MP*%
%TO.N,N/C*%
X119200000Y-83800000D03*
X111600000Y-83800000D03*
%TD*%
D21*
%TO.P,R2,1*%
%TO.N,Net-(IC2-Pad1)*%
X94500000Y-93710000D03*
%TO.P,R2,2*%
%TO.N,Net-(C2-Pad2)*%
X94500000Y-92690000D03*
%TD*%
D22*
%TO.P,C1,1*%
%TO.N,Net-(C1-Pad1)*%
X86200000Y-97620000D03*
%TO.P,C1,2*%
%TO.N,Net-(C1-Pad2)*%
X86200000Y-98580000D03*
%TD*%
D23*
%TO.P,C2,1*%
%TO.N,Net-(C2-Pad1)*%
X93420000Y-89700000D03*
%TO.P,C2,2*%
%TO.N,Net-(C2-Pad2)*%
X94380000Y-89700000D03*
%TD*%
D24*
%TO.P,R8,1*%
%TO.N,P_AMP_OUT*%
X82990000Y-104100000D03*
%TO.P,R8,2*%
%TO.N,Net-(IC1-Pad4)*%
X84010000Y-104100000D03*
%TD*%
D21*
%TO.P,R6,1*%
%TO.N,GND*%
X92000000Y-90810000D03*
%TO.P,R6,2*%
%TO.N,Net-(C2-Pad1)*%
X92000000Y-89790000D03*
%TD*%
D22*
%TO.P,C5,1*%
%TO.N,Net-(C5-Pad1)*%
X77500000Y-112420000D03*
%TO.P,C5,2*%
%TO.N,/v_DIV_OUT*%
X77500000Y-113380000D03*
%TD*%
D25*
%TO.P,C4,1*%
%TO.N,Net-(C2-Pad2)*%
X94380000Y-91200000D03*
%TO.P,C4,2*%
%TO.N,GND*%
X93420000Y-91200000D03*
%TD*%
D26*
%TO.P,IC3,1,OUT_A*%
%TO.N,/v_DIV_OUT*%
X79888000Y-112705000D03*
%TO.P,IC3,2,-IN_A*%
%TO.N,Net-(C5-Pad1)*%
X79888000Y-111435000D03*
%TO.P,IC3,3,+IN_A*%
%TO.N,Net-(IC3-Pad3)*%
X79888000Y-110165000D03*
%TO.P,IC3,4,V-*%
%TO.N,GND*%
X79888000Y-108895000D03*
%TO.P,IC3,5,+IN_B*%
%TO.N,Net-(IC3-Pad5)*%
X85312000Y-108895000D03*
%TO.P,IC3,6,-IN_B*%
%TO.N,Net-(IC3-Pad6)*%
X85312000Y-110165000D03*
%TO.P,IC3,7,OUT_B*%
%TO.N,Net-(IC3-Pad7)*%
X85312000Y-111435000D03*
%TO.P,IC3,8,V+*%
%TO.N,/+3.3V*%
X85312000Y-112705000D03*
%TD*%
D17*
%TO.P,R16,1*%
%TO.N,Net-(J2-PadB5)*%
X136800000Y-131837500D03*
%TO.P,R16,2*%
%TO.N,GND*%
X136800000Y-134762500D03*
%TD*%
D27*
%TO.P,R1,1*%
%TO.N,P_AMP_OUT*%
X88510000Y-100400000D03*
%TO.P,R1,2*%
%TO.N,Net-(C1-Pad2)*%
X87490000Y-100400000D03*
%TD*%
D28*
%TO.P,R13,1*%
%TO.N,Net-(IC3-Pad3)*%
X84375000Y-106500000D03*
%TO.P,R13,2*%
%TO.N,P_AMP_OUT*%
X86025000Y-106500000D03*
%TD*%
D27*
%TO.P,R9,1*%
%TO.N,Net-(IC2-Pad4)*%
X90810000Y-98700000D03*
%TO.P,R9,2*%
%TO.N,GND*%
X89790000Y-98700000D03*
%TD*%
D29*
%TO.P,R11,1*%
%TO.N,GND*%
X77400000Y-109475000D03*
%TO.P,R11,2*%
%TO.N,Net-(C5-Pad1)*%
X77400000Y-111125000D03*
%TD*%
D27*
%TO.P,R10,1*%
%TO.N,Net-(IC2-Pad1)*%
X93410000Y-98700000D03*
%TO.P,R10,2*%
%TO.N,Net-(IC2-Pad4)*%
X92390000Y-98700000D03*
%TD*%
D30*
%TO.P,R14,1*%
%TO.N,/+3.3V*%
X87400000Y-112825000D03*
%TO.P,R14,2*%
%TO.N,Net-(IC3-Pad3)*%
X87400000Y-111175000D03*
%TD*%
D31*
%TO.P,C3,1*%
%TO.N,Net-(C1-Pad2)*%
X87600000Y-96180000D03*
%TO.P,C3,2*%
%TO.N,GND*%
X87600000Y-95220000D03*
%TD*%
D32*
%TO.P,IC1,1,OUTPUT*%
%TO.N,P_AMP_OUT*%
X88250000Y-102250000D03*
%TO.P,IC1,2,-VS*%
%TO.N,/VNEG*%
X88250000Y-103200000D03*
%TO.P,IC1,3,POS*%
%TO.N,Net-(C1-Pad1)*%
X88250000Y-104150000D03*
%TO.P,IC1,4,NEG*%
%TO.N,Net-(IC1-Pad4)*%
X85750000Y-104150000D03*
%TO.P,IC1,5,+VS*%
%TO.N,/VPOS*%
X85750000Y-102250000D03*
%TD*%
%TO.P,IC2,1,OUTPUT*%
%TO.N,Net-(IC2-Pad1)*%
X92950000Y-94950000D03*
%TO.P,IC2,2,-VS*%
%TO.N,/VNEG*%
X92950000Y-95900000D03*
%TO.P,IC2,3,POS*%
%TO.N,Net-(C2-Pad1)*%
X92950000Y-96850000D03*
%TO.P,IC2,4,NEG*%
%TO.N,Net-(IC2-Pad4)*%
X90450000Y-96850000D03*
%TO.P,IC2,5,+VS*%
%TO.N,/VPOS*%
X90450000Y-94950000D03*
%TD*%
D27*
%TO.P,R4,1*%
%TO.N,Net-(C2-Pad2)*%
X93610000Y-88300000D03*
%TO.P,R4,2*%
%TO.N,Net-(J1-Pad1)*%
X92590000Y-88300000D03*
%TD*%
D33*
%TO.P,Module1,1,GND*%
%TO.N,GND*%
X104400000Y-88400000D03*
%TO.P,Module1,2,GND*%
X104400000Y-91480000D03*
%TO.P,Module1,3,Ethernet_Pair3_P*%
%TO.N,Net-(Module1-Pad3)*%
X104800000Y-88400000D03*
%TO.P,Module1,4,Ethernet_Pair1_P*%
%TO.N,Net-(Module1-Pad4)*%
X104800000Y-91480000D03*
%TO.P,Module1,5,Ethernet_Pair3_N*%
%TO.N,Net-(Module1-Pad5)*%
X105200000Y-88400000D03*
%TO.P,Module1,6,Ethernet_Pair1_N*%
%TO.N,Net-(Module1-Pad6)*%
X105200000Y-91480000D03*
%TO.P,Module1,7,GND*%
%TO.N,GND*%
X105600000Y-88400000D03*
%TO.P,Module1,8,GND*%
X105600000Y-91480000D03*
%TO.P,Module1,9,Ethernet_Pair2_N*%
%TO.N,Net-(Module1-Pad9)*%
X106000000Y-88400000D03*
%TO.P,Module1,10,Ethernet_Pair0_N*%
%TO.N,Net-(Module1-Pad10)*%
X106000000Y-91480000D03*
%TO.P,Module1,11,Ethernet_Pair2_P*%
%TO.N,Net-(Module1-Pad11)*%
X106400000Y-88400000D03*
%TO.P,Module1,12,Ethernet_Pair0_P*%
%TO.N,Net-(Module1-Pad12)*%
X106400000Y-91480000D03*
%TO.P,Module1,13,GND*%
%TO.N,GND*%
X106800000Y-88400000D03*
%TO.P,Module1,14,GND*%
X106800000Y-91480000D03*
%TO.P,Module1,15,Ethernet_nLED3(3.3v)*%
%TO.N,Net-(Module1-Pad15)*%
X107200000Y-88400000D03*
%TO.P,Module1,16,Ethernet_SYNC_IN(1.8v)*%
%TO.N,Net-(Module1-Pad16)*%
X107200000Y-91480000D03*
%TO.P,Module1,17,Ethernet_nLED2(3.3v)*%
%TO.N,Net-(Module1-Pad17)*%
X107600000Y-88400000D03*
%TO.P,Module1,18,Ethernet_SYNC_OUT(1.8v)*%
%TO.N,Net-(Module1-Pad18)*%
X107600000Y-91480000D03*
%TO.P,Module1,19,Ethernet_nLED1(3.3v)*%
%TO.N,Net-(Module1-Pad19)*%
X108000000Y-88400000D03*
%TO.P,Module1,20,EEPROM_nWP*%
%TO.N,Net-(Module1-Pad20)*%
X108000000Y-91480000D03*
%TO.P,Module1,21,PI_nLED_Activity*%
%TO.N,Net-(Module1-Pad21)*%
X108400000Y-88400000D03*
%TO.P,Module1,22,GND*%
%TO.N,GND*%
X108400000Y-91480000D03*
%TO.P,Module1,23,GND*%
X108800000Y-88400000D03*
%TO.P,Module1,24,GPIO26*%
%TO.N,Net-(Module1-Pad24)*%
X108800000Y-91480000D03*
%TO.P,Module1,25,GPIO21*%
%TO.N,Net-(Module1-Pad25)*%
X109200000Y-88400000D03*
%TO.P,Module1,26,GPIO19*%
%TO.N,Net-(Module1-Pad26)*%
X109200000Y-91480000D03*
%TO.P,Module1,27,GPIO20*%
%TO.N,Net-(Module1-Pad27)*%
X109600000Y-88400000D03*
%TO.P,Module1,28,GPIO13*%
%TO.N,/STM32_3_TX*%
X109600000Y-91480000D03*
%TO.P,Module1,29,GPIO16*%
%TO.N,Net-(Module1-Pad29)*%
X110000000Y-88400000D03*
%TO.P,Module1,30,GPIO6*%
%TO.N,Net-(Module1-Pad30)*%
X110000000Y-91480000D03*
%TO.P,Module1,31,GPIO12*%
%TO.N,/STM32_3_RX*%
X110400000Y-88400000D03*
%TO.P,Module1,32,GND*%
%TO.N,GND*%
X110400000Y-91480000D03*
%TO.P,Module1,33,GND*%
X110800000Y-88400000D03*
%TO.P,Module1,34,GPIO5*%
%TO.N,Net-(Module1-Pad34)*%
X110800000Y-91480000D03*
%TO.P,Module1,35,ID_SC*%
%TO.N,Net-(Module1-Pad35)*%
X111200000Y-88400000D03*
%TO.P,Module1,36,ID_SD*%
%TO.N,Net-(Module1-Pad36)*%
X111200000Y-91480000D03*
%TO.P,Module1,37,GPIO7*%
%TO.N,Net-(Module1-Pad37)*%
X111600000Y-88400000D03*
%TO.P,Module1,38,GPIO11*%
%TO.N,Net-(Module1-Pad38)*%
X111600000Y-91480000D03*
%TO.P,Module1,39,GPIO8*%
%TO.N,Net-(Module1-Pad39)*%
X112000000Y-88400000D03*
%TO.P,Module1,40,GPIO9*%
%TO.N,Net-(Module1-Pad40)*%
X112000000Y-91480000D03*
%TO.P,Module1,41,GPIO25*%
%TO.N,Net-(Module1-Pad41)*%
X112400000Y-88400000D03*
%TO.P,Module1,42,GND*%
%TO.N,GND*%
X112400000Y-91480000D03*
%TO.P,Module1,43,GND*%
X112800000Y-88400000D03*
%TO.P,Module1,44,GPIO10*%
%TO.N,Net-(Module1-Pad44)*%
X112800000Y-91480000D03*
%TO.P,Module1,45,GPIO24*%
%TO.N,Net-(Module1-Pad45)*%
X113200000Y-88400000D03*
%TO.P,Module1,46,GPIO22*%
%TO.N,Net-(Module1-Pad46)*%
X113200000Y-91480000D03*
%TO.P,Module1,47,GPIO23*%
%TO.N,Net-(Module1-Pad47)*%
X113600000Y-88400000D03*
%TO.P,Module1,48,GPIO27*%
%TO.N,Net-(Module1-Pad48)*%
X113600000Y-91480000D03*
%TO.P,Module1,49,GPIO18*%
%TO.N,Net-(Module1-Pad49)*%
X114000000Y-88400000D03*
%TO.P,Module1,50,GPIO17*%
%TO.N,Net-(Module1-Pad50)*%
X114000000Y-91480000D03*
%TO.P,Module1,51,GPIO15*%
%TO.N,/CM4_GPIO/GPIO_15_RX*%
X114400000Y-88400000D03*
%TO.P,Module1,52,GND*%
%TO.N,GND*%
X114400000Y-91480000D03*
%TO.P,Module1,53,GND*%
X114800000Y-88400000D03*
%TO.P,Module1,54,GPIO4*%
%TO.N,Net-(Module1-Pad54)*%
X114800000Y-91480000D03*
%TO.P,Module1,55,GPIO14*%
%TO.N,/CM4_GPIO/GPIO_14_TX*%
X115200000Y-88400000D03*
%TO.P,Module1,56,GPIO3*%
%TO.N,Net-(Module1-Pad56)*%
X115200000Y-91480000D03*
%TO.P,Module1,57,SD_CLK*%
%TO.N,Net-(Module1-Pad57)*%
X115600000Y-88400000D03*
%TO.P,Module1,58,GPIO2*%
%TO.N,Net-(Module1-Pad58)*%
X115600000Y-91480000D03*
%TO.P,Module1,59,GND*%
%TO.N,GND*%
X116000000Y-88400000D03*
%TO.P,Module1,60,GND*%
X116000000Y-91480000D03*
%TO.P,Module1,61,SD_DAT3*%
%TO.N,Net-(Module1-Pad61)*%
X116400000Y-88400000D03*
%TO.P,Module1,62,SD_CMD*%
%TO.N,Net-(Module1-Pad62)*%
X116400000Y-91480000D03*
%TO.P,Module1,63,SD_DAT0*%
%TO.N,Net-(Module1-Pad63)*%
X116800000Y-88400000D03*
%TO.P,Module1,64,SD_DAT5*%
%TO.N,Net-(Module1-Pad64)*%
X116800000Y-91480000D03*
%TO.P,Module1,65,GND*%
%TO.N,GND*%
X117200000Y-88400000D03*
%TO.P,Module1,66,GND*%
X117200000Y-91480000D03*
%TO.P,Module1,67,SD_DAT1*%
%TO.N,Net-(Module1-Pad67)*%
X117600000Y-88400000D03*
%TO.P,Module1,68,SD_DAT4*%
%TO.N,Net-(Module1-Pad68)*%
X117600000Y-91480000D03*
%TO.P,Module1,69,SD_DAT2*%
%TO.N,Net-(Module1-Pad69)*%
X118000000Y-88400000D03*
%TO.P,Module1,70,SD_DAT7*%
%TO.N,Net-(Module1-Pad70)*%
X118000000Y-91480000D03*
%TO.P,Module1,71,GND*%
%TO.N,GND*%
X118400000Y-88400000D03*
%TO.P,Module1,72,SD_DAT6*%
%TO.N,Net-(Module1-Pad72)*%
X118400000Y-91480000D03*
%TO.P,Module1,73,SD_VDD_Override*%
%TO.N,Net-(Module1-Pad73)*%
X118800000Y-88400000D03*
%TO.P,Module1,74,GND*%
%TO.N,GND*%
X118800000Y-91480000D03*
%TO.P,Module1,75,SD_PWR_ON*%
%TO.N,Net-(Module1-Pad75)*%
X119200000Y-88400000D03*
%TO.P,Module1,76,Reserved*%
%TO.N,Net-(Module1-Pad76)*%
X119200000Y-91480000D03*
%TO.P,Module1,77,+5v_(Input)*%
%TO.N,/5V*%
X119600000Y-88400000D03*
%TO.P,Module1,78,GPIO_VREF(1.8v/3.3v_Input)*%
%TO.N,Net-(Module1-Pad78)*%
X119600000Y-91480000D03*
%TO.P,Module1,79,+5v_(Input)*%
%TO.N,/5V*%
X120000000Y-88400000D03*
%TO.P,Module1,80,SCL0*%
%TO.N,Net-(Module1-Pad80)*%
X120000000Y-91480000D03*
%TO.P,Module1,81,+5v_(Input)*%
%TO.N,/5V*%
X120400000Y-88400000D03*
%TO.P,Module1,82,SDA0*%
%TO.N,Net-(Module1-Pad82)*%
X120400000Y-91480000D03*
%TO.P,Module1,83,+5v_(Input)*%
%TO.N,/5V*%
X120800000Y-88400000D03*
%TO.P,Module1,84,+3.3v_(Output)*%
%TO.N,Net-(Module1-Pad84)*%
X120800000Y-91480000D03*
%TO.P,Module1,85,+5v_(Input)*%
%TO.N,/5V*%
X121200000Y-88400000D03*
%TO.P,Module1,86,+3.3v_(Output)*%
%TO.N,Net-(Module1-Pad86)*%
X121200000Y-91480000D03*
%TO.P,Module1,87,+5v_(Input)*%
%TO.N,/5V*%
X121600000Y-88400000D03*
%TO.P,Module1,88,+1.8v_(Output)*%
%TO.N,Net-(Module1-Pad88)*%
X121600000Y-91480000D03*
%TO.P,Module1,89,WiFi_nDisable*%
%TO.N,Net-(Module1-Pad89)*%
X122000000Y-88400000D03*
%TO.P,Module1,90,+1.8v_(Output)*%
%TO.N,Net-(Module1-Pad90)*%
X122000000Y-91480000D03*
%TO.P,Module1,91,BT_nDisable*%
%TO.N,Net-(Module1-Pad91)*%
X122400000Y-88400000D03*
%TO.P,Module1,92,RUN_PG*%
%TO.N,Net-(Module1-Pad92)*%
X122400000Y-91480000D03*
%TO.P,Module1,93,nRPIBOOT*%
%TO.N,Net-(Module1-Pad93)*%
X122800000Y-88400000D03*
%TO.P,Module1,94,AnalogIP0*%
%TO.N,Net-(Module1-Pad94)*%
X122800000Y-91480000D03*
%TO.P,Module1,95,nPI_LED_PWR*%
%TO.N,Net-(Module1-Pad95)*%
X123200000Y-88400000D03*
%TO.P,Module1,96,AnalogIP1*%
%TO.N,Net-(Module1-Pad96)*%
X123200000Y-91480000D03*
%TO.P,Module1,97,Camera_GPIO*%
%TO.N,Net-(Module1-Pad97)*%
X123600000Y-88400000D03*
%TO.P,Module1,98,GND*%
%TO.N,GND*%
X123600000Y-91480000D03*
%TO.P,Module1,99,Global_EN*%
%TO.N,Net-(Module1-Pad99)*%
X124000000Y-88400000D03*
%TO.P,Module1,100,nEXTRST*%
%TO.N,Net-(Module1-Pad100)*%
X124000000Y-91480000D03*
%TO.P,Module1,101,USB_OTG_ID*%
%TO.N,Net-(Module1-Pad101)*%
X104400000Y-122320000D03*
%TO.P,Module1,102,PCIe_CLK_nREQ*%
%TO.N,Net-(Module1-Pad102)*%
X104400000Y-125400000D03*
%TO.P,Module1,103,USB2_N*%
%TO.N,/USB_D-*%
X104800000Y-122320000D03*
%TO.P,Module1,104,Reserved*%
%TO.N,Net-(Module1-Pad104)*%
X104800000Y-125400000D03*
%TO.P,Module1,105,USB2_P*%
%TO.N,/USB_D+*%
X105200000Y-122320000D03*
%TO.P,Module1,106,Reserved*%
%TO.N,Net-(Module1-Pad106)*%
X105200000Y-125400000D03*
%TO.P,Module1,107,GND*%
%TO.N,GND*%
X105600000Y-122320000D03*
%TO.P,Module1,108,GND*%
X105600000Y-125400000D03*
%TO.P,Module1,109,PCIe_nRST*%
%TO.N,Net-(Module1-Pad109)*%
X106000000Y-122320000D03*
%TO.P,Module1,110,PCIe_CLK_P*%
%TO.N,Net-(Module1-Pad110)*%
X106000000Y-125400000D03*
%TO.P,Module1,111,VDAC_COMP*%
%TO.N,Net-(Module1-Pad111)*%
X106400000Y-122320000D03*
%TO.P,Module1,112,PCIe_CLK_N*%
%TO.N,Net-(Module1-Pad112)*%
X106400000Y-125400000D03*
%TO.P,Module1,113,GND*%
%TO.N,GND*%
X106800000Y-122320000D03*
%TO.P,Module1,114,GND*%
X106800000Y-125400000D03*
%TO.P,Module1,115,CAM1_D0_N*%
%TO.N,Net-(Module1-Pad115)*%
X107200000Y-122320000D03*
%TO.P,Module1,116,PCIe_RX_P*%
%TO.N,Net-(Module1-Pad116)*%
X107200000Y-125400000D03*
%TO.P,Module1,117,CAM1_D0_P*%
%TO.N,Net-(Module1-Pad117)*%
X107600000Y-122320000D03*
%TO.P,Module1,118,PCIe_RX_N*%
%TO.N,Net-(Module1-Pad118)*%
X107600000Y-125400000D03*
%TO.P,Module1,119,GND*%
%TO.N,GND*%
X108000000Y-122320000D03*
%TO.P,Module1,120,GND*%
X108000000Y-125400000D03*
%TO.P,Module1,121,CAM1_D1_N*%
%TO.N,Net-(Module1-Pad121)*%
X108400000Y-122320000D03*
%TO.P,Module1,122,PCIe_TX_P*%
%TO.N,Net-(Module1-Pad122)*%
X108400000Y-125400000D03*
%TO.P,Module1,123,CAM1_D1_P*%
%TO.N,Net-(Module1-Pad123)*%
X108800000Y-122320000D03*
%TO.P,Module1,124,PCIe_TX_N*%
%TO.N,Net-(Module1-Pad124)*%
X108800000Y-125400000D03*
%TO.P,Module1,125,GND*%
%TO.N,GND*%
X109200000Y-122320000D03*
%TO.P,Module1,126,GND*%
X109200000Y-125400000D03*
%TO.P,Module1,127,CAM1_C_N*%
%TO.N,Net-(Module1-Pad127)*%
X109600000Y-122320000D03*
%TO.P,Module1,128,CAM0_D0_N*%
%TO.N,Net-(Module1-Pad128)*%
X109600000Y-125400000D03*
%TO.P,Module1,129,CAM1_C_P*%
%TO.N,Net-(Module1-Pad129)*%
X110000000Y-122320000D03*
%TO.P,Module1,130,CAM0_D0_P*%
%TO.N,Net-(Module1-Pad130)*%
X110000000Y-125400000D03*
%TO.P,Module1,131,GND*%
%TO.N,GND*%
X110400000Y-122320000D03*
%TO.P,Module1,132,GND*%
X110400000Y-125400000D03*
%TO.P,Module1,133,CAM1_D2_N*%
%TO.N,Net-(Module1-Pad133)*%
X110800000Y-122320000D03*
%TO.P,Module1,134,CAM0_D1_N*%
%TO.N,Net-(Module1-Pad134)*%
X110800000Y-125400000D03*
%TO.P,Module1,135,CAM1_D2_P*%
%TO.N,Net-(Module1-Pad135)*%
X111200000Y-122320000D03*
%TO.P,Module1,136,CAM0_D1_P*%
%TO.N,Net-(Module1-Pad136)*%
X111200000Y-125400000D03*
%TO.P,Module1,137,GND*%
%TO.N,GND*%
X111600000Y-122320000D03*
%TO.P,Module1,138,GND*%
X111600000Y-125400000D03*
%TO.P,Module1,139,CAM1_D3_N*%
%TO.N,Net-(Module1-Pad139)*%
X112000000Y-122320000D03*
%TO.P,Module1,140,CAM0_C_N*%
%TO.N,Net-(Module1-Pad140)*%
X112000000Y-125400000D03*
%TO.P,Module1,141,CAM1_D3_P*%
%TO.N,Net-(Module1-Pad141)*%
X112400000Y-122320000D03*
%TO.P,Module1,142,CAM0_C_P*%
%TO.N,Net-(Module1-Pad142)*%
X112400000Y-125400000D03*
%TO.P,Module1,143,HDMI1_HOTPLUG*%
%TO.N,Net-(Module1-Pad143)*%
X112800000Y-122320000D03*
%TO.P,Module1,144,GND*%
%TO.N,GND*%
X112800000Y-125400000D03*
%TO.P,Module1,145,HDMI1_SDA*%
%TO.N,Net-(Module1-Pad145)*%
X113200000Y-122320000D03*
%TO.P,Module1,146,HDMI1_TX2_P*%
%TO.N,Net-(Module1-Pad146)*%
X113200000Y-125400000D03*
%TO.P,Module1,147,HDMI1_SCL*%
%TO.N,Net-(Module1-Pad147)*%
X113600000Y-122320000D03*
%TO.P,Module1,148,HDMI1_TX2_N*%
%TO.N,Net-(Module1-Pad148)*%
X113600000Y-125400000D03*
%TO.P,Module1,149,HDMI1_CEC*%
%TO.N,Net-(Module1-Pad149)*%
X114000000Y-122320000D03*
%TO.P,Module1,150,GND*%
%TO.N,GND*%
X114000000Y-125400000D03*
%TO.P,Module1,151,HDMI0_CEC*%
%TO.N,Net-(Module1-Pad151)*%
X114400000Y-122320000D03*
%TO.P,Module1,152,HDMI1_TX1_P*%
%TO.N,Net-(Module1-Pad152)*%
X114400000Y-125400000D03*
%TO.P,Module1,153,HDMI0_HOTPLUG*%
%TO.N,Net-(Module1-Pad153)*%
X114800000Y-122320000D03*
%TO.P,Module1,154,HDMI1_TX1_N*%
%TO.N,Net-(Module1-Pad154)*%
X114800000Y-125400000D03*
%TO.P,Module1,155,GND*%
%TO.N,GND*%
X115200000Y-122320000D03*
%TO.P,Module1,156,GND*%
X115200000Y-125400000D03*
%TO.P,Module1,157,DSI0_D0_N*%
%TO.N,Net-(Module1-Pad157)*%
X115600000Y-122320000D03*
%TO.P,Module1,158,HDMI1_TX0_P*%
%TO.N,Net-(Module1-Pad158)*%
X115600000Y-125400000D03*
%TO.P,Module1,159,DSI0_D0_P*%
%TO.N,Net-(Module1-Pad159)*%
X116000000Y-122320000D03*
%TO.P,Module1,160,HDMI1_TX0_N*%
%TO.N,Net-(Module1-Pad160)*%
X116000000Y-125400000D03*
%TO.P,Module1,161,GND*%
%TO.N,GND*%
X116400000Y-122320000D03*
%TO.P,Module1,162,GND*%
X116400000Y-125400000D03*
%TO.P,Module1,163,DSI0_D1_N*%
%TO.N,Net-(Module1-Pad163)*%
X116800000Y-122320000D03*
%TO.P,Module1,164,HDMI1_CLK_P*%
%TO.N,Net-(Module1-Pad164)*%
X116800000Y-125400000D03*
%TO.P,Module1,165,DSI0_D1_P*%
%TO.N,Net-(Module1-Pad165)*%
X117200000Y-122320000D03*
%TO.P,Module1,166,HDMI1_CLK_N*%
%TO.N,Net-(Module1-Pad166)*%
X117200000Y-125400000D03*
%TO.P,Module1,167,GND*%
%TO.N,GND*%
X117600000Y-122320000D03*
%TO.P,Module1,168,GND*%
X117600000Y-125400000D03*
%TO.P,Module1,169,DSI0_C_N*%
%TO.N,Net-(Module1-Pad169)*%
X118000000Y-122320000D03*
%TO.P,Module1,170,HDMI0_TX2_P*%
%TO.N,Net-(Module1-Pad170)*%
X118000000Y-125400000D03*
%TO.P,Module1,171,DSI0_C_P*%
%TO.N,Net-(Module1-Pad171)*%
X118400000Y-122320000D03*
%TO.P,Module1,172,HDMI0_TX2_N*%
%TO.N,Net-(Module1-Pad172)*%
X118400000Y-125400000D03*
%TO.P,Module1,173,GND*%
%TO.N,GND*%
X118800000Y-122320000D03*
%TO.P,Module1,174,GND*%
X118800000Y-125400000D03*
%TO.P,Module1,175,DSI1_D0_N*%
%TO.N,Net-(Module1-Pad175)*%
X119200000Y-122320000D03*
%TO.P,Module1,176,HDMI0_TX1_P*%
%TO.N,Net-(Module1-Pad176)*%
X119200000Y-125400000D03*
%TO.P,Module1,177,DSI1_D0_P*%
%TO.N,Net-(Module1-Pad177)*%
X119600000Y-122320000D03*
%TO.P,Module1,178,HDMI0_TX1_N*%
%TO.N,Net-(Module1-Pad178)*%
X119600000Y-125400000D03*
%TO.P,Module1,179,GND*%
%TO.N,GND*%
X120000000Y-122320000D03*
%TO.P,Module1,180,GND*%
X120000000Y-125400000D03*
%TO.P,Module1,181,DSI1_D1_N*%
%TO.N,Net-(Module1-Pad181)*%
X120400000Y-122320000D03*
%TO.P,Module1,182,HDMI0_TX0_P*%
%TO.N,Net-(Module1-Pad182)*%
X120400000Y-125400000D03*
%TO.P,Module1,183,DSI1_D1_P*%
%TO.N,Net-(Module1-Pad183)*%
X120800000Y-122320000D03*
%TO.P,Module1,184,HDMI0_TX0_N*%
%TO.N,Net-(Module1-Pad184)*%
X120800000Y-125400000D03*
%TO.P,Module1,185,GND*%
%TO.N,GND*%
X121200000Y-122320000D03*
%TO.P,Module1,186,GND*%
X121200000Y-125400000D03*
%TO.P,Module1,187,DSI1_C_N*%
%TO.N,Net-(Module1-Pad187)*%
X121600000Y-122320000D03*
%TO.P,Module1,188,HDMI0_CLK_P*%
%TO.N,Net-(Module1-Pad188)*%
X121600000Y-125400000D03*
%TO.P,Module1,189,DSI1_C_P*%
%TO.N,Net-(Module1-Pad189)*%
X122000000Y-122320000D03*
%TO.P,Module1,190,HDMI0_CLK_N*%
%TO.N,Net-(Module1-Pad190)*%
X122000000Y-125400000D03*
%TO.P,Module1,191,GND*%
%TO.N,GND*%
X122400000Y-122320000D03*
%TO.P,Module1,192,GND*%
X122400000Y-125400000D03*
%TO.P,Module1,193,DSI1_D2_N*%
%TO.N,Net-(Module1-Pad193)*%
X122800000Y-122320000D03*
%TO.P,Module1,194,DSI1_D3_N*%
%TO.N,Net-(Module1-Pad194)*%
X122800000Y-125400000D03*
%TO.P,Module1,195,DSI1_D2_P*%
%TO.N,Net-(Module1-Pad195)*%
X123200000Y-122320000D03*
%TO.P,Module1,196,DSI1_D3_P*%
%TO.N,Net-(Module1-Pad196)*%
X123200000Y-125400000D03*
%TO.P,Module1,197,GND*%
%TO.N,GND*%
X123600000Y-122320000D03*
%TO.P,Module1,198,GND*%
X123600000Y-125400000D03*
%TO.P,Module1,199,HDMI0_SDA*%
%TO.N,Net-(Module1-Pad199)*%
X124000000Y-122320000D03*
%TO.P,Module1,200,HDMI0_SCL*%
%TO.N,Net-(Module1-Pad200)*%
X124000000Y-125400000D03*
%TD*%
D21*
%TO.P,R5,1*%
%TO.N,Net-(C1-Pad2)*%
X95900000Y-95910000D03*
%TO.P,R5,2*%
%TO.N,Net-(IC2-Pad1)*%
X95900000Y-94890000D03*
%TD*%
D34*
%TO.P,J1,1,In*%
%TO.N,Net-(J1-Pad1)*%
X92600000Y-84500000D03*
D35*
%TO.P,J1,2,Ext*%
%TO.N,GND*%
X89775000Y-84700000D03*
X95425000Y-84700000D03*
%TD*%
D28*
%TO.P,R12,1*%
%TO.N,/v_DIV_OUT*%
X79475000Y-114600000D03*
%TO.P,R12,2*%
%TO.N,Net-(C5-Pad1)*%
X81125000Y-114600000D03*
%TD*%
D27*
%TO.P,R7,1*%
%TO.N,Net-(IC1-Pad4)*%
X83910000Y-102800000D03*
%TO.P,R7,2*%
%TO.N,GND*%
X82890000Y-102800000D03*
%TD*%
D36*
%TO.N,GND*%
X120600000Y-89500000D03*
%TO.N,/+3.3V*%
X127552786Y-89094429D03*
%TO.N,GND*%
X128000000Y-88200000D03*
X127400000Y-87500000D03*
X127280000Y-91682225D03*
%TO.N,/H7MCU/VCAP1*%
X123500000Y-95000000D03*
X111000000Y-97800000D03*
%TO.N,/H7MCU/VLXSMPS*%
X96000000Y-102600000D03*
%TO.N,/H7MCU/VCAP1*%
X99700000Y-102500000D03*
%TO.N,/H7MCU/VLXSMPS*%
X106800000Y-100400000D03*
%TO.N,GND*%
X119400000Y-119400000D03*
%TO.N,/+3.3V*%
X118200000Y-119300000D03*
X126100000Y-119400000D03*
%TO.N,GND*%
X127700000Y-119200000D03*
X125300000Y-120100000D03*
X124600000Y-120800000D03*
%TO.N,/H7MCU/VCAP1*%
X118500000Y-112400000D03*
X111200000Y-107600000D03*
%TO.N,/H7MCU/VDDSMPS*%
X106700000Y-101700000D03*
%TO.N,/+3.3V*%
X136600000Y-103300000D03*
%TO.N,GND*%
X136700000Y-107500000D03*
X82500000Y-133800000D03*
X82500000Y-135000000D03*
X83500000Y-134300000D03*
X83500000Y-135400000D03*
X98800000Y-130200000D03*
X100000000Y-130500000D03*
X99100000Y-131200000D03*
X98100000Y-131100000D03*
X118700000Y-124300000D03*
X116400000Y-124300000D03*
X106800000Y-87300000D03*
X94700000Y-121500000D03*
X117600000Y-124300000D03*
X109200000Y-121200000D03*
X128500000Y-132900000D03*
X108300000Y-99900000D03*
X99200000Y-93600000D03*
X129900000Y-135600000D03*
X141200000Y-133000000D03*
X141800000Y-135400000D03*
X108000000Y-124400000D03*
X99500000Y-89500000D03*
X79500000Y-104400000D03*
X107700000Y-87300000D03*
X100300000Y-119400000D03*
X115200000Y-135100000D03*
X128200000Y-135000000D03*
X88800000Y-95000000D03*
X87900000Y-86200000D03*
X122500000Y-114800000D03*
X110400000Y-124400000D03*
X123000000Y-123500000D03*
X81900000Y-89800000D03*
X108000000Y-121100000D03*
X97500000Y-86200000D03*
X92300000Y-91900000D03*
X122000000Y-124000000D03*
X136700000Y-109500000D03*
X110400000Y-92800000D03*
X121100000Y-121200000D03*
X105700000Y-121100000D03*
X122300000Y-121200000D03*
X116400000Y-93100000D03*
X119000000Y-87400000D03*
X132400000Y-135100000D03*
X115200000Y-121200000D03*
X111800000Y-87400000D03*
X114200000Y-92800000D03*
X117200000Y-89500000D03*
X129600000Y-134600000D03*
X122000000Y-133600000D03*
X119800000Y-128800000D03*
X149000000Y-129300000D03*
X88400000Y-108600000D03*
X138500000Y-134800000D03*
X112200000Y-135600000D03*
X105100000Y-87200000D03*
X141800000Y-134200000D03*
X128800000Y-122600000D03*
X106800000Y-92700000D03*
X114800000Y-133900000D03*
X124700000Y-100600000D03*
X138500000Y-133700000D03*
X104100000Y-87200000D03*
X105700000Y-124300000D03*
X95700000Y-117700000D03*
X100400000Y-118300000D03*
X99300000Y-109500000D03*
X133500000Y-113700000D03*
X115700000Y-119400000D03*
X108400000Y-92800000D03*
X114500000Y-133000000D03*
X109200000Y-124400000D03*
X105400000Y-92800000D03*
X78000000Y-106200000D03*
X145600000Y-115200000D03*
X125100000Y-109100000D03*
X123500000Y-121100000D03*
X117600000Y-121200000D03*
X94700000Y-117300000D03*
X118000000Y-87400000D03*
X111300000Y-134900000D03*
X104400000Y-95100000D03*
X97600000Y-85000000D03*
X112800000Y-124300000D03*
X144900000Y-124300000D03*
X114000000Y-124400000D03*
X106700000Y-124300000D03*
X99100000Y-103400000D03*
X112400000Y-93000000D03*
X88600000Y-98600000D03*
X112500000Y-119500000D03*
X91400000Y-115500000D03*
X110400000Y-121200000D03*
X120100000Y-124200000D03*
X81700000Y-90900000D03*
X104500000Y-119400000D03*
X149800000Y-127700000D03*
X143500000Y-124500000D03*
X91000000Y-114700000D03*
X87700000Y-85200000D03*
X123400000Y-106800000D03*
X141100000Y-130700000D03*
X115200000Y-124300000D03*
X111700000Y-121200000D03*
X111500000Y-124400000D03*
X105500000Y-131300000D03*
X130200000Y-129400000D03*
X146400000Y-116100000D03*
X132900000Y-112700000D03*
X132400000Y-133900000D03*
X128100000Y-133800000D03*
X119900000Y-121200000D03*
X97500000Y-93800000D03*
X87800000Y-84000000D03*
X140900000Y-131600000D03*
X130200000Y-131800000D03*
X106800000Y-121100000D03*
X118000000Y-92800000D03*
X130500000Y-127800000D03*
X106700000Y-97200000D03*
X136500000Y-106500000D03*
X118800000Y-121200000D03*
X128000000Y-122600000D03*
X116300000Y-121200000D03*
X150000000Y-128800000D03*
X130500000Y-94600000D03*
X95800000Y-121300000D03*
X121625000Y-134425000D03*
X97600000Y-83800000D03*
X79100000Y-105600000D03*
%TO.N,Net-(BT1-Pad1)*%
X105200000Y-97100000D03*
X95280331Y-99380331D03*
%TO.N,Net-(C1-Pad2)*%
X88700000Y-96800000D03*
X95900000Y-97599999D03*
%TO.N,Net-(C2-Pad1)*%
X94250001Y-96900000D03*
X92000000Y-93100000D03*
%TO.N,/v_DIV_OUT*%
X87500000Y-105400000D03*
X104000000Y-110500000D03*
X89100000Y-107400000D03*
X86169669Y-103169669D03*
%TO.N,/5V*%
X122300000Y-87400000D03*
X121400000Y-87400000D03*
X128300000Y-120400000D03*
X124400000Y-130600000D03*
X111000000Y-128900000D03*
X120300000Y-87400000D03*
X106500000Y-135300000D03*
X100700000Y-135300000D03*
X131300000Y-86300000D03*
X119600000Y-130600000D03*
%TO.N,/VPOS*%
X113500000Y-129900000D03*
%TO.N,/VNEG*%
X92000000Y-100000000D03*
X89900000Y-104700000D03*
X124700000Y-126900000D03*
X91400000Y-122900000D03*
%TO.N,/+3.3V*%
X106900000Y-119000000D03*
X82700000Y-128600000D03*
X99100000Y-105800000D03*
X130700000Y-102700000D03*
X149900000Y-125900000D03*
X102100000Y-121100000D03*
X124600000Y-108200000D03*
X83600000Y-128700000D03*
X91200000Y-132600000D03*
%TO.N,/H7MCU/VCAP1*%
X103600000Y-92900000D03*
%TO.N,/+3.3V*%
X96600000Y-118900000D03*
X99300000Y-120200000D03*
X129000000Y-110800000D03*
X89400000Y-111600000D03*
X111300000Y-93400000D03*
X114000000Y-119300000D03*
X97300000Y-106100000D03*
X111500000Y-132500000D03*
X129600000Y-84300000D03*
X131100000Y-106800000D03*
X108700000Y-128000000D03*
X81700000Y-128700000D03*
X89100000Y-112900000D03*
X115400000Y-93300000D03*
X91200000Y-131100000D03*
X130200000Y-110900000D03*
X103800000Y-96100000D03*
X130700000Y-100800000D03*
X101700000Y-88100000D03*
X108500000Y-130100000D03*
X131300000Y-97400000D03*
X108800000Y-129200000D03*
X96500000Y-120000000D03*
X82600000Y-129600000D03*
X117300000Y-119400000D03*
X111500000Y-133600000D03*
X130300000Y-97600000D03*
X90900000Y-129900000D03*
X129100000Y-117100000D03*
X131300000Y-111100000D03*
X90400000Y-133800000D03*
X91200000Y-101900000D03*
X107400000Y-98300000D03*
X106900000Y-131800000D03*
X104100000Y-114300000D03*
X136600000Y-104300000D03*
X130300000Y-117300000D03*
X131900000Y-116700000D03*
X101300000Y-116200000D03*
X130500000Y-104500000D03*
X128900000Y-94500000D03*
X98600000Y-121100000D03*
X133500000Y-115300000D03*
X111500000Y-131400000D03*
X123600000Y-93200000D03*
%TO.N,/H7MCU/VCAP1*%
X94031977Y-102580579D03*
%TO.N,/H7MCU/VDDSMPS*%
X92300000Y-105000000D03*
%TO.N,/H7MCU/VLXSMPS*%
X95700000Y-100300000D03*
%TO.N,Net-(C48-Pad1)*%
X91900000Y-107900000D03*
X97500000Y-107200000D03*
%TO.N,/H7MCU/NRST*%
X103660002Y-109050000D03*
X142800000Y-94900000D03*
X148300000Y-113300000D03*
X114500000Y-109700000D03*
%TO.N,/H7MCU/LED_STAT*%
X99900000Y-113900000D03*
X100700000Y-121100000D03*
%TO.N,/H7MCU/SDMMC_CMD*%
X132400000Y-103600000D03*
X119100000Y-96100000D03*
%TO.N,/H7MCU/SDMMC_CK*%
X133000000Y-105500000D03*
X120200000Y-99200000D03*
%TO.N,/H7MCU/SDMMC_D3*%
X132700000Y-101700000D03*
X121300000Y-95800000D03*
%TO.N,/H7MCU/SDMMC_D2*%
X121600000Y-94600000D03*
X132600000Y-99000000D03*
%TO.N,/H7MCU/SWCLK*%
X122400000Y-93200000D03*
%TO.N,/USB_D+*%
X106628768Y-113828768D03*
%TO.N,/USB_D-*%
X107371232Y-114571232D03*
%TO.N,/H7MCU/SDMMC_D1*%
X132200000Y-108900000D03*
X122400000Y-104300000D03*
%TO.N,/H7MCU/SDMMC_D0*%
X123800000Y-104000000D03*
X132200000Y-106800000D03*
%TO.N,/STM32_3_RX*%
X120600000Y-114100000D03*
%TO.N,/STM32_3_TX*%
X109800000Y-99600000D03*
X119600000Y-113900000D03*
X109600000Y-95600000D03*
%TO.N,Net-(J2-PadB5)*%
X137200000Y-128100000D03*
%TO.N,Net-(J2-PadA5)*%
X134200000Y-128000000D03*
%TD*%
D37*
%TO.N,GND*%
X123200000Y-89500000D02*
X120600000Y-89500000D01*
X123600000Y-89900000D02*
X123200000Y-89500000D01*
X123600000Y-91480000D02*
X123600000Y-89900000D01*
D38*
%TO.N,/H7MCU/VCAP1*%
X114700000Y-97800000D02*
X111000000Y-97800000D01*
X123500000Y-95000000D02*
X123126998Y-95000000D01*
X118625001Y-93874999D02*
X114700000Y-97800000D01*
X123126998Y-95000000D02*
X122001997Y-93874999D01*
X122001997Y-93874999D02*
X118625001Y-93874999D01*
D39*
%TO.N,/H7MCU/VLXSMPS*%
X96000000Y-102600000D02*
X96000000Y-100600000D01*
X96000000Y-100600000D02*
X95700000Y-100300000D01*
%TO.N,/H7MCU/VCAP1*%
X98400000Y-102500000D02*
X97300000Y-103600000D01*
X97300000Y-103600000D02*
X95051398Y-103600000D01*
X99700000Y-102500000D02*
X98400000Y-102500000D01*
X95051398Y-103600000D02*
X94031977Y-102580579D01*
X94112556Y-102500000D02*
X94031977Y-102580579D01*
%TO.N,/H7MCU/VDDSMPS*%
X103100000Y-101500000D02*
X106500000Y-101500000D01*
X106500000Y-101500000D02*
X106700000Y-101700000D01*
%TO.N,/H7MCU/VLXSMPS*%
X106800000Y-100400000D02*
X106400001Y-100000001D01*
X106400001Y-100000001D02*
X95999999Y-100000001D01*
X95999999Y-100000001D02*
X95700000Y-100300000D01*
%TO.N,/H7MCU/VCAP1*%
X113700000Y-107600000D02*
X118500000Y-112400000D01*
X111200000Y-107600000D02*
X113700000Y-107600000D01*
D37*
%TO.N,GND*%
X108000000Y-122320000D02*
X108000000Y-121100000D01*
X108800000Y-88400000D02*
X108800000Y-87600000D01*
D40*
X88500000Y-84700000D02*
X87800000Y-84000000D01*
D37*
X109200000Y-122320000D02*
X109200000Y-121200000D01*
D41*
X133862500Y-135100000D02*
X134200000Y-134762500D01*
D37*
X117200000Y-88400000D02*
X117200000Y-87250000D01*
D41*
X93000000Y-91200000D02*
X92300000Y-91900000D01*
D37*
X123000000Y-123700000D02*
X123000000Y-123500000D01*
D41*
X77400000Y-106800000D02*
X78000000Y-106200000D01*
D37*
X110400000Y-91480000D02*
X110400000Y-92800000D01*
X114000000Y-125400000D02*
X114000000Y-124400000D01*
X110400000Y-87300000D02*
X108500000Y-87300000D01*
D40*
X134200000Y-134762500D02*
X136800000Y-134762500D01*
D37*
X106800000Y-88400000D02*
X106800000Y-87300000D01*
D40*
X97600000Y-85000000D02*
X95725000Y-85000000D01*
D37*
X111600000Y-124500000D02*
X111500000Y-124400000D01*
D41*
X79500000Y-104400000D02*
X79500000Y-105200000D01*
X137437500Y-134762500D02*
X138500000Y-133700000D01*
D37*
X118000000Y-87400000D02*
X118400000Y-87800000D01*
X120000000Y-124300000D02*
X120100000Y-124200000D01*
X116400000Y-121300000D02*
X116300000Y-121200000D01*
X115200000Y-125400000D02*
X115200000Y-124300000D01*
X122400000Y-121300000D02*
X122300000Y-121200000D01*
D41*
X87560000Y-95180000D02*
X87600000Y-95220000D01*
X133337500Y-133900000D02*
X134200000Y-134762500D01*
D37*
X118800000Y-91480000D02*
X118800000Y-92000000D01*
X121200000Y-122320000D02*
X121200000Y-121300000D01*
X108400000Y-91480000D02*
X108400000Y-92800000D01*
X110400000Y-125400000D02*
X110400000Y-124400000D01*
X118800000Y-124400000D02*
X118700000Y-124300000D01*
X108500000Y-87300000D02*
X107700000Y-87300000D01*
D40*
X95725000Y-85000000D02*
X95425000Y-84700000D01*
D41*
X81100000Y-102800000D02*
X79500000Y-104400000D01*
D37*
X117600000Y-122320000D02*
X117600000Y-121200000D01*
X105600000Y-125400000D02*
X105600000Y-124400000D01*
X122400000Y-124400000D02*
X122000000Y-124000000D01*
X120600000Y-124200000D02*
X120100000Y-124200000D01*
X117350000Y-87400000D02*
X116650000Y-86700000D01*
X117200000Y-92000000D02*
X118000000Y-92800000D01*
X111600000Y-121300000D02*
X111700000Y-121200000D01*
X116400000Y-125400000D02*
X116400000Y-124300000D01*
D41*
X82890000Y-102800000D02*
X81100000Y-102800000D01*
D37*
X114400000Y-91480000D02*
X114400000Y-92600000D01*
X118400000Y-87800000D02*
X118400000Y-88400000D01*
D40*
X96700000Y-84700000D02*
X97600000Y-83800000D01*
D37*
X105200000Y-92800000D02*
X105400000Y-92800000D01*
X123600000Y-124300000D02*
X123000000Y-123700000D01*
X116650000Y-86971264D02*
X116650000Y-86700000D01*
D41*
X86200000Y-95180000D02*
X87560000Y-95180000D01*
D37*
X120000000Y-122320000D02*
X120000000Y-121300000D01*
X116000000Y-87621264D02*
X116650000Y-86971264D01*
X105600000Y-88400000D02*
X105600000Y-87700000D01*
X106800000Y-125400000D02*
X106800000Y-124400000D01*
X116000000Y-88400000D02*
X116000000Y-87621264D01*
X108800000Y-87600000D02*
X108500000Y-87300000D01*
D40*
X89400000Y-84700000D02*
X87900000Y-86200000D01*
D37*
X117200000Y-87250000D02*
X116650000Y-86700000D01*
D40*
X95425000Y-84700000D02*
X96700000Y-84700000D01*
D41*
X77980000Y-108895000D02*
X79888000Y-108895000D01*
D37*
X118000000Y-87400000D02*
X117350000Y-87400000D01*
D41*
X79500000Y-105200000D02*
X79100000Y-105600000D01*
D37*
X110800000Y-88400000D02*
X110800000Y-87700000D01*
X112800000Y-88400000D02*
X112800000Y-87700000D01*
X106800000Y-91480000D02*
X106800000Y-92700000D01*
X114800000Y-89100000D02*
X116800001Y-89100001D01*
X116000000Y-91480000D02*
X116000000Y-92700000D01*
X105600000Y-121200000D02*
X105700000Y-121100000D01*
X109200000Y-125400000D02*
X109200000Y-124400000D01*
D41*
X78000000Y-106200000D02*
X78500000Y-106200000D01*
D37*
X116800001Y-89100001D02*
X117200000Y-89500000D01*
X123600000Y-121600000D02*
X123600000Y-121200000D01*
X114800000Y-88400000D02*
X114800000Y-89100000D01*
X105600000Y-122320000D02*
X105600000Y-121200000D01*
X117200000Y-91480000D02*
X117200000Y-92000000D01*
X115200000Y-122320000D02*
X115200000Y-121200000D01*
X104400000Y-92000000D02*
X105200000Y-92800000D01*
D41*
X136800000Y-134762500D02*
X138462500Y-134762500D01*
X92000000Y-90810000D02*
X92000000Y-91600000D01*
D37*
X112500000Y-87400000D02*
X111800000Y-87400000D01*
D41*
X118000000Y-87400000D02*
X119000000Y-87400000D01*
D37*
X118800000Y-122320000D02*
X118800000Y-121200000D01*
X120000000Y-125400000D02*
X120000000Y-124300000D01*
X123600000Y-121200000D02*
X123500000Y-121100000D01*
D40*
X89775000Y-84700000D02*
X89400000Y-84700000D01*
D37*
X116000000Y-92700000D02*
X116400000Y-93100000D01*
X121200000Y-124800000D02*
X120600000Y-124200000D01*
D41*
X88700000Y-98700000D02*
X88600000Y-98600000D01*
D37*
X121200000Y-121300000D02*
X121100000Y-121200000D01*
X122400000Y-125400000D02*
X122400000Y-124400000D01*
D41*
X132400000Y-135100000D02*
X133862500Y-135100000D01*
D37*
X123600000Y-122320000D02*
X123600000Y-121600000D01*
D41*
X87600000Y-95220000D02*
X88580000Y-95220000D01*
D37*
X116400000Y-122320000D02*
X116400000Y-121300000D01*
D41*
X132400000Y-133900000D02*
X133337500Y-133900000D01*
X89790000Y-98700000D02*
X88700000Y-98700000D01*
X93420000Y-91200000D02*
X93000000Y-91200000D01*
X88580000Y-95220000D02*
X88800000Y-95000000D01*
D40*
X89775000Y-84700000D02*
X88500000Y-84700000D01*
D37*
X122400000Y-122320000D02*
X122400000Y-121300000D01*
X114400000Y-92600000D02*
X114200000Y-92800000D01*
X120000000Y-121300000D02*
X119900000Y-121200000D01*
D41*
X92000000Y-91600000D02*
X92300000Y-91900000D01*
D37*
X105600000Y-92600000D02*
X105400000Y-92800000D01*
D41*
X77400000Y-109475000D02*
X77980000Y-108895000D01*
D37*
X105600000Y-87700000D02*
X105100000Y-87200000D01*
X106800000Y-124400000D02*
X106700000Y-124300000D01*
X105600000Y-91480000D02*
X105600000Y-92600000D01*
D41*
X138462500Y-134762500D02*
X138500000Y-134800000D01*
D37*
X105600000Y-124400000D02*
X105700000Y-124300000D01*
X106800000Y-122320000D02*
X106800000Y-121100000D01*
X111600000Y-122320000D02*
X111600000Y-121300000D01*
X112800000Y-87700000D02*
X112500000Y-87400000D01*
X111600000Y-125400000D02*
X111600000Y-124500000D01*
X118800000Y-92000000D02*
X118000000Y-92800000D01*
X110800000Y-87700000D02*
X110400000Y-87300000D01*
X121200000Y-125400000D02*
X121200000Y-124800000D01*
X104400000Y-91480000D02*
X104400000Y-92000000D01*
X112800000Y-125400000D02*
X112800000Y-124300000D01*
D40*
X96925000Y-86200000D02*
X95425000Y-84700000D01*
D37*
X117600000Y-125400000D02*
X117600000Y-124300000D01*
X108000000Y-125400000D02*
X108000000Y-124400000D01*
X104400000Y-88400000D02*
X104400000Y-87500000D01*
X123600000Y-125400000D02*
X123600000Y-124300000D01*
D41*
X77400000Y-109475000D02*
X77400000Y-106800000D01*
D37*
X112400000Y-91480000D02*
X112400000Y-93000000D01*
X110400000Y-122320000D02*
X110400000Y-121200000D01*
D41*
X136800000Y-134762500D02*
X137437500Y-134762500D01*
X78500000Y-106200000D02*
X79100000Y-105600000D01*
D37*
X104400000Y-87500000D02*
X104100000Y-87200000D01*
D40*
X97500000Y-86200000D02*
X96925000Y-86200000D01*
D37*
X118800000Y-125400000D02*
X118800000Y-124400000D01*
D39*
%TO.N,Net-(BT1-Pad1)*%
X95280331Y-99380331D02*
X102919669Y-99380331D01*
X102919669Y-99380331D02*
X105200000Y-97100000D01*
%TO.N,Net-(C1-Pad2)*%
X86200000Y-99110000D02*
X87490000Y-100400000D01*
X95900000Y-95910000D02*
X95900000Y-97599999D01*
X88220000Y-96800000D02*
X87600000Y-96180000D01*
X88700000Y-96800000D02*
X88220000Y-96800000D01*
X86200000Y-98580000D02*
X86200000Y-99110000D01*
X87600000Y-97495000D02*
X87600000Y-96180000D01*
X86200000Y-98580000D02*
X86515000Y-98580000D01*
X86515000Y-98580000D02*
X87600000Y-97495000D01*
%TO.N,Net-(C1-Pad1)*%
X87669998Y-104150000D02*
X88250000Y-104150000D01*
X86200000Y-97620000D02*
X85885000Y-97620000D01*
X85885000Y-97620000D02*
X85500000Y-98005000D01*
X87200000Y-101300000D02*
X87200000Y-103680002D01*
X85500000Y-98005000D02*
X85500000Y-99600000D01*
X87200000Y-103680002D02*
X87669998Y-104150000D01*
X85500000Y-99600000D02*
X87200000Y-101300000D01*
X86200000Y-96200000D02*
X86200000Y-97620000D01*
D38*
%TO.N,Net-(C2-Pad2)*%
X94380000Y-92570000D02*
X94500000Y-92690000D01*
X93610000Y-88300000D02*
X94380000Y-89070000D01*
X94380000Y-89070000D02*
X94380000Y-89700000D01*
X94380000Y-91200000D02*
X94380000Y-92570000D01*
X94380000Y-89700000D02*
X94380000Y-91200000D01*
D39*
%TO.N,Net-(C2-Pad1)*%
X91000000Y-92100000D02*
X91000000Y-90465000D01*
X91675000Y-89790000D02*
X92000000Y-89790000D01*
X91000000Y-90465000D02*
X91675000Y-89790000D01*
X92950000Y-96850000D02*
X94200001Y-96850000D01*
X93420000Y-89700000D02*
X92090000Y-89700000D01*
X92000000Y-93100000D02*
X91000000Y-92100000D01*
X94200001Y-96850000D02*
X94250001Y-96900000D01*
X92090000Y-89700000D02*
X92000000Y-89790000D01*
%TO.N,/v_DIV_OUT*%
X87500000Y-105400000D02*
X86700001Y-104600001D01*
D41*
X79475000Y-114600000D02*
X80405010Y-115530010D01*
X92400000Y-111800000D02*
X92500000Y-111700000D01*
X88669990Y-115530010D02*
X92400000Y-111800000D01*
D39*
X92400000Y-111800000D02*
X92400000Y-110700000D01*
D41*
X96300000Y-110500000D02*
X104000000Y-110500000D01*
D39*
X78255000Y-113380000D02*
X79475000Y-114600000D01*
D41*
X95100000Y-111700000D02*
X96300000Y-110500000D01*
D39*
X86700001Y-103700001D02*
X86169669Y-103169669D01*
D41*
X92500000Y-111700000D02*
X95100000Y-111700000D01*
D39*
X77500000Y-113380000D02*
X78255000Y-113380000D01*
X79888000Y-114187000D02*
X79475000Y-114600000D01*
D41*
X80405010Y-115530010D02*
X88669990Y-115530010D01*
D39*
X92400000Y-110700000D02*
X89100000Y-107400000D01*
X86700001Y-104600001D02*
X86700001Y-103700001D01*
X79888000Y-112705000D02*
X79888000Y-114187000D01*
%TO.N,Net-(C5-Pad1)*%
X77710000Y-111435000D02*
X77400000Y-111125000D01*
X81500000Y-111600000D02*
X81500000Y-114225000D01*
X77500000Y-112420000D02*
X77500000Y-111225000D01*
X79888000Y-111435000D02*
X81335000Y-111435000D01*
X81500000Y-114225000D02*
X81125000Y-114600000D01*
X79888000Y-111435000D02*
X77710000Y-111435000D01*
X77500000Y-111225000D02*
X77400000Y-111125000D01*
X81335000Y-111435000D02*
X81500000Y-111600000D01*
D37*
%TO.N,/5V*%
X121200000Y-88400000D02*
X120800000Y-88400000D01*
X121600000Y-88400000D02*
X121600000Y-87800000D01*
X120000000Y-88400000D02*
X120000000Y-87700000D01*
D39*
X100700000Y-135300000D02*
X106500000Y-135300000D01*
D37*
X120800000Y-88400000D02*
X120800000Y-88000000D01*
D40*
X111000000Y-129465685D02*
X106500000Y-133965685D01*
D37*
X121600000Y-87800000D02*
X122000000Y-87400000D01*
D41*
X120300000Y-87400000D02*
X121500000Y-86200000D01*
X129500010Y-82500010D02*
X131300000Y-84300000D01*
D40*
X111000000Y-128900000D02*
X111000000Y-129465685D01*
D37*
X119600000Y-88400000D02*
X120000000Y-88400000D01*
X122000000Y-87400000D02*
X122300000Y-87400000D01*
X119600000Y-88100000D02*
X120300000Y-87400000D01*
X120000000Y-87700000D02*
X120300000Y-87400000D01*
X119600000Y-88400000D02*
X119600000Y-88100000D01*
D40*
X106500000Y-133965685D02*
X106500000Y-135300000D01*
X137800001Y-112628001D02*
X137800001Y-97754003D01*
D37*
X120400000Y-87500000D02*
X120300000Y-87400000D01*
D41*
X121400000Y-87400000D02*
X122300000Y-87400000D01*
D37*
X120800000Y-88000000D02*
X121400000Y-87400000D01*
X121200000Y-88400000D02*
X121200000Y-87600000D01*
D40*
X120300000Y-87400000D02*
X121400000Y-87400000D01*
X137800001Y-97754003D02*
X131300000Y-91254002D01*
D37*
X120400000Y-88400000D02*
X120400000Y-87500000D01*
X121200000Y-87600000D02*
X121400000Y-87400000D01*
X120800000Y-88400000D02*
X120400000Y-88400000D01*
X120400000Y-88400000D02*
X120000000Y-88400000D01*
D41*
X121999990Y-82500010D02*
X129500010Y-82500010D01*
X131300000Y-84300000D02*
X131300000Y-86300000D01*
D40*
X128300000Y-120400000D02*
X130028002Y-120400000D01*
D41*
X119600000Y-130600000D02*
X124400000Y-130600000D01*
X121500000Y-86200000D02*
X121500000Y-82900000D01*
D40*
X131300000Y-91254002D02*
X131300000Y-86300000D01*
D41*
X121600000Y-82900000D02*
X121999990Y-82500010D01*
D37*
X121600000Y-88400000D02*
X121200000Y-88400000D01*
D40*
X130028002Y-120400000D02*
X137800001Y-112628001D01*
D41*
X121500000Y-82900000D02*
X121600000Y-82900000D01*
D39*
%TO.N,/VPOS*%
X84649999Y-127249999D02*
X75900000Y-118500000D01*
X113500000Y-129900000D02*
X110849999Y-127249999D01*
X110849999Y-127249999D02*
X84649999Y-127249999D01*
X80900000Y-101500000D02*
X85000000Y-101500000D01*
X89200000Y-93700000D02*
X81600000Y-93700000D01*
X81600000Y-93700000D02*
X75900000Y-99400000D01*
X90450000Y-94950000D02*
X89200000Y-93700000D01*
X75900000Y-118500000D02*
X75900000Y-106500000D01*
X85000000Y-101500000D02*
X85750000Y-102250000D01*
X75900000Y-106500000D02*
X80900000Y-101500000D01*
X75900000Y-99400000D02*
X75900000Y-106500000D01*
%TO.N,/VNEG*%
X88965685Y-103200000D02*
X88250000Y-103200000D01*
X89900000Y-104700000D02*
X89900000Y-104134315D01*
X124400001Y-126600001D02*
X92400001Y-126600001D01*
X124700000Y-126900000D02*
X124400001Y-126600001D01*
X92400001Y-126600001D02*
X91400000Y-125600000D01*
X95000002Y-98599998D02*
X93600000Y-100000000D01*
X91400000Y-125600000D02*
X91400000Y-122900000D01*
X93600000Y-100000000D02*
X92000000Y-100000000D01*
X89900000Y-104134315D02*
X88965685Y-103200000D01*
X95000002Y-96539999D02*
X95000002Y-98599998D01*
X94360003Y-95900000D02*
X95000002Y-96539999D01*
X92950000Y-95900000D02*
X94360003Y-95900000D01*
D41*
%TO.N,/+3.3V*%
X87280000Y-112705000D02*
X87400000Y-112825000D01*
D40*
X87400000Y-112825000D02*
X89025000Y-112825000D01*
D41*
X85312000Y-112705000D02*
X87280000Y-112705000D01*
D40*
X89025000Y-112825000D02*
X89100000Y-112900000D01*
X89100000Y-111900000D02*
X89400000Y-111600000D01*
X89100000Y-112900000D02*
X89100000Y-111900000D01*
D39*
%TO.N,/H7MCU/VDDSMPS*%
X103100000Y-101500000D02*
X99600000Y-105000000D01*
X99600000Y-105000000D02*
X92300000Y-105000000D01*
D41*
%TO.N,Net-(C48-Pad1)*%
X91900000Y-107900000D02*
X96800000Y-107900000D01*
X96800000Y-107900000D02*
X97500000Y-107200000D01*
D39*
%TO.N,/H7MCU/NRST*%
X142800000Y-94900000D02*
X142800000Y-107800000D01*
X142800000Y-107800000D02*
X148300000Y-113300000D01*
X104310002Y-109700000D02*
X103660002Y-109050000D01*
X114500000Y-109700000D02*
X104310002Y-109700000D01*
%TO.N,/H7MCU/LED_STAT*%
X99900000Y-115910002D02*
X99900000Y-113900000D01*
X101150001Y-120649999D02*
X101150001Y-117160003D01*
X100700000Y-121100000D02*
X101150001Y-120649999D01*
X101150001Y-117160003D02*
X99900000Y-115910002D01*
%TO.N,Net-(IC1-Pad4)*%
X83910000Y-102800000D02*
X83910000Y-104000000D01*
X84060000Y-104150000D02*
X84010000Y-104100000D01*
X85750000Y-104150000D02*
X84060000Y-104150000D01*
X83910000Y-104000000D02*
X84010000Y-104100000D01*
%TO.N,P_AMP_OUT*%
X82990000Y-104425000D02*
X83865000Y-105300000D01*
X90150000Y-102250000D02*
X88250000Y-102250000D01*
X90900000Y-103000000D02*
X90150000Y-102250000D01*
X88510000Y-101990000D02*
X88250000Y-102250000D01*
X82990000Y-104100000D02*
X82990000Y-104425000D01*
X84825000Y-105300000D02*
X86025000Y-106500000D01*
X88510000Y-100400000D02*
X88510000Y-101990000D01*
X89400000Y-106500000D02*
X90900000Y-105000000D01*
X90900000Y-105000000D02*
X90900000Y-103000000D01*
X83865000Y-105300000D02*
X84825000Y-105300000D01*
X86025000Y-106500000D02*
X89400000Y-106500000D01*
%TO.N,Net-(IC2-Pad4)*%
X90450000Y-98340000D02*
X90810000Y-98700000D01*
X90810000Y-98700000D02*
X92390000Y-98700000D01*
X90450000Y-96850000D02*
X90450000Y-98340000D01*
%TO.N,Net-(IC2-Pad1)*%
X91800000Y-95519998D02*
X91800000Y-97230002D01*
X94500000Y-93710000D02*
X94190000Y-93710000D01*
X91800000Y-97230002D02*
X92369998Y-97800000D01*
X92950000Y-94950000D02*
X92369998Y-94950000D01*
X93410000Y-98375000D02*
X93410000Y-98700000D01*
X92369998Y-97800000D02*
X92835000Y-97800000D01*
X94500000Y-93710000D02*
X94720000Y-93710000D01*
X94190000Y-93710000D02*
X92950000Y-94950000D01*
X92369998Y-94950000D02*
X91800000Y-95519998D01*
X94720000Y-93710000D02*
X95900000Y-94890000D01*
X92835000Y-97800000D02*
X93410000Y-98375000D01*
%TO.N,Net-(IC3-Pad3)*%
X86600000Y-107900000D02*
X87400000Y-108700000D01*
X81900000Y-109500000D02*
X81235000Y-110165000D01*
X81235000Y-110165000D02*
X79888000Y-110165000D01*
X84375000Y-106500000D02*
X85775000Y-107900000D01*
X84375000Y-106500000D02*
X84200000Y-106500000D01*
X84200000Y-106500000D02*
X81900000Y-108800000D01*
X87400000Y-108700000D02*
X87400000Y-111175000D01*
X85775000Y-107900000D02*
X86600000Y-107900000D01*
X81900000Y-108800000D02*
X81900000Y-109500000D01*
%TO.N,/H7MCU/SDMMC_CMD*%
X126489998Y-103600000D02*
X119100000Y-96210002D01*
X128307120Y-103600000D02*
X126489998Y-103600000D01*
X132400000Y-103600000D02*
X128307120Y-103600000D01*
X119100000Y-96210002D02*
X119100000Y-96100000D01*
%TO.N,/H7MCU/SDMMC_CK*%
X133000000Y-105500000D02*
X126500000Y-105500000D01*
X126500000Y-105500000D02*
X120200000Y-99200000D01*
%TO.N,/H7MCU/SDMMC_D3*%
X132700000Y-101700000D02*
X127200000Y-101700000D01*
X127200000Y-101700000D02*
X121300000Y-95800000D01*
%TO.N,/H7MCU/SDMMC_D2*%
X132600000Y-99000000D02*
X126000000Y-99000000D01*
X126000000Y-99000000D02*
X121600000Y-94600000D01*
%TO.N,/H7MCU/SWCLK*%
X123250001Y-94050001D02*
X122400000Y-93200000D01*
X125560000Y-92700000D02*
X125560000Y-93650002D01*
X126530000Y-91730000D02*
X125560000Y-92700000D01*
X125560000Y-93650002D02*
X125160001Y-94050001D01*
X126530000Y-85170000D02*
X126530000Y-91730000D01*
X125160001Y-94050001D02*
X123250001Y-94050001D01*
D42*
%TO.N,/USB_D+*%
X102800000Y-118117157D02*
X106628768Y-114288389D01*
X105200000Y-123282844D02*
X104282844Y-124200000D01*
X104282844Y-124200000D02*
X103517156Y-124200000D01*
X105200000Y-122320000D02*
X105200000Y-123282844D01*
X102800000Y-123482844D02*
X102800000Y-118117157D01*
X106628768Y-114288389D02*
X106628768Y-113828768D01*
X103517156Y-124200000D02*
X102800000Y-123482844D01*
%TO.N,/USB_D-*%
X103200000Y-118282843D02*
X106911611Y-114571232D01*
X104800000Y-123117156D02*
X104117156Y-123800000D01*
X104800000Y-122320000D02*
X104800000Y-123117156D01*
X106911611Y-114571232D02*
X107371232Y-114571232D01*
X103682844Y-123800000D02*
X103200000Y-123317156D01*
X104117156Y-123800000D02*
X103682844Y-123800000D01*
X103200000Y-123317156D02*
X103200000Y-118282843D01*
D39*
%TO.N,/H7MCU/SDMMC_D1*%
X127000000Y-108900000D02*
X122400000Y-104300000D01*
X127100000Y-108900000D02*
X127000000Y-108900000D01*
X132200000Y-108900000D02*
X127100000Y-108900000D01*
%TO.N,/H7MCU/SDMMC_D0*%
X132200000Y-106400000D02*
X131849999Y-106049999D01*
X125849999Y-106049999D02*
X123800000Y-104000000D01*
X132200000Y-106800000D02*
X132200000Y-106400000D01*
X131849999Y-106049999D02*
X125849999Y-106049999D01*
D37*
%TO.N,/STM32_3_RX*%
X102700000Y-90900000D02*
X102700000Y-93036002D01*
X105899999Y-94399999D02*
X120600000Y-109100000D01*
X102700000Y-93036002D02*
X104063999Y-94399999D01*
X103700000Y-89900000D02*
X102700000Y-90900000D01*
X120600000Y-109100000D02*
X120600000Y-114100000D01*
X104063999Y-94399999D02*
X105899999Y-94399999D01*
X110400000Y-89300000D02*
X109800000Y-89900000D01*
X109800000Y-89900000D02*
X103700000Y-89900000D01*
X110400000Y-88400000D02*
X110400000Y-89300000D01*
%TO.N,/STM32_3_TX*%
X109600000Y-91480000D02*
X109600000Y-95600000D01*
D39*
X119600000Y-113900000D02*
X119600000Y-109400000D01*
X119600000Y-109400000D02*
X109800000Y-99600000D01*
D38*
%TO.N,Net-(J1-Pad1)*%
X92600000Y-84500000D02*
X92600000Y-88290000D01*
X92600000Y-88290000D02*
X92590000Y-88300000D01*
D39*
%TO.N,Net-(J2-PadB5)*%
X137200000Y-131437500D02*
X136800000Y-131837500D01*
X137200000Y-128100000D02*
X137200000Y-131437500D01*
%TO.N,Net-(J2-PadA5)*%
X134200000Y-128000000D02*
X134200000Y-131837500D01*
D37*
%TO.N,/CM4_GPIO/GPIO_14_TX*%
X115200000Y-88400000D02*
X115200000Y-87700000D01*
X115400000Y-87500000D02*
X115400000Y-86700000D01*
X115200000Y-87700000D02*
X115400000Y-87500000D01*
%TO.N,/CM4_GPIO/GPIO_15_RX*%
X114400000Y-87800000D02*
X114150000Y-87550000D01*
X114400000Y-88400000D02*
X114400000Y-87800000D01*
X114150000Y-87550000D02*
X114150000Y-86700000D01*
%TD*%
M02*
