%TF.GenerationSoftware,KiCad,Pcbnew,(5.99.0-3851-g809f4c2ffb)*%
%TF.CreationDate,2020-11-30T00:42:52+00:00*%
%TF.ProjectId,CM4,434d342e-6b69-4636-9164-5f7063625858,rev?*%
%TF.SameCoordinates,Original*%
%TF.FileFunction,Soldermask,Top*%
%TF.FilePolarity,Negative*%
%FSLAX46Y46*%
G04 Gerber Fmt 4.6, Leading zero omitted, Abs format (unit mm)*
G04 Created by KiCad (PCBNEW (5.99.0-3851-g809f4c2ffb)) date 2020-11-30 00:42:52*
%MOMM*%
%LPD*%
G01*
G04 APERTURE LIST*
G04 Aperture macros list*
%AMRoundRect*
0 Rectangle with rounded corners*
0 $1 Rounding radius*
0 $2 $3 $4 $5 $6 $7 $8 $9 X,Y pos of 4 corners*
0 Add a 4 corners polygon primitive as box body*
4,1,4,$2,$3,$4,$5,$6,$7,$8,$9,$2,$3,0*
0 Add four circle primitives for the rounded corners*
1,1,$1+$1,$2,$3,0*
1,1,$1+$1,$4,$5,0*
1,1,$1+$1,$6,$7,0*
1,1,$1+$1,$8,$9,0*
0 Add four rect primitives between the rounded corners*
20,1,$1+$1,$2,$3,$4,$5,0*
20,1,$1+$1,$4,$5,$6,$7,0*
20,1,$1+$1,$6,$7,$8,$9,0*
20,1,$1+$1,$8,$9,$2,$3,0*%
G04 Aperture macros list end*
%ADD10RoundRect,0.250000X-0.450000X-0.425000X0.450000X-0.425000X0.450000X0.425000X-0.450000X0.425000X0*%
%ADD11RoundRect,0.140000X0.170000X-0.140000X0.170000X0.140000X-0.170000X0.140000X-0.170000X-0.140000X0*%
%ADD12R,1.200000X0.700000*%
%ADD13R,0.800000X1.000000*%
%ADD14R,1.900000X1.300000*%
%ADD15R,2.800000X1.000000*%
%ADD16R,1.200000X1.000000*%
%ADD17R,1.000000X1.000000*%
%ADD18O,1.000000X1.000000*%
%ADD19R,2.500000X1.800000*%
%ADD20C,5.500000*%
%ADD21R,1.700000X1.700000*%
%ADD22O,1.700000X1.700000*%
%ADD23RoundRect,0.250000X-0.475000X0.250000X-0.475000X-0.250000X0.475000X-0.250000X0.475000X0.250000X0*%
%ADD24RoundRect,0.250000X-0.625000X0.375000X-0.625000X-0.375000X0.625000X-0.375000X0.625000X0.375000X0*%
%ADD25RoundRect,0.135000X-0.135000X-0.185000X0.135000X-0.185000X0.135000X0.185000X-0.135000X0.185000X0*%
%ADD26RoundRect,0.250000X0.425000X-0.450000X0.425000X0.450000X-0.425000X0.450000X-0.425000X-0.450000X0*%
%ADD27RoundRect,0.140000X-0.140000X-0.170000X0.140000X-0.170000X0.140000X0.170000X-0.140000X0.170000X0*%
%ADD28RoundRect,0.140000X0.140000X0.170000X-0.140000X0.170000X-0.140000X-0.170000X0.140000X-0.170000X0*%
%ADD29RoundRect,0.135000X0.135000X0.185000X-0.135000X0.185000X-0.135000X-0.185000X0.135000X-0.185000X0*%
%ADD30RoundRect,0.250000X1.100000X-0.325000X1.100000X0.325000X-1.100000X0.325000X-1.100000X-0.325000X0*%
%ADD31R,3.300000X3.500000*%
%ADD32C,10.200000*%
%ADD33RoundRect,0.218750X-0.218750X-0.256250X0.218750X-0.256250X0.218750X0.256250X-0.218750X0.256250X0*%
%ADD34RoundRect,0.250000X-0.262500X-0.450000X0.262500X-0.450000X0.262500X0.450000X-0.262500X0.450000X0*%
%ADD35RoundRect,0.140000X-0.170000X0.140000X-0.170000X-0.140000X0.170000X-0.140000X0.170000X0.140000X0*%
%ADD36RoundRect,0.250000X-0.425000X0.450000X-0.425000X-0.450000X0.425000X-0.450000X0.425000X0.450000X0*%
%ADD37RoundRect,0.218750X0.218750X0.381250X-0.218750X0.381250X-0.218750X-0.381250X0.218750X-0.381250X0*%
%ADD38RoundRect,0.250000X0.475000X-0.250000X0.475000X0.250000X-0.475000X0.250000X-0.475000X-0.250000X0*%
%ADD39C,0.670000*%
%ADD40R,0.300000X1.450000*%
%ADD41RoundRect,0.500000X0.000000X-0.300000X0.000000X-0.300000X0.000000X0.300000X0.000000X0.300000X0*%
%ADD42C,1.500000*%
%ADD43RoundRect,0.250000X0.250000X0.475000X-0.250000X0.475000X-0.250000X-0.475000X0.250000X-0.475000X0*%
%ADD44R,0.800000X0.350000*%
%ADD45R,0.350000X0.800000*%
%ADD46R,2.800000X2.800000*%
%ADD47RoundRect,0.375000X0.375000X0.725000X-0.375000X0.725000X-0.375000X-0.725000X0.375000X-0.725000X0*%
%ADD48R,0.980000X3.400000*%
%ADD49RoundRect,0.225000X0.250000X-0.225000X0.250000X0.225000X-0.250000X0.225000X-0.250000X-0.225000X0*%
%ADD50R,1.200000X1.400000*%
%ADD51RoundRect,0.218750X-0.256250X0.218750X-0.256250X-0.218750X0.256250X-0.218750X0.256250X0.218750X0*%
%ADD52R,1.800000X1.000000*%
%ADD53RoundRect,0.250000X0.450000X0.425000X-0.450000X0.425000X-0.450000X-0.425000X0.450000X-0.425000X0*%
%ADD54RoundRect,0.200000X0.200000X0.275000X-0.200000X0.275000X-0.200000X-0.275000X0.200000X-0.275000X0*%
%ADD55R,1.200000X0.600000*%
%ADD56R,1.450000X0.300000*%
%ADD57RoundRect,0.218750X-0.381250X0.218750X-0.381250X-0.218750X0.381250X-0.218750X0.381250X0.218750X0*%
%ADD58RoundRect,0.135000X-0.185000X0.135000X-0.185000X-0.135000X0.185000X-0.135000X0.185000X0.135000X0*%
%ADD59R,0.850000X0.250000*%
%ADD60R,1.310000X2.120000*%
%ADD61C,6.100000*%
%ADD62R,1.350000X4.200000*%
G04 APERTURE END LIST*
D10*
%TO.C,C47*%
X123750000Y-119200000D03*
X121050000Y-119200000D03*
%TD*%
D11*
%TO.C,C39*%
X99200000Y-101480000D03*
X99200000Y-100520000D03*
%TD*%
D12*
%TO.C,J4*%
X134875000Y-100925000D03*
X134875000Y-102025000D03*
X134875000Y-103125000D03*
X134875000Y-104225000D03*
X134875000Y-105325000D03*
X134875000Y-106425000D03*
X134875000Y-107525000D03*
X134875000Y-108625000D03*
X134875000Y-109575000D03*
D13*
X145375000Y-110525000D03*
D14*
X149975000Y-97025000D03*
D15*
X149525000Y-110525000D03*
D16*
X139175000Y-110525000D03*
X134875000Y-99375000D03*
%TD*%
D17*
%TO.C,J3*%
X127800000Y-83900000D03*
D18*
X127800000Y-85170000D03*
X126530000Y-83900000D03*
X126530000Y-85170000D03*
X125260000Y-83900000D03*
X125260000Y-85170000D03*
X123990000Y-83900000D03*
X123990000Y-85170000D03*
X122720000Y-83900000D03*
X122720000Y-85170000D03*
%TD*%
D19*
%TO.C,D1*%
X82300000Y-126100000D03*
X78300000Y-126100000D03*
%TD*%
D20*
%TO.C,H3*%
X146000000Y-85600000D03*
%TD*%
D21*
%TO.C,J6*%
X79300000Y-93100000D03*
D22*
X79300000Y-90560000D03*
%TD*%
D20*
%TO.C,H2*%
X78400000Y-85500000D03*
%TD*%
D23*
%TO.C,C12*%
X98600000Y-134450000D03*
X98600000Y-132550000D03*
%TD*%
D24*
%TO.C,F1*%
X140500000Y-126800000D03*
X140500000Y-124000000D03*
%TD*%
D25*
%TO.C,R19*%
X103190000Y-89300000D03*
X104210000Y-89300000D03*
%TD*%
D26*
%TO.C,C25*%
X97400000Y-113750000D03*
X97400000Y-116450000D03*
%TD*%
D27*
%TO.C,C18*%
X125720000Y-118400000D03*
X126680000Y-118400000D03*
%TD*%
D20*
%TO.C,H4*%
X146750000Y-132250000D03*
%TD*%
D28*
%TO.C,C44*%
X129880000Y-107650000D03*
X128920000Y-107650000D03*
%TD*%
D29*
%TO.C,R24*%
X132560000Y-104500000D03*
X131540000Y-104500000D03*
%TD*%
D30*
%TO.C,C11*%
X109050000Y-132125000D03*
X109050000Y-135075000D03*
%TD*%
D31*
%TO.C,BT1*%
X82200000Y-120100000D03*
X82200000Y-104300000D03*
D32*
X82200000Y-112200000D03*
%TD*%
D33*
%TO.C,D2*%
X99912500Y-122700000D03*
X101487500Y-122700000D03*
%TD*%
D27*
%TO.C,C34*%
X110920000Y-88900000D03*
X111880000Y-88900000D03*
%TD*%
D28*
%TO.C,C37*%
X123080000Y-89000000D03*
X122120000Y-89000000D03*
%TD*%
D34*
%TO.C,R17*%
X105587500Y-128700000D03*
X107412500Y-128700000D03*
%TD*%
D35*
%TO.C,C17*%
X128950000Y-105280000D03*
X128950000Y-104320000D03*
%TD*%
D36*
%TO.C,C13*%
X129700000Y-115400000D03*
X129700000Y-112700000D03*
%TD*%
D28*
%TO.C,C16*%
X102380000Y-118500000D03*
X101420000Y-118500000D03*
%TD*%
D37*
%TO.C,L4*%
X94862500Y-101400000D03*
X92737500Y-101400000D03*
%TD*%
D38*
%TO.C,C9*%
X126100000Y-133250000D03*
X126100000Y-135150000D03*
%TD*%
D39*
%TO.C,J2*%
X138400000Y-131050000D03*
X132600000Y-131050000D03*
D40*
X132100000Y-129600000D03*
X132900000Y-129600000D03*
X134250000Y-129600000D03*
X135250000Y-129600000D03*
X135750000Y-129600000D03*
X136750000Y-129600000D03*
X138100000Y-129600000D03*
X138900000Y-129600000D03*
X138600000Y-129600000D03*
X137800000Y-129600000D03*
X137250000Y-129600000D03*
X136250000Y-129600000D03*
X134750000Y-129600000D03*
X133750000Y-129600000D03*
X133200000Y-129600000D03*
X132400000Y-129600000D03*
D41*
X131180000Y-130520000D03*
X139820000Y-130520000D03*
X139820000Y-134700000D03*
X131180000Y-134700000D03*
%TD*%
D42*
%TO.C,S1*%
X148650000Y-122850000D03*
X148650000Y-116350000D03*
X144150000Y-116350000D03*
X144150000Y-122850000D03*
%TD*%
D33*
%TO.C,FB3*%
X91112500Y-103300000D03*
X92687500Y-103300000D03*
%TD*%
D28*
%TO.C,C15*%
X116780000Y-118200000D03*
X115820000Y-118200000D03*
%TD*%
D29*
%TO.C,R20*%
X97810000Y-108800000D03*
X96790000Y-108800000D03*
%TD*%
D28*
%TO.C,C52*%
X97980000Y-100400000D03*
X97020000Y-100400000D03*
%TD*%
D35*
%TO.C,C38*%
X125900000Y-88480000D03*
X125900000Y-87520000D03*
%TD*%
D43*
%TO.C,C8*%
X123050000Y-128350000D03*
X121150000Y-128350000D03*
%TD*%
D44*
%TO.C,IC5*%
X101200000Y-132225000D03*
X101200000Y-132875000D03*
X101200000Y-133525000D03*
X101200000Y-134175000D03*
D45*
X102225000Y-135200000D03*
X102875000Y-135200000D03*
X103525000Y-135200000D03*
X104175000Y-135200000D03*
D44*
X105200000Y-134175000D03*
X105200000Y-133525000D03*
X105200000Y-132875000D03*
X105200000Y-132225000D03*
D45*
X104175000Y-131200000D03*
X103525000Y-131200000D03*
X102875000Y-131200000D03*
X102225000Y-131200000D03*
D46*
X103200000Y-133200000D03*
%TD*%
D29*
%TO.C,R26*%
X132360000Y-109800000D03*
X131340000Y-109800000D03*
%TD*%
D43*
%TO.C,C6*%
X123050000Y-130700000D03*
X121150000Y-130700000D03*
%TD*%
D47*
%TO.C,L3*%
X95950000Y-131500000D03*
X89650000Y-131500000D03*
%TD*%
D28*
%TO.C,C35*%
X113880000Y-88900000D03*
X112920000Y-88900000D03*
%TD*%
D29*
%TO.C,R23*%
X132660000Y-102500000D03*
X131640000Y-102500000D03*
%TD*%
D20*
%TO.C,H1*%
X78600000Y-132000000D03*
%TD*%
D30*
%TO.C,C10*%
X85900000Y-131725000D03*
X85900000Y-134675000D03*
%TD*%
D33*
%TO.C,D3*%
X146912500Y-126100000D03*
X148487500Y-126100000D03*
%TD*%
D28*
%TO.C,C31*%
X101880000Y-89300000D03*
X100920000Y-89300000D03*
%TD*%
D29*
%TO.C,R25*%
X132260000Y-107900000D03*
X131240000Y-107900000D03*
%TD*%
D48*
%TO.C,L2*%
X126115000Y-129600000D03*
X128485000Y-129600000D03*
%TD*%
D28*
%TO.C,C22*%
X113480000Y-118200000D03*
X112520000Y-118200000D03*
%TD*%
D35*
%TO.C,C21*%
X128950000Y-109780000D03*
X128950000Y-108820000D03*
%TD*%
D49*
%TO.C,C45*%
X131950000Y-113825000D03*
X131950000Y-115375000D03*
%TD*%
D50*
%TO.C,Y1*%
X93550000Y-106600000D03*
X93550000Y-108800000D03*
X95250000Y-108800000D03*
X95250000Y-106600000D03*
%TD*%
D27*
%TO.C,C29*%
X115020000Y-88900000D03*
X115980000Y-88900000D03*
%TD*%
D35*
%TO.C,C32*%
X96900000Y-105080000D03*
X96900000Y-104120000D03*
%TD*%
D51*
%TO.C,FB2*%
X97800000Y-119887500D03*
X97800000Y-118312500D03*
%TD*%
D11*
%TO.C,C20*%
X128950000Y-102070000D03*
X128950000Y-103030000D03*
%TD*%
D38*
%TO.C,C7*%
X117200000Y-133050000D03*
X117200000Y-134950000D03*
%TD*%
D35*
%TO.C,C26*%
X95400000Y-116180000D03*
X95400000Y-115220000D03*
%TD*%
D29*
%TO.C,R27*%
X107910000Y-88900000D03*
X106890000Y-88900000D03*
%TD*%
D28*
%TO.C,C19*%
X105780000Y-118200000D03*
X104820000Y-118200000D03*
%TD*%
D35*
%TO.C,C50*%
X141100000Y-120660000D03*
X141100000Y-119700000D03*
%TD*%
D52*
%TO.C,Y2*%
X97600000Y-98950000D03*
X97600000Y-96450000D03*
%TD*%
D28*
%TO.C,C51*%
X97680000Y-94900000D03*
X96720000Y-94900000D03*
%TD*%
D27*
%TO.C,C48*%
X93720000Y-110800000D03*
X94680000Y-110800000D03*
%TD*%
D53*
%TO.C,C23*%
X95050000Y-113300000D03*
X92350000Y-113300000D03*
%TD*%
D54*
%TO.C,R28*%
X148525000Y-128000000D03*
X146875000Y-128000000D03*
%TD*%
D48*
%TO.C,L1*%
X118185000Y-129700000D03*
X115815000Y-129700000D03*
%TD*%
D55*
%TO.C,Q1*%
X128550000Y-123950000D03*
X128550000Y-125850000D03*
X131050000Y-124900000D03*
%TD*%
D28*
%TO.C,C28*%
X102180000Y-119900000D03*
X101220000Y-119900000D03*
%TD*%
D49*
%TO.C,C40*%
X129200000Y-98525000D03*
X129200000Y-100075000D03*
%TD*%
D27*
%TO.C,C43*%
X96920000Y-101600000D03*
X97880000Y-101600000D03*
%TD*%
D35*
%TO.C,C27*%
X99300000Y-95680000D03*
X99300000Y-94720000D03*
%TD*%
D27*
%TO.C,C49*%
X94020000Y-104900000D03*
X94980000Y-104900000D03*
%TD*%
D35*
%TO.C,C46*%
X124300000Y-88580000D03*
X124300000Y-87620000D03*
%TD*%
%TO.C,C30*%
X98000000Y-105080000D03*
X98000000Y-104120000D03*
%TD*%
D29*
%TO.C,R22*%
X132610000Y-99950000D03*
X131590000Y-99950000D03*
%TD*%
D27*
%TO.C,C36*%
X128920000Y-95750000D03*
X129880000Y-95750000D03*
%TD*%
D35*
%TO.C,C33*%
X130100000Y-109730000D03*
X130100000Y-108770000D03*
%TD*%
D27*
%TO.C,C14*%
X118020000Y-118200000D03*
X118980000Y-118200000D03*
%TD*%
D56*
%TO.C,IC6*%
X101575000Y-93050000D03*
X101575000Y-93550000D03*
X101575000Y-94050000D03*
X101575000Y-94550000D03*
X101575000Y-95050000D03*
X101575000Y-95550000D03*
X101575000Y-96050000D03*
X101575000Y-96550000D03*
X101575000Y-97050000D03*
X101575000Y-97550000D03*
X101575000Y-98050000D03*
X101575000Y-98550000D03*
X101575000Y-99050000D03*
X101575000Y-99550000D03*
X101575000Y-100050000D03*
X101575000Y-100550000D03*
X101575000Y-101050000D03*
X101575000Y-101550000D03*
X101575000Y-102050000D03*
X101575000Y-102550000D03*
X101575000Y-103050000D03*
X101575000Y-103550000D03*
X101575000Y-104050000D03*
X101575000Y-104550000D03*
X101575000Y-105050000D03*
X101575000Y-105550000D03*
X101575000Y-106050000D03*
X101575000Y-106550000D03*
X101575000Y-107050000D03*
X101575000Y-107550000D03*
X101575000Y-108050000D03*
X101575000Y-108550000D03*
X101575000Y-109050000D03*
X101575000Y-109550000D03*
X101575000Y-110050000D03*
X101575000Y-110550000D03*
X101575000Y-111050000D03*
X101575000Y-111550000D03*
X101575000Y-112050000D03*
X101575000Y-112550000D03*
X101575000Y-113050000D03*
X101575000Y-113550000D03*
X101575000Y-114050000D03*
X101575000Y-114550000D03*
D40*
X103550000Y-116525000D03*
X104050000Y-116525000D03*
X104550000Y-116525000D03*
X105050000Y-116525000D03*
X105550000Y-116525000D03*
X106050000Y-116525000D03*
X106550000Y-116525000D03*
X107050000Y-116525000D03*
X107550000Y-116525000D03*
X108050000Y-116525000D03*
X108550000Y-116525000D03*
X109050000Y-116525000D03*
X109550000Y-116525000D03*
X110050000Y-116525000D03*
X110550000Y-116525000D03*
X111050000Y-116525000D03*
X111550000Y-116525000D03*
X112050000Y-116525000D03*
X112550000Y-116525000D03*
X113050000Y-116525000D03*
X113550000Y-116525000D03*
X114050000Y-116525000D03*
X114550000Y-116525000D03*
X115050000Y-116525000D03*
X115550000Y-116525000D03*
X116050000Y-116525000D03*
X116550000Y-116525000D03*
X117050000Y-116525000D03*
X117550000Y-116525000D03*
X118050000Y-116525000D03*
X118550000Y-116525000D03*
X119050000Y-116525000D03*
X119550000Y-116525000D03*
X120050000Y-116525000D03*
X120550000Y-116525000D03*
X121050000Y-116525000D03*
X121550000Y-116525000D03*
X122050000Y-116525000D03*
X122550000Y-116525000D03*
X123050000Y-116525000D03*
X123550000Y-116525000D03*
X124050000Y-116525000D03*
X124550000Y-116525000D03*
X125050000Y-116525000D03*
D56*
X127025000Y-114550000D03*
X127025000Y-114050000D03*
X127025000Y-113550000D03*
X127025000Y-113050000D03*
X127025000Y-112550000D03*
X127025000Y-112050000D03*
X127025000Y-111550000D03*
X127025000Y-111050000D03*
X127025000Y-110550000D03*
X127025000Y-110050000D03*
X127025000Y-109550000D03*
X127025000Y-109050000D03*
X127025000Y-108550000D03*
X127025000Y-108050000D03*
X127025000Y-107550000D03*
X127025000Y-107050000D03*
X127025000Y-106550000D03*
X127025000Y-106050000D03*
X127025000Y-105550000D03*
X127025000Y-105050000D03*
X127025000Y-104550000D03*
X127025000Y-104050000D03*
X127025000Y-103550000D03*
X127025000Y-103050000D03*
X127025000Y-102550000D03*
X127025000Y-102050000D03*
X127025000Y-101550000D03*
X127025000Y-101050000D03*
X127025000Y-100550000D03*
X127025000Y-100050000D03*
X127025000Y-99550000D03*
X127025000Y-99050000D03*
X127025000Y-98550000D03*
X127025000Y-98050000D03*
X127025000Y-97550000D03*
X127025000Y-97050000D03*
X127025000Y-96550000D03*
X127025000Y-96050000D03*
X127025000Y-95550000D03*
X127025000Y-95050000D03*
X127025000Y-94550000D03*
X127025000Y-94050000D03*
X127025000Y-93550000D03*
X127025000Y-93050000D03*
D40*
X125050000Y-91075000D03*
X124550000Y-91075000D03*
X124050000Y-91075000D03*
X123550000Y-91075000D03*
X123050000Y-91075000D03*
X122550000Y-91075000D03*
X122050000Y-91075000D03*
X121550000Y-91075000D03*
X121050000Y-91075000D03*
X120550000Y-91075000D03*
X120050000Y-91075000D03*
X119550000Y-91075000D03*
X119050000Y-91075000D03*
X118550000Y-91075000D03*
X118050000Y-91075000D03*
X117550000Y-91075000D03*
X117050000Y-91075000D03*
X116550000Y-91075000D03*
X116050000Y-91075000D03*
X115550000Y-91075000D03*
X115050000Y-91075000D03*
X114550000Y-91075000D03*
X114050000Y-91075000D03*
X113550000Y-91075000D03*
X113050000Y-91075000D03*
X112550000Y-91075000D03*
X112050000Y-91075000D03*
X111550000Y-91075000D03*
X111050000Y-91075000D03*
X110550000Y-91075000D03*
X110050000Y-91075000D03*
X109550000Y-91075000D03*
X109050000Y-91075000D03*
X108550000Y-91075000D03*
X108050000Y-91075000D03*
X107550000Y-91075000D03*
X107050000Y-91075000D03*
X106550000Y-91075000D03*
X106050000Y-91075000D03*
X105550000Y-91075000D03*
X105050000Y-91075000D03*
X104550000Y-91075000D03*
X104050000Y-91075000D03*
X103550000Y-91075000D03*
%TD*%
D27*
%TO.C,C42*%
X94120000Y-103600000D03*
X95080000Y-103600000D03*
%TD*%
D57*
%TO.C,FB1*%
X125900000Y-125762500D03*
X125900000Y-123637500D03*
%TD*%
D11*
%TO.C,C24*%
X98300000Y-111120000D03*
X98300000Y-112080000D03*
%TD*%
D27*
%TO.C,C41*%
X96920000Y-102900000D03*
X97880000Y-102900000D03*
%TD*%
D58*
%TO.C,R18*%
X94100000Y-116210000D03*
X94100000Y-115190000D03*
%TD*%
D59*
%TO.C,IC4*%
X120400000Y-133075000D03*
X120400000Y-133525000D03*
X120400000Y-133975000D03*
X120400000Y-134425000D03*
X120400000Y-134875000D03*
X120400000Y-135325000D03*
X123300000Y-135325000D03*
X123300000Y-134875000D03*
X123300000Y-134425000D03*
X123300000Y-133975000D03*
X123300000Y-133525000D03*
X123300000Y-133075000D03*
D60*
X121850000Y-134200000D03*
%TD*%
D54*
%TO.C,R21*%
X97825000Y-122700000D03*
X96175000Y-122700000D03*
%TD*%
D61*
%TO.C,Module1*%
X87700000Y-123400000D03*
X87700000Y-90400000D03*
X135700000Y-90400000D03*
X135700000Y-123400000D03*
%TD*%
D62*
%TO.C,J1*%
X89775000Y-84700000D03*
X95425000Y-84700000D03*
%TD*%
M02*
