%TF.GenerationSoftware,KiCad,Pcbnew,(5.99.0-3851-g809f4c2ffb)*%
%TF.CreationDate,2020-11-30T00:42:52+00:00*%
%TF.ProjectId,CM4,434d342e-6b69-4636-9164-5f7063625858,rev?*%
%TF.SameCoordinates,Original*%
%TF.FileFunction,Soldermask,Bot*%
%TF.FilePolarity,Negative*%
%FSLAX46Y46*%
G04 Gerber Fmt 4.6, Leading zero omitted, Abs format (unit mm)*
G04 Created by KiCad (PCBNEW (5.99.0-3851-g809f4c2ffb)) date 2020-11-30 00:42:52*
%MOMM*%
%LPD*%
G01*
G04 APERTURE LIST*
G04 Aperture macros list*
%AMRoundRect*
0 Rectangle with rounded corners*
0 $1 Rounding radius*
0 $2 $3 $4 $5 $6 $7 $8 $9 X,Y pos of 4 corners*
0 Add a 4 corners polygon primitive as box body*
4,1,4,$2,$3,$4,$5,$6,$7,$8,$9,$2,$3,0*
0 Add four circle primitives for the rounded corners*
1,1,$1+$1,$2,$3,0*
1,1,$1+$1,$4,$5,0*
1,1,$1+$1,$6,$7,0*
1,1,$1+$1,$8,$9,0*
0 Add four rect primitives between the rounded corners*
20,1,$1+$1,$2,$3,$4,$5,0*
20,1,$1+$1,$4,$5,$6,$7,0*
20,1,$1+$1,$6,$7,$8,$9,0*
20,1,$1+$1,$8,$9,$2,$3,0*%
G04 Aperture macros list end*
%ADD10R,1.000000X1.000000*%
%ADD11O,1.000000X1.000000*%
%ADD12C,5.500000*%
%ADD13R,1.700000X1.700000*%
%ADD14O,1.700000X1.700000*%
%ADD15C,0.670000*%
%ADD16RoundRect,0.500000X0.000000X-0.300000X0.000000X-0.300000X0.000000X0.300000X0.000000X0.300000X0*%
%ADD17C,1.500000*%
%ADD18RoundRect,0.250000X0.625000X-0.312500X0.625000X0.312500X-0.625000X0.312500X-0.625000X-0.312500X0*%
%ADD19RoundRect,0.135000X0.185000X-0.135000X0.185000X0.135000X-0.185000X0.135000X-0.185000X-0.135000X0*%
%ADD20RoundRect,0.200000X-0.200000X-0.600000X0.200000X-0.600000X0.200000X0.600000X-0.200000X0.600000X0*%
%ADD21RoundRect,0.250001X-0.799999X-1.249999X0.799999X-1.249999X0.799999X1.249999X-0.799999X1.249999X0*%
%ADD22RoundRect,0.135000X-0.185000X0.135000X-0.185000X-0.135000X0.185000X-0.135000X0.185000X0.135000X0*%
%ADD23RoundRect,0.140000X0.170000X-0.140000X0.170000X0.140000X-0.170000X0.140000X-0.170000X-0.140000X0*%
%ADD24RoundRect,0.140000X-0.140000X-0.170000X0.140000X-0.170000X0.140000X0.170000X-0.140000X0.170000X0*%
%ADD25RoundRect,0.135000X-0.135000X-0.185000X0.135000X-0.185000X0.135000X0.185000X-0.135000X0.185000X0*%
%ADD26RoundRect,0.140000X0.140000X0.170000X-0.140000X0.170000X-0.140000X-0.170000X0.140000X-0.170000X0*%
%ADD27R,1.525000X0.650000*%
%ADD28RoundRect,0.135000X0.135000X0.185000X-0.135000X0.185000X-0.135000X-0.185000X0.135000X-0.185000X0*%
%ADD29RoundRect,0.200000X-0.200000X-0.275000X0.200000X-0.275000X0.200000X0.275000X-0.200000X0.275000X0*%
%ADD30RoundRect,0.200000X0.275000X-0.200000X0.275000X0.200000X-0.275000X0.200000X-0.275000X-0.200000X0*%
%ADD31RoundRect,0.200000X-0.275000X0.200000X-0.275000X-0.200000X0.275000X-0.200000X0.275000X0.200000X0*%
%ADD32RoundRect,0.140000X-0.170000X0.140000X-0.170000X-0.140000X0.170000X-0.140000X0.170000X0.140000X0*%
%ADD33R,1.200000X0.600000*%
%ADD34C,6.100000*%
%ADD35R,0.200000X0.700000*%
%ADD36R,1.270000X3.600000*%
%ADD37R,1.350000X4.200000*%
G04 APERTURE END LIST*
D10*
%TO.C,J3*%
X127800000Y-83900000D03*
D11*
X127800000Y-85170000D03*
X126530000Y-83900000D03*
X126530000Y-85170000D03*
X125260000Y-83900000D03*
X125260000Y-85170000D03*
X123990000Y-83900000D03*
X123990000Y-85170000D03*
X122720000Y-83900000D03*
X122720000Y-85170000D03*
%TD*%
D12*
%TO.C,H3*%
X146000000Y-85600000D03*
%TD*%
D13*
%TO.C,J6*%
X79300000Y-93100000D03*
D14*
X79300000Y-90560000D03*
%TD*%
D12*
%TO.C,H2*%
X78400000Y-85500000D03*
%TD*%
%TO.C,H4*%
X146750000Y-132250000D03*
%TD*%
D15*
%TO.C,J2*%
X138400000Y-131050000D03*
X132600000Y-131050000D03*
D16*
X131180000Y-130520000D03*
X139820000Y-130520000D03*
X139820000Y-134700000D03*
X131180000Y-134700000D03*
%TD*%
D17*
%TO.C,S1*%
X148650000Y-122850000D03*
X148650000Y-116350000D03*
X144150000Y-116350000D03*
X144150000Y-122850000D03*
%TD*%
D12*
%TO.C,H1*%
X78600000Y-132000000D03*
%TD*%
D18*
%TO.C,R15*%
X134200000Y-131837500D03*
X134200000Y-134762500D03*
%TD*%
D19*
%TO.C,R3*%
X86200000Y-95180000D03*
X86200000Y-96200000D03*
%TD*%
D20*
%TO.C,J5*%
X114150000Y-86700000D03*
X115400000Y-86700000D03*
X116650000Y-86700000D03*
D21*
X119200000Y-83800000D03*
X111600000Y-83800000D03*
%TD*%
D22*
%TO.C,R2*%
X94500000Y-93710000D03*
X94500000Y-92690000D03*
%TD*%
D23*
%TO.C,C1*%
X86200000Y-97620000D03*
X86200000Y-98580000D03*
%TD*%
D24*
%TO.C,C2*%
X93420000Y-89700000D03*
X94380000Y-89700000D03*
%TD*%
D25*
%TO.C,R8*%
X82990000Y-104100000D03*
X84010000Y-104100000D03*
%TD*%
D22*
%TO.C,R6*%
X92000000Y-90810000D03*
X92000000Y-89790000D03*
%TD*%
D23*
%TO.C,C5*%
X77500000Y-112420000D03*
X77500000Y-113380000D03*
%TD*%
D26*
%TO.C,C4*%
X94380000Y-91200000D03*
X93420000Y-91200000D03*
%TD*%
D27*
%TO.C,IC3*%
X79888000Y-112705000D03*
X79888000Y-111435000D03*
X79888000Y-110165000D03*
X79888000Y-108895000D03*
X85312000Y-108895000D03*
X85312000Y-110165000D03*
X85312000Y-111435000D03*
X85312000Y-112705000D03*
%TD*%
D18*
%TO.C,R16*%
X136800000Y-131837500D03*
X136800000Y-134762500D03*
%TD*%
D28*
%TO.C,R1*%
X88510000Y-100400000D03*
X87490000Y-100400000D03*
%TD*%
D29*
%TO.C,R13*%
X84375000Y-106500000D03*
X86025000Y-106500000D03*
%TD*%
D28*
%TO.C,R9*%
X90810000Y-98700000D03*
X89790000Y-98700000D03*
%TD*%
D30*
%TO.C,R11*%
X77400000Y-109475000D03*
X77400000Y-111125000D03*
%TD*%
D28*
%TO.C,R10*%
X93410000Y-98700000D03*
X92390000Y-98700000D03*
%TD*%
D31*
%TO.C,R14*%
X87400000Y-112825000D03*
X87400000Y-111175000D03*
%TD*%
D32*
%TO.C,C3*%
X87600000Y-96180000D03*
X87600000Y-95220000D03*
%TD*%
D33*
%TO.C,IC1*%
X88250000Y-102250000D03*
X88250000Y-103200000D03*
X88250000Y-104150000D03*
X85750000Y-104150000D03*
X85750000Y-102250000D03*
%TD*%
%TO.C,IC2*%
X92950000Y-94950000D03*
X92950000Y-95900000D03*
X92950000Y-96850000D03*
X90450000Y-96850000D03*
X90450000Y-94950000D03*
%TD*%
D28*
%TO.C,R4*%
X93610000Y-88300000D03*
X92590000Y-88300000D03*
%TD*%
D34*
%TO.C,Module1*%
X87700000Y-123400000D03*
X87700000Y-90400000D03*
X135700000Y-90400000D03*
X135700000Y-123400000D03*
D35*
X104400000Y-88400000D03*
X104400000Y-91480000D03*
X104800000Y-88400000D03*
X104800000Y-91480000D03*
X105200000Y-88400000D03*
X105200000Y-91480000D03*
X105600000Y-88400000D03*
X105600000Y-91480000D03*
X106000000Y-88400000D03*
X106000000Y-91480000D03*
X106400000Y-88400000D03*
X106400000Y-91480000D03*
X106800000Y-88400000D03*
X106800000Y-91480000D03*
X107200000Y-88400000D03*
X107200000Y-91480000D03*
X107600000Y-88400000D03*
X107600000Y-91480000D03*
X108000000Y-88400000D03*
X108000000Y-91480000D03*
X108400000Y-88400000D03*
X108400000Y-91480000D03*
X108800000Y-88400000D03*
X108800000Y-91480000D03*
X109200000Y-88400000D03*
X109200000Y-91480000D03*
X109600000Y-88400000D03*
X109600000Y-91480000D03*
X110000000Y-88400000D03*
X110000000Y-91480000D03*
X110400000Y-88400000D03*
X110400000Y-91480000D03*
X110800000Y-88400000D03*
X110800000Y-91480000D03*
X111200000Y-88400000D03*
X111200000Y-91480000D03*
X111600000Y-88400000D03*
X111600000Y-91480000D03*
X112000000Y-88400000D03*
X112000000Y-91480000D03*
X112400000Y-88400000D03*
X112400000Y-91480000D03*
X112800000Y-88400000D03*
X112800000Y-91480000D03*
X113200000Y-88400000D03*
X113200000Y-91480000D03*
X113600000Y-88400000D03*
X113600000Y-91480000D03*
X114000000Y-88400000D03*
X114000000Y-91480000D03*
X114400000Y-88400000D03*
X114400000Y-91480000D03*
X114800000Y-88400000D03*
X114800000Y-91480000D03*
X115200000Y-88400000D03*
X115200000Y-91480000D03*
X115600000Y-88400000D03*
X115600000Y-91480000D03*
X116000000Y-88400000D03*
X116000000Y-91480000D03*
X116400000Y-88400000D03*
X116400000Y-91480000D03*
X116800000Y-88400000D03*
X116800000Y-91480000D03*
X117200000Y-88400000D03*
X117200000Y-91480000D03*
X117600000Y-88400000D03*
X117600000Y-91480000D03*
X118000000Y-88400000D03*
X118000000Y-91480000D03*
X118400000Y-88400000D03*
X118400000Y-91480000D03*
X118800000Y-88400000D03*
X118800000Y-91480000D03*
X119200000Y-88400000D03*
X119200000Y-91480000D03*
X119600000Y-88400000D03*
X119600000Y-91480000D03*
X120000000Y-88400000D03*
X120000000Y-91480000D03*
X120400000Y-88400000D03*
X120400000Y-91480000D03*
X120800000Y-88400000D03*
X120800000Y-91480000D03*
X121200000Y-88400000D03*
X121200000Y-91480000D03*
X121600000Y-88400000D03*
X121600000Y-91480000D03*
X122000000Y-88400000D03*
X122000000Y-91480000D03*
X122400000Y-88400000D03*
X122400000Y-91480000D03*
X122800000Y-88400000D03*
X122800000Y-91480000D03*
X123200000Y-88400000D03*
X123200000Y-91480000D03*
X123600000Y-88400000D03*
X123600000Y-91480000D03*
X124000000Y-88400000D03*
X124000000Y-91480000D03*
X104400000Y-122320000D03*
X104400000Y-125400000D03*
X104800000Y-122320000D03*
X104800000Y-125400000D03*
X105200000Y-122320000D03*
X105200000Y-125400000D03*
X105600000Y-122320000D03*
X105600000Y-125400000D03*
X106000000Y-122320000D03*
X106000000Y-125400000D03*
X106400000Y-122320000D03*
X106400000Y-125400000D03*
X106800000Y-122320000D03*
X106800000Y-125400000D03*
X107200000Y-122320000D03*
X107200000Y-125400000D03*
X107600000Y-122320000D03*
X107600000Y-125400000D03*
X108000000Y-122320000D03*
X108000000Y-125400000D03*
X108400000Y-122320000D03*
X108400000Y-125400000D03*
X108800000Y-122320000D03*
X108800000Y-125400000D03*
X109200000Y-122320000D03*
X109200000Y-125400000D03*
X109600000Y-122320000D03*
X109600000Y-125400000D03*
X110000000Y-122320000D03*
X110000000Y-125400000D03*
X110400000Y-122320000D03*
X110400000Y-125400000D03*
X110800000Y-122320000D03*
X110800000Y-125400000D03*
X111200000Y-122320000D03*
X111200000Y-125400000D03*
X111600000Y-122320000D03*
X111600000Y-125400000D03*
X112000000Y-122320000D03*
X112000000Y-125400000D03*
X112400000Y-122320000D03*
X112400000Y-125400000D03*
X112800000Y-122320000D03*
X112800000Y-125400000D03*
X113200000Y-122320000D03*
X113200000Y-125400000D03*
X113600000Y-122320000D03*
X113600000Y-125400000D03*
X114000000Y-122320000D03*
X114000000Y-125400000D03*
X114400000Y-122320000D03*
X114400000Y-125400000D03*
X114800000Y-122320000D03*
X114800000Y-125400000D03*
X115200000Y-122320000D03*
X115200000Y-125400000D03*
X115600000Y-122320000D03*
X115600000Y-125400000D03*
X116000000Y-122320000D03*
X116000000Y-125400000D03*
X116400000Y-122320000D03*
X116400000Y-125400000D03*
X116800000Y-122320000D03*
X116800000Y-125400000D03*
X117200000Y-122320000D03*
X117200000Y-125400000D03*
X117600000Y-122320000D03*
X117600000Y-125400000D03*
X118000000Y-122320000D03*
X118000000Y-125400000D03*
X118400000Y-122320000D03*
X118400000Y-125400000D03*
X118800000Y-122320000D03*
X118800000Y-125400000D03*
X119200000Y-122320000D03*
X119200000Y-125400000D03*
X119600000Y-122320000D03*
X119600000Y-125400000D03*
X120000000Y-122320000D03*
X120000000Y-125400000D03*
X120400000Y-122320000D03*
X120400000Y-125400000D03*
X120800000Y-122320000D03*
X120800000Y-125400000D03*
X121200000Y-122320000D03*
X121200000Y-125400000D03*
X121600000Y-122320000D03*
X121600000Y-125400000D03*
X122000000Y-122320000D03*
X122000000Y-125400000D03*
X122400000Y-122320000D03*
X122400000Y-125400000D03*
X122800000Y-122320000D03*
X122800000Y-125400000D03*
X123200000Y-122320000D03*
X123200000Y-125400000D03*
X123600000Y-122320000D03*
X123600000Y-125400000D03*
X124000000Y-122320000D03*
X124000000Y-125400000D03*
%TD*%
D22*
%TO.C,R5*%
X95900000Y-95910000D03*
X95900000Y-94890000D03*
%TD*%
D36*
%TO.C,J1*%
X92600000Y-84500000D03*
D37*
X89775000Y-84700000D03*
X95425000Y-84700000D03*
%TD*%
D29*
%TO.C,R12*%
X79475000Y-114600000D03*
X81125000Y-114600000D03*
%TD*%
D28*
%TO.C,R7*%
X83910000Y-102800000D03*
X82890000Y-102800000D03*
%TD*%
M02*
