M48
; DRILL file {KiCad (5.1.4)-1} date 02/04/2020 16:15:21
; FORMAT={-:-/ absolute / inch / decimal}
; #@! TF.CreationDate,2020-04-02T16:15:21+01:00
; #@! TF.GenerationSoftware,Kicad,Pcbnew,(5.1.4)-1
FMAT,2
INCH
T1C0.0157
T2C0.0197
T3C0.0236
T4C0.0315
T5C0.0394
T6C0.1260
%
G90
G05
T1
X1.6811Y-3.5
X1.6976Y-3.4051
X1.7091Y-3.2795
X1.9016Y-3.3673
X1.9046Y-3.4066
X1.911Y-3.2165
X1.9114Y-3.2992
X1.913Y-2.9413
X1.9173Y-3.4744
X1.9252Y-3.5472
X2.1055Y-3.6327
X2.1126Y-3.3177
X2.1157Y-2.9496
X2.1161Y-2.9984
X2.1173Y-3.1461
X2.1295Y-3.452
X2.1516Y-3.2783
X2.1559Y-3.3713
X2.1575Y-3.1516
X2.1701Y-3.4169
X2.187Y-3.2122
X2.2272Y-2.8547
X2.2539Y-3.6358
X2.289Y-3.3276
X2.289Y-3.3776
X2.2992Y-3.0118
X2.3823Y-2.7299
X2.437Y-2.7835
X2.437Y-3.1476
X2.4803Y-2.6823
X2.4835Y-3.0008
X2.4992Y-3.3622
X2.5012Y-3.322
X2.5598Y-2.4417
X2.5606Y-2.3949
X2.5839Y-2.2087
X2.6421Y-2.7882
X2.6654Y-3.4157
X2.6744Y-2.8984
X2.7098Y-3.4165
X2.7362Y-3.4575
X2.7516Y-3.415
X2.7618Y-2.2161
X2.8028Y-3.6866
X2.8476Y-3.5402
X2.898Y-2.2587
X2.9138Y-3.4157
X2.9402Y-2.2185
X2.9402Y-2.2606
X2.9571Y-3.4161
X2.9583Y-3.4583
X3.0311Y-3.5961
X3.113Y-3.4173
X3.1543Y-3.4547
X3.1555Y-3.4161
X3.163Y-3.5512
X3.2591Y-2.8059
X3.3008Y-2.765
X3.3862Y-3.4008
X3.3886Y-3.3591
X3.3913Y-3.4996
X3.3937Y-3.4555
X3.4236Y-2.1535
X3.4795Y-3.2669
X3.4807Y-3.3157
X3.4902Y-2.9173
X3.5252Y-3.5996
X3.5264Y-3.3165
X3.528Y-2.9496
X3.5299Y-3.2661
X3.5803Y-3.0476
X3.5815Y-3.0894
X3.5835Y-2.4937
X3.5843Y-2.4539
X3.5945Y-3.5528
X3.6386Y-3.5228
T2
X1.7105Y-3.655
X1.7382Y-3.5882
X1.7382Y-3.7218
X1.805Y-3.5605
X1.805Y-3.7495
X1.8718Y-3.5882
X1.8718Y-3.7218
X1.8995Y-3.655
X1.7155Y-2.02
X1.7432Y-1.9532
X1.7432Y-2.0868
X1.81Y-1.9255
X1.81Y-2.1145
X1.8768Y-1.9532
X1.8768Y-2.0868
X1.9045Y-2.02
X4.1455Y-3.655
X4.1732Y-3.5882
X4.1732Y-3.7218
X4.24Y-3.5605
X4.24Y-3.7495
X4.3068Y-3.5882
X4.3068Y-3.7218
X4.3345Y-3.655
X4.1505Y-2.01
X4.1782Y-1.9432
X4.1782Y-2.0768
X4.245Y-1.9155
X4.245Y-2.1045
X4.3118Y-1.9432
X4.3118Y-2.0768
X4.3395Y-2.01
T3
X3.9779Y-2.7217
X3.9779Y-3.0189
T4
X1.7039Y-2.989
X1.739Y-2.4689
X1.8925Y-2.2965
X1.8976Y-2.3587
X1.9012Y-2.4091
X1.9512Y-2.3783
X2.2909Y-2.278
X2.2957Y-2.1189
X2.4413Y-2.3169
X2.4437Y-2.0791
X2.5591Y-2.1547
X2.5602Y-2.0783
X2.5823Y-2.2531
X2.6244Y-2.0626
X2.6795Y-2.2606
X2.7693Y-1.9528
X2.7697Y-2.2626
X3.0449Y-2.7752
X3.0945Y-2.2587
X3.2354Y-2.5819
X3.2453Y-2.5201
X3.2772Y-2.6606
X3.3169Y-2.587
X3.4228Y-2.198
X3.4665Y-1.9669
X3.5362Y-2.4248
X3.5374Y-2.6764
X3.5465Y-2.2449
X3.5988Y-2.5696
X3.6583Y-1.8799
X3.8354Y-2.8764
X3.8378Y-2.624
X3.8484Y-3.0752
X3.8492Y-2.7433
X3.8583Y-1.9709
X3.8799Y-2.9181
X3.885Y-2.787
X3.9441Y-2.8311
X4.0004Y-2.2858
X4.0693Y-2.4205
X4.2819Y-3.0752
X4.2846Y-2.6358
T5
X2.5644Y-1.9609
X2.6644Y-1.9609
X2.9178Y-3.7056
X3.0178Y-3.7056
X3.5235Y-3.7068
X3.6235Y-3.7068
X3.7235Y-3.7068
X2.0548Y-2.4383
X2.0548Y-2.6943
X2.232Y-2.4383
X2.232Y-2.6943
X2.1455Y-1.9619
X2.2455Y-1.9619
T6
X4.24Y-3.655
X4.245Y-2.01
X1.805Y-3.655
X1.81Y-2.02
T0
M30
