G04 #@! TF.GenerationSoftware,KiCad,Pcbnew,(5.1.4)-1*
G04 #@! TF.CreationDate,2020-04-02T16:16:13+01:00*
G04 #@! TF.ProjectId,hydrophone_stm32_board,68796472-6f70-4686-9f6e-655f73746d33,rev?*
G04 #@! TF.SameCoordinates,Original*
G04 #@! TF.FileFunction,Copper,L4,Bot*
G04 #@! TF.FilePolarity,Positive*
%FSLAX46Y46*%
G04 Gerber Fmt 4.6, Leading zero omitted, Abs format (unit mm)*
G04 Created by KiCad (PCBNEW (5.1.4)-1) date 2020-04-02 16:16:13*
%MOMM*%
%LPD*%
G04 APERTURE LIST*
%ADD10C,1.100000*%
%ADD11C,0.800000*%
%ADD12C,6.400000*%
%ADD13O,1.700000X1.700000*%
%ADD14R,1.700000X1.700000*%
%ADD15C,1.500000*%
%ADD16C,1.000000*%
%ADD17C,0.250000*%
%ADD18C,0.500000*%
%ADD19C,0.300000*%
%ADD20C,0.254000*%
G04 APERTURE END LIST*
D10*
X101038660Y-76680060D03*
X101038660Y-69130060D03*
D11*
X109393056Y-91139944D03*
X107696000Y-90437000D03*
X105998944Y-91139944D03*
X105296000Y-92837000D03*
X105998944Y-94534056D03*
X107696000Y-95237000D03*
X109393056Y-94534056D03*
X110096000Y-92837000D03*
D12*
X107696000Y-92837000D03*
D11*
X47544056Y-91139944D03*
X45847000Y-90437000D03*
X44149944Y-91139944D03*
X43447000Y-92837000D03*
X44149944Y-94534056D03*
X45847000Y-95237000D03*
X47544056Y-94534056D03*
X48247000Y-92837000D03*
D12*
X45847000Y-92837000D03*
D11*
X47671056Y-49610944D03*
X45974000Y-48908000D03*
X44276944Y-49610944D03*
X43574000Y-51308000D03*
X44276944Y-53005056D03*
X45974000Y-53708000D03*
X47671056Y-53005056D03*
X48374000Y-51308000D03*
D12*
X45974000Y-51308000D03*
D11*
X109520056Y-49356944D03*
X107823000Y-48654000D03*
X106125944Y-49356944D03*
X105423000Y-51054000D03*
X106125944Y-52751056D03*
X107823000Y-53454000D03*
X109520056Y-52751056D03*
X110223000Y-51054000D03*
D12*
X107823000Y-51054000D03*
D13*
X57035700Y-49832260D03*
D14*
X54495700Y-49832260D03*
X67675760Y-49806860D03*
D13*
X65135760Y-49806860D03*
D14*
X94576900Y-94152720D03*
D13*
X92036900Y-94152720D03*
X89496900Y-94152720D03*
D14*
X74112120Y-94122240D03*
D13*
X76652120Y-94122240D03*
D15*
X56692360Y-68434020D03*
X56692360Y-61934020D03*
X52192360Y-61934020D03*
X52192360Y-68434020D03*
D11*
X61900000Y-70700000D03*
X58400000Y-76500000D03*
X61900000Y-79950000D03*
D16*
X48200000Y-59910000D03*
X49560000Y-60410000D03*
X48290000Y-61190000D03*
X48070000Y-58330000D03*
X65590000Y-57230000D03*
X86940000Y-55830000D03*
X70350000Y-57470000D03*
D11*
X74680000Y-57420000D03*
X91020000Y-63340000D03*
X74010000Y-86760000D03*
X67700000Y-86760000D03*
X79070000Y-86800000D03*
X88380000Y-82980000D03*
X88410000Y-84220000D03*
X86200000Y-87770000D03*
X69500000Y-87820000D03*
X58140000Y-84520000D03*
X53740000Y-74920000D03*
D16*
X43280000Y-75920000D03*
X44170000Y-62710000D03*
X88050000Y-49960000D03*
X92920000Y-47750000D03*
X108760000Y-78110000D03*
X97750000Y-78110000D03*
X108830000Y-66950000D03*
X97770000Y-69680000D03*
X97480000Y-66650000D03*
D11*
X88650000Y-74100000D03*
X90940000Y-77410000D03*
X63000000Y-68130000D03*
X58140000Y-85790000D03*
X74680000Y-56350000D03*
X70150000Y-56290000D03*
X65630000Y-56100000D03*
X86960000Y-54700000D03*
X91040000Y-62330000D03*
X90970000Y-78470000D03*
X89660000Y-82960000D03*
X89570000Y-84240000D03*
X86140000Y-88890000D03*
X80340000Y-90200000D03*
X89540000Y-91430000D03*
X76990000Y-91340000D03*
D16*
X66660000Y-52390000D03*
D11*
X67110000Y-70820000D03*
X48300000Y-85530000D03*
X42700000Y-88900000D03*
D16*
X58190000Y-57860000D03*
X58310000Y-53820000D03*
X62070000Y-52810000D03*
X62010000Y-58850000D03*
X65030000Y-52790000D03*
X65000000Y-54730000D03*
X68060000Y-57420000D03*
X78600000Y-57370000D03*
X89820000Y-61590000D03*
X89850000Y-67980000D03*
D11*
X73610000Y-57370000D03*
X60510000Y-69340000D03*
X75110000Y-86770000D03*
X72330000Y-89920000D03*
X68830000Y-86780000D03*
X63530000Y-84380000D03*
X86070000Y-85320000D03*
X80150000Y-86770000D03*
X57250000Y-92350000D03*
X54090000Y-87680000D03*
X53660000Y-84270000D03*
X43410000Y-83300000D03*
X53750000Y-76160000D03*
X65040000Y-60830000D03*
X65020000Y-62020000D03*
X75140000Y-87840000D03*
X69890000Y-86740000D03*
X80120000Y-87750000D03*
X86010000Y-86380000D03*
X63080000Y-76220000D03*
D16*
X98000000Y-50060000D03*
X101610000Y-58060000D03*
D11*
X89610000Y-74920000D03*
X63480000Y-85400000D03*
D16*
X70340000Y-49600000D03*
X77340000Y-70490000D03*
X90080000Y-57020000D03*
D11*
X56570000Y-72510000D03*
X48540000Y-81700000D03*
X48590000Y-74710000D03*
X48900000Y-90100000D03*
X43120000Y-86490000D03*
X48377543Y-86526991D03*
X53780000Y-79910000D03*
X48700000Y-88250000D03*
X55550000Y-81590000D03*
X67930000Y-73620000D03*
X71190000Y-93640000D03*
X48550000Y-83800000D03*
X54650000Y-83270000D03*
X55120000Y-86790000D03*
X53480000Y-92270000D03*
X54760000Y-85630000D03*
X54800000Y-80050000D03*
X92420000Y-89480000D03*
X83840000Y-70230000D03*
X91300000Y-90240000D03*
X82780000Y-71270000D03*
D16*
X84250000Y-65710000D03*
X100180000Y-71910000D03*
X83240000Y-67580000D03*
X98550000Y-74120000D03*
X82180000Y-65580000D03*
X97420000Y-73060000D03*
X98680000Y-70790000D03*
X82430000Y-64010000D03*
X91409485Y-65267597D03*
X103360000Y-61480000D03*
D17*
X88690000Y-58410000D02*
X90080000Y-57020000D01*
X86110000Y-58410000D02*
X88690000Y-58410000D01*
X77340000Y-70490000D02*
X77340000Y-67180000D01*
X77340000Y-67180000D02*
X86110000Y-58410000D01*
D18*
X56570000Y-72510000D02*
X69190000Y-72510000D01*
X71210000Y-70490000D02*
X77340000Y-70490000D01*
X69190000Y-72510000D02*
X71210000Y-70490000D01*
D19*
X48370000Y-81700000D02*
X48540000Y-81700000D01*
X48590000Y-81650000D02*
X48540000Y-81700000D01*
X48590000Y-74710000D02*
X48590000Y-81650000D01*
D17*
X43156991Y-86526991D02*
X43120000Y-86490000D01*
X48377543Y-86526991D02*
X43156991Y-86526991D01*
X43120000Y-87055685D02*
X44000000Y-87935685D01*
X43120000Y-86490000D02*
X43120000Y-87055685D01*
X44000000Y-87935685D02*
X44000000Y-88600000D01*
X44470000Y-89070000D02*
X47870000Y-89070000D01*
X44000000Y-88600000D02*
X44470000Y-89070000D01*
X48900000Y-90100000D02*
X47870000Y-89070000D01*
X52980001Y-80309999D02*
X51290000Y-82000000D01*
X53380001Y-80309999D02*
X52980001Y-80309999D01*
X53780000Y-79910000D02*
X53380001Y-80309999D01*
D19*
X49700000Y-87250000D02*
X48700000Y-88250000D01*
X50900000Y-87250000D02*
X49700000Y-87250000D01*
X51290000Y-84860000D02*
X51290000Y-86860000D01*
X50980001Y-84550001D02*
X51290000Y-84860000D01*
X51290000Y-82000000D02*
X50839999Y-82450001D01*
X48789997Y-82450001D02*
X47610000Y-83629998D01*
X51290000Y-86860000D02*
X50900000Y-87250000D01*
X47610000Y-83629998D02*
X47610000Y-84290000D01*
X50839999Y-82450001D02*
X48789997Y-82450001D01*
X47610000Y-84290000D02*
X47870001Y-84550001D01*
X47870001Y-84550001D02*
X50980001Y-84550001D01*
X56115685Y-81590000D02*
X56455685Y-81930000D01*
X55550000Y-81590000D02*
X56115685Y-81590000D01*
X56455685Y-81930000D02*
X65970000Y-81930000D01*
X67930000Y-79970000D02*
X67930000Y-73620000D01*
X71190000Y-83360000D02*
X67865000Y-80035000D01*
X71190000Y-93640000D02*
X71190000Y-83360000D01*
X65970000Y-81930000D02*
X67865000Y-80035000D01*
X67865000Y-80035000D02*
X67930000Y-79970000D01*
X48550000Y-83800000D02*
X49070000Y-83280000D01*
X49070000Y-83280000D02*
X53880000Y-83280000D01*
X53880000Y-83280000D02*
X54640000Y-83280000D01*
X54640000Y-83280000D02*
X54650000Y-83270000D01*
D17*
X55120000Y-87723002D02*
X53983002Y-88860000D01*
X55120000Y-86790000D02*
X55120000Y-87723002D01*
X53983002Y-88860000D02*
X53983002Y-91766998D01*
X53983002Y-91766998D02*
X53480000Y-92270000D01*
D19*
X54800000Y-80615685D02*
X54800000Y-80050000D01*
X54799999Y-81950001D02*
X54800000Y-80615685D01*
X55570000Y-82720002D02*
X54799999Y-81950001D01*
X55570000Y-83460002D02*
X55570000Y-82720002D01*
X54760000Y-85630000D02*
X54760000Y-84270002D01*
X54760000Y-84270002D02*
X55570000Y-83460002D01*
X87629999Y-84689999D02*
X87629999Y-74930001D01*
X92420000Y-89480000D02*
X87629999Y-84689999D01*
X87629999Y-74930001D02*
X83840000Y-71140002D01*
X83840000Y-71140002D02*
X83840000Y-70230000D01*
X86820001Y-75310001D02*
X82780000Y-71270000D01*
X91300000Y-90240000D02*
X86820001Y-85760001D01*
X86820001Y-85760001D02*
X86820001Y-75310001D01*
D17*
X84250000Y-65710000D02*
X90480000Y-71940000D01*
X91120000Y-71940000D02*
X91130000Y-71950000D01*
X90480000Y-71940000D02*
X91120000Y-71940000D01*
X90960000Y-71950000D02*
X91130000Y-71950000D01*
X91130000Y-71950000D02*
X100050000Y-71950000D01*
X83240000Y-67580000D02*
X89780000Y-74120000D01*
X89780000Y-74120000D02*
X98550000Y-74120000D01*
X82679999Y-66079999D02*
X83329999Y-66079999D01*
X82180000Y-65580000D02*
X82679999Y-66079999D01*
X83329999Y-66079999D02*
X90310000Y-73060000D01*
X90310000Y-73060000D02*
X97420000Y-73060000D01*
X98680000Y-70790000D02*
X90600000Y-70790000D01*
X90600000Y-70790000D02*
X83820000Y-64010000D01*
X83820000Y-64010000D02*
X82430000Y-64010000D01*
X91409485Y-65267597D02*
X92960000Y-63717082D01*
X92960000Y-63717082D02*
X92960000Y-63320000D01*
X92960000Y-63320000D02*
X94800000Y-61480000D01*
X94800000Y-61480000D02*
X103360000Y-61480000D01*
D20*
G36*
X106048037Y-47654455D02*
G01*
X105702330Y-47836445D01*
X105661912Y-47863452D01*
X105301724Y-48353119D01*
X107823000Y-50874395D01*
X107837143Y-50860253D01*
X108016748Y-51039858D01*
X108002605Y-51054000D01*
X110523881Y-53575276D01*
X111013548Y-53215088D01*
X111099000Y-53057616D01*
X111082636Y-91037516D01*
X110913555Y-90716330D01*
X110886548Y-90675912D01*
X110396881Y-90315724D01*
X107875605Y-92837000D01*
X107889748Y-92851143D01*
X107710143Y-93030748D01*
X107696000Y-93016605D01*
X105174724Y-95537881D01*
X105534912Y-96027548D01*
X105928266Y-96241000D01*
X91820724Y-96241000D01*
X47644076Y-96224904D01*
X47967670Y-96054555D01*
X48008088Y-96027548D01*
X48368276Y-95537881D01*
X45847000Y-93016605D01*
X45832858Y-93030748D01*
X45653253Y-92851143D01*
X45667395Y-92837000D01*
X43146119Y-90315724D01*
X42656452Y-90675912D01*
X42570548Y-90834217D01*
X42571411Y-87585220D01*
X42580000Y-87595686D01*
X42608998Y-87619484D01*
X43240000Y-88250487D01*
X43240000Y-88562678D01*
X43236324Y-88600000D01*
X43240000Y-88637322D01*
X43240000Y-88637333D01*
X43250997Y-88748986D01*
X43276284Y-88832345D01*
X43294454Y-88892246D01*
X43365026Y-89024276D01*
X43431090Y-89104774D01*
X43460000Y-89140001D01*
X43488998Y-89163799D01*
X43869352Y-89544154D01*
X43726330Y-89619445D01*
X43685912Y-89646452D01*
X43325724Y-90136119D01*
X45847000Y-92657395D01*
X45861143Y-92643253D01*
X46040748Y-92822858D01*
X46026605Y-92837000D01*
X48547881Y-95358276D01*
X49037548Y-94998088D01*
X49397849Y-94334118D01*
X49621694Y-93612615D01*
X49700480Y-92861305D01*
X49631178Y-92109062D01*
X49416452Y-91384792D01*
X49252896Y-91074102D01*
X49390256Y-91017205D01*
X49559774Y-90903937D01*
X49703937Y-90759774D01*
X49817205Y-90590256D01*
X49895226Y-90401898D01*
X49935000Y-90201939D01*
X49935000Y-89998061D01*
X49895226Y-89798102D01*
X49817205Y-89609744D01*
X49703937Y-89440226D01*
X49559774Y-89296063D01*
X49390256Y-89182795D01*
X49252390Y-89125689D01*
X49359774Y-89053937D01*
X49503937Y-88909774D01*
X49617205Y-88740256D01*
X49695226Y-88551898D01*
X49735000Y-88351939D01*
X49735000Y-88325157D01*
X50025157Y-88035000D01*
X50861447Y-88035000D01*
X50900000Y-88038797D01*
X50938553Y-88035000D01*
X50938561Y-88035000D01*
X51053887Y-88023641D01*
X51201860Y-87978754D01*
X51338233Y-87905862D01*
X51457764Y-87807764D01*
X51482347Y-87777810D01*
X51817810Y-87442347D01*
X51847764Y-87417764D01*
X51945862Y-87298233D01*
X52018754Y-87161860D01*
X52061718Y-87020226D01*
X52063641Y-87013888D01*
X52066953Y-86980256D01*
X52075000Y-86898561D01*
X52075000Y-86898554D01*
X52078797Y-86860001D01*
X52075000Y-86821448D01*
X52075000Y-84898556D01*
X52078797Y-84860000D01*
X52075000Y-84821440D01*
X52075000Y-84821439D01*
X52067001Y-84740226D01*
X52063642Y-84706113D01*
X52018754Y-84558140D01*
X52003047Y-84528754D01*
X51945862Y-84421767D01*
X51847764Y-84302236D01*
X51817807Y-84277650D01*
X51605157Y-84065000D01*
X52645500Y-84065000D01*
X52625000Y-84168061D01*
X52625000Y-84371939D01*
X52664774Y-84571898D01*
X52742795Y-84760256D01*
X52856063Y-84929774D01*
X53000226Y-85073937D01*
X53169744Y-85187205D01*
X53358102Y-85265226D01*
X53558061Y-85305000D01*
X53761939Y-85305000D01*
X53775457Y-85302311D01*
X53764774Y-85328102D01*
X53725000Y-85528061D01*
X53725000Y-85731939D01*
X53764774Y-85931898D01*
X53842795Y-86120256D01*
X53956063Y-86289774D01*
X54100226Y-86433937D01*
X54137025Y-86458525D01*
X54124774Y-86488102D01*
X54093565Y-86645000D01*
X53988061Y-86645000D01*
X53788102Y-86684774D01*
X53599744Y-86762795D01*
X53430226Y-86876063D01*
X53286063Y-87020226D01*
X53172795Y-87189744D01*
X53094774Y-87378102D01*
X53055000Y-87578061D01*
X53055000Y-87781939D01*
X53094774Y-87981898D01*
X53172795Y-88170256D01*
X53286063Y-88339774D01*
X53363347Y-88417058D01*
X53348028Y-88435724D01*
X53310357Y-88506201D01*
X53277456Y-88567754D01*
X53233999Y-88711015D01*
X53223002Y-88822668D01*
X53223002Y-88822678D01*
X53219326Y-88860000D01*
X53223002Y-88897323D01*
X53223003Y-91265843D01*
X53178102Y-91274774D01*
X52989744Y-91352795D01*
X52820226Y-91466063D01*
X52676063Y-91610226D01*
X52562795Y-91779744D01*
X52484774Y-91968102D01*
X52445000Y-92168061D01*
X52445000Y-92371939D01*
X52484774Y-92571898D01*
X52562795Y-92760256D01*
X52676063Y-92929774D01*
X52820226Y-93073937D01*
X52989744Y-93187205D01*
X53178102Y-93265226D01*
X53378061Y-93305000D01*
X53581939Y-93305000D01*
X53781898Y-93265226D01*
X53970256Y-93187205D01*
X54139774Y-93073937D01*
X54283937Y-92929774D01*
X54397205Y-92760256D01*
X54475226Y-92571898D01*
X54515000Y-92371939D01*
X54515000Y-92313567D01*
X54523003Y-92306999D01*
X54571372Y-92248061D01*
X56215000Y-92248061D01*
X56215000Y-92451939D01*
X56254774Y-92651898D01*
X56332795Y-92840256D01*
X56446063Y-93009774D01*
X56590226Y-93153937D01*
X56759744Y-93267205D01*
X56948102Y-93345226D01*
X57148061Y-93385000D01*
X57351939Y-93385000D01*
X57551898Y-93345226D01*
X57740256Y-93267205D01*
X57909774Y-93153937D01*
X58053937Y-93009774D01*
X58167205Y-92840256D01*
X58245226Y-92651898D01*
X58285000Y-92451939D01*
X58285000Y-92248061D01*
X58245226Y-92048102D01*
X58167205Y-91859744D01*
X58053937Y-91690226D01*
X57909774Y-91546063D01*
X57740256Y-91432795D01*
X57551898Y-91354774D01*
X57351939Y-91315000D01*
X57148061Y-91315000D01*
X56948102Y-91354774D01*
X56759744Y-91432795D01*
X56590226Y-91546063D01*
X56446063Y-91690226D01*
X56332795Y-91859744D01*
X56254774Y-92048102D01*
X56215000Y-92248061D01*
X54571372Y-92248061D01*
X54617976Y-92191274D01*
X54688548Y-92059245D01*
X54732005Y-91915984D01*
X54743002Y-91804331D01*
X54743002Y-91804322D01*
X54746678Y-91766999D01*
X54743002Y-91729676D01*
X54743002Y-89174801D01*
X55631003Y-88286801D01*
X55660001Y-88263003D01*
X55691168Y-88225026D01*
X55754974Y-88147279D01*
X55825546Y-88015249D01*
X55836616Y-87978754D01*
X55869003Y-87871988D01*
X55880000Y-87760335D01*
X55880000Y-87760325D01*
X55883676Y-87723002D01*
X55880000Y-87685680D01*
X55880000Y-87493711D01*
X55923937Y-87449774D01*
X56037205Y-87280256D01*
X56115226Y-87091898D01*
X56155000Y-86891939D01*
X56155000Y-86688061D01*
X56115226Y-86488102D01*
X56037205Y-86299744D01*
X55923937Y-86130226D01*
X55779774Y-85986063D01*
X55742975Y-85961475D01*
X55755226Y-85931898D01*
X55795000Y-85731939D01*
X55795000Y-85528061D01*
X55755226Y-85328102D01*
X55742783Y-85298061D01*
X62445000Y-85298061D01*
X62445000Y-85501939D01*
X62484774Y-85701898D01*
X62562795Y-85890256D01*
X62676063Y-86059774D01*
X62820226Y-86203937D01*
X62989744Y-86317205D01*
X63178102Y-86395226D01*
X63378061Y-86435000D01*
X63581939Y-86435000D01*
X63781898Y-86395226D01*
X63970256Y-86317205D01*
X64139774Y-86203937D01*
X64283937Y-86059774D01*
X64397205Y-85890256D01*
X64475226Y-85701898D01*
X64515000Y-85501939D01*
X64515000Y-85298061D01*
X64475226Y-85098102D01*
X64406242Y-84931561D01*
X64447205Y-84870256D01*
X64525226Y-84681898D01*
X64565000Y-84481939D01*
X64565000Y-84278061D01*
X64525226Y-84078102D01*
X64447205Y-83889744D01*
X64333937Y-83720226D01*
X64189774Y-83576063D01*
X64020256Y-83462795D01*
X63831898Y-83384774D01*
X63631939Y-83345000D01*
X63428061Y-83345000D01*
X63228102Y-83384774D01*
X63039744Y-83462795D01*
X62870226Y-83576063D01*
X62726063Y-83720226D01*
X62612795Y-83889744D01*
X62534774Y-84078102D01*
X62495000Y-84278061D01*
X62495000Y-84481939D01*
X62534774Y-84681898D01*
X62603758Y-84848439D01*
X62562795Y-84909744D01*
X62484774Y-85098102D01*
X62445000Y-85298061D01*
X55742783Y-85298061D01*
X55677205Y-85139744D01*
X55563937Y-84970226D01*
X55545000Y-84951289D01*
X55545000Y-84595159D01*
X56097817Y-84042343D01*
X56127764Y-84017766D01*
X56225862Y-83898235D01*
X56298754Y-83761862D01*
X56299241Y-83760256D01*
X56343642Y-83613889D01*
X56353247Y-83516359D01*
X56355000Y-83498563D01*
X56355000Y-83498558D01*
X56358797Y-83460002D01*
X56355000Y-83421447D01*
X56355000Y-82758558D01*
X56358797Y-82720002D01*
X56357728Y-82709150D01*
X56376711Y-82711020D01*
X56417124Y-82715000D01*
X56417129Y-82715000D01*
X56455685Y-82718797D01*
X56494241Y-82715000D01*
X65931447Y-82715000D01*
X65970000Y-82718797D01*
X66008553Y-82715000D01*
X66008561Y-82715000D01*
X66123887Y-82703641D01*
X66271860Y-82658754D01*
X66408233Y-82585862D01*
X66527764Y-82487764D01*
X66552347Y-82457810D01*
X67865000Y-81145157D01*
X70405001Y-83685159D01*
X70405001Y-85839329D01*
X70380256Y-85822795D01*
X70191898Y-85744774D01*
X69991939Y-85705000D01*
X69788061Y-85705000D01*
X69588102Y-85744774D01*
X69399744Y-85822795D01*
X69330068Y-85869351D01*
X69320256Y-85862795D01*
X69131898Y-85784774D01*
X68931939Y-85745000D01*
X68728061Y-85745000D01*
X68528102Y-85784774D01*
X68339744Y-85862795D01*
X68170226Y-85976063D01*
X68026063Y-86120226D01*
X67912795Y-86289744D01*
X67834774Y-86478102D01*
X67795000Y-86678061D01*
X67795000Y-86881939D01*
X67834774Y-87081898D01*
X67912795Y-87270256D01*
X68026063Y-87439774D01*
X68170226Y-87583937D01*
X68339744Y-87697205D01*
X68528102Y-87775226D01*
X68728061Y-87815000D01*
X68931939Y-87815000D01*
X69131898Y-87775226D01*
X69320256Y-87697205D01*
X69389932Y-87650649D01*
X69399744Y-87657205D01*
X69588102Y-87735226D01*
X69788061Y-87775000D01*
X69991939Y-87775000D01*
X70191898Y-87735226D01*
X70380256Y-87657205D01*
X70405001Y-87640671D01*
X70405000Y-92961289D01*
X70386063Y-92980226D01*
X70272795Y-93149744D01*
X70194774Y-93338102D01*
X70155000Y-93538061D01*
X70155000Y-93741939D01*
X70194774Y-93941898D01*
X70272795Y-94130256D01*
X70386063Y-94299774D01*
X70530226Y-94443937D01*
X70699744Y-94557205D01*
X70888102Y-94635226D01*
X71088061Y-94675000D01*
X71291939Y-94675000D01*
X71491898Y-94635226D01*
X71680256Y-94557205D01*
X71849774Y-94443937D01*
X71993937Y-94299774D01*
X72107205Y-94130256D01*
X72185226Y-93941898D01*
X72225000Y-93741939D01*
X72225000Y-93538061D01*
X72185226Y-93338102D01*
X72157945Y-93272240D01*
X72624048Y-93272240D01*
X72624048Y-94972240D01*
X72636308Y-95096722D01*
X72672618Y-95216420D01*
X72731583Y-95326734D01*
X72810935Y-95423425D01*
X72907626Y-95502777D01*
X73017940Y-95561742D01*
X73137638Y-95598052D01*
X73262120Y-95610312D01*
X74962120Y-95610312D01*
X75086602Y-95598052D01*
X75206300Y-95561742D01*
X75316614Y-95502777D01*
X75413305Y-95423425D01*
X75492657Y-95326734D01*
X75551622Y-95216420D01*
X75576086Y-95135774D01*
X75651851Y-95219828D01*
X75885200Y-95393881D01*
X76148021Y-95519065D01*
X76295230Y-95563716D01*
X76525120Y-95442395D01*
X76525120Y-94249240D01*
X76779120Y-94249240D01*
X76779120Y-95442395D01*
X77009010Y-95563716D01*
X77156219Y-95519065D01*
X77419040Y-95393881D01*
X77652389Y-95219828D01*
X77847298Y-95003595D01*
X77996277Y-94753492D01*
X78082788Y-94509611D01*
X88055419Y-94509611D01*
X88152743Y-94783972D01*
X88301722Y-95034075D01*
X88496631Y-95250308D01*
X88729980Y-95424361D01*
X88992801Y-95549545D01*
X89140010Y-95594196D01*
X89369900Y-95472875D01*
X89369900Y-94279720D01*
X88176086Y-94279720D01*
X88055419Y-94509611D01*
X78082788Y-94509611D01*
X78093601Y-94479131D01*
X77972934Y-94249240D01*
X76779120Y-94249240D01*
X76525120Y-94249240D01*
X76505120Y-94249240D01*
X76505120Y-93995240D01*
X76525120Y-93995240D01*
X76525120Y-92802085D01*
X76779120Y-92802085D01*
X76779120Y-93995240D01*
X77972934Y-93995240D01*
X78077602Y-93795829D01*
X88055419Y-93795829D01*
X88176086Y-94025720D01*
X89369900Y-94025720D01*
X89369900Y-92832565D01*
X89623900Y-92832565D01*
X89623900Y-94025720D01*
X89643900Y-94025720D01*
X89643900Y-94279720D01*
X89623900Y-94279720D01*
X89623900Y-95472875D01*
X89853790Y-95594196D01*
X90000999Y-95549545D01*
X90263820Y-95424361D01*
X90497169Y-95250308D01*
X90692078Y-95034075D01*
X90761699Y-94917197D01*
X90796194Y-94981734D01*
X90981766Y-95207854D01*
X91207886Y-95393426D01*
X91465866Y-95531319D01*
X91745789Y-95616233D01*
X91963950Y-95637720D01*
X92109850Y-95637720D01*
X92328011Y-95616233D01*
X92607934Y-95531319D01*
X92865914Y-95393426D01*
X93092034Y-95207854D01*
X93116507Y-95178033D01*
X93137398Y-95246900D01*
X93196363Y-95357214D01*
X93275715Y-95453905D01*
X93372406Y-95533257D01*
X93482720Y-95592222D01*
X93602418Y-95628532D01*
X93726900Y-95640792D01*
X95426900Y-95640792D01*
X95551382Y-95628532D01*
X95671080Y-95592222D01*
X95781394Y-95533257D01*
X95878085Y-95453905D01*
X95957437Y-95357214D01*
X96016402Y-95246900D01*
X96052712Y-95127202D01*
X96064972Y-95002720D01*
X96064972Y-93302720D01*
X96052712Y-93178238D01*
X96016402Y-93058540D01*
X95957437Y-92948226D01*
X95878085Y-92851535D01*
X95830759Y-92812695D01*
X103842520Y-92812695D01*
X103911822Y-93564938D01*
X104126548Y-94289208D01*
X104478445Y-94957670D01*
X104505452Y-94998088D01*
X104995119Y-95358276D01*
X107516395Y-92837000D01*
X104995119Y-90315724D01*
X104505452Y-90675912D01*
X104145151Y-91339882D01*
X103921306Y-92061385D01*
X103842520Y-92812695D01*
X95830759Y-92812695D01*
X95781394Y-92772183D01*
X95671080Y-92713218D01*
X95551382Y-92676908D01*
X95426900Y-92664648D01*
X93726900Y-92664648D01*
X93602418Y-92676908D01*
X93482720Y-92713218D01*
X93372406Y-92772183D01*
X93275715Y-92851535D01*
X93196363Y-92948226D01*
X93137398Y-93058540D01*
X93116507Y-93127407D01*
X93092034Y-93097586D01*
X92865914Y-92912014D01*
X92607934Y-92774121D01*
X92328011Y-92689207D01*
X92109850Y-92667720D01*
X91963950Y-92667720D01*
X91745789Y-92689207D01*
X91465866Y-92774121D01*
X91207886Y-92912014D01*
X90981766Y-93097586D01*
X90796194Y-93323706D01*
X90761699Y-93388243D01*
X90692078Y-93271365D01*
X90497169Y-93055132D01*
X90263820Y-92881079D01*
X90000999Y-92755895D01*
X89853790Y-92711244D01*
X89623900Y-92832565D01*
X89369900Y-92832565D01*
X89140010Y-92711244D01*
X88992801Y-92755895D01*
X88729980Y-92881079D01*
X88496631Y-93055132D01*
X88301722Y-93271365D01*
X88152743Y-93521468D01*
X88055419Y-93795829D01*
X78077602Y-93795829D01*
X78093601Y-93765349D01*
X77996277Y-93490988D01*
X77847298Y-93240885D01*
X77652389Y-93024652D01*
X77419040Y-92850599D01*
X77156219Y-92725415D01*
X77009010Y-92680764D01*
X76779120Y-92802085D01*
X76525120Y-92802085D01*
X76295230Y-92680764D01*
X76148021Y-92725415D01*
X75885200Y-92850599D01*
X75651851Y-93024652D01*
X75576086Y-93108706D01*
X75551622Y-93028060D01*
X75492657Y-92917746D01*
X75413305Y-92821055D01*
X75316614Y-92741703D01*
X75206300Y-92682738D01*
X75086602Y-92646428D01*
X74962120Y-92634168D01*
X73262120Y-92634168D01*
X73137638Y-92646428D01*
X73017940Y-92682738D01*
X72907626Y-92741703D01*
X72810935Y-92821055D01*
X72731583Y-92917746D01*
X72672618Y-93028060D01*
X72636308Y-93147758D01*
X72624048Y-93272240D01*
X72157945Y-93272240D01*
X72107205Y-93149744D01*
X71993937Y-92980226D01*
X71975000Y-92961289D01*
X71975000Y-90893230D01*
X72028102Y-90915226D01*
X72228061Y-90955000D01*
X72431939Y-90955000D01*
X72631898Y-90915226D01*
X72820256Y-90837205D01*
X72989774Y-90723937D01*
X73133937Y-90579774D01*
X73247205Y-90410256D01*
X73325226Y-90221898D01*
X73365000Y-90021939D01*
X73365000Y-89818061D01*
X73325226Y-89618102D01*
X73247205Y-89429744D01*
X73133937Y-89260226D01*
X72989774Y-89116063D01*
X72820256Y-89002795D01*
X72631898Y-88924774D01*
X72431939Y-88885000D01*
X72228061Y-88885000D01*
X72028102Y-88924774D01*
X71975000Y-88946770D01*
X71975000Y-86668061D01*
X74075000Y-86668061D01*
X74075000Y-86871939D01*
X74114774Y-87071898D01*
X74192795Y-87260256D01*
X74237692Y-87327449D01*
X74222795Y-87349744D01*
X74144774Y-87538102D01*
X74105000Y-87738061D01*
X74105000Y-87941939D01*
X74144774Y-88141898D01*
X74222795Y-88330256D01*
X74336063Y-88499774D01*
X74480226Y-88643937D01*
X74649744Y-88757205D01*
X74838102Y-88835226D01*
X75038061Y-88875000D01*
X75241939Y-88875000D01*
X75441898Y-88835226D01*
X75630256Y-88757205D01*
X75799774Y-88643937D01*
X75943937Y-88499774D01*
X76057205Y-88330256D01*
X76135226Y-88141898D01*
X76175000Y-87941939D01*
X76175000Y-87738061D01*
X76157099Y-87648061D01*
X79085000Y-87648061D01*
X79085000Y-87851939D01*
X79124774Y-88051898D01*
X79202795Y-88240256D01*
X79316063Y-88409774D01*
X79460226Y-88553937D01*
X79629744Y-88667205D01*
X79818102Y-88745226D01*
X80018061Y-88785000D01*
X80221939Y-88785000D01*
X80421898Y-88745226D01*
X80610256Y-88667205D01*
X80779774Y-88553937D01*
X80923937Y-88409774D01*
X81037205Y-88240256D01*
X81115226Y-88051898D01*
X81155000Y-87851939D01*
X81155000Y-87648061D01*
X81115226Y-87448102D01*
X81048816Y-87287776D01*
X81067205Y-87260256D01*
X81145226Y-87071898D01*
X81185000Y-86871939D01*
X81185000Y-86668061D01*
X81145226Y-86468102D01*
X81067205Y-86279744D01*
X80953937Y-86110226D01*
X80809774Y-85966063D01*
X80640256Y-85852795D01*
X80451898Y-85774774D01*
X80251939Y-85735000D01*
X80048061Y-85735000D01*
X79848102Y-85774774D01*
X79659744Y-85852795D01*
X79490226Y-85966063D01*
X79346063Y-86110226D01*
X79232795Y-86279744D01*
X79154774Y-86468102D01*
X79115000Y-86668061D01*
X79115000Y-86871939D01*
X79154774Y-87071898D01*
X79221184Y-87232224D01*
X79202795Y-87259744D01*
X79124774Y-87448102D01*
X79085000Y-87648061D01*
X76157099Y-87648061D01*
X76135226Y-87538102D01*
X76057205Y-87349744D01*
X76012308Y-87282551D01*
X76027205Y-87260256D01*
X76105226Y-87071898D01*
X76145000Y-86871939D01*
X76145000Y-86668061D01*
X76105226Y-86468102D01*
X76027205Y-86279744D01*
X75913937Y-86110226D01*
X75769774Y-85966063D01*
X75600256Y-85852795D01*
X75411898Y-85774774D01*
X75211939Y-85735000D01*
X75008061Y-85735000D01*
X74808102Y-85774774D01*
X74619744Y-85852795D01*
X74450226Y-85966063D01*
X74306063Y-86110226D01*
X74192795Y-86279744D01*
X74114774Y-86468102D01*
X74075000Y-86668061D01*
X71975000Y-86668061D01*
X71975000Y-83398552D01*
X71978797Y-83359999D01*
X71975000Y-83321446D01*
X71975000Y-83321439D01*
X71963641Y-83206113D01*
X71961199Y-83198061D01*
X71918754Y-83058140D01*
X71904967Y-83032346D01*
X71845862Y-82921767D01*
X71780207Y-82841767D01*
X71772345Y-82832187D01*
X71772342Y-82832184D01*
X71747764Y-82802236D01*
X71717816Y-82777658D01*
X68715000Y-79774843D01*
X68715000Y-74298711D01*
X68733937Y-74279774D01*
X68847205Y-74110256D01*
X68925226Y-73921898D01*
X68965000Y-73721939D01*
X68965000Y-73518061D01*
X68940522Y-73395000D01*
X69146531Y-73395000D01*
X69190000Y-73399281D01*
X69233469Y-73395000D01*
X69233477Y-73395000D01*
X69363490Y-73382195D01*
X69530313Y-73331589D01*
X69684059Y-73249411D01*
X69818817Y-73138817D01*
X69846534Y-73105044D01*
X71576579Y-71375000D01*
X76621550Y-71375000D01*
X76802376Y-71495824D01*
X77008933Y-71581383D01*
X77228212Y-71625000D01*
X77451788Y-71625000D01*
X77671067Y-71581383D01*
X77877624Y-71495824D01*
X78063520Y-71371612D01*
X78221612Y-71213520D01*
X78345824Y-71027624D01*
X78431383Y-70821067D01*
X78475000Y-70601788D01*
X78475000Y-70378212D01*
X78431383Y-70158933D01*
X78345824Y-69952376D01*
X78221612Y-69766480D01*
X78100000Y-69644868D01*
X78100000Y-67494801D01*
X81324534Y-64270267D01*
X81338617Y-64341067D01*
X81424176Y-64547624D01*
X81503791Y-64666776D01*
X81456480Y-64698388D01*
X81298388Y-64856480D01*
X81174176Y-65042376D01*
X81088617Y-65248933D01*
X81045000Y-65468212D01*
X81045000Y-65691788D01*
X81088617Y-65911067D01*
X81174176Y-66117624D01*
X81298388Y-66303520D01*
X81456480Y-66461612D01*
X81642376Y-66585824D01*
X81848933Y-66671383D01*
X82068212Y-66715000D01*
X82255774Y-66715000D01*
X82387752Y-66785545D01*
X82419648Y-66795220D01*
X82358388Y-66856480D01*
X82234176Y-67042376D01*
X82148617Y-67248933D01*
X82105000Y-67468212D01*
X82105000Y-67691788D01*
X82148617Y-67911067D01*
X82234176Y-68117624D01*
X82358388Y-68303520D01*
X82516480Y-68461612D01*
X82702376Y-68585824D01*
X82908933Y-68671383D01*
X83128212Y-68715000D01*
X83300199Y-68715000D01*
X83780199Y-69195000D01*
X83738061Y-69195000D01*
X83538102Y-69234774D01*
X83349744Y-69312795D01*
X83180226Y-69426063D01*
X83036063Y-69570226D01*
X82922795Y-69739744D01*
X82844774Y-69928102D01*
X82805000Y-70128061D01*
X82805000Y-70235000D01*
X82678061Y-70235000D01*
X82478102Y-70274774D01*
X82289744Y-70352795D01*
X82120226Y-70466063D01*
X81976063Y-70610226D01*
X81862795Y-70779744D01*
X81784774Y-70968102D01*
X81745000Y-71168061D01*
X81745000Y-71371939D01*
X81784774Y-71571898D01*
X81862795Y-71760256D01*
X81976063Y-71929774D01*
X82120226Y-72073937D01*
X82289744Y-72187205D01*
X82478102Y-72265226D01*
X82678061Y-72305000D01*
X82704843Y-72305000D01*
X86035002Y-75635160D01*
X86035001Y-84285000D01*
X85968061Y-84285000D01*
X85768102Y-84324774D01*
X85579744Y-84402795D01*
X85410226Y-84516063D01*
X85266063Y-84660226D01*
X85152795Y-84829744D01*
X85074774Y-85018102D01*
X85035000Y-85218061D01*
X85035000Y-85421939D01*
X85074774Y-85621898D01*
X85150159Y-85803892D01*
X85092795Y-85889744D01*
X85014774Y-86078102D01*
X84975000Y-86278061D01*
X84975000Y-86481939D01*
X85014774Y-86681898D01*
X85092795Y-86870256D01*
X85206063Y-87039774D01*
X85350226Y-87183937D01*
X85519744Y-87297205D01*
X85708102Y-87375226D01*
X85908061Y-87415000D01*
X86111939Y-87415000D01*
X86311898Y-87375226D01*
X86500256Y-87297205D01*
X86669774Y-87183937D01*
X86813937Y-87039774D01*
X86884304Y-86934462D01*
X90265000Y-90315158D01*
X90265000Y-90341939D01*
X90304774Y-90541898D01*
X90382795Y-90730256D01*
X90496063Y-90899774D01*
X90640226Y-91043937D01*
X90809744Y-91157205D01*
X90998102Y-91235226D01*
X91198061Y-91275000D01*
X91401939Y-91275000D01*
X91601898Y-91235226D01*
X91790256Y-91157205D01*
X91959774Y-91043937D01*
X92103937Y-90899774D01*
X92217205Y-90730256D01*
X92295226Y-90541898D01*
X92301242Y-90511654D01*
X92318061Y-90515000D01*
X92521939Y-90515000D01*
X92721898Y-90475226D01*
X92910256Y-90397205D01*
X93079774Y-90283937D01*
X93223937Y-90139774D01*
X93226379Y-90136119D01*
X105174724Y-90136119D01*
X107696000Y-92657395D01*
X110217276Y-90136119D01*
X109857088Y-89646452D01*
X109193118Y-89286151D01*
X108471615Y-89062306D01*
X107720305Y-88983520D01*
X106968062Y-89052822D01*
X106243792Y-89267548D01*
X105575330Y-89619445D01*
X105534912Y-89646452D01*
X105174724Y-90136119D01*
X93226379Y-90136119D01*
X93337205Y-89970256D01*
X93415226Y-89781898D01*
X93455000Y-89581939D01*
X93455000Y-89378061D01*
X93415226Y-89178102D01*
X93337205Y-88989744D01*
X93223937Y-88820226D01*
X93079774Y-88676063D01*
X92910256Y-88562795D01*
X92721898Y-88484774D01*
X92521939Y-88445000D01*
X92495158Y-88445000D01*
X88414999Y-84364842D01*
X88414999Y-76563348D01*
X99853660Y-76563348D01*
X99853660Y-76796772D01*
X99899199Y-77025712D01*
X99988526Y-77241368D01*
X100118210Y-77435454D01*
X100283266Y-77600510D01*
X100477352Y-77730194D01*
X100693008Y-77819521D01*
X100921948Y-77865060D01*
X101155372Y-77865060D01*
X101384312Y-77819521D01*
X101599968Y-77730194D01*
X101794054Y-77600510D01*
X101959110Y-77435454D01*
X102088794Y-77241368D01*
X102178121Y-77025712D01*
X102223660Y-76796772D01*
X102223660Y-76563348D01*
X102178121Y-76334408D01*
X102088794Y-76118752D01*
X101959110Y-75924666D01*
X101794054Y-75759610D01*
X101599968Y-75629926D01*
X101384312Y-75540599D01*
X101155372Y-75495060D01*
X100921948Y-75495060D01*
X100693008Y-75540599D01*
X100477352Y-75629926D01*
X100283266Y-75759610D01*
X100118210Y-75924666D01*
X99988526Y-76118752D01*
X99899199Y-76334408D01*
X99853660Y-76563348D01*
X88414999Y-76563348D01*
X88414999Y-74968556D01*
X88418796Y-74930001D01*
X88414999Y-74891445D01*
X88414999Y-74891440D01*
X88407169Y-74811939D01*
X88403641Y-74776114D01*
X88358753Y-74628141D01*
X88320254Y-74556114D01*
X88285861Y-74491768D01*
X88217229Y-74408141D01*
X88212344Y-74402188D01*
X88212341Y-74402185D01*
X88187763Y-74372237D01*
X88157815Y-74347659D01*
X84666364Y-70856209D01*
X84757205Y-70720256D01*
X84835226Y-70531898D01*
X84875000Y-70331939D01*
X84875000Y-70289801D01*
X88825744Y-74240545D01*
X88806063Y-74260226D01*
X88692795Y-74429744D01*
X88614774Y-74618102D01*
X88575000Y-74818061D01*
X88575000Y-75021939D01*
X88614774Y-75221898D01*
X88692795Y-75410256D01*
X88806063Y-75579774D01*
X88950226Y-75723937D01*
X89119744Y-75837205D01*
X89308102Y-75915226D01*
X89508061Y-75955000D01*
X89711939Y-75955000D01*
X89911898Y-75915226D01*
X90100256Y-75837205D01*
X90269774Y-75723937D01*
X90413937Y-75579774D01*
X90527205Y-75410256D01*
X90605226Y-75221898D01*
X90645000Y-75021939D01*
X90645000Y-74880000D01*
X97704868Y-74880000D01*
X97826480Y-75001612D01*
X98012376Y-75125824D01*
X98218933Y-75211383D01*
X98438212Y-75255000D01*
X98661788Y-75255000D01*
X98881067Y-75211383D01*
X99087624Y-75125824D01*
X99273520Y-75001612D01*
X99431612Y-74843520D01*
X99555824Y-74657624D01*
X99641383Y-74451067D01*
X99685000Y-74231788D01*
X99685000Y-74008212D01*
X99641383Y-73788933D01*
X99555824Y-73582376D01*
X99431612Y-73396480D01*
X99273520Y-73238388D01*
X99087624Y-73114176D01*
X98881067Y-73028617D01*
X98661788Y-72985000D01*
X98555000Y-72985000D01*
X98555000Y-72948212D01*
X98511383Y-72728933D01*
X98503541Y-72710000D01*
X99374868Y-72710000D01*
X99456480Y-72791612D01*
X99642376Y-72915824D01*
X99848933Y-73001383D01*
X100068212Y-73045000D01*
X100291788Y-73045000D01*
X100511067Y-73001383D01*
X100717624Y-72915824D01*
X100903520Y-72791612D01*
X101061612Y-72633520D01*
X101185824Y-72447624D01*
X101271383Y-72241067D01*
X101315000Y-72021788D01*
X101315000Y-71798212D01*
X101271383Y-71578933D01*
X101185824Y-71372376D01*
X101061612Y-71186480D01*
X100903520Y-71028388D01*
X100717624Y-70904176D01*
X100511067Y-70818617D01*
X100291788Y-70775000D01*
X100068212Y-70775000D01*
X99848933Y-70818617D01*
X99815000Y-70832673D01*
X99815000Y-70678212D01*
X99771383Y-70458933D01*
X99685824Y-70252376D01*
X99561612Y-70066480D01*
X99403520Y-69908388D01*
X99217624Y-69784176D01*
X99011067Y-69698617D01*
X98791788Y-69655000D01*
X98568212Y-69655000D01*
X98348933Y-69698617D01*
X98142376Y-69784176D01*
X97956480Y-69908388D01*
X97834868Y-70030000D01*
X90914802Y-70030000D01*
X89993495Y-69108693D01*
X90181067Y-69071383D01*
X90321175Y-69013348D01*
X99853660Y-69013348D01*
X99853660Y-69246772D01*
X99899199Y-69475712D01*
X99988526Y-69691368D01*
X100118210Y-69885454D01*
X100283266Y-70050510D01*
X100477352Y-70180194D01*
X100693008Y-70269521D01*
X100921948Y-70315060D01*
X101155372Y-70315060D01*
X101384312Y-70269521D01*
X101599968Y-70180194D01*
X101794054Y-70050510D01*
X101959110Y-69885454D01*
X102088794Y-69691368D01*
X102178121Y-69475712D01*
X102223660Y-69246772D01*
X102223660Y-69013348D01*
X102178121Y-68784408D01*
X102088794Y-68568752D01*
X101959110Y-68374666D01*
X101794054Y-68209610D01*
X101599968Y-68079926D01*
X101384312Y-67990599D01*
X101155372Y-67945060D01*
X100921948Y-67945060D01*
X100693008Y-67990599D01*
X100477352Y-68079926D01*
X100283266Y-68209610D01*
X100118210Y-68374666D01*
X99988526Y-68568752D01*
X99899199Y-68784408D01*
X99853660Y-69013348D01*
X90321175Y-69013348D01*
X90387624Y-68985824D01*
X90573520Y-68861612D01*
X90731612Y-68703520D01*
X90855824Y-68517624D01*
X90941383Y-68311067D01*
X90985000Y-68091788D01*
X90985000Y-67868212D01*
X90941383Y-67648933D01*
X90855824Y-67442376D01*
X90731612Y-67256480D01*
X90573520Y-67098388D01*
X90387624Y-66974176D01*
X90181067Y-66888617D01*
X89961788Y-66845000D01*
X89738212Y-66845000D01*
X89518933Y-66888617D01*
X89312376Y-66974176D01*
X89126480Y-67098388D01*
X88968388Y-67256480D01*
X88844176Y-67442376D01*
X88758617Y-67648933D01*
X88721307Y-67836505D01*
X86040611Y-65155809D01*
X90274485Y-65155809D01*
X90274485Y-65379385D01*
X90318102Y-65598664D01*
X90403661Y-65805221D01*
X90527873Y-65991117D01*
X90685965Y-66149209D01*
X90871861Y-66273421D01*
X91078418Y-66358980D01*
X91297697Y-66402597D01*
X91521273Y-66402597D01*
X91740552Y-66358980D01*
X91947109Y-66273421D01*
X92133005Y-66149209D01*
X92291097Y-65991117D01*
X92415309Y-65805221D01*
X92500868Y-65598664D01*
X92544485Y-65379385D01*
X92544485Y-65207398D01*
X93471004Y-64280880D01*
X93500001Y-64257083D01*
X93594974Y-64141358D01*
X93665546Y-64009329D01*
X93709003Y-63866068D01*
X93720000Y-63754415D01*
X93720000Y-63754406D01*
X93723676Y-63717083D01*
X93720000Y-63679760D01*
X93720000Y-63634801D01*
X95114802Y-62240000D01*
X102514868Y-62240000D01*
X102636480Y-62361612D01*
X102822376Y-62485824D01*
X103028933Y-62571383D01*
X103248212Y-62615000D01*
X103471788Y-62615000D01*
X103691067Y-62571383D01*
X103897624Y-62485824D01*
X104083520Y-62361612D01*
X104241612Y-62203520D01*
X104365824Y-62017624D01*
X104451383Y-61811067D01*
X104495000Y-61591788D01*
X104495000Y-61368212D01*
X104451383Y-61148933D01*
X104365824Y-60942376D01*
X104241612Y-60756480D01*
X104083520Y-60598388D01*
X103897624Y-60474176D01*
X103691067Y-60388617D01*
X103471788Y-60345000D01*
X103248212Y-60345000D01*
X103028933Y-60388617D01*
X102822376Y-60474176D01*
X102636480Y-60598388D01*
X102514868Y-60720000D01*
X94837323Y-60720000D01*
X94800000Y-60716324D01*
X94762677Y-60720000D01*
X94762667Y-60720000D01*
X94651014Y-60730997D01*
X94507753Y-60774454D01*
X94375723Y-60845026D01*
X94349582Y-60866480D01*
X94259999Y-60939999D01*
X94236201Y-60968997D01*
X92449001Y-62756198D01*
X92419999Y-62779999D01*
X92325026Y-62895724D01*
X92254454Y-63027753D01*
X92210997Y-63171014D01*
X92200000Y-63282667D01*
X92200000Y-63282678D01*
X92196324Y-63320000D01*
X92200000Y-63357322D01*
X92200000Y-63402280D01*
X91469684Y-64132597D01*
X91297697Y-64132597D01*
X91078418Y-64176214D01*
X90871861Y-64261773D01*
X90685965Y-64385985D01*
X90527873Y-64544077D01*
X90403661Y-64729973D01*
X90318102Y-64936530D01*
X90274485Y-65155809D01*
X86040611Y-65155809D01*
X84383804Y-63499003D01*
X84360001Y-63469999D01*
X84244276Y-63375026D01*
X84112247Y-63304454D01*
X83968986Y-63260997D01*
X83857333Y-63250000D01*
X83857322Y-63250000D01*
X83820000Y-63246324D01*
X83782678Y-63250000D01*
X83275132Y-63250000D01*
X83153520Y-63128388D01*
X82967624Y-63004176D01*
X82761067Y-62918617D01*
X82690267Y-62904534D01*
X84116589Y-61478212D01*
X88685000Y-61478212D01*
X88685000Y-61701788D01*
X88728617Y-61921067D01*
X88814176Y-62127624D01*
X88938388Y-62313520D01*
X89096480Y-62471612D01*
X89282376Y-62595824D01*
X89488933Y-62681383D01*
X89708212Y-62725000D01*
X89931788Y-62725000D01*
X90151067Y-62681383D01*
X90357624Y-62595824D01*
X90543520Y-62471612D01*
X90701612Y-62313520D01*
X90825824Y-62127624D01*
X90911383Y-61921067D01*
X90955000Y-61701788D01*
X90955000Y-61478212D01*
X90911383Y-61258933D01*
X90825824Y-61052376D01*
X90701612Y-60866480D01*
X90543520Y-60708388D01*
X90357624Y-60584176D01*
X90151067Y-60498617D01*
X89931788Y-60455000D01*
X89708212Y-60455000D01*
X89488933Y-60498617D01*
X89282376Y-60584176D01*
X89096480Y-60708388D01*
X88938388Y-60866480D01*
X88814176Y-61052376D01*
X88728617Y-61258933D01*
X88685000Y-61478212D01*
X84116589Y-61478212D01*
X86424802Y-59170000D01*
X88652678Y-59170000D01*
X88690000Y-59173676D01*
X88727322Y-59170000D01*
X88727333Y-59170000D01*
X88838986Y-59159003D01*
X88982247Y-59115546D01*
X89114276Y-59044974D01*
X89230001Y-58950001D01*
X89253804Y-58920997D01*
X90019802Y-58155000D01*
X90191788Y-58155000D01*
X90411067Y-58111383D01*
X90617624Y-58025824D01*
X90733778Y-57948212D01*
X100475000Y-57948212D01*
X100475000Y-58171788D01*
X100518617Y-58391067D01*
X100604176Y-58597624D01*
X100728388Y-58783520D01*
X100886480Y-58941612D01*
X101072376Y-59065824D01*
X101278933Y-59151383D01*
X101498212Y-59195000D01*
X101721788Y-59195000D01*
X101941067Y-59151383D01*
X102147624Y-59065824D01*
X102333520Y-58941612D01*
X102491612Y-58783520D01*
X102615824Y-58597624D01*
X102701383Y-58391067D01*
X102745000Y-58171788D01*
X102745000Y-57948212D01*
X102701383Y-57728933D01*
X102615824Y-57522376D01*
X102491612Y-57336480D01*
X102333520Y-57178388D01*
X102147624Y-57054176D01*
X101941067Y-56968617D01*
X101721788Y-56925000D01*
X101498212Y-56925000D01*
X101278933Y-56968617D01*
X101072376Y-57054176D01*
X100886480Y-57178388D01*
X100728388Y-57336480D01*
X100604176Y-57522376D01*
X100518617Y-57728933D01*
X100475000Y-57948212D01*
X90733778Y-57948212D01*
X90803520Y-57901612D01*
X90961612Y-57743520D01*
X91085824Y-57557624D01*
X91171383Y-57351067D01*
X91215000Y-57131788D01*
X91215000Y-56908212D01*
X91171383Y-56688933D01*
X91085824Y-56482376D01*
X90961612Y-56296480D01*
X90803520Y-56138388D01*
X90617624Y-56014176D01*
X90411067Y-55928617D01*
X90191788Y-55885000D01*
X89968212Y-55885000D01*
X89748933Y-55928617D01*
X89542376Y-56014176D01*
X89356480Y-56138388D01*
X89198388Y-56296480D01*
X89074176Y-56482376D01*
X88988617Y-56688933D01*
X88945000Y-56908212D01*
X88945000Y-57080198D01*
X88375199Y-57650000D01*
X86147323Y-57650000D01*
X86110000Y-57646324D01*
X86072677Y-57650000D01*
X86072667Y-57650000D01*
X85961014Y-57660997D01*
X85828919Y-57701067D01*
X85817753Y-57704454D01*
X85685723Y-57775026D01*
X85602083Y-57843668D01*
X85569999Y-57869999D01*
X85546201Y-57898997D01*
X76828998Y-66616201D01*
X76800000Y-66639999D01*
X76776202Y-66668997D01*
X76776201Y-66668998D01*
X76705026Y-66755724D01*
X76634454Y-66887754D01*
X76608239Y-66974176D01*
X76595492Y-67016201D01*
X76590998Y-67031015D01*
X76576324Y-67180000D01*
X76580001Y-67217332D01*
X76580000Y-69605000D01*
X71253465Y-69605000D01*
X71209999Y-69600719D01*
X71166533Y-69605000D01*
X71166523Y-69605000D01*
X71036510Y-69617805D01*
X70869687Y-69668411D01*
X70715941Y-69750589D01*
X70715939Y-69750590D01*
X70715940Y-69750590D01*
X70614953Y-69833468D01*
X70614951Y-69833470D01*
X70581183Y-69861183D01*
X70553470Y-69894951D01*
X68823422Y-71625000D01*
X62727000Y-71625000D01*
X62727000Y-71412577D01*
X62924534Y-70424907D01*
X62927000Y-70400133D01*
X62924586Y-70375354D01*
X62917383Y-70351522D01*
X62899170Y-70320664D01*
X62499170Y-69820664D01*
X62481787Y-69802841D01*
X62461261Y-69788752D01*
X62438380Y-69778938D01*
X62407458Y-69773219D01*
X61473585Y-69718285D01*
X61505226Y-69641898D01*
X61545000Y-69441939D01*
X61545000Y-69238061D01*
X61505226Y-69038102D01*
X61427205Y-68849744D01*
X61313937Y-68680226D01*
X61169774Y-68536063D01*
X61000256Y-68422795D01*
X60811898Y-68344774D01*
X60611939Y-68305000D01*
X60408061Y-68305000D01*
X60208102Y-68344774D01*
X60019744Y-68422795D01*
X59850226Y-68536063D01*
X59706063Y-68680226D01*
X59592795Y-68849744D01*
X59514774Y-69038102D01*
X59475000Y-69238061D01*
X59475000Y-69441939D01*
X59514774Y-69641898D01*
X59588574Y-69820066D01*
X59183215Y-69874114D01*
X59158979Y-69879807D01*
X59136318Y-69890120D01*
X59116105Y-69904655D01*
X59099117Y-69922854D01*
X59083946Y-69948420D01*
X58683946Y-70848420D01*
X58679517Y-70859839D01*
X58596152Y-71109934D01*
X58243204Y-71286408D01*
X58222134Y-71299671D01*
X58204057Y-71316789D01*
X58189667Y-71337106D01*
X58179517Y-71359839D01*
X58173312Y-71391110D01*
X58156899Y-71625000D01*
X57108454Y-71625000D01*
X57060256Y-71592795D01*
X56871898Y-71514774D01*
X56671939Y-71475000D01*
X56468061Y-71475000D01*
X56268102Y-71514774D01*
X56079744Y-71592795D01*
X55910226Y-71706063D01*
X55766063Y-71850226D01*
X55652795Y-72019744D01*
X55574774Y-72208102D01*
X55535000Y-72408061D01*
X55535000Y-72611939D01*
X55574774Y-72811898D01*
X55652795Y-73000256D01*
X55766063Y-73169774D01*
X55910226Y-73313937D01*
X56079744Y-73427205D01*
X56268102Y-73505226D01*
X56468061Y-73545000D01*
X56671939Y-73545000D01*
X56871898Y-73505226D01*
X57060256Y-73427205D01*
X57108454Y-73395000D01*
X58032688Y-73395000D01*
X57773312Y-77091110D01*
X57774011Y-77115996D01*
X57779553Y-77140268D01*
X57789723Y-77162992D01*
X57804131Y-77183296D01*
X57822224Y-77200398D01*
X57843305Y-77213643D01*
X57866565Y-77222520D01*
X57891110Y-77226688D01*
X57907922Y-77226753D01*
X59503970Y-77127000D01*
X61400000Y-77127000D01*
X61424776Y-77124560D01*
X61448601Y-77117333D01*
X61470557Y-77105597D01*
X61489803Y-77089803D01*
X61505597Y-77070557D01*
X61517333Y-77048601D01*
X61523208Y-77030802D01*
X61623208Y-76630802D01*
X61627000Y-76600000D01*
X61627000Y-76320610D01*
X61698437Y-76106299D01*
X62030802Y-76023208D01*
X62054247Y-76014832D01*
X62067059Y-76007160D01*
X62045000Y-76118061D01*
X62045000Y-76321939D01*
X62084774Y-76521898D01*
X62162795Y-76710256D01*
X62276063Y-76879774D01*
X62420226Y-77023937D01*
X62589744Y-77137205D01*
X62778102Y-77215226D01*
X62978061Y-77255000D01*
X63181939Y-77255000D01*
X63381898Y-77215226D01*
X63570256Y-77137205D01*
X63739774Y-77023937D01*
X63883937Y-76879774D01*
X63997205Y-76710256D01*
X64075226Y-76521898D01*
X64115000Y-76321939D01*
X64115000Y-76118061D01*
X64075226Y-75918102D01*
X63997205Y-75729744D01*
X63883937Y-75560226D01*
X63739774Y-75416063D01*
X63669947Y-75369406D01*
X66805767Y-75226869D01*
X66830407Y-75223306D01*
X66853878Y-75215005D01*
X66875280Y-75202284D01*
X66893788Y-75185632D01*
X66908692Y-75165690D01*
X66919419Y-75143223D01*
X66925556Y-75119095D01*
X66927000Y-75100000D01*
X66927000Y-74000000D01*
X66924560Y-73975224D01*
X66917333Y-73951399D01*
X66905597Y-73929443D01*
X66889803Y-73910197D01*
X66870557Y-73894403D01*
X66848601Y-73882667D01*
X66824776Y-73875440D01*
X66800000Y-73873000D01*
X64791537Y-73873000D01*
X64632203Y-73395000D01*
X66919478Y-73395000D01*
X66895000Y-73518061D01*
X66895000Y-73721939D01*
X66934774Y-73921898D01*
X67012795Y-74110256D01*
X67126063Y-74279774D01*
X67145001Y-74298712D01*
X67145000Y-79644843D01*
X65644843Y-81145000D01*
X56780842Y-81145000D01*
X56698032Y-81062191D01*
X56673449Y-81032236D01*
X56553918Y-80934138D01*
X56417545Y-80861246D01*
X56269572Y-80816359D01*
X56236847Y-80813136D01*
X56209774Y-80786063D01*
X56040256Y-80672795D01*
X55851898Y-80594774D01*
X55700852Y-80564729D01*
X55717205Y-80540256D01*
X55795226Y-80351898D01*
X55835000Y-80151939D01*
X55835000Y-79948061D01*
X55795226Y-79748102D01*
X55717205Y-79559744D01*
X55603937Y-79390226D01*
X55459774Y-79246063D01*
X55290256Y-79132795D01*
X55101898Y-79054774D01*
X54901939Y-79015000D01*
X54698061Y-79015000D01*
X54498102Y-79054774D01*
X54414710Y-79089316D01*
X54270256Y-78992795D01*
X54081898Y-78914774D01*
X53881939Y-78875000D01*
X53678061Y-78875000D01*
X53478102Y-78914774D01*
X53289744Y-78992795D01*
X53120226Y-79106063D01*
X52976063Y-79250226D01*
X52862795Y-79419744D01*
X52800445Y-79570269D01*
X52687754Y-79604453D01*
X52555725Y-79675025D01*
X52440000Y-79769998D01*
X52416202Y-79798996D01*
X50893213Y-81321986D01*
X50851768Y-81344139D01*
X50762189Y-81417655D01*
X50514843Y-81665001D01*
X49575000Y-81665001D01*
X49575000Y-81598061D01*
X49535226Y-81398102D01*
X49457205Y-81209744D01*
X49375000Y-81086715D01*
X49375000Y-76058061D01*
X52715000Y-76058061D01*
X52715000Y-76261939D01*
X52754774Y-76461898D01*
X52832795Y-76650256D01*
X52946063Y-76819774D01*
X53090226Y-76963937D01*
X53259744Y-77077205D01*
X53448102Y-77155226D01*
X53648061Y-77195000D01*
X53851939Y-77195000D01*
X54051898Y-77155226D01*
X54240256Y-77077205D01*
X54409774Y-76963937D01*
X54553937Y-76819774D01*
X54667205Y-76650256D01*
X54745226Y-76461898D01*
X54785000Y-76261939D01*
X54785000Y-76058061D01*
X54745226Y-75858102D01*
X54667205Y-75669744D01*
X54553937Y-75500226D01*
X54409774Y-75356063D01*
X54240256Y-75242795D01*
X54051898Y-75164774D01*
X53851939Y-75125000D01*
X53648061Y-75125000D01*
X53448102Y-75164774D01*
X53259744Y-75242795D01*
X53090226Y-75356063D01*
X52946063Y-75500226D01*
X52832795Y-75669744D01*
X52754774Y-75858102D01*
X52715000Y-76058061D01*
X49375000Y-76058061D01*
X49375000Y-75388711D01*
X49393937Y-75369774D01*
X49507205Y-75200256D01*
X49585226Y-75011898D01*
X49625000Y-74811939D01*
X49625000Y-74608061D01*
X49585226Y-74408102D01*
X49507205Y-74219744D01*
X49393937Y-74050226D01*
X49249774Y-73906063D01*
X49080256Y-73792795D01*
X48891898Y-73714774D01*
X48691939Y-73675000D01*
X48488061Y-73675000D01*
X48288102Y-73714774D01*
X48099744Y-73792795D01*
X47930226Y-73906063D01*
X47786063Y-74050226D01*
X47672795Y-74219744D01*
X47594774Y-74408102D01*
X47555000Y-74608061D01*
X47555000Y-74811939D01*
X47594774Y-75011898D01*
X47672795Y-75200256D01*
X47786063Y-75369774D01*
X47805000Y-75388711D01*
X47805001Y-80971288D01*
X47736063Y-81040226D01*
X47622795Y-81209744D01*
X47544774Y-81398102D01*
X47505000Y-81598061D01*
X47505000Y-81801939D01*
X47544774Y-82001898D01*
X47622795Y-82190256D01*
X47736063Y-82359774D01*
X47753065Y-82376776D01*
X47082190Y-83047651D01*
X47052236Y-83072234D01*
X46954138Y-83191766D01*
X46881246Y-83328139D01*
X46836359Y-83476112D01*
X46825000Y-83591438D01*
X46825000Y-83591445D01*
X46821203Y-83629998D01*
X46825000Y-83668551D01*
X46825000Y-84251447D01*
X46821203Y-84290000D01*
X46825000Y-84328553D01*
X46825000Y-84328561D01*
X46836359Y-84443887D01*
X46847902Y-84481939D01*
X46881246Y-84591859D01*
X46887702Y-84603937D01*
X46954139Y-84728233D01*
X46963982Y-84740226D01*
X47027655Y-84817812D01*
X47027659Y-84817816D01*
X47052237Y-84847764D01*
X47082185Y-84872342D01*
X47287654Y-85077811D01*
X47312237Y-85107765D01*
X47431768Y-85205863D01*
X47568141Y-85278755D01*
X47602582Y-85289202D01*
X47716114Y-85323643D01*
X47791027Y-85331021D01*
X47831440Y-85335001D01*
X47831445Y-85335001D01*
X47870001Y-85338798D01*
X47908556Y-85335001D01*
X50505000Y-85335001D01*
X50505001Y-86465000D01*
X49738556Y-86465000D01*
X49700000Y-86461203D01*
X49661444Y-86465000D01*
X49661439Y-86465000D01*
X49621026Y-86468980D01*
X49546113Y-86476358D01*
X49412543Y-86516877D01*
X49412543Y-86425052D01*
X49372769Y-86225093D01*
X49294748Y-86036735D01*
X49181480Y-85867217D01*
X49037317Y-85723054D01*
X48867799Y-85609786D01*
X48679441Y-85531765D01*
X48479482Y-85491991D01*
X48275604Y-85491991D01*
X48075645Y-85531765D01*
X47887287Y-85609786D01*
X47717769Y-85723054D01*
X47673832Y-85766991D01*
X43860702Y-85766991D01*
X43779774Y-85686063D01*
X43610256Y-85572795D01*
X43421898Y-85494774D01*
X43221939Y-85455000D01*
X43018061Y-85455000D01*
X42818102Y-85494774D01*
X42629744Y-85572795D01*
X42571934Y-85611422D01*
X42572386Y-83909373D01*
X42606063Y-83959774D01*
X42750226Y-84103937D01*
X42919744Y-84217205D01*
X43108102Y-84295226D01*
X43308061Y-84335000D01*
X43511939Y-84335000D01*
X43711898Y-84295226D01*
X43900256Y-84217205D01*
X44069774Y-84103937D01*
X44213937Y-83959774D01*
X44327205Y-83790256D01*
X44405226Y-83601898D01*
X44445000Y-83401939D01*
X44445000Y-83198061D01*
X44405226Y-82998102D01*
X44327205Y-82809744D01*
X44213937Y-82640226D01*
X44069774Y-82496063D01*
X43900256Y-82382795D01*
X43711898Y-82304774D01*
X43511939Y-82265000D01*
X43308061Y-82265000D01*
X43108102Y-82304774D01*
X42919744Y-82382795D01*
X42750226Y-82496063D01*
X42606063Y-82640226D01*
X42572710Y-82690143D01*
X42576529Y-68297609D01*
X50807360Y-68297609D01*
X50807360Y-68570431D01*
X50860585Y-68838009D01*
X50964989Y-69090063D01*
X51116561Y-69316906D01*
X51309474Y-69509819D01*
X51536317Y-69661391D01*
X51788371Y-69765795D01*
X52055949Y-69819020D01*
X52328771Y-69819020D01*
X52596349Y-69765795D01*
X52848403Y-69661391D01*
X53075246Y-69509819D01*
X53268159Y-69316906D01*
X53419731Y-69090063D01*
X53524135Y-68838009D01*
X53577360Y-68570431D01*
X53577360Y-68297609D01*
X55307360Y-68297609D01*
X55307360Y-68570431D01*
X55360585Y-68838009D01*
X55464989Y-69090063D01*
X55616561Y-69316906D01*
X55809474Y-69509819D01*
X56036317Y-69661391D01*
X56288371Y-69765795D01*
X56555949Y-69819020D01*
X56828771Y-69819020D01*
X57096349Y-69765795D01*
X57348403Y-69661391D01*
X57575246Y-69509819D01*
X57768159Y-69316906D01*
X57919731Y-69090063D01*
X58024135Y-68838009D01*
X58077360Y-68570431D01*
X58077360Y-68297609D01*
X58024135Y-68030031D01*
X57919731Y-67777977D01*
X57768159Y-67551134D01*
X57575246Y-67358221D01*
X57348403Y-67206649D01*
X57096349Y-67102245D01*
X56828771Y-67049020D01*
X56555949Y-67049020D01*
X56288371Y-67102245D01*
X56036317Y-67206649D01*
X55809474Y-67358221D01*
X55616561Y-67551134D01*
X55464989Y-67777977D01*
X55360585Y-68030031D01*
X55307360Y-68297609D01*
X53577360Y-68297609D01*
X53524135Y-68030031D01*
X53419731Y-67777977D01*
X53268159Y-67551134D01*
X53075246Y-67358221D01*
X52848403Y-67206649D01*
X52596349Y-67102245D01*
X52328771Y-67049020D01*
X52055949Y-67049020D01*
X51788371Y-67102245D01*
X51536317Y-67206649D01*
X51309474Y-67358221D01*
X51116561Y-67551134D01*
X50964989Y-67777977D01*
X50860585Y-68030031D01*
X50807360Y-68297609D01*
X42576529Y-68297609D01*
X42577964Y-62891013D01*
X51414972Y-62891013D01*
X51480497Y-63129880D01*
X51727476Y-63245780D01*
X51992320Y-63311270D01*
X52264852Y-63323832D01*
X52534598Y-63282985D01*
X52791192Y-63190297D01*
X52904223Y-63129880D01*
X52969748Y-62891013D01*
X55914972Y-62891013D01*
X55980497Y-63129880D01*
X56227476Y-63245780D01*
X56492320Y-63311270D01*
X56764852Y-63323832D01*
X57034598Y-63282985D01*
X57291192Y-63190297D01*
X57404223Y-63129880D01*
X57469748Y-62891013D01*
X56692360Y-62113625D01*
X55914972Y-62891013D01*
X52969748Y-62891013D01*
X52192360Y-62113625D01*
X51414972Y-62891013D01*
X42577964Y-62891013D01*
X42578199Y-62006512D01*
X50802548Y-62006512D01*
X50843395Y-62276258D01*
X50936083Y-62532852D01*
X50996500Y-62645883D01*
X51235367Y-62711408D01*
X52012755Y-61934020D01*
X52371965Y-61934020D01*
X53149353Y-62711408D01*
X53388220Y-62645883D01*
X53504120Y-62398904D01*
X53569610Y-62134060D01*
X53575489Y-62006512D01*
X55302548Y-62006512D01*
X55343395Y-62276258D01*
X55436083Y-62532852D01*
X55496500Y-62645883D01*
X55735367Y-62711408D01*
X56512755Y-61934020D01*
X56871965Y-61934020D01*
X57649353Y-62711408D01*
X57888220Y-62645883D01*
X58004120Y-62398904D01*
X58069610Y-62134060D01*
X58079566Y-61918061D01*
X63985000Y-61918061D01*
X63985000Y-62121939D01*
X64024774Y-62321898D01*
X64102795Y-62510256D01*
X64216063Y-62679774D01*
X64360226Y-62823937D01*
X64529744Y-62937205D01*
X64718102Y-63015226D01*
X64918061Y-63055000D01*
X65121939Y-63055000D01*
X65321898Y-63015226D01*
X65510256Y-62937205D01*
X65679774Y-62823937D01*
X65823937Y-62679774D01*
X65937205Y-62510256D01*
X66015226Y-62321898D01*
X66055000Y-62121939D01*
X66055000Y-61918061D01*
X66015226Y-61718102D01*
X65937205Y-61529744D01*
X65877217Y-61439966D01*
X65957205Y-61320256D01*
X66035226Y-61131898D01*
X66075000Y-60931939D01*
X66075000Y-60728061D01*
X66035226Y-60528102D01*
X65957205Y-60339744D01*
X65843937Y-60170226D01*
X65699774Y-60026063D01*
X65530256Y-59912795D01*
X65341898Y-59834774D01*
X65141939Y-59795000D01*
X64938061Y-59795000D01*
X64738102Y-59834774D01*
X64549744Y-59912795D01*
X64380226Y-60026063D01*
X64236063Y-60170226D01*
X64122795Y-60339744D01*
X64044774Y-60528102D01*
X64005000Y-60728061D01*
X64005000Y-60931939D01*
X64044774Y-61131898D01*
X64122795Y-61320256D01*
X64182783Y-61410034D01*
X64102795Y-61529744D01*
X64024774Y-61718102D01*
X63985000Y-61918061D01*
X58079566Y-61918061D01*
X58082172Y-61861528D01*
X58041325Y-61591782D01*
X57948637Y-61335188D01*
X57888220Y-61222157D01*
X57649353Y-61156632D01*
X56871965Y-61934020D01*
X56512755Y-61934020D01*
X55735367Y-61156632D01*
X55496500Y-61222157D01*
X55380600Y-61469136D01*
X55315110Y-61733980D01*
X55302548Y-62006512D01*
X53575489Y-62006512D01*
X53582172Y-61861528D01*
X53541325Y-61591782D01*
X53448637Y-61335188D01*
X53388220Y-61222157D01*
X53149353Y-61156632D01*
X52371965Y-61934020D01*
X52012755Y-61934020D01*
X51235367Y-61156632D01*
X50996500Y-61222157D01*
X50880600Y-61469136D01*
X50815110Y-61733980D01*
X50802548Y-62006512D01*
X42578199Y-62006512D01*
X42578472Y-60977027D01*
X51414972Y-60977027D01*
X52192360Y-61754415D01*
X52969748Y-60977027D01*
X55914972Y-60977027D01*
X56692360Y-61754415D01*
X57469748Y-60977027D01*
X57404223Y-60738160D01*
X57157244Y-60622260D01*
X56892400Y-60556770D01*
X56619868Y-60544208D01*
X56350122Y-60585055D01*
X56093528Y-60677743D01*
X55980497Y-60738160D01*
X55914972Y-60977027D01*
X52969748Y-60977027D01*
X52904223Y-60738160D01*
X52657244Y-60622260D01*
X52392400Y-60556770D01*
X52119868Y-60544208D01*
X51850122Y-60585055D01*
X51593528Y-60677743D01*
X51480497Y-60738160D01*
X51414972Y-60977027D01*
X42578472Y-60977027D01*
X42579329Y-57748212D01*
X57055000Y-57748212D01*
X57055000Y-57971788D01*
X57098617Y-58191067D01*
X57184176Y-58397624D01*
X57308388Y-58583520D01*
X57466480Y-58741612D01*
X57652376Y-58865824D01*
X57858933Y-58951383D01*
X58078212Y-58995000D01*
X58301788Y-58995000D01*
X58521067Y-58951383D01*
X58727624Y-58865824D01*
X58913520Y-58741612D01*
X58916920Y-58738212D01*
X60875000Y-58738212D01*
X60875000Y-58961788D01*
X60918617Y-59181067D01*
X61004176Y-59387624D01*
X61128388Y-59573520D01*
X61286480Y-59731612D01*
X61472376Y-59855824D01*
X61678933Y-59941383D01*
X61898212Y-59985000D01*
X62121788Y-59985000D01*
X62341067Y-59941383D01*
X62547624Y-59855824D01*
X62733520Y-59731612D01*
X62891612Y-59573520D01*
X63015824Y-59387624D01*
X63101383Y-59181067D01*
X63145000Y-58961788D01*
X63145000Y-58738212D01*
X63101383Y-58518933D01*
X63015824Y-58312376D01*
X62891612Y-58126480D01*
X62733520Y-57968388D01*
X62547624Y-57844176D01*
X62341067Y-57758617D01*
X62121788Y-57715000D01*
X61898212Y-57715000D01*
X61678933Y-57758617D01*
X61472376Y-57844176D01*
X61286480Y-57968388D01*
X61128388Y-58126480D01*
X61004176Y-58312376D01*
X60918617Y-58518933D01*
X60875000Y-58738212D01*
X58916920Y-58738212D01*
X59071612Y-58583520D01*
X59195824Y-58397624D01*
X59281383Y-58191067D01*
X59325000Y-57971788D01*
X59325000Y-57748212D01*
X59281383Y-57528933D01*
X59195824Y-57322376D01*
X59186360Y-57308212D01*
X66925000Y-57308212D01*
X66925000Y-57531788D01*
X66968617Y-57751067D01*
X67054176Y-57957624D01*
X67178388Y-58143520D01*
X67336480Y-58301612D01*
X67522376Y-58425824D01*
X67728933Y-58511383D01*
X67948212Y-58555000D01*
X68171788Y-58555000D01*
X68391067Y-58511383D01*
X68597624Y-58425824D01*
X68783520Y-58301612D01*
X68941612Y-58143520D01*
X69065824Y-57957624D01*
X69151383Y-57751067D01*
X69195000Y-57531788D01*
X69195000Y-57308212D01*
X69187014Y-57268061D01*
X72575000Y-57268061D01*
X72575000Y-57471939D01*
X72614774Y-57671898D01*
X72692795Y-57860256D01*
X72806063Y-58029774D01*
X72950226Y-58173937D01*
X73119744Y-58287205D01*
X73308102Y-58365226D01*
X73508061Y-58405000D01*
X73711939Y-58405000D01*
X73911898Y-58365226D01*
X74100256Y-58287205D01*
X74269774Y-58173937D01*
X74413937Y-58029774D01*
X74527205Y-57860256D01*
X74605226Y-57671898D01*
X74645000Y-57471939D01*
X74645000Y-57268061D01*
X74643041Y-57258212D01*
X77465000Y-57258212D01*
X77465000Y-57481788D01*
X77508617Y-57701067D01*
X77594176Y-57907624D01*
X77718388Y-58093520D01*
X77876480Y-58251612D01*
X78062376Y-58375824D01*
X78268933Y-58461383D01*
X78488212Y-58505000D01*
X78711788Y-58505000D01*
X78931067Y-58461383D01*
X79137624Y-58375824D01*
X79323520Y-58251612D01*
X79481612Y-58093520D01*
X79605824Y-57907624D01*
X79691383Y-57701067D01*
X79735000Y-57481788D01*
X79735000Y-57258212D01*
X79691383Y-57038933D01*
X79605824Y-56832376D01*
X79481612Y-56646480D01*
X79323520Y-56488388D01*
X79137624Y-56364176D01*
X78931067Y-56278617D01*
X78711788Y-56235000D01*
X78488212Y-56235000D01*
X78268933Y-56278617D01*
X78062376Y-56364176D01*
X77876480Y-56488388D01*
X77718388Y-56646480D01*
X77594176Y-56832376D01*
X77508617Y-57038933D01*
X77465000Y-57258212D01*
X74643041Y-57258212D01*
X74605226Y-57068102D01*
X74527205Y-56879744D01*
X74413937Y-56710226D01*
X74269774Y-56566063D01*
X74100256Y-56452795D01*
X73911898Y-56374774D01*
X73711939Y-56335000D01*
X73508061Y-56335000D01*
X73308102Y-56374774D01*
X73119744Y-56452795D01*
X72950226Y-56566063D01*
X72806063Y-56710226D01*
X72692795Y-56879744D01*
X72614774Y-57068102D01*
X72575000Y-57268061D01*
X69187014Y-57268061D01*
X69151383Y-57088933D01*
X69065824Y-56882376D01*
X68941612Y-56696480D01*
X68783520Y-56538388D01*
X68597624Y-56414176D01*
X68391067Y-56328617D01*
X68171788Y-56285000D01*
X67948212Y-56285000D01*
X67728933Y-56328617D01*
X67522376Y-56414176D01*
X67336480Y-56538388D01*
X67178388Y-56696480D01*
X67054176Y-56882376D01*
X66968617Y-57088933D01*
X66925000Y-57308212D01*
X59186360Y-57308212D01*
X59071612Y-57136480D01*
X58913520Y-56978388D01*
X58727624Y-56854176D01*
X58521067Y-56768617D01*
X58301788Y-56725000D01*
X58078212Y-56725000D01*
X57858933Y-56768617D01*
X57652376Y-56854176D01*
X57466480Y-56978388D01*
X57308388Y-57136480D01*
X57184176Y-57322376D01*
X57098617Y-57528933D01*
X57055000Y-57748212D01*
X42579329Y-57748212D01*
X42580322Y-54008881D01*
X43452724Y-54008881D01*
X43812912Y-54498548D01*
X44476882Y-54858849D01*
X45198385Y-55082694D01*
X45949695Y-55161480D01*
X46701938Y-55092178D01*
X47426208Y-54877452D01*
X48094670Y-54525555D01*
X48135088Y-54498548D01*
X48495276Y-54008881D01*
X45974000Y-51487605D01*
X43452724Y-54008881D01*
X42580322Y-54008881D01*
X42580565Y-53094570D01*
X42756445Y-53428670D01*
X42783452Y-53469088D01*
X43273119Y-53829276D01*
X45794395Y-51308000D01*
X46153605Y-51308000D01*
X48674881Y-53829276D01*
X48839464Y-53708212D01*
X57175000Y-53708212D01*
X57175000Y-53931788D01*
X57218617Y-54151067D01*
X57304176Y-54357624D01*
X57428388Y-54543520D01*
X57586480Y-54701612D01*
X57772376Y-54825824D01*
X57978933Y-54911383D01*
X58198212Y-54955000D01*
X58421788Y-54955000D01*
X58641067Y-54911383D01*
X58847624Y-54825824D01*
X59033520Y-54701612D01*
X59116920Y-54618212D01*
X63865000Y-54618212D01*
X63865000Y-54841788D01*
X63908617Y-55061067D01*
X63994176Y-55267624D01*
X64118388Y-55453520D01*
X64276480Y-55611612D01*
X64462376Y-55735824D01*
X64668933Y-55821383D01*
X64888212Y-55865000D01*
X65111788Y-55865000D01*
X65331067Y-55821383D01*
X65537624Y-55735824D01*
X65723520Y-55611612D01*
X65881612Y-55453520D01*
X66005824Y-55267624D01*
X66091383Y-55061067D01*
X66135000Y-54841788D01*
X66135000Y-54618212D01*
X66091383Y-54398933D01*
X66005824Y-54192376D01*
X65881612Y-54006480D01*
X65723520Y-53848388D01*
X65606238Y-53770023D01*
X65628899Y-53754881D01*
X105301724Y-53754881D01*
X105661912Y-54244548D01*
X106325882Y-54604849D01*
X107047385Y-54828694D01*
X107798695Y-54907480D01*
X108550938Y-54838178D01*
X109275208Y-54623452D01*
X109943670Y-54271555D01*
X109984088Y-54244548D01*
X110344276Y-53754881D01*
X107823000Y-51233605D01*
X105301724Y-53754881D01*
X65628899Y-53754881D01*
X65753520Y-53671612D01*
X65911612Y-53513520D01*
X66035824Y-53327624D01*
X66121383Y-53121067D01*
X66165000Y-52901788D01*
X66165000Y-52678212D01*
X66121383Y-52458933D01*
X66035824Y-52252376D01*
X65911612Y-52066480D01*
X65753520Y-51908388D01*
X65567624Y-51784176D01*
X65361067Y-51698617D01*
X65141788Y-51655000D01*
X64918212Y-51655000D01*
X64698933Y-51698617D01*
X64492376Y-51784176D01*
X64306480Y-51908388D01*
X64148388Y-52066480D01*
X64024176Y-52252376D01*
X63938617Y-52458933D01*
X63895000Y-52678212D01*
X63895000Y-52901788D01*
X63938617Y-53121067D01*
X64024176Y-53327624D01*
X64148388Y-53513520D01*
X64306480Y-53671612D01*
X64423762Y-53749977D01*
X64276480Y-53848388D01*
X64118388Y-54006480D01*
X63994176Y-54192376D01*
X63908617Y-54398933D01*
X63865000Y-54618212D01*
X59116920Y-54618212D01*
X59191612Y-54543520D01*
X59315824Y-54357624D01*
X59401383Y-54151067D01*
X59445000Y-53931788D01*
X59445000Y-53708212D01*
X59401383Y-53488933D01*
X59315824Y-53282376D01*
X59191612Y-53096480D01*
X59033520Y-52938388D01*
X58847624Y-52814176D01*
X58641067Y-52728617D01*
X58488210Y-52698212D01*
X60935000Y-52698212D01*
X60935000Y-52921788D01*
X60978617Y-53141067D01*
X61064176Y-53347624D01*
X61188388Y-53533520D01*
X61346480Y-53691612D01*
X61532376Y-53815824D01*
X61738933Y-53901383D01*
X61958212Y-53945000D01*
X62181788Y-53945000D01*
X62401067Y-53901383D01*
X62607624Y-53815824D01*
X62793520Y-53691612D01*
X62951612Y-53533520D01*
X63075824Y-53347624D01*
X63161383Y-53141067D01*
X63205000Y-52921788D01*
X63205000Y-52698212D01*
X63161383Y-52478933D01*
X63075824Y-52272376D01*
X62951612Y-52086480D01*
X62793520Y-51928388D01*
X62607624Y-51804176D01*
X62401067Y-51718617D01*
X62181788Y-51675000D01*
X61958212Y-51675000D01*
X61738933Y-51718617D01*
X61532376Y-51804176D01*
X61346480Y-51928388D01*
X61188388Y-52086480D01*
X61064176Y-52272376D01*
X60978617Y-52478933D01*
X60935000Y-52698212D01*
X58488210Y-52698212D01*
X58421788Y-52685000D01*
X58198212Y-52685000D01*
X57978933Y-52728617D01*
X57772376Y-52814176D01*
X57586480Y-52938388D01*
X57428388Y-53096480D01*
X57304176Y-53282376D01*
X57218617Y-53488933D01*
X57175000Y-53708212D01*
X48839464Y-53708212D01*
X49164548Y-53469088D01*
X49524849Y-52805118D01*
X49748694Y-52083615D01*
X49827480Y-51332305D01*
X49758178Y-50580062D01*
X49543452Y-49855792D01*
X49191555Y-49187330D01*
X49164548Y-49146912D01*
X48940708Y-48982260D01*
X53007628Y-48982260D01*
X53007628Y-50682260D01*
X53019888Y-50806742D01*
X53056198Y-50926440D01*
X53115163Y-51036754D01*
X53194515Y-51133445D01*
X53291206Y-51212797D01*
X53401520Y-51271762D01*
X53521218Y-51308072D01*
X53645700Y-51320332D01*
X55345700Y-51320332D01*
X55470182Y-51308072D01*
X55589880Y-51271762D01*
X55700194Y-51212797D01*
X55796885Y-51133445D01*
X55876237Y-51036754D01*
X55935202Y-50926440D01*
X55959666Y-50845794D01*
X56035431Y-50929848D01*
X56268780Y-51103901D01*
X56531601Y-51229085D01*
X56678810Y-51273736D01*
X56908700Y-51152415D01*
X56908700Y-49959260D01*
X57162700Y-49959260D01*
X57162700Y-51152415D01*
X57392590Y-51273736D01*
X57539799Y-51229085D01*
X57802620Y-51103901D01*
X58035969Y-50929848D01*
X58230878Y-50713615D01*
X58379857Y-50463512D01*
X58477181Y-50189151D01*
X58463849Y-50163751D01*
X63694279Y-50163751D01*
X63791603Y-50438112D01*
X63940582Y-50688215D01*
X64135491Y-50904448D01*
X64368840Y-51078501D01*
X64631661Y-51203685D01*
X64778870Y-51248336D01*
X65008760Y-51127015D01*
X65008760Y-49933860D01*
X63814946Y-49933860D01*
X63694279Y-50163751D01*
X58463849Y-50163751D01*
X58356514Y-49959260D01*
X57162700Y-49959260D01*
X56908700Y-49959260D01*
X56888700Y-49959260D01*
X56888700Y-49705260D01*
X56908700Y-49705260D01*
X56908700Y-48512105D01*
X57162700Y-48512105D01*
X57162700Y-49705260D01*
X58356514Y-49705260D01*
X58477181Y-49475369D01*
X58468171Y-49449969D01*
X63694279Y-49449969D01*
X63814946Y-49679860D01*
X65008760Y-49679860D01*
X65008760Y-48486705D01*
X65262760Y-48486705D01*
X65262760Y-49679860D01*
X65282760Y-49679860D01*
X65282760Y-49933860D01*
X65262760Y-49933860D01*
X65262760Y-51127015D01*
X65492650Y-51248336D01*
X65639859Y-51203685D01*
X65902680Y-51078501D01*
X66136029Y-50904448D01*
X66211794Y-50820394D01*
X66236258Y-50901040D01*
X66295223Y-51011354D01*
X66374575Y-51108045D01*
X66471266Y-51187397D01*
X66581580Y-51246362D01*
X66701278Y-51282672D01*
X66825760Y-51294932D01*
X68525760Y-51294932D01*
X68650242Y-51282672D01*
X68769940Y-51246362D01*
X68880254Y-51187397D01*
X68976945Y-51108045D01*
X69056297Y-51011354D01*
X69115262Y-50901040D01*
X69151572Y-50781342D01*
X69163832Y-50656860D01*
X69163832Y-49488212D01*
X69205000Y-49488212D01*
X69205000Y-49711788D01*
X69248617Y-49931067D01*
X69334176Y-50137624D01*
X69458388Y-50323520D01*
X69616480Y-50481612D01*
X69802376Y-50605824D01*
X70008933Y-50691383D01*
X70228212Y-50735000D01*
X70451788Y-50735000D01*
X70671067Y-50691383D01*
X70877624Y-50605824D01*
X71063520Y-50481612D01*
X71221612Y-50323520D01*
X71345824Y-50137624D01*
X71424281Y-49948212D01*
X96865000Y-49948212D01*
X96865000Y-50171788D01*
X96908617Y-50391067D01*
X96994176Y-50597624D01*
X97118388Y-50783520D01*
X97276480Y-50941612D01*
X97462376Y-51065824D01*
X97668933Y-51151383D01*
X97888212Y-51195000D01*
X98111788Y-51195000D01*
X98331067Y-51151383D01*
X98537624Y-51065824D01*
X98591694Y-51029695D01*
X103969520Y-51029695D01*
X104038822Y-51781938D01*
X104253548Y-52506208D01*
X104605445Y-53174670D01*
X104632452Y-53215088D01*
X105122119Y-53575276D01*
X107643395Y-51054000D01*
X105122119Y-48532724D01*
X104632452Y-48892912D01*
X104272151Y-49556882D01*
X104048306Y-50278385D01*
X103969520Y-51029695D01*
X98591694Y-51029695D01*
X98723520Y-50941612D01*
X98881612Y-50783520D01*
X99005824Y-50597624D01*
X99091383Y-50391067D01*
X99135000Y-50171788D01*
X99135000Y-49948212D01*
X99091383Y-49728933D01*
X99005824Y-49522376D01*
X98881612Y-49336480D01*
X98723520Y-49178388D01*
X98537624Y-49054176D01*
X98331067Y-48968617D01*
X98111788Y-48925000D01*
X97888212Y-48925000D01*
X97668933Y-48968617D01*
X97462376Y-49054176D01*
X97276480Y-49178388D01*
X97118388Y-49336480D01*
X96994176Y-49522376D01*
X96908617Y-49728933D01*
X96865000Y-49948212D01*
X71424281Y-49948212D01*
X71431383Y-49931067D01*
X71475000Y-49711788D01*
X71475000Y-49488212D01*
X71431383Y-49268933D01*
X71345824Y-49062376D01*
X71221612Y-48876480D01*
X71063520Y-48718388D01*
X70877624Y-48594176D01*
X70671067Y-48508617D01*
X70451788Y-48465000D01*
X70228212Y-48465000D01*
X70008933Y-48508617D01*
X69802376Y-48594176D01*
X69616480Y-48718388D01*
X69458388Y-48876480D01*
X69334176Y-49062376D01*
X69248617Y-49268933D01*
X69205000Y-49488212D01*
X69163832Y-49488212D01*
X69163832Y-48956860D01*
X69151572Y-48832378D01*
X69115262Y-48712680D01*
X69056297Y-48602366D01*
X68976945Y-48505675D01*
X68880254Y-48426323D01*
X68769940Y-48367358D01*
X68650242Y-48331048D01*
X68525760Y-48318788D01*
X66825760Y-48318788D01*
X66701278Y-48331048D01*
X66581580Y-48367358D01*
X66471266Y-48426323D01*
X66374575Y-48505675D01*
X66295223Y-48602366D01*
X66236258Y-48712680D01*
X66211794Y-48793326D01*
X66136029Y-48709272D01*
X65902680Y-48535219D01*
X65639859Y-48410035D01*
X65492650Y-48365384D01*
X65262760Y-48486705D01*
X65008760Y-48486705D01*
X64778870Y-48365384D01*
X64631661Y-48410035D01*
X64368840Y-48535219D01*
X64135491Y-48709272D01*
X63940582Y-48925505D01*
X63791603Y-49175608D01*
X63694279Y-49449969D01*
X58468171Y-49449969D01*
X58379857Y-49201008D01*
X58230878Y-48950905D01*
X58035969Y-48734672D01*
X57802620Y-48560619D01*
X57539799Y-48435435D01*
X57392590Y-48390784D01*
X57162700Y-48512105D01*
X56908700Y-48512105D01*
X56678810Y-48390784D01*
X56531601Y-48435435D01*
X56268780Y-48560619D01*
X56035431Y-48734672D01*
X55959666Y-48818726D01*
X55935202Y-48738080D01*
X55876237Y-48627766D01*
X55796885Y-48531075D01*
X55700194Y-48451723D01*
X55589880Y-48392758D01*
X55470182Y-48356448D01*
X55345700Y-48344188D01*
X53645700Y-48344188D01*
X53521218Y-48356448D01*
X53401520Y-48392758D01*
X53291206Y-48451723D01*
X53194515Y-48531075D01*
X53115163Y-48627766D01*
X53056198Y-48738080D01*
X53019888Y-48857778D01*
X53007628Y-48982260D01*
X48940708Y-48982260D01*
X48674881Y-48786724D01*
X46153605Y-51308000D01*
X45794395Y-51308000D01*
X45780253Y-51293858D01*
X45959858Y-51114253D01*
X45974000Y-51128395D01*
X48495276Y-48607119D01*
X48135088Y-48117452D01*
X47471118Y-47757151D01*
X47125746Y-47650000D01*
X101853828Y-47650000D01*
X106048037Y-47654455D01*
X106048037Y-47654455D01*
G37*
X106048037Y-47654455D02*
X105702330Y-47836445D01*
X105661912Y-47863452D01*
X105301724Y-48353119D01*
X107823000Y-50874395D01*
X107837143Y-50860253D01*
X108016748Y-51039858D01*
X108002605Y-51054000D01*
X110523881Y-53575276D01*
X111013548Y-53215088D01*
X111099000Y-53057616D01*
X111082636Y-91037516D01*
X110913555Y-90716330D01*
X110886548Y-90675912D01*
X110396881Y-90315724D01*
X107875605Y-92837000D01*
X107889748Y-92851143D01*
X107710143Y-93030748D01*
X107696000Y-93016605D01*
X105174724Y-95537881D01*
X105534912Y-96027548D01*
X105928266Y-96241000D01*
X91820724Y-96241000D01*
X47644076Y-96224904D01*
X47967670Y-96054555D01*
X48008088Y-96027548D01*
X48368276Y-95537881D01*
X45847000Y-93016605D01*
X45832858Y-93030748D01*
X45653253Y-92851143D01*
X45667395Y-92837000D01*
X43146119Y-90315724D01*
X42656452Y-90675912D01*
X42570548Y-90834217D01*
X42571411Y-87585220D01*
X42580000Y-87595686D01*
X42608998Y-87619484D01*
X43240000Y-88250487D01*
X43240000Y-88562678D01*
X43236324Y-88600000D01*
X43240000Y-88637322D01*
X43240000Y-88637333D01*
X43250997Y-88748986D01*
X43276284Y-88832345D01*
X43294454Y-88892246D01*
X43365026Y-89024276D01*
X43431090Y-89104774D01*
X43460000Y-89140001D01*
X43488998Y-89163799D01*
X43869352Y-89544154D01*
X43726330Y-89619445D01*
X43685912Y-89646452D01*
X43325724Y-90136119D01*
X45847000Y-92657395D01*
X45861143Y-92643253D01*
X46040748Y-92822858D01*
X46026605Y-92837000D01*
X48547881Y-95358276D01*
X49037548Y-94998088D01*
X49397849Y-94334118D01*
X49621694Y-93612615D01*
X49700480Y-92861305D01*
X49631178Y-92109062D01*
X49416452Y-91384792D01*
X49252896Y-91074102D01*
X49390256Y-91017205D01*
X49559774Y-90903937D01*
X49703937Y-90759774D01*
X49817205Y-90590256D01*
X49895226Y-90401898D01*
X49935000Y-90201939D01*
X49935000Y-89998061D01*
X49895226Y-89798102D01*
X49817205Y-89609744D01*
X49703937Y-89440226D01*
X49559774Y-89296063D01*
X49390256Y-89182795D01*
X49252390Y-89125689D01*
X49359774Y-89053937D01*
X49503937Y-88909774D01*
X49617205Y-88740256D01*
X49695226Y-88551898D01*
X49735000Y-88351939D01*
X49735000Y-88325157D01*
X50025157Y-88035000D01*
X50861447Y-88035000D01*
X50900000Y-88038797D01*
X50938553Y-88035000D01*
X50938561Y-88035000D01*
X51053887Y-88023641D01*
X51201860Y-87978754D01*
X51338233Y-87905862D01*
X51457764Y-87807764D01*
X51482347Y-87777810D01*
X51817810Y-87442347D01*
X51847764Y-87417764D01*
X51945862Y-87298233D01*
X52018754Y-87161860D01*
X52061718Y-87020226D01*
X52063641Y-87013888D01*
X52066953Y-86980256D01*
X52075000Y-86898561D01*
X52075000Y-86898554D01*
X52078797Y-86860001D01*
X52075000Y-86821448D01*
X52075000Y-84898556D01*
X52078797Y-84860000D01*
X52075000Y-84821440D01*
X52075000Y-84821439D01*
X52067001Y-84740226D01*
X52063642Y-84706113D01*
X52018754Y-84558140D01*
X52003047Y-84528754D01*
X51945862Y-84421767D01*
X51847764Y-84302236D01*
X51817807Y-84277650D01*
X51605157Y-84065000D01*
X52645500Y-84065000D01*
X52625000Y-84168061D01*
X52625000Y-84371939D01*
X52664774Y-84571898D01*
X52742795Y-84760256D01*
X52856063Y-84929774D01*
X53000226Y-85073937D01*
X53169744Y-85187205D01*
X53358102Y-85265226D01*
X53558061Y-85305000D01*
X53761939Y-85305000D01*
X53775457Y-85302311D01*
X53764774Y-85328102D01*
X53725000Y-85528061D01*
X53725000Y-85731939D01*
X53764774Y-85931898D01*
X53842795Y-86120256D01*
X53956063Y-86289774D01*
X54100226Y-86433937D01*
X54137025Y-86458525D01*
X54124774Y-86488102D01*
X54093565Y-86645000D01*
X53988061Y-86645000D01*
X53788102Y-86684774D01*
X53599744Y-86762795D01*
X53430226Y-86876063D01*
X53286063Y-87020226D01*
X53172795Y-87189744D01*
X53094774Y-87378102D01*
X53055000Y-87578061D01*
X53055000Y-87781939D01*
X53094774Y-87981898D01*
X53172795Y-88170256D01*
X53286063Y-88339774D01*
X53363347Y-88417058D01*
X53348028Y-88435724D01*
X53310357Y-88506201D01*
X53277456Y-88567754D01*
X53233999Y-88711015D01*
X53223002Y-88822668D01*
X53223002Y-88822678D01*
X53219326Y-88860000D01*
X53223002Y-88897323D01*
X53223003Y-91265843D01*
X53178102Y-91274774D01*
X52989744Y-91352795D01*
X52820226Y-91466063D01*
X52676063Y-91610226D01*
X52562795Y-91779744D01*
X52484774Y-91968102D01*
X52445000Y-92168061D01*
X52445000Y-92371939D01*
X52484774Y-92571898D01*
X52562795Y-92760256D01*
X52676063Y-92929774D01*
X52820226Y-93073937D01*
X52989744Y-93187205D01*
X53178102Y-93265226D01*
X53378061Y-93305000D01*
X53581939Y-93305000D01*
X53781898Y-93265226D01*
X53970256Y-93187205D01*
X54139774Y-93073937D01*
X54283937Y-92929774D01*
X54397205Y-92760256D01*
X54475226Y-92571898D01*
X54515000Y-92371939D01*
X54515000Y-92313567D01*
X54523003Y-92306999D01*
X54571372Y-92248061D01*
X56215000Y-92248061D01*
X56215000Y-92451939D01*
X56254774Y-92651898D01*
X56332795Y-92840256D01*
X56446063Y-93009774D01*
X56590226Y-93153937D01*
X56759744Y-93267205D01*
X56948102Y-93345226D01*
X57148061Y-93385000D01*
X57351939Y-93385000D01*
X57551898Y-93345226D01*
X57740256Y-93267205D01*
X57909774Y-93153937D01*
X58053937Y-93009774D01*
X58167205Y-92840256D01*
X58245226Y-92651898D01*
X58285000Y-92451939D01*
X58285000Y-92248061D01*
X58245226Y-92048102D01*
X58167205Y-91859744D01*
X58053937Y-91690226D01*
X57909774Y-91546063D01*
X57740256Y-91432795D01*
X57551898Y-91354774D01*
X57351939Y-91315000D01*
X57148061Y-91315000D01*
X56948102Y-91354774D01*
X56759744Y-91432795D01*
X56590226Y-91546063D01*
X56446063Y-91690226D01*
X56332795Y-91859744D01*
X56254774Y-92048102D01*
X56215000Y-92248061D01*
X54571372Y-92248061D01*
X54617976Y-92191274D01*
X54688548Y-92059245D01*
X54732005Y-91915984D01*
X54743002Y-91804331D01*
X54743002Y-91804322D01*
X54746678Y-91766999D01*
X54743002Y-91729676D01*
X54743002Y-89174801D01*
X55631003Y-88286801D01*
X55660001Y-88263003D01*
X55691168Y-88225026D01*
X55754974Y-88147279D01*
X55825546Y-88015249D01*
X55836616Y-87978754D01*
X55869003Y-87871988D01*
X55880000Y-87760335D01*
X55880000Y-87760325D01*
X55883676Y-87723002D01*
X55880000Y-87685680D01*
X55880000Y-87493711D01*
X55923937Y-87449774D01*
X56037205Y-87280256D01*
X56115226Y-87091898D01*
X56155000Y-86891939D01*
X56155000Y-86688061D01*
X56115226Y-86488102D01*
X56037205Y-86299744D01*
X55923937Y-86130226D01*
X55779774Y-85986063D01*
X55742975Y-85961475D01*
X55755226Y-85931898D01*
X55795000Y-85731939D01*
X55795000Y-85528061D01*
X55755226Y-85328102D01*
X55742783Y-85298061D01*
X62445000Y-85298061D01*
X62445000Y-85501939D01*
X62484774Y-85701898D01*
X62562795Y-85890256D01*
X62676063Y-86059774D01*
X62820226Y-86203937D01*
X62989744Y-86317205D01*
X63178102Y-86395226D01*
X63378061Y-86435000D01*
X63581939Y-86435000D01*
X63781898Y-86395226D01*
X63970256Y-86317205D01*
X64139774Y-86203937D01*
X64283937Y-86059774D01*
X64397205Y-85890256D01*
X64475226Y-85701898D01*
X64515000Y-85501939D01*
X64515000Y-85298061D01*
X64475226Y-85098102D01*
X64406242Y-84931561D01*
X64447205Y-84870256D01*
X64525226Y-84681898D01*
X64565000Y-84481939D01*
X64565000Y-84278061D01*
X64525226Y-84078102D01*
X64447205Y-83889744D01*
X64333937Y-83720226D01*
X64189774Y-83576063D01*
X64020256Y-83462795D01*
X63831898Y-83384774D01*
X63631939Y-83345000D01*
X63428061Y-83345000D01*
X63228102Y-83384774D01*
X63039744Y-83462795D01*
X62870226Y-83576063D01*
X62726063Y-83720226D01*
X62612795Y-83889744D01*
X62534774Y-84078102D01*
X62495000Y-84278061D01*
X62495000Y-84481939D01*
X62534774Y-84681898D01*
X62603758Y-84848439D01*
X62562795Y-84909744D01*
X62484774Y-85098102D01*
X62445000Y-85298061D01*
X55742783Y-85298061D01*
X55677205Y-85139744D01*
X55563937Y-84970226D01*
X55545000Y-84951289D01*
X55545000Y-84595159D01*
X56097817Y-84042343D01*
X56127764Y-84017766D01*
X56225862Y-83898235D01*
X56298754Y-83761862D01*
X56299241Y-83760256D01*
X56343642Y-83613889D01*
X56353247Y-83516359D01*
X56355000Y-83498563D01*
X56355000Y-83498558D01*
X56358797Y-83460002D01*
X56355000Y-83421447D01*
X56355000Y-82758558D01*
X56358797Y-82720002D01*
X56357728Y-82709150D01*
X56376711Y-82711020D01*
X56417124Y-82715000D01*
X56417129Y-82715000D01*
X56455685Y-82718797D01*
X56494241Y-82715000D01*
X65931447Y-82715000D01*
X65970000Y-82718797D01*
X66008553Y-82715000D01*
X66008561Y-82715000D01*
X66123887Y-82703641D01*
X66271860Y-82658754D01*
X66408233Y-82585862D01*
X66527764Y-82487764D01*
X66552347Y-82457810D01*
X67865000Y-81145157D01*
X70405001Y-83685159D01*
X70405001Y-85839329D01*
X70380256Y-85822795D01*
X70191898Y-85744774D01*
X69991939Y-85705000D01*
X69788061Y-85705000D01*
X69588102Y-85744774D01*
X69399744Y-85822795D01*
X69330068Y-85869351D01*
X69320256Y-85862795D01*
X69131898Y-85784774D01*
X68931939Y-85745000D01*
X68728061Y-85745000D01*
X68528102Y-85784774D01*
X68339744Y-85862795D01*
X68170226Y-85976063D01*
X68026063Y-86120226D01*
X67912795Y-86289744D01*
X67834774Y-86478102D01*
X67795000Y-86678061D01*
X67795000Y-86881939D01*
X67834774Y-87081898D01*
X67912795Y-87270256D01*
X68026063Y-87439774D01*
X68170226Y-87583937D01*
X68339744Y-87697205D01*
X68528102Y-87775226D01*
X68728061Y-87815000D01*
X68931939Y-87815000D01*
X69131898Y-87775226D01*
X69320256Y-87697205D01*
X69389932Y-87650649D01*
X69399744Y-87657205D01*
X69588102Y-87735226D01*
X69788061Y-87775000D01*
X69991939Y-87775000D01*
X70191898Y-87735226D01*
X70380256Y-87657205D01*
X70405001Y-87640671D01*
X70405000Y-92961289D01*
X70386063Y-92980226D01*
X70272795Y-93149744D01*
X70194774Y-93338102D01*
X70155000Y-93538061D01*
X70155000Y-93741939D01*
X70194774Y-93941898D01*
X70272795Y-94130256D01*
X70386063Y-94299774D01*
X70530226Y-94443937D01*
X70699744Y-94557205D01*
X70888102Y-94635226D01*
X71088061Y-94675000D01*
X71291939Y-94675000D01*
X71491898Y-94635226D01*
X71680256Y-94557205D01*
X71849774Y-94443937D01*
X71993937Y-94299774D01*
X72107205Y-94130256D01*
X72185226Y-93941898D01*
X72225000Y-93741939D01*
X72225000Y-93538061D01*
X72185226Y-93338102D01*
X72157945Y-93272240D01*
X72624048Y-93272240D01*
X72624048Y-94972240D01*
X72636308Y-95096722D01*
X72672618Y-95216420D01*
X72731583Y-95326734D01*
X72810935Y-95423425D01*
X72907626Y-95502777D01*
X73017940Y-95561742D01*
X73137638Y-95598052D01*
X73262120Y-95610312D01*
X74962120Y-95610312D01*
X75086602Y-95598052D01*
X75206300Y-95561742D01*
X75316614Y-95502777D01*
X75413305Y-95423425D01*
X75492657Y-95326734D01*
X75551622Y-95216420D01*
X75576086Y-95135774D01*
X75651851Y-95219828D01*
X75885200Y-95393881D01*
X76148021Y-95519065D01*
X76295230Y-95563716D01*
X76525120Y-95442395D01*
X76525120Y-94249240D01*
X76779120Y-94249240D01*
X76779120Y-95442395D01*
X77009010Y-95563716D01*
X77156219Y-95519065D01*
X77419040Y-95393881D01*
X77652389Y-95219828D01*
X77847298Y-95003595D01*
X77996277Y-94753492D01*
X78082788Y-94509611D01*
X88055419Y-94509611D01*
X88152743Y-94783972D01*
X88301722Y-95034075D01*
X88496631Y-95250308D01*
X88729980Y-95424361D01*
X88992801Y-95549545D01*
X89140010Y-95594196D01*
X89369900Y-95472875D01*
X89369900Y-94279720D01*
X88176086Y-94279720D01*
X88055419Y-94509611D01*
X78082788Y-94509611D01*
X78093601Y-94479131D01*
X77972934Y-94249240D01*
X76779120Y-94249240D01*
X76525120Y-94249240D01*
X76505120Y-94249240D01*
X76505120Y-93995240D01*
X76525120Y-93995240D01*
X76525120Y-92802085D01*
X76779120Y-92802085D01*
X76779120Y-93995240D01*
X77972934Y-93995240D01*
X78077602Y-93795829D01*
X88055419Y-93795829D01*
X88176086Y-94025720D01*
X89369900Y-94025720D01*
X89369900Y-92832565D01*
X89623900Y-92832565D01*
X89623900Y-94025720D01*
X89643900Y-94025720D01*
X89643900Y-94279720D01*
X89623900Y-94279720D01*
X89623900Y-95472875D01*
X89853790Y-95594196D01*
X90000999Y-95549545D01*
X90263820Y-95424361D01*
X90497169Y-95250308D01*
X90692078Y-95034075D01*
X90761699Y-94917197D01*
X90796194Y-94981734D01*
X90981766Y-95207854D01*
X91207886Y-95393426D01*
X91465866Y-95531319D01*
X91745789Y-95616233D01*
X91963950Y-95637720D01*
X92109850Y-95637720D01*
X92328011Y-95616233D01*
X92607934Y-95531319D01*
X92865914Y-95393426D01*
X93092034Y-95207854D01*
X93116507Y-95178033D01*
X93137398Y-95246900D01*
X93196363Y-95357214D01*
X93275715Y-95453905D01*
X93372406Y-95533257D01*
X93482720Y-95592222D01*
X93602418Y-95628532D01*
X93726900Y-95640792D01*
X95426900Y-95640792D01*
X95551382Y-95628532D01*
X95671080Y-95592222D01*
X95781394Y-95533257D01*
X95878085Y-95453905D01*
X95957437Y-95357214D01*
X96016402Y-95246900D01*
X96052712Y-95127202D01*
X96064972Y-95002720D01*
X96064972Y-93302720D01*
X96052712Y-93178238D01*
X96016402Y-93058540D01*
X95957437Y-92948226D01*
X95878085Y-92851535D01*
X95830759Y-92812695D01*
X103842520Y-92812695D01*
X103911822Y-93564938D01*
X104126548Y-94289208D01*
X104478445Y-94957670D01*
X104505452Y-94998088D01*
X104995119Y-95358276D01*
X107516395Y-92837000D01*
X104995119Y-90315724D01*
X104505452Y-90675912D01*
X104145151Y-91339882D01*
X103921306Y-92061385D01*
X103842520Y-92812695D01*
X95830759Y-92812695D01*
X95781394Y-92772183D01*
X95671080Y-92713218D01*
X95551382Y-92676908D01*
X95426900Y-92664648D01*
X93726900Y-92664648D01*
X93602418Y-92676908D01*
X93482720Y-92713218D01*
X93372406Y-92772183D01*
X93275715Y-92851535D01*
X93196363Y-92948226D01*
X93137398Y-93058540D01*
X93116507Y-93127407D01*
X93092034Y-93097586D01*
X92865914Y-92912014D01*
X92607934Y-92774121D01*
X92328011Y-92689207D01*
X92109850Y-92667720D01*
X91963950Y-92667720D01*
X91745789Y-92689207D01*
X91465866Y-92774121D01*
X91207886Y-92912014D01*
X90981766Y-93097586D01*
X90796194Y-93323706D01*
X90761699Y-93388243D01*
X90692078Y-93271365D01*
X90497169Y-93055132D01*
X90263820Y-92881079D01*
X90000999Y-92755895D01*
X89853790Y-92711244D01*
X89623900Y-92832565D01*
X89369900Y-92832565D01*
X89140010Y-92711244D01*
X88992801Y-92755895D01*
X88729980Y-92881079D01*
X88496631Y-93055132D01*
X88301722Y-93271365D01*
X88152743Y-93521468D01*
X88055419Y-93795829D01*
X78077602Y-93795829D01*
X78093601Y-93765349D01*
X77996277Y-93490988D01*
X77847298Y-93240885D01*
X77652389Y-93024652D01*
X77419040Y-92850599D01*
X77156219Y-92725415D01*
X77009010Y-92680764D01*
X76779120Y-92802085D01*
X76525120Y-92802085D01*
X76295230Y-92680764D01*
X76148021Y-92725415D01*
X75885200Y-92850599D01*
X75651851Y-93024652D01*
X75576086Y-93108706D01*
X75551622Y-93028060D01*
X75492657Y-92917746D01*
X75413305Y-92821055D01*
X75316614Y-92741703D01*
X75206300Y-92682738D01*
X75086602Y-92646428D01*
X74962120Y-92634168D01*
X73262120Y-92634168D01*
X73137638Y-92646428D01*
X73017940Y-92682738D01*
X72907626Y-92741703D01*
X72810935Y-92821055D01*
X72731583Y-92917746D01*
X72672618Y-93028060D01*
X72636308Y-93147758D01*
X72624048Y-93272240D01*
X72157945Y-93272240D01*
X72107205Y-93149744D01*
X71993937Y-92980226D01*
X71975000Y-92961289D01*
X71975000Y-90893230D01*
X72028102Y-90915226D01*
X72228061Y-90955000D01*
X72431939Y-90955000D01*
X72631898Y-90915226D01*
X72820256Y-90837205D01*
X72989774Y-90723937D01*
X73133937Y-90579774D01*
X73247205Y-90410256D01*
X73325226Y-90221898D01*
X73365000Y-90021939D01*
X73365000Y-89818061D01*
X73325226Y-89618102D01*
X73247205Y-89429744D01*
X73133937Y-89260226D01*
X72989774Y-89116063D01*
X72820256Y-89002795D01*
X72631898Y-88924774D01*
X72431939Y-88885000D01*
X72228061Y-88885000D01*
X72028102Y-88924774D01*
X71975000Y-88946770D01*
X71975000Y-86668061D01*
X74075000Y-86668061D01*
X74075000Y-86871939D01*
X74114774Y-87071898D01*
X74192795Y-87260256D01*
X74237692Y-87327449D01*
X74222795Y-87349744D01*
X74144774Y-87538102D01*
X74105000Y-87738061D01*
X74105000Y-87941939D01*
X74144774Y-88141898D01*
X74222795Y-88330256D01*
X74336063Y-88499774D01*
X74480226Y-88643937D01*
X74649744Y-88757205D01*
X74838102Y-88835226D01*
X75038061Y-88875000D01*
X75241939Y-88875000D01*
X75441898Y-88835226D01*
X75630256Y-88757205D01*
X75799774Y-88643937D01*
X75943937Y-88499774D01*
X76057205Y-88330256D01*
X76135226Y-88141898D01*
X76175000Y-87941939D01*
X76175000Y-87738061D01*
X76157099Y-87648061D01*
X79085000Y-87648061D01*
X79085000Y-87851939D01*
X79124774Y-88051898D01*
X79202795Y-88240256D01*
X79316063Y-88409774D01*
X79460226Y-88553937D01*
X79629744Y-88667205D01*
X79818102Y-88745226D01*
X80018061Y-88785000D01*
X80221939Y-88785000D01*
X80421898Y-88745226D01*
X80610256Y-88667205D01*
X80779774Y-88553937D01*
X80923937Y-88409774D01*
X81037205Y-88240256D01*
X81115226Y-88051898D01*
X81155000Y-87851939D01*
X81155000Y-87648061D01*
X81115226Y-87448102D01*
X81048816Y-87287776D01*
X81067205Y-87260256D01*
X81145226Y-87071898D01*
X81185000Y-86871939D01*
X81185000Y-86668061D01*
X81145226Y-86468102D01*
X81067205Y-86279744D01*
X80953937Y-86110226D01*
X80809774Y-85966063D01*
X80640256Y-85852795D01*
X80451898Y-85774774D01*
X80251939Y-85735000D01*
X80048061Y-85735000D01*
X79848102Y-85774774D01*
X79659744Y-85852795D01*
X79490226Y-85966063D01*
X79346063Y-86110226D01*
X79232795Y-86279744D01*
X79154774Y-86468102D01*
X79115000Y-86668061D01*
X79115000Y-86871939D01*
X79154774Y-87071898D01*
X79221184Y-87232224D01*
X79202795Y-87259744D01*
X79124774Y-87448102D01*
X79085000Y-87648061D01*
X76157099Y-87648061D01*
X76135226Y-87538102D01*
X76057205Y-87349744D01*
X76012308Y-87282551D01*
X76027205Y-87260256D01*
X76105226Y-87071898D01*
X76145000Y-86871939D01*
X76145000Y-86668061D01*
X76105226Y-86468102D01*
X76027205Y-86279744D01*
X75913937Y-86110226D01*
X75769774Y-85966063D01*
X75600256Y-85852795D01*
X75411898Y-85774774D01*
X75211939Y-85735000D01*
X75008061Y-85735000D01*
X74808102Y-85774774D01*
X74619744Y-85852795D01*
X74450226Y-85966063D01*
X74306063Y-86110226D01*
X74192795Y-86279744D01*
X74114774Y-86468102D01*
X74075000Y-86668061D01*
X71975000Y-86668061D01*
X71975000Y-83398552D01*
X71978797Y-83359999D01*
X71975000Y-83321446D01*
X71975000Y-83321439D01*
X71963641Y-83206113D01*
X71961199Y-83198061D01*
X71918754Y-83058140D01*
X71904967Y-83032346D01*
X71845862Y-82921767D01*
X71780207Y-82841767D01*
X71772345Y-82832187D01*
X71772342Y-82832184D01*
X71747764Y-82802236D01*
X71717816Y-82777658D01*
X68715000Y-79774843D01*
X68715000Y-74298711D01*
X68733937Y-74279774D01*
X68847205Y-74110256D01*
X68925226Y-73921898D01*
X68965000Y-73721939D01*
X68965000Y-73518061D01*
X68940522Y-73395000D01*
X69146531Y-73395000D01*
X69190000Y-73399281D01*
X69233469Y-73395000D01*
X69233477Y-73395000D01*
X69363490Y-73382195D01*
X69530313Y-73331589D01*
X69684059Y-73249411D01*
X69818817Y-73138817D01*
X69846534Y-73105044D01*
X71576579Y-71375000D01*
X76621550Y-71375000D01*
X76802376Y-71495824D01*
X77008933Y-71581383D01*
X77228212Y-71625000D01*
X77451788Y-71625000D01*
X77671067Y-71581383D01*
X77877624Y-71495824D01*
X78063520Y-71371612D01*
X78221612Y-71213520D01*
X78345824Y-71027624D01*
X78431383Y-70821067D01*
X78475000Y-70601788D01*
X78475000Y-70378212D01*
X78431383Y-70158933D01*
X78345824Y-69952376D01*
X78221612Y-69766480D01*
X78100000Y-69644868D01*
X78100000Y-67494801D01*
X81324534Y-64270267D01*
X81338617Y-64341067D01*
X81424176Y-64547624D01*
X81503791Y-64666776D01*
X81456480Y-64698388D01*
X81298388Y-64856480D01*
X81174176Y-65042376D01*
X81088617Y-65248933D01*
X81045000Y-65468212D01*
X81045000Y-65691788D01*
X81088617Y-65911067D01*
X81174176Y-66117624D01*
X81298388Y-66303520D01*
X81456480Y-66461612D01*
X81642376Y-66585824D01*
X81848933Y-66671383D01*
X82068212Y-66715000D01*
X82255774Y-66715000D01*
X82387752Y-66785545D01*
X82419648Y-66795220D01*
X82358388Y-66856480D01*
X82234176Y-67042376D01*
X82148617Y-67248933D01*
X82105000Y-67468212D01*
X82105000Y-67691788D01*
X82148617Y-67911067D01*
X82234176Y-68117624D01*
X82358388Y-68303520D01*
X82516480Y-68461612D01*
X82702376Y-68585824D01*
X82908933Y-68671383D01*
X83128212Y-68715000D01*
X83300199Y-68715000D01*
X83780199Y-69195000D01*
X83738061Y-69195000D01*
X83538102Y-69234774D01*
X83349744Y-69312795D01*
X83180226Y-69426063D01*
X83036063Y-69570226D01*
X82922795Y-69739744D01*
X82844774Y-69928102D01*
X82805000Y-70128061D01*
X82805000Y-70235000D01*
X82678061Y-70235000D01*
X82478102Y-70274774D01*
X82289744Y-70352795D01*
X82120226Y-70466063D01*
X81976063Y-70610226D01*
X81862795Y-70779744D01*
X81784774Y-70968102D01*
X81745000Y-71168061D01*
X81745000Y-71371939D01*
X81784774Y-71571898D01*
X81862795Y-71760256D01*
X81976063Y-71929774D01*
X82120226Y-72073937D01*
X82289744Y-72187205D01*
X82478102Y-72265226D01*
X82678061Y-72305000D01*
X82704843Y-72305000D01*
X86035002Y-75635160D01*
X86035001Y-84285000D01*
X85968061Y-84285000D01*
X85768102Y-84324774D01*
X85579744Y-84402795D01*
X85410226Y-84516063D01*
X85266063Y-84660226D01*
X85152795Y-84829744D01*
X85074774Y-85018102D01*
X85035000Y-85218061D01*
X85035000Y-85421939D01*
X85074774Y-85621898D01*
X85150159Y-85803892D01*
X85092795Y-85889744D01*
X85014774Y-86078102D01*
X84975000Y-86278061D01*
X84975000Y-86481939D01*
X85014774Y-86681898D01*
X85092795Y-86870256D01*
X85206063Y-87039774D01*
X85350226Y-87183937D01*
X85519744Y-87297205D01*
X85708102Y-87375226D01*
X85908061Y-87415000D01*
X86111939Y-87415000D01*
X86311898Y-87375226D01*
X86500256Y-87297205D01*
X86669774Y-87183937D01*
X86813937Y-87039774D01*
X86884304Y-86934462D01*
X90265000Y-90315158D01*
X90265000Y-90341939D01*
X90304774Y-90541898D01*
X90382795Y-90730256D01*
X90496063Y-90899774D01*
X90640226Y-91043937D01*
X90809744Y-91157205D01*
X90998102Y-91235226D01*
X91198061Y-91275000D01*
X91401939Y-91275000D01*
X91601898Y-91235226D01*
X91790256Y-91157205D01*
X91959774Y-91043937D01*
X92103937Y-90899774D01*
X92217205Y-90730256D01*
X92295226Y-90541898D01*
X92301242Y-90511654D01*
X92318061Y-90515000D01*
X92521939Y-90515000D01*
X92721898Y-90475226D01*
X92910256Y-90397205D01*
X93079774Y-90283937D01*
X93223937Y-90139774D01*
X93226379Y-90136119D01*
X105174724Y-90136119D01*
X107696000Y-92657395D01*
X110217276Y-90136119D01*
X109857088Y-89646452D01*
X109193118Y-89286151D01*
X108471615Y-89062306D01*
X107720305Y-88983520D01*
X106968062Y-89052822D01*
X106243792Y-89267548D01*
X105575330Y-89619445D01*
X105534912Y-89646452D01*
X105174724Y-90136119D01*
X93226379Y-90136119D01*
X93337205Y-89970256D01*
X93415226Y-89781898D01*
X93455000Y-89581939D01*
X93455000Y-89378061D01*
X93415226Y-89178102D01*
X93337205Y-88989744D01*
X93223937Y-88820226D01*
X93079774Y-88676063D01*
X92910256Y-88562795D01*
X92721898Y-88484774D01*
X92521939Y-88445000D01*
X92495158Y-88445000D01*
X88414999Y-84364842D01*
X88414999Y-76563348D01*
X99853660Y-76563348D01*
X99853660Y-76796772D01*
X99899199Y-77025712D01*
X99988526Y-77241368D01*
X100118210Y-77435454D01*
X100283266Y-77600510D01*
X100477352Y-77730194D01*
X100693008Y-77819521D01*
X100921948Y-77865060D01*
X101155372Y-77865060D01*
X101384312Y-77819521D01*
X101599968Y-77730194D01*
X101794054Y-77600510D01*
X101959110Y-77435454D01*
X102088794Y-77241368D01*
X102178121Y-77025712D01*
X102223660Y-76796772D01*
X102223660Y-76563348D01*
X102178121Y-76334408D01*
X102088794Y-76118752D01*
X101959110Y-75924666D01*
X101794054Y-75759610D01*
X101599968Y-75629926D01*
X101384312Y-75540599D01*
X101155372Y-75495060D01*
X100921948Y-75495060D01*
X100693008Y-75540599D01*
X100477352Y-75629926D01*
X100283266Y-75759610D01*
X100118210Y-75924666D01*
X99988526Y-76118752D01*
X99899199Y-76334408D01*
X99853660Y-76563348D01*
X88414999Y-76563348D01*
X88414999Y-74968556D01*
X88418796Y-74930001D01*
X88414999Y-74891445D01*
X88414999Y-74891440D01*
X88407169Y-74811939D01*
X88403641Y-74776114D01*
X88358753Y-74628141D01*
X88320254Y-74556114D01*
X88285861Y-74491768D01*
X88217229Y-74408141D01*
X88212344Y-74402188D01*
X88212341Y-74402185D01*
X88187763Y-74372237D01*
X88157815Y-74347659D01*
X84666364Y-70856209D01*
X84757205Y-70720256D01*
X84835226Y-70531898D01*
X84875000Y-70331939D01*
X84875000Y-70289801D01*
X88825744Y-74240545D01*
X88806063Y-74260226D01*
X88692795Y-74429744D01*
X88614774Y-74618102D01*
X88575000Y-74818061D01*
X88575000Y-75021939D01*
X88614774Y-75221898D01*
X88692795Y-75410256D01*
X88806063Y-75579774D01*
X88950226Y-75723937D01*
X89119744Y-75837205D01*
X89308102Y-75915226D01*
X89508061Y-75955000D01*
X89711939Y-75955000D01*
X89911898Y-75915226D01*
X90100256Y-75837205D01*
X90269774Y-75723937D01*
X90413937Y-75579774D01*
X90527205Y-75410256D01*
X90605226Y-75221898D01*
X90645000Y-75021939D01*
X90645000Y-74880000D01*
X97704868Y-74880000D01*
X97826480Y-75001612D01*
X98012376Y-75125824D01*
X98218933Y-75211383D01*
X98438212Y-75255000D01*
X98661788Y-75255000D01*
X98881067Y-75211383D01*
X99087624Y-75125824D01*
X99273520Y-75001612D01*
X99431612Y-74843520D01*
X99555824Y-74657624D01*
X99641383Y-74451067D01*
X99685000Y-74231788D01*
X99685000Y-74008212D01*
X99641383Y-73788933D01*
X99555824Y-73582376D01*
X99431612Y-73396480D01*
X99273520Y-73238388D01*
X99087624Y-73114176D01*
X98881067Y-73028617D01*
X98661788Y-72985000D01*
X98555000Y-72985000D01*
X98555000Y-72948212D01*
X98511383Y-72728933D01*
X98503541Y-72710000D01*
X99374868Y-72710000D01*
X99456480Y-72791612D01*
X99642376Y-72915824D01*
X99848933Y-73001383D01*
X100068212Y-73045000D01*
X100291788Y-73045000D01*
X100511067Y-73001383D01*
X100717624Y-72915824D01*
X100903520Y-72791612D01*
X101061612Y-72633520D01*
X101185824Y-72447624D01*
X101271383Y-72241067D01*
X101315000Y-72021788D01*
X101315000Y-71798212D01*
X101271383Y-71578933D01*
X101185824Y-71372376D01*
X101061612Y-71186480D01*
X100903520Y-71028388D01*
X100717624Y-70904176D01*
X100511067Y-70818617D01*
X100291788Y-70775000D01*
X100068212Y-70775000D01*
X99848933Y-70818617D01*
X99815000Y-70832673D01*
X99815000Y-70678212D01*
X99771383Y-70458933D01*
X99685824Y-70252376D01*
X99561612Y-70066480D01*
X99403520Y-69908388D01*
X99217624Y-69784176D01*
X99011067Y-69698617D01*
X98791788Y-69655000D01*
X98568212Y-69655000D01*
X98348933Y-69698617D01*
X98142376Y-69784176D01*
X97956480Y-69908388D01*
X97834868Y-70030000D01*
X90914802Y-70030000D01*
X89993495Y-69108693D01*
X90181067Y-69071383D01*
X90321175Y-69013348D01*
X99853660Y-69013348D01*
X99853660Y-69246772D01*
X99899199Y-69475712D01*
X99988526Y-69691368D01*
X100118210Y-69885454D01*
X100283266Y-70050510D01*
X100477352Y-70180194D01*
X100693008Y-70269521D01*
X100921948Y-70315060D01*
X101155372Y-70315060D01*
X101384312Y-70269521D01*
X101599968Y-70180194D01*
X101794054Y-70050510D01*
X101959110Y-69885454D01*
X102088794Y-69691368D01*
X102178121Y-69475712D01*
X102223660Y-69246772D01*
X102223660Y-69013348D01*
X102178121Y-68784408D01*
X102088794Y-68568752D01*
X101959110Y-68374666D01*
X101794054Y-68209610D01*
X101599968Y-68079926D01*
X101384312Y-67990599D01*
X101155372Y-67945060D01*
X100921948Y-67945060D01*
X100693008Y-67990599D01*
X100477352Y-68079926D01*
X100283266Y-68209610D01*
X100118210Y-68374666D01*
X99988526Y-68568752D01*
X99899199Y-68784408D01*
X99853660Y-69013348D01*
X90321175Y-69013348D01*
X90387624Y-68985824D01*
X90573520Y-68861612D01*
X90731612Y-68703520D01*
X90855824Y-68517624D01*
X90941383Y-68311067D01*
X90985000Y-68091788D01*
X90985000Y-67868212D01*
X90941383Y-67648933D01*
X90855824Y-67442376D01*
X90731612Y-67256480D01*
X90573520Y-67098388D01*
X90387624Y-66974176D01*
X90181067Y-66888617D01*
X89961788Y-66845000D01*
X89738212Y-66845000D01*
X89518933Y-66888617D01*
X89312376Y-66974176D01*
X89126480Y-67098388D01*
X88968388Y-67256480D01*
X88844176Y-67442376D01*
X88758617Y-67648933D01*
X88721307Y-67836505D01*
X86040611Y-65155809D01*
X90274485Y-65155809D01*
X90274485Y-65379385D01*
X90318102Y-65598664D01*
X90403661Y-65805221D01*
X90527873Y-65991117D01*
X90685965Y-66149209D01*
X90871861Y-66273421D01*
X91078418Y-66358980D01*
X91297697Y-66402597D01*
X91521273Y-66402597D01*
X91740552Y-66358980D01*
X91947109Y-66273421D01*
X92133005Y-66149209D01*
X92291097Y-65991117D01*
X92415309Y-65805221D01*
X92500868Y-65598664D01*
X92544485Y-65379385D01*
X92544485Y-65207398D01*
X93471004Y-64280880D01*
X93500001Y-64257083D01*
X93594974Y-64141358D01*
X93665546Y-64009329D01*
X93709003Y-63866068D01*
X93720000Y-63754415D01*
X93720000Y-63754406D01*
X93723676Y-63717083D01*
X93720000Y-63679760D01*
X93720000Y-63634801D01*
X95114802Y-62240000D01*
X102514868Y-62240000D01*
X102636480Y-62361612D01*
X102822376Y-62485824D01*
X103028933Y-62571383D01*
X103248212Y-62615000D01*
X103471788Y-62615000D01*
X103691067Y-62571383D01*
X103897624Y-62485824D01*
X104083520Y-62361612D01*
X104241612Y-62203520D01*
X104365824Y-62017624D01*
X104451383Y-61811067D01*
X104495000Y-61591788D01*
X104495000Y-61368212D01*
X104451383Y-61148933D01*
X104365824Y-60942376D01*
X104241612Y-60756480D01*
X104083520Y-60598388D01*
X103897624Y-60474176D01*
X103691067Y-60388617D01*
X103471788Y-60345000D01*
X103248212Y-60345000D01*
X103028933Y-60388617D01*
X102822376Y-60474176D01*
X102636480Y-60598388D01*
X102514868Y-60720000D01*
X94837323Y-60720000D01*
X94800000Y-60716324D01*
X94762677Y-60720000D01*
X94762667Y-60720000D01*
X94651014Y-60730997D01*
X94507753Y-60774454D01*
X94375723Y-60845026D01*
X94349582Y-60866480D01*
X94259999Y-60939999D01*
X94236201Y-60968997D01*
X92449001Y-62756198D01*
X92419999Y-62779999D01*
X92325026Y-62895724D01*
X92254454Y-63027753D01*
X92210997Y-63171014D01*
X92200000Y-63282667D01*
X92200000Y-63282678D01*
X92196324Y-63320000D01*
X92200000Y-63357322D01*
X92200000Y-63402280D01*
X91469684Y-64132597D01*
X91297697Y-64132597D01*
X91078418Y-64176214D01*
X90871861Y-64261773D01*
X90685965Y-64385985D01*
X90527873Y-64544077D01*
X90403661Y-64729973D01*
X90318102Y-64936530D01*
X90274485Y-65155809D01*
X86040611Y-65155809D01*
X84383804Y-63499003D01*
X84360001Y-63469999D01*
X84244276Y-63375026D01*
X84112247Y-63304454D01*
X83968986Y-63260997D01*
X83857333Y-63250000D01*
X83857322Y-63250000D01*
X83820000Y-63246324D01*
X83782678Y-63250000D01*
X83275132Y-63250000D01*
X83153520Y-63128388D01*
X82967624Y-63004176D01*
X82761067Y-62918617D01*
X82690267Y-62904534D01*
X84116589Y-61478212D01*
X88685000Y-61478212D01*
X88685000Y-61701788D01*
X88728617Y-61921067D01*
X88814176Y-62127624D01*
X88938388Y-62313520D01*
X89096480Y-62471612D01*
X89282376Y-62595824D01*
X89488933Y-62681383D01*
X89708212Y-62725000D01*
X89931788Y-62725000D01*
X90151067Y-62681383D01*
X90357624Y-62595824D01*
X90543520Y-62471612D01*
X90701612Y-62313520D01*
X90825824Y-62127624D01*
X90911383Y-61921067D01*
X90955000Y-61701788D01*
X90955000Y-61478212D01*
X90911383Y-61258933D01*
X90825824Y-61052376D01*
X90701612Y-60866480D01*
X90543520Y-60708388D01*
X90357624Y-60584176D01*
X90151067Y-60498617D01*
X89931788Y-60455000D01*
X89708212Y-60455000D01*
X89488933Y-60498617D01*
X89282376Y-60584176D01*
X89096480Y-60708388D01*
X88938388Y-60866480D01*
X88814176Y-61052376D01*
X88728617Y-61258933D01*
X88685000Y-61478212D01*
X84116589Y-61478212D01*
X86424802Y-59170000D01*
X88652678Y-59170000D01*
X88690000Y-59173676D01*
X88727322Y-59170000D01*
X88727333Y-59170000D01*
X88838986Y-59159003D01*
X88982247Y-59115546D01*
X89114276Y-59044974D01*
X89230001Y-58950001D01*
X89253804Y-58920997D01*
X90019802Y-58155000D01*
X90191788Y-58155000D01*
X90411067Y-58111383D01*
X90617624Y-58025824D01*
X90733778Y-57948212D01*
X100475000Y-57948212D01*
X100475000Y-58171788D01*
X100518617Y-58391067D01*
X100604176Y-58597624D01*
X100728388Y-58783520D01*
X100886480Y-58941612D01*
X101072376Y-59065824D01*
X101278933Y-59151383D01*
X101498212Y-59195000D01*
X101721788Y-59195000D01*
X101941067Y-59151383D01*
X102147624Y-59065824D01*
X102333520Y-58941612D01*
X102491612Y-58783520D01*
X102615824Y-58597624D01*
X102701383Y-58391067D01*
X102745000Y-58171788D01*
X102745000Y-57948212D01*
X102701383Y-57728933D01*
X102615824Y-57522376D01*
X102491612Y-57336480D01*
X102333520Y-57178388D01*
X102147624Y-57054176D01*
X101941067Y-56968617D01*
X101721788Y-56925000D01*
X101498212Y-56925000D01*
X101278933Y-56968617D01*
X101072376Y-57054176D01*
X100886480Y-57178388D01*
X100728388Y-57336480D01*
X100604176Y-57522376D01*
X100518617Y-57728933D01*
X100475000Y-57948212D01*
X90733778Y-57948212D01*
X90803520Y-57901612D01*
X90961612Y-57743520D01*
X91085824Y-57557624D01*
X91171383Y-57351067D01*
X91215000Y-57131788D01*
X91215000Y-56908212D01*
X91171383Y-56688933D01*
X91085824Y-56482376D01*
X90961612Y-56296480D01*
X90803520Y-56138388D01*
X90617624Y-56014176D01*
X90411067Y-55928617D01*
X90191788Y-55885000D01*
X89968212Y-55885000D01*
X89748933Y-55928617D01*
X89542376Y-56014176D01*
X89356480Y-56138388D01*
X89198388Y-56296480D01*
X89074176Y-56482376D01*
X88988617Y-56688933D01*
X88945000Y-56908212D01*
X88945000Y-57080198D01*
X88375199Y-57650000D01*
X86147323Y-57650000D01*
X86110000Y-57646324D01*
X86072677Y-57650000D01*
X86072667Y-57650000D01*
X85961014Y-57660997D01*
X85828919Y-57701067D01*
X85817753Y-57704454D01*
X85685723Y-57775026D01*
X85602083Y-57843668D01*
X85569999Y-57869999D01*
X85546201Y-57898997D01*
X76828998Y-66616201D01*
X76800000Y-66639999D01*
X76776202Y-66668997D01*
X76776201Y-66668998D01*
X76705026Y-66755724D01*
X76634454Y-66887754D01*
X76608239Y-66974176D01*
X76595492Y-67016201D01*
X76590998Y-67031015D01*
X76576324Y-67180000D01*
X76580001Y-67217332D01*
X76580000Y-69605000D01*
X71253465Y-69605000D01*
X71209999Y-69600719D01*
X71166533Y-69605000D01*
X71166523Y-69605000D01*
X71036510Y-69617805D01*
X70869687Y-69668411D01*
X70715941Y-69750589D01*
X70715939Y-69750590D01*
X70715940Y-69750590D01*
X70614953Y-69833468D01*
X70614951Y-69833470D01*
X70581183Y-69861183D01*
X70553470Y-69894951D01*
X68823422Y-71625000D01*
X62727000Y-71625000D01*
X62727000Y-71412577D01*
X62924534Y-70424907D01*
X62927000Y-70400133D01*
X62924586Y-70375354D01*
X62917383Y-70351522D01*
X62899170Y-70320664D01*
X62499170Y-69820664D01*
X62481787Y-69802841D01*
X62461261Y-69788752D01*
X62438380Y-69778938D01*
X62407458Y-69773219D01*
X61473585Y-69718285D01*
X61505226Y-69641898D01*
X61545000Y-69441939D01*
X61545000Y-69238061D01*
X61505226Y-69038102D01*
X61427205Y-68849744D01*
X61313937Y-68680226D01*
X61169774Y-68536063D01*
X61000256Y-68422795D01*
X60811898Y-68344774D01*
X60611939Y-68305000D01*
X60408061Y-68305000D01*
X60208102Y-68344774D01*
X60019744Y-68422795D01*
X59850226Y-68536063D01*
X59706063Y-68680226D01*
X59592795Y-68849744D01*
X59514774Y-69038102D01*
X59475000Y-69238061D01*
X59475000Y-69441939D01*
X59514774Y-69641898D01*
X59588574Y-69820066D01*
X59183215Y-69874114D01*
X59158979Y-69879807D01*
X59136318Y-69890120D01*
X59116105Y-69904655D01*
X59099117Y-69922854D01*
X59083946Y-69948420D01*
X58683946Y-70848420D01*
X58679517Y-70859839D01*
X58596152Y-71109934D01*
X58243204Y-71286408D01*
X58222134Y-71299671D01*
X58204057Y-71316789D01*
X58189667Y-71337106D01*
X58179517Y-71359839D01*
X58173312Y-71391110D01*
X58156899Y-71625000D01*
X57108454Y-71625000D01*
X57060256Y-71592795D01*
X56871898Y-71514774D01*
X56671939Y-71475000D01*
X56468061Y-71475000D01*
X56268102Y-71514774D01*
X56079744Y-71592795D01*
X55910226Y-71706063D01*
X55766063Y-71850226D01*
X55652795Y-72019744D01*
X55574774Y-72208102D01*
X55535000Y-72408061D01*
X55535000Y-72611939D01*
X55574774Y-72811898D01*
X55652795Y-73000256D01*
X55766063Y-73169774D01*
X55910226Y-73313937D01*
X56079744Y-73427205D01*
X56268102Y-73505226D01*
X56468061Y-73545000D01*
X56671939Y-73545000D01*
X56871898Y-73505226D01*
X57060256Y-73427205D01*
X57108454Y-73395000D01*
X58032688Y-73395000D01*
X57773312Y-77091110D01*
X57774011Y-77115996D01*
X57779553Y-77140268D01*
X57789723Y-77162992D01*
X57804131Y-77183296D01*
X57822224Y-77200398D01*
X57843305Y-77213643D01*
X57866565Y-77222520D01*
X57891110Y-77226688D01*
X57907922Y-77226753D01*
X59503970Y-77127000D01*
X61400000Y-77127000D01*
X61424776Y-77124560D01*
X61448601Y-77117333D01*
X61470557Y-77105597D01*
X61489803Y-77089803D01*
X61505597Y-77070557D01*
X61517333Y-77048601D01*
X61523208Y-77030802D01*
X61623208Y-76630802D01*
X61627000Y-76600000D01*
X61627000Y-76320610D01*
X61698437Y-76106299D01*
X62030802Y-76023208D01*
X62054247Y-76014832D01*
X62067059Y-76007160D01*
X62045000Y-76118061D01*
X62045000Y-76321939D01*
X62084774Y-76521898D01*
X62162795Y-76710256D01*
X62276063Y-76879774D01*
X62420226Y-77023937D01*
X62589744Y-77137205D01*
X62778102Y-77215226D01*
X62978061Y-77255000D01*
X63181939Y-77255000D01*
X63381898Y-77215226D01*
X63570256Y-77137205D01*
X63739774Y-77023937D01*
X63883937Y-76879774D01*
X63997205Y-76710256D01*
X64075226Y-76521898D01*
X64115000Y-76321939D01*
X64115000Y-76118061D01*
X64075226Y-75918102D01*
X63997205Y-75729744D01*
X63883937Y-75560226D01*
X63739774Y-75416063D01*
X63669947Y-75369406D01*
X66805767Y-75226869D01*
X66830407Y-75223306D01*
X66853878Y-75215005D01*
X66875280Y-75202284D01*
X66893788Y-75185632D01*
X66908692Y-75165690D01*
X66919419Y-75143223D01*
X66925556Y-75119095D01*
X66927000Y-75100000D01*
X66927000Y-74000000D01*
X66924560Y-73975224D01*
X66917333Y-73951399D01*
X66905597Y-73929443D01*
X66889803Y-73910197D01*
X66870557Y-73894403D01*
X66848601Y-73882667D01*
X66824776Y-73875440D01*
X66800000Y-73873000D01*
X64791537Y-73873000D01*
X64632203Y-73395000D01*
X66919478Y-73395000D01*
X66895000Y-73518061D01*
X66895000Y-73721939D01*
X66934774Y-73921898D01*
X67012795Y-74110256D01*
X67126063Y-74279774D01*
X67145001Y-74298712D01*
X67145000Y-79644843D01*
X65644843Y-81145000D01*
X56780842Y-81145000D01*
X56698032Y-81062191D01*
X56673449Y-81032236D01*
X56553918Y-80934138D01*
X56417545Y-80861246D01*
X56269572Y-80816359D01*
X56236847Y-80813136D01*
X56209774Y-80786063D01*
X56040256Y-80672795D01*
X55851898Y-80594774D01*
X55700852Y-80564729D01*
X55717205Y-80540256D01*
X55795226Y-80351898D01*
X55835000Y-80151939D01*
X55835000Y-79948061D01*
X55795226Y-79748102D01*
X55717205Y-79559744D01*
X55603937Y-79390226D01*
X55459774Y-79246063D01*
X55290256Y-79132795D01*
X55101898Y-79054774D01*
X54901939Y-79015000D01*
X54698061Y-79015000D01*
X54498102Y-79054774D01*
X54414710Y-79089316D01*
X54270256Y-78992795D01*
X54081898Y-78914774D01*
X53881939Y-78875000D01*
X53678061Y-78875000D01*
X53478102Y-78914774D01*
X53289744Y-78992795D01*
X53120226Y-79106063D01*
X52976063Y-79250226D01*
X52862795Y-79419744D01*
X52800445Y-79570269D01*
X52687754Y-79604453D01*
X52555725Y-79675025D01*
X52440000Y-79769998D01*
X52416202Y-79798996D01*
X50893213Y-81321986D01*
X50851768Y-81344139D01*
X50762189Y-81417655D01*
X50514843Y-81665001D01*
X49575000Y-81665001D01*
X49575000Y-81598061D01*
X49535226Y-81398102D01*
X49457205Y-81209744D01*
X49375000Y-81086715D01*
X49375000Y-76058061D01*
X52715000Y-76058061D01*
X52715000Y-76261939D01*
X52754774Y-76461898D01*
X52832795Y-76650256D01*
X52946063Y-76819774D01*
X53090226Y-76963937D01*
X53259744Y-77077205D01*
X53448102Y-77155226D01*
X53648061Y-77195000D01*
X53851939Y-77195000D01*
X54051898Y-77155226D01*
X54240256Y-77077205D01*
X54409774Y-76963937D01*
X54553937Y-76819774D01*
X54667205Y-76650256D01*
X54745226Y-76461898D01*
X54785000Y-76261939D01*
X54785000Y-76058061D01*
X54745226Y-75858102D01*
X54667205Y-75669744D01*
X54553937Y-75500226D01*
X54409774Y-75356063D01*
X54240256Y-75242795D01*
X54051898Y-75164774D01*
X53851939Y-75125000D01*
X53648061Y-75125000D01*
X53448102Y-75164774D01*
X53259744Y-75242795D01*
X53090226Y-75356063D01*
X52946063Y-75500226D01*
X52832795Y-75669744D01*
X52754774Y-75858102D01*
X52715000Y-76058061D01*
X49375000Y-76058061D01*
X49375000Y-75388711D01*
X49393937Y-75369774D01*
X49507205Y-75200256D01*
X49585226Y-75011898D01*
X49625000Y-74811939D01*
X49625000Y-74608061D01*
X49585226Y-74408102D01*
X49507205Y-74219744D01*
X49393937Y-74050226D01*
X49249774Y-73906063D01*
X49080256Y-73792795D01*
X48891898Y-73714774D01*
X48691939Y-73675000D01*
X48488061Y-73675000D01*
X48288102Y-73714774D01*
X48099744Y-73792795D01*
X47930226Y-73906063D01*
X47786063Y-74050226D01*
X47672795Y-74219744D01*
X47594774Y-74408102D01*
X47555000Y-74608061D01*
X47555000Y-74811939D01*
X47594774Y-75011898D01*
X47672795Y-75200256D01*
X47786063Y-75369774D01*
X47805000Y-75388711D01*
X47805001Y-80971288D01*
X47736063Y-81040226D01*
X47622795Y-81209744D01*
X47544774Y-81398102D01*
X47505000Y-81598061D01*
X47505000Y-81801939D01*
X47544774Y-82001898D01*
X47622795Y-82190256D01*
X47736063Y-82359774D01*
X47753065Y-82376776D01*
X47082190Y-83047651D01*
X47052236Y-83072234D01*
X46954138Y-83191766D01*
X46881246Y-83328139D01*
X46836359Y-83476112D01*
X46825000Y-83591438D01*
X46825000Y-83591445D01*
X46821203Y-83629998D01*
X46825000Y-83668551D01*
X46825000Y-84251447D01*
X46821203Y-84290000D01*
X46825000Y-84328553D01*
X46825000Y-84328561D01*
X46836359Y-84443887D01*
X46847902Y-84481939D01*
X46881246Y-84591859D01*
X46887702Y-84603937D01*
X46954139Y-84728233D01*
X46963982Y-84740226D01*
X47027655Y-84817812D01*
X47027659Y-84817816D01*
X47052237Y-84847764D01*
X47082185Y-84872342D01*
X47287654Y-85077811D01*
X47312237Y-85107765D01*
X47431768Y-85205863D01*
X47568141Y-85278755D01*
X47602582Y-85289202D01*
X47716114Y-85323643D01*
X47791027Y-85331021D01*
X47831440Y-85335001D01*
X47831445Y-85335001D01*
X47870001Y-85338798D01*
X47908556Y-85335001D01*
X50505000Y-85335001D01*
X50505001Y-86465000D01*
X49738556Y-86465000D01*
X49700000Y-86461203D01*
X49661444Y-86465000D01*
X49661439Y-86465000D01*
X49621026Y-86468980D01*
X49546113Y-86476358D01*
X49412543Y-86516877D01*
X49412543Y-86425052D01*
X49372769Y-86225093D01*
X49294748Y-86036735D01*
X49181480Y-85867217D01*
X49037317Y-85723054D01*
X48867799Y-85609786D01*
X48679441Y-85531765D01*
X48479482Y-85491991D01*
X48275604Y-85491991D01*
X48075645Y-85531765D01*
X47887287Y-85609786D01*
X47717769Y-85723054D01*
X47673832Y-85766991D01*
X43860702Y-85766991D01*
X43779774Y-85686063D01*
X43610256Y-85572795D01*
X43421898Y-85494774D01*
X43221939Y-85455000D01*
X43018061Y-85455000D01*
X42818102Y-85494774D01*
X42629744Y-85572795D01*
X42571934Y-85611422D01*
X42572386Y-83909373D01*
X42606063Y-83959774D01*
X42750226Y-84103937D01*
X42919744Y-84217205D01*
X43108102Y-84295226D01*
X43308061Y-84335000D01*
X43511939Y-84335000D01*
X43711898Y-84295226D01*
X43900256Y-84217205D01*
X44069774Y-84103937D01*
X44213937Y-83959774D01*
X44327205Y-83790256D01*
X44405226Y-83601898D01*
X44445000Y-83401939D01*
X44445000Y-83198061D01*
X44405226Y-82998102D01*
X44327205Y-82809744D01*
X44213937Y-82640226D01*
X44069774Y-82496063D01*
X43900256Y-82382795D01*
X43711898Y-82304774D01*
X43511939Y-82265000D01*
X43308061Y-82265000D01*
X43108102Y-82304774D01*
X42919744Y-82382795D01*
X42750226Y-82496063D01*
X42606063Y-82640226D01*
X42572710Y-82690143D01*
X42576529Y-68297609D01*
X50807360Y-68297609D01*
X50807360Y-68570431D01*
X50860585Y-68838009D01*
X50964989Y-69090063D01*
X51116561Y-69316906D01*
X51309474Y-69509819D01*
X51536317Y-69661391D01*
X51788371Y-69765795D01*
X52055949Y-69819020D01*
X52328771Y-69819020D01*
X52596349Y-69765795D01*
X52848403Y-69661391D01*
X53075246Y-69509819D01*
X53268159Y-69316906D01*
X53419731Y-69090063D01*
X53524135Y-68838009D01*
X53577360Y-68570431D01*
X53577360Y-68297609D01*
X55307360Y-68297609D01*
X55307360Y-68570431D01*
X55360585Y-68838009D01*
X55464989Y-69090063D01*
X55616561Y-69316906D01*
X55809474Y-69509819D01*
X56036317Y-69661391D01*
X56288371Y-69765795D01*
X56555949Y-69819020D01*
X56828771Y-69819020D01*
X57096349Y-69765795D01*
X57348403Y-69661391D01*
X57575246Y-69509819D01*
X57768159Y-69316906D01*
X57919731Y-69090063D01*
X58024135Y-68838009D01*
X58077360Y-68570431D01*
X58077360Y-68297609D01*
X58024135Y-68030031D01*
X57919731Y-67777977D01*
X57768159Y-67551134D01*
X57575246Y-67358221D01*
X57348403Y-67206649D01*
X57096349Y-67102245D01*
X56828771Y-67049020D01*
X56555949Y-67049020D01*
X56288371Y-67102245D01*
X56036317Y-67206649D01*
X55809474Y-67358221D01*
X55616561Y-67551134D01*
X55464989Y-67777977D01*
X55360585Y-68030031D01*
X55307360Y-68297609D01*
X53577360Y-68297609D01*
X53524135Y-68030031D01*
X53419731Y-67777977D01*
X53268159Y-67551134D01*
X53075246Y-67358221D01*
X52848403Y-67206649D01*
X52596349Y-67102245D01*
X52328771Y-67049020D01*
X52055949Y-67049020D01*
X51788371Y-67102245D01*
X51536317Y-67206649D01*
X51309474Y-67358221D01*
X51116561Y-67551134D01*
X50964989Y-67777977D01*
X50860585Y-68030031D01*
X50807360Y-68297609D01*
X42576529Y-68297609D01*
X42577964Y-62891013D01*
X51414972Y-62891013D01*
X51480497Y-63129880D01*
X51727476Y-63245780D01*
X51992320Y-63311270D01*
X52264852Y-63323832D01*
X52534598Y-63282985D01*
X52791192Y-63190297D01*
X52904223Y-63129880D01*
X52969748Y-62891013D01*
X55914972Y-62891013D01*
X55980497Y-63129880D01*
X56227476Y-63245780D01*
X56492320Y-63311270D01*
X56764852Y-63323832D01*
X57034598Y-63282985D01*
X57291192Y-63190297D01*
X57404223Y-63129880D01*
X57469748Y-62891013D01*
X56692360Y-62113625D01*
X55914972Y-62891013D01*
X52969748Y-62891013D01*
X52192360Y-62113625D01*
X51414972Y-62891013D01*
X42577964Y-62891013D01*
X42578199Y-62006512D01*
X50802548Y-62006512D01*
X50843395Y-62276258D01*
X50936083Y-62532852D01*
X50996500Y-62645883D01*
X51235367Y-62711408D01*
X52012755Y-61934020D01*
X52371965Y-61934020D01*
X53149353Y-62711408D01*
X53388220Y-62645883D01*
X53504120Y-62398904D01*
X53569610Y-62134060D01*
X53575489Y-62006512D01*
X55302548Y-62006512D01*
X55343395Y-62276258D01*
X55436083Y-62532852D01*
X55496500Y-62645883D01*
X55735367Y-62711408D01*
X56512755Y-61934020D01*
X56871965Y-61934020D01*
X57649353Y-62711408D01*
X57888220Y-62645883D01*
X58004120Y-62398904D01*
X58069610Y-62134060D01*
X58079566Y-61918061D01*
X63985000Y-61918061D01*
X63985000Y-62121939D01*
X64024774Y-62321898D01*
X64102795Y-62510256D01*
X64216063Y-62679774D01*
X64360226Y-62823937D01*
X64529744Y-62937205D01*
X64718102Y-63015226D01*
X64918061Y-63055000D01*
X65121939Y-63055000D01*
X65321898Y-63015226D01*
X65510256Y-62937205D01*
X65679774Y-62823937D01*
X65823937Y-62679774D01*
X65937205Y-62510256D01*
X66015226Y-62321898D01*
X66055000Y-62121939D01*
X66055000Y-61918061D01*
X66015226Y-61718102D01*
X65937205Y-61529744D01*
X65877217Y-61439966D01*
X65957205Y-61320256D01*
X66035226Y-61131898D01*
X66075000Y-60931939D01*
X66075000Y-60728061D01*
X66035226Y-60528102D01*
X65957205Y-60339744D01*
X65843937Y-60170226D01*
X65699774Y-60026063D01*
X65530256Y-59912795D01*
X65341898Y-59834774D01*
X65141939Y-59795000D01*
X64938061Y-59795000D01*
X64738102Y-59834774D01*
X64549744Y-59912795D01*
X64380226Y-60026063D01*
X64236063Y-60170226D01*
X64122795Y-60339744D01*
X64044774Y-60528102D01*
X64005000Y-60728061D01*
X64005000Y-60931939D01*
X64044774Y-61131898D01*
X64122795Y-61320256D01*
X64182783Y-61410034D01*
X64102795Y-61529744D01*
X64024774Y-61718102D01*
X63985000Y-61918061D01*
X58079566Y-61918061D01*
X58082172Y-61861528D01*
X58041325Y-61591782D01*
X57948637Y-61335188D01*
X57888220Y-61222157D01*
X57649353Y-61156632D01*
X56871965Y-61934020D01*
X56512755Y-61934020D01*
X55735367Y-61156632D01*
X55496500Y-61222157D01*
X55380600Y-61469136D01*
X55315110Y-61733980D01*
X55302548Y-62006512D01*
X53575489Y-62006512D01*
X53582172Y-61861528D01*
X53541325Y-61591782D01*
X53448637Y-61335188D01*
X53388220Y-61222157D01*
X53149353Y-61156632D01*
X52371965Y-61934020D01*
X52012755Y-61934020D01*
X51235367Y-61156632D01*
X50996500Y-61222157D01*
X50880600Y-61469136D01*
X50815110Y-61733980D01*
X50802548Y-62006512D01*
X42578199Y-62006512D01*
X42578472Y-60977027D01*
X51414972Y-60977027D01*
X52192360Y-61754415D01*
X52969748Y-60977027D01*
X55914972Y-60977027D01*
X56692360Y-61754415D01*
X57469748Y-60977027D01*
X57404223Y-60738160D01*
X57157244Y-60622260D01*
X56892400Y-60556770D01*
X56619868Y-60544208D01*
X56350122Y-60585055D01*
X56093528Y-60677743D01*
X55980497Y-60738160D01*
X55914972Y-60977027D01*
X52969748Y-60977027D01*
X52904223Y-60738160D01*
X52657244Y-60622260D01*
X52392400Y-60556770D01*
X52119868Y-60544208D01*
X51850122Y-60585055D01*
X51593528Y-60677743D01*
X51480497Y-60738160D01*
X51414972Y-60977027D01*
X42578472Y-60977027D01*
X42579329Y-57748212D01*
X57055000Y-57748212D01*
X57055000Y-57971788D01*
X57098617Y-58191067D01*
X57184176Y-58397624D01*
X57308388Y-58583520D01*
X57466480Y-58741612D01*
X57652376Y-58865824D01*
X57858933Y-58951383D01*
X58078212Y-58995000D01*
X58301788Y-58995000D01*
X58521067Y-58951383D01*
X58727624Y-58865824D01*
X58913520Y-58741612D01*
X58916920Y-58738212D01*
X60875000Y-58738212D01*
X60875000Y-58961788D01*
X60918617Y-59181067D01*
X61004176Y-59387624D01*
X61128388Y-59573520D01*
X61286480Y-59731612D01*
X61472376Y-59855824D01*
X61678933Y-59941383D01*
X61898212Y-59985000D01*
X62121788Y-59985000D01*
X62341067Y-59941383D01*
X62547624Y-59855824D01*
X62733520Y-59731612D01*
X62891612Y-59573520D01*
X63015824Y-59387624D01*
X63101383Y-59181067D01*
X63145000Y-58961788D01*
X63145000Y-58738212D01*
X63101383Y-58518933D01*
X63015824Y-58312376D01*
X62891612Y-58126480D01*
X62733520Y-57968388D01*
X62547624Y-57844176D01*
X62341067Y-57758617D01*
X62121788Y-57715000D01*
X61898212Y-57715000D01*
X61678933Y-57758617D01*
X61472376Y-57844176D01*
X61286480Y-57968388D01*
X61128388Y-58126480D01*
X61004176Y-58312376D01*
X60918617Y-58518933D01*
X60875000Y-58738212D01*
X58916920Y-58738212D01*
X59071612Y-58583520D01*
X59195824Y-58397624D01*
X59281383Y-58191067D01*
X59325000Y-57971788D01*
X59325000Y-57748212D01*
X59281383Y-57528933D01*
X59195824Y-57322376D01*
X59186360Y-57308212D01*
X66925000Y-57308212D01*
X66925000Y-57531788D01*
X66968617Y-57751067D01*
X67054176Y-57957624D01*
X67178388Y-58143520D01*
X67336480Y-58301612D01*
X67522376Y-58425824D01*
X67728933Y-58511383D01*
X67948212Y-58555000D01*
X68171788Y-58555000D01*
X68391067Y-58511383D01*
X68597624Y-58425824D01*
X68783520Y-58301612D01*
X68941612Y-58143520D01*
X69065824Y-57957624D01*
X69151383Y-57751067D01*
X69195000Y-57531788D01*
X69195000Y-57308212D01*
X69187014Y-57268061D01*
X72575000Y-57268061D01*
X72575000Y-57471939D01*
X72614774Y-57671898D01*
X72692795Y-57860256D01*
X72806063Y-58029774D01*
X72950226Y-58173937D01*
X73119744Y-58287205D01*
X73308102Y-58365226D01*
X73508061Y-58405000D01*
X73711939Y-58405000D01*
X73911898Y-58365226D01*
X74100256Y-58287205D01*
X74269774Y-58173937D01*
X74413937Y-58029774D01*
X74527205Y-57860256D01*
X74605226Y-57671898D01*
X74645000Y-57471939D01*
X74645000Y-57268061D01*
X74643041Y-57258212D01*
X77465000Y-57258212D01*
X77465000Y-57481788D01*
X77508617Y-57701067D01*
X77594176Y-57907624D01*
X77718388Y-58093520D01*
X77876480Y-58251612D01*
X78062376Y-58375824D01*
X78268933Y-58461383D01*
X78488212Y-58505000D01*
X78711788Y-58505000D01*
X78931067Y-58461383D01*
X79137624Y-58375824D01*
X79323520Y-58251612D01*
X79481612Y-58093520D01*
X79605824Y-57907624D01*
X79691383Y-57701067D01*
X79735000Y-57481788D01*
X79735000Y-57258212D01*
X79691383Y-57038933D01*
X79605824Y-56832376D01*
X79481612Y-56646480D01*
X79323520Y-56488388D01*
X79137624Y-56364176D01*
X78931067Y-56278617D01*
X78711788Y-56235000D01*
X78488212Y-56235000D01*
X78268933Y-56278617D01*
X78062376Y-56364176D01*
X77876480Y-56488388D01*
X77718388Y-56646480D01*
X77594176Y-56832376D01*
X77508617Y-57038933D01*
X77465000Y-57258212D01*
X74643041Y-57258212D01*
X74605226Y-57068102D01*
X74527205Y-56879744D01*
X74413937Y-56710226D01*
X74269774Y-56566063D01*
X74100256Y-56452795D01*
X73911898Y-56374774D01*
X73711939Y-56335000D01*
X73508061Y-56335000D01*
X73308102Y-56374774D01*
X73119744Y-56452795D01*
X72950226Y-56566063D01*
X72806063Y-56710226D01*
X72692795Y-56879744D01*
X72614774Y-57068102D01*
X72575000Y-57268061D01*
X69187014Y-57268061D01*
X69151383Y-57088933D01*
X69065824Y-56882376D01*
X68941612Y-56696480D01*
X68783520Y-56538388D01*
X68597624Y-56414176D01*
X68391067Y-56328617D01*
X68171788Y-56285000D01*
X67948212Y-56285000D01*
X67728933Y-56328617D01*
X67522376Y-56414176D01*
X67336480Y-56538388D01*
X67178388Y-56696480D01*
X67054176Y-56882376D01*
X66968617Y-57088933D01*
X66925000Y-57308212D01*
X59186360Y-57308212D01*
X59071612Y-57136480D01*
X58913520Y-56978388D01*
X58727624Y-56854176D01*
X58521067Y-56768617D01*
X58301788Y-56725000D01*
X58078212Y-56725000D01*
X57858933Y-56768617D01*
X57652376Y-56854176D01*
X57466480Y-56978388D01*
X57308388Y-57136480D01*
X57184176Y-57322376D01*
X57098617Y-57528933D01*
X57055000Y-57748212D01*
X42579329Y-57748212D01*
X42580322Y-54008881D01*
X43452724Y-54008881D01*
X43812912Y-54498548D01*
X44476882Y-54858849D01*
X45198385Y-55082694D01*
X45949695Y-55161480D01*
X46701938Y-55092178D01*
X47426208Y-54877452D01*
X48094670Y-54525555D01*
X48135088Y-54498548D01*
X48495276Y-54008881D01*
X45974000Y-51487605D01*
X43452724Y-54008881D01*
X42580322Y-54008881D01*
X42580565Y-53094570D01*
X42756445Y-53428670D01*
X42783452Y-53469088D01*
X43273119Y-53829276D01*
X45794395Y-51308000D01*
X46153605Y-51308000D01*
X48674881Y-53829276D01*
X48839464Y-53708212D01*
X57175000Y-53708212D01*
X57175000Y-53931788D01*
X57218617Y-54151067D01*
X57304176Y-54357624D01*
X57428388Y-54543520D01*
X57586480Y-54701612D01*
X57772376Y-54825824D01*
X57978933Y-54911383D01*
X58198212Y-54955000D01*
X58421788Y-54955000D01*
X58641067Y-54911383D01*
X58847624Y-54825824D01*
X59033520Y-54701612D01*
X59116920Y-54618212D01*
X63865000Y-54618212D01*
X63865000Y-54841788D01*
X63908617Y-55061067D01*
X63994176Y-55267624D01*
X64118388Y-55453520D01*
X64276480Y-55611612D01*
X64462376Y-55735824D01*
X64668933Y-55821383D01*
X64888212Y-55865000D01*
X65111788Y-55865000D01*
X65331067Y-55821383D01*
X65537624Y-55735824D01*
X65723520Y-55611612D01*
X65881612Y-55453520D01*
X66005824Y-55267624D01*
X66091383Y-55061067D01*
X66135000Y-54841788D01*
X66135000Y-54618212D01*
X66091383Y-54398933D01*
X66005824Y-54192376D01*
X65881612Y-54006480D01*
X65723520Y-53848388D01*
X65606238Y-53770023D01*
X65628899Y-53754881D01*
X105301724Y-53754881D01*
X105661912Y-54244548D01*
X106325882Y-54604849D01*
X107047385Y-54828694D01*
X107798695Y-54907480D01*
X108550938Y-54838178D01*
X109275208Y-54623452D01*
X109943670Y-54271555D01*
X109984088Y-54244548D01*
X110344276Y-53754881D01*
X107823000Y-51233605D01*
X105301724Y-53754881D01*
X65628899Y-53754881D01*
X65753520Y-53671612D01*
X65911612Y-53513520D01*
X66035824Y-53327624D01*
X66121383Y-53121067D01*
X66165000Y-52901788D01*
X66165000Y-52678212D01*
X66121383Y-52458933D01*
X66035824Y-52252376D01*
X65911612Y-52066480D01*
X65753520Y-51908388D01*
X65567624Y-51784176D01*
X65361067Y-51698617D01*
X65141788Y-51655000D01*
X64918212Y-51655000D01*
X64698933Y-51698617D01*
X64492376Y-51784176D01*
X64306480Y-51908388D01*
X64148388Y-52066480D01*
X64024176Y-52252376D01*
X63938617Y-52458933D01*
X63895000Y-52678212D01*
X63895000Y-52901788D01*
X63938617Y-53121067D01*
X64024176Y-53327624D01*
X64148388Y-53513520D01*
X64306480Y-53671612D01*
X64423762Y-53749977D01*
X64276480Y-53848388D01*
X64118388Y-54006480D01*
X63994176Y-54192376D01*
X63908617Y-54398933D01*
X63865000Y-54618212D01*
X59116920Y-54618212D01*
X59191612Y-54543520D01*
X59315824Y-54357624D01*
X59401383Y-54151067D01*
X59445000Y-53931788D01*
X59445000Y-53708212D01*
X59401383Y-53488933D01*
X59315824Y-53282376D01*
X59191612Y-53096480D01*
X59033520Y-52938388D01*
X58847624Y-52814176D01*
X58641067Y-52728617D01*
X58488210Y-52698212D01*
X60935000Y-52698212D01*
X60935000Y-52921788D01*
X60978617Y-53141067D01*
X61064176Y-53347624D01*
X61188388Y-53533520D01*
X61346480Y-53691612D01*
X61532376Y-53815824D01*
X61738933Y-53901383D01*
X61958212Y-53945000D01*
X62181788Y-53945000D01*
X62401067Y-53901383D01*
X62607624Y-53815824D01*
X62793520Y-53691612D01*
X62951612Y-53533520D01*
X63075824Y-53347624D01*
X63161383Y-53141067D01*
X63205000Y-52921788D01*
X63205000Y-52698212D01*
X63161383Y-52478933D01*
X63075824Y-52272376D01*
X62951612Y-52086480D01*
X62793520Y-51928388D01*
X62607624Y-51804176D01*
X62401067Y-51718617D01*
X62181788Y-51675000D01*
X61958212Y-51675000D01*
X61738933Y-51718617D01*
X61532376Y-51804176D01*
X61346480Y-51928388D01*
X61188388Y-52086480D01*
X61064176Y-52272376D01*
X60978617Y-52478933D01*
X60935000Y-52698212D01*
X58488210Y-52698212D01*
X58421788Y-52685000D01*
X58198212Y-52685000D01*
X57978933Y-52728617D01*
X57772376Y-52814176D01*
X57586480Y-52938388D01*
X57428388Y-53096480D01*
X57304176Y-53282376D01*
X57218617Y-53488933D01*
X57175000Y-53708212D01*
X48839464Y-53708212D01*
X49164548Y-53469088D01*
X49524849Y-52805118D01*
X49748694Y-52083615D01*
X49827480Y-51332305D01*
X49758178Y-50580062D01*
X49543452Y-49855792D01*
X49191555Y-49187330D01*
X49164548Y-49146912D01*
X48940708Y-48982260D01*
X53007628Y-48982260D01*
X53007628Y-50682260D01*
X53019888Y-50806742D01*
X53056198Y-50926440D01*
X53115163Y-51036754D01*
X53194515Y-51133445D01*
X53291206Y-51212797D01*
X53401520Y-51271762D01*
X53521218Y-51308072D01*
X53645700Y-51320332D01*
X55345700Y-51320332D01*
X55470182Y-51308072D01*
X55589880Y-51271762D01*
X55700194Y-51212797D01*
X55796885Y-51133445D01*
X55876237Y-51036754D01*
X55935202Y-50926440D01*
X55959666Y-50845794D01*
X56035431Y-50929848D01*
X56268780Y-51103901D01*
X56531601Y-51229085D01*
X56678810Y-51273736D01*
X56908700Y-51152415D01*
X56908700Y-49959260D01*
X57162700Y-49959260D01*
X57162700Y-51152415D01*
X57392590Y-51273736D01*
X57539799Y-51229085D01*
X57802620Y-51103901D01*
X58035969Y-50929848D01*
X58230878Y-50713615D01*
X58379857Y-50463512D01*
X58477181Y-50189151D01*
X58463849Y-50163751D01*
X63694279Y-50163751D01*
X63791603Y-50438112D01*
X63940582Y-50688215D01*
X64135491Y-50904448D01*
X64368840Y-51078501D01*
X64631661Y-51203685D01*
X64778870Y-51248336D01*
X65008760Y-51127015D01*
X65008760Y-49933860D01*
X63814946Y-49933860D01*
X63694279Y-50163751D01*
X58463849Y-50163751D01*
X58356514Y-49959260D01*
X57162700Y-49959260D01*
X56908700Y-49959260D01*
X56888700Y-49959260D01*
X56888700Y-49705260D01*
X56908700Y-49705260D01*
X56908700Y-48512105D01*
X57162700Y-48512105D01*
X57162700Y-49705260D01*
X58356514Y-49705260D01*
X58477181Y-49475369D01*
X58468171Y-49449969D01*
X63694279Y-49449969D01*
X63814946Y-49679860D01*
X65008760Y-49679860D01*
X65008760Y-48486705D01*
X65262760Y-48486705D01*
X65262760Y-49679860D01*
X65282760Y-49679860D01*
X65282760Y-49933860D01*
X65262760Y-49933860D01*
X65262760Y-51127015D01*
X65492650Y-51248336D01*
X65639859Y-51203685D01*
X65902680Y-51078501D01*
X66136029Y-50904448D01*
X66211794Y-50820394D01*
X66236258Y-50901040D01*
X66295223Y-51011354D01*
X66374575Y-51108045D01*
X66471266Y-51187397D01*
X66581580Y-51246362D01*
X66701278Y-51282672D01*
X66825760Y-51294932D01*
X68525760Y-51294932D01*
X68650242Y-51282672D01*
X68769940Y-51246362D01*
X68880254Y-51187397D01*
X68976945Y-51108045D01*
X69056297Y-51011354D01*
X69115262Y-50901040D01*
X69151572Y-50781342D01*
X69163832Y-50656860D01*
X69163832Y-49488212D01*
X69205000Y-49488212D01*
X69205000Y-49711788D01*
X69248617Y-49931067D01*
X69334176Y-50137624D01*
X69458388Y-50323520D01*
X69616480Y-50481612D01*
X69802376Y-50605824D01*
X70008933Y-50691383D01*
X70228212Y-50735000D01*
X70451788Y-50735000D01*
X70671067Y-50691383D01*
X70877624Y-50605824D01*
X71063520Y-50481612D01*
X71221612Y-50323520D01*
X71345824Y-50137624D01*
X71424281Y-49948212D01*
X96865000Y-49948212D01*
X96865000Y-50171788D01*
X96908617Y-50391067D01*
X96994176Y-50597624D01*
X97118388Y-50783520D01*
X97276480Y-50941612D01*
X97462376Y-51065824D01*
X97668933Y-51151383D01*
X97888212Y-51195000D01*
X98111788Y-51195000D01*
X98331067Y-51151383D01*
X98537624Y-51065824D01*
X98591694Y-51029695D01*
X103969520Y-51029695D01*
X104038822Y-51781938D01*
X104253548Y-52506208D01*
X104605445Y-53174670D01*
X104632452Y-53215088D01*
X105122119Y-53575276D01*
X107643395Y-51054000D01*
X105122119Y-48532724D01*
X104632452Y-48892912D01*
X104272151Y-49556882D01*
X104048306Y-50278385D01*
X103969520Y-51029695D01*
X98591694Y-51029695D01*
X98723520Y-50941612D01*
X98881612Y-50783520D01*
X99005824Y-50597624D01*
X99091383Y-50391067D01*
X99135000Y-50171788D01*
X99135000Y-49948212D01*
X99091383Y-49728933D01*
X99005824Y-49522376D01*
X98881612Y-49336480D01*
X98723520Y-49178388D01*
X98537624Y-49054176D01*
X98331067Y-48968617D01*
X98111788Y-48925000D01*
X97888212Y-48925000D01*
X97668933Y-48968617D01*
X97462376Y-49054176D01*
X97276480Y-49178388D01*
X97118388Y-49336480D01*
X96994176Y-49522376D01*
X96908617Y-49728933D01*
X96865000Y-49948212D01*
X71424281Y-49948212D01*
X71431383Y-49931067D01*
X71475000Y-49711788D01*
X71475000Y-49488212D01*
X71431383Y-49268933D01*
X71345824Y-49062376D01*
X71221612Y-48876480D01*
X71063520Y-48718388D01*
X70877624Y-48594176D01*
X70671067Y-48508617D01*
X70451788Y-48465000D01*
X70228212Y-48465000D01*
X70008933Y-48508617D01*
X69802376Y-48594176D01*
X69616480Y-48718388D01*
X69458388Y-48876480D01*
X69334176Y-49062376D01*
X69248617Y-49268933D01*
X69205000Y-49488212D01*
X69163832Y-49488212D01*
X69163832Y-48956860D01*
X69151572Y-48832378D01*
X69115262Y-48712680D01*
X69056297Y-48602366D01*
X68976945Y-48505675D01*
X68880254Y-48426323D01*
X68769940Y-48367358D01*
X68650242Y-48331048D01*
X68525760Y-48318788D01*
X66825760Y-48318788D01*
X66701278Y-48331048D01*
X66581580Y-48367358D01*
X66471266Y-48426323D01*
X66374575Y-48505675D01*
X66295223Y-48602366D01*
X66236258Y-48712680D01*
X66211794Y-48793326D01*
X66136029Y-48709272D01*
X65902680Y-48535219D01*
X65639859Y-48410035D01*
X65492650Y-48365384D01*
X65262760Y-48486705D01*
X65008760Y-48486705D01*
X64778870Y-48365384D01*
X64631661Y-48410035D01*
X64368840Y-48535219D01*
X64135491Y-48709272D01*
X63940582Y-48925505D01*
X63791603Y-49175608D01*
X63694279Y-49449969D01*
X58468171Y-49449969D01*
X58379857Y-49201008D01*
X58230878Y-48950905D01*
X58035969Y-48734672D01*
X57802620Y-48560619D01*
X57539799Y-48435435D01*
X57392590Y-48390784D01*
X57162700Y-48512105D01*
X56908700Y-48512105D01*
X56678810Y-48390784D01*
X56531601Y-48435435D01*
X56268780Y-48560619D01*
X56035431Y-48734672D01*
X55959666Y-48818726D01*
X55935202Y-48738080D01*
X55876237Y-48627766D01*
X55796885Y-48531075D01*
X55700194Y-48451723D01*
X55589880Y-48392758D01*
X55470182Y-48356448D01*
X55345700Y-48344188D01*
X53645700Y-48344188D01*
X53521218Y-48356448D01*
X53401520Y-48392758D01*
X53291206Y-48451723D01*
X53194515Y-48531075D01*
X53115163Y-48627766D01*
X53056198Y-48738080D01*
X53019888Y-48857778D01*
X53007628Y-48982260D01*
X48940708Y-48982260D01*
X48674881Y-48786724D01*
X46153605Y-51308000D01*
X45794395Y-51308000D01*
X45780253Y-51293858D01*
X45959858Y-51114253D01*
X45974000Y-51128395D01*
X48495276Y-48607119D01*
X48135088Y-48117452D01*
X47471118Y-47757151D01*
X47125746Y-47650000D01*
X101853828Y-47650000D01*
X106048037Y-47654455D01*
M02*
