G04 #@! TF.GenerationSoftware,KiCad,Pcbnew,(5.1.4)-1*
G04 #@! TF.CreationDate,2020-04-02T16:16:13+01:00*
G04 #@! TF.ProjectId,hydrophone_stm32_board,68796472-6f70-4686-9f6e-655f73746d33,rev?*
G04 #@! TF.SameCoordinates,Original*
G04 #@! TF.FileFunction,Soldermask,Bot*
G04 #@! TF.FilePolarity,Negative*
%FSLAX46Y46*%
G04 Gerber Fmt 4.6, Leading zero omitted, Abs format (unit mm)*
G04 Created by KiCad (PCBNEW (5.1.4)-1) date 2020-04-02 16:16:13*
%MOMM*%
%LPD*%
G04 APERTURE LIST*
%ADD10C,0.100000*%
G04 APERTURE END LIST*
D10*
G36*
X108330239Y-89648467D02*
G01*
X108644282Y-89710934D01*
X109235926Y-89956001D01*
X109768392Y-90311784D01*
X110221216Y-90764608D01*
X110576999Y-91297074D01*
X110822066Y-91888718D01*
X110822066Y-91888719D01*
X110947000Y-92516803D01*
X110947000Y-93157197D01*
X110915357Y-93316277D01*
X110822066Y-93785282D01*
X110576999Y-94376926D01*
X110329265Y-94747685D01*
X110223818Y-94905499D01*
X110221216Y-94909392D01*
X109768392Y-95362216D01*
X109235926Y-95717999D01*
X108644282Y-95963066D01*
X108330239Y-96025533D01*
X108016197Y-96088000D01*
X107375803Y-96088000D01*
X107061761Y-96025533D01*
X106747718Y-95963066D01*
X106156074Y-95717999D01*
X105623608Y-95362216D01*
X105170784Y-94909392D01*
X105168183Y-94905499D01*
X105062735Y-94747685D01*
X104815001Y-94376926D01*
X104569934Y-93785282D01*
X104476643Y-93316277D01*
X104445000Y-93157197D01*
X104445000Y-92516803D01*
X104569934Y-91888719D01*
X104569934Y-91888718D01*
X104815001Y-91297074D01*
X105170784Y-90764608D01*
X105623608Y-90311784D01*
X106156074Y-89956001D01*
X106747718Y-89710934D01*
X107061761Y-89648467D01*
X107375803Y-89586000D01*
X108016197Y-89586000D01*
X108330239Y-89648467D01*
X108330239Y-89648467D01*
G37*
G36*
X46481239Y-89648467D02*
G01*
X46795282Y-89710934D01*
X47386926Y-89956001D01*
X47919392Y-90311784D01*
X48372216Y-90764608D01*
X48727999Y-91297074D01*
X48973066Y-91888718D01*
X48973066Y-91888719D01*
X49098000Y-92516803D01*
X49098000Y-93157197D01*
X49066357Y-93316277D01*
X48973066Y-93785282D01*
X48727999Y-94376926D01*
X48480265Y-94747685D01*
X48374818Y-94905499D01*
X48372216Y-94909392D01*
X47919392Y-95362216D01*
X47386926Y-95717999D01*
X46795282Y-95963066D01*
X46481239Y-96025533D01*
X46167197Y-96088000D01*
X45526803Y-96088000D01*
X45212761Y-96025533D01*
X44898718Y-95963066D01*
X44307074Y-95717999D01*
X43774608Y-95362216D01*
X43321784Y-94909392D01*
X43319183Y-94905499D01*
X43213735Y-94747685D01*
X42966001Y-94376926D01*
X42720934Y-93785282D01*
X42627643Y-93316277D01*
X42596000Y-93157197D01*
X42596000Y-92516803D01*
X42720934Y-91888719D01*
X42720934Y-91888718D01*
X42966001Y-91297074D01*
X43321784Y-90764608D01*
X43774608Y-90311784D01*
X44307074Y-89956001D01*
X44898718Y-89710934D01*
X45212761Y-89648467D01*
X45526803Y-89586000D01*
X46167197Y-89586000D01*
X46481239Y-89648467D01*
X46481239Y-89648467D01*
G37*
G36*
X92147343Y-93258239D02*
G01*
X92213527Y-93264757D01*
X92383366Y-93316277D01*
X92539891Y-93399942D01*
X92575629Y-93429272D01*
X92677086Y-93512534D01*
X92760348Y-93613991D01*
X92789678Y-93649729D01*
X92873343Y-93806254D01*
X92924863Y-93976093D01*
X92942259Y-94152720D01*
X92924863Y-94329347D01*
X92873343Y-94499186D01*
X92789678Y-94655711D01*
X92760348Y-94691449D01*
X92677086Y-94792906D01*
X92577031Y-94875018D01*
X92539891Y-94905498D01*
X92383366Y-94989163D01*
X92213527Y-95040683D01*
X92147343Y-95047201D01*
X92081160Y-95053720D01*
X91992640Y-95053720D01*
X91926457Y-95047201D01*
X91860273Y-95040683D01*
X91690434Y-94989163D01*
X91533909Y-94905498D01*
X91496769Y-94875018D01*
X91396714Y-94792906D01*
X91313452Y-94691449D01*
X91284122Y-94655711D01*
X91200457Y-94499186D01*
X91148937Y-94329347D01*
X91131541Y-94152720D01*
X91148937Y-93976093D01*
X91200457Y-93806254D01*
X91284122Y-93649729D01*
X91313452Y-93613991D01*
X91396714Y-93512534D01*
X91498171Y-93429272D01*
X91533909Y-93399942D01*
X91690434Y-93316277D01*
X91860273Y-93264757D01*
X91926457Y-93258239D01*
X91992640Y-93251720D01*
X92081160Y-93251720D01*
X92147343Y-93258239D01*
X92147343Y-93258239D01*
G37*
G36*
X89607343Y-93258239D02*
G01*
X89673527Y-93264757D01*
X89843366Y-93316277D01*
X89999891Y-93399942D01*
X90035629Y-93429272D01*
X90137086Y-93512534D01*
X90220348Y-93613991D01*
X90249678Y-93649729D01*
X90333343Y-93806254D01*
X90384863Y-93976093D01*
X90402259Y-94152720D01*
X90384863Y-94329347D01*
X90333343Y-94499186D01*
X90249678Y-94655711D01*
X90220348Y-94691449D01*
X90137086Y-94792906D01*
X90037031Y-94875018D01*
X89999891Y-94905498D01*
X89843366Y-94989163D01*
X89673527Y-95040683D01*
X89607343Y-95047201D01*
X89541160Y-95053720D01*
X89452640Y-95053720D01*
X89386457Y-95047201D01*
X89320273Y-95040683D01*
X89150434Y-94989163D01*
X88993909Y-94905498D01*
X88956769Y-94875018D01*
X88856714Y-94792906D01*
X88773452Y-94691449D01*
X88744122Y-94655711D01*
X88660457Y-94499186D01*
X88608937Y-94329347D01*
X88591541Y-94152720D01*
X88608937Y-93976093D01*
X88660457Y-93806254D01*
X88744122Y-93649729D01*
X88773452Y-93613991D01*
X88856714Y-93512534D01*
X88958171Y-93429272D01*
X88993909Y-93399942D01*
X89150434Y-93316277D01*
X89320273Y-93264757D01*
X89386457Y-93258239D01*
X89452640Y-93251720D01*
X89541160Y-93251720D01*
X89607343Y-93258239D01*
X89607343Y-93258239D01*
G37*
G36*
X95477900Y-95053720D02*
G01*
X93675900Y-95053720D01*
X93675900Y-93251720D01*
X95477900Y-93251720D01*
X95477900Y-95053720D01*
X95477900Y-95053720D01*
G37*
G36*
X75013120Y-95023240D02*
G01*
X73211120Y-95023240D01*
X73211120Y-93221240D01*
X75013120Y-93221240D01*
X75013120Y-95023240D01*
X75013120Y-95023240D01*
G37*
G36*
X76762563Y-93227759D02*
G01*
X76828747Y-93234277D01*
X76998586Y-93285797D01*
X76998588Y-93285798D01*
X77055610Y-93316277D01*
X77155111Y-93369462D01*
X77190849Y-93398792D01*
X77292306Y-93482054D01*
X77375568Y-93583511D01*
X77404898Y-93619249D01*
X77488563Y-93775774D01*
X77540083Y-93945613D01*
X77557479Y-94122240D01*
X77540083Y-94298867D01*
X77488563Y-94468706D01*
X77404898Y-94625231D01*
X77375568Y-94660969D01*
X77292306Y-94762426D01*
X77201035Y-94837329D01*
X77155111Y-94875018D01*
X76998586Y-94958683D01*
X76828747Y-95010203D01*
X76762562Y-95016722D01*
X76696380Y-95023240D01*
X76607860Y-95023240D01*
X76541678Y-95016722D01*
X76475493Y-95010203D01*
X76305654Y-94958683D01*
X76149129Y-94875018D01*
X76103205Y-94837329D01*
X76011934Y-94762426D01*
X75928672Y-94660969D01*
X75899342Y-94625231D01*
X75815677Y-94468706D01*
X75764157Y-94298867D01*
X75746761Y-94122240D01*
X75764157Y-93945613D01*
X75815677Y-93775774D01*
X75899342Y-93619249D01*
X75928672Y-93583511D01*
X76011934Y-93482054D01*
X76113391Y-93398792D01*
X76149129Y-93369462D01*
X76248630Y-93316277D01*
X76305652Y-93285798D01*
X76305654Y-93285797D01*
X76475493Y-93234277D01*
X76541677Y-93227759D01*
X76607860Y-93221240D01*
X76696380Y-93221240D01*
X76762563Y-93227759D01*
X76762563Y-93227759D01*
G37*
G36*
X101175261Y-76094457D02*
G01*
X101213965Y-76102156D01*
X101246000Y-76115425D01*
X101323340Y-76147460D01*
X101421775Y-76213233D01*
X101505487Y-76296945D01*
X101571260Y-76395380D01*
X101616564Y-76504756D01*
X101639660Y-76620865D01*
X101639660Y-76739255D01*
X101616564Y-76855364D01*
X101571260Y-76964740D01*
X101505487Y-77063175D01*
X101421775Y-77146887D01*
X101323340Y-77212660D01*
X101246000Y-77244695D01*
X101213965Y-77257964D01*
X101175261Y-77265663D01*
X101097855Y-77281060D01*
X100979465Y-77281060D01*
X100902059Y-77265663D01*
X100863355Y-77257964D01*
X100831320Y-77244695D01*
X100753980Y-77212660D01*
X100655545Y-77146887D01*
X100571833Y-77063175D01*
X100506060Y-76964740D01*
X100460756Y-76855364D01*
X100437660Y-76739255D01*
X100437660Y-76620865D01*
X100460756Y-76504756D01*
X100506060Y-76395380D01*
X100571833Y-76296945D01*
X100655545Y-76213233D01*
X100753980Y-76147460D01*
X100831320Y-76115425D01*
X100863355Y-76102156D01*
X100902059Y-76094457D01*
X100979465Y-76079060D01*
X101097855Y-76079060D01*
X101175261Y-76094457D01*
X101175261Y-76094457D01*
G37*
G36*
X101175261Y-68544457D02*
G01*
X101213965Y-68552156D01*
X101246000Y-68565425D01*
X101323340Y-68597460D01*
X101421775Y-68663233D01*
X101505487Y-68746945D01*
X101571260Y-68845380D01*
X101616564Y-68954756D01*
X101639660Y-69070865D01*
X101639660Y-69189255D01*
X101616564Y-69305364D01*
X101571260Y-69414740D01*
X101505487Y-69513175D01*
X101421775Y-69596887D01*
X101323340Y-69662660D01*
X101246000Y-69694695D01*
X101213965Y-69707964D01*
X101175261Y-69715663D01*
X101097855Y-69731060D01*
X100979465Y-69731060D01*
X100902059Y-69715663D01*
X100863355Y-69707964D01*
X100831320Y-69694695D01*
X100753980Y-69662660D01*
X100655545Y-69596887D01*
X100571833Y-69513175D01*
X100506060Y-69414740D01*
X100460756Y-69305364D01*
X100437660Y-69189255D01*
X100437660Y-69070865D01*
X100460756Y-68954756D01*
X100506060Y-68845380D01*
X100571833Y-68746945D01*
X100655545Y-68663233D01*
X100753980Y-68597460D01*
X100831320Y-68565425D01*
X100863355Y-68552156D01*
X100902059Y-68544457D01*
X100979465Y-68529060D01*
X101097855Y-68529060D01*
X101175261Y-68544457D01*
X101175261Y-68544457D01*
G37*
G36*
X52426002Y-67663801D02*
G01*
X52571774Y-67724182D01*
X52571776Y-67724183D01*
X52702968Y-67811842D01*
X52814538Y-67923412D01*
X52902197Y-68054604D01*
X52902198Y-68054606D01*
X52962579Y-68200378D01*
X52993360Y-68355127D01*
X52993360Y-68512913D01*
X52962579Y-68667662D01*
X52902198Y-68813434D01*
X52902197Y-68813436D01*
X52814538Y-68944628D01*
X52702968Y-69056198D01*
X52571776Y-69143857D01*
X52571775Y-69143858D01*
X52571774Y-69143858D01*
X52426002Y-69204239D01*
X52271253Y-69235020D01*
X52113467Y-69235020D01*
X51958718Y-69204239D01*
X51812946Y-69143858D01*
X51812945Y-69143858D01*
X51812944Y-69143857D01*
X51681752Y-69056198D01*
X51570182Y-68944628D01*
X51482523Y-68813436D01*
X51482522Y-68813434D01*
X51422141Y-68667662D01*
X51391360Y-68512913D01*
X51391360Y-68355127D01*
X51422141Y-68200378D01*
X51482522Y-68054606D01*
X51482523Y-68054604D01*
X51570182Y-67923412D01*
X51681752Y-67811842D01*
X51812944Y-67724183D01*
X51812946Y-67724182D01*
X51958718Y-67663801D01*
X52113467Y-67633020D01*
X52271253Y-67633020D01*
X52426002Y-67663801D01*
X52426002Y-67663801D01*
G37*
G36*
X56926002Y-67663801D02*
G01*
X57071774Y-67724182D01*
X57071776Y-67724183D01*
X57202968Y-67811842D01*
X57314538Y-67923412D01*
X57402197Y-68054604D01*
X57402198Y-68054606D01*
X57462579Y-68200378D01*
X57493360Y-68355127D01*
X57493360Y-68512913D01*
X57462579Y-68667662D01*
X57402198Y-68813434D01*
X57402197Y-68813436D01*
X57314538Y-68944628D01*
X57202968Y-69056198D01*
X57071776Y-69143857D01*
X57071775Y-69143858D01*
X57071774Y-69143858D01*
X56926002Y-69204239D01*
X56771253Y-69235020D01*
X56613467Y-69235020D01*
X56458718Y-69204239D01*
X56312946Y-69143858D01*
X56312945Y-69143858D01*
X56312944Y-69143857D01*
X56181752Y-69056198D01*
X56070182Y-68944628D01*
X55982523Y-68813436D01*
X55982522Y-68813434D01*
X55922141Y-68667662D01*
X55891360Y-68512913D01*
X55891360Y-68355127D01*
X55922141Y-68200378D01*
X55982522Y-68054606D01*
X55982523Y-68054604D01*
X56070182Y-67923412D01*
X56181752Y-67811842D01*
X56312944Y-67724183D01*
X56312946Y-67724182D01*
X56458718Y-67663801D01*
X56613467Y-67633020D01*
X56771253Y-67633020D01*
X56926002Y-67663801D01*
X56926002Y-67663801D01*
G37*
G36*
X52426002Y-61163801D02*
G01*
X52571774Y-61224182D01*
X52571776Y-61224183D01*
X52702968Y-61311842D01*
X52814538Y-61423412D01*
X52902197Y-61554604D01*
X52902198Y-61554606D01*
X52962579Y-61700378D01*
X52993360Y-61855127D01*
X52993360Y-62012913D01*
X52962579Y-62167662D01*
X52902198Y-62313434D01*
X52902197Y-62313436D01*
X52814538Y-62444628D01*
X52702968Y-62556198D01*
X52571776Y-62643857D01*
X52571775Y-62643858D01*
X52571774Y-62643858D01*
X52426002Y-62704239D01*
X52271253Y-62735020D01*
X52113467Y-62735020D01*
X51958718Y-62704239D01*
X51812946Y-62643858D01*
X51812945Y-62643858D01*
X51812944Y-62643857D01*
X51681752Y-62556198D01*
X51570182Y-62444628D01*
X51482523Y-62313436D01*
X51482522Y-62313434D01*
X51422141Y-62167662D01*
X51391360Y-62012913D01*
X51391360Y-61855127D01*
X51422141Y-61700378D01*
X51482522Y-61554606D01*
X51482523Y-61554604D01*
X51570182Y-61423412D01*
X51681752Y-61311842D01*
X51812944Y-61224183D01*
X51812946Y-61224182D01*
X51958718Y-61163801D01*
X52113467Y-61133020D01*
X52271253Y-61133020D01*
X52426002Y-61163801D01*
X52426002Y-61163801D01*
G37*
G36*
X56926002Y-61163801D02*
G01*
X57071774Y-61224182D01*
X57071776Y-61224183D01*
X57202968Y-61311842D01*
X57314538Y-61423412D01*
X57402197Y-61554604D01*
X57402198Y-61554606D01*
X57462579Y-61700378D01*
X57493360Y-61855127D01*
X57493360Y-62012913D01*
X57462579Y-62167662D01*
X57402198Y-62313434D01*
X57402197Y-62313436D01*
X57314538Y-62444628D01*
X57202968Y-62556198D01*
X57071776Y-62643857D01*
X57071775Y-62643858D01*
X57071774Y-62643858D01*
X56926002Y-62704239D01*
X56771253Y-62735020D01*
X56613467Y-62735020D01*
X56458718Y-62704239D01*
X56312946Y-62643858D01*
X56312945Y-62643858D01*
X56312944Y-62643857D01*
X56181752Y-62556198D01*
X56070182Y-62444628D01*
X55982523Y-62313436D01*
X55982522Y-62313434D01*
X55922141Y-62167662D01*
X55891360Y-62012913D01*
X55891360Y-61855127D01*
X55922141Y-61700378D01*
X55982522Y-61554606D01*
X55982523Y-61554604D01*
X56070182Y-61423412D01*
X56181752Y-61311842D01*
X56312944Y-61224183D01*
X56312946Y-61224182D01*
X56458718Y-61163801D01*
X56613467Y-61133020D01*
X56771253Y-61133020D01*
X56926002Y-61163801D01*
X56926002Y-61163801D01*
G37*
G36*
X46608239Y-48119467D02*
G01*
X46922282Y-48181934D01*
X47513926Y-48427001D01*
X48046392Y-48782784D01*
X48499216Y-49235608D01*
X48854999Y-49768074D01*
X49100066Y-50359718D01*
X49139833Y-50559639D01*
X49225000Y-50987803D01*
X49225000Y-51628197D01*
X49162533Y-51942239D01*
X49100066Y-52256282D01*
X48854999Y-52847926D01*
X48499216Y-53380392D01*
X48046392Y-53833216D01*
X47513926Y-54188999D01*
X46922282Y-54434066D01*
X46608239Y-54496533D01*
X46294197Y-54559000D01*
X45653803Y-54559000D01*
X45339761Y-54496533D01*
X45025718Y-54434066D01*
X44434074Y-54188999D01*
X43901608Y-53833216D01*
X43448784Y-53380392D01*
X43093001Y-52847926D01*
X42847934Y-52256282D01*
X42785467Y-51942239D01*
X42723000Y-51628197D01*
X42723000Y-50987803D01*
X42808167Y-50559639D01*
X42847934Y-50359718D01*
X43093001Y-49768074D01*
X43448784Y-49235608D01*
X43901608Y-48782784D01*
X44434074Y-48427001D01*
X45025718Y-48181934D01*
X45339761Y-48119467D01*
X45653803Y-48057000D01*
X46294197Y-48057000D01*
X46608239Y-48119467D01*
X46608239Y-48119467D01*
G37*
G36*
X108457239Y-47865467D02*
G01*
X108771282Y-47927934D01*
X109362926Y-48173001D01*
X109895392Y-48528784D01*
X110348216Y-48981608D01*
X110703999Y-49514074D01*
X110949066Y-50105718D01*
X110994723Y-50335251D01*
X111074000Y-50733803D01*
X111074000Y-51374197D01*
X111044674Y-51521629D01*
X110949066Y-52002282D01*
X110703999Y-52593926D01*
X110348216Y-53126392D01*
X109895392Y-53579216D01*
X109362926Y-53934999D01*
X108771282Y-54180066D01*
X108457239Y-54242533D01*
X108143197Y-54305000D01*
X107502803Y-54305000D01*
X107188761Y-54242533D01*
X106874718Y-54180066D01*
X106283074Y-53934999D01*
X105750608Y-53579216D01*
X105297784Y-53126392D01*
X104942001Y-52593926D01*
X104696934Y-52002282D01*
X104601326Y-51521629D01*
X104572000Y-51374197D01*
X104572000Y-50733803D01*
X104651277Y-50335251D01*
X104696934Y-50105718D01*
X104942001Y-49514074D01*
X105297784Y-48981608D01*
X105750608Y-48528784D01*
X106283074Y-48173001D01*
X106874718Y-47927934D01*
X107188761Y-47865467D01*
X107502803Y-47803000D01*
X108143197Y-47803000D01*
X108457239Y-47865467D01*
X108457239Y-47865467D01*
G37*
G36*
X55396700Y-50733260D02*
G01*
X53594700Y-50733260D01*
X53594700Y-48931260D01*
X55396700Y-48931260D01*
X55396700Y-50733260D01*
X55396700Y-50733260D01*
G37*
G36*
X57146142Y-48937778D02*
G01*
X57212327Y-48944297D01*
X57382166Y-48995817D01*
X57538691Y-49079482D01*
X57574429Y-49108812D01*
X57675886Y-49192074D01*
X57759148Y-49293531D01*
X57788478Y-49329269D01*
X57872143Y-49485794D01*
X57923663Y-49655633D01*
X57941059Y-49832260D01*
X57923663Y-50008887D01*
X57872143Y-50178726D01*
X57788478Y-50335251D01*
X57768398Y-50359718D01*
X57675886Y-50472446D01*
X57574429Y-50555708D01*
X57538691Y-50585038D01*
X57382166Y-50668703D01*
X57212327Y-50720223D01*
X57146143Y-50726741D01*
X57079960Y-50733260D01*
X56991440Y-50733260D01*
X56925258Y-50726742D01*
X56859073Y-50720223D01*
X56689234Y-50668703D01*
X56532709Y-50585038D01*
X56496971Y-50555708D01*
X56395514Y-50472446D01*
X56303002Y-50359718D01*
X56282922Y-50335251D01*
X56199257Y-50178726D01*
X56147737Y-50008887D01*
X56130341Y-49832260D01*
X56147737Y-49655633D01*
X56199257Y-49485794D01*
X56282922Y-49329269D01*
X56312252Y-49293531D01*
X56395514Y-49192074D01*
X56496971Y-49108812D01*
X56532709Y-49079482D01*
X56689234Y-48995817D01*
X56859073Y-48944297D01*
X56925258Y-48937778D01*
X56991440Y-48931260D01*
X57079960Y-48931260D01*
X57146142Y-48937778D01*
X57146142Y-48937778D01*
G37*
G36*
X68576760Y-50707860D02*
G01*
X66774760Y-50707860D01*
X66774760Y-48905860D01*
X68576760Y-48905860D01*
X68576760Y-50707860D01*
X68576760Y-50707860D01*
G37*
G36*
X65246202Y-48912378D02*
G01*
X65312387Y-48918897D01*
X65482226Y-48970417D01*
X65638751Y-49054082D01*
X65669701Y-49079482D01*
X65775946Y-49166674D01*
X65859208Y-49268131D01*
X65888538Y-49303869D01*
X65972203Y-49460394D01*
X66023723Y-49630233D01*
X66041119Y-49806860D01*
X66023723Y-49983487D01*
X65972203Y-50153326D01*
X65888538Y-50309851D01*
X65859208Y-50345589D01*
X65775946Y-50447046D01*
X65674489Y-50530308D01*
X65638751Y-50559638D01*
X65482226Y-50643303D01*
X65312387Y-50694823D01*
X65246202Y-50701342D01*
X65180020Y-50707860D01*
X65091500Y-50707860D01*
X65025318Y-50701342D01*
X64959133Y-50694823D01*
X64789294Y-50643303D01*
X64632769Y-50559638D01*
X64597031Y-50530308D01*
X64495574Y-50447046D01*
X64412312Y-50345589D01*
X64382982Y-50309851D01*
X64299317Y-50153326D01*
X64247797Y-49983487D01*
X64230401Y-49806860D01*
X64247797Y-49630233D01*
X64299317Y-49460394D01*
X64382982Y-49303869D01*
X64412312Y-49268131D01*
X64495574Y-49166674D01*
X64601819Y-49079482D01*
X64632769Y-49054082D01*
X64789294Y-48970417D01*
X64959133Y-48918897D01*
X65025318Y-48912378D01*
X65091500Y-48905860D01*
X65180020Y-48905860D01*
X65246202Y-48912378D01*
X65246202Y-48912378D01*
G37*
M02*
