G04 #@! TF.GenerationSoftware,KiCad,Pcbnew,(5.1.4)-1*
G04 #@! TF.CreationDate,2020-04-02T16:16:13+01:00*
G04 #@! TF.ProjectId,hydrophone_stm32_board,68796472-6f70-4686-9f6e-655f73746d33,rev?*
G04 #@! TF.SameCoordinates,Original*
G04 #@! TF.FileFunction,Legend,Bot*
G04 #@! TF.FilePolarity,Positive*
%FSLAX46Y46*%
G04 Gerber Fmt 4.6, Leading zero omitted, Abs format (unit mm)*
G04 Created by KiCad (PCBNEW (5.1.4)-1) date 2020-04-02 16:16:13*
%MOMM*%
%LPD*%
G04 APERTURE LIST*
%ADD10C,0.150000*%
G04 APERTURE END LIST*
D10*
X94997619Y-92161904D02*
X94997619Y-91590476D01*
X93997619Y-91876190D02*
X94997619Y-91876190D01*
X94997619Y-91352380D02*
X93997619Y-90685714D01*
X94997619Y-90685714D02*
X93997619Y-91352380D01*
X91497619Y-91516666D02*
X91973809Y-91850000D01*
X91497619Y-92088095D02*
X92497619Y-92088095D01*
X92497619Y-91707142D01*
X92450000Y-91611904D01*
X92402380Y-91564285D01*
X92307142Y-91516666D01*
X92164285Y-91516666D01*
X92069047Y-91564285D01*
X92021428Y-91611904D01*
X91973809Y-91707142D01*
X91973809Y-92088095D01*
X92497619Y-91183333D02*
X91497619Y-90516666D01*
X92497619Y-90516666D02*
X91497619Y-91183333D01*
X90050000Y-91561904D02*
X90097619Y-91657142D01*
X90097619Y-91800000D01*
X90050000Y-91942857D01*
X89954761Y-92038095D01*
X89859523Y-92085714D01*
X89669047Y-92133333D01*
X89526190Y-92133333D01*
X89335714Y-92085714D01*
X89240476Y-92038095D01*
X89145238Y-91942857D01*
X89097619Y-91800000D01*
X89097619Y-91704761D01*
X89145238Y-91561904D01*
X89192857Y-91514285D01*
X89526190Y-91514285D01*
X89526190Y-91704761D01*
X89097619Y-91085714D02*
X90097619Y-91085714D01*
X89097619Y-90514285D01*
X90097619Y-90514285D01*
X89097619Y-90038095D02*
X90097619Y-90038095D01*
X90097619Y-89800000D01*
X90050000Y-89657142D01*
X89954761Y-89561904D01*
X89859523Y-89514285D01*
X89669047Y-89466666D01*
X89526190Y-89466666D01*
X89335714Y-89514285D01*
X89240476Y-89561904D01*
X89145238Y-89657142D01*
X89097619Y-89800000D01*
X89097619Y-90038095D01*
X74547619Y-92811904D02*
X73547619Y-92478571D01*
X74547619Y-92145238D01*
X74547619Y-91621428D02*
X74547619Y-91430952D01*
X74500000Y-91335714D01*
X74404761Y-91240476D01*
X74214285Y-91192857D01*
X73880952Y-91192857D01*
X73690476Y-91240476D01*
X73595238Y-91335714D01*
X73547619Y-91430952D01*
X73547619Y-91621428D01*
X73595238Y-91716666D01*
X73690476Y-91811904D01*
X73880952Y-91859523D01*
X74214285Y-91859523D01*
X74404761Y-91811904D01*
X74500000Y-91716666D01*
X74547619Y-91621428D01*
X74547619Y-90764285D02*
X73738095Y-90764285D01*
X73642857Y-90716666D01*
X73595238Y-90669047D01*
X73547619Y-90573809D01*
X73547619Y-90383333D01*
X73595238Y-90288095D01*
X73642857Y-90240476D01*
X73738095Y-90192857D01*
X74547619Y-90192857D01*
X74547619Y-89859523D02*
X74547619Y-89288095D01*
X73547619Y-89573809D02*
X74547619Y-89573809D01*
X77100000Y-91911904D02*
X77147619Y-92007142D01*
X77147619Y-92150000D01*
X77100000Y-92292857D01*
X77004761Y-92388095D01*
X76909523Y-92435714D01*
X76719047Y-92483333D01*
X76576190Y-92483333D01*
X76385714Y-92435714D01*
X76290476Y-92388095D01*
X76195238Y-92292857D01*
X76147619Y-92150000D01*
X76147619Y-92054761D01*
X76195238Y-91911904D01*
X76242857Y-91864285D01*
X76576190Y-91864285D01*
X76576190Y-92054761D01*
X76147619Y-91435714D02*
X77147619Y-91435714D01*
X76147619Y-90864285D01*
X77147619Y-90864285D01*
X76147619Y-90388095D02*
X77147619Y-90388095D01*
X77147619Y-90150000D01*
X77100000Y-90007142D01*
X77004761Y-89911904D01*
X76909523Y-89864285D01*
X76719047Y-89816666D01*
X76576190Y-89816666D01*
X76385714Y-89864285D01*
X76290476Y-89911904D01*
X76195238Y-90007142D01*
X76147619Y-90150000D01*
X76147619Y-90388095D01*
X54747619Y-53495238D02*
X53747619Y-53161904D01*
X54747619Y-52828571D01*
X53747619Y-52495238D02*
X54747619Y-52495238D01*
X53747619Y-52019047D02*
X54747619Y-52019047D01*
X53747619Y-51447619D01*
X54747619Y-51447619D01*
X57500000Y-53361904D02*
X57547619Y-53457142D01*
X57547619Y-53600000D01*
X57500000Y-53742857D01*
X57404761Y-53838095D01*
X57309523Y-53885714D01*
X57119047Y-53933333D01*
X56976190Y-53933333D01*
X56785714Y-53885714D01*
X56690476Y-53838095D01*
X56595238Y-53742857D01*
X56547619Y-53600000D01*
X56547619Y-53504761D01*
X56595238Y-53361904D01*
X56642857Y-53314285D01*
X56976190Y-53314285D01*
X56976190Y-53504761D01*
X56547619Y-52885714D02*
X57547619Y-52885714D01*
X56547619Y-52314285D01*
X57547619Y-52314285D01*
X56547619Y-51838095D02*
X57547619Y-51838095D01*
X57547619Y-51600000D01*
X57500000Y-51457142D01*
X57404761Y-51361904D01*
X57309523Y-51314285D01*
X57119047Y-51266666D01*
X56976190Y-51266666D01*
X56785714Y-51314285D01*
X56690476Y-51361904D01*
X56595238Y-51457142D01*
X56547619Y-51600000D01*
X56547619Y-51838095D01*
X64500000Y-51938095D02*
X64452380Y-51842857D01*
X64452380Y-51700000D01*
X64500000Y-51557142D01*
X64595238Y-51461904D01*
X64690476Y-51414285D01*
X64880952Y-51366666D01*
X65023809Y-51366666D01*
X65214285Y-51414285D01*
X65309523Y-51461904D01*
X65404761Y-51557142D01*
X65452380Y-51700000D01*
X65452380Y-51795238D01*
X65404761Y-51938095D01*
X65357142Y-51985714D01*
X65023809Y-51985714D01*
X65023809Y-51795238D01*
X65452380Y-52414285D02*
X64452380Y-52414285D01*
X65452380Y-52985714D01*
X64452380Y-52985714D01*
X65452380Y-53461904D02*
X64452380Y-53461904D01*
X64452380Y-53700000D01*
X64500000Y-53842857D01*
X64595238Y-53938095D01*
X64690476Y-53985714D01*
X64880952Y-54033333D01*
X65023809Y-54033333D01*
X65214285Y-53985714D01*
X65309523Y-53938095D01*
X65404761Y-53842857D01*
X65452380Y-53700000D01*
X65452380Y-53461904D01*
X68247619Y-53638095D02*
X68247619Y-53019047D01*
X67866666Y-53352380D01*
X67866666Y-53209523D01*
X67819047Y-53114285D01*
X67771428Y-53066666D01*
X67676190Y-53019047D01*
X67438095Y-53019047D01*
X67342857Y-53066666D01*
X67295238Y-53114285D01*
X67247619Y-53209523D01*
X67247619Y-53495238D01*
X67295238Y-53590476D01*
X67342857Y-53638095D01*
X68247619Y-52733333D02*
X67247619Y-52400000D01*
X68247619Y-52066666D01*
X68247619Y-51828571D02*
X68247619Y-51209523D01*
X67866666Y-51542857D01*
X67866666Y-51400000D01*
X67819047Y-51304761D01*
X67771428Y-51257142D01*
X67676190Y-51209523D01*
X67438095Y-51209523D01*
X67342857Y-51257142D01*
X67295238Y-51304761D01*
X67247619Y-51400000D01*
X67247619Y-51685714D01*
X67295238Y-51780952D01*
X67342857Y-51828571D01*
M02*
