%TF.GenerationSoftware,KiCad,Pcbnew,(5.99.0-3851-g809f4c2ffb)*%
%TF.CreationDate,2020-11-30T00:42:52+00:00*%
%TF.ProjectId,CM4,434d342e-6b69-4636-9164-5f7063625858,rev?*%
%TF.SameCoordinates,Original*%
%TF.FileFunction,Copper,L1,Top*%
%TF.FilePolarity,Positive*%
%FSLAX46Y46*%
G04 Gerber Fmt 4.6, Leading zero omitted, Abs format (unit mm)*
G04 Created by KiCad (PCBNEW (5.99.0-3851-g809f4c2ffb)) date 2020-11-30 00:42:52*
%MOMM*%
%LPD*%
G01*
G04 APERTURE LIST*
G04 Aperture macros list*
%AMRoundRect*
0 Rectangle with rounded corners*
0 $1 Rounding radius*
0 $2 $3 $4 $5 $6 $7 $8 $9 X,Y pos of 4 corners*
0 Add a 4 corners polygon primitive as box body*
4,1,4,$2,$3,$4,$5,$6,$7,$8,$9,$2,$3,0*
0 Add four circle primitives for the rounded corners*
1,1,$1+$1,$2,$3,0*
1,1,$1+$1,$4,$5,0*
1,1,$1+$1,$6,$7,0*
1,1,$1+$1,$8,$9,0*
0 Add four rect primitives between the rounded corners*
20,1,$1+$1,$2,$3,$4,$5,0*
20,1,$1+$1,$4,$5,$6,$7,0*
20,1,$1+$1,$6,$7,$8,$9,0*
20,1,$1+$1,$8,$9,$2,$3,0*%
G04 Aperture macros list end*
%TA.AperFunction,SMDPad,CuDef*%
%ADD10RoundRect,0.250000X-0.450000X-0.425000X0.450000X-0.425000X0.450000X0.425000X-0.450000X0.425000X0*%
%TD*%
%TA.AperFunction,SMDPad,CuDef*%
%ADD11RoundRect,0.140000X0.170000X-0.140000X0.170000X0.140000X-0.170000X0.140000X-0.170000X-0.140000X0*%
%TD*%
%TA.AperFunction,SMDPad,CuDef*%
%ADD12R,1.200000X0.700000*%
%TD*%
%TA.AperFunction,SMDPad,CuDef*%
%ADD13R,0.800000X1.000000*%
%TD*%
%TA.AperFunction,SMDPad,CuDef*%
%ADD14R,1.900000X1.300000*%
%TD*%
%TA.AperFunction,SMDPad,CuDef*%
%ADD15R,2.800000X1.000000*%
%TD*%
%TA.AperFunction,SMDPad,CuDef*%
%ADD16R,1.200000X1.000000*%
%TD*%
%TA.AperFunction,ComponentPad*%
%ADD17R,1.000000X1.000000*%
%TD*%
%TA.AperFunction,ComponentPad*%
%ADD18O,1.000000X1.000000*%
%TD*%
%TA.AperFunction,SMDPad,CuDef*%
%ADD19R,2.500000X1.800000*%
%TD*%
%TA.AperFunction,ComponentPad*%
%ADD20C,5.500000*%
%TD*%
%TA.AperFunction,ComponentPad*%
%ADD21R,1.700000X1.700000*%
%TD*%
%TA.AperFunction,ComponentPad*%
%ADD22O,1.700000X1.700000*%
%TD*%
%TA.AperFunction,SMDPad,CuDef*%
%ADD23RoundRect,0.250000X-0.475000X0.250000X-0.475000X-0.250000X0.475000X-0.250000X0.475000X0.250000X0*%
%TD*%
%TA.AperFunction,SMDPad,CuDef*%
%ADD24RoundRect,0.250000X-0.625000X0.375000X-0.625000X-0.375000X0.625000X-0.375000X0.625000X0.375000X0*%
%TD*%
%TA.AperFunction,SMDPad,CuDef*%
%ADD25RoundRect,0.135000X-0.135000X-0.185000X0.135000X-0.185000X0.135000X0.185000X-0.135000X0.185000X0*%
%TD*%
%TA.AperFunction,SMDPad,CuDef*%
%ADD26RoundRect,0.250000X0.425000X-0.450000X0.425000X0.450000X-0.425000X0.450000X-0.425000X-0.450000X0*%
%TD*%
%TA.AperFunction,SMDPad,CuDef*%
%ADD27RoundRect,0.140000X-0.140000X-0.170000X0.140000X-0.170000X0.140000X0.170000X-0.140000X0.170000X0*%
%TD*%
%TA.AperFunction,SMDPad,CuDef*%
%ADD28RoundRect,0.140000X0.140000X0.170000X-0.140000X0.170000X-0.140000X-0.170000X0.140000X-0.170000X0*%
%TD*%
%TA.AperFunction,SMDPad,CuDef*%
%ADD29RoundRect,0.135000X0.135000X0.185000X-0.135000X0.185000X-0.135000X-0.185000X0.135000X-0.185000X0*%
%TD*%
%TA.AperFunction,SMDPad,CuDef*%
%ADD30RoundRect,0.250000X1.100000X-0.325000X1.100000X0.325000X-1.100000X0.325000X-1.100000X-0.325000X0*%
%TD*%
%TA.AperFunction,SMDPad,CuDef*%
%ADD31R,3.300000X3.500000*%
%TD*%
%TA.AperFunction,SMDPad,CuDef*%
%ADD32C,10.200000*%
%TD*%
%TA.AperFunction,SMDPad,CuDef*%
%ADD33RoundRect,0.218750X-0.218750X-0.256250X0.218750X-0.256250X0.218750X0.256250X-0.218750X0.256250X0*%
%TD*%
%TA.AperFunction,SMDPad,CuDef*%
%ADD34RoundRect,0.250000X-0.262500X-0.450000X0.262500X-0.450000X0.262500X0.450000X-0.262500X0.450000X0*%
%TD*%
%TA.AperFunction,SMDPad,CuDef*%
%ADD35RoundRect,0.140000X-0.170000X0.140000X-0.170000X-0.140000X0.170000X-0.140000X0.170000X0.140000X0*%
%TD*%
%TA.AperFunction,SMDPad,CuDef*%
%ADD36RoundRect,0.250000X-0.425000X0.450000X-0.425000X-0.450000X0.425000X-0.450000X0.425000X0.450000X0*%
%TD*%
%TA.AperFunction,SMDPad,CuDef*%
%ADD37RoundRect,0.218750X0.218750X0.381250X-0.218750X0.381250X-0.218750X-0.381250X0.218750X-0.381250X0*%
%TD*%
%TA.AperFunction,SMDPad,CuDef*%
%ADD38RoundRect,0.250000X0.475000X-0.250000X0.475000X0.250000X-0.475000X0.250000X-0.475000X-0.250000X0*%
%TD*%
%TA.AperFunction,SMDPad,CuDef*%
%ADD39R,0.300000X1.450000*%
%TD*%
%TA.AperFunction,ComponentPad*%
%ADD40RoundRect,0.500000X0.000000X-0.300000X0.000000X-0.300000X0.000000X0.300000X0.000000X0.300000X0*%
%TD*%
%TA.AperFunction,ComponentPad*%
%ADD41C,1.500000*%
%TD*%
%TA.AperFunction,SMDPad,CuDef*%
%ADD42RoundRect,0.250000X0.250000X0.475000X-0.250000X0.475000X-0.250000X-0.475000X0.250000X-0.475000X0*%
%TD*%
%TA.AperFunction,SMDPad,CuDef*%
%ADD43R,0.800000X0.350000*%
%TD*%
%TA.AperFunction,SMDPad,CuDef*%
%ADD44R,0.350000X0.800000*%
%TD*%
%TA.AperFunction,SMDPad,CuDef*%
%ADD45R,2.800000X2.800000*%
%TD*%
%TA.AperFunction,SMDPad,CuDef*%
%ADD46RoundRect,0.375000X0.375000X0.725000X-0.375000X0.725000X-0.375000X-0.725000X0.375000X-0.725000X0*%
%TD*%
%TA.AperFunction,SMDPad,CuDef*%
%ADD47R,0.980000X3.400000*%
%TD*%
%TA.AperFunction,SMDPad,CuDef*%
%ADD48RoundRect,0.225000X0.250000X-0.225000X0.250000X0.225000X-0.250000X0.225000X-0.250000X-0.225000X0*%
%TD*%
%TA.AperFunction,SMDPad,CuDef*%
%ADD49R,1.200000X1.400000*%
%TD*%
%TA.AperFunction,SMDPad,CuDef*%
%ADD50RoundRect,0.218750X-0.256250X0.218750X-0.256250X-0.218750X0.256250X-0.218750X0.256250X0.218750X0*%
%TD*%
%TA.AperFunction,SMDPad,CuDef*%
%ADD51R,1.800000X1.000000*%
%TD*%
%TA.AperFunction,SMDPad,CuDef*%
%ADD52RoundRect,0.250000X0.450000X0.425000X-0.450000X0.425000X-0.450000X-0.425000X0.450000X-0.425000X0*%
%TD*%
%TA.AperFunction,SMDPad,CuDef*%
%ADD53RoundRect,0.200000X0.200000X0.275000X-0.200000X0.275000X-0.200000X-0.275000X0.200000X-0.275000X0*%
%TD*%
%TA.AperFunction,SMDPad,CuDef*%
%ADD54R,1.200000X0.600000*%
%TD*%
%TA.AperFunction,SMDPad,CuDef*%
%ADD55R,1.450000X0.300000*%
%TD*%
%TA.AperFunction,SMDPad,CuDef*%
%ADD56RoundRect,0.218750X-0.381250X0.218750X-0.381250X-0.218750X0.381250X-0.218750X0.381250X0.218750X0*%
%TD*%
%TA.AperFunction,SMDPad,CuDef*%
%ADD57RoundRect,0.135000X-0.185000X0.135000X-0.185000X-0.135000X0.185000X-0.135000X0.185000X0.135000X0*%
%TD*%
%TA.AperFunction,SMDPad,CuDef*%
%ADD58R,0.850000X0.250000*%
%TD*%
%TA.AperFunction,SMDPad,CuDef*%
%ADD59R,1.310000X2.120000*%
%TD*%
%TA.AperFunction,SMDPad,CuDef*%
%ADD60R,1.350000X4.200000*%
%TD*%
%TA.AperFunction,ViaPad*%
%ADD61C,0.800000*%
%TD*%
%TA.AperFunction,Conductor*%
%ADD62C,0.200000*%
%TD*%
%TA.AperFunction,Conductor*%
%ADD63C,0.250000*%
%TD*%
%TA.AperFunction,Conductor*%
%ADD64C,0.300000*%
%TD*%
%TA.AperFunction,Conductor*%
%ADD65C,0.500000*%
%TD*%
%TA.AperFunction,Conductor*%
%ADD66C,1.000000*%
%TD*%
%TA.AperFunction,Conductor*%
%ADD67C,0.400000*%
%TD*%
G04 APERTURE END LIST*
D10*
%TO.P,C47,2*%
%TO.N,GND*%
X123750000Y-119200000D03*
%TO.P,C47,1*%
%TO.N,/H7MCU/VCAP1*%
X121050000Y-119200000D03*
%TD*%
D11*
%TO.P,C39,2*%
%TO.N,/H7MCU/VDDSMPS*%
X99200000Y-101480000D03*
%TO.P,C39,1*%
%TO.N,GND*%
X99200000Y-100520000D03*
%TD*%
D12*
%TO.P,J4,1,DAT2*%
%TO.N,/H7MCU/SDMMC_D2*%
X134875000Y-100925000D03*
%TO.P,J4,2,DAT3/CD*%
%TO.N,/H7MCU/SDMMC_D3*%
X134875000Y-102025000D03*
%TO.P,J4,3,CMD*%
%TO.N,/H7MCU/SDMMC_CMD*%
X134875000Y-103125000D03*
%TO.P,J4,4,VDD*%
%TO.N,/+3.3V*%
X134875000Y-104225000D03*
%TO.P,J4,5,CLK*%
%TO.N,/H7MCU/SDMMC_CK*%
X134875000Y-105325000D03*
%TO.P,J4,6,VSS*%
%TO.N,GND*%
X134875000Y-106425000D03*
%TO.P,J4,7,DAT0*%
%TO.N,/H7MCU/SDMMC_D0*%
X134875000Y-107525000D03*
%TO.P,J4,8,DAT1*%
%TO.N,/H7MCU/SDMMC_D1*%
X134875000Y-108625000D03*
%TO.P,J4,9,SHIELD*%
%TO.N,GND*%
X134875000Y-109575000D03*
D13*
%TO.P,J4,10*%
%TO.N,N/C*%
X145375000Y-110525000D03*
D14*
%TO.P,J4,11*%
X149975000Y-97025000D03*
D15*
X149525000Y-110525000D03*
D16*
X139175000Y-110525000D03*
X134875000Y-99375000D03*
%TD*%
D17*
%TO.P,J3,1,Pin_1*%
%TO.N,/+3.3V*%
X127800000Y-83900000D03*
D18*
%TO.P,J3,2,Pin_2*%
%TO.N,/H7MCU/SWDIO*%
X127800000Y-85170000D03*
%TO.P,J3,3,Pin_3*%
%TO.N,GND*%
X126530000Y-83900000D03*
%TO.P,J3,4,Pin_4*%
%TO.N,/H7MCU/SWCLK*%
X126530000Y-85170000D03*
%TO.P,J3,5,Pin_5*%
%TO.N,GND*%
X125260000Y-83900000D03*
%TO.P,J3,6,Pin_6*%
%TO.N,/H7MCU/SWO*%
X125260000Y-85170000D03*
%TO.P,J3,7,Pin_7*%
%TO.N,Net-(J3-Pad7)*%
X123990000Y-83900000D03*
%TO.P,J3,8,Pin_8*%
%TO.N,Net-(J3-Pad8)*%
X123990000Y-85170000D03*
%TO.P,J3,9,Pin_9*%
%TO.N,GND*%
X122720000Y-83900000D03*
%TO.P,J3,10,Pin_10*%
%TO.N,/H7MCU/NRST*%
X122720000Y-85170000D03*
%TD*%
D19*
%TO.P,D1,1,K*%
%TO.N,/+3.3V*%
X82300000Y-126100000D03*
%TO.P,D1,2,A*%
%TO.N,Net-(BT1-Pad1)*%
X78300000Y-126100000D03*
%TD*%
D20*
%TO.P,H3,1*%
%TO.N,N/C*%
X146000000Y-85600000D03*
%TD*%
D21*
%TO.P,J6,1,Pin_1*%
%TO.N,/v_DIV_OUT*%
X79300000Y-93100000D03*
D22*
%TO.P,J6,2,Pin_2*%
%TO.N,GND*%
X79300000Y-90560000D03*
%TD*%
D20*
%TO.P,H2,1*%
%TO.N,N/C*%
X78400000Y-85500000D03*
%TD*%
D23*
%TO.P,C12,1*%
%TO.N,/5V*%
X98600000Y-134450000D03*
%TO.P,C12,2*%
%TO.N,GND*%
X98600000Y-132550000D03*
%TD*%
D24*
%TO.P,F1,1*%
%TO.N,VCC*%
X140500000Y-126800000D03*
%TO.P,F1,2*%
%TO.N,Net-(F1-Pad2)*%
X140500000Y-124000000D03*
%TD*%
D25*
%TO.P,R19,1*%
%TO.N,/+3.3V*%
X103190000Y-89300000D03*
%TO.P,R19,2*%
%TO.N,Net-(IC6-Pad174)*%
X104210000Y-89300000D03*
%TD*%
D26*
%TO.P,C25,1*%
%TO.N,/H7MCU/+3.3VA*%
X97400000Y-113750000D03*
%TO.P,C25,2*%
%TO.N,GND*%
X97400000Y-116450000D03*
%TD*%
D27*
%TO.P,C18,1*%
%TO.N,/+3.3V*%
X125720000Y-118400000D03*
%TO.P,C18,2*%
%TO.N,GND*%
X126680000Y-118400000D03*
%TD*%
D20*
%TO.P,H4,1*%
%TO.N,N/C*%
X146750000Y-132250000D03*
%TD*%
D28*
%TO.P,C44,1*%
%TO.N,GND*%
X129880000Y-107650000D03*
%TO.P,C44,2*%
%TO.N,/+3.3V*%
X128920000Y-107650000D03*
%TD*%
D29*
%TO.P,R24,1*%
%TO.N,/H7MCU/SDMMC_CMD*%
X132560000Y-104500000D03*
%TO.P,R24,2*%
%TO.N,/+3.3V*%
X131540000Y-104500000D03*
%TD*%
D30*
%TO.P,C11,1*%
%TO.N,/+3.3V*%
X109050000Y-132125000D03*
%TO.P,C11,2*%
%TO.N,GND*%
X109050000Y-135075000D03*
%TD*%
D31*
%TO.P,BT1,1,+*%
%TO.N,Net-(BT1-Pad1)*%
X82200000Y-120100000D03*
X82200000Y-104300000D03*
D32*
%TO.P,BT1,2,-*%
%TO.N,GND*%
X82200000Y-112200000D03*
%TD*%
D33*
%TO.P,D2,1,K*%
%TO.N,Net-(D2-Pad1)*%
X99912500Y-122700000D03*
%TO.P,D2,2,A*%
%TO.N,/H7MCU/LED_STAT*%
X101487500Y-122700000D03*
%TD*%
D27*
%TO.P,C34,1*%
%TO.N,/+3.3V*%
X110920000Y-88900000D03*
%TO.P,C34,2*%
%TO.N,GND*%
X111880000Y-88900000D03*
%TD*%
D28*
%TO.P,C37,1*%
%TO.N,/+3.3V*%
X123080000Y-89000000D03*
%TO.P,C37,2*%
%TO.N,GND*%
X122120000Y-89000000D03*
%TD*%
D34*
%TO.P,R17,1*%
%TO.N,/Power/PG*%
X105587500Y-128700000D03*
%TO.P,R17,2*%
%TO.N,/+3.3V*%
X107412500Y-128700000D03*
%TD*%
D35*
%TO.P,C17,1*%
%TO.N,/+3.3V*%
X128950000Y-105280000D03*
%TO.P,C17,2*%
%TO.N,GND*%
X128950000Y-104320000D03*
%TD*%
D36*
%TO.P,C13,1*%
%TO.N,/+3.3V*%
X129700000Y-115400000D03*
%TO.P,C13,2*%
%TO.N,GND*%
X129700000Y-112700000D03*
%TD*%
D28*
%TO.P,C16,1*%
%TO.N,/+3.3V*%
X102380000Y-118500000D03*
%TO.P,C16,2*%
%TO.N,GND*%
X101420000Y-118500000D03*
%TD*%
D37*
%TO.P,L4,1*%
%TO.N,/H7MCU/VCAP1*%
X94862500Y-101400000D03*
%TO.P,L4,2*%
%TO.N,/H7MCU/VLXSMPS*%
X92737500Y-101400000D03*
%TD*%
D38*
%TO.P,C9,1*%
%TO.N,/VNEG*%
X126100000Y-133250000D03*
%TO.P,C9,2*%
%TO.N,GND*%
X126100000Y-135150000D03*
%TD*%
D39*
%TO.P,J2,A1,GND*%
%TO.N,GND*%
X132100000Y-129600000D03*
%TO.P,J2,A4,VBUS*%
%TO.N,VCC*%
X132900000Y-129600000D03*
%TO.P,J2,A5,CC1*%
%TO.N,Net-(J2-PadA5)*%
X134250000Y-129600000D03*
%TO.P,J2,A6,D+*%
%TO.N,Net-(J2-PadA6)*%
X135250000Y-129600000D03*
%TO.P,J2,A7,D-*%
%TO.N,Net-(J2-PadA7)*%
X135750000Y-129600000D03*
%TO.P,J2,A8,SBU1*%
%TO.N,Net-(J2-PadA8)*%
X136750000Y-129600000D03*
%TO.P,J2,A9,VBUS*%
%TO.N,VCC*%
X138100000Y-129600000D03*
%TO.P,J2,A12,GND*%
%TO.N,GND*%
X138900000Y-129600000D03*
%TO.P,J2,B1,GND*%
X138600000Y-129600000D03*
%TO.P,J2,B4,VBUS*%
%TO.N,VCC*%
X137800000Y-129600000D03*
%TO.P,J2,B5,CC2*%
%TO.N,Net-(J2-PadB5)*%
X137250000Y-129600000D03*
%TO.P,J2,B6,D+*%
%TO.N,Net-(J2-PadB6)*%
X136250000Y-129600000D03*
%TO.P,J2,B7,D-*%
%TO.N,Net-(J2-PadB7)*%
X134750000Y-129600000D03*
%TO.P,J2,B8,SBU2*%
%TO.N,Net-(J2-PadB8)*%
X133750000Y-129600000D03*
%TO.P,J2,B9,VBUS*%
%TO.N,VCC*%
X133200000Y-129600000D03*
%TO.P,J2,B12,GND*%
%TO.N,GND*%
X132400000Y-129600000D03*
D40*
%TO.P,J2,S1,SHIELD*%
X131180000Y-130520000D03*
X139820000Y-130520000D03*
X139820000Y-134700000D03*
X131180000Y-134700000D03*
%TD*%
D41*
%TO.P,S1,1,1*%
%TO.N,/H7MCU/NRST*%
X148650000Y-122850000D03*
%TO.P,S1,2,2*%
X148650000Y-116350000D03*
%TO.P,S1,3,3*%
%TO.N,GND*%
X144150000Y-116350000D03*
%TO.P,S1,4,4*%
X144150000Y-122850000D03*
%TD*%
D33*
%TO.P,FB3,1*%
%TO.N,/+3.3V*%
X91112500Y-103300000D03*
%TO.P,FB3,2*%
%TO.N,/H7MCU/VDDSMPS*%
X92687500Y-103300000D03*
%TD*%
D28*
%TO.P,C15,1*%
%TO.N,/+3.3V*%
X116780000Y-118200000D03*
%TO.P,C15,2*%
%TO.N,GND*%
X115820000Y-118200000D03*
%TD*%
D29*
%TO.P,R20,1*%
%TO.N,/H7MCU/HSE_OUT*%
X97810000Y-108800000D03*
%TO.P,R20,2*%
%TO.N,Net-(C48-Pad2)*%
X96790000Y-108800000D03*
%TD*%
D28*
%TO.P,C52,1*%
%TO.N,GND*%
X97980000Y-100400000D03*
%TO.P,C52,2*%
%TO.N,/H7MCU/OSC_OUT*%
X97020000Y-100400000D03*
%TD*%
D35*
%TO.P,C38,1*%
%TO.N,/+3.3V*%
X125900000Y-88480000D03*
%TO.P,C38,2*%
%TO.N,GND*%
X125900000Y-87520000D03*
%TD*%
D42*
%TO.P,C8,1*%
%TO.N,/5V*%
X123050000Y-128350000D03*
%TO.P,C8,2*%
%TO.N,GND*%
X121150000Y-128350000D03*
%TD*%
D43*
%TO.P,IC5,1,PGND_1*%
%TO.N,GND*%
X101200000Y-132225000D03*
%TO.P,IC5,2,VIN_1*%
%TO.N,/5V*%
X101200000Y-132875000D03*
%TO.P,IC5,3,VIN_2*%
X101200000Y-133525000D03*
%TO.P,IC5,4,EN*%
X101200000Y-134175000D03*
D44*
%TO.P,IC5,5,SYNC*%
%TO.N,GND*%
X102225000Y-135200000D03*
%TO.P,IC5,6,LBO*%
X102875000Y-135200000D03*
%TO.P,IC5,7,LBI*%
X103525000Y-135200000D03*
%TO.P,IC5,8,VINA*%
%TO.N,/5V*%
X104175000Y-135200000D03*
D43*
%TO.P,IC5,9,AGND*%
%TO.N,GND*%
X105200000Y-134175000D03*
%TO.P,IC5,10,FB*%
%TO.N,/+3.3V*%
X105200000Y-133525000D03*
%TO.P,IC5,11,GND_1*%
%TO.N,GND*%
X105200000Y-132875000D03*
%TO.P,IC5,12,GND_2*%
X105200000Y-132225000D03*
D44*
%TO.P,IC5,13,PG*%
%TO.N,/Power/PG*%
X104175000Y-131200000D03*
%TO.P,IC5,14,SW_1*%
%TO.N,/Power/SW*%
X103525000Y-131200000D03*
%TO.P,IC5,15,SW_2*%
X102875000Y-131200000D03*
%TO.P,IC5,16,PGND_2*%
%TO.N,GND*%
X102225000Y-131200000D03*
D45*
%TO.P,IC5,17,EP*%
X103200000Y-133200000D03*
%TD*%
D29*
%TO.P,R26,1*%
%TO.N,/H7MCU/SDMMC_D1*%
X132360000Y-109800000D03*
%TO.P,R26,2*%
%TO.N,/+3.3V*%
X131340000Y-109800000D03*
%TD*%
D42*
%TO.P,C6,1*%
%TO.N,/5V*%
X123050000Y-130700000D03*
%TO.P,C6,2*%
%TO.N,GND*%
X121150000Y-130700000D03*
%TD*%
D46*
%TO.P,L3,1*%
%TO.N,/Power/SW*%
X95950000Y-131500000D03*
%TO.P,L3,2*%
%TO.N,/+3.3V*%
X89650000Y-131500000D03*
%TD*%
D28*
%TO.P,C35,1*%
%TO.N,/+3.3V*%
X113880000Y-88900000D03*
%TO.P,C35,2*%
%TO.N,GND*%
X112920000Y-88900000D03*
%TD*%
D29*
%TO.P,R23,1*%
%TO.N,/H7MCU/SDMMC_D3*%
X132660000Y-102500000D03*
%TO.P,R23,2*%
%TO.N,/+3.3V*%
X131640000Y-102500000D03*
%TD*%
D20*
%TO.P,H1,1*%
%TO.N,N/C*%
X78600000Y-132000000D03*
%TD*%
D30*
%TO.P,C10,1*%
%TO.N,/5V*%
X85900000Y-131725000D03*
%TO.P,C10,2*%
%TO.N,GND*%
X85900000Y-134675000D03*
%TD*%
D33*
%TO.P,D3,1,K*%
%TO.N,Net-(D3-Pad1)*%
X146912500Y-126100000D03*
%TO.P,D3,2,A*%
%TO.N,/+3.3V*%
X148487500Y-126100000D03*
%TD*%
D28*
%TO.P,C31,1*%
%TO.N,/+3.3V*%
X101880000Y-89300000D03*
%TO.P,C31,2*%
%TO.N,GND*%
X100920000Y-89300000D03*
%TD*%
D29*
%TO.P,R25,1*%
%TO.N,/H7MCU/SDMMC_D0*%
X132260000Y-107900000D03*
%TO.P,R25,2*%
%TO.N,/+3.3V*%
X131240000Y-107900000D03*
%TD*%
D47*
%TO.P,L2,1,1*%
%TO.N,Net-(IC4-Pad10)*%
X126115000Y-129600000D03*
%TO.P,L2,2,2*%
%TO.N,GND*%
X128485000Y-129600000D03*
%TD*%
D28*
%TO.P,C22,1*%
%TO.N,/+3.3V*%
X113480000Y-118200000D03*
%TO.P,C22,2*%
%TO.N,GND*%
X112520000Y-118200000D03*
%TD*%
D35*
%TO.P,C21,1*%
%TO.N,/+3.3V*%
X128950000Y-109780000D03*
%TO.P,C21,2*%
%TO.N,GND*%
X128950000Y-108820000D03*
%TD*%
D48*
%TO.P,C45,1*%
%TO.N,GND*%
X131950000Y-113825000D03*
%TO.P,C45,2*%
%TO.N,/+3.3V*%
X131950000Y-115375000D03*
%TD*%
D49*
%TO.P,Y1,1,1*%
%TO.N,/H7MCU/HSE_IN*%
X93550000Y-106600000D03*
%TO.P,Y1,2,2*%
%TO.N,Net-(C48-Pad1)*%
X93550000Y-108800000D03*
%TO.P,Y1,3,3*%
%TO.N,Net-(C48-Pad2)*%
X95250000Y-108800000D03*
%TO.P,Y1,4,4*%
%TO.N,Net-(C48-Pad1)*%
X95250000Y-106600000D03*
%TD*%
D27*
%TO.P,C29,1*%
%TO.N,/+3.3V*%
X115020000Y-88900000D03*
%TO.P,C29,2*%
%TO.N,GND*%
X115980000Y-88900000D03*
%TD*%
D35*
%TO.P,C32,1*%
%TO.N,/+3.3V*%
X96900000Y-105080000D03*
%TO.P,C32,2*%
%TO.N,GND*%
X96900000Y-104120000D03*
%TD*%
D50*
%TO.P,FB2,1*%
%TO.N,/+3.3V*%
X97800000Y-119887500D03*
%TO.P,FB2,2*%
%TO.N,/H7MCU/+3.3VA*%
X97800000Y-118312500D03*
%TD*%
D11*
%TO.P,C20,1*%
%TO.N,/+3.3V*%
X128950000Y-102070000D03*
%TO.P,C20,2*%
%TO.N,GND*%
X128950000Y-103030000D03*
%TD*%
D38*
%TO.P,C7,1*%
%TO.N,/VPOS*%
X117200000Y-133050000D03*
%TO.P,C7,2*%
%TO.N,GND*%
X117200000Y-134950000D03*
%TD*%
D35*
%TO.P,C26,1*%
%TO.N,GND*%
X95400000Y-116180000D03*
%TO.P,C26,2*%
%TO.N,/H7MCU/+3.3VA*%
X95400000Y-115220000D03*
%TD*%
D29*
%TO.P,R27,1*%
%TO.N,/H7MCU/BOOT0*%
X107910000Y-88900000D03*
%TO.P,R27,2*%
%TO.N,GND*%
X106890000Y-88900000D03*
%TD*%
D28*
%TO.P,C19,1*%
%TO.N,/+3.3V*%
X105780000Y-118200000D03*
%TO.P,C19,2*%
%TO.N,GND*%
X104820000Y-118200000D03*
%TD*%
D35*
%TO.P,C50,1*%
%TO.N,GND*%
X141100000Y-120660000D03*
%TO.P,C50,2*%
%TO.N,/H7MCU/NRST*%
X141100000Y-119700000D03*
%TD*%
D51*
%TO.P,Y2,1,1*%
%TO.N,/H7MCU/OSC_OUT*%
X97600000Y-98950000D03*
%TO.P,Y2,2,2*%
%TO.N,/H7MCU/OSC_IN*%
X97600000Y-96450000D03*
%TD*%
D28*
%TO.P,C51,1*%
%TO.N,GND*%
X97680000Y-94900000D03*
%TO.P,C51,2*%
%TO.N,/H7MCU/OSC_IN*%
X96720000Y-94900000D03*
%TD*%
D27*
%TO.P,C48,1*%
%TO.N,Net-(C48-Pad1)*%
X93720000Y-110800000D03*
%TO.P,C48,2*%
%TO.N,Net-(C48-Pad2)*%
X94680000Y-110800000D03*
%TD*%
D52*
%TO.P,C23,1*%
%TO.N,/H7MCU/VREF+*%
X95050000Y-113300000D03*
%TO.P,C23,2*%
%TO.N,GND*%
X92350000Y-113300000D03*
%TD*%
D53*
%TO.P,R28,1*%
%TO.N,GND*%
X148525000Y-128000000D03*
%TO.P,R28,2*%
%TO.N,Net-(D3-Pad1)*%
X146875000Y-128000000D03*
%TD*%
D47*
%TO.P,L1,1,1*%
%TO.N,/5V*%
X118185000Y-129700000D03*
%TO.P,L1,2,2*%
%TO.N,Net-(IC4-Pad1)*%
X115815000Y-129700000D03*
%TD*%
D54*
%TO.P,Q1,1*%
%TO.N,GND*%
X128550000Y-123950000D03*
%TO.P,Q1,2*%
%TO.N,Net-(FB1-Pad1)*%
X128550000Y-125850000D03*
%TO.P,Q1,3*%
%TO.N,Net-(F1-Pad2)*%
X131050000Y-124900000D03*
%TD*%
D28*
%TO.P,C28,1*%
%TO.N,/+3.3V*%
X102180000Y-119900000D03*
%TO.P,C28,2*%
%TO.N,GND*%
X101220000Y-119900000D03*
%TD*%
D48*
%TO.P,C40,1*%
%TO.N,/+3.3V*%
X129200000Y-98525000D03*
%TO.P,C40,2*%
%TO.N,GND*%
X129200000Y-100075000D03*
%TD*%
D27*
%TO.P,C43,1*%
%TO.N,/H7MCU/VCAP1*%
X96920000Y-101600000D03*
%TO.P,C43,2*%
%TO.N,GND*%
X97880000Y-101600000D03*
%TD*%
D35*
%TO.P,C27,1*%
%TO.N,/+3.3V*%
X99300000Y-95680000D03*
%TO.P,C27,2*%
%TO.N,GND*%
X99300000Y-94720000D03*
%TD*%
D27*
%TO.P,C49,1*%
%TO.N,/H7MCU/HSE_IN*%
X94020000Y-104900000D03*
%TO.P,C49,2*%
%TO.N,Net-(C48-Pad1)*%
X94980000Y-104900000D03*
%TD*%
D35*
%TO.P,C46,1*%
%TO.N,/H7MCU/VCAP1*%
X124300000Y-88580000D03*
%TO.P,C46,2*%
%TO.N,GND*%
X124300000Y-87620000D03*
%TD*%
%TO.P,C30,1*%
%TO.N,/+3.3V*%
X98000000Y-105080000D03*
%TO.P,C30,2*%
%TO.N,GND*%
X98000000Y-104120000D03*
%TD*%
D29*
%TO.P,R22,1*%
%TO.N,/H7MCU/SDMMC_D2*%
X132610000Y-99950000D03*
%TO.P,R22,2*%
%TO.N,/+3.3V*%
X131590000Y-99950000D03*
%TD*%
D27*
%TO.P,C36,1*%
%TO.N,/+3.3V*%
X128920000Y-95750000D03*
%TO.P,C36,2*%
%TO.N,GND*%
X129880000Y-95750000D03*
%TD*%
D35*
%TO.P,C33,1*%
%TO.N,/+3.3V*%
X130100000Y-109730000D03*
%TO.P,C33,2*%
%TO.N,GND*%
X130100000Y-108770000D03*
%TD*%
D27*
%TO.P,C14,1*%
%TO.N,/+3.3V*%
X118020000Y-118200000D03*
%TO.P,C14,2*%
%TO.N,GND*%
X118980000Y-118200000D03*
%TD*%
D55*
%TO.P,IC6,1,PE2*%
%TO.N,Net-(IC6-Pad1)*%
X101575000Y-93050000D03*
%TO.P,IC6,2,PE3*%
%TO.N,Net-(IC6-Pad2)*%
X101575000Y-93550000D03*
%TO.P,IC6,3,PE4*%
%TO.N,Net-(IC6-Pad3)*%
X101575000Y-94050000D03*
%TO.P,IC6,4,PE5*%
%TO.N,Net-(IC6-Pad4)*%
X101575000Y-94550000D03*
%TO.P,IC6,5,PE6*%
%TO.N,Net-(IC6-Pad5)*%
X101575000Y-95050000D03*
%TO.P,IC6,6,VSS_1*%
%TO.N,GND*%
X101575000Y-95550000D03*
%TO.P,IC6,7,VDD_1*%
%TO.N,/+3.3V*%
X101575000Y-96050000D03*
%TO.P,IC6,8,VBAT*%
%TO.N,Net-(BT1-Pad1)*%
X101575000Y-96550000D03*
%TO.P,IC6,9,PC13*%
%TO.N,Net-(IC6-Pad9)*%
X101575000Y-97050000D03*
%TO.P,IC6,10,PC14-OSC32_IN*%
%TO.N,/H7MCU/OSC_IN*%
X101575000Y-97550000D03*
%TO.P,IC6,11,PC15-OSC32_OUT*%
%TO.N,/H7MCU/OSC_OUT*%
X101575000Y-98050000D03*
%TO.P,IC6,12,VSS_2*%
%TO.N,GND*%
X101575000Y-98550000D03*
%TO.P,IC6,13,VDD_2*%
%TO.N,/+3.3V*%
X101575000Y-99050000D03*
%TO.P,IC6,14,VSSSMPS*%
%TO.N,GND*%
X101575000Y-99550000D03*
%TO.P,IC6,15,VLXSMPS*%
%TO.N,/H7MCU/VLXSMPS*%
X101575000Y-100050000D03*
%TO.P,IC6,16,VDDSMPS*%
%TO.N,/H7MCU/VDDSMPS*%
X101575000Y-100550000D03*
%TO.P,IC6,17,VFBSMPS*%
%TO.N,/H7MCU/VCAP1*%
X101575000Y-101050000D03*
%TO.P,IC6,18,PF0*%
%TO.N,Net-(IC6-Pad18)*%
X101575000Y-101550000D03*
%TO.P,IC6,19,PF1*%
%TO.N,Net-(IC6-Pad19)*%
X101575000Y-102050000D03*
%TO.P,IC6,20,PF2*%
%TO.N,Net-(IC6-Pad20)*%
X101575000Y-102550000D03*
%TO.P,IC6,21,PF3*%
%TO.N,Net-(IC6-Pad21)*%
X101575000Y-103050000D03*
%TO.P,IC6,22,PF4*%
%TO.N,Net-(IC6-Pad22)*%
X101575000Y-103550000D03*
%TO.P,IC6,23,PF5*%
%TO.N,Net-(IC6-Pad23)*%
X101575000Y-104050000D03*
%TO.P,IC6,24,VSS_3*%
%TO.N,GND*%
X101575000Y-104550000D03*
%TO.P,IC6,25,VDD_3*%
%TO.N,/+3.3V*%
X101575000Y-105050000D03*
%TO.P,IC6,26,PF6*%
%TO.N,Net-(IC6-Pad26)*%
X101575000Y-105550000D03*
%TO.P,IC6,27,PF7*%
%TO.N,Net-(IC6-Pad27)*%
X101575000Y-106050000D03*
%TO.P,IC6,28,PF8*%
%TO.N,Net-(IC6-Pad28)*%
X101575000Y-106550000D03*
%TO.P,IC6,29,PF9*%
%TO.N,Net-(IC6-Pad29)*%
X101575000Y-107050000D03*
%TO.P,IC6,30,PF10*%
%TO.N,Net-(IC6-Pad30)*%
X101575000Y-107550000D03*
%TO.P,IC6,31,PH0-OSC_IN*%
%TO.N,/H7MCU/HSE_IN*%
X101575000Y-108050000D03*
%TO.P,IC6,32,PH1-OSC_OUT*%
%TO.N,/H7MCU/HSE_OUT*%
X101575000Y-108550000D03*
%TO.P,IC6,33,NRST*%
%TO.N,/H7MCU/NRST*%
X101575000Y-109050000D03*
%TO.P,IC6,34,PC0*%
%TO.N,Net-(IC6-Pad34)*%
X101575000Y-109550000D03*
%TO.P,IC6,35,PC1*%
%TO.N,Net-(IC6-Pad35)*%
X101575000Y-110050000D03*
%TO.P,IC6,36,PC2_C*%
%TO.N,/v_DIV_OUT*%
X101575000Y-110550000D03*
%TO.P,IC6,37,PC3_C*%
%TO.N,Net-(IC6-Pad37)*%
X101575000Y-111050000D03*
%TO.P,IC6,38,VSSA*%
%TO.N,GND*%
X101575000Y-111550000D03*
%TO.P,IC6,39,VREF+*%
%TO.N,/H7MCU/VREF+*%
X101575000Y-112050000D03*
%TO.P,IC6,40,VDDA*%
%TO.N,/H7MCU/+3.3VA*%
X101575000Y-112550000D03*
%TO.P,IC6,41,PA0*%
%TO.N,Net-(IC6-Pad41)*%
X101575000Y-113050000D03*
%TO.P,IC6,42,PA1*%
%TO.N,Net-(IC6-Pad42)*%
X101575000Y-113550000D03*
%TO.P,IC6,43,PA2*%
%TO.N,/H7MCU/LED_STAT*%
X101575000Y-114050000D03*
%TO.P,IC6,44,VDD_4*%
%TO.N,/+3.3V*%
X101575000Y-114550000D03*
D39*
%TO.P,IC6,45,VSS_4*%
%TO.N,GND*%
X103550000Y-116525000D03*
%TO.P,IC6,46,PA3*%
%TO.N,/+3.3V*%
X104050000Y-116525000D03*
%TO.P,IC6,47,VSS_5*%
%TO.N,GND*%
X104550000Y-116525000D03*
%TO.P,IC6,48,VDD_5*%
%TO.N,/+3.3V*%
X105050000Y-116525000D03*
%TO.P,IC6,49,PA4*%
%TO.N,Net-(IC6-Pad49)*%
X105550000Y-116525000D03*
%TO.P,IC6,50,PA5*%
%TO.N,Net-(IC6-Pad50)*%
X106050000Y-116525000D03*
%TO.P,IC6,51,PA6*%
%TO.N,Net-(IC6-Pad51)*%
X106550000Y-116525000D03*
%TO.P,IC6,52,PA7*%
%TO.N,Net-(IC6-Pad52)*%
X107050000Y-116525000D03*
%TO.P,IC6,53,PC4*%
%TO.N,Net-(IC6-Pad53)*%
X107550000Y-116525000D03*
%TO.P,IC6,54,PC5*%
%TO.N,Net-(IC6-Pad54)*%
X108050000Y-116525000D03*
%TO.P,IC6,55,PB0*%
%TO.N,Net-(IC6-Pad55)*%
X108550000Y-116525000D03*
%TO.P,IC6,56,PB1*%
%TO.N,Net-(IC6-Pad56)*%
X109050000Y-116525000D03*
%TO.P,IC6,57,PB2*%
%TO.N,Net-(IC6-Pad57)*%
X109550000Y-116525000D03*
%TO.P,IC6,58,PF11*%
%TO.N,Net-(IC6-Pad58)*%
X110050000Y-116525000D03*
%TO.P,IC6,59,PF12*%
%TO.N,Net-(IC6-Pad59)*%
X110550000Y-116525000D03*
%TO.P,IC6,60,PF13*%
%TO.N,Net-(IC6-Pad60)*%
X111050000Y-116525000D03*
%TO.P,IC6,61,PF14*%
%TO.N,Net-(IC6-Pad61)*%
X111550000Y-116525000D03*
%TO.P,IC6,62,PF15*%
%TO.N,Net-(IC6-Pad62)*%
X112050000Y-116525000D03*
%TO.P,IC6,63,PG0*%
%TO.N,Net-(IC6-Pad63)*%
X112550000Y-116525000D03*
%TO.P,IC6,64,VSS_6*%
%TO.N,GND*%
X113050000Y-116525000D03*
%TO.P,IC6,65,VDD_6*%
%TO.N,/+3.3V*%
X113550000Y-116525000D03*
%TO.P,IC6,66,PG1*%
%TO.N,Net-(IC6-Pad66)*%
X114050000Y-116525000D03*
%TO.P,IC6,67,PE7*%
%TO.N,Net-(IC6-Pad67)*%
X114550000Y-116525000D03*
%TO.P,IC6,68,PE8*%
%TO.N,Net-(IC6-Pad68)*%
X115050000Y-116525000D03*
%TO.P,IC6,69,PE9*%
%TO.N,Net-(IC6-Pad69)*%
X115550000Y-116525000D03*
%TO.P,IC6,70,VSS_7*%
%TO.N,GND*%
X116050000Y-116525000D03*
%TO.P,IC6,71,VDD_7*%
%TO.N,/+3.3V*%
X116550000Y-116525000D03*
%TO.P,IC6,72,PE10*%
%TO.N,Net-(IC6-Pad72)*%
X117050000Y-116525000D03*
%TO.P,IC6,73,PE11*%
%TO.N,Net-(IC6-Pad73)*%
X117550000Y-116525000D03*
%TO.P,IC6,74,PE12*%
%TO.N,Net-(IC6-Pad74)*%
X118050000Y-116525000D03*
%TO.P,IC6,75,PE13*%
%TO.N,Net-(IC6-Pad75)*%
X118550000Y-116525000D03*
%TO.P,IC6,76,PE14*%
%TO.N,Net-(IC6-Pad76)*%
X119050000Y-116525000D03*
%TO.P,IC6,77,PE15*%
%TO.N,Net-(IC6-Pad77)*%
X119550000Y-116525000D03*
%TO.P,IC6,78,PB10*%
%TO.N,/STM32_3_TX*%
X120050000Y-116525000D03*
%TO.P,IC6,79,PB11*%
%TO.N,/STM32_3_RX*%
X120550000Y-116525000D03*
%TO.P,IC6,80,VCAP_1*%
%TO.N,/H7MCU/VCAP1*%
X121050000Y-116525000D03*
%TO.P,IC6,81,VSS_8*%
%TO.N,GND*%
X121550000Y-116525000D03*
%TO.P,IC6,82,VDDLDO_1*%
%TO.N,/H7MCU/VCAP1*%
X122050000Y-116525000D03*
%TO.P,IC6,83,VSS_9*%
%TO.N,GND*%
X122550000Y-116525000D03*
%TO.P,IC6,84,VDD_8*%
%TO.N,/+3.3V*%
X123050000Y-116525000D03*
%TO.P,IC6,85,PB12*%
%TO.N,Net-(IC6-Pad85)*%
X123550000Y-116525000D03*
%TO.P,IC6,86,PB13*%
%TO.N,Net-(IC6-Pad86)*%
X124050000Y-116525000D03*
%TO.P,IC6,87,PB14*%
%TO.N,Net-(IC6-Pad87)*%
X124550000Y-116525000D03*
%TO.P,IC6,88,PB15*%
%TO.N,Net-(IC6-Pad88)*%
X125050000Y-116525000D03*
D55*
%TO.P,IC6,89,PD8*%
%TO.N,Net-(IC6-Pad89)*%
X127025000Y-114550000D03*
%TO.P,IC6,90,PD9*%
%TO.N,Net-(IC6-Pad90)*%
X127025000Y-114050000D03*
%TO.P,IC6,91,PD10*%
%TO.N,Net-(IC6-Pad91)*%
X127025000Y-113550000D03*
%TO.P,IC6,92,VDD_9*%
%TO.N,/+3.3V*%
X127025000Y-113050000D03*
%TO.P,IC6,93,VSS_10*%
%TO.N,GND*%
X127025000Y-112550000D03*
%TO.P,IC6,94,PD11*%
%TO.N,Net-(IC6-Pad94)*%
X127025000Y-112050000D03*
%TO.P,IC6,95,PD12*%
%TO.N,Net-(IC6-Pad95)*%
X127025000Y-111550000D03*
%TO.P,IC6,96,PD13*%
%TO.N,Net-(IC6-Pad96)*%
X127025000Y-111050000D03*
%TO.P,IC6,97,PD14*%
%TO.N,Net-(IC6-Pad97)*%
X127025000Y-110550000D03*
%TO.P,IC6,98,PD15*%
%TO.N,Net-(IC6-Pad98)*%
X127025000Y-110050000D03*
%TO.P,IC6,99,VDD_10*%
%TO.N,/+3.3V*%
X127025000Y-109550000D03*
%TO.P,IC6,100,VSS_11*%
%TO.N,GND*%
X127025000Y-109050000D03*
%TO.P,IC6,101,VCAPDSI*%
%TO.N,/+3.3V*%
X127025000Y-108550000D03*
%TO.P,IC6,102,VDD12DSI_1*%
X127025000Y-108050000D03*
%TO.P,IC6,103,DSI_D0P*%
%TO.N,Net-(IC6-Pad103)*%
X127025000Y-107550000D03*
%TO.P,IC6,104,DSI_D0N*%
%TO.N,Net-(IC6-Pad104)*%
X127025000Y-107050000D03*
%TO.P,IC6,105,VSSDSI_1*%
%TO.N,GND*%
X127025000Y-106550000D03*
%TO.P,IC6,106,DSI_CKP*%
%TO.N,Net-(IC6-Pad106)*%
X127025000Y-106050000D03*
%TO.P,IC6,107,DSI_CKN*%
%TO.N,Net-(IC6-Pad107)*%
X127025000Y-105550000D03*
%TO.P,IC6,108,VDD12DSI_2*%
%TO.N,/+3.3V*%
X127025000Y-105050000D03*
%TO.P,IC6,109,VSSDSI_2*%
%TO.N,GND*%
X127025000Y-104550000D03*
%TO.P,IC6,110,PG2*%
%TO.N,Net-(IC6-Pad110)*%
X127025000Y-104050000D03*
%TO.P,IC6,111,PG3*%
%TO.N,Net-(IC6-Pad111)*%
X127025000Y-103550000D03*
%TO.P,IC6,112,VSS_12*%
%TO.N,GND*%
X127025000Y-103050000D03*
%TO.P,IC6,113,VDD_11*%
%TO.N,/+3.3V*%
X127025000Y-102550000D03*
%TO.P,IC6,114,PG4*%
%TO.N,Net-(IC6-Pad114)*%
X127025000Y-102050000D03*
%TO.P,IC6,115,PG5*%
%TO.N,Net-(IC6-Pad115)*%
X127025000Y-101550000D03*
%TO.P,IC6,116,PG6*%
%TO.N,Net-(IC6-Pad116)*%
X127025000Y-101050000D03*
%TO.P,IC6,117,PG7*%
%TO.N,Net-(IC6-Pad117)*%
X127025000Y-100550000D03*
%TO.P,IC6,118,PG8*%
%TO.N,Net-(IC6-Pad118)*%
X127025000Y-100050000D03*
%TO.P,IC6,119,VSS_13*%
%TO.N,GND*%
X127025000Y-99550000D03*
%TO.P,IC6,120,VDD50USB*%
%TO.N,/+3.3V*%
X127025000Y-99050000D03*
%TO.P,IC6,121,VDD33USB*%
X127025000Y-98550000D03*
%TO.P,IC6,122,PC6*%
%TO.N,Net-(IC6-Pad122)*%
X127025000Y-98050000D03*
%TO.P,IC6,123,PC7*%
%TO.N,Net-(IC6-Pad123)*%
X127025000Y-97550000D03*
%TO.P,IC6,124,PC8*%
%TO.N,/H7MCU/SDMMC_D0*%
X127025000Y-97050000D03*
%TO.P,IC6,125,PC9*%
%TO.N,/H7MCU/SDMMC_D1*%
X127025000Y-96550000D03*
%TO.P,IC6,126,VDD_12*%
%TO.N,/+3.3V*%
X127025000Y-96050000D03*
%TO.P,IC6,127,PA8*%
%TO.N,Net-(IC6-Pad127)*%
X127025000Y-95550000D03*
%TO.P,IC6,128,PA9*%
%TO.N,Net-(IC6-Pad128)*%
X127025000Y-95050000D03*
%TO.P,IC6,129,PA10*%
%TO.N,Net-(IC6-Pad129)*%
X127025000Y-94550000D03*
%TO.P,IC6,130,PA11*%
%TO.N,/USB_D-*%
X127025000Y-94050000D03*
%TO.P,IC6,131,PA12*%
%TO.N,/USB_D+*%
X127025000Y-93550000D03*
%TO.P,IC6,132,PA13*%
%TO.N,/H7MCU/SWDIO*%
X127025000Y-93050000D03*
D39*
%TO.P,IC6,133,VCAP_2*%
%TO.N,/H7MCU/VCAP1*%
X125050000Y-91075000D03*
%TO.P,IC6,134,VSS_14*%
%TO.N,GND*%
X124550000Y-91075000D03*
%TO.P,IC6,135,VDDLDO_2*%
%TO.N,/H7MCU/VCAP1*%
X124050000Y-91075000D03*
%TO.P,IC6,136,VDD_13*%
%TO.N,/+3.3V*%
X123550000Y-91075000D03*
%TO.P,IC6,137,VSS_15*%
%TO.N,GND*%
X123050000Y-91075000D03*
%TO.P,IC6,138,PA14*%
%TO.N,/H7MCU/SWCLK*%
X122550000Y-91075000D03*
%TO.P,IC6,139,PA15*%
%TO.N,Net-(IC6-Pad139)*%
X122050000Y-91075000D03*
%TO.P,IC6,140,PC10*%
%TO.N,/H7MCU/SDMMC_D2*%
X121550000Y-91075000D03*
%TO.P,IC6,141,PC11*%
%TO.N,/H7MCU/SDMMC_D3*%
X121050000Y-91075000D03*
%TO.P,IC6,142,PC12*%
%TO.N,/H7MCU/SDMMC_CK*%
X120550000Y-91075000D03*
%TO.P,IC6,143,PD0*%
%TO.N,Net-(IC6-Pad143)*%
X120050000Y-91075000D03*
%TO.P,IC6,144,PD1*%
%TO.N,Net-(IC6-Pad144)*%
X119550000Y-91075000D03*
%TO.P,IC6,145,PD2*%
%TO.N,/H7MCU/SDMMC_CMD*%
X119050000Y-91075000D03*
%TO.P,IC6,146,PD3*%
%TO.N,Net-(IC6-Pad146)*%
X118550000Y-91075000D03*
%TO.P,IC6,147,PD4*%
%TO.N,Net-(IC6-Pad147)*%
X118050000Y-91075000D03*
%TO.P,IC6,148,PD5*%
%TO.N,Net-(IC6-Pad148)*%
X117550000Y-91075000D03*
%TO.P,IC6,149,PD6*%
%TO.N,Net-(IC6-Pad149)*%
X117050000Y-91075000D03*
%TO.P,IC6,150,PD7*%
%TO.N,Net-(IC6-Pad150)*%
X116550000Y-91075000D03*
%TO.P,IC6,151,VSS_16*%
%TO.N,GND*%
X116050000Y-91075000D03*
%TO.P,IC6,152,VDD_14*%
%TO.N,/+3.3V*%
X115550000Y-91075000D03*
%TO.P,IC6,153,PG9*%
%TO.N,Net-(IC6-Pad153)*%
X115050000Y-91075000D03*
%TO.P,IC6,154,PG10*%
%TO.N,Net-(IC6-Pad154)*%
X114550000Y-91075000D03*
%TO.P,IC6,155,PG11*%
%TO.N,Net-(IC6-Pad155)*%
X114050000Y-91075000D03*
%TO.P,IC6,156,PG12*%
%TO.N,Net-(IC6-Pad156)*%
X113550000Y-91075000D03*
%TO.P,IC6,157,PG13*%
%TO.N,Net-(IC6-Pad157)*%
X113050000Y-91075000D03*
%TO.P,IC6,158,PG14*%
%TO.N,Net-(IC6-Pad158)*%
X112550000Y-91075000D03*
%TO.P,IC6,159,VSS_17*%
%TO.N,GND*%
X112050000Y-91075000D03*
%TO.P,IC6,160,VDD_15*%
%TO.N,/+3.3V*%
X111550000Y-91075000D03*
%TO.P,IC6,161,PG15*%
%TO.N,Net-(IC6-Pad161)*%
X111050000Y-91075000D03*
%TO.P,IC6,162,PB3*%
%TO.N,/H7MCU/SWO*%
X110550000Y-91075000D03*
%TO.P,IC6,163,PB4*%
%TO.N,Net-(IC6-Pad163)*%
X110050000Y-91075000D03*
%TO.P,IC6,164,PB5*%
%TO.N,Net-(IC6-Pad164)*%
X109550000Y-91075000D03*
%TO.P,IC6,165,PB6*%
%TO.N,Net-(IC6-Pad165)*%
X109050000Y-91075000D03*
%TO.P,IC6,166,PB7*%
%TO.N,Net-(IC6-Pad166)*%
X108550000Y-91075000D03*
%TO.P,IC6,167,BOOT0*%
%TO.N,/H7MCU/BOOT0*%
X108050000Y-91075000D03*
%TO.P,IC6,168,PB8*%
%TO.N,Net-(IC6-Pad168)*%
X107550000Y-91075000D03*
%TO.P,IC6,169,PB9*%
%TO.N,Net-(IC6-Pad169)*%
X107050000Y-91075000D03*
%TO.P,IC6,170,PE0*%
%TO.N,Net-(IC6-Pad170)*%
X106550000Y-91075000D03*
%TO.P,IC6,171,PE1*%
%TO.N,Net-(IC6-Pad171)*%
X106050000Y-91075000D03*
%TO.P,IC6,172,VCAP_3*%
%TO.N,GND*%
X105550000Y-91075000D03*
%TO.P,IC6,173,VSS_18*%
X105050000Y-91075000D03*
%TO.P,IC6,174,PDR_ON*%
%TO.N,Net-(IC6-Pad174)*%
X104550000Y-91075000D03*
%TO.P,IC6,175,VDDLDO_3*%
%TO.N,/H7MCU/VCAP1*%
X104050000Y-91075000D03*
%TO.P,IC6,176,VDD_16*%
%TO.N,/+3.3V*%
X103550000Y-91075000D03*
%TD*%
D27*
%TO.P,C42,1*%
%TO.N,/H7MCU/VCAP1*%
X94120000Y-103600000D03*
%TO.P,C42,2*%
%TO.N,GND*%
X95080000Y-103600000D03*
%TD*%
D56*
%TO.P,FB1,1*%
%TO.N,Net-(FB1-Pad1)*%
X125900000Y-125762500D03*
%TO.P,FB1,2*%
%TO.N,/5V*%
X125900000Y-123637500D03*
%TD*%
D11*
%TO.P,C24,1*%
%TO.N,GND*%
X98300000Y-111120000D03*
%TO.P,C24,2*%
%TO.N,/H7MCU/VREF+*%
X98300000Y-112080000D03*
%TD*%
D27*
%TO.P,C41,1*%
%TO.N,/H7MCU/VLXSMPS*%
X96920000Y-102900000D03*
%TO.P,C41,2*%
%TO.N,GND*%
X97880000Y-102900000D03*
%TD*%
D57*
%TO.P,R18,1*%
%TO.N,/H7MCU/VREF+*%
X94100000Y-116210000D03*
%TO.P,R18,2*%
%TO.N,/H7MCU/+3.3VA*%
X94100000Y-115190000D03*
%TD*%
D58*
%TO.P,IC4,1,SWP*%
%TO.N,Net-(IC4-Pad1)*%
X120400000Y-133075000D03*
%TO.P,IC4,2,PGND*%
%TO.N,GND*%
X120400000Y-133525000D03*
%TO.P,IC4,3,VPOS*%
%TO.N,/VPOS*%
X120400000Y-133975000D03*
%TO.P,IC4,4,GND_1*%
%TO.N,GND*%
X120400000Y-134425000D03*
%TO.P,IC4,5,AGND*%
X120400000Y-134875000D03*
%TO.P,IC4,6,GND_2*%
X120400000Y-135325000D03*
%TO.P,IC4,7,EN*%
%TO.N,/5V*%
X123300000Y-135325000D03*
%TO.P,IC4,8,GND_3*%
%TO.N,GND*%
X123300000Y-134875000D03*
%TO.P,IC4,9,VNEG*%
%TO.N,/VNEG*%
X123300000Y-134425000D03*
%TO.P,IC4,10,SWN*%
%TO.N,Net-(IC4-Pad10)*%
X123300000Y-133975000D03*
%TO.P,IC4,11,AVIN*%
%TO.N,/5V*%
X123300000Y-133525000D03*
%TO.P,IC4,12,PVIN*%
X123300000Y-133075000D03*
D59*
%TO.P,IC4,13,EP*%
%TO.N,GND*%
X121850000Y-134200000D03*
%TD*%
D53*
%TO.P,R21,1*%
%TO.N,Net-(D2-Pad1)*%
X97825000Y-122700000D03*
%TO.P,R21,2*%
%TO.N,GND*%
X96175000Y-122700000D03*
%TD*%
D60*
%TO.P,J1,2,Ext*%
%TO.N,GND*%
X89775000Y-84700000D03*
X95425000Y-84700000D03*
%TD*%
D61*
%TO.N,GND*%
X120600000Y-89500000D03*
%TO.N,/+3.3V*%
X127552786Y-89094429D03*
%TO.N,GND*%
X128000000Y-88200000D03*
X127400000Y-87500000D03*
X127280000Y-91682225D03*
%TO.N,/H7MCU/VCAP1*%
X123500000Y-95000000D03*
X111000000Y-97800000D03*
%TO.N,/H7MCU/VLXSMPS*%
X96000000Y-102600000D03*
%TO.N,/H7MCU/VCAP1*%
X99700000Y-102500000D03*
%TO.N,/H7MCU/VLXSMPS*%
X106800000Y-100400000D03*
%TO.N,GND*%
X119400000Y-119400000D03*
%TO.N,/+3.3V*%
X118200000Y-119300000D03*
X126100000Y-119400000D03*
%TO.N,GND*%
X127700000Y-119200000D03*
X125300000Y-120100000D03*
X124600000Y-120800000D03*
%TO.N,/H7MCU/VCAP1*%
X118500000Y-112400000D03*
X111200000Y-107600000D03*
%TO.N,/H7MCU/VDDSMPS*%
X106700000Y-101700000D03*
%TO.N,/+3.3V*%
X136600000Y-103300000D03*
%TO.N,GND*%
X136700000Y-107500000D03*
X82500000Y-133800000D03*
X82500000Y-135000000D03*
X83500000Y-134300000D03*
X83500000Y-135400000D03*
X98800000Y-130200000D03*
X100000000Y-130500000D03*
X99100000Y-131200000D03*
X98100000Y-131100000D03*
X118700000Y-124300000D03*
X116400000Y-124300000D03*
X106800000Y-87300000D03*
X94700000Y-121500000D03*
X117600000Y-124300000D03*
X109200000Y-121200000D03*
X128500000Y-132900000D03*
X108300000Y-99900000D03*
X99200000Y-93600000D03*
X129900000Y-135600000D03*
X141200000Y-133000000D03*
X141800000Y-135400000D03*
X108000000Y-124400000D03*
X99500000Y-89500000D03*
X79500000Y-104400000D03*
X107700000Y-87300000D03*
X100300000Y-119400000D03*
X115200000Y-135100000D03*
X128200000Y-135000000D03*
X88800000Y-95000000D03*
X87900000Y-86200000D03*
X122500000Y-114800000D03*
X110400000Y-124400000D03*
X123000000Y-123500000D03*
X81900000Y-89800000D03*
X108000000Y-121100000D03*
X97500000Y-86200000D03*
X92300000Y-91900000D03*
X122000000Y-124000000D03*
X136700000Y-109500000D03*
X110400000Y-92800000D03*
X121100000Y-121200000D03*
X105700000Y-121100000D03*
X122300000Y-121200000D03*
X116400000Y-93100000D03*
X119000000Y-87400000D03*
X132400000Y-135100000D03*
X115200000Y-121200000D03*
X111800000Y-87400000D03*
X114200000Y-92800000D03*
X117200000Y-89500000D03*
X129600000Y-134600000D03*
X122000000Y-133600000D03*
X119800000Y-128800000D03*
X149000000Y-129300000D03*
X88400000Y-108600000D03*
X138500000Y-134800000D03*
X112200000Y-135600000D03*
X105100000Y-87200000D03*
X141800000Y-134200000D03*
X128800000Y-122600000D03*
X106800000Y-92700000D03*
X114800000Y-133900000D03*
X124700000Y-100600000D03*
X138500000Y-133700000D03*
X104100000Y-87200000D03*
X105700000Y-124300000D03*
X95700000Y-117700000D03*
X100400000Y-118300000D03*
X99300000Y-109500000D03*
X133500000Y-113700000D03*
X115700000Y-119400000D03*
X108400000Y-92800000D03*
X114500000Y-133000000D03*
X109200000Y-124400000D03*
X105400000Y-92800000D03*
X78000000Y-106200000D03*
X145600000Y-115200000D03*
X125100000Y-109100000D03*
X123500000Y-121100000D03*
X117600000Y-121200000D03*
X94700000Y-117300000D03*
X118000000Y-87400000D03*
X111300000Y-134900000D03*
X104400000Y-95100000D03*
X97600000Y-85000000D03*
X112800000Y-124300000D03*
X144900000Y-124300000D03*
X114000000Y-124400000D03*
X106700000Y-124300000D03*
X99100000Y-103400000D03*
X112400000Y-93000000D03*
X88600000Y-98600000D03*
X112500000Y-119500000D03*
X91400000Y-115500000D03*
X110400000Y-121200000D03*
X120100000Y-124200000D03*
X81700000Y-90900000D03*
X104500000Y-119400000D03*
X149800000Y-127700000D03*
X143500000Y-124500000D03*
X91000000Y-114700000D03*
X87700000Y-85200000D03*
X123400000Y-106800000D03*
X141100000Y-130700000D03*
X115200000Y-124300000D03*
X111700000Y-121200000D03*
X111500000Y-124400000D03*
X105500000Y-131300000D03*
X130200000Y-129400000D03*
X146400000Y-116100000D03*
X132900000Y-112700000D03*
X132400000Y-133900000D03*
X128100000Y-133800000D03*
X119900000Y-121200000D03*
X97500000Y-93800000D03*
X87800000Y-84000000D03*
X140900000Y-131600000D03*
X130200000Y-131800000D03*
X106800000Y-121100000D03*
X118000000Y-92800000D03*
X130500000Y-127800000D03*
X106700000Y-97200000D03*
X136500000Y-106500000D03*
X118800000Y-121200000D03*
X128000000Y-122600000D03*
X116300000Y-121200000D03*
X150000000Y-128800000D03*
X130500000Y-94600000D03*
X95800000Y-121300000D03*
X121625000Y-134425000D03*
X97600000Y-83800000D03*
X79100000Y-105600000D03*
%TO.N,Net-(BT1-Pad1)*%
X105200000Y-97100000D03*
X95280331Y-99380331D03*
%TO.N,Net-(C1-Pad2)*%
X88700000Y-96800000D03*
X95900000Y-97599999D03*
%TO.N,Net-(C2-Pad1)*%
X94250001Y-96900000D03*
X92000000Y-93100000D03*
%TO.N,/v_DIV_OUT*%
X87500000Y-105400000D03*
X104000000Y-110500000D03*
X89100000Y-107400000D03*
X86169669Y-103169669D03*
%TO.N,/5V*%
X122300000Y-87400000D03*
X121400000Y-87400000D03*
X128300000Y-120400000D03*
X124400000Y-130600000D03*
X111000000Y-128900000D03*
X120300000Y-87400000D03*
X106500000Y-135300000D03*
X100700000Y-135300000D03*
X131300000Y-86300000D03*
X119600000Y-130600000D03*
%TO.N,/VPOS*%
X113500000Y-129900000D03*
%TO.N,/VNEG*%
X92000000Y-100000000D03*
X89900000Y-104700000D03*
X124700000Y-126900000D03*
X91400000Y-122900000D03*
%TO.N,/+3.3V*%
X106900000Y-119000000D03*
X82700000Y-128600000D03*
X99100000Y-105800000D03*
X130700000Y-102700000D03*
X149900000Y-125900000D03*
X102100000Y-121100000D03*
X124600000Y-108200000D03*
X83600000Y-128700000D03*
X91200000Y-132600000D03*
%TO.N,/H7MCU/VCAP1*%
X103600000Y-92900000D03*
%TO.N,/+3.3V*%
X96600000Y-118900000D03*
X99300000Y-120200000D03*
X129000000Y-110800000D03*
X89400000Y-111600000D03*
X111300000Y-93400000D03*
X114000000Y-119300000D03*
X97300000Y-106100000D03*
X111500000Y-132500000D03*
X129600000Y-84300000D03*
X131100000Y-106800000D03*
X108700000Y-128000000D03*
X81700000Y-128700000D03*
X89100000Y-112900000D03*
X115400000Y-93300000D03*
X91200000Y-131100000D03*
X130200000Y-110900000D03*
X103800000Y-96100000D03*
X130700000Y-100800000D03*
X101700000Y-88100000D03*
X108500000Y-130100000D03*
X131300000Y-97400000D03*
X108800000Y-129200000D03*
X96500000Y-120000000D03*
X82600000Y-129600000D03*
X117300000Y-119400000D03*
X111500000Y-133600000D03*
X130300000Y-97600000D03*
X90900000Y-129900000D03*
X129100000Y-117100000D03*
X131300000Y-111100000D03*
X90400000Y-133800000D03*
X91200000Y-101900000D03*
X107400000Y-98300000D03*
X106900000Y-131800000D03*
X104100000Y-114300000D03*
X136600000Y-104300000D03*
X130300000Y-117300000D03*
X131900000Y-116700000D03*
X101300000Y-116200000D03*
X130500000Y-104500000D03*
X128900000Y-94500000D03*
X98600000Y-121100000D03*
X133500000Y-115300000D03*
X111500000Y-131400000D03*
X123600000Y-93200000D03*
%TO.N,/H7MCU/VCAP1*%
X94031977Y-102580579D03*
%TO.N,/H7MCU/VDDSMPS*%
X92300000Y-105000000D03*
%TO.N,/H7MCU/VLXSMPS*%
X95700000Y-100300000D03*
%TO.N,Net-(C48-Pad1)*%
X91900000Y-107900000D03*
X97500000Y-107200000D03*
%TO.N,/H7MCU/NRST*%
X103660002Y-109050000D03*
X142800000Y-94900000D03*
X148300000Y-113300000D03*
X114500000Y-109700000D03*
%TO.N,/H7MCU/LED_STAT*%
X99900000Y-113900000D03*
X100700000Y-121100000D03*
%TO.N,/H7MCU/SDMMC_CMD*%
X132400000Y-103600000D03*
X119100000Y-96100000D03*
%TO.N,/H7MCU/SDMMC_CK*%
X133000000Y-105500000D03*
X120200000Y-99200000D03*
%TO.N,/H7MCU/SDMMC_D3*%
X132700000Y-101700000D03*
X121300000Y-95800000D03*
%TO.N,/H7MCU/SDMMC_D2*%
X121600000Y-94600000D03*
X132600000Y-99000000D03*
%TO.N,/H7MCU/SWCLK*%
X122400000Y-93200000D03*
%TO.N,/USB_D+*%
X106628768Y-113828768D03*
%TO.N,/USB_D-*%
X107371232Y-114571232D03*
%TO.N,/H7MCU/SDMMC_D1*%
X132200000Y-108900000D03*
X122400000Y-104300000D03*
%TO.N,/H7MCU/SDMMC_D0*%
X123800000Y-104000000D03*
X132200000Y-106800000D03*
%TO.N,/STM32_3_RX*%
X120600000Y-114100000D03*
%TO.N,/STM32_3_TX*%
X109800000Y-99600000D03*
X119600000Y-113900000D03*
X109600000Y-95600000D03*
%TO.N,Net-(J2-PadB5)*%
X137200000Y-128100000D03*
%TO.N,Net-(J2-PadA5)*%
X134200000Y-128000000D03*
%TD*%
D62*
%TO.N,GND*%
X121620000Y-89500000D02*
X122120000Y-89000000D01*
X120600000Y-89500000D02*
X121620000Y-89500000D01*
%TO.N,/+3.3V*%
X126938357Y-88480000D02*
X127552786Y-89094429D01*
X125900000Y-88480000D02*
X126938357Y-88480000D01*
%TO.N,GND*%
X127400000Y-87500000D02*
X127400000Y-87600000D01*
X127400000Y-87600000D02*
X128000000Y-88200000D01*
X125900000Y-87520000D02*
X127380000Y-87520000D01*
X127380000Y-87520000D02*
X127400000Y-87500000D01*
X124300000Y-87620000D02*
X125800000Y-87620000D01*
X125800000Y-87620000D02*
X125900000Y-87520000D01*
D63*
X126837224Y-92125001D02*
X127280000Y-91682225D01*
X124661411Y-92125001D02*
X126837224Y-92125001D01*
X124550000Y-92013590D02*
X124661411Y-92125001D01*
X124550000Y-91075000D02*
X124550000Y-92013590D01*
%TO.N,/H7MCU/VCAP1*%
X124050000Y-91075000D02*
X124050000Y-89750000D01*
X124050000Y-89750000D02*
X124050000Y-88830000D01*
X125050000Y-91075000D02*
X125050000Y-90114998D01*
X125050000Y-90114998D02*
X124685002Y-89750000D01*
X124685002Y-89750000D02*
X124050000Y-89750000D01*
X124050000Y-88830000D02*
X124300000Y-88580000D01*
%TO.N,/+3.3V*%
X123550000Y-91075000D02*
X123550000Y-89470000D01*
X123550000Y-89470000D02*
X123080000Y-89000000D01*
%TO.N,GND*%
X123050000Y-91075000D02*
X123050000Y-90114998D01*
X123050000Y-90114998D02*
X122120000Y-89184998D01*
X122120000Y-89184998D02*
X122120000Y-89000000D01*
%TO.N,/H7MCU/VCAP1*%
X109025001Y-98325001D02*
X109025001Y-101525001D01*
X109025001Y-101525001D02*
X109025001Y-105425001D01*
X111000000Y-97800000D02*
X111000000Y-99550002D01*
X111000000Y-99550002D02*
X109025001Y-101525001D01*
X124325001Y-94174999D02*
X123500000Y-95000000D01*
X124325001Y-92425001D02*
X124325001Y-94174999D01*
X124050000Y-92150000D02*
X124325001Y-92425001D01*
X124050000Y-91075000D02*
X124050000Y-92150000D01*
X103600000Y-92900000D02*
X109025001Y-98325001D01*
X109025001Y-105425001D02*
X111200000Y-107600000D01*
%TO.N,GND*%
X97880000Y-102900000D02*
X97880000Y-101600000D01*
X95080000Y-103600000D02*
X96380000Y-103600000D01*
X96380000Y-103600000D02*
X96900000Y-104120000D01*
%TO.N,/H7MCU/VCAP1*%
X94120000Y-103600000D02*
X94120000Y-102668602D01*
X94120000Y-102668602D02*
X94031977Y-102580579D01*
X94862500Y-101400000D02*
X94862500Y-101750056D01*
X94862500Y-101750056D02*
X94031977Y-102580579D01*
D64*
%TO.N,/H7MCU/VLXSMPS*%
X96300000Y-102900000D02*
X96000000Y-102600000D01*
X96920000Y-102900000D02*
X96300000Y-102900000D01*
X92737500Y-101400000D02*
X93837500Y-100300000D01*
X93837500Y-100300000D02*
X95700000Y-100300000D01*
%TO.N,/H7MCU/VCAP1*%
X96920000Y-101600000D02*
X95062500Y-101600000D01*
X95062500Y-101600000D02*
X94862500Y-101400000D01*
X100000000Y-102200000D02*
X99700000Y-102500000D01*
X100000000Y-101702120D02*
X100000000Y-102200000D01*
X101575000Y-101050000D02*
X100652120Y-101050000D01*
X100652120Y-101050000D02*
X100000000Y-101702120D01*
%TO.N,GND*%
X97980000Y-100400000D02*
X97980000Y-101500000D01*
X97980000Y-101500000D02*
X97880000Y-101600000D01*
X99200000Y-100520000D02*
X98100000Y-100520000D01*
X98100000Y-100520000D02*
X97980000Y-100400000D01*
%TO.N,/H7MCU/VDDSMPS*%
X101575000Y-100550000D02*
X100445000Y-100550000D01*
X100445000Y-100550000D02*
X99515000Y-101480000D01*
X99515000Y-101480000D02*
X99200000Y-101480000D01*
X105250000Y-100550000D02*
X106400000Y-101700000D01*
X106400000Y-101700000D02*
X106700000Y-101700000D01*
%TO.N,/+3.3V*%
X107050000Y-99050000D02*
X107400000Y-98700000D01*
X107400000Y-98700000D02*
X107400000Y-98300000D01*
%TO.N,GND*%
X105150000Y-99550000D02*
X105550000Y-99550000D01*
X108300000Y-99900000D02*
X107950000Y-99550000D01*
X107950000Y-99550000D02*
X105550000Y-99550000D01*
X105550000Y-99550000D02*
X105750000Y-99550000D01*
%TO.N,/H7MCU/VLXSMPS*%
X106450000Y-100050000D02*
X106800000Y-100400000D01*
X101575000Y-100050000D02*
X106450000Y-100050000D01*
%TO.N,GND*%
X126680000Y-118400000D02*
X126900000Y-118400000D01*
X126900000Y-118400000D02*
X127700000Y-119200000D01*
X118980000Y-118200000D02*
X118980000Y-118980000D01*
X118980000Y-118980000D02*
X119400000Y-119400000D01*
%TO.N,/+3.3V*%
X118200000Y-119300000D02*
X118200000Y-118380000D01*
X118200000Y-118380000D02*
X118020000Y-118200000D01*
X116780000Y-118200000D02*
X118020000Y-118200000D01*
%TO.N,GND*%
X123750000Y-119200000D02*
X124400000Y-119200000D01*
X124400000Y-119200000D02*
X125300000Y-120100000D01*
X123750000Y-119200000D02*
X123750000Y-119950000D01*
X123750000Y-119950000D02*
X124600000Y-120800000D01*
%TO.N,/+3.3V*%
X125720000Y-118400000D02*
X125720000Y-119020000D01*
X125720000Y-119020000D02*
X126100000Y-119400000D01*
%TO.N,GND*%
X123750000Y-119200000D02*
X123750000Y-120850000D01*
X123750000Y-120850000D02*
X123500000Y-121100000D01*
%TO.N,/+3.3V*%
X123050000Y-117450000D02*
X123500000Y-117900000D01*
X123050000Y-116525000D02*
X123050000Y-117450000D01*
X125220000Y-117900000D02*
X125720000Y-118400000D01*
X123500000Y-117900000D02*
X125220000Y-117900000D01*
%TO.N,GND*%
X121550000Y-116525000D02*
X121550000Y-115550000D01*
X121550000Y-115550000D02*
X122300000Y-114800000D01*
X122300000Y-114800000D02*
X122500000Y-114800000D01*
%TO.N,/H7MCU/VCAP1*%
X122050000Y-116525000D02*
X122050000Y-118200000D01*
X122050000Y-118200000D02*
X121050000Y-119200000D01*
X121050000Y-116525000D02*
X121050000Y-119200000D01*
X121400000Y-113789998D02*
X121400000Y-114800000D01*
X121050000Y-115150000D02*
X121050000Y-116525000D01*
X101575000Y-101050000D02*
X104639998Y-101050000D01*
X120010002Y-112400000D02*
X121400000Y-113789998D01*
X121400000Y-114800000D02*
X121050000Y-115150000D01*
X104639998Y-101050000D02*
X111189998Y-107600000D01*
X111189998Y-107600000D02*
X111200000Y-107600000D01*
X118500000Y-112400000D02*
X120010002Y-112400000D01*
%TO.N,/H7MCU/VDDSMPS*%
X102850000Y-100550000D02*
X105250000Y-100550000D01*
D65*
%TO.N,/+3.3V*%
X136600000Y-104300000D02*
X136600000Y-103300000D01*
%TO.N,GND*%
X136500000Y-106500000D02*
X136500000Y-107300000D01*
X136500000Y-107300000D02*
X136700000Y-107500000D01*
%TO.N,/5V*%
X88300000Y-134900000D02*
X89149990Y-135749990D01*
X85900000Y-131725000D02*
X88300000Y-134125000D01*
X97300010Y-135749990D02*
X98600000Y-134450000D01*
X88300000Y-134125000D02*
X88300000Y-134900000D01*
X89149990Y-135749990D02*
X97300010Y-135749990D01*
%TO.N,GND*%
X83500000Y-134300000D02*
X83000000Y-134300000D01*
X83000000Y-134300000D02*
X82500000Y-133800000D01*
X83500000Y-135400000D02*
X82900000Y-135400000D01*
X82900000Y-135400000D02*
X82500000Y-135000000D01*
X85900000Y-134675000D02*
X83875000Y-134675000D01*
X83875000Y-134675000D02*
X83500000Y-134300000D01*
X100000000Y-130500000D02*
X99100000Y-130500000D01*
X99100000Y-130500000D02*
X98800000Y-130200000D01*
X99100000Y-131200000D02*
X99300000Y-131200000D01*
X99300000Y-131200000D02*
X100000000Y-130500000D01*
X98100000Y-131100000D02*
X98100000Y-130900000D01*
X98100000Y-130900000D02*
X98800000Y-130200000D01*
X98600000Y-132550000D02*
X98600000Y-131700000D01*
X98600000Y-131700000D02*
X99100000Y-131200000D01*
X98600000Y-132550000D02*
X98600000Y-131600000D01*
X98600000Y-131600000D02*
X98100000Y-131100000D01*
X111300000Y-134900000D02*
X111500000Y-134900000D01*
D64*
X106719998Y-88900000D02*
X106890000Y-88900000D01*
D65*
X132900000Y-112700000D02*
X132900000Y-112875000D01*
D64*
X105050000Y-91075000D02*
X105050000Y-90569998D01*
D65*
X140920000Y-130520000D02*
X141100000Y-130700000D01*
X114800000Y-133300000D02*
X114500000Y-133000000D01*
D64*
X105200000Y-132875000D02*
X105200000Y-132225000D01*
D65*
X133500000Y-113700000D02*
X132075000Y-113700000D01*
D64*
X113050000Y-116525000D02*
X113050000Y-117612876D01*
D66*
X128550000Y-123950000D02*
X128550000Y-123150000D01*
D65*
X95400000Y-116180000D02*
X95400000Y-117400000D01*
X88275000Y-86200000D02*
X89775000Y-84700000D01*
X115850000Y-134950000D02*
X114800000Y-133900000D01*
X105200000Y-132225000D02*
X105200000Y-131600000D01*
D66*
X84800000Y-112200000D02*
X88400000Y-108600000D01*
D65*
X102875000Y-135200000D02*
X102875000Y-133525000D01*
X95400000Y-116600000D02*
X94700000Y-117300000D01*
X134875000Y-106425000D02*
X136425000Y-106425000D01*
D64*
X132100000Y-129600000D02*
X131180000Y-130520000D01*
D65*
X92350000Y-113350000D02*
X91000000Y-114700000D01*
D62*
X127025000Y-104550000D02*
X125650000Y-104550000D01*
D64*
X104250000Y-98550000D02*
X105350000Y-98550000D01*
D65*
X111125000Y-135075000D02*
X111300000Y-134900000D01*
D67*
X96175000Y-122700000D02*
X96175000Y-121675000D01*
D65*
X101420000Y-119700000D02*
X101220000Y-119900000D01*
X97880000Y-102900000D02*
X97880000Y-104000000D01*
D64*
X127025000Y-99550000D02*
X128675000Y-99550000D01*
X144150000Y-122850000D02*
X144150000Y-123550000D01*
D65*
X97400000Y-116450000D02*
X95670000Y-116450000D01*
D64*
X101575000Y-98550000D02*
X104250000Y-98550000D01*
D66*
X131180000Y-134700000D02*
X129700000Y-134700000D01*
D64*
X143500000Y-123500000D02*
X144150000Y-122850000D01*
D65*
X128100000Y-133300000D02*
X128500000Y-132900000D01*
D64*
X138600000Y-129600000D02*
X138900000Y-129600000D01*
D65*
X149500000Y-128000000D02*
X149800000Y-127700000D01*
X105200000Y-131600000D02*
X105500000Y-131300000D01*
D64*
X116050000Y-117970000D02*
X115820000Y-118200000D01*
D65*
X128100000Y-133800000D02*
X128100000Y-133300000D01*
X98925000Y-132225000D02*
X98600000Y-132550000D01*
X136625000Y-109575000D02*
X136700000Y-109500000D01*
X132900000Y-112875000D02*
X131950000Y-113825000D01*
X148525000Y-128000000D02*
X148525000Y-128825000D01*
D67*
X96175000Y-122700000D02*
X95900000Y-122700000D01*
D66*
X127350000Y-135150000D02*
X127350000Y-134550000D01*
D65*
X89775000Y-84700000D02*
X88500000Y-84700000D01*
D66*
X128550000Y-123950000D02*
X128550000Y-122850000D01*
D63*
X124450000Y-135150000D02*
X124175000Y-134875000D01*
D64*
X128720000Y-104550000D02*
X128950000Y-104320000D01*
X116050000Y-116525000D02*
X116050000Y-117970000D01*
D65*
X139820000Y-130520000D02*
X140900000Y-131600000D01*
X132075000Y-113700000D02*
X131950000Y-113825000D01*
X101420000Y-118500000D02*
X101420000Y-119700000D01*
X91400000Y-114250000D02*
X91400000Y-115500000D01*
D63*
X120400000Y-134875000D02*
X121175000Y-134875000D01*
D65*
X95400000Y-116180000D02*
X95400000Y-116600000D01*
X148525000Y-128000000D02*
X149200000Y-128000000D01*
X109050000Y-135075000D02*
X111125000Y-135075000D01*
D64*
X128720000Y-109050000D02*
X128950000Y-108820000D01*
X111880000Y-88900000D02*
X112050000Y-89070000D01*
D65*
X99700000Y-89300000D02*
X99500000Y-89500000D01*
D64*
X122550000Y-116525000D02*
X122550000Y-114850000D01*
D65*
X129880000Y-107650000D02*
X129880000Y-108550000D01*
X102225000Y-134175000D02*
X103200000Y-133200000D01*
D66*
X131180000Y-130520000D02*
X131180000Y-130820000D01*
D64*
X102225000Y-131200000D02*
X102225000Y-132225000D01*
X105550000Y-91075000D02*
X105550000Y-92650000D01*
D65*
X139820000Y-134380000D02*
X141200000Y-133000000D01*
D64*
X105050000Y-91075000D02*
X105050000Y-92450000D01*
D65*
X148525000Y-128825000D02*
X149000000Y-129300000D01*
D66*
X130825000Y-112700000D02*
X131950000Y-113825000D01*
X121150000Y-130700000D02*
X121150000Y-129250000D01*
X128485000Y-129600000D02*
X130000000Y-129600000D01*
X128550000Y-123150000D02*
X128000000Y-122600000D01*
D62*
X127025000Y-99550000D02*
X125750000Y-99550000D01*
D66*
X82200000Y-112200000D02*
X84800000Y-112200000D01*
D64*
X144150000Y-116350000D02*
X144450000Y-116350000D01*
D66*
X131180000Y-130820000D02*
X130200000Y-131800000D01*
D64*
X122550000Y-114850000D02*
X122500000Y-114800000D01*
X127025000Y-109050000D02*
X128720000Y-109050000D01*
D65*
X92350000Y-113300000D02*
X91400000Y-114250000D01*
X120250000Y-129250000D02*
X119800000Y-128800000D01*
D66*
X95425000Y-84700000D02*
X96000000Y-84700000D01*
D64*
X81700000Y-90900000D02*
X79640000Y-90900000D01*
X125150000Y-109050000D02*
X125100000Y-109100000D01*
X98615000Y-111120000D02*
X98300000Y-111120000D01*
D65*
X101420000Y-118500000D02*
X100600000Y-118500000D01*
D64*
X127025000Y-103050000D02*
X128930000Y-103050000D01*
D65*
X139820000Y-134700000D02*
X141100000Y-134700000D01*
D64*
X102225000Y-135200000D02*
X103525000Y-135200000D01*
D63*
X117275000Y-134875000D02*
X117200000Y-134950000D01*
D64*
X101575000Y-104550000D02*
X100270000Y-104550000D01*
X146150000Y-116350000D02*
X146400000Y-116100000D01*
D67*
X129880000Y-95220000D02*
X130500000Y-94600000D01*
D65*
X114800000Y-133900000D02*
X114800000Y-133300000D01*
X105200000Y-132875000D02*
X103525000Y-132875000D01*
D64*
X129550000Y-112550000D02*
X129700000Y-112700000D01*
X103550000Y-118450000D02*
X104500000Y-119400000D01*
D67*
X129880000Y-95750000D02*
X129880000Y-95220000D01*
D64*
X127025000Y-109050000D02*
X125150000Y-109050000D01*
X100270000Y-104550000D02*
X99840000Y-104120000D01*
X115980000Y-88900000D02*
X116600000Y-88900000D01*
D63*
X120400000Y-133525000D02*
X121175000Y-133525000D01*
D64*
X144150000Y-123550000D02*
X144900000Y-124300000D01*
X101575000Y-111550000D02*
X99045000Y-111550000D01*
X141100000Y-120660000D02*
X141960000Y-120660000D01*
D66*
X130380010Y-135499990D02*
X129900000Y-135499990D01*
D65*
X98000000Y-104120000D02*
X96900000Y-104120000D01*
X95400000Y-117400000D02*
X95700000Y-117700000D01*
D64*
X116050000Y-92750000D02*
X116400000Y-93100000D01*
D63*
X122525000Y-134875000D02*
X121850000Y-134200000D01*
D65*
X100800000Y-119900000D02*
X100300000Y-119400000D01*
X112520000Y-119480000D02*
X112500000Y-119500000D01*
X112520000Y-118200000D02*
X112520000Y-119480000D01*
D64*
X127025000Y-104550000D02*
X128720000Y-104550000D01*
D63*
X121175000Y-133525000D02*
X121850000Y-134200000D01*
D65*
X88500000Y-84700000D02*
X87800000Y-84000000D01*
X115350000Y-134950000D02*
X115200000Y-135100000D01*
D64*
X103239998Y-95550000D02*
X103689998Y-95100000D01*
D65*
X105200000Y-134175000D02*
X108150000Y-134175000D01*
X98720000Y-103400000D02*
X98000000Y-104120000D01*
X95670000Y-116450000D02*
X95400000Y-116180000D01*
X134875000Y-109575000D02*
X136625000Y-109575000D01*
D64*
X128675000Y-99550000D02*
X129200000Y-100075000D01*
D65*
X102875000Y-133525000D02*
X103200000Y-133200000D01*
D66*
X96700000Y-84700000D02*
X97600000Y-83800000D01*
D63*
X123300000Y-134875000D02*
X122525000Y-134875000D01*
D66*
X131180000Y-134700000D02*
X130380010Y-135499990D01*
D64*
X103550000Y-116525000D02*
X103550000Y-118450000D01*
D66*
X95425000Y-84700000D02*
X96700000Y-84700000D01*
D62*
X123650000Y-106550000D02*
X123400000Y-106800000D01*
D63*
X121175000Y-134875000D02*
X121625000Y-134425000D01*
D65*
X92350000Y-113300000D02*
X92350000Y-113350000D01*
X99300000Y-93700000D02*
X99200000Y-93600000D01*
D64*
X143500000Y-124500000D02*
X143500000Y-123500000D01*
X105550000Y-92650000D02*
X105400000Y-92800000D01*
D65*
X130050000Y-108820000D02*
X130100000Y-108770000D01*
D62*
X125650000Y-104550000D02*
X123400000Y-106800000D01*
D66*
X126100000Y-135150000D02*
X127350000Y-135150000D01*
D65*
X87900000Y-86200000D02*
X88275000Y-86200000D01*
D64*
X127025000Y-112550000D02*
X129550000Y-112550000D01*
D65*
X139820000Y-130520000D02*
X140920000Y-130520000D01*
X98000000Y-104120000D02*
X98000000Y-104080000D01*
D64*
X104550000Y-116525000D02*
X104550000Y-117930000D01*
D67*
X96950000Y-116450000D02*
X95700000Y-117700000D01*
D64*
X103689998Y-95100000D02*
X104400000Y-95100000D01*
D65*
X129880000Y-108550000D02*
X130100000Y-108770000D01*
D66*
X128050000Y-135150000D02*
X128200000Y-135000000D01*
D64*
X116600000Y-88900000D02*
X117200000Y-89500000D01*
D67*
X96175000Y-121675000D02*
X95800000Y-121300000D01*
D66*
X128550000Y-122850000D02*
X128800000Y-122600000D01*
D64*
X101575000Y-95550000D02*
X103239998Y-95550000D01*
D65*
X97680000Y-93980000D02*
X97500000Y-93800000D01*
X95725000Y-85000000D02*
X95425000Y-84700000D01*
X97880000Y-104000000D02*
X98000000Y-104120000D01*
D64*
X138900000Y-129600000D02*
X139820000Y-130520000D01*
D65*
X111500000Y-134900000D02*
X112200000Y-135600000D01*
D64*
X116050000Y-91075000D02*
X116050000Y-92750000D01*
X112050000Y-89070000D02*
X112050000Y-91075000D01*
X79300000Y-90560000D02*
X81140000Y-90560000D01*
D65*
X141100000Y-134700000D02*
X141800000Y-135400000D01*
X128950000Y-108820000D02*
X130050000Y-108820000D01*
D64*
X112520000Y-118142876D02*
X112520000Y-118200000D01*
D65*
X89775000Y-84700000D02*
X88200000Y-84700000D01*
D64*
X101575000Y-99550000D02*
X105150000Y-99550000D01*
X104820000Y-118200000D02*
X104820000Y-119080000D01*
D65*
X139820000Y-134700000D02*
X141300000Y-134700000D01*
X141300000Y-134700000D02*
X141800000Y-134200000D01*
X128950000Y-104320000D02*
X128950000Y-103030000D01*
D66*
X96000000Y-84700000D02*
X97500000Y-86200000D01*
D64*
X141960000Y-120660000D02*
X144150000Y-122850000D01*
X102225000Y-132225000D02*
X103200000Y-133200000D01*
X105050000Y-90569998D02*
X106719998Y-88900000D01*
D65*
X99100000Y-103400000D02*
X98720000Y-103400000D01*
X103525000Y-132875000D02*
X103200000Y-133200000D01*
D64*
X105050000Y-92450000D02*
X105400000Y-92800000D01*
D65*
X97680000Y-94900000D02*
X97680000Y-93980000D01*
D66*
X127350000Y-135150000D02*
X128050000Y-135150000D01*
D65*
X117200000Y-134950000D02*
X115350000Y-134950000D01*
D63*
X120400000Y-134425000D02*
X120400000Y-135325000D01*
D62*
X125750000Y-99550000D02*
X124700000Y-100600000D01*
D65*
X98300000Y-110500000D02*
X99300000Y-109500000D01*
D64*
X144450000Y-116350000D02*
X145600000Y-115200000D01*
X99045000Y-111550000D02*
X98615000Y-111120000D01*
D65*
X115820000Y-119280000D02*
X115700000Y-119400000D01*
X115820000Y-118200000D02*
X115820000Y-119280000D01*
X101200000Y-132225000D02*
X98925000Y-132225000D01*
D64*
X132400000Y-129600000D02*
X132100000Y-129600000D01*
X104820000Y-119080000D02*
X104500000Y-119400000D01*
D65*
X100920000Y-89300000D02*
X99700000Y-89300000D01*
X98380000Y-103400000D02*
X97880000Y-102900000D01*
X117200000Y-134950000D02*
X115850000Y-134950000D01*
D64*
X144150000Y-116350000D02*
X146150000Y-116350000D01*
D67*
X97400000Y-116450000D02*
X96950000Y-116450000D01*
D66*
X128700000Y-129600000D02*
X130500000Y-127800000D01*
D65*
X100600000Y-118500000D02*
X100400000Y-118300000D01*
X121150000Y-129250000D02*
X120250000Y-129250000D01*
X101200000Y-132225000D02*
X102225000Y-132225000D01*
D64*
X79640000Y-90900000D02*
X79300000Y-90560000D01*
D65*
X98300000Y-111120000D02*
X98300000Y-110500000D01*
X103525000Y-135200000D02*
X103525000Y-133525000D01*
D64*
X105350000Y-98550000D02*
X106700000Y-97200000D01*
D65*
X121625000Y-134425000D02*
X121625000Y-133975000D01*
X108150000Y-134175000D02*
X109050000Y-135075000D01*
X111880000Y-88900000D02*
X112920000Y-88900000D01*
X104175000Y-132225000D02*
X103200000Y-133200000D01*
D66*
X129700000Y-134700000D02*
X129600000Y-134600000D01*
D63*
X120400000Y-134875000D02*
X117275000Y-134875000D01*
X121625000Y-134425000D02*
X121850000Y-134200000D01*
D66*
X129700000Y-112700000D02*
X130825000Y-112700000D01*
D65*
X149200000Y-128000000D02*
X150000000Y-128800000D01*
D66*
X128485000Y-129600000D02*
X128700000Y-129600000D01*
D64*
X128930000Y-103050000D02*
X128950000Y-103030000D01*
X104550000Y-117930000D02*
X104820000Y-118200000D01*
D66*
X121150000Y-129250000D02*
X121150000Y-128350000D01*
D63*
X124175000Y-134875000D02*
X123300000Y-134875000D01*
D65*
X99100000Y-103400000D02*
X98380000Y-103400000D01*
D64*
X112920000Y-88900000D02*
X112920000Y-88520000D01*
D66*
X127350000Y-134550000D02*
X128100000Y-133800000D01*
D65*
X99300000Y-94720000D02*
X99300000Y-93700000D01*
D62*
X127025000Y-106550000D02*
X123650000Y-106550000D01*
D65*
X148525000Y-128000000D02*
X149500000Y-128000000D01*
D64*
X81140000Y-90560000D02*
X81900000Y-89800000D01*
D65*
X121625000Y-133975000D02*
X122000000Y-133600000D01*
X88200000Y-84700000D02*
X87700000Y-85200000D01*
X105200000Y-132225000D02*
X104175000Y-132225000D01*
D63*
X126100000Y-135150000D02*
X124450000Y-135150000D01*
D65*
X101220000Y-119900000D02*
X100800000Y-119900000D01*
D67*
X95900000Y-122700000D02*
X94700000Y-121500000D01*
D64*
X99840000Y-104120000D02*
X98000000Y-104120000D01*
X112920000Y-88520000D02*
X111800000Y-87400000D01*
X113050000Y-117612876D02*
X112520000Y-118142876D01*
D65*
X139820000Y-134700000D02*
X139820000Y-134380000D01*
D66*
X130000000Y-129600000D02*
X130200000Y-129400000D01*
D65*
X102225000Y-135200000D02*
X102225000Y-134175000D01*
X103525000Y-133525000D02*
X103200000Y-133200000D01*
X136425000Y-106425000D02*
X136500000Y-106500000D01*
D66*
%TO.N,Net-(BT1-Pad1)*%
X82200000Y-122200000D02*
X78300000Y-126100000D01*
D65*
X75800000Y-106841998D02*
X75800000Y-116800000D01*
X79091999Y-103549999D02*
X75800000Y-106841998D01*
D64*
X86100000Y-104300000D02*
X91150001Y-99249999D01*
X103139998Y-96550000D02*
X101575000Y-96550000D01*
X95149999Y-99249999D02*
X95280331Y-99380331D01*
D65*
X81449999Y-103549999D02*
X79091999Y-103549999D01*
X79100000Y-120100000D02*
X82200000Y-120100000D01*
X75800000Y-116800000D02*
X79100000Y-120100000D01*
D66*
X82200000Y-120100000D02*
X82200000Y-122200000D01*
D64*
X82200000Y-104300000D02*
X86100000Y-104300000D01*
X105200000Y-97100000D02*
X103689998Y-97100000D01*
X103689998Y-97100000D02*
X103139998Y-96550000D01*
D65*
X82200000Y-104300000D02*
X81449999Y-103549999D01*
D64*
X91150001Y-99249999D02*
X95149999Y-99249999D01*
%TO.N,Net-(C1-Pad2)*%
X93199998Y-97999998D02*
X91300000Y-96100000D01*
X91300000Y-96100000D02*
X89400000Y-96100000D01*
X95500001Y-97999998D02*
X93199998Y-97999998D01*
X89400000Y-96100000D02*
X88700000Y-96800000D01*
X95900000Y-97599999D02*
X95500001Y-97999998D01*
%TO.N,Net-(C2-Pad1)*%
X94250001Y-95350001D02*
X92000000Y-93100000D01*
X94250001Y-96900000D02*
X94250001Y-95350001D01*
%TO.N,/v_DIV_OUT*%
X89100000Y-107000000D02*
X87500000Y-105400000D01*
X89100000Y-107400000D02*
X89100000Y-107000000D01*
X103950000Y-110550000D02*
X104000000Y-110500000D01*
X86169669Y-99969669D02*
X79300000Y-93100000D01*
X101575000Y-110550000D02*
X103950000Y-110550000D01*
X86169669Y-103169669D02*
X86169669Y-99969669D01*
D66*
%TO.N,/5V*%
X125900000Y-123637500D02*
X125900000Y-122800000D01*
D65*
X124400000Y-130600000D02*
X123150000Y-130600000D01*
D64*
X106400000Y-135200000D02*
X106500000Y-135300000D01*
D66*
X123050000Y-130700000D02*
X123050000Y-128350000D01*
X123050000Y-125150000D02*
X124562500Y-123637500D01*
D67*
X98850000Y-134450000D02*
X98600000Y-134450000D01*
D63*
X123074999Y-135825001D02*
X114425001Y-135825001D01*
D66*
X123050000Y-128350000D02*
X123050000Y-125150000D01*
X117400000Y-126000000D02*
X113300000Y-126000000D01*
X124562500Y-123637500D02*
X125900000Y-123637500D01*
X111000000Y-128300000D02*
X111000000Y-128900000D01*
D67*
X100425000Y-132875000D02*
X98850000Y-134450000D01*
D65*
X118700000Y-129700000D02*
X119600000Y-130600000D01*
D63*
X123300000Y-133525000D02*
X123300000Y-133075000D01*
D65*
X123150000Y-130600000D02*
X123050000Y-130700000D01*
D67*
X101200000Y-132875000D02*
X100425000Y-132875000D01*
D66*
X118185000Y-129700000D02*
X118185000Y-126785000D01*
D63*
X113500000Y-134900000D02*
X113500000Y-131100000D01*
D67*
X99850000Y-134450000D02*
X100700000Y-135300000D01*
D66*
X118185000Y-126785000D02*
X117400000Y-126000000D01*
X113300000Y-126000000D02*
X111000000Y-128300000D01*
D64*
X104175000Y-135200000D02*
X106400000Y-135200000D01*
D63*
X113500000Y-131100000D02*
X111300000Y-128900000D01*
D64*
X101200000Y-134800000D02*
X100700000Y-135300000D01*
D65*
X118185000Y-129700000D02*
X118700000Y-129700000D01*
D67*
X98600000Y-134450000D02*
X99850000Y-134450000D01*
D63*
X111300000Y-128900000D02*
X111000000Y-128900000D01*
X123300000Y-130950000D02*
X123050000Y-130700000D01*
X123300000Y-135325000D02*
X123300000Y-135600000D01*
D64*
X101200000Y-134175000D02*
X101200000Y-134800000D01*
D63*
X114425001Y-135825001D02*
X113500000Y-134900000D01*
D66*
X125900000Y-122800000D02*
X128300000Y-120400000D01*
D63*
X123300000Y-135600000D02*
X123074999Y-135825001D01*
D64*
X101200000Y-132875000D02*
X101200000Y-134175000D01*
D63*
X123300000Y-133075000D02*
X123300000Y-130950000D01*
D64*
%TO.N,/VPOS*%
X113500000Y-130205002D02*
X113500000Y-129900000D01*
D63*
X118125000Y-133975000D02*
X117200000Y-133050000D01*
D64*
X117200000Y-133050000D02*
X116344998Y-133050000D01*
X116344998Y-133050000D02*
X113500000Y-130205002D01*
D63*
X120400000Y-133975000D02*
X118125000Y-133975000D01*
D64*
%TO.N,/VNEG*%
X91434315Y-100000000D02*
X89900000Y-101534315D01*
X90150001Y-104950001D02*
X89900000Y-104700000D01*
X127300000Y-127964998D02*
X126235002Y-126900000D01*
X89900000Y-101534315D02*
X89900000Y-104700000D01*
X126100000Y-133250000D02*
X127300000Y-132050000D01*
X126235002Y-126900000D02*
X124700000Y-126900000D01*
X91400000Y-122334315D02*
X90150001Y-121084316D01*
X127300000Y-132050000D02*
X127300000Y-127964998D01*
D63*
X123300000Y-134425000D02*
X124925000Y-134425000D01*
X124925000Y-134425000D02*
X126100000Y-133250000D01*
D64*
X91400000Y-122900000D02*
X91400000Y-122334315D01*
X90150001Y-121084316D02*
X90150001Y-104950001D01*
X92000000Y-100000000D02*
X91434315Y-100000000D01*
%TO.N,/+3.3V*%
X128500000Y-113400000D02*
X128500000Y-114200000D01*
D65*
X131100000Y-97600000D02*
X131300000Y-97400000D01*
X96900000Y-105080000D02*
X96900000Y-105700000D01*
X128920000Y-95750000D02*
X128920000Y-94520000D01*
D66*
X83600000Y-127400000D02*
X82300000Y-126100000D01*
D64*
X113480000Y-118780000D02*
X114000000Y-119300000D01*
X105050000Y-117412876D02*
X105780000Y-118142876D01*
D66*
X89650000Y-131500000D02*
X90800000Y-131500000D01*
D65*
X131540000Y-104500000D02*
X130500000Y-104500000D01*
D64*
X128500000Y-114200000D02*
X129700000Y-115400000D01*
D65*
X97800000Y-119887500D02*
X96612500Y-119887500D01*
X127800000Y-83900000D02*
X129200000Y-83900000D01*
D66*
X89650000Y-133050000D02*
X90400000Y-133800000D01*
D64*
X127025000Y-113050000D02*
X128150000Y-113050000D01*
X103550000Y-89660000D02*
X103190000Y-89300000D01*
D65*
X96500000Y-120000000D02*
X96500000Y-119000000D01*
X131950000Y-115375000D02*
X131950000Y-116650000D01*
D64*
X110920000Y-89439998D02*
X111550000Y-90069998D01*
D65*
X96900000Y-105700000D02*
X97300000Y-106100000D01*
X98000000Y-105080000D02*
X98380000Y-105080000D01*
D66*
X89650000Y-131500000D02*
X89650000Y-131150000D01*
X90100000Y-131500000D02*
X91200000Y-132600000D01*
D65*
X131950000Y-115375000D02*
X129725000Y-115375000D01*
X103190000Y-89300000D02*
X101880000Y-89300000D01*
D64*
X128720000Y-105050000D02*
X128950000Y-105280000D01*
D65*
X96500000Y-119000000D02*
X96600000Y-118900000D01*
D64*
X113480000Y-118200000D02*
X113480000Y-118780000D01*
D65*
X106100000Y-118200000D02*
X106900000Y-119000000D01*
X129725000Y-115375000D02*
X129700000Y-115400000D01*
D64*
X127025000Y-108550000D02*
X128020000Y-108550000D01*
D66*
X89650000Y-131150000D02*
X90900000Y-129900000D01*
D64*
X116780000Y-118200000D02*
X116780000Y-118880000D01*
X101575000Y-96050000D02*
X103750000Y-96050000D01*
D65*
X130900000Y-102500000D02*
X130700000Y-102700000D01*
D66*
X148487500Y-126100000D02*
X149700000Y-126100000D01*
D64*
X105050000Y-116525000D02*
X105050000Y-117412876D01*
X128150000Y-113050000D02*
X128500000Y-113400000D01*
D65*
X131240000Y-106940000D02*
X131100000Y-106800000D01*
D64*
X115020000Y-89539998D02*
X115550000Y-90069998D01*
D65*
X96900000Y-105080000D02*
X98000000Y-105080000D01*
D66*
X108800000Y-129200000D02*
X107912500Y-129200000D01*
D65*
X131590000Y-99950000D02*
X131550000Y-99950000D01*
X102180000Y-121020000D02*
X102100000Y-121100000D01*
D66*
X82700000Y-129500000D02*
X82600000Y-129600000D01*
X90800000Y-131500000D02*
X91200000Y-131100000D01*
D64*
X116550000Y-117970000D02*
X116780000Y-118200000D01*
X115020000Y-88900000D02*
X115020000Y-89539998D01*
X111550000Y-90069998D02*
X111550000Y-91075000D01*
X127025000Y-96050000D02*
X128620000Y-96050000D01*
D65*
X102380000Y-118500000D02*
X102380000Y-119700000D01*
X96612500Y-119887500D02*
X96500000Y-120000000D01*
D66*
X107412500Y-129012500D02*
X108500000Y-130100000D01*
D65*
X128950000Y-109780000D02*
X128950000Y-110750000D01*
D66*
X109050000Y-132125000D02*
X110775000Y-132125000D01*
D65*
X131550000Y-99950000D02*
X130700000Y-100800000D01*
D64*
X99850000Y-105050000D02*
X99100000Y-105800000D01*
D66*
X81700000Y-126700000D02*
X82300000Y-126100000D01*
D64*
X128020000Y-108550000D02*
X128920000Y-107650000D01*
D65*
X113880000Y-88900000D02*
X115020000Y-88900000D01*
X130100000Y-110800000D02*
X130200000Y-110900000D01*
D64*
X104539998Y-99050000D02*
X107050000Y-99050000D01*
D65*
X97800000Y-119887500D02*
X97800000Y-120300000D01*
X130300000Y-97600000D02*
X131100000Y-97600000D01*
X131950000Y-115375000D02*
X133425000Y-115375000D01*
D66*
X91112500Y-103300000D02*
X91112500Y-101987500D01*
D64*
X101575000Y-114550000D02*
X101575000Y-115925000D01*
D66*
X91112500Y-101987500D02*
X91200000Y-101900000D01*
X107412500Y-128700000D02*
X108000000Y-128700000D01*
D65*
X129700000Y-115400000D02*
X129700000Y-116500000D01*
X101880000Y-89300000D02*
X101880000Y-88280000D01*
D64*
X101575000Y-114550000D02*
X103850000Y-114550000D01*
X127025000Y-109550000D02*
X128720000Y-109550000D01*
D66*
X82700000Y-126500000D02*
X82300000Y-126100000D01*
D64*
X127025000Y-98550000D02*
X129175000Y-98550000D01*
D65*
X105780000Y-118200000D02*
X106100000Y-118200000D01*
D64*
X127025000Y-108050000D02*
X128520000Y-108050000D01*
X127025000Y-108550000D02*
X125660002Y-108550000D01*
X113550000Y-116525000D02*
X113550000Y-118130000D01*
X123550000Y-91075000D02*
X123550000Y-93150000D01*
D62*
X123600000Y-91525000D02*
X123600000Y-93200000D01*
D65*
X131950000Y-116650000D02*
X131900000Y-116700000D01*
D64*
X128520000Y-108050000D02*
X128920000Y-107650000D01*
X115550000Y-91075000D02*
X115550000Y-93150000D01*
D65*
X128920000Y-94520000D02*
X128900000Y-94500000D01*
X129720000Y-105280000D02*
X130500000Y-104500000D01*
D66*
X89650000Y-131500000D02*
X89650000Y-133050000D01*
D64*
X128635000Y-102070000D02*
X128950000Y-102070000D01*
D65*
X102180000Y-119900000D02*
X102180000Y-121020000D01*
D64*
X123550000Y-93150000D02*
X123600000Y-93200000D01*
X128720000Y-109550000D02*
X128950000Y-109780000D01*
X127025000Y-99050000D02*
X128675000Y-99050000D01*
X111550000Y-93150000D02*
X111300000Y-93400000D01*
X107650000Y-133525000D02*
X109050000Y-132125000D01*
X103550000Y-91075000D02*
X103550000Y-89660000D01*
X99670000Y-96050000D02*
X99300000Y-95680000D01*
D65*
X131240000Y-107900000D02*
X131240000Y-106940000D01*
X98380000Y-105080000D02*
X99100000Y-105800000D01*
X133425000Y-115375000D02*
X133500000Y-115300000D01*
D64*
X113550000Y-118130000D02*
X113480000Y-118200000D01*
X111550000Y-91075000D02*
X111550000Y-93150000D01*
D65*
X101880000Y-88280000D02*
X101700000Y-88100000D01*
D66*
X82700000Y-127300000D02*
X82700000Y-126500000D01*
D64*
X127025000Y-102550000D02*
X128155000Y-102550000D01*
X125310002Y-108200000D02*
X124600000Y-108200000D01*
X128675000Y-99050000D02*
X129200000Y-98525000D01*
D65*
X129700000Y-116500000D02*
X129100000Y-117100000D01*
D67*
X130070000Y-102070000D02*
X130700000Y-102700000D01*
D64*
%TO.N,/H7MCU/VCAP1*%
X104050000Y-91075000D02*
X104050000Y-92450000D01*
D65*
%TO.N,/+3.3V*%
X136525000Y-104225000D02*
X136600000Y-104300000D01*
D66*
X81700000Y-128700000D02*
X81700000Y-126700000D01*
D64*
X101575000Y-105050000D02*
X99850000Y-105050000D01*
D66*
X149700000Y-126100000D02*
X149900000Y-125900000D01*
X83600000Y-128700000D02*
X83600000Y-127400000D01*
X108000000Y-128700000D02*
X108700000Y-128000000D01*
D64*
X101575000Y-96050000D02*
X99670000Y-96050000D01*
X105780000Y-118142876D02*
X105780000Y-118200000D01*
D65*
X97800000Y-120300000D02*
X98600000Y-121100000D01*
X129700000Y-116700000D02*
X130300000Y-117300000D01*
D64*
X115550000Y-93150000D02*
X115400000Y-93300000D01*
D66*
X109050000Y-132125000D02*
X110025000Y-132125000D01*
X89650000Y-131500000D02*
X90100000Y-131500000D01*
X82700000Y-127300000D02*
X82700000Y-129500000D01*
D64*
X101575000Y-115925000D02*
X101300000Y-116200000D01*
D65*
X131340000Y-111060000D02*
X131300000Y-111100000D01*
D66*
X110025000Y-132125000D02*
X111500000Y-133600000D01*
X109050000Y-132125000D02*
X107225000Y-132125000D01*
D65*
X129200000Y-83900000D02*
X129600000Y-84300000D01*
X131640000Y-102500000D02*
X130900000Y-102500000D01*
D64*
X103750000Y-96050000D02*
X103800000Y-96100000D01*
D65*
X129700000Y-115400000D02*
X129700000Y-116700000D01*
D64*
X105200000Y-133525000D02*
X107650000Y-133525000D01*
D65*
X128950000Y-105280000D02*
X129720000Y-105280000D01*
D67*
X128950000Y-102070000D02*
X130070000Y-102070000D01*
D66*
X82700000Y-128600000D02*
X82700000Y-127300000D01*
D64*
X116780000Y-118880000D02*
X117300000Y-119400000D01*
D66*
X109050000Y-132125000D02*
X111125000Y-132125000D01*
D65*
X102380000Y-119700000D02*
X102180000Y-119900000D01*
D64*
X125660002Y-108550000D02*
X125310002Y-108200000D01*
D66*
X107412500Y-128700000D02*
X107412500Y-129012500D01*
D65*
X97800000Y-119887500D02*
X98987500Y-119887500D01*
X134875000Y-104225000D02*
X136525000Y-104225000D01*
D64*
X127025000Y-105050000D02*
X128720000Y-105050000D01*
D65*
X129200000Y-98525000D02*
X129375000Y-98525000D01*
D64*
X115550000Y-90069998D02*
X115550000Y-91075000D01*
X104050000Y-116525000D02*
X104050000Y-114350000D01*
D66*
X107912500Y-129200000D02*
X107412500Y-128700000D01*
D64*
X116550000Y-116525000D02*
X116550000Y-117970000D01*
X128620000Y-96050000D02*
X128920000Y-95750000D01*
%TO.N,/H7MCU/VCAP1*%
X104050000Y-92450000D02*
X103600000Y-92900000D01*
%TO.N,/+3.3V*%
X129175000Y-98550000D02*
X129200000Y-98525000D01*
D65*
X131340000Y-109800000D02*
X131340000Y-111060000D01*
D66*
X111125000Y-132125000D02*
X111500000Y-132500000D01*
X107225000Y-132125000D02*
X106900000Y-131800000D01*
D64*
X128155000Y-102550000D02*
X128635000Y-102070000D01*
X110920000Y-88900000D02*
X110920000Y-89439998D01*
X104050000Y-114350000D02*
X104100000Y-114300000D01*
D66*
X110775000Y-132125000D02*
X111500000Y-131400000D01*
D65*
X130100000Y-109730000D02*
X130100000Y-110800000D01*
D64*
X103850000Y-114550000D02*
X104100000Y-114300000D01*
X101575000Y-99050000D02*
X104539998Y-99050000D01*
D65*
X98987500Y-119887500D02*
X99300000Y-120200000D01*
X128950000Y-110750000D02*
X129000000Y-110800000D01*
X129375000Y-98525000D02*
X130300000Y-97600000D01*
D64*
%TO.N,/H7MCU/VREF+*%
X98300000Y-112080000D02*
X96270000Y-112080000D01*
D65*
X95050000Y-113300000D02*
X94400000Y-113300000D01*
X93000000Y-116000000D02*
X93210000Y-116210000D01*
X93210000Y-116210000D02*
X94100000Y-116210000D01*
D64*
X101575000Y-112050000D02*
X98330000Y-112050000D01*
D65*
X93000000Y-114700000D02*
X93000000Y-116000000D01*
X94400000Y-113300000D02*
X93000000Y-114700000D01*
D64*
X96270000Y-112080000D02*
X95050000Y-113300000D01*
X98330000Y-112050000D02*
X98300000Y-112080000D01*
D65*
%TO.N,/H7MCU/+3.3VA*%
X95400000Y-115220000D02*
X94130000Y-115220000D01*
D64*
X101575000Y-112550000D02*
X99280000Y-112550000D01*
D65*
X99400000Y-116712500D02*
X97800000Y-118312500D01*
X99400000Y-114900000D02*
X99400000Y-116712500D01*
D64*
X99280000Y-112550000D02*
X98080000Y-113750000D01*
D65*
X94130000Y-115220000D02*
X94100000Y-115190000D01*
X97400000Y-113750000D02*
X96870000Y-113750000D01*
X97400000Y-113750000D02*
X98250000Y-113750000D01*
D64*
X98080000Y-113750000D02*
X97400000Y-113750000D01*
D65*
X96870000Y-113750000D02*
X95400000Y-115220000D01*
X98250000Y-113750000D02*
X99400000Y-114900000D01*
%TO.N,/H7MCU/VDDSMPS*%
X92687500Y-104612500D02*
X92300000Y-105000000D01*
X92687500Y-103300000D02*
X92687500Y-104612500D01*
D64*
X101575000Y-100550000D02*
X102850000Y-100550000D01*
%TO.N,/H7MCU/VLXSMPS*%
X95700000Y-100300000D02*
X95700000Y-100380000D01*
%TO.N,/H7MCU/VCAP1*%
X96920000Y-101600000D02*
X96800000Y-101600000D01*
%TO.N,/H7MCU/HSE_IN*%
X93550000Y-106600000D02*
X93550000Y-105370000D01*
X96450010Y-107650010D02*
X94505020Y-107650010D01*
X94505020Y-107650010D02*
X93550000Y-106694990D01*
X93550000Y-105370000D02*
X94020000Y-104900000D01*
X96850000Y-108050000D02*
X96450010Y-107650010D01*
X101575000Y-108050000D02*
X96850000Y-108050000D01*
X93550000Y-106694990D02*
X93550000Y-106600000D01*
%TO.N,Net-(C48-Pad1)*%
X93550000Y-108800000D02*
X93550000Y-110630000D01*
D65*
X96934315Y-107200000D02*
X96334315Y-106600000D01*
D64*
X93550000Y-110630000D02*
X93720000Y-110800000D01*
D65*
X97500000Y-107200000D02*
X96934315Y-107200000D01*
D64*
X94980000Y-106330000D02*
X95250000Y-106600000D01*
D65*
X93550000Y-108800000D02*
X92800000Y-108800000D01*
D64*
X94980000Y-104900000D02*
X94980000Y-106330000D01*
D65*
X92800000Y-108800000D02*
X91900000Y-107900000D01*
X96334315Y-106600000D02*
X95250000Y-106600000D01*
D64*
%TO.N,/H7MCU/NRST*%
X148650000Y-122850000D02*
X145500000Y-119700000D01*
X145500000Y-119700000D02*
X141100000Y-119700000D01*
X121500000Y-84600000D02*
X121500000Y-83500000D01*
X122500000Y-82500000D02*
X129800000Y-82500000D01*
X138000000Y-84800000D02*
X142800000Y-89600000D01*
X103660002Y-109050000D02*
X101575000Y-109050000D01*
X122720000Y-85170000D02*
X122070000Y-85170000D01*
X148650000Y-122850000D02*
X148650000Y-116350000D01*
X148300000Y-116000000D02*
X148650000Y-116350000D01*
X128750010Y-118649990D02*
X125421253Y-115321233D01*
X119800020Y-109700000D02*
X114500000Y-109700000D01*
X140049990Y-118649990D02*
X128750010Y-118649990D01*
X132100000Y-84800000D02*
X138000000Y-84800000D01*
X122070000Y-85170000D02*
X121500000Y-84600000D01*
X142800000Y-89600000D02*
X142800000Y-94900000D01*
X121500000Y-83500000D02*
X122500000Y-82500000D01*
X129800000Y-82500000D02*
X131000000Y-83700000D01*
X125421253Y-115321233D02*
X119800020Y-109700000D01*
X148300000Y-113300000D02*
X148300000Y-116000000D01*
X141100000Y-119700000D02*
X140049990Y-118649990D01*
X131000000Y-83700000D02*
X132100000Y-84800000D01*
%TO.N,/H7MCU/OSC_IN*%
X98700000Y-97550000D02*
X101575000Y-97550000D01*
D65*
X96720000Y-95570000D02*
X96720000Y-94900000D01*
X97600000Y-96450000D02*
X96720000Y-95570000D01*
D64*
X97600000Y-96450000D02*
X98700000Y-97550000D01*
%TO.N,/H7MCU/OSC_OUT*%
X98500000Y-98050000D02*
X101575000Y-98050000D01*
D65*
X97020000Y-99530000D02*
X97600000Y-98950000D01*
X97020000Y-100400000D02*
X97020000Y-99530000D01*
D64*
X97600000Y-98950000D02*
X98500000Y-98050000D01*
%TO.N,/H7MCU/LED_STAT*%
X100050000Y-114050000D02*
X101575000Y-114050000D01*
X99900000Y-113900000D02*
X100050000Y-114050000D01*
X101487500Y-121887500D02*
X100700000Y-121100000D01*
X101487500Y-122700000D02*
X101487500Y-121887500D01*
D65*
%TO.N,Net-(D2-Pad1)*%
X97825000Y-122700000D02*
X99912500Y-122700000D01*
%TO.N,Net-(D3-Pad1)*%
X146875000Y-128000000D02*
X146875000Y-126137500D01*
X146875000Y-126137500D02*
X146912500Y-126100000D01*
D66*
%TO.N,Net-(F1-Pad2)*%
X140500000Y-124000000D02*
X140500000Y-122700000D01*
X131050000Y-121350000D02*
X131050000Y-124900000D01*
X137300000Y-119500000D02*
X132900000Y-119500000D01*
X132900000Y-119500000D02*
X131050000Y-121350000D01*
X140500000Y-122700000D02*
X137300000Y-119500000D01*
D64*
%TO.N,VCC*%
X137950001Y-129449999D02*
X137950001Y-127349999D01*
X137800000Y-129600000D02*
X137950001Y-129449999D01*
X138050001Y-127249999D02*
X140050001Y-127249999D01*
X138200000Y-127700000D02*
X139600000Y-127700000D01*
X137950001Y-127349999D02*
X138050001Y-127249999D01*
X132900000Y-127600000D02*
X133700000Y-126800000D01*
X139600000Y-127700000D02*
X140500000Y-126800000D01*
X133700000Y-126800000D02*
X140500000Y-126800000D01*
X140050001Y-127249999D02*
X140500000Y-126800000D01*
X138100000Y-127800000D02*
X138200000Y-127700000D01*
X133200000Y-129600000D02*
X133200000Y-127600000D01*
X132900000Y-129600000D02*
X132900000Y-127600000D01*
X138100000Y-129600000D02*
X138100000Y-127800000D01*
X133550001Y-127249999D02*
X138050001Y-127249999D01*
X133200000Y-127600000D02*
X133550001Y-127249999D01*
D66*
%TO.N,Net-(FB1-Pad1)*%
X125987500Y-125850000D02*
X125900000Y-125762500D01*
X128550000Y-125850000D02*
X125987500Y-125850000D01*
D63*
%TO.N,Net-(IC4-Pad10)*%
X126115000Y-131385000D02*
X126115000Y-129600000D01*
X124425000Y-133975000D02*
X124900000Y-133500000D01*
X123300000Y-133975000D02*
X124425000Y-133975000D01*
X124900000Y-133500000D02*
X124900000Y-132600000D01*
X124900000Y-132600000D02*
X126115000Y-131385000D01*
%TO.N,Net-(IC4-Pad1)*%
X118100000Y-131900000D02*
X117609998Y-131900000D01*
X115815000Y-131415000D02*
X115815000Y-129700000D01*
X119275000Y-133075000D02*
X118100000Y-131900000D01*
X116300000Y-131900000D02*
X115815000Y-131415000D01*
X120400000Y-133075000D02*
X119275000Y-133075000D01*
X117609998Y-131900000D02*
X116300000Y-131900000D01*
D64*
%TO.N,/Power/SW*%
X99800000Y-128900000D02*
X96700000Y-128900000D01*
X99800000Y-128900000D02*
X102600000Y-128900000D01*
X96700000Y-128900000D02*
X95950000Y-129650000D01*
X102875000Y-131200000D02*
X102875000Y-129175000D01*
X103525000Y-131200000D02*
X102875000Y-131200000D01*
X95950000Y-129650000D02*
X95950000Y-131500000D01*
X102600000Y-128900000D02*
X102875000Y-129175000D01*
%TO.N,/Power/PG*%
X105587500Y-129787500D02*
X105587500Y-128700000D01*
X104175000Y-131200000D02*
X105587500Y-129787500D01*
%TO.N,Net-(IC6-Pad174)*%
X104550000Y-91075000D02*
X104550000Y-89640000D01*
X104550000Y-89640000D02*
X104210000Y-89300000D01*
%TO.N,/H7MCU/BOOT0*%
X108050000Y-91075000D02*
X108050000Y-89040000D01*
X108050000Y-89040000D02*
X107910000Y-88900000D01*
%TO.N,/H7MCU/SWO*%
X110550000Y-89950000D02*
X110550000Y-91075000D01*
X123780001Y-86649999D02*
X125260000Y-85170000D01*
X110000000Y-89400000D02*
X110550000Y-89950000D01*
X110000000Y-88000000D02*
X110000000Y-89400000D01*
X111350001Y-86649999D02*
X110000000Y-88000000D01*
X111350001Y-86649999D02*
X123780001Y-86649999D01*
%TO.N,/H7MCU/SDMMC_CMD*%
X119100000Y-96100000D02*
X119100000Y-93000000D01*
X134875000Y-103125000D02*
X133935000Y-103125000D01*
X119100000Y-93000000D02*
X119050000Y-92950000D01*
X119050000Y-92950000D02*
X119050000Y-91075000D01*
X133935000Y-103125000D02*
X132560000Y-104500000D01*
X132560000Y-104500000D02*
X132560000Y-103760000D01*
X132560000Y-103760000D02*
X132400000Y-103600000D01*
%TO.N,/H7MCU/SDMMC_CK*%
X120200000Y-92700000D02*
X120550000Y-92350000D01*
X134875000Y-105325000D02*
X133175000Y-105325000D01*
X133175000Y-105325000D02*
X133000000Y-105500000D01*
X120200000Y-99200000D02*
X120200000Y-95900000D01*
X120200000Y-95900000D02*
X120200000Y-92700000D01*
X120550000Y-92350000D02*
X120550000Y-91075000D01*
%TO.N,/H7MCU/SDMMC_D3*%
X121050000Y-92650000D02*
X121050000Y-91075000D01*
X134875000Y-102025000D02*
X133025000Y-102025000D01*
X121300000Y-95800000D02*
X120849999Y-95349999D01*
X132660000Y-101740000D02*
X132700000Y-101700000D01*
X120849999Y-92850001D02*
X121050000Y-92650000D01*
X133025000Y-102025000D02*
X132700000Y-101700000D01*
X132660000Y-102500000D02*
X132660000Y-101740000D01*
X120849999Y-95349999D02*
X120849999Y-92850001D01*
%TO.N,/H7MCU/SDMMC_D2*%
X133585000Y-100925000D02*
X132610000Y-99950000D01*
X134875000Y-100925000D02*
X133585000Y-100925000D01*
X132610000Y-99010000D02*
X132600000Y-99000000D01*
X132610000Y-99950000D02*
X132610000Y-99010000D01*
X121600000Y-94600000D02*
X121550000Y-94550000D01*
X121550000Y-94550000D02*
X121550000Y-91075000D01*
%TO.N,/H7MCU/SWCLK*%
X122400000Y-93200000D02*
X122550000Y-93050000D01*
X122550000Y-93050000D02*
X122550000Y-91075000D01*
%TO.N,/H7MCU/SWDIO*%
X128550000Y-93050000D02*
X127025000Y-93050000D01*
X127800000Y-85170000D02*
X129800000Y-87170000D01*
X129800000Y-87170000D02*
X129800000Y-91800000D01*
X129800000Y-91800000D02*
X128550000Y-93050000D01*
D62*
%TO.N,/USB_D+*%
X126006800Y-93575000D02*
X121575000Y-98006800D01*
X127000000Y-93575000D02*
X126006800Y-93575000D01*
X121575000Y-99306801D02*
X107053033Y-113828768D01*
X127025000Y-93550000D02*
X127000000Y-93575000D01*
X107053033Y-113828768D02*
X106628768Y-113828768D01*
X121575000Y-98006800D02*
X121575000Y-99306801D01*
%TO.N,/USB_D-*%
X126193200Y-94025000D02*
X122025000Y-98193200D01*
X127025000Y-94050000D02*
X127000000Y-94025000D01*
X127000000Y-94025000D02*
X126193200Y-94025000D01*
X122025000Y-98193200D02*
X122025000Y-99493199D01*
X122025000Y-99493199D02*
X107371232Y-114146967D01*
X107371232Y-114146967D02*
X107371232Y-114571232D01*
D64*
%TO.N,/H7MCU/SDMMC_D1*%
X132360000Y-109060000D02*
X132200000Y-108900000D01*
X124750000Y-96550000D02*
X122475010Y-98824990D01*
X122475010Y-104224990D02*
X122400000Y-104300000D01*
X122475010Y-98824990D02*
X122475010Y-104224990D01*
X127025000Y-96550000D02*
X126050000Y-96550000D01*
X126050000Y-96550000D02*
X124750000Y-96550000D01*
X132360000Y-109800000D02*
X132360000Y-109060000D01*
X133535000Y-108625000D02*
X132360000Y-109800000D01*
X134875000Y-108625000D02*
X133535000Y-108625000D01*
%TO.N,/H7MCU/SDMMC_D0*%
X132260000Y-106860000D02*
X132200000Y-106800000D01*
X123800000Y-98500000D02*
X125250000Y-97050000D01*
X132635000Y-107525000D02*
X132260000Y-107900000D01*
X132260000Y-107900000D02*
X132260000Y-106860000D01*
X125250000Y-97050000D02*
X127025000Y-97050000D01*
X134875000Y-107525000D02*
X132635000Y-107525000D01*
X123800000Y-104000000D02*
X123800000Y-98500000D01*
%TO.N,/STM32_3_RX*%
X120550000Y-116525000D02*
X120550000Y-114150000D01*
X120550000Y-114150000D02*
X120600000Y-114100000D01*
D62*
%TO.N,/STM32_3_TX*%
X109600000Y-99400000D02*
X109800000Y-99600000D01*
D64*
X120050000Y-114660002D02*
X119600000Y-114210002D01*
X119600000Y-114210002D02*
X119600000Y-113900000D01*
X120050000Y-116525000D02*
X120050000Y-114660002D01*
D62*
X109600000Y-95600000D02*
X109600000Y-99400000D01*
D64*
%TO.N,/H7MCU/HSE_OUT*%
X98060000Y-108550000D02*
X101575000Y-108550000D01*
X97810000Y-108800000D02*
X98060000Y-108550000D01*
%TO.N,Net-(J2-PadB5)*%
X137250000Y-128150000D02*
X137200000Y-128100000D01*
X137250000Y-129600000D02*
X137250000Y-128150000D01*
%TO.N,Net-(J2-PadA5)*%
X134250000Y-128050000D02*
X134200000Y-128000000D01*
X134250000Y-129600000D02*
X134250000Y-128050000D01*
%TO.N,Net-(C48-Pad2)*%
X95250000Y-108800000D02*
X95250000Y-110230000D01*
X95250000Y-110230000D02*
X94680000Y-110800000D01*
X96790000Y-108800000D02*
X95250000Y-108800000D01*
%TD*%
M02*
