M48
; DRILL file {KiCad (5.99.0-3851-g809f4c2ffb)} date 11/30/20 00:42:46
; FORMAT={-:-/ absolute / metric / decimal}
; #@! TF.CreationDate,2020-11-30T00:42:46+00:00
; #@! TF.GenerationSoftware,Kicad,Pcbnew,(5.99.0-3851-g809f4c2ffb)
FMAT,2
METRIC
T1C0.400
T2C0.600
T3C0.650
T4C1.000
T5C3.200
T6C0.650
T7C2.700
%
G90
G05
T1
X78.0Y-106.2
X79.1Y-105.6
X79.5Y-104.4
X81.7Y-90.9
X81.7Y-128.7
X81.9Y-89.8
X82.5Y-133.8
X82.5Y-135.0
X82.6Y-129.6
X82.7Y-128.6
X83.5Y-134.3
X83.5Y-135.4
X83.6Y-128.7
X86.17Y-103.17
X87.5Y-105.4
X87.7Y-85.2
X87.8Y-84.0
X87.9Y-86.2
X88.4Y-108.6
X88.6Y-98.6
X88.7Y-96.8
X88.8Y-95.0
X89.1Y-107.4
X89.1Y-112.9
X89.4Y-111.6
X89.9Y-104.7
X90.4Y-133.8
X90.9Y-129.9
X91.0Y-114.7
X91.2Y-101.9
X91.2Y-131.1
X91.2Y-132.6
X91.4Y-115.5
X91.4Y-122.9
X91.9Y-107.9
X92.0Y-93.1
X92.0Y-100.0
X92.3Y-91.9
X92.3Y-105.0
X94.032Y-102.581
X94.25Y-96.9
X94.7Y-117.3
X94.7Y-121.5
X95.28Y-99.38
X95.7Y-100.3
X95.7Y-117.7
X95.8Y-121.3
X95.9Y-97.6
X96.0Y-102.6
X96.5Y-120.0
X96.6Y-118.9
X97.3Y-106.1
X97.5Y-86.2
X97.5Y-93.8
X97.5Y-107.2
X97.6Y-83.8
X97.6Y-85.0
X98.1Y-131.1
X98.6Y-121.1
X98.8Y-130.2
X99.1Y-103.4
X99.1Y-105.8
X99.1Y-131.2
X99.2Y-93.6
X99.3Y-109.5
X99.3Y-120.2
X99.5Y-89.5
X99.7Y-102.5
X99.9Y-113.9
X100.0Y-130.5
X100.3Y-119.4
X100.4Y-118.3
X100.7Y-121.1
X100.7Y-135.3
X101.3Y-116.2
X101.7Y-88.1
X102.1Y-121.1
X103.6Y-92.9
X103.66Y-109.05
X103.8Y-96.1
X104.0Y-110.5
X104.1Y-87.2
X104.1Y-114.3
X104.4Y-95.1
X104.5Y-119.4
X105.1Y-87.2
X105.2Y-97.1
X105.4Y-92.8
X105.5Y-131.3
X105.7Y-121.1
X105.7Y-124.3
X106.5Y-135.3
X106.629Y-113.829
X106.7Y-97.2
X106.7Y-101.7
X106.7Y-124.3
X106.8Y-87.3
X106.8Y-92.7
X106.8Y-100.4
X106.8Y-121.1
X106.9Y-119.0
X106.9Y-131.8
X107.371Y-114.571
X107.4Y-98.3
X107.7Y-87.3
X108.0Y-121.1
X108.0Y-124.4
X108.3Y-99.9
X108.4Y-92.8
X108.5Y-130.1
X108.7Y-128.0
X108.8Y-129.2
X109.2Y-121.2
X109.2Y-124.4
X109.6Y-95.6
X109.8Y-99.6
X110.4Y-92.8
X110.4Y-121.2
X110.4Y-124.4
X111.0Y-97.8
X111.0Y-128.9
X111.2Y-107.6
X111.3Y-93.4
X111.3Y-134.9
X111.5Y-124.4
X111.5Y-131.4
X111.5Y-132.5
X111.5Y-133.6
X111.7Y-121.2
X111.8Y-87.4
X112.2Y-135.6
X112.4Y-93.0
X112.5Y-119.5
X112.8Y-124.3
X113.5Y-129.9
X114.0Y-119.3
X114.0Y-124.4
X114.2Y-92.8
X114.5Y-109.7
X114.5Y-133.0
X114.8Y-133.9
X115.2Y-121.2
X115.2Y-124.3
X115.2Y-135.1
X115.4Y-93.3
X115.7Y-119.4
X116.3Y-121.2
X116.4Y-93.1
X116.4Y-124.3
X117.2Y-89.5
X117.3Y-119.4
X117.6Y-121.2
X117.6Y-124.3
X118.0Y-87.4
X118.0Y-92.8
X118.2Y-119.3
X118.5Y-112.4
X118.7Y-124.3
X118.8Y-121.2
X119.0Y-87.4
X119.1Y-96.1
X119.4Y-119.4
X119.6Y-113.9
X119.6Y-130.6
X119.8Y-128.8
X119.9Y-121.2
X120.1Y-124.2
X120.2Y-99.2
X120.3Y-87.4
X120.6Y-89.5
X120.6Y-114.1
X121.1Y-121.2
X121.3Y-95.8
X121.4Y-87.4
X121.6Y-94.6
X121.625Y-134.425
X122.0Y-124.0
X122.0Y-133.6
X122.3Y-87.4
X122.3Y-121.2
X122.4Y-93.2
X122.4Y-104.3
X122.5Y-114.8
X123.0Y-123.5
X123.4Y-106.8
X123.5Y-95.0
X123.5Y-121.1
X123.6Y-93.2
X123.8Y-104.0
X124.4Y-130.6
X124.6Y-108.2
X124.6Y-120.8
X124.7Y-100.6
X124.7Y-126.9
X125.1Y-109.1
X125.3Y-120.1
X126.1Y-119.4
X127.28Y-91.682
X127.4Y-87.5
X127.553Y-89.094
X127.7Y-119.2
X128.0Y-88.2
X128.0Y-122.6
X128.1Y-133.8
X128.2Y-135.0
X128.3Y-120.4
X128.5Y-132.9
X128.8Y-122.6
X128.9Y-94.5
X129.0Y-110.8
X129.1Y-117.1
X129.6Y-84.3
X129.6Y-134.6
X129.9Y-135.6
X130.2Y-110.9
X130.2Y-129.4
X130.2Y-131.8
X130.3Y-97.6
X130.3Y-117.3
X130.5Y-94.6
X130.5Y-104.5
X130.5Y-127.8
X130.7Y-100.8
X130.7Y-102.7
X131.1Y-106.8
X131.3Y-86.3
X131.3Y-97.4
X131.3Y-111.1
X131.9Y-116.7
X132.2Y-106.8
X132.2Y-108.9
X132.4Y-103.6
X132.4Y-133.9
X132.4Y-135.1
X132.6Y-99.0
X132.7Y-101.7
X132.9Y-112.7
X133.0Y-105.5
X133.5Y-113.7
X133.5Y-115.3
X134.2Y-128.0
X136.5Y-106.5
X136.6Y-103.3
X136.6Y-104.3
X136.7Y-107.5
X136.7Y-109.5
X137.2Y-128.1
X138.5Y-133.7
X138.5Y-134.8
X140.9Y-131.6
X141.1Y-130.7
X141.2Y-133.0
X141.8Y-134.2
X141.8Y-135.4
X142.8Y-94.9
X143.5Y-124.5
X144.9Y-124.3
X145.6Y-115.2
X146.4Y-116.1
X148.3Y-113.3
X149.0Y-129.3
X149.8Y-127.7
X149.9Y-125.9
X150.0Y-128.8
T3
X122.72Y-83.9
X122.72Y-85.17
X123.99Y-83.9
X123.99Y-85.17
X125.26Y-83.9
X125.26Y-85.17
X126.53Y-83.9
X126.53Y-85.17
X127.8Y-83.9
X127.8Y-85.17
T4
X144.15Y-116.35
X144.15Y-122.85
X148.65Y-116.35
X148.65Y-122.85
X79.3Y-90.56
X79.3Y-93.1
T5
X146.75Y-132.25
X78.6Y-132.0
X78.4Y-85.5
X146.0Y-85.6
T6
X132.6Y-131.05
X138.4Y-131.05
T7
X87.7Y-90.4
X87.7Y-123.4
X135.7Y-90.4
X135.7Y-123.4
T2
G00X131.18Y-130.22
M15
G01X131.18Y-130.82
M16
G05
G00X131.18Y-134.4
M15
G01X131.18Y-135.0
M16
G05
G00X139.82Y-130.22
M15
G01X139.82Y-130.82
M16
G05
G00X139.82Y-134.4
M15
G01X139.82Y-135.0
M16
G05
T0
M30
