%TF.GenerationSoftware,KiCad,Pcbnew,(5.99.0-8018-g9a0f685a75)*%
%TF.CreationDate,2021-03-03T16:59:48+00:00*%
%TF.ProjectId,CM4,434d342e-6b69-4636-9164-5f7063625858,rev?*%
%TF.SameCoordinates,Original*%
%TF.FileFunction,Legend,Bot*%
%TF.FilePolarity,Positive*%
%FSLAX46Y46*%
G04 Gerber Fmt 4.6, Leading zero omitted, Abs format (unit mm)*
G04 Created by KiCad (PCBNEW (5.99.0-8018-g9a0f685a75)) date 2021-03-03 16:59:48*
%MOMM*%
%LPD*%
G01*
G04 APERTURE LIST*
%ADD10C,0.150000*%
G04 APERTURE END LIST*
D10*
X113938095Y-80400000D02*
X113842857Y-80447619D01*
X113700000Y-80447619D01*
X113557142Y-80400000D01*
X113461904Y-80304761D01*
X113414285Y-80209523D01*
X113366666Y-80019047D01*
X113366666Y-79876190D01*
X113414285Y-79685714D01*
X113461904Y-79590476D01*
X113557142Y-79495238D01*
X113700000Y-79447619D01*
X113795238Y-79447619D01*
X113938095Y-79495238D01*
X113985714Y-79542857D01*
X113985714Y-79876190D01*
X113795238Y-79876190D01*
X114414285Y-79447619D02*
X114414285Y-80447619D01*
X114985714Y-79447619D01*
X114985714Y-80447619D01*
X115461904Y-79447619D02*
X115461904Y-80447619D01*
X115700000Y-80447619D01*
X115842857Y-80400000D01*
X115938095Y-80304761D01*
X115985714Y-80209523D01*
X116033333Y-80019047D01*
X116033333Y-79876190D01*
X115985714Y-79685714D01*
X115938095Y-79590476D01*
X115842857Y-79495238D01*
X115700000Y-79447619D01*
X115461904Y-79447619D01*
X120033333Y-79347619D02*
X119700000Y-79823809D01*
X119461904Y-79347619D02*
X119461904Y-80347619D01*
X119842857Y-80347619D01*
X119938095Y-80300000D01*
X119985714Y-80252380D01*
X120033333Y-80157142D01*
X120033333Y-80014285D01*
X119985714Y-79919047D01*
X119938095Y-79871428D01*
X119842857Y-79823809D01*
X119461904Y-79823809D01*
X120366666Y-80347619D02*
X121033333Y-79347619D01*
X121033333Y-80347619D02*
X120366666Y-79347619D01*
X117038095Y-80347619D02*
X117609523Y-80347619D01*
X117323809Y-79347619D02*
X117323809Y-80347619D01*
X117847619Y-80347619D02*
X118514285Y-79347619D01*
X118514285Y-80347619D02*
X117847619Y-79347619D01*
M02*
