%TF.GenerationSoftware,KiCad,Pcbnew,(5.99.0-8018-g9a0f685a75)*%
%TF.CreationDate,2021-03-05T19:35:09+00:00*%
%TF.ProjectId,CM4,434d342e-6b69-4636-9164-5f7063625858,rev?*%
%TF.SameCoordinates,Original*%
%TF.FileFunction,Paste,Top*%
%TF.FilePolarity,Positive*%
%FSLAX46Y46*%
G04 Gerber Fmt 4.6, Leading zero omitted, Abs format (unit mm)*
G04 Created by KiCad (PCBNEW (5.99.0-8018-g9a0f685a75)) date 2021-03-05 19:35:09*
%MOMM*%
%LPD*%
G01*
G04 APERTURE LIST*
G04 Aperture macros list*
%AMRoundRect*
0 Rectangle with rounded corners*
0 $1 Rounding radius*
0 $2 $3 $4 $5 $6 $7 $8 $9 X,Y pos of 4 corners*
0 Add a 4 corners polygon primitive as box body*
4,1,4,$2,$3,$4,$5,$6,$7,$8,$9,$2,$3,0*
0 Add four circle primitives for the rounded corners*
1,1,$1+$1,$2,$3,0*
1,1,$1+$1,$4,$5,0*
1,1,$1+$1,$6,$7,0*
1,1,$1+$1,$8,$9,0*
0 Add four rect primitives between the rounded corners*
20,1,$1+$1,$2,$3,$4,$5,0*
20,1,$1+$1,$4,$5,$6,$7,0*
20,1,$1+$1,$6,$7,$8,$9,0*
20,1,$1+$1,$8,$9,$2,$3,0*%
G04 Aperture macros list end*
%ADD10RoundRect,0.140000X-0.140000X-0.170000X0.140000X-0.170000X0.140000X0.170000X-0.140000X0.170000X0*%
%ADD11RoundRect,0.225000X-0.250000X0.225000X-0.250000X-0.225000X0.250000X-0.225000X0.250000X0.225000X0*%
%ADD12RoundRect,0.225000X0.250000X-0.225000X0.250000X0.225000X-0.250000X0.225000X-0.250000X-0.225000X0*%
%ADD13R,1.050000X0.550000*%
%ADD14RoundRect,0.250000X0.325000X0.650000X-0.325000X0.650000X-0.325000X-0.650000X0.325000X-0.650000X0*%
%ADD15RoundRect,0.225000X-0.225000X-0.250000X0.225000X-0.250000X0.225000X0.250000X-0.225000X0.250000X0*%
%ADD16RoundRect,0.250000X0.625000X-0.375000X0.625000X0.375000X-0.625000X0.375000X-0.625000X-0.375000X0*%
%ADD17RoundRect,0.250000X-0.425000X0.450000X-0.425000X-0.450000X0.425000X-0.450000X0.425000X0.450000X0*%
%ADD18RoundRect,0.135000X0.135000X0.185000X-0.135000X0.185000X-0.135000X-0.185000X0.135000X-0.185000X0*%
%ADD19RoundRect,0.140000X-0.170000X0.140000X-0.170000X-0.140000X0.170000X-0.140000X0.170000X0.140000X0*%
%ADD20RoundRect,0.135000X-0.135000X-0.185000X0.135000X-0.185000X0.135000X0.185000X-0.135000X0.185000X0*%
%ADD21RoundRect,0.218750X0.256250X-0.218750X0.256250X0.218750X-0.256250X0.218750X-0.256250X-0.218750X0*%
%ADD22RoundRect,0.140000X0.140000X0.170000X-0.140000X0.170000X-0.140000X-0.170000X0.140000X-0.170000X0*%
%ADD23R,1.450000X0.300000*%
%ADD24RoundRect,0.250000X-0.650000X0.325000X-0.650000X-0.325000X0.650000X-0.325000X0.650000X0.325000X0*%
%ADD25RoundRect,0.150000X0.150000X-0.512500X0.150000X0.512500X-0.150000X0.512500X-0.150000X-0.512500X0*%
%ADD26R,1.200000X0.600000*%
%ADD27RoundRect,0.218750X-0.218750X-0.256250X0.218750X-0.256250X0.218750X0.256250X-0.218750X0.256250X0*%
%ADD28RoundRect,0.250000X-0.450000X-0.425000X0.450000X-0.425000X0.450000X0.425000X-0.450000X0.425000X0*%
%ADD29R,1.200000X1.400000*%
%ADD30RoundRect,0.140000X0.170000X-0.140000X0.170000X0.140000X-0.170000X0.140000X-0.170000X-0.140000X0*%
%ADD31RoundRect,0.200000X-0.275000X0.200000X-0.275000X-0.200000X0.275000X-0.200000X0.275000X0.200000X0*%
%ADD32RoundRect,0.250000X-0.625000X0.312500X-0.625000X-0.312500X0.625000X-0.312500X0.625000X0.312500X0*%
%ADD33RoundRect,0.135000X0.185000X-0.135000X0.185000X0.135000X-0.185000X0.135000X-0.185000X-0.135000X0*%
%ADD34RoundRect,0.250000X0.450000X0.425000X-0.450000X0.425000X-0.450000X-0.425000X0.450000X-0.425000X0*%
%ADD35RoundRect,0.200000X0.200000X0.275000X-0.200000X0.275000X-0.200000X-0.275000X0.200000X-0.275000X0*%
%ADD36RoundRect,0.075000X-0.725000X-0.075000X0.725000X-0.075000X0.725000X0.075000X-0.725000X0.075000X0*%
%ADD37RoundRect,0.075000X-0.075000X-0.725000X0.075000X-0.725000X0.075000X0.725000X-0.075000X0.725000X0*%
%ADD38R,0.600000X1.200000*%
%ADD39RoundRect,0.200000X0.275000X-0.200000X0.275000X0.200000X-0.275000X0.200000X-0.275000X-0.200000X0*%
%ADD40RoundRect,0.225000X0.225000X0.250000X-0.225000X0.250000X-0.225000X-0.250000X0.225000X-0.250000X0*%
%ADD41RoundRect,0.135000X-0.185000X0.135000X-0.185000X-0.135000X0.185000X-0.135000X0.185000X0.135000X0*%
%ADD42R,0.550000X1.050000*%
%ADD43R,1.200000X0.700000*%
%ADD44R,0.800000X1.000000*%
%ADD45R,2.800000X1.000000*%
%ADD46R,1.900000X1.300000*%
%ADD47R,1.200000X1.000000*%
%ADD48R,1.525000X0.650000*%
%ADD49R,2.290000X2.290000*%
%ADD50R,1.000001X0.599999*%
%ADD51RoundRect,0.218750X-0.218750X-0.381250X0.218750X-0.381250X0.218750X0.381250X-0.218750X0.381250X0*%
G04 APERTURE END LIST*
D10*
%TO.C,C12*%
X101720000Y-96600000D03*
X102680000Y-96600000D03*
%TD*%
D11*
%TO.C,C3*%
X141000000Y-109725000D03*
X141000000Y-111275000D03*
%TD*%
D12*
%TO.C,C35*%
X101800000Y-111175000D03*
X101800000Y-109625000D03*
%TD*%
D13*
%TO.C,IC3*%
X103300000Y-92850000D03*
X103300000Y-93800000D03*
X103300000Y-94750000D03*
X105900000Y-94750000D03*
X105900000Y-93800000D03*
X105900000Y-92850000D03*
%TD*%
D11*
%TO.C,C5*%
X141000000Y-113225000D03*
X141000000Y-114775000D03*
%TD*%
D14*
%TO.C,C15*%
X134075000Y-103600000D03*
X131125000Y-103600000D03*
%TD*%
D15*
%TO.C,C39*%
X113625000Y-109400000D03*
X115175000Y-109400000D03*
%TD*%
D16*
%TO.C,F1*%
X145000000Y-114400000D03*
X145000000Y-111600000D03*
%TD*%
D15*
%TO.C,C40*%
X113625000Y-105200000D03*
X115175000Y-105200000D03*
%TD*%
D17*
%TO.C,C25*%
X120142000Y-97964000D03*
X120142000Y-100664000D03*
%TD*%
D18*
%TO.C,R8*%
X99510000Y-95000000D03*
X98490000Y-95000000D03*
%TD*%
D19*
%TO.C,C18*%
X120100000Y-87020000D03*
X120100000Y-87980000D03*
%TD*%
D20*
%TO.C,R4*%
X102290000Y-87800000D03*
X103310000Y-87800000D03*
%TD*%
D15*
%TO.C,C38*%
X113625000Y-107600000D03*
X115175000Y-107600000D03*
%TD*%
D10*
%TO.C,C34*%
X142800000Y-76800000D03*
X143760000Y-76800000D03*
%TD*%
D21*
%TO.C,D2*%
X126900000Y-104187500D03*
X126900000Y-102612500D03*
%TD*%
D19*
%TO.C,C17*%
X140200000Y-84720000D03*
X140200000Y-85680000D03*
%TD*%
D15*
%TO.C,C36*%
X109225000Y-106800000D03*
X110775000Y-106800000D03*
%TD*%
D18*
%TO.C,R3*%
X105910000Y-91000000D03*
X104890000Y-91000000D03*
%TD*%
D17*
%TO.C,C13*%
X140000000Y-99350000D03*
X140000000Y-102050000D03*
%TD*%
D22*
%TO.C,C16*%
X124780000Y-101000000D03*
X123820000Y-101000000D03*
%TD*%
D23*
%TO.C,J1*%
X155900000Y-114100000D03*
X155900000Y-113300000D03*
X155900000Y-111950000D03*
X155900000Y-110950000D03*
X155900000Y-110450000D03*
X155900000Y-109450000D03*
X155900000Y-108100000D03*
X155900000Y-107300000D03*
X155900000Y-107600000D03*
X155900000Y-108400000D03*
X155900000Y-108950000D03*
X155900000Y-109950000D03*
X155900000Y-111450000D03*
X155900000Y-112450000D03*
X155900000Y-113000000D03*
X155900000Y-113800000D03*
%TD*%
D24*
%TO.C,C19*%
X141500000Y-92525000D03*
X141500000Y-95475000D03*
%TD*%
D18*
%TO.C,R11*%
X99510000Y-97400000D03*
X98490000Y-97400000D03*
%TD*%
%TO.C,R20*%
X120710000Y-91300000D03*
X119690000Y-91300000D03*
%TD*%
D25*
%TO.C,U4*%
X150250000Y-105837500D03*
X151200000Y-105837500D03*
X152150000Y-105837500D03*
X152150000Y-103562500D03*
X151200000Y-103562500D03*
X150250000Y-103562500D03*
%TD*%
D15*
%TO.C,C41*%
X102625000Y-106600000D03*
X104175000Y-106600000D03*
%TD*%
%TO.C,C27*%
X121825000Y-112250000D03*
X123375000Y-112250000D03*
%TD*%
D20*
%TO.C,R7*%
X99490000Y-86000000D03*
X100510000Y-86000000D03*
%TD*%
D26*
%TO.C,IC6*%
X109150000Y-109450000D03*
X109150000Y-110400000D03*
X109150000Y-111350000D03*
X111650000Y-111350000D03*
X111650000Y-109450000D03*
%TD*%
D18*
%TO.C,R17*%
X144110000Y-79700000D03*
X143090000Y-79700000D03*
%TD*%
D27*
%TO.C,D3*%
X151500000Y-95100000D03*
X153075000Y-95100000D03*
%TD*%
D18*
%TO.C,R19*%
X144110000Y-81400000D03*
X143090000Y-81400000D03*
%TD*%
D10*
%TO.C,C10*%
X99720000Y-91600000D03*
X100680000Y-91600000D03*
%TD*%
D28*
%TO.C,C42*%
X110250000Y-114200000D03*
X112950000Y-114200000D03*
%TD*%
D19*
%TO.C,C32*%
X98400000Y-99320000D03*
X98400000Y-100280000D03*
%TD*%
D10*
%TO.C,C21*%
X123020000Y-81000000D03*
X123980000Y-81000000D03*
%TD*%
D29*
%TO.C,Y1*%
X116350000Y-88300000D03*
X116350000Y-90500000D03*
X118050000Y-90500000D03*
X118050000Y-88300000D03*
%TD*%
D18*
%TO.C,R23*%
X143510000Y-87300000D03*
X142490000Y-87300000D03*
%TD*%
D21*
%TO.C,FB2*%
X118110000Y-99466500D03*
X118110000Y-97891500D03*
%TD*%
D30*
%TO.C,C20*%
X120300000Y-85080000D03*
X120300000Y-84120000D03*
%TD*%
D31*
%TO.C,R12*%
X115400000Y-111175000D03*
X115400000Y-112825000D03*
%TD*%
D32*
%TO.C,R1*%
X151000000Y-111537500D03*
X151000000Y-114462500D03*
%TD*%
D12*
%TO.C,C22*%
X119253000Y-110122000D03*
X119253000Y-108572000D03*
%TD*%
D19*
%TO.C,C26*%
X115443000Y-97564000D03*
X115443000Y-98524000D03*
%TD*%
D33*
%TO.C,R27*%
X127100000Y-81010000D03*
X127100000Y-79990000D03*
%TD*%
D12*
%TO.C,C37*%
X106600000Y-108175000D03*
X106600000Y-106625000D03*
%TD*%
D30*
%TO.C,C50*%
X154100000Y-99980000D03*
X154100000Y-99020000D03*
%TD*%
D32*
%TO.C,R2*%
X148000000Y-111537500D03*
X148000000Y-114462500D03*
%TD*%
D10*
%TO.C,C48*%
X116620000Y-92200000D03*
X117580000Y-92200000D03*
%TD*%
D34*
%TO.C,C23*%
X117350000Y-95600000D03*
X114650000Y-95600000D03*
%TD*%
D35*
%TO.C,R28*%
X153125000Y-97000000D03*
X151475000Y-97000000D03*
%TD*%
D36*
%TO.C,U2*%
X122525000Y-85100000D03*
X122525000Y-85600000D03*
X122525000Y-86100000D03*
X122525000Y-86600000D03*
X122525000Y-87100000D03*
X122525000Y-87600000D03*
X122525000Y-88100000D03*
X122525000Y-88600000D03*
X122525000Y-89100000D03*
X122525000Y-89600000D03*
X122525000Y-90100000D03*
X122525000Y-90600000D03*
X122525000Y-91100000D03*
X122525000Y-91600000D03*
X122525000Y-92100000D03*
X122525000Y-92600000D03*
X122525000Y-93100000D03*
X122525000Y-93600000D03*
X122525000Y-94100000D03*
X122525000Y-94600000D03*
X122525000Y-95100000D03*
X122525000Y-95600000D03*
X122525000Y-96100000D03*
X122525000Y-96600000D03*
X122525000Y-97100000D03*
D37*
X124200000Y-98775000D03*
X124700000Y-98775000D03*
X125200000Y-98775000D03*
X125700000Y-98775000D03*
X126200000Y-98775000D03*
X126700000Y-98775000D03*
X127200000Y-98775000D03*
X127700000Y-98775000D03*
X128200000Y-98775000D03*
X128700000Y-98775000D03*
X129200000Y-98775000D03*
X129700000Y-98775000D03*
X130200000Y-98775000D03*
X130700000Y-98775000D03*
X131200000Y-98775000D03*
X131700000Y-98775000D03*
X132200000Y-98775000D03*
X132700000Y-98775000D03*
X133200000Y-98775000D03*
X133700000Y-98775000D03*
X134200000Y-98775000D03*
X134700000Y-98775000D03*
X135200000Y-98775000D03*
X135700000Y-98775000D03*
X136200000Y-98775000D03*
D36*
X137875000Y-97100000D03*
X137875000Y-96600000D03*
X137875000Y-96100000D03*
X137875000Y-95600000D03*
X137875000Y-95100000D03*
X137875000Y-94600000D03*
X137875000Y-94100000D03*
X137875000Y-93600000D03*
X137875000Y-93100000D03*
X137875000Y-92600000D03*
X137875000Y-92100000D03*
X137875000Y-91600000D03*
X137875000Y-91100000D03*
X137875000Y-90600000D03*
X137875000Y-90100000D03*
X137875000Y-89600000D03*
X137875000Y-89100000D03*
X137875000Y-88600000D03*
X137875000Y-88100000D03*
X137875000Y-87600000D03*
X137875000Y-87100000D03*
X137875000Y-86600000D03*
X137875000Y-86100000D03*
X137875000Y-85600000D03*
X137875000Y-85100000D03*
D37*
X136200000Y-83425000D03*
X135700000Y-83425000D03*
X135200000Y-83425000D03*
X134700000Y-83425000D03*
X134200000Y-83425000D03*
X133700000Y-83425000D03*
X133200000Y-83425000D03*
X132700000Y-83425000D03*
X132200000Y-83425000D03*
X131700000Y-83425000D03*
X131200000Y-83425000D03*
X130700000Y-83425000D03*
X130200000Y-83425000D03*
X129700000Y-83425000D03*
X129200000Y-83425000D03*
X128700000Y-83425000D03*
X128200000Y-83425000D03*
X127700000Y-83425000D03*
X127200000Y-83425000D03*
X126700000Y-83425000D03*
X126200000Y-83425000D03*
X125700000Y-83425000D03*
X125200000Y-83425000D03*
X124700000Y-83425000D03*
X124200000Y-83425000D03*
%TD*%
D13*
%TO.C,IC2*%
X105500000Y-86850000D03*
X105500000Y-87800000D03*
X105500000Y-88750000D03*
X108100000Y-88750000D03*
X108100000Y-87800000D03*
X108100000Y-86850000D03*
%TD*%
D38*
%TO.C,Q1*%
X146450000Y-105750000D03*
X144550000Y-105750000D03*
X145500000Y-108250000D03*
%TD*%
D39*
%TO.C,R14*%
X104000000Y-111225000D03*
X104000000Y-109575000D03*
%TD*%
D12*
%TO.C,C33*%
X99400000Y-111175000D03*
X99400000Y-109625000D03*
%TD*%
D10*
%TO.C,C11*%
X101920000Y-86000000D03*
X102880000Y-86000000D03*
%TD*%
D40*
%TO.C,C28*%
X122575000Y-105400000D03*
X121025000Y-105400000D03*
%TD*%
D41*
%TO.C,R10*%
X97800000Y-86790000D03*
X97800000Y-87810000D03*
%TD*%
D18*
%TO.C,R6*%
X103310000Y-89800000D03*
X102290000Y-89800000D03*
%TD*%
D39*
%TO.C,R13*%
X106400000Y-113025000D03*
X106400000Y-111375000D03*
%TD*%
D42*
%TO.C,IC5*%
X105750000Y-98900000D03*
X104800000Y-98900000D03*
X103850000Y-98900000D03*
X103850000Y-101500000D03*
X104800000Y-101500000D03*
X105750000Y-101500000D03*
%TD*%
D43*
%TO.C,J4*%
X146875000Y-80725000D03*
X146875000Y-81825000D03*
X146875000Y-82925000D03*
X146875000Y-84025000D03*
X146875000Y-85125000D03*
X146875000Y-86225000D03*
X146875000Y-87325000D03*
X146875000Y-88425000D03*
X146875000Y-89375000D03*
D44*
X157375000Y-90325000D03*
D45*
X161525000Y-90325000D03*
D46*
X161975000Y-76825000D03*
D47*
X146875000Y-79175000D03*
X151175000Y-90325000D03*
%TD*%
D10*
%TO.C,C29*%
X119120000Y-93110000D03*
X120080000Y-93110000D03*
%TD*%
D19*
%TO.C,C30*%
X108400000Y-93720000D03*
X108400000Y-94680000D03*
%TD*%
D48*
%TO.C,IC1*%
X133038000Y-109595000D03*
X133038000Y-110865000D03*
X133038000Y-112135000D03*
X133038000Y-113405000D03*
X138462000Y-113405000D03*
X138462000Y-112135000D03*
X138462000Y-110865000D03*
X138462000Y-109595000D03*
D49*
X135750000Y-111500000D03*
%TD*%
D33*
%TO.C,R5*%
X100600000Y-100310000D03*
X100600000Y-99290000D03*
%TD*%
D10*
%TO.C,C49*%
X116320000Y-86400000D03*
X117280000Y-86400000D03*
%TD*%
%TO.C,C31*%
X99520000Y-87800000D03*
X100480000Y-87800000D03*
%TD*%
D40*
%TO.C,C1*%
X130525000Y-109750000D03*
X128975000Y-109750000D03*
%TD*%
D20*
%TO.C,R9*%
X99690000Y-89800000D03*
X100710000Y-89800000D03*
%TD*%
D22*
%TO.C,C14*%
X137080000Y-101200000D03*
X136120000Y-101200000D03*
%TD*%
D18*
%TO.C,R22*%
X144110000Y-84200000D03*
X143090000Y-84200000D03*
%TD*%
D50*
%TO.C,U3*%
X121624999Y-108049999D03*
X121624999Y-109000000D03*
X121624999Y-109949998D03*
X124374999Y-109949998D03*
X124374999Y-109000000D03*
X124374999Y-108049999D03*
%TD*%
D41*
%TO.C,R24*%
X143300000Y-89090000D03*
X143300000Y-90110000D03*
%TD*%
D40*
%TO.C,C4*%
X130525000Y-112000000D03*
X128975000Y-112000000D03*
%TD*%
D51*
%TO.C,FB1*%
X144037500Y-103500000D03*
X146162500Y-103500000D03*
%TD*%
D10*
%TO.C,C24*%
X119520000Y-94600000D03*
X120480000Y-94600000D03*
%TD*%
D15*
%TO.C,C2*%
X140825000Y-107000000D03*
X142375000Y-107000000D03*
%TD*%
D41*
%TO.C,R18*%
X116586000Y-97534000D03*
X116586000Y-98554000D03*
%TD*%
D39*
%TO.C,R21*%
X124700000Y-104225000D03*
X124700000Y-102575000D03*
%TD*%
M02*
