M48
; DRILL file {KiCad (5.99.0-8018-g9a0f685a75)} date 03/03/21 16:59:16
; FORMAT={-:-/ absolute / metric / decimal}
; #@! TF.CreationDate,2021-03-03T16:59:16+00:00
; #@! TF.GenerationSoftware,Kicad,Pcbnew,(5.99.0-8018-g9a0f685a75)
FMAT,2
METRIC
T1C0.300
T2C0.400
T3C0.600
T4C0.650
T5C0.800
T6C1.000
T7C1.500
T8C1.700
T9C0.650
%
G90
G05
T1
X125.7Y-101.0
X134.2Y-81.6
X134.8Y-84.8
X135.5Y-91.2
X137.8Y-82.5
X138.8Y-81.0
X139.5Y-90.4
X139.8Y-89.6
X139.9Y-92.7
X142.083Y-89.017
X142.8Y-84.9
X143.2Y-85.8
X145.5Y-88.3
X153.2Y-93.8
X158.8Y-111.4
T2
X97.2Y-85.8
X98.8Y-108.2
X100.6Y-98.0
X101.6Y-94.8
X101.6Y-108.4
X102.0Y-93.8
X102.2Y-88.6
X102.8Y-91.0
X103.8Y-97.6
X104.0Y-105.2
X104.0Y-108.4
X106.4Y-105.2
X107.0Y-101.6
X107.3Y-92.9
X107.8Y-110.4
X108.3Y-92.3
X108.4Y-105.2
X109.3Y-96.4
X109.6Y-86.8
X110.0Y-89.0
X114.6Y-115.2
X115.0Y-88.4
X116.4Y-105.0
X116.6Y-107.4
X116.6Y-109.4
X119.1Y-86.4
X119.2Y-85.1
X119.8Y-89.6
X120.8Y-92.5
X121.8Y-81.0
X124.6Y-90.1
X125.2Y-91.6
X130.7Y-108.2
X132.3Y-81.2
X133.3Y-108.1
X134.0Y-87.5
X137.1Y-102.2
X137.2Y-77.0
X137.8Y-115.2
X139.1Y-84.1
X140.2Y-108.3
X141.5Y-76.9
X141.5Y-87.4
X141.9Y-79.7
X141.9Y-81.4
X142.1Y-100.1
X144.6Y-90.6
X145.0Y-76.7
X148.2Y-84.0
X148.2Y-86.1
X148.2Y-110.2
X152.3Y-98.9
X153.7Y-104.8
X154.3Y-109.0
X157.8Y-108.7
X157.8Y-112.6
X158.8Y-109.7
X159.8Y-110.4
X159.8Y-112.0
T4
X130.22Y-77.0
X130.22Y-78.27
X131.49Y-77.0
X131.49Y-78.27
X132.76Y-77.0
X132.76Y-78.27
X134.03Y-77.0
X134.03Y-78.27
X135.3Y-77.0
X135.3Y-78.27
T5
X98.6Y-103.7
X99.7Y-113.9
X100.6Y-106.6
X105.0Y-114.2
X106.7Y-77.9
X107.1Y-83.4
X107.8Y-98.1
X108.2Y-114.8
X110.0Y-82.7
X112.0Y-108.4
X112.1Y-100.1
X112.3Y-85.3
X112.3Y-90.2
X112.4Y-77.0
X113.6Y-103.8
X115.7Y-82.8
X115.9Y-102.2
X117.9Y-114.0
X125.9Y-86.6
X126.4Y-77.1
X127.0Y-95.1
X128.1Y-106.2
X131.6Y-95.2
X137.0Y-106.1
X144.1Y-97.1
X147.7Y-101.2
X149.4Y-80.9
X151.0Y-78.3
X155.4Y-85.1
X158.6Y-104.4
X158.7Y-78.4
X159.4Y-96.7
X159.7Y-85.1
T6
X115.22Y-77.4
X117.76Y-77.4
X120.3Y-77.4
X157.3Y-94.15
X157.3Y-100.65
X161.8Y-94.15
X161.8Y-100.65
T7
X101.6Y-80.5
T8
X99.06Y-77.96
X99.06Y-83.04
X104.14Y-77.96
X104.14Y-83.04
T9
X157.35Y-107.8
X157.35Y-113.6
T3
G00X156.52Y-106.38
M15
G01X157.12Y-106.38
M16
G05
G00X156.52Y-115.02
M15
G01X157.12Y-115.02
M16
G05
G00X160.7Y-106.38
M15
G01X161.3Y-106.38
M16
G05
G00X160.7Y-115.02
M15
G01X161.3Y-115.02
M16
G05
T0
M30
